<?xml version="1.0" encoding="utf-8" standalone="no"?>
<!DOCTYPE svg PUBLIC "-//W3C//DTD SVG 1.1//EN"
  "http://www.w3.org/Graphics/SVG/1.1/DTD/svg11.dtd">
<svg xmlns:xlink="http://www.w3.org/1999/xlink" width="7200pt" height="288pt" viewBox="0 0 7200 288" xmlns="http://www.w3.org/2000/svg" version="1.1">
 <metadata>
  <rdf:RDF xmlns:dc="http://purl.org/dc/elements/1.1/" xmlns:cc="http://creativecommons.org/ns#" xmlns:rdf="http://www.w3.org/1999/02/22-rdf-syntax-ns#">
   <cc:Work>
    <dc:type rdf:resource="http://purl.org/dc/dcmitype/StillImage"/>
    <dc:date>2024-07-09T21:13:13.704695</dc:date>
    <dc:format>image/svg+xml</dc:format>
    <dc:creator>
     <cc:Agent>
      <dc:title>Matplotlib v3.7.5, https://matplotlib.org/</dc:title>
     </cc:Agent>
    </dc:creator>
   </cc:Work>
  </rdf:RDF>
 </metadata>
 <defs>
  <style type="text/css">*{stroke-linejoin: round; stroke-linecap: butt}</style>
 </defs>
 <g id="figure_1">
  <g id="patch_1">
   <path d="M 0 288 
L 7200 288 
L 7200 0 
L 0 0 
z
" style="fill: #ffffff"/>
  </g>
  <g id="axes_1">
   <g id="patch_2">
    <path d="M 0 288 
L 7200 288 
L 7200 0 
L 0 0 
z
" style="fill: #ffffff"/>
   </g>
   <g id="patch_3">
    <path d="M 327.272727 288 
L 331.279752 288 
L 331.279752 285.201166 
L 327.272727 285.201166 
z
" clip-path="url(#pb49a5a392c)" style="fill: #0000ff"/>
   </g>
   <g id="patch_4">
    <path d="M 381.6544 288 
L 385.661425 288 
L 385.661425 285.201166 
L 381.6544 285.201166 
z
" clip-path="url(#pb49a5a392c)" style="fill: #0000ff"/>
   </g>
   <g id="patch_5">
    <path d="M 403.702788 288 
L 407.709813 288 
L 407.709813 285.201166 
L 403.702788 285.201166 
z
" clip-path="url(#pb49a5a392c)" style="fill: #0000ff"/>
   </g>
   <g id="patch_6">
    <path d="M 407.472063 288 
L 411.479088 288 
L 411.479088 276.804665 
L 407.472063 276.804665 
z
" clip-path="url(#pb49a5a392c)" style="fill: #0000ff"/>
   </g>
   <g id="patch_7">
    <path d="M 408.789639 288 
L 412.796664 288 
L 412.796664 285.201166 
L 408.789639 285.201166 
z
" clip-path="url(#pb49a5a392c)" style="fill: #0000ff"/>
   </g>
   <g id="patch_8">
    <path d="M 426.990882 288 
L 430.997907 288 
L 430.997907 276.804665 
L 426.990882 276.804665 
z
" clip-path="url(#pb49a5a392c)" style="fill: #0000ff"/>
   </g>
   <g id="patch_9">
    <path d="M 429.603863 288 
L 433.610888 288 
L 433.610888 276.804665 
L 429.603863 276.804665 
z
" clip-path="url(#pb49a5a392c)" style="fill: #0000ff"/>
   </g>
   <g id="patch_10">
    <path d="M 430.599342 288 
L 434.606367 288 
L 434.606367 237.620991 
L 430.599342 237.620991 
z
" clip-path="url(#pb49a5a392c)" style="fill: #0000ff"/>
   </g>
   <g id="patch_11">
    <path d="M 434.077105 288 
L 438.08413 288 
L 438.08413 260.011662 
L 434.077105 260.011662 
z
" clip-path="url(#pb49a5a392c)" style="fill: #0000ff"/>
   </g>
   <g id="patch_12">
    <path d="M 437.742598 288 
L 441.749623 288 
L 441.749623 181.644315 
L 437.742598 181.644315 
z
" clip-path="url(#pb49a5a392c)" style="fill: #0000ff"/>
   </g>
   <g id="patch_13">
    <path d="M 438.053744 288 
L 442.060769 288 
L 442.060769 279.603499 
L 438.053744 279.603499 
z
" clip-path="url(#pb49a5a392c)" style="fill: #0000ff"/>
   </g>
   <g id="patch_14">
    <path d="M 438.267853 288 
L 442.274877 288 
L 442.274877 268.408163 
L 438.267853 268.408163 
z
" clip-path="url(#pb49a5a392c)" style="fill: #0000ff"/>
   </g>
   <g id="patch_15">
    <path d="M 440.828542 288 
L 444.835567 288 
L 444.835567 260.011662 
L 440.828542 260.011662 
z
" clip-path="url(#pb49a5a392c)" style="fill: #0000ff"/>
   </g>
   <g id="patch_16">
    <path d="M 440.95316 288 
L 444.960185 288 
L 444.960185 251.61516 
L 440.95316 251.61516 
z
" clip-path="url(#pb49a5a392c)" style="fill: #0000ff"/>
   </g>
   <g id="patch_17">
    <path d="M 448.18564 288 
L 452.192665 288 
L 452.192665 260.011662 
L 448.18564 260.011662 
z
" clip-path="url(#pb49a5a392c)" style="fill: #0000ff"/>
   </g>
   <g id="patch_18">
    <path d="M 448.764989 288 
L 452.772014 288 
L 452.772014 268.408163 
L 448.764989 268.408163 
z
" clip-path="url(#pb49a5a392c)" style="fill: #0000ff"/>
   </g>
   <g id="patch_19">
    <path d="M 448.961867 288 
L 452.968892 288 
L 452.968892 274.005831 
L 448.961867 274.005831 
z
" clip-path="url(#pb49a5a392c)" style="fill: #0000ff"/>
   </g>
   <g id="patch_20">
    <path d="M 451.343843 288 
L 455.350868 288 
L 455.350868 282.402332 
L 451.343843 282.402332 
z
" clip-path="url(#pb49a5a392c)" style="fill: #0000ff"/>
   </g>
   <g id="patch_21">
    <path d="M 451.989576 288 
L 455.9966 288 
L 455.9966 260.011662 
L 451.989576 260.011662 
z
" clip-path="url(#pb49a5a392c)" style="fill: #0000ff"/>
   </g>
   <g id="patch_22">
    <path d="M 452.61554 288 
L 456.622565 288 
L 456.622565 279.603499 
L 452.61554 279.603499 
z
" clip-path="url(#pb49a5a392c)" style="fill: #0000ff"/>
   </g>
   <g id="patch_23">
    <path d="M 454.506188 288 
L 458.513213 288 
L 458.513213 279.603499 
L 454.506188 279.603499 
z
" clip-path="url(#pb49a5a392c)" style="fill: #0000ff"/>
   </g>
   <g id="patch_24">
    <path d="M 455.412443 288 
L 459.419468 288 
L 459.419468 279.603499 
L 455.412443 279.603499 
z
" clip-path="url(#pb49a5a392c)" style="fill: #0000ff"/>
   </g>
   <g id="patch_25">
    <path d="M 457.864141 288 
L 461.871166 288 
L 461.871166 282.402332 
L 457.864141 282.402332 
z
" clip-path="url(#pb49a5a392c)" style="fill: #0000ff"/>
   </g>
   <g id="patch_26">
    <path d="M 457.938405 288 
L 461.94543 288 
L 461.94543 276.804665 
L 457.938405 276.804665 
z
" clip-path="url(#pb49a5a392c)" style="fill: #0000ff"/>
   </g>
   <g id="patch_27">
    <path d="M 458.912312 288 
L 462.919337 288 
L 462.919337 282.402332 
L 458.912312 282.402332 
z
" clip-path="url(#pb49a5a392c)" style="fill: #0000ff"/>
   </g>
   <g id="patch_28">
    <path d="M 459.737359 288 
L 463.744384 288 
L 463.744384 274.005831 
L 459.737359 274.005831 
z
" clip-path="url(#pb49a5a392c)" style="fill: #0000ff"/>
   </g>
   <g id="patch_29">
    <path d="M 461.638759 288 
L 465.645784 288 
L 465.645784 279.603499 
L 461.638759 279.603499 
z
" clip-path="url(#pb49a5a392c)" style="fill: #0000ff"/>
   </g>
   <g id="patch_30">
    <path d="M 462.630564 288 
L 466.637589 288 
L 466.637589 274.005831 
L 462.630564 274.005831 
z
" clip-path="url(#pb49a5a392c)" style="fill: #0000ff"/>
   </g>
   <g id="patch_31">
    <path d="M 463.482725 288 
L 467.48975 288 
L 467.48975 13.714286 
L 463.482725 13.714286 
z
" clip-path="url(#pb49a5a392c)" style="fill: #0000ff"/>
   </g>
   <g id="patch_32">
    <path d="M 464.289205 288 
L 468.29623 288 
L 468.29623 282.402332 
L 464.289205 282.402332 
z
" clip-path="url(#pb49a5a392c)" style="fill: #0000ff"/>
   </g>
   <g id="patch_33">
    <path d="M 467.884642 288 
L 471.891667 288 
L 471.891667 237.620991 
L 467.884642 237.620991 
z
" clip-path="url(#pb49a5a392c)" style="fill: #0000ff"/>
   </g>
   <g id="patch_34">
    <path d="M 472.557167 288 
L 476.564192 288 
L 476.564192 97.6793 
L 472.557167 97.6793 
z
" clip-path="url(#pb49a5a392c)" style="fill: #0000ff"/>
   </g>
   <g id="patch_35">
    <path d="M 474.972001 288 
L 478.979026 288 
L 478.979026 237.620991 
L 474.972001 237.620991 
z
" clip-path="url(#pb49a5a392c)" style="fill: #0000ff"/>
   </g>
   <g id="patch_36">
    <path d="M 478.741609 288 
L 482.748634 288 
L 482.748634 153.655977 
L 478.741609 153.655977 
z
" clip-path="url(#pb49a5a392c)" style="fill: #0000ff"/>
   </g>
   <g id="patch_37">
    <path d="M 479.927288 288 
L 483.934313 288 
L 483.934313 251.61516 
L 479.927288 251.61516 
z
" clip-path="url(#pb49a5a392c)" style="fill: #0000ff"/>
   </g>
   <g id="patch_38">
    <path d="M 480.13759 288 
L 484.144615 288 
L 484.144615 279.603499 
L 480.13759 279.603499 
z
" clip-path="url(#pb49a5a392c)" style="fill: #0000ff"/>
   </g>
   <g id="patch_39">
    <path d="M 482.503805 288 
L 486.51083 288 
L 486.51083 237.620991 
L 482.503805 237.620991 
z
" clip-path="url(#pb49a5a392c)" style="fill: #0000ff"/>
   </g>
   <g id="patch_40">
    <path d="M 482.870114 288 
L 486.877139 288 
L 486.877139 260.011662 
L 482.870114 260.011662 
z
" clip-path="url(#pb49a5a392c)" style="fill: #0000ff"/>
   </g>
   <g id="patch_41">
    <path d="M 484.367873 288 
L 488.374898 288 
L 488.374898 268.408163 
L 484.367873 268.408163 
z
" clip-path="url(#pb49a5a392c)" style="fill: #0000ff"/>
   </g>
   <g id="patch_42">
    <path d="M 487.413412 288 
L 491.420437 288 
L 491.420437 279.603499 
L 487.413412 279.603499 
z
" clip-path="url(#pb49a5a392c)" style="fill: #0000ff"/>
   </g>
   <g id="patch_43">
    <path d="M 490.63072 288 
L 494.637744 288 
L 494.637744 282.402332 
L 490.63072 282.402332 
z
" clip-path="url(#pb49a5a392c)" style="fill: #0000ff"/>
   </g>
   <g id="patch_44">
    <path d="M 491.604026 288 
L 495.611051 288 
L 495.611051 268.408163 
L 491.604026 268.408163 
z
" clip-path="url(#pb49a5a392c)" style="fill: #0000ff"/>
   </g>
   <g id="patch_45">
    <path d="M 494.421098 288 
L 498.428123 288 
L 498.428123 274.005831 
L 494.421098 274.005831 
z
" clip-path="url(#pb49a5a392c)" style="fill: #0000ff"/>
   </g>
   <g id="patch_46">
    <path d="M 495.566105 288 
L 499.57313 288 
L 499.57313 274.005831 
L 495.566105 274.005831 
z
" clip-path="url(#pb49a5a392c)" style="fill: #0000ff"/>
   </g>
   <g id="patch_47">
    <path d="M 497.023928 288 
L 501.030953 288 
L 501.030953 279.603499 
L 497.023928 279.603499 
z
" clip-path="url(#pb49a5a392c)" style="fill: #0000ff"/>
   </g>
   <g id="patch_48">
    <path d="M 497.432644 288 
L 501.439669 288 
L 501.439669 282.402332 
L 497.432644 282.402332 
z
" clip-path="url(#pb49a5a392c)" style="fill: #0000ff"/>
   </g>
   <g id="patch_49">
    <path d="M 501.725637 288 
L 505.732662 288 
L 505.732662 268.408163 
L 501.725637 268.408163 
z
" clip-path="url(#pb49a5a392c)" style="fill: #0000ff"/>
   </g>
   <g id="patch_50">
    <path d="M 504.669866 288 
L 508.676891 288 
L 508.676891 282.402332 
L 504.669866 282.402332 
z
" clip-path="url(#pb49a5a392c)" style="fill: #0000ff"/>
   </g>
   <g id="patch_51">
    <path d="M 505.207742 288 
L 509.214767 288 
L 509.214767 276.804665 
L 505.207742 276.804665 
z
" clip-path="url(#pb49a5a392c)" style="fill: #0000ff"/>
   </g>
   <g id="patch_52">
    <path d="M 505.914181 288 
L 509.921205 288 
L 509.921205 276.804665 
L 505.914181 276.804665 
z
" clip-path="url(#pb49a5a392c)" style="fill: #0000ff"/>
   </g>
   <g id="patch_53">
    <path d="M 513.938849 288 
L 517.945874 288 
L 517.945874 251.61516 
L 513.938849 251.61516 
z
" clip-path="url(#pb49a5a392c)" style="fill: #0000ff"/>
   </g>
   <g id="patch_54">
    <path d="M 514.736714 288 
L 518.743739 288 
L 518.743739 268.408163 
L 514.736714 268.408163 
z
" clip-path="url(#pb49a5a392c)" style="fill: #0000ff"/>
   </g>
   <g id="patch_55">
    <path d="M 515.843054 288 
L 519.850079 288 
L 519.850079 282.402332 
L 515.843054 282.402332 
z
" clip-path="url(#pb49a5a392c)" style="fill: #0000ff"/>
   </g>
   <g id="patch_56">
    <path d="M 516.406108 288 
L 520.413133 288 
L 520.413133 279.603499 
L 516.406108 279.603499 
z
" clip-path="url(#pb49a5a392c)" style="fill: #0000ff"/>
   </g>
   <g id="patch_57">
    <path d="M 516.791784 288 
L 520.798809 288 
L 520.798809 276.804665 
L 516.791784 276.804665 
z
" clip-path="url(#pb49a5a392c)" style="fill: #0000ff"/>
   </g>
   <g id="patch_58">
    <path d="M 517.316838 288 
L 521.323863 288 
L 521.323863 251.61516 
L 517.316838 251.61516 
z
" clip-path="url(#pb49a5a392c)" style="fill: #0000ff"/>
   </g>
   <g id="patch_59">
    <path d="M 518.987767 288 
L 522.994792 288 
L 522.994792 271.206997 
L 518.987767 271.206997 
z
" clip-path="url(#pb49a5a392c)" style="fill: #0000ff"/>
   </g>
   <g id="patch_60">
    <path d="M 520.004283 288 
L 524.011308 288 
L 524.011308 282.402332 
L 520.004283 282.402332 
z
" clip-path="url(#pb49a5a392c)" style="fill: #0000ff"/>
   </g>
   <g id="patch_61">
    <path d="M 520.103189 288 
L 524.110214 288 
L 524.110214 282.402332 
L 520.103189 282.402332 
z
" clip-path="url(#pb49a5a392c)" style="fill: #0000ff"/>
   </g>
   <g id="patch_62">
    <path d="M 521.479269 288 
L 525.486294 288 
L 525.486294 276.804665 
L 521.479269 276.804665 
z
" clip-path="url(#pb49a5a392c)" style="fill: #0000ff"/>
   </g>
   <g id="patch_63">
    <path d="M 521.903212 288 
L 525.910237 288 
L 525.910237 282.402332 
L 521.903212 282.402332 
z
" clip-path="url(#pb49a5a392c)" style="fill: #0000ff"/>
   </g>
   <g id="patch_64">
    <path d="M 522.674364 288 
L 526.681389 288 
L 526.681389 279.603499 
L 522.674364 279.603499 
z
" clip-path="url(#pb49a5a392c)" style="fill: #0000ff"/>
   </g>
   <g id="patch_65">
    <path d="M 523.78471 288 
L 527.791735 288 
L 527.791735 271.206997 
L 523.78471 271.206997 
z
" clip-path="url(#pb49a5a392c)" style="fill: #0000ff"/>
   </g>
   <g id="patch_66">
    <path d="M 524.144875 288 
L 528.1519 288 
L 528.1519 265.609329 
L 524.144875 265.609329 
z
" clip-path="url(#pb49a5a392c)" style="fill: #0000ff"/>
   </g>
   <g id="patch_67">
    <path d="M 525.442617 288 
L 529.449642 288 
L 529.449642 276.804665 
L 525.442617 276.804665 
z
" clip-path="url(#pb49a5a392c)" style="fill: #0000ff"/>
   </g>
   <g id="patch_68">
    <path d="M 527.95215 288 
L 531.959175 288 
L 531.959175 282.402332 
L 527.95215 282.402332 
z
" clip-path="url(#pb49a5a392c)" style="fill: #0000ff"/>
   </g>
   <g id="patch_69">
    <path d="M 528.75636 288 
L 532.763385 288 
L 532.763385 260.011662 
L 528.75636 260.011662 
z
" clip-path="url(#pb49a5a392c)" style="fill: #0000ff"/>
   </g>
   <g id="patch_70">
    <path d="M 529.011006 288 
L 533.018031 288 
L 533.018031 276.804665 
L 529.011006 276.804665 
z
" clip-path="url(#pb49a5a392c)" style="fill: #0000ff"/>
   </g>
   <g id="patch_71">
    <path d="M 530.319634 288 
L 534.326659 288 
L 534.326659 279.603499 
L 530.319634 279.603499 
z
" clip-path="url(#pb49a5a392c)" style="fill: #0000ff"/>
   </g>
   <g id="patch_72">
    <path d="M 530.6806 288 
L 534.687625 288 
L 534.687625 276.804665 
L 530.6806 276.804665 
z
" clip-path="url(#pb49a5a392c)" style="fill: #0000ff"/>
   </g>
   <g id="patch_73">
    <path d="M 531.090051 288 
L 535.097076 288 
L 535.097076 13.714286 
L 531.090051 13.714286 
z
" clip-path="url(#pb49a5a392c)" style="fill: #0000ff"/>
   </g>
   <g id="patch_74">
    <path d="M 531.265425 288 
L 535.27245 288 
L 535.27245 285.201166 
L 531.265425 285.201166 
z
" clip-path="url(#pb49a5a392c)" style="fill: #0000ff"/>
   </g>
   <g id="patch_75">
    <path d="M 531.702258 288 
L 535.709283 288 
L 535.709283 265.609329 
L 531.702258 265.609329 
z
" clip-path="url(#pb49a5a392c)" style="fill: #0000ff"/>
   </g>
   <g id="patch_76">
    <path d="M 531.740391 288 
L 535.747416 288 
L 535.747416 282.402332 
L 531.740391 282.402332 
z
" clip-path="url(#pb49a5a392c)" style="fill: #0000ff"/>
   </g>
   <g id="patch_77">
    <path d="M 533.161683 288 
L 537.168708 288 
L 537.168708 271.206997 
L 533.161683 271.206997 
z
" clip-path="url(#pb49a5a392c)" style="fill: #0000ff"/>
   </g>
   <g id="patch_78">
    <path d="M 534.343622 288 
L 538.350647 288 
L 538.350647 125.667638 
L 534.343622 125.667638 
z
" clip-path="url(#pb49a5a392c)" style="fill: #0000ff"/>
   </g>
   <g id="patch_79">
    <path d="M 535.238992 288 
L 539.246016 288 
L 539.246016 279.603499 
L 535.238992 279.603499 
z
" clip-path="url(#pb49a5a392c)" style="fill: #0000ff"/>
   </g>
   <g id="patch_80">
    <path d="M 535.418707 288 
L 539.425732 288 
L 539.425732 265.609329 
L 535.418707 265.609329 
z
" clip-path="url(#pb49a5a392c)" style="fill: #0000ff"/>
   </g>
   <g id="patch_81">
    <path d="M 536.014351 288 
L 540.021376 288 
L 540.021376 153.655977 
L 536.014351 153.655977 
z
" clip-path="url(#pb49a5a392c)" style="fill: #0000ff"/>
   </g>
   <g id="patch_82">
    <path d="M 536.157335 288 
L 540.16436 288 
L 540.16436 282.402332 
L 536.157335 282.402332 
z
" clip-path="url(#pb49a5a392c)" style="fill: #0000ff"/>
   </g>
   <g id="patch_83">
    <path d="M 536.355415 288 
L 540.36244 288 
L 540.36244 237.620991 
L 536.355415 237.620991 
z
" clip-path="url(#pb49a5a392c)" style="fill: #0000ff"/>
   </g>
   <g id="patch_84">
    <path d="M 536.516698 288 
L 540.523723 288 
L 540.523723 276.804665 
L 536.516698 276.804665 
z
" clip-path="url(#pb49a5a392c)" style="fill: #0000ff"/>
   </g>
   <g id="patch_85">
    <path d="M 537.710858 288 
L 541.717883 288 
L 541.717883 276.804665 
L 537.710858 276.804665 
z
" clip-path="url(#pb49a5a392c)" style="fill: #0000ff"/>
   </g>
   <g id="patch_86">
    <path d="M 537.763684 288 
L 541.770709 288 
L 541.770709 209.632653 
L 537.763684 209.632653 
z
" clip-path="url(#pb49a5a392c)" style="fill: #0000ff"/>
   </g>
   <g id="patch_87">
    <path d="M 539.947513 288 
L 543.954538 288 
L 543.954538 276.804665 
L 539.947513 276.804665 
z
" clip-path="url(#pb49a5a392c)" style="fill: #0000ff"/>
   </g>
   <g id="patch_88">
    <path d="M 543.018297 288 
L 547.025321 288 
L 547.025321 265.609329 
L 543.018297 265.609329 
z
" clip-path="url(#pb49a5a392c)" style="fill: #0000ff"/>
   </g>
   <g id="patch_89">
    <path d="M 543.860573 288 
L 547.867598 288 
L 547.867598 282.402332 
L 543.860573 282.402332 
z
" clip-path="url(#pb49a5a392c)" style="fill: #0000ff"/>
   </g>
   <g id="patch_90">
    <path d="M 544.849974 288 
L 548.856999 288 
L 548.856999 282.402332 
L 544.849974 282.402332 
z
" clip-path="url(#pb49a5a392c)" style="fill: #0000ff"/>
   </g>
   <g id="patch_91">
    <path d="M 546.331906 288 
L 550.338931 288 
L 550.338931 279.603499 
L 546.331906 279.603499 
z
" clip-path="url(#pb49a5a392c)" style="fill: #0000ff"/>
   </g>
   <g id="patch_92">
    <path d="M 547.538621 288 
L 551.545646 288 
L 551.545646 279.603499 
L 547.538621 279.603499 
z
" clip-path="url(#pb49a5a392c)" style="fill: #0000ff"/>
   </g>
   <g id="patch_93">
    <path d="M 549.498457 288 
L 553.505482 288 
L 553.505482 265.609329 
L 549.498457 265.609329 
z
" clip-path="url(#pb49a5a392c)" style="fill: #0000ff"/>
   </g>
   <g id="patch_94">
    <path d="M 550.116407 288 
L 554.123432 288 
L 554.123432 274.005831 
L 550.116407 274.005831 
z
" clip-path="url(#pb49a5a392c)" style="fill: #0000ff"/>
   </g>
   <g id="patch_95">
    <path d="M 550.520249 288 
L 554.527274 288 
L 554.527274 282.402332 
L 550.520249 282.402332 
z
" clip-path="url(#pb49a5a392c)" style="fill: #0000ff"/>
   </g>
   <g id="patch_96">
    <path d="M 554.057183 288 
L 558.064208 288 
L 558.064208 285.201166 
L 554.057183 285.201166 
z
" clip-path="url(#pb49a5a392c)" style="fill: #0000ff"/>
   </g>
   <g id="patch_97">
    <path d="M 554.351499 288 
L 558.358524 288 
L 558.358524 271.206997 
L 554.351499 271.206997 
z
" clip-path="url(#pb49a5a392c)" style="fill: #0000ff"/>
   </g>
   <g id="patch_98">
    <path d="M 554.982872 288 
L 558.989897 288 
L 558.989897 282.402332 
L 554.982872 282.402332 
z
" clip-path="url(#pb49a5a392c)" style="fill: #0000ff"/>
   </g>
   <g id="patch_99">
    <path d="M 557.522124 288 
L 561.529149 288 
L 561.529149 181.644315 
L 557.522124 181.644315 
z
" clip-path="url(#pb49a5a392c)" style="fill: #0000ff"/>
   </g>
   <g id="patch_100">
    <path d="M 558.48588 288 
L 562.492905 288 
L 562.492905 279.603499 
L 558.48588 279.603499 
z
" clip-path="url(#pb49a5a392c)" style="fill: #0000ff"/>
   </g>
   <g id="patch_101">
    <path d="M 559.21743 288 
L 563.224454 288 
L 563.224454 260.011662 
L 559.21743 260.011662 
z
" clip-path="url(#pb49a5a392c)" style="fill: #0000ff"/>
   </g>
   <g id="patch_102">
    <path d="M 559.82249 288 
L 563.829515 288 
L 563.829515 237.620991 
L 559.82249 237.620991 
z
" clip-path="url(#pb49a5a392c)" style="fill: #0000ff"/>
   </g>
   <g id="patch_103">
    <path d="M 560.584626 288 
L 564.591651 288 
L 564.591651 237.620991 
L 560.584626 237.620991 
z
" clip-path="url(#pb49a5a392c)" style="fill: #0000ff"/>
   </g>
   <g id="patch_104">
    <path d="M 561.719883 288 
L 565.726908 288 
L 565.726908 271.206997 
L 561.719883 271.206997 
z
" clip-path="url(#pb49a5a392c)" style="fill: #0000ff"/>
   </g>
   <g id="patch_105">
    <path d="M 564.720077 288 
L 568.727101 288 
L 568.727101 274.005831 
L 564.720077 274.005831 
z
" clip-path="url(#pb49a5a392c)" style="fill: #0000ff"/>
   </g>
   <g id="patch_106">
    <path d="M 565.24847 288 
L 569.255494 288 
L 569.255494 276.804665 
L 565.24847 276.804665 
z
" clip-path="url(#pb49a5a392c)" style="fill: #0000ff"/>
   </g>
   <g id="patch_107">
    <path d="M 565.961052 288 
L 569.968077 288 
L 569.968077 274.005831 
L 565.961052 274.005831 
z
" clip-path="url(#pb49a5a392c)" style="fill: #0000ff"/>
   </g>
   <g id="patch_108">
    <path d="M 566.042061 288 
L 570.049086 288 
L 570.049086 282.402332 
L 566.042061 282.402332 
z
" clip-path="url(#pb49a5a392c)" style="fill: #0000ff"/>
   </g>
   <g id="patch_109">
    <path d="M 566.753775 288 
L 570.7608 288 
L 570.7608 282.402332 
L 566.753775 282.402332 
z
" clip-path="url(#pb49a5a392c)" style="fill: #0000ff"/>
   </g>
   <g id="patch_110">
    <path d="M 566.838858 288 
L 570.845883 288 
L 570.845883 260.011662 
L 566.838858 260.011662 
z
" clip-path="url(#pb49a5a392c)" style="fill: #0000ff"/>
   </g>
   <g id="patch_111">
    <path d="M 568.173665 288 
L 572.180689 288 
L 572.180689 276.804665 
L 568.173665 276.804665 
z
" clip-path="url(#pb49a5a392c)" style="fill: #0000ff"/>
   </g>
   <g id="patch_112">
    <path d="M 568.247594 288 
L 572.254619 288 
L 572.254619 276.804665 
L 568.247594 276.804665 
z
" clip-path="url(#pb49a5a392c)" style="fill: #0000ff"/>
   </g>
   <g id="patch_113">
    <path d="M 568.301422 288 
L 572.308447 288 
L 572.308447 268.408163 
L 568.301422 268.408163 
z
" clip-path="url(#pb49a5a392c)" style="fill: #0000ff"/>
   </g>
   <g id="patch_114">
    <path d="M 569.41671 288 
L 573.423735 288 
L 573.423735 260.011662 
L 569.41671 260.011662 
z
" clip-path="url(#pb49a5a392c)" style="fill: #0000ff"/>
   </g>
   <g id="patch_115">
    <path d="M 569.625209 288 
L 573.632234 288 
L 573.632234 276.804665 
L 569.625209 276.804665 
z
" clip-path="url(#pb49a5a392c)" style="fill: #0000ff"/>
   </g>
   <g id="patch_116">
    <path d="M 569.711227 288 
L 573.718252 288 
L 573.718252 279.603499 
L 569.711227 279.603499 
z
" clip-path="url(#pb49a5a392c)" style="fill: #0000ff"/>
   </g>
   <g id="patch_117">
    <path d="M 570.201954 288 
L 574.208979 288 
L 574.208979 282.402332 
L 570.201954 282.402332 
z
" clip-path="url(#pb49a5a392c)" style="fill: #0000ff"/>
   </g>
   <g id="patch_118">
    <path d="M 570.379265 288 
L 574.38629 288 
L 574.38629 285.201166 
L 570.379265 285.201166 
z
" clip-path="url(#pb49a5a392c)" style="fill: #0000ff"/>
   </g>
   <g id="patch_119">
    <path d="M 571.23196 288 
L 575.238984 288 
L 575.238984 282.402332 
L 571.23196 282.402332 
z
" clip-path="url(#pb49a5a392c)" style="fill: #0000ff"/>
   </g>
   <g id="patch_120">
    <path d="M 572.968604 288 
L 576.975629 288 
L 576.975629 271.206997 
L 572.968604 271.206997 
z
" clip-path="url(#pb49a5a392c)" style="fill: #0000ff"/>
   </g>
   <g id="patch_121">
    <path d="M 573.430481 288 
L 577.437506 288 
L 577.437506 279.603499 
L 573.430481 279.603499 
z
" clip-path="url(#pb49a5a392c)" style="fill: #0000ff"/>
   </g>
   <g id="patch_122">
    <path d="M 574.815642 288 
L 578.822667 288 
L 578.822667 276.804665 
L 574.815642 276.804665 
z
" clip-path="url(#pb49a5a392c)" style="fill: #0000ff"/>
   </g>
   <g id="patch_123">
    <path d="M 575.042106 288 
L 579.049131 288 
L 579.049131 279.603499 
L 575.042106 279.603499 
z
" clip-path="url(#pb49a5a392c)" style="fill: #0000ff"/>
   </g>
   <g id="patch_124">
    <path d="M 575.250071 288 
L 579.257096 288 
L 579.257096 279.603499 
L 575.250071 279.603499 
z
" clip-path="url(#pb49a5a392c)" style="fill: #0000ff"/>
   </g>
   <g id="patch_125">
    <path d="M 575.294749 288 
L 579.301774 288 
L 579.301774 282.402332 
L 575.294749 282.402332 
z
" clip-path="url(#pb49a5a392c)" style="fill: #0000ff"/>
   </g>
   <g id="patch_126">
    <path d="M 575.39606 288 
L 579.403085 288 
L 579.403085 276.804665 
L 575.39606 276.804665 
z
" clip-path="url(#pb49a5a392c)" style="fill: #0000ff"/>
   </g>
   <g id="patch_127">
    <path d="M 575.672611 288 
L 579.679636 288 
L 579.679636 282.402332 
L 575.672611 282.402332 
z
" clip-path="url(#pb49a5a392c)" style="fill: #0000ff"/>
   </g>
   <g id="patch_128">
    <path d="M 576.110579 288 
L 580.117604 288 
L 580.117604 285.201166 
L 576.110579 285.201166 
z
" clip-path="url(#pb49a5a392c)" style="fill: #0000ff"/>
   </g>
   <g id="patch_129">
    <path d="M 584.026056 288 
L 588.033081 288 
L 588.033081 223.626822 
L 584.026056 223.626822 
z
" clip-path="url(#pb49a5a392c)" style="fill: #0000ff"/>
   </g>
   <g id="patch_130">
    <path d="M 584.653757 288 
L 588.660782 288 
L 588.660782 260.011662 
L 584.653757 260.011662 
z
" clip-path="url(#pb49a5a392c)" style="fill: #0000ff"/>
   </g>
   <g id="patch_131">
    <path d="M 586.949181 288 
L 590.956206 288 
L 590.956206 282.402332 
L 586.949181 282.402332 
z
" clip-path="url(#pb49a5a392c)" style="fill: #0000ff"/>
   </g>
   <g id="patch_132">
    <path d="M 591.926974 288 
L 595.933999 288 
L 595.933999 268.408163 
L 591.926974 268.408163 
z
" clip-path="url(#pb49a5a392c)" style="fill: #0000ff"/>
   </g>
   <g id="patch_133">
    <path d="M 593.479029 288 
L 597.486054 288 
L 597.486054 285.201166 
L 593.479029 285.201166 
z
" clip-path="url(#pb49a5a392c)" style="fill: #0000ff"/>
   </g>
   <g id="patch_134">
    <path d="M 594.301604 288 
L 598.308629 288 
L 598.308629 282.402332 
L 594.301604 282.402332 
z
" clip-path="url(#pb49a5a392c)" style="fill: #0000ff"/>
   </g>
   <g id="patch_135">
    <path d="M 597.414595 288 
L 601.42162 288 
L 601.42162 276.804665 
L 597.414595 276.804665 
z
" clip-path="url(#pb49a5a392c)" style="fill: #0000ff"/>
   </g>
   <g id="patch_136">
    <path d="M 598.718681 288 
L 602.725706 288 
L 602.725706 251.61516 
L 598.718681 251.61516 
z
" clip-path="url(#pb49a5a392c)" style="fill: #0000ff"/>
   </g>
   <g id="patch_137">
    <path d="M 599.613517 288 
L 603.620542 288 
L 603.620542 209.632653 
L 599.613517 209.632653 
z
" clip-path="url(#pb49a5a392c)" style="fill: #0000ff"/>
   </g>
   <g id="patch_138">
    <path d="M 603.398152 288 
L 607.405177 288 
L 607.405177 276.804665 
L 603.398152 276.804665 
z
" clip-path="url(#pb49a5a392c)" style="fill: #0000ff"/>
   </g>
   <g id="patch_139">
    <path d="M 607.957078 288 
L 611.964103 288 
L 611.964103 181.644315 
L 607.957078 181.644315 
z
" clip-path="url(#pb49a5a392c)" style="fill: #0000ff"/>
   </g>
   <g id="patch_140">
    <path d="M 608.642546 288 
L 612.649571 288 
L 612.649571 97.6793 
L 608.642546 97.6793 
z
" clip-path="url(#pb49a5a392c)" style="fill: #0000ff"/>
   </g>
   <g id="patch_141">
    <path d="M 608.756947 288 
L 612.763972 288 
L 612.763972 285.201166 
L 608.756947 285.201166 
z
" clip-path="url(#pb49a5a392c)" style="fill: #0000ff"/>
   </g>
   <g id="patch_142">
    <path d="M 613.39795 288 
L 617.404975 288 
L 617.404975 237.620991 
L 613.39795 237.620991 
z
" clip-path="url(#pb49a5a392c)" style="fill: #0000ff"/>
   </g>
   <g id="patch_143">
    <path d="M 613.605113 288 
L 617.612138 288 
L 617.612138 271.206997 
L 613.605113 271.206997 
z
" clip-path="url(#pb49a5a392c)" style="fill: #0000ff"/>
   </g>
   <g id="patch_144">
    <path d="M 613.779218 288 
L 617.786243 288 
L 617.786243 209.632653 
L 613.779218 209.632653 
z
" clip-path="url(#pb49a5a392c)" style="fill: #0000ff"/>
   </g>
   <g id="patch_145">
    <path d="M 616.975822 288 
L 620.982847 288 
L 620.982847 181.644315 
L 616.975822 181.644315 
z
" clip-path="url(#pb49a5a392c)" style="fill: #0000ff"/>
   </g>
   <g id="patch_146">
    <path d="M 618.278573 288 
L 622.285598 288 
L 622.285598 237.620991 
L 618.278573 237.620991 
z
" clip-path="url(#pb49a5a392c)" style="fill: #0000ff"/>
   </g>
   <g id="patch_147">
    <path d="M 620.811747 288 
L 624.818772 288 
L 624.818772 237.620991 
L 620.811747 237.620991 
z
" clip-path="url(#pb49a5a392c)" style="fill: #0000ff"/>
   </g>
   <g id="patch_148">
    <path d="M 622.67675 288 
L 626.683775 288 
L 626.683775 276.804665 
L 622.67675 276.804665 
z
" clip-path="url(#pb49a5a392c)" style="fill: #0000ff"/>
   </g>
   <g id="patch_149">
    <path d="M 624.763008 288 
L 628.770033 288 
L 628.770033 282.402332 
L 624.763008 282.402332 
z
" clip-path="url(#pb49a5a392c)" style="fill: #0000ff"/>
   </g>
   <g id="patch_150">
    <path d="M 626.187639 288 
L 630.194664 288 
L 630.194664 260.011662 
L 626.187639 260.011662 
z
" clip-path="url(#pb49a5a392c)" style="fill: #0000ff"/>
   </g>
   <g id="patch_151">
    <path d="M 627.94138 288 
L 631.948405 288 
L 631.948405 268.408163 
L 627.94138 268.408163 
z
" clip-path="url(#pb49a5a392c)" style="fill: #0000ff"/>
   </g>
   <g id="patch_152">
    <path d="M 629.780605 288 
L 633.787629 288 
L 633.787629 251.61516 
L 629.780605 251.61516 
z
" clip-path="url(#pb49a5a392c)" style="fill: #0000ff"/>
   </g>
   <g id="patch_153">
    <path d="M 629.964994 288 
L 633.972019 288 
L 633.972019 251.61516 
L 629.964994 251.61516 
z
" clip-path="url(#pb49a5a392c)" style="fill: #0000ff"/>
   </g>
   <g id="patch_154">
    <path d="M 632.960646 288 
L 636.967671 288 
L 636.967671 285.201166 
L 632.960646 285.201166 
z
" clip-path="url(#pb49a5a392c)" style="fill: #0000ff"/>
   </g>
   <g id="patch_155">
    <path d="M 652.231097 288 
L 656.238122 288 
L 656.238122 282.402332 
L 652.231097 282.402332 
z
" clip-path="url(#pb49a5a392c)" style="fill: #0000ff"/>
   </g>
   <g id="patch_156">
    <path d="M 653.66608 288 
L 657.673104 288 
L 657.673104 285.201166 
L 653.66608 285.201166 
z
" clip-path="url(#pb49a5a392c)" style="fill: #0000ff"/>
   </g>
   <g id="patch_157">
    <path d="M 661.821511 288 
L 665.828536 288 
L 665.828536 276.804665 
L 661.821511 276.804665 
z
" clip-path="url(#pb49a5a392c)" style="fill: #0000ff"/>
   </g>
   <g id="patch_158">
    <path d="M 665.647819 288 
L 669.654844 288 
L 669.654844 209.632653 
L 665.647819 209.632653 
z
" clip-path="url(#pb49a5a392c)" style="fill: #0000ff"/>
   </g>
   <g id="patch_159">
    <path d="M 668.625439 288 
L 672.632464 288 
L 672.632464 282.402332 
L 668.625439 282.402332 
z
" clip-path="url(#pb49a5a392c)" style="fill: #0000ff"/>
   </g>
   <g id="patch_160">
    <path d="M 670.889208 288 
L 674.896233 288 
L 674.896233 282.402332 
L 670.889208 282.402332 
z
" clip-path="url(#pb49a5a392c)" style="fill: #0000ff"/>
   </g>
   <g id="patch_161">
    <path d="M 678.494007 288 
L 682.501032 288 
L 682.501032 282.402332 
L 678.494007 282.402332 
z
" clip-path="url(#pb49a5a392c)" style="fill: #0000ff"/>
   </g>
   <g id="patch_162">
    <path d="M 680.225643 288 
L 684.232668 288 
L 684.232668 282.402332 
L 680.225643 282.402332 
z
" clip-path="url(#pb49a5a392c)" style="fill: #0000ff"/>
   </g>
   <g id="patch_163">
    <path d="M 685.455411 288 
L 689.462436 288 
L 689.462436 279.603499 
L 685.455411 279.603499 
z
" clip-path="url(#pb49a5a392c)" style="fill: #0000ff"/>
   </g>
   <g id="patch_164">
    <path d="M 688.537081 288 
L 692.544105 288 
L 692.544105 181.644315 
L 688.537081 181.644315 
z
" clip-path="url(#pb49a5a392c)" style="fill: #0000ff"/>
   </g>
   <g id="patch_165">
    <path d="M 689.789276 288 
L 693.796301 288 
L 693.796301 251.61516 
L 689.789276 251.61516 
z
" clip-path="url(#pb49a5a392c)" style="fill: #0000ff"/>
   </g>
   <g id="patch_166">
    <path d="M 691.575808 288 
L 695.582833 288 
L 695.582833 282.402332 
L 691.575808 282.402332 
z
" clip-path="url(#pb49a5a392c)" style="fill: #0000ff"/>
   </g>
   <g id="patch_167">
    <path d="M 694.221646 288 
L 698.228671 288 
L 698.228671 279.603499 
L 694.221646 279.603499 
z
" clip-path="url(#pb49a5a392c)" style="fill: #0000ff"/>
   </g>
   <g id="patch_168">
    <path d="M 695.13044 288 
L 699.137465 288 
L 699.137465 279.603499 
L 695.13044 279.603499 
z
" clip-path="url(#pb49a5a392c)" style="fill: #0000ff"/>
   </g>
   <g id="patch_169">
    <path d="M 698.25632 288 
L 702.263345 288 
L 702.263345 265.609329 
L 698.25632 265.609329 
z
" clip-path="url(#pb49a5a392c)" style="fill: #0000ff"/>
   </g>
   <g id="patch_170">
    <path d="M 699.521672 288 
L 703.528697 288 
L 703.528697 279.603499 
L 699.521672 279.603499 
z
" clip-path="url(#pb49a5a392c)" style="fill: #0000ff"/>
   </g>
   <g id="patch_171">
    <path d="M 700.746352 288 
L 704.753377 288 
L 704.753377 279.603499 
L 700.746352 279.603499 
z
" clip-path="url(#pb49a5a392c)" style="fill: #0000ff"/>
   </g>
   <g id="patch_172">
    <path d="M 702.241173 288 
L 706.248198 288 
L 706.248198 181.644315 
L 702.241173 181.644315 
z
" clip-path="url(#pb49a5a392c)" style="fill: #0000ff"/>
   </g>
   <g id="patch_173">
    <path d="M 704.149785 288 
L 708.15681 288 
L 708.15681 271.206997 
L 704.149785 271.206997 
z
" clip-path="url(#pb49a5a392c)" style="fill: #0000ff"/>
   </g>
   <g id="patch_174">
    <path d="M 704.678446 288 
L 708.685471 288 
L 708.685471 260.011662 
L 704.678446 260.011662 
z
" clip-path="url(#pb49a5a392c)" style="fill: #0000ff"/>
   </g>
   <g id="patch_175">
    <path d="M 706.873561 288 
L 710.880586 288 
L 710.880586 237.620991 
L 706.873561 237.620991 
z
" clip-path="url(#pb49a5a392c)" style="fill: #0000ff"/>
   </g>
   <g id="patch_176">
    <path d="M 708.76875 288 
L 712.775775 288 
L 712.775775 181.644315 
L 708.76875 181.644315 
z
" clip-path="url(#pb49a5a392c)" style="fill: #0000ff"/>
   </g>
   <g id="patch_177">
    <path d="M 708.878542 288 
L 712.885567 288 
L 712.885567 276.804665 
L 708.878542 276.804665 
z
" clip-path="url(#pb49a5a392c)" style="fill: #0000ff"/>
   </g>
   <g id="patch_178">
    <path d="M 709.315709 288 
L 713.322734 288 
L 713.322734 260.011662 
L 709.315709 260.011662 
z
" clip-path="url(#pb49a5a392c)" style="fill: #0000ff"/>
   </g>
   <g id="patch_179">
    <path d="M 711.41746 288 
L 715.424485 288 
L 715.424485 279.603499 
L 711.41746 279.603499 
z
" clip-path="url(#pb49a5a392c)" style="fill: #0000ff"/>
   </g>
   <g id="patch_180">
    <path d="M 713.052861 288 
L 717.059886 288 
L 717.059886 153.655977 
L 713.052861 153.655977 
z
" clip-path="url(#pb49a5a392c)" style="fill: #0000ff"/>
   </g>
   <g id="patch_181">
    <path d="M 717.108972 288 
L 721.115997 288 
L 721.115997 265.609329 
L 717.108972 265.609329 
z
" clip-path="url(#pb49a5a392c)" style="fill: #0000ff"/>
   </g>
   <g id="patch_182">
    <path d="M 723.963656 288 
L 727.970681 288 
L 727.970681 285.201166 
L 723.963656 285.201166 
z
" clip-path="url(#pb49a5a392c)" style="fill: #0000ff"/>
   </g>
   <g id="patch_183">
    <path d="M 728.068318 288 
L 732.075343 288 
L 732.075343 276.804665 
L 728.068318 276.804665 
z
" clip-path="url(#pb49a5a392c)" style="fill: #0000ff"/>
   </g>
   <g id="patch_184">
    <path d="M 734.669558 288 
L 738.676583 288 
L 738.676583 209.632653 
L 734.669558 209.632653 
z
" clip-path="url(#pb49a5a392c)" style="fill: #0000ff"/>
   </g>
   <g id="patch_185">
    <path d="M 745.632511 288 
L 749.639536 288 
L 749.639536 282.402332 
L 745.632511 282.402332 
z
" clip-path="url(#pb49a5a392c)" style="fill: #0000ff"/>
   </g>
   <g id="patch_186">
    <path d="M 747.277929 288 
L 751.284954 288 
L 751.284954 251.61516 
L 747.277929 251.61516 
z
" clip-path="url(#pb49a5a392c)" style="fill: #0000ff"/>
   </g>
   <g id="patch_187">
    <path d="M 751.486841 288 
L 755.493866 288 
L 755.493866 223.626822 
L 751.486841 223.626822 
z
" clip-path="url(#pb49a5a392c)" style="fill: #0000ff"/>
   </g>
   <g id="patch_188">
    <path d="M 758.158004 288 
L 762.165029 288 
L 762.165029 285.201166 
L 758.158004 285.201166 
z
" clip-path="url(#pb49a5a392c)" style="fill: #0000ff"/>
   </g>
   <g id="patch_189">
    <path d="M 759.68074 288 
L 763.687765 288 
L 763.687765 276.804665 
L 759.68074 276.804665 
z
" clip-path="url(#pb49a5a392c)" style="fill: #0000ff"/>
   </g>
   <g id="patch_190">
    <path d="M 764.275328 288 
L 768.282353 288 
L 768.282353 251.61516 
L 764.275328 251.61516 
z
" clip-path="url(#pb49a5a392c)" style="fill: #0000ff"/>
   </g>
   <g id="patch_191">
    <path d="M 768.07125 288 
L 772.078275 288 
L 772.078275 288 
L 768.07125 288 
z
" clip-path="url(#pb49a5a392c)" style="fill: #0000ff"/>
   </g>
   <g id="patch_192">
    <path d="M 771.982707 288 
L 775.989732 288 
L 775.989732 265.609329 
L 771.982707 265.609329 
z
" clip-path="url(#pb49a5a392c)" style="fill: #0000ff"/>
   </g>
   <g id="patch_193">
    <path d="M 777.205597 288 
L 781.212622 288 
L 781.212622 271.206997 
L 777.205597 271.206997 
z
" clip-path="url(#pb49a5a392c)" style="fill: #0000ff"/>
   </g>
   <g id="patch_194">
    <path d="M 834.042842 288 
L 838.049867 288 
L 838.049867 260.011662 
L 834.042842 260.011662 
z
" clip-path="url(#pb49a5a392c)" style="fill: #0000ff"/>
   </g>
   <g id="patch_195">
    <path d="M 841.370822 288 
L 845.377847 288 
L 845.377847 265.609329 
L 841.370822 265.609329 
z
" clip-path="url(#pb49a5a392c)" style="fill: #0000ff"/>
   </g>
   <g id="patch_196">
    <path d="M 845.420522 288 
L 849.427547 288 
L 849.427547 276.804665 
L 845.420522 276.804665 
z
" clip-path="url(#pb49a5a392c)" style="fill: #0000ff"/>
   </g>
   <g id="patch_197">
    <path d="M 854.07456 288 
L 858.081585 288 
L 858.081585 251.61516 
L 854.07456 251.61516 
z
" clip-path="url(#pb49a5a392c)" style="fill: #0000ff"/>
   </g>
   <g id="patch_198">
    <path d="M 856.212442 288 
L 860.219467 288 
L 860.219467 271.206997 
L 856.212442 271.206997 
z
" clip-path="url(#pb49a5a392c)" style="fill: #0000ff"/>
   </g>
   <g id="patch_199">
    <path d="M 858.237926 288 
L 862.244951 288 
L 862.244951 260.011662 
L 858.237926 260.011662 
z
" clip-path="url(#pb49a5a392c)" style="fill: #0000ff"/>
   </g>
   <g id="patch_200">
    <path d="M 858.30678 288 
L 862.313805 288 
L 862.313805 279.603499 
L 858.30678 279.603499 
z
" clip-path="url(#pb49a5a392c)" style="fill: #0000ff"/>
   </g>
   <g id="patch_201">
    <path d="M 863.789526 288 
L 867.796551 288 
L 867.796551 276.804665 
L 863.789526 276.804665 
z
" clip-path="url(#pb49a5a392c)" style="fill: #0000ff"/>
   </g>
   <g id="patch_202">
    <path d="M 865.208346 288 
L 869.215371 288 
L 869.215371 265.609329 
L 865.208346 265.609329 
z
" clip-path="url(#pb49a5a392c)" style="fill: #0000ff"/>
   </g>
   <g id="patch_203">
    <path d="M 872.459192 288 
L 876.466217 288 
L 876.466217 265.609329 
L 872.459192 265.609329 
z
" clip-path="url(#pb49a5a392c)" style="fill: #0000ff"/>
   </g>
   <g id="patch_204">
    <path d="M 875.855078 288 
L 879.862103 288 
L 879.862103 279.603499 
L 875.855078 279.603499 
z
" clip-path="url(#pb49a5a392c)" style="fill: #0000ff"/>
   </g>
   <g id="patch_205">
    <path d="M 876.81416 288 
L 880.821185 288 
L 880.821185 271.206997 
L 876.81416 271.206997 
z
" clip-path="url(#pb49a5a392c)" style="fill: #0000ff"/>
   </g>
   <g id="patch_206">
    <path d="M 881.616179 288 
L 885.623204 288 
L 885.623204 279.603499 
L 881.616179 279.603499 
z
" clip-path="url(#pb49a5a392c)" style="fill: #0000ff"/>
   </g>
   <g id="patch_207">
    <path d="M 889.544612 288 
L 893.551637 288 
L 893.551637 282.402332 
L 889.544612 282.402332 
z
" clip-path="url(#pb49a5a392c)" style="fill: #0000ff"/>
   </g>
   <g id="patch_208">
    <path d="M 889.865641 288 
L 893.872666 288 
L 893.872666 279.603499 
L 889.865641 279.603499 
z
" clip-path="url(#pb49a5a392c)" style="fill: #0000ff"/>
   </g>
   <g id="patch_209">
    <path d="M 889.964615 288 
L 893.97164 288 
L 893.97164 251.61516 
L 889.964615 251.61516 
z
" clip-path="url(#pb49a5a392c)" style="fill: #0000ff"/>
   </g>
   <g id="patch_210">
    <path d="M 890.254389 288 
L 894.261414 288 
L 894.261414 276.804665 
L 890.254389 276.804665 
z
" clip-path="url(#pb49a5a392c)" style="fill: #0000ff"/>
   </g>
   <g id="patch_211">
    <path d="M 892.231122 288 
L 896.238147 288 
L 896.238147 279.603499 
L 892.231122 279.603499 
z
" clip-path="url(#pb49a5a392c)" style="fill: #0000ff"/>
   </g>
   <g id="patch_212">
    <path d="M 893.43964 288 
L 897.446665 288 
L 897.446665 279.603499 
L 893.43964 279.603499 
z
" clip-path="url(#pb49a5a392c)" style="fill: #0000ff"/>
   </g>
   <g id="patch_213">
    <path d="M 901.150759 288 
L 905.157784 288 
L 905.157784 271.206997 
L 901.150759 271.206997 
z
" clip-path="url(#pb49a5a392c)" style="fill: #0000ff"/>
   </g>
   <g id="patch_214">
    <path d="M 907.973253 288 
L 911.980278 288 
L 911.980278 271.206997 
L 907.973253 271.206997 
z
" clip-path="url(#pb49a5a392c)" style="fill: #0000ff"/>
   </g>
   <g id="patch_215">
    <path d="M 914.545642 288 
L 918.552667 288 
L 918.552667 276.804665 
L 914.545642 276.804665 
z
" clip-path="url(#pb49a5a392c)" style="fill: #0000ff"/>
   </g>
   <g id="patch_216">
    <path d="M 915.640829 288 
L 919.647854 288 
L 919.647854 265.609329 
L 915.640829 265.609329 
z
" clip-path="url(#pb49a5a392c)" style="fill: #0000ff"/>
   </g>
   <g id="patch_217">
    <path d="M 1005.224617 288 
L 1009.231642 288 
L 1009.231642 279.603499 
L 1005.224617 279.603499 
z
" clip-path="url(#pb49a5a392c)" style="fill: #0000ff"/>
   </g>
   <g id="patch_218">
    <path d="M 1005.274037 288 
L 1009.281062 288 
L 1009.281062 271.206997 
L 1005.274037 271.206997 
z
" clip-path="url(#pb49a5a392c)" style="fill: #0000ff"/>
   </g>
   <g id="patch_219">
    <path d="M 1024.480576 288 
L 1028.487601 288 
L 1028.487601 285.201166 
L 1024.480576 285.201166 
z
" clip-path="url(#pb49a5a392c)" style="fill: #0000ff"/>
   </g>
   <g id="patch_220">
    <path d="M 1026.970274 288 
L 1030.977299 288 
L 1030.977299 276.804665 
L 1026.970274 276.804665 
z
" clip-path="url(#pb49a5a392c)" style="fill: #0000ff"/>
   </g>
   <g id="patch_221">
    <path d="M 1033.939358 288 
L 1037.946383 288 
L 1037.946383 285.201166 
L 1033.939358 285.201166 
z
" clip-path="url(#pb49a5a392c)" style="fill: #0000ff"/>
   </g>
   <g id="patch_222">
    <path d="M 1113.415626 288 
L 1117.422651 288 
L 1117.422651 282.402332 
L 1113.415626 282.402332 
z
" clip-path="url(#pb49a5a392c)" style="fill: #0000ff"/>
   </g>
   <g id="patch_223">
    <path d="M 1148.298047 288 
L 1152.305072 288 
L 1152.305072 279.603499 
L 1148.298047 279.603499 
z
" clip-path="url(#pb49a5a392c)" style="fill: #0000ff"/>
   </g>
   <g id="patch_224">
    <path d="M 1161.427532 288 
L 1165.434557 288 
L 1165.434557 279.603499 
L 1161.427532 279.603499 
z
" clip-path="url(#pb49a5a392c)" style="fill: #0000ff"/>
   </g>
   <g id="patch_225">
    <path d="M 1170.434389 288 
L 1174.441414 288 
L 1174.441414 181.644315 
L 1170.434389 181.644315 
z
" clip-path="url(#pb49a5a392c)" style="fill: #0000ff"/>
   </g>
   <g id="patch_226">
    <path d="M 1170.690037 288 
L 1174.697062 288 
L 1174.697062 223.626822 
L 1170.690037 223.626822 
z
" clip-path="url(#pb49a5a392c)" style="fill: #0000ff"/>
   </g>
   <g id="patch_227">
    <path d="M 1172.618552 288 
L 1176.625577 288 
L 1176.625577 265.609329 
L 1172.618552 265.609329 
z
" clip-path="url(#pb49a5a392c)" style="fill: #0000ff"/>
   </g>
   <g id="patch_228">
    <path d="M 1187.300358 288 
L 1191.307383 288 
L 1191.307383 260.011662 
L 1187.300358 260.011662 
z
" clip-path="url(#pb49a5a392c)" style="fill: #0000ff"/>
   </g>
   <g id="patch_229">
    <path d="M 1193.704652 288 
L 1197.711677 288 
L 1197.711677 237.620991 
L 1193.704652 237.620991 
z
" clip-path="url(#pb49a5a392c)" style="fill: #0000ff"/>
   </g>
   <g id="patch_230">
    <path d="M 1194.540584 288 
L 1198.547609 288 
L 1198.547609 279.603499 
L 1194.540584 279.603499 
z
" clip-path="url(#pb49a5a392c)" style="fill: #0000ff"/>
   </g>
   <g id="patch_231">
    <path d="M 1203.804893 288 
L 1207.811918 288 
L 1207.811918 223.626822 
L 1203.804893 223.626822 
z
" clip-path="url(#pb49a5a392c)" style="fill: #0000ff"/>
   </g>
   <g id="patch_232">
    <path d="M 1208.657801 288 
L 1212.664826 288 
L 1212.664826 279.603499 
L 1208.657801 279.603499 
z
" clip-path="url(#pb49a5a392c)" style="fill: #0000ff"/>
   </g>
   <g id="patch_233">
    <path d="M 1224.298955 288 
L 1228.30598 288 
L 1228.30598 285.201166 
L 1224.298955 285.201166 
z
" clip-path="url(#pb49a5a392c)" style="fill: #0000ff"/>
   </g>
   <g id="patch_234">
    <path d="M 1227.490952 288 
L 1231.497976 288 
L 1231.497976 282.402332 
L 1227.490952 282.402332 
z
" clip-path="url(#pb49a5a392c)" style="fill: #0000ff"/>
   </g>
   <g id="patch_235">
    <path d="M 1237.536897 288 
L 1241.543922 288 
L 1241.543922 285.201166 
L 1237.536897 285.201166 
z
" clip-path="url(#pb49a5a392c)" style="fill: #0000ff"/>
   </g>
   <g id="patch_236">
    <path d="M 1246.780636 288 
L 1250.787661 288 
L 1250.787661 282.402332 
L 1246.780636 282.402332 
z
" clip-path="url(#pb49a5a392c)" style="fill: #0000ff"/>
   </g>
   <g id="patch_237">
    <path d="M 1249.178507 288 
L 1253.185531 288 
L 1253.185531 282.402332 
L 1249.178507 282.402332 
z
" clip-path="url(#pb49a5a392c)" style="fill: #0000ff"/>
   </g>
   <g id="patch_238">
    <path d="M 1253.76241 288 
L 1257.769434 288 
L 1257.769434 265.609329 
L 1253.76241 265.609329 
z
" clip-path="url(#pb49a5a392c)" style="fill: #0000ff"/>
   </g>
   <g id="patch_239">
    <path d="M 1256.913801 288 
L 1260.920826 288 
L 1260.920826 260.011662 
L 1256.913801 260.011662 
z
" clip-path="url(#pb49a5a392c)" style="fill: #0000ff"/>
   </g>
   <g id="patch_240">
    <path d="M 1257.018318 288 
L 1261.025343 288 
L 1261.025343 271.206997 
L 1257.018318 271.206997 
z
" clip-path="url(#pb49a5a392c)" style="fill: #0000ff"/>
   </g>
   <g id="patch_241">
    <path d="M 1264.323725 288 
L 1268.33075 288 
L 1268.33075 125.667638 
L 1264.323725 125.667638 
z
" clip-path="url(#pb49a5a392c)" style="fill: #0000ff"/>
   </g>
   <g id="patch_242">
    <path d="M 1267.079022 288 
L 1271.086047 288 
L 1271.086047 285.201166 
L 1267.079022 285.201166 
z
" clip-path="url(#pb49a5a392c)" style="fill: #0000ff"/>
   </g>
   <g id="patch_243">
    <path d="M 1268.191706 288 
L 1272.198731 288 
L 1272.198731 282.402332 
L 1268.191706 282.402332 
z
" clip-path="url(#pb49a5a392c)" style="fill: #0000ff"/>
   </g>
   <g id="patch_244">
    <path d="M 1281.344432 288 
L 1285.351457 288 
L 1285.351457 279.603499 
L 1281.344432 279.603499 
z
" clip-path="url(#pb49a5a392c)" style="fill: #0000ff"/>
   </g>
   <g id="patch_245">
    <path d="M 1282.800318 288 
L 1286.807342 288 
L 1286.807342 251.61516 
L 1282.800318 251.61516 
z
" clip-path="url(#pb49a5a392c)" style="fill: #0000ff"/>
   </g>
   <g id="patch_246">
    <path d="M 1289.417519 288 
L 1293.424543 288 
L 1293.424543 251.61516 
L 1289.417519 251.61516 
z
" clip-path="url(#pb49a5a392c)" style="fill: #0000ff"/>
   </g>
   <g id="patch_247">
    <path d="M 1297.895916 288 
L 1301.902941 288 
L 1301.902941 260.011662 
L 1297.895916 260.011662 
z
" clip-path="url(#pb49a5a392c)" style="fill: #0000ff"/>
   </g>
   <g id="patch_248">
    <path d="M 1308.834894 288 
L 1312.841919 288 
L 1312.841919 251.61516 
L 1308.834894 251.61516 
z
" clip-path="url(#pb49a5a392c)" style="fill: #0000ff"/>
   </g>
   <g id="patch_249">
    <path d="M 1330.252776 288 
L 1334.259801 288 
L 1334.259801 251.61516 
L 1330.252776 251.61516 
z
" clip-path="url(#pb49a5a392c)" style="fill: #0000ff"/>
   </g>
   <g id="patch_250">
    <path d="M 1335.290608 288 
L 1339.297633 288 
L 1339.297633 279.603499 
L 1335.290608 279.603499 
z
" clip-path="url(#pb49a5a392c)" style="fill: #0000ff"/>
   </g>
   <g id="patch_251">
    <path d="M 1347.384544 288 
L 1351.391569 288 
L 1351.391569 260.011662 
L 1347.384544 260.011662 
z
" clip-path="url(#pb49a5a392c)" style="fill: #0000ff"/>
   </g>
   <g id="patch_252">
    <path d="M 1348.956633 288 
L 1352.963658 288 
L 1352.963658 285.201166 
L 1348.956633 285.201166 
z
" clip-path="url(#pb49a5a392c)" style="fill: #0000ff"/>
   </g>
   <g id="patch_253">
    <path d="M 1349.842453 288 
L 1353.849478 288 
L 1353.849478 276.804665 
L 1349.842453 276.804665 
z
" clip-path="url(#pb49a5a392c)" style="fill: #0000ff"/>
   </g>
   <g id="patch_254">
    <path d="M 1356.980634 288 
L 1360.987659 288 
L 1360.987659 125.667638 
L 1356.980634 125.667638 
z
" clip-path="url(#pb49a5a392c)" style="fill: #0000ff"/>
   </g>
   <g id="patch_255">
    <path d="M 1358.735844 288 
L 1362.742869 288 
L 1362.742869 251.61516 
L 1358.735844 251.61516 
z
" clip-path="url(#pb49a5a392c)" style="fill: #0000ff"/>
   </g>
   <g id="patch_256">
    <path d="M 1362.112364 288 
L 1366.119389 288 
L 1366.119389 279.603499 
L 1362.112364 279.603499 
z
" clip-path="url(#pb49a5a392c)" style="fill: #0000ff"/>
   </g>
   <g id="patch_257">
    <path d="M 1365.91817 288 
L 1369.925195 288 
L 1369.925195 260.011662 
L 1365.91817 260.011662 
z
" clip-path="url(#pb49a5a392c)" style="fill: #0000ff"/>
   </g>
   <g id="patch_258">
    <path d="M 1366.95078 288 
L 1370.957805 288 
L 1370.957805 97.6793 
L 1366.95078 97.6793 
z
" clip-path="url(#pb49a5a392c)" style="fill: #0000ff"/>
   </g>
   <g id="patch_259">
    <path d="M 1368.465302 288 
L 1372.472327 288 
L 1372.472327 125.667638 
L 1368.465302 125.667638 
z
" clip-path="url(#pb49a5a392c)" style="fill: #0000ff"/>
   </g>
   <g id="patch_260">
    <path d="M 1372.626263 288 
L 1376.633288 288 
L 1376.633288 282.402332 
L 1372.626263 282.402332 
z
" clip-path="url(#pb49a5a392c)" style="fill: #0000ff"/>
   </g>
   <g id="patch_261">
    <path d="M 1374.094971 288 
L 1378.101996 288 
L 1378.101996 125.667638 
L 1374.094971 125.667638 
z
" clip-path="url(#pb49a5a392c)" style="fill: #0000ff"/>
   </g>
   <g id="patch_262">
    <path d="M 1374.320767 288 
L 1378.327792 288 
L 1378.327792 260.011662 
L 1374.320767 260.011662 
z
" clip-path="url(#pb49a5a392c)" style="fill: #0000ff"/>
   </g>
   <g id="patch_263">
    <path d="M 1375.898734 288 
L 1379.905759 288 
L 1379.905759 209.632653 
L 1375.898734 209.632653 
z
" clip-path="url(#pb49a5a392c)" style="fill: #0000ff"/>
   </g>
   <g id="patch_264">
    <path d="M 1376.715633 288 
L 1380.722657 288 
L 1380.722657 181.644315 
L 1376.715633 181.644315 
z
" clip-path="url(#pb49a5a392c)" style="fill: #0000ff"/>
   </g>
   <g id="patch_265">
    <path d="M 1382.557541 288 
L 1386.564566 288 
L 1386.564566 209.632653 
L 1382.557541 209.632653 
z
" clip-path="url(#pb49a5a392c)" style="fill: #0000ff"/>
   </g>
   <g id="patch_266">
    <path d="M 1383.770935 288 
L 1387.77796 288 
L 1387.77796 282.402332 
L 1383.770935 282.402332 
z
" clip-path="url(#pb49a5a392c)" style="fill: #0000ff"/>
   </g>
   <g id="patch_267">
    <path d="M 1386.26818 288 
L 1390.275205 288 
L 1390.275205 251.61516 
L 1386.26818 251.61516 
z
" clip-path="url(#pb49a5a392c)" style="fill: #0000ff"/>
   </g>
   <g id="patch_268">
    <path d="M 1387.436695 288 
L 1391.44372 288 
L 1391.44372 282.402332 
L 1387.436695 282.402332 
z
" clip-path="url(#pb49a5a392c)" style="fill: #0000ff"/>
   </g>
   <g id="patch_269">
    <path d="M 1388.540697 288 
L 1392.547722 288 
L 1392.547722 276.804665 
L 1388.540697 276.804665 
z
" clip-path="url(#pb49a5a392c)" style="fill: #0000ff"/>
   </g>
   <g id="patch_270">
    <path d="M 1407.113458 288 
L 1411.120483 288 
L 1411.120483 282.402332 
L 1407.113458 282.402332 
z
" clip-path="url(#pb49a5a392c)" style="fill: #0000ff"/>
   </g>
   <g id="patch_271">
    <path d="M 1410.149047 288 
L 1414.156072 288 
L 1414.156072 282.402332 
L 1410.149047 282.402332 
z
" clip-path="url(#pb49a5a392c)" style="fill: #0000ff"/>
   </g>
   <g id="patch_272">
    <path d="M 1419.109422 288 
L 1423.116447 288 
L 1423.116447 276.804665 
L 1419.109422 276.804665 
z
" clip-path="url(#pb49a5a392c)" style="fill: #0000ff"/>
   </g>
   <g id="patch_273">
    <path d="M 1421.029922 288 
L 1425.036947 288 
L 1425.036947 251.61516 
L 1421.029922 251.61516 
z
" clip-path="url(#pb49a5a392c)" style="fill: #0000ff"/>
   </g>
   <g id="patch_274">
    <path d="M 1424.091957 288 
L 1428.098982 288 
L 1428.098982 153.655977 
L 1424.091957 153.655977 
z
" clip-path="url(#pb49a5a392c)" style="fill: #0000ff"/>
   </g>
   <g id="patch_275">
    <path d="M 1426.775529 288 
L 1430.782554 288 
L 1430.782554 223.626822 
L 1426.775529 223.626822 
z
" clip-path="url(#pb49a5a392c)" style="fill: #0000ff"/>
   </g>
   <g id="patch_276">
    <path d="M 1427.735545 288 
L 1431.74257 288 
L 1431.74257 251.61516 
L 1427.735545 251.61516 
z
" clip-path="url(#pb49a5a392c)" style="fill: #0000ff"/>
   </g>
   <g id="patch_277">
    <path d="M 1429.032085 288 
L 1433.03911 288 
L 1433.03911 260.011662 
L 1429.032085 260.011662 
z
" clip-path="url(#pb49a5a392c)" style="fill: #0000ff"/>
   </g>
   <g id="patch_278">
    <path d="M 1433.306178 288 
L 1437.313203 288 
L 1437.313203 265.609329 
L 1433.306178 265.609329 
z
" clip-path="url(#pb49a5a392c)" style="fill: #0000ff"/>
   </g>
   <g id="patch_279">
    <path d="M 1437.456855 288 
L 1441.46388 288 
L 1441.46388 279.603499 
L 1437.456855 279.603499 
z
" clip-path="url(#pb49a5a392c)" style="fill: #0000ff"/>
   </g>
   <g id="patch_280">
    <path d="M 1437.864636 288 
L 1441.871661 288 
L 1441.871661 271.206997 
L 1437.864636 271.206997 
z
" clip-path="url(#pb49a5a392c)" style="fill: #0000ff"/>
   </g>
   <g id="patch_281">
    <path d="M 1448.098244 288 
L 1452.105269 288 
L 1452.105269 223.626822 
L 1448.098244 223.626822 
z
" clip-path="url(#pb49a5a392c)" style="fill: #0000ff"/>
   </g>
   <g id="patch_282">
    <path d="M 1450.462255 288 
L 1454.46928 288 
L 1454.46928 153.655977 
L 1450.462255 153.655977 
z
" clip-path="url(#pb49a5a392c)" style="fill: #0000ff"/>
   </g>
   <g id="patch_283">
    <path d="M 1462.925305 288 
L 1466.93233 288 
L 1466.93233 251.61516 
L 1462.925305 251.61516 
z
" clip-path="url(#pb49a5a392c)" style="fill: #0000ff"/>
   </g>
   <g id="patch_284">
    <path d="M 1468.073664 288 
L 1472.080689 288 
L 1472.080689 209.632653 
L 1468.073664 209.632653 
z
" clip-path="url(#pb49a5a392c)" style="fill: #0000ff"/>
   </g>
   <g id="patch_285">
    <path d="M 1469.563743 288 
L 1473.570768 288 
L 1473.570768 285.201166 
L 1469.563743 285.201166 
z
" clip-path="url(#pb49a5a392c)" style="fill: #0000ff"/>
   </g>
   <g id="patch_286">
    <path d="M 1474.334173 288 
L 1478.341198 288 
L 1478.341198 271.206997 
L 1474.334173 271.206997 
z
" clip-path="url(#pb49a5a392c)" style="fill: #0000ff"/>
   </g>
   <g id="patch_287">
    <path d="M 1477.039583 288 
L 1481.046608 288 
L 1481.046608 260.011662 
L 1477.039583 260.011662 
z
" clip-path="url(#pb49a5a392c)" style="fill: #0000ff"/>
   </g>
   <g id="patch_288">
    <path d="M 1479.202241 288 
L 1483.209266 288 
L 1483.209266 282.402332 
L 1479.202241 282.402332 
z
" clip-path="url(#pb49a5a392c)" style="fill: #0000ff"/>
   </g>
   <g id="patch_289">
    <path d="M 1490.764044 288 
L 1494.771069 288 
L 1494.771069 276.804665 
L 1490.764044 276.804665 
z
" clip-path="url(#pb49a5a392c)" style="fill: #0000ff"/>
   </g>
   <g id="patch_290">
    <path d="M 1492.536351 288 
L 1496.543376 288 
L 1496.543376 260.011662 
L 1492.536351 260.011662 
z
" clip-path="url(#pb49a5a392c)" style="fill: #0000ff"/>
   </g>
   <g id="patch_291">
    <path d="M 1495.880881 288 
L 1499.887906 288 
L 1499.887906 260.011662 
L 1495.880881 260.011662 
z
" clip-path="url(#pb49a5a392c)" style="fill: #0000ff"/>
   </g>
   <g id="patch_292">
    <path d="M 1497.468131 288 
L 1501.475156 288 
L 1501.475156 237.620991 
L 1497.468131 237.620991 
z
" clip-path="url(#pb49a5a392c)" style="fill: #0000ff"/>
   </g>
   <g id="patch_293">
    <path d="M 1547.519412 288 
L 1551.526437 288 
L 1551.526437 282.402332 
L 1547.519412 282.402332 
z
" clip-path="url(#pb49a5a392c)" style="fill: #0000ff"/>
   </g>
   <g id="patch_294">
    <path d="M 1574.613979 288 
L 1578.621004 288 
L 1578.621004 209.632653 
L 1574.613979 209.632653 
z
" clip-path="url(#pb49a5a392c)" style="fill: #0000ff"/>
   </g>
   <g id="patch_295">
    <path d="M 1586.489265 288 
L 1590.49629 288 
L 1590.49629 251.61516 
L 1586.489265 251.61516 
z
" clip-path="url(#pb49a5a392c)" style="fill: #0000ff"/>
   </g>
   <g id="patch_296">
    <path d="M 1591.928 288 
L 1595.935025 288 
L 1595.935025 260.011662 
L 1591.928 260.011662 
z
" clip-path="url(#pb49a5a392c)" style="fill: #0000ff"/>
   </g>
   <g id="patch_297">
    <path d="M 1632.212025 288 
L 1636.21905 288 
L 1636.21905 282.402332 
L 1632.212025 282.402332 
z
" clip-path="url(#pb49a5a392c)" style="fill: #0000ff"/>
   </g>
   <g id="patch_298">
    <path d="M 1640.099252 288 
L 1644.106277 288 
L 1644.106277 271.206997 
L 1640.099252 271.206997 
z
" clip-path="url(#pb49a5a392c)" style="fill: #0000ff"/>
   </g>
   <g id="patch_299">
    <path d="M 1678.941415 288 
L 1682.94844 288 
L 1682.94844 285.201166 
L 1678.941415 285.201166 
z
" clip-path="url(#pb49a5a392c)" style="fill: #0000ff"/>
   </g>
   <g id="patch_300">
    <path d="M 1688.394187 288 
L 1692.401212 288 
L 1692.401212 282.402332 
L 1688.394187 282.402332 
z
" clip-path="url(#pb49a5a392c)" style="fill: #0000ff"/>
   </g>
   <g id="patch_301">
    <path d="M 1711.503702 288 
L 1715.510727 288 
L 1715.510727 285.201166 
L 1711.503702 285.201166 
z
" clip-path="url(#pb49a5a392c)" style="fill: #0000ff"/>
   </g>
   <g id="patch_302">
    <path d="M 1717.973378 288 
L 1721.980403 288 
L 1721.980403 271.206997 
L 1717.973378 271.206997 
z
" clip-path="url(#pb49a5a392c)" style="fill: #0000ff"/>
   </g>
   <g id="patch_303">
    <path d="M 1725.510658 288 
L 1729.517683 288 
L 1729.517683 260.011662 
L 1725.510658 260.011662 
z
" clip-path="url(#pb49a5a392c)" style="fill: #0000ff"/>
   </g>
   <g id="patch_304">
    <path d="M 1732.617852 288 
L 1736.624877 288 
L 1736.624877 260.011662 
L 1732.617852 260.011662 
z
" clip-path="url(#pb49a5a392c)" style="fill: #0000ff"/>
   </g>
   <g id="patch_305">
    <path d="M 1749.647374 288 
L 1753.654399 288 
L 1753.654399 260.011662 
L 1749.647374 260.011662 
z
" clip-path="url(#pb49a5a392c)" style="fill: #0000ff"/>
   </g>
   <g id="patch_306">
    <path d="M 1761.574885 288 
L 1765.58191 288 
L 1765.58191 251.61516 
L 1761.574885 251.61516 
z
" clip-path="url(#pb49a5a392c)" style="fill: #0000ff"/>
   </g>
   <g id="patch_307">
    <path d="M 1795.078956 288 
L 1799.085981 288 
L 1799.085981 271.206997 
L 1795.078956 271.206997 
z
" clip-path="url(#pb49a5a392c)" style="fill: #0000ff"/>
   </g>
   <g id="patch_308">
    <path d="M 1800.164338 288 
L 1804.171363 288 
L 1804.171363 237.620991 
L 1800.164338 237.620991 
z
" clip-path="url(#pb49a5a392c)" style="fill: #0000ff"/>
   </g>
   <g id="patch_309">
    <path d="M 1814.326233 288 
L 1818.333258 288 
L 1818.333258 260.011662 
L 1814.326233 260.011662 
z
" clip-path="url(#pb49a5a392c)" style="fill: #0000ff"/>
   </g>
   <g id="patch_310">
    <path d="M 1821.25311 288 
L 1825.260135 288 
L 1825.260135 285.201166 
L 1821.25311 285.201166 
z
" clip-path="url(#pb49a5a392c)" style="fill: #0000ff"/>
   </g>
   <g id="patch_311">
    <path d="M 1829.384232 288 
L 1833.391257 288 
L 1833.391257 276.804665 
L 1829.384232 276.804665 
z
" clip-path="url(#pb49a5a392c)" style="fill: #0000ff"/>
   </g>
   <g id="patch_312">
    <path d="M 1852.327722 288 
L 1856.334747 288 
L 1856.334747 282.402332 
L 1852.327722 282.402332 
z
" clip-path="url(#pb49a5a392c)" style="fill: #0000ff"/>
   </g>
   <g id="patch_313">
    <path d="M 2158.765022 288 
L 2162.772047 288 
L 2162.772047 279.603499 
L 2158.765022 279.603499 
z
" clip-path="url(#pb49a5a392c)" style="fill: #0000ff"/>
   </g>
   <g id="patch_314">
    <path d="M 2183.537652 288 
L 2187.544677 288 
L 2187.544677 251.61516 
L 2183.537652 251.61516 
z
" clip-path="url(#pb49a5a392c)" style="fill: #0000ff"/>
   </g>
   <g id="patch_315">
    <path d="M 2323.711131 288 
L 2327.718156 288 
L 2327.718156 223.626822 
L 2323.711131 223.626822 
z
" clip-path="url(#pb49a5a392c)" style="fill: #0000ff"/>
   </g>
   <g id="patch_316">
    <path d="M 2326.454541 288 
L 2330.461566 288 
L 2330.461566 279.603499 
L 2326.454541 279.603499 
z
" clip-path="url(#pb49a5a392c)" style="fill: #0000ff"/>
   </g>
   <g id="patch_317">
    <path d="M 2363.556052 288 
L 2367.563077 288 
L 2367.563077 265.609329 
L 2363.556052 265.609329 
z
" clip-path="url(#pb49a5a392c)" style="fill: #0000ff"/>
   </g>
   <g id="patch_318">
    <path d="M 2391.86348 288 
L 2395.870505 288 
L 2395.870505 260.011662 
L 2391.86348 260.011662 
z
" clip-path="url(#pb49a5a392c)" style="fill: #0000ff"/>
   </g>
   <g id="patch_319">
    <path d="M 2392.410305 288 
L 2396.41733 288 
L 2396.41733 271.206997 
L 2392.410305 271.206997 
z
" clip-path="url(#pb49a5a392c)" style="fill: #0000ff"/>
   </g>
   <g id="patch_320">
    <path d="M 2430.932641 288 
L 2434.939666 288 
L 2434.939666 271.206997 
L 2430.932641 271.206997 
z
" clip-path="url(#pb49a5a392c)" style="fill: #0000ff"/>
   </g>
   <g id="patch_321">
    <path d="M 2431.261952 288 
L 2435.268977 288 
L 2435.268977 285.201166 
L 2431.261952 285.201166 
z
" clip-path="url(#pb49a5a392c)" style="fill: #0000ff"/>
   </g>
   <g id="patch_322">
    <path d="M 2439.604711 288 
L 2443.611736 288 
L 2443.611736 279.603499 
L 2439.604711 279.603499 
z
" clip-path="url(#pb49a5a392c)" style="fill: #0000ff"/>
   </g>
   <g id="patch_323">
    <path d="M 2459.950915 288 
L 2463.957939 288 
L 2463.957939 282.402332 
L 2459.950915 282.402332 
z
" clip-path="url(#pb49a5a392c)" style="fill: #0000ff"/>
   </g>
   <g id="patch_324">
    <path d="M 2477.073066 288 
L 2481.080091 288 
L 2481.080091 285.201166 
L 2477.073066 285.201166 
z
" clip-path="url(#pb49a5a392c)" style="fill: #0000ff"/>
   </g>
   <g id="patch_325">
    <path d="M 3045.023506 288 
L 3049.03053 288 
L 3049.03053 279.603499 
L 3045.023506 279.603499 
z
" clip-path="url(#pb49a5a392c)" style="fill: #0000ff"/>
   </g>
   <g id="patch_326">
    <path d="M 3184.48133 288 
L 3188.488355 288 
L 3188.488355 260.011662 
L 3184.48133 260.011662 
z
" clip-path="url(#pb49a5a392c)" style="fill: #0000ff"/>
   </g>
   <g id="patch_327">
    <path d="M 6624.642608 288 
L 6628.649633 288 
L 6628.649633 286.600583 
L 6624.642608 286.600583 
z
" clip-path="url(#pb49a5a392c)" style="fill: #0000ff"/>
   </g>
   <g id="patch_328">
    <path d="M 6679.672684 288 
L 6683.679709 288 
L 6683.679709 286.600583 
L 6679.672684 286.600583 
z
" clip-path="url(#pb49a5a392c)" style="fill: #0000ff"/>
   </g>
   <g id="patch_329">
    <path d="M 6808.479236 288 
L 6812.486261 288 
L 6812.486261 276.804665 
L 6808.479236 276.804665 
z
" clip-path="url(#pb49a5a392c)" style="fill: #0000ff"/>
   </g>
   <g id="patch_330">
    <path d="M 6868.720248 288 
L 6872.727273 288 
L 6872.727273 265.609329 
L 6868.720248 265.609329 
z
" clip-path="url(#pb49a5a392c)" style="fill: #0000ff"/>
   </g>
   <g id="matplotlib.axis_1">
    <g id="xtick_1">
     <g id="line2d_1">
      <defs>
       <path id="md161a97fba" d="M 0 0 
L 0 3.5 
" style="stroke: #000000; stroke-width: 0.8"/>
      </defs>
      <g>
       <use xlink:href="#md161a97fba" x="208.343693" y="288" style="stroke: #000000; stroke-width: 0.8"/>
      </g>
     </g>
     <g id="text_1">
      <!-- 2000 -->
      <g transform="translate(195.618693 302.598437) scale(0.1 -0.1)">
       <defs>
        <path id="DejaVuSans-32" d="M 1228 531 
L 3431 531 
L 3431 0 
L 469 0 
L 469 531 
Q 828 903 1448 1529 
Q 2069 2156 2228 2338 
Q 2531 2678 2651 2914 
Q 2772 3150 2772 3378 
Q 2772 3750 2511 3984 
Q 2250 4219 1831 4219 
Q 1534 4219 1204 4116 
Q 875 4013 500 3803 
L 500 4441 
Q 881 4594 1212 4672 
Q 1544 4750 1819 4750 
Q 2544 4750 2975 4387 
Q 3406 4025 3406 3419 
Q 3406 3131 3298 2873 
Q 3191 2616 2906 2266 
Q 2828 2175 2409 1742 
Q 1991 1309 1228 531 
z
" transform="scale(0.015625)"/>
        <path id="DejaVuSans-30" d="M 2034 4250 
Q 1547 4250 1301 3770 
Q 1056 3291 1056 2328 
Q 1056 1369 1301 889 
Q 1547 409 2034 409 
Q 2525 409 2770 889 
Q 3016 1369 3016 2328 
Q 3016 3291 2770 3770 
Q 2525 4250 2034 4250 
z
M 2034 4750 
Q 2819 4750 3233 4129 
Q 3647 3509 3647 2328 
Q 3647 1150 3233 529 
Q 2819 -91 2034 -91 
Q 1250 -91 836 529 
Q 422 1150 422 2328 
Q 422 3509 836 4129 
Q 1250 4750 2034 4750 
z
" transform="scale(0.015625)"/>
       </defs>
       <use xlink:href="#DejaVuSans-32"/>
       <use xlink:href="#DejaVuSans-30" x="63.623047"/>
       <use xlink:href="#DejaVuSans-30" x="127.246094"/>
       <use xlink:href="#DejaVuSans-30" x="190.869141"/>
      </g>
     </g>
    </g>
    <g id="xtick_2">
     <g id="line2d_2">
      <g>
       <use xlink:href="#md161a97fba" x="1544.018674" y="288" style="stroke: #000000; stroke-width: 0.8"/>
      </g>
     </g>
     <g id="text_2">
      <!-- 4000 -->
      <g transform="translate(1531.293674 302.598437) scale(0.1 -0.1)">
       <defs>
        <path id="DejaVuSans-34" d="M 2419 4116 
L 825 1625 
L 2419 1625 
L 2419 4116 
z
M 2253 4666 
L 3047 4666 
L 3047 1625 
L 3713 1625 
L 3713 1100 
L 3047 1100 
L 3047 0 
L 2419 0 
L 2419 1100 
L 313 1100 
L 313 1709 
L 2253 4666 
z
" transform="scale(0.015625)"/>
       </defs>
       <use xlink:href="#DejaVuSans-34"/>
       <use xlink:href="#DejaVuSans-30" x="63.623047"/>
       <use xlink:href="#DejaVuSans-30" x="127.246094"/>
       <use xlink:href="#DejaVuSans-30" x="190.869141"/>
      </g>
     </g>
    </g>
    <g id="xtick_3">
     <g id="line2d_3">
      <g>
       <use xlink:href="#md161a97fba" x="2879.693656" y="288" style="stroke: #000000; stroke-width: 0.8"/>
      </g>
     </g>
     <g id="text_3">
      <!-- 6000 -->
      <g transform="translate(2866.968656 302.598437) scale(0.1 -0.1)">
       <defs>
        <path id="DejaVuSans-36" d="M 2113 2584 
Q 1688 2584 1439 2293 
Q 1191 2003 1191 1497 
Q 1191 994 1439 701 
Q 1688 409 2113 409 
Q 2538 409 2786 701 
Q 3034 994 3034 1497 
Q 3034 2003 2786 2293 
Q 2538 2584 2113 2584 
z
M 3366 4563 
L 3366 3988 
Q 3128 4100 2886 4159 
Q 2644 4219 2406 4219 
Q 1781 4219 1451 3797 
Q 1122 3375 1075 2522 
Q 1259 2794 1537 2939 
Q 1816 3084 2150 3084 
Q 2853 3084 3261 2657 
Q 3669 2231 3669 1497 
Q 3669 778 3244 343 
Q 2819 -91 2113 -91 
Q 1303 -91 875 529 
Q 447 1150 447 2328 
Q 447 3434 972 4092 
Q 1497 4750 2381 4750 
Q 2619 4750 2861 4703 
Q 3103 4656 3366 4563 
z
" transform="scale(0.015625)"/>
       </defs>
       <use xlink:href="#DejaVuSans-36"/>
       <use xlink:href="#DejaVuSans-30" x="63.623047"/>
       <use xlink:href="#DejaVuSans-30" x="127.246094"/>
       <use xlink:href="#DejaVuSans-30" x="190.869141"/>
      </g>
     </g>
    </g>
    <g id="xtick_4">
     <g id="line2d_4">
      <g>
       <use xlink:href="#md161a97fba" x="4215.368638" y="288" style="stroke: #000000; stroke-width: 0.8"/>
      </g>
     </g>
     <g id="text_4">
      <!-- 8000 -->
      <g transform="translate(4202.643638 302.598437) scale(0.1 -0.1)">
       <defs>
        <path id="DejaVuSans-38" d="M 2034 2216 
Q 1584 2216 1326 1975 
Q 1069 1734 1069 1313 
Q 1069 891 1326 650 
Q 1584 409 2034 409 
Q 2484 409 2743 651 
Q 3003 894 3003 1313 
Q 3003 1734 2745 1975 
Q 2488 2216 2034 2216 
z
M 1403 2484 
Q 997 2584 770 2862 
Q 544 3141 544 3541 
Q 544 4100 942 4425 
Q 1341 4750 2034 4750 
Q 2731 4750 3128 4425 
Q 3525 4100 3525 3541 
Q 3525 3141 3298 2862 
Q 3072 2584 2669 2484 
Q 3125 2378 3379 2068 
Q 3634 1759 3634 1313 
Q 3634 634 3220 271 
Q 2806 -91 2034 -91 
Q 1263 -91 848 271 
Q 434 634 434 1313 
Q 434 1759 690 2068 
Q 947 2378 1403 2484 
z
M 1172 3481 
Q 1172 3119 1398 2916 
Q 1625 2713 2034 2713 
Q 2441 2713 2670 2916 
Q 2900 3119 2900 3481 
Q 2900 3844 2670 4047 
Q 2441 4250 2034 4250 
Q 1625 4250 1398 4047 
Q 1172 3844 1172 3481 
z
" transform="scale(0.015625)"/>
       </defs>
       <use xlink:href="#DejaVuSans-38"/>
       <use xlink:href="#DejaVuSans-30" x="63.623047"/>
       <use xlink:href="#DejaVuSans-30" x="127.246094"/>
       <use xlink:href="#DejaVuSans-30" x="190.869141"/>
      </g>
     </g>
    </g>
    <g id="xtick_5">
     <g id="line2d_5">
      <g>
       <use xlink:href="#md161a97fba" x="5551.04362" y="288" style="stroke: #000000; stroke-width: 0.8"/>
      </g>
     </g>
     <g id="text_5">
      <!-- 10000 -->
      <g transform="translate(5535.13737 302.598437) scale(0.1 -0.1)">
       <defs>
        <path id="DejaVuSans-31" d="M 794 531 
L 1825 531 
L 1825 4091 
L 703 3866 
L 703 4441 
L 1819 4666 
L 2450 4666 
L 2450 531 
L 3481 531 
L 3481 0 
L 794 0 
L 794 531 
z
" transform="scale(0.015625)"/>
       </defs>
       <use xlink:href="#DejaVuSans-31"/>
       <use xlink:href="#DejaVuSans-30" x="63.623047"/>
       <use xlink:href="#DejaVuSans-30" x="127.246094"/>
       <use xlink:href="#DejaVuSans-30" x="190.869141"/>
       <use xlink:href="#DejaVuSans-30" x="254.492188"/>
      </g>
     </g>
    </g>
    <g id="xtick_6">
     <g id="line2d_6">
      <g>
       <use xlink:href="#md161a97fba" x="6886.718602" y="288" style="stroke: #000000; stroke-width: 0.8"/>
      </g>
     </g>
     <g id="text_6">
      <!-- 12000 -->
      <g transform="translate(6870.812352 302.598437) scale(0.1 -0.1)">
       <use xlink:href="#DejaVuSans-31"/>
       <use xlink:href="#DejaVuSans-32" x="63.623047"/>
       <use xlink:href="#DejaVuSans-30" x="127.246094"/>
       <use xlink:href="#DejaVuSans-30" x="190.869141"/>
       <use xlink:href="#DejaVuSans-30" x="254.492188"/>
      </g>
     </g>
    </g>
   </g>
   <g id="matplotlib.axis_2">
    <g id="ytick_1">
     <g id="line2d_7">
      <defs>
       <path id="mb5da92cdb7" d="M 0 0 
L -3.5 0 
" style="stroke: #000000; stroke-width: 0.8"/>
      </defs>
      <g>
       <use xlink:href="#mb5da92cdb7" x="0" y="288" style="stroke: #000000; stroke-width: 0.8"/>
      </g>
     </g>
     <g id="text_7">
      <!-- 0.0 -->
      <g transform="translate(-22.903125 291.799219) scale(0.1 -0.1)">
       <defs>
        <path id="DejaVuSans-2e" d="M 684 794 
L 1344 794 
L 1344 0 
L 684 0 
L 684 794 
z
" transform="scale(0.015625)"/>
       </defs>
       <use xlink:href="#DejaVuSans-30"/>
       <use xlink:href="#DejaVuSans-2e" x="63.623047"/>
       <use xlink:href="#DejaVuSans-30" x="95.410156"/>
      </g>
     </g>
    </g>
    <g id="ytick_2">
     <g id="line2d_8">
      <g>
       <use xlink:href="#mb5da92cdb7" x="0" y="233.142857" style="stroke: #000000; stroke-width: 0.8"/>
      </g>
     </g>
     <g id="text_8">
      <!-- 0.2 -->
      <g transform="translate(-22.903125 236.942076) scale(0.1 -0.1)">
       <use xlink:href="#DejaVuSans-30"/>
       <use xlink:href="#DejaVuSans-2e" x="63.623047"/>
       <use xlink:href="#DejaVuSans-32" x="95.410156"/>
      </g>
     </g>
    </g>
    <g id="ytick_3">
     <g id="line2d_9">
      <g>
       <use xlink:href="#mb5da92cdb7" x="0" y="178.285714" style="stroke: #000000; stroke-width: 0.8"/>
      </g>
     </g>
     <g id="text_9">
      <!-- 0.4 -->
      <g transform="translate(-22.903125 182.084933) scale(0.1 -0.1)">
       <use xlink:href="#DejaVuSans-30"/>
       <use xlink:href="#DejaVuSans-2e" x="63.623047"/>
       <use xlink:href="#DejaVuSans-34" x="95.410156"/>
      </g>
     </g>
    </g>
    <g id="ytick_4">
     <g id="line2d_10">
      <g>
       <use xlink:href="#mb5da92cdb7" x="0" y="123.428571" style="stroke: #000000; stroke-width: 0.8"/>
      </g>
     </g>
     <g id="text_10">
      <!-- 0.6 -->
      <g transform="translate(-22.903125 127.22779) scale(0.1 -0.1)">
       <use xlink:href="#DejaVuSans-30"/>
       <use xlink:href="#DejaVuSans-2e" x="63.623047"/>
       <use xlink:href="#DejaVuSans-36" x="95.410156"/>
      </g>
     </g>
    </g>
    <g id="ytick_5">
     <g id="line2d_11">
      <g>
       <use xlink:href="#mb5da92cdb7" x="0" y="68.571429" style="stroke: #000000; stroke-width: 0.8"/>
      </g>
     </g>
     <g id="text_11">
      <!-- 0.8 -->
      <g transform="translate(-22.903125 72.370647) scale(0.1 -0.1)">
       <use xlink:href="#DejaVuSans-30"/>
       <use xlink:href="#DejaVuSans-2e" x="63.623047"/>
       <use xlink:href="#DejaVuSans-38" x="95.410156"/>
      </g>
     </g>
    </g>
    <g id="ytick_6">
     <g id="line2d_12">
      <g>
       <use xlink:href="#mb5da92cdb7" x="0" y="13.714286" style="stroke: #000000; stroke-width: 0.8"/>
      </g>
     </g>
     <g id="text_12">
      <!-- 1.0 -->
      <g transform="translate(-22.903125 17.513504) scale(0.1 -0.1)">
       <use xlink:href="#DejaVuSans-31"/>
       <use xlink:href="#DejaVuSans-2e" x="63.623047"/>
       <use xlink:href="#DejaVuSans-30" x="95.410156"/>
      </g>
     </g>
    </g>
   </g>
   <g id="patch_331">
    <path d="M 0 288 
L 0 0 
" style="fill: none; stroke: #000000; stroke-width: 0.8; stroke-linejoin: miter; stroke-linecap: square"/>
   </g>
   <g id="patch_332">
    <path d="M 7200 288 
L 7200 0 
" style="fill: none; stroke: #000000; stroke-width: 0.8; stroke-linejoin: miter; stroke-linecap: square"/>
   </g>
   <g id="patch_333">
    <path d="M 0 288 
L 7200 288 
" style="fill: none; stroke: #000000; stroke-width: 0.8; stroke-linejoin: miter; stroke-linecap: square"/>
   </g>
   <g id="patch_334">
    <path d="M 0 0 
L 7200 0 
" style="fill: none; stroke: #000000; stroke-width: 0.8; stroke-linejoin: miter; stroke-linecap: square"/>
   </g>
  </g>
 </g>
 <defs>
  <clipPath id="pb49a5a392c">
   <rect x="0" y="0" width="7200" height="288"/>
  </clipPath>
 </defs>
</svg>
