<?xml version="1.0" encoding="utf-8" standalone="no"?>
<!DOCTYPE svg PUBLIC "-//W3C//DTD SVG 1.1//EN"
  "http://www.w3.org/Graphics/SVG/1.1/DTD/svg11.dtd">
<svg xmlns:xlink="http://www.w3.org/1999/xlink" width="720pt" height="432pt" viewBox="0 0 720 432" xmlns="http://www.w3.org/2000/svg" version="1.1">
 <metadata>
  <rdf:RDF xmlns:dc="http://purl.org/dc/elements/1.1/" xmlns:cc="http://creativecommons.org/ns#" xmlns:rdf="http://www.w3.org/1999/02/22-rdf-syntax-ns#">
   <cc:Work>
    <dc:type rdf:resource="http://purl.org/dc/dcmitype/StillImage"/>
    <dc:date>2024-03-22T13:46:42.224557</dc:date>
    <dc:format>image/svg+xml</dc:format>
    <dc:creator>
     <cc:Agent>
      <dc:title>Matplotlib v3.7.2, https://matplotlib.org/</dc:title>
     </cc:Agent>
    </dc:creator>
   </cc:Work>
  </rdf:RDF>
 </metadata>
 <defs>
  <style type="text/css">*{stroke-linejoin: round; stroke-linecap: butt}</style>
 </defs>
 <g id="figure_1">
  <g id="patch_1">
   <path d="M 0 432 
L 720 432 
L 720 0 
L 0 0 
z
" style="fill: #ffffff"/>
  </g>
  <g id="axes_1">
   <g id="patch_2">
    <path d="M 90 384.48 
L 648 384.48 
L 648 51.84 
L 90 51.84 
z
" style="fill: #ffffff"/>
   </g>
   <g id="patch_3">
    <path d="M 115.363636 384.48 
L 115.546646 384.48 
L 115.546646 384.48 
L 115.363636 384.48 
z
" clip-path="url(#p358b12d6f0)"/>
   </g>
   <g id="patch_4">
    <path d="M 123.141554 384.48 
L 123.324564 384.48 
L 123.324564 384.467418 
L 123.141554 384.467418 
z
" clip-path="url(#p358b12d6f0)"/>
   </g>
   <g id="patch_5">
    <path d="M 128.47934 384.48 
L 128.66235 384.48 
L 128.66235 384.48 
L 128.47934 384.48 
z
" clip-path="url(#p358b12d6f0)"/>
   </g>
   <g id="patch_6">
    <path d="M 136.714782 384.48 
L 136.897792 384.48 
L 136.897792 383.994963 
L 136.714782 383.994963 
z
" clip-path="url(#p358b12d6f0)"/>
   </g>
   <g id="patch_7">
    <path d="M 138.697389 384.48 
L 138.880399 384.48 
L 138.880399 383.230459 
L 138.697389 383.230459 
z
" clip-path="url(#p358b12d6f0)"/>
   </g>
   <g id="patch_8">
    <path d="M 142.205077 384.48 
L 142.388087 384.48 
L 142.388087 381.909899 
L 142.205077 381.909899 
z
" clip-path="url(#p358b12d6f0)"/>
   </g>
   <g id="patch_9">
    <path d="M 146.780323 384.48 
L 146.963332 384.48 
L 146.963332 384.152835 
L 146.780323 384.152835 
z
" clip-path="url(#p358b12d6f0)"/>
   </g>
   <g id="patch_10">
    <path d="M 149.52547 384.48 
L 149.70848 384.48 
L 149.70848 379.215035 
L 149.52547 379.215035 
z
" clip-path="url(#p358b12d6f0)"/>
   </g>
   <g id="patch_11">
    <path d="M 152.88065 384.48 
L 153.06366 384.48 
L 153.06366 384.262434 
L 152.88065 384.262434 
z
" clip-path="url(#p358b12d6f0)"/>
   </g>
   <g id="patch_12">
    <path d="M 158.828469 384.48 
L 159.011479 384.48 
L 159.011479 382.845615 
L 158.828469 382.845615 
z
" clip-path="url(#p358b12d6f0)"/>
   </g>
   <g id="patch_13">
    <path d="M 161.726125 384.48 
L 161.909135 384.48 
L 161.909135 381.103743 
L 161.726125 381.103743 
z
" clip-path="url(#p358b12d6f0)"/>
   </g>
   <g id="patch_14">
    <path d="M 165.538829 384.48 
L 165.721839 384.48 
L 165.721839 381.77266 
L 165.538829 381.77266 
z
" clip-path="url(#p358b12d6f0)"/>
   </g>
   <g id="patch_15">
    <path d="M 170.876616 384.48 
L 171.059626 384.48 
L 171.059626 372.330082 
L 170.876616 372.330082 
z
" clip-path="url(#p358b12d6f0)"/>
   </g>
   <g id="patch_16">
    <path d="M 175.146845 384.48 
L 175.329855 384.48 
L 175.329855 375.315737 
L 175.146845 375.315737 
z
" clip-path="url(#p358b12d6f0)"/>
   </g>
   <g id="patch_17">
    <path d="M 180.027107 384.48 
L 180.210117 384.48 
L 180.210117 371.418358 
L 180.027107 371.418358 
z
" clip-path="url(#p358b12d6f0)"/>
   </g>
   <g id="patch_18">
    <path d="M 185.212385 384.48 
L 185.395395 384.48 
L 185.395395 375.785035 
L 185.212385 375.785035 
z
" clip-path="url(#p358b12d6f0)"/>
   </g>
   <g id="patch_19">
    <path d="M 188.720074 384.48 
L 188.903084 384.48 
L 188.903084 364.700394 
L 188.720074 364.700394 
z
" clip-path="url(#p358b12d6f0)"/>
   </g>
   <g id="patch_20">
    <path d="M 197.41304 384.48 
L 197.59605 384.48 
L 197.59605 380.334056 
L 197.41304 380.334056 
z
" clip-path="url(#p358b12d6f0)"/>
   </g>
   <g id="patch_21">
    <path d="M 201.988286 384.48 
L 202.171296 384.48 
L 202.171296 377.534585 
L 201.988286 377.534585 
z
" clip-path="url(#p358b12d6f0)"/>
   </g>
   <g id="patch_22">
    <path d="M 205.495974 384.48 
L 205.678984 384.48 
L 205.678984 379.885872 
L 205.495974 379.885872 
z
" clip-path="url(#p358b12d6f0)"/>
   </g>
   <g id="patch_23">
    <path d="M 210.833761 384.48 
L 211.01677 384.48 
L 211.01677 379.149775 
L 210.833761 379.149775 
z
" clip-path="url(#p358b12d6f0)"/>
   </g>
   <g id="patch_24">
    <path d="M 221.81435 384.48 
L 221.99736 384.48 
L 221.99736 378.436711 
L 221.81435 378.436711 
z
" clip-path="url(#p358b12d6f0)"/>
   </g>
   <g id="patch_25">
    <path d="M 231.574874 384.48 
L 231.757884 384.48 
L 231.757884 320.409815 
L 231.574874 320.409815 
z
" clip-path="url(#p358b12d6f0)"/>
   </g>
   <g id="patch_26">
    <path d="M 237.217677 384.48 
L 237.400687 384.48 
L 237.400687 370.832935 
L 237.217677 370.832935 
z
" clip-path="url(#p358b12d6f0)"/>
   </g>
   <g id="patch_27">
    <path d="M 247.435725 384.48 
L 247.618735 384.48 
L 247.618735 366.763769 
L 247.435725 366.763769 
z
" clip-path="url(#p358b12d6f0)"/>
   </g>
   <g id="patch_28">
    <path d="M 256.2812 384.48 
L 256.46421 384.48 
L 256.46421 365.266622 
L 256.2812 365.266622 
z
" clip-path="url(#p358b12d6f0)"/>
   </g>
   <g id="patch_29">
    <path d="M 267.109281 384.48 
L 267.292291 384.48 
L 267.292291 348.989955 
L 267.109281 348.989955 
z
" clip-path="url(#p358b12d6f0)"/>
   </g>
   <g id="patch_30">
    <path d="M 285.410263 384.48 
L 285.593273 384.48 
L 285.593273 241.003478 
L 285.410263 241.003478 
z
" clip-path="url(#p358b12d6f0)"/>
   </g>
   <g id="patch_31">
    <path d="M 299.593525 384.48 
L 299.776535 384.48 
L 299.776535 67.68 
L 299.593525 67.68 
z
" clip-path="url(#p358b12d6f0)"/>
   </g>
   <g id="patch_32">
    <path d="M 309.20154 384.48 
L 309.38455 384.48 
L 309.38455 193.785786 
L 309.20154 193.785786 
z
" clip-path="url(#p358b12d6f0)"/>
   </g>
   <g id="patch_33">
    <path d="M 331.010211 384.48 
L 331.193221 384.48 
L 331.193221 324.910851 
L 331.010211 324.910851 
z
" clip-path="url(#p358b12d6f0)"/>
   </g>
   <g id="patch_34">
    <path d="M 347.328587 384.48 
L 347.511597 384.48 
L 347.511597 369.950003 
L 347.328587 369.950003 
z
" clip-path="url(#p358b12d6f0)"/>
   </g>
   <g id="patch_35">
    <path d="M 372.492437 384.48 
L 372.675447 384.48 
L 372.675447 378.830192 
L 372.492437 378.830192 
z
" clip-path="url(#p358b12d6f0)"/>
   </g>
   <g id="patch_36">
    <path d="M 382.40547 384.48 
L 382.588479 384.48 
L 382.588479 372.838728 
L 382.40547 372.838728 
z
" clip-path="url(#p358b12d6f0)"/>
   </g>
   <g id="patch_37">
    <path d="M 408.331861 384.48 
L 408.514871 384.48 
L 408.514871 380.74961 
L 408.331861 380.74961 
z
" clip-path="url(#p358b12d6f0)"/>
   </g>
   <g id="patch_38">
    <path d="M 421.90509 384.48 
L 422.088099 384.48 
L 422.088099 378.299473 
L 421.90509 378.299473 
z
" clip-path="url(#p358b12d6f0)"/>
   </g>
   <g id="patch_39">
    <path d="M 431.818122 384.48 
L 432.001132 384.48 
L 432.001132 359.633129 
L 431.818122 359.633129 
z
" clip-path="url(#p358b12d6f0)"/>
   </g>
   <g id="patch_40">
    <path d="M 443.561252 384.48 
L 443.744262 384.48 
L 443.744262 374.84452 
L 443.561252 374.84452 
z
" clip-path="url(#p358b12d6f0)"/>
   </g>
   <g id="patch_41">
    <path d="M 446.763924 384.48 
L 446.946934 384.48 
L 446.946934 374.594995 
L 446.763924 374.594995 
z
" clip-path="url(#p358b12d6f0)"/>
   </g>
   <g id="patch_42">
    <path d="M 458.812071 384.48 
L 458.99508 384.48 
L 458.99508 353.951651 
L 458.812071 353.951651 
z
" clip-path="url(#p358b12d6f0)"/>
   </g>
   <g id="patch_43">
    <path d="M 481.840807 384.48 
L 482.023816 384.48 
L 482.023816 382.874407 
L 481.840807 382.874407 
z
" clip-path="url(#p358b12d6f0)"/>
   </g>
   <g id="patch_44">
    <path d="M 498.464199 384.48 
L 498.647209 384.48 
L 498.647209 375.030703 
L 498.464199 375.030703 
z
" clip-path="url(#p358b12d6f0)"/>
   </g>
   <g id="patch_45">
    <path d="M 519.052804 384.48 
L 519.235814 384.48 
L 519.235814 379.474157 
L 519.052804 379.474157 
z
" clip-path="url(#p358b12d6f0)"/>
   </g>
   <g id="patch_46">
    <path d="M 537.963819 384.48 
L 538.146829 384.48 
L 538.146829 382.601849 
L 537.963819 382.601849 
z
" clip-path="url(#p358b12d6f0)"/>
   </g>
   <g id="patch_47">
    <path d="M 554.587211 384.48 
L 554.770221 384.48 
L 554.770221 382.821623 
L 554.587211 382.821623 
z
" clip-path="url(#p358b12d6f0)"/>
   </g>
   <g id="patch_48">
    <path d="M 569.380505 384.48 
L 569.563515 384.48 
L 569.563515 382.86385 
L 569.380505 382.86385 
z
" clip-path="url(#p358b12d6f0)"/>
   </g>
   <g id="patch_49">
    <path d="M 596.069438 384.48 
L 596.252448 384.48 
L 596.252448 384.264545 
L 596.069438 384.264545 
z
" clip-path="url(#p358b12d6f0)"/>
   </g>
   <g id="patch_50">
    <path d="M 622.453354 384.48 
L 622.636364 384.48 
L 622.636364 383.384012 
L 622.453354 383.384012 
z
" clip-path="url(#p358b12d6f0)"/>
   </g>
   <g id="matplotlib.axis_1">
    <g id="xtick_1">
     <g id="line2d_1">
      <defs>
       <path id="m5051071d82" d="M 0 0 
L 0 3.5 
" style="stroke: #000000; stroke-width: 0.8"/>
      </defs>
      <g>
       <use xlink:href="#m5051071d82" x="128.631849" y="384.48" style="stroke: #000000; stroke-width: 0.8"/>
      </g>
     </g>
     <g id="text_1">
      <!-- 2500 -->
      <g transform="translate(115.906849 399.078438) scale(0.1 -0.1)">
       <defs>
        <path id="DejaVuSans-32" d="M 1228 531 
L 3431 531 
L 3431 0 
L 469 0 
L 469 531 
Q 828 903 1448 1529 
Q 2069 2156 2228 2338 
Q 2531 2678 2651 2914 
Q 2772 3150 2772 3378 
Q 2772 3750 2511 3984 
Q 2250 4219 1831 4219 
Q 1534 4219 1204 4116 
Q 875 4013 500 3803 
L 500 4441 
Q 881 4594 1212 4672 
Q 1544 4750 1819 4750 
Q 2544 4750 2975 4387 
Q 3406 4025 3406 3419 
Q 3406 3131 3298 2873 
Q 3191 2616 2906 2266 
Q 2828 2175 2409 1742 
Q 1991 1309 1228 531 
z
" transform="scale(0.015625)"/>
        <path id="DejaVuSans-35" d="M 691 4666 
L 3169 4666 
L 3169 4134 
L 1269 4134 
L 1269 2991 
Q 1406 3038 1543 3061 
Q 1681 3084 1819 3084 
Q 2600 3084 3056 2656 
Q 3513 2228 3513 1497 
Q 3513 744 3044 326 
Q 2575 -91 1722 -91 
Q 1428 -91 1123 -41 
Q 819 9 494 109 
L 494 744 
Q 775 591 1075 516 
Q 1375 441 1709 441 
Q 2250 441 2565 725 
Q 2881 1009 2881 1497 
Q 2881 1984 2565 2268 
Q 2250 2553 1709 2553 
Q 1456 2553 1204 2497 
Q 953 2441 691 2322 
L 691 4666 
z
" transform="scale(0.015625)"/>
        <path id="DejaVuSans-30" d="M 2034 4250 
Q 1547 4250 1301 3770 
Q 1056 3291 1056 2328 
Q 1056 1369 1301 889 
Q 1547 409 2034 409 
Q 2525 409 2770 889 
Q 3016 1369 3016 2328 
Q 3016 3291 2770 3770 
Q 2525 4250 2034 4250 
z
M 2034 4750 
Q 2819 4750 3233 4129 
Q 3647 3509 3647 2328 
Q 3647 1150 3233 529 
Q 2819 -91 2034 -91 
Q 1250 -91 836 529 
Q 422 1150 422 2328 
Q 422 3509 836 4129 
Q 1250 4750 2034 4750 
z
" transform="scale(0.015625)"/>
       </defs>
       <use xlink:href="#DejaVuSans-32"/>
       <use xlink:href="#DejaVuSans-35" x="63.623047"/>
       <use xlink:href="#DejaVuSans-30" x="127.246094"/>
       <use xlink:href="#DejaVuSans-30" x="190.869141"/>
      </g>
     </g>
    </g>
    <g id="xtick_2">
     <g id="line2d_2">
      <g>
       <use xlink:href="#m5051071d82" x="204.885941" y="384.48" style="stroke: #000000; stroke-width: 0.8"/>
      </g>
     </g>
     <g id="text_2">
      <!-- 5000 -->
      <g transform="translate(192.160941 399.078438) scale(0.1 -0.1)">
       <use xlink:href="#DejaVuSans-35"/>
       <use xlink:href="#DejaVuSans-30" x="63.623047"/>
       <use xlink:href="#DejaVuSans-30" x="127.246094"/>
       <use xlink:href="#DejaVuSans-30" x="190.869141"/>
      </g>
     </g>
    </g>
    <g id="xtick_3">
     <g id="line2d_3">
      <g>
       <use xlink:href="#m5051071d82" x="281.140034" y="384.48" style="stroke: #000000; stroke-width: 0.8"/>
      </g>
     </g>
     <g id="text_3">
      <!-- 7500 -->
      <g transform="translate(268.415034 399.078438) scale(0.1 -0.1)">
       <defs>
        <path id="DejaVuSans-37" d="M 525 4666 
L 3525 4666 
L 3525 4397 
L 1831 0 
L 1172 0 
L 2766 4134 
L 525 4134 
L 525 4666 
z
" transform="scale(0.015625)"/>
       </defs>
       <use xlink:href="#DejaVuSans-37"/>
       <use xlink:href="#DejaVuSans-35" x="63.623047"/>
       <use xlink:href="#DejaVuSans-30" x="127.246094"/>
       <use xlink:href="#DejaVuSans-30" x="190.869141"/>
      </g>
     </g>
    </g>
    <g id="xtick_4">
     <g id="line2d_4">
      <g>
       <use xlink:href="#m5051071d82" x="357.394127" y="384.48" style="stroke: #000000; stroke-width: 0.8"/>
      </g>
     </g>
     <g id="text_4">
      <!-- 10000 -->
      <g transform="translate(341.487877 399.078438) scale(0.1 -0.1)">
       <defs>
        <path id="DejaVuSans-31" d="M 794 531 
L 1825 531 
L 1825 4091 
L 703 3866 
L 703 4441 
L 1819 4666 
L 2450 4666 
L 2450 531 
L 3481 531 
L 3481 0 
L 794 0 
L 794 531 
z
" transform="scale(0.015625)"/>
       </defs>
       <use xlink:href="#DejaVuSans-31"/>
       <use xlink:href="#DejaVuSans-30" x="63.623047"/>
       <use xlink:href="#DejaVuSans-30" x="127.246094"/>
       <use xlink:href="#DejaVuSans-30" x="190.869141"/>
       <use xlink:href="#DejaVuSans-30" x="254.492188"/>
      </g>
     </g>
    </g>
    <g id="xtick_5">
     <g id="line2d_5">
      <g>
       <use xlink:href="#m5051071d82" x="433.64822" y="384.48" style="stroke: #000000; stroke-width: 0.8"/>
      </g>
     </g>
     <g id="text_5">
      <!-- 12500 -->
      <g transform="translate(417.74197 399.078438) scale(0.1 -0.1)">
       <use xlink:href="#DejaVuSans-31"/>
       <use xlink:href="#DejaVuSans-32" x="63.623047"/>
       <use xlink:href="#DejaVuSans-35" x="127.246094"/>
       <use xlink:href="#DejaVuSans-30" x="190.869141"/>
       <use xlink:href="#DejaVuSans-30" x="254.492188"/>
      </g>
     </g>
    </g>
    <g id="xtick_6">
     <g id="line2d_6">
      <g>
       <use xlink:href="#m5051071d82" x="509.902313" y="384.48" style="stroke: #000000; stroke-width: 0.8"/>
      </g>
     </g>
     <g id="text_6">
      <!-- 15000 -->
      <g transform="translate(493.996063 399.078438) scale(0.1 -0.1)">
       <use xlink:href="#DejaVuSans-31"/>
       <use xlink:href="#DejaVuSans-35" x="63.623047"/>
       <use xlink:href="#DejaVuSans-30" x="127.246094"/>
       <use xlink:href="#DejaVuSans-30" x="190.869141"/>
       <use xlink:href="#DejaVuSans-30" x="254.492188"/>
      </g>
     </g>
    </g>
    <g id="xtick_7">
     <g id="line2d_7">
      <g>
       <use xlink:href="#m5051071d82" x="586.156406" y="384.48" style="stroke: #000000; stroke-width: 0.8"/>
      </g>
     </g>
     <g id="text_7">
      <!-- 17500 -->
      <g transform="translate(570.250156 399.078438) scale(0.1 -0.1)">
       <use xlink:href="#DejaVuSans-31"/>
       <use xlink:href="#DejaVuSans-37" x="63.623047"/>
       <use xlink:href="#DejaVuSans-35" x="127.246094"/>
       <use xlink:href="#DejaVuSans-30" x="190.869141"/>
       <use xlink:href="#DejaVuSans-30" x="254.492188"/>
      </g>
     </g>
    </g>
   </g>
   <g id="matplotlib.axis_2">
    <g id="ytick_1">
     <g id="line2d_8">
      <defs>
       <path id="m541b4a413f" d="M 0 0 
L -3.5 0 
" style="stroke: #000000; stroke-width: 0.8"/>
      </defs>
      <g>
       <use xlink:href="#m541b4a413f" x="90" y="384.48" style="stroke: #000000; stroke-width: 0.8"/>
      </g>
     </g>
     <g id="text_8">
      <!-- 0.0 -->
      <g transform="translate(67.096875 388.279219) scale(0.1 -0.1)">
       <defs>
        <path id="DejaVuSans-2e" d="M 684 794 
L 1344 794 
L 1344 0 
L 684 0 
L 684 794 
z
" transform="scale(0.015625)"/>
       </defs>
       <use xlink:href="#DejaVuSans-30"/>
       <use xlink:href="#DejaVuSans-2e" x="63.623047"/>
       <use xlink:href="#DejaVuSans-30" x="95.410156"/>
      </g>
     </g>
    </g>
    <g id="ytick_2">
     <g id="line2d_9">
      <g>
       <use xlink:href="#m541b4a413f" x="90" y="321.12" style="stroke: #000000; stroke-width: 0.8"/>
      </g>
     </g>
     <g id="text_9">
      <!-- 0.2 -->
      <g transform="translate(67.096875 324.919219) scale(0.1 -0.1)">
       <use xlink:href="#DejaVuSans-30"/>
       <use xlink:href="#DejaVuSans-2e" x="63.623047"/>
       <use xlink:href="#DejaVuSans-32" x="95.410156"/>
      </g>
     </g>
    </g>
    <g id="ytick_3">
     <g id="line2d_10">
      <g>
       <use xlink:href="#m541b4a413f" x="90" y="257.76" style="stroke: #000000; stroke-width: 0.8"/>
      </g>
     </g>
     <g id="text_10">
      <!-- 0.4 -->
      <g transform="translate(67.096875 261.559219) scale(0.1 -0.1)">
       <defs>
        <path id="DejaVuSans-34" d="M 2419 4116 
L 825 1625 
L 2419 1625 
L 2419 4116 
z
M 2253 4666 
L 3047 4666 
L 3047 1625 
L 3713 1625 
L 3713 1100 
L 3047 1100 
L 3047 0 
L 2419 0 
L 2419 1100 
L 313 1100 
L 313 1709 
L 2253 4666 
z
" transform="scale(0.015625)"/>
       </defs>
       <use xlink:href="#DejaVuSans-30"/>
       <use xlink:href="#DejaVuSans-2e" x="63.623047"/>
       <use xlink:href="#DejaVuSans-34" x="95.410156"/>
      </g>
     </g>
    </g>
    <g id="ytick_4">
     <g id="line2d_11">
      <g>
       <use xlink:href="#m541b4a413f" x="90" y="194.4" style="stroke: #000000; stroke-width: 0.8"/>
      </g>
     </g>
     <g id="text_11">
      <!-- 0.6 -->
      <g transform="translate(67.096875 198.199219) scale(0.1 -0.1)">
       <defs>
        <path id="DejaVuSans-36" d="M 2113 2584 
Q 1688 2584 1439 2293 
Q 1191 2003 1191 1497 
Q 1191 994 1439 701 
Q 1688 409 2113 409 
Q 2538 409 2786 701 
Q 3034 994 3034 1497 
Q 3034 2003 2786 2293 
Q 2538 2584 2113 2584 
z
M 3366 4563 
L 3366 3988 
Q 3128 4100 2886 4159 
Q 2644 4219 2406 4219 
Q 1781 4219 1451 3797 
Q 1122 3375 1075 2522 
Q 1259 2794 1537 2939 
Q 1816 3084 2150 3084 
Q 2853 3084 3261 2657 
Q 3669 2231 3669 1497 
Q 3669 778 3244 343 
Q 2819 -91 2113 -91 
Q 1303 -91 875 529 
Q 447 1150 447 2328 
Q 447 3434 972 4092 
Q 1497 4750 2381 4750 
Q 2619 4750 2861 4703 
Q 3103 4656 3366 4563 
z
" transform="scale(0.015625)"/>
       </defs>
       <use xlink:href="#DejaVuSans-30"/>
       <use xlink:href="#DejaVuSans-2e" x="63.623047"/>
       <use xlink:href="#DejaVuSans-36" x="95.410156"/>
      </g>
     </g>
    </g>
    <g id="ytick_5">
     <g id="line2d_12">
      <g>
       <use xlink:href="#m541b4a413f" x="90" y="131.04" style="stroke: #000000; stroke-width: 0.8"/>
      </g>
     </g>
     <g id="text_12">
      <!-- 0.8 -->
      <g transform="translate(67.096875 134.839219) scale(0.1 -0.1)">
       <defs>
        <path id="DejaVuSans-38" d="M 2034 2216 
Q 1584 2216 1326 1975 
Q 1069 1734 1069 1313 
Q 1069 891 1326 650 
Q 1584 409 2034 409 
Q 2484 409 2743 651 
Q 3003 894 3003 1313 
Q 3003 1734 2745 1975 
Q 2488 2216 2034 2216 
z
M 1403 2484 
Q 997 2584 770 2862 
Q 544 3141 544 3541 
Q 544 4100 942 4425 
Q 1341 4750 2034 4750 
Q 2731 4750 3128 4425 
Q 3525 4100 3525 3541 
Q 3525 3141 3298 2862 
Q 3072 2584 2669 2484 
Q 3125 2378 3379 2068 
Q 3634 1759 3634 1313 
Q 3634 634 3220 271 
Q 2806 -91 2034 -91 
Q 1263 -91 848 271 
Q 434 634 434 1313 
Q 434 1759 690 2068 
Q 947 2378 1403 2484 
z
M 1172 3481 
Q 1172 3119 1398 2916 
Q 1625 2713 2034 2713 
Q 2441 2713 2670 2916 
Q 2900 3119 2900 3481 
Q 2900 3844 2670 4047 
Q 2441 4250 2034 4250 
Q 1625 4250 1398 4047 
Q 1172 3844 1172 3481 
z
" transform="scale(0.015625)"/>
       </defs>
       <use xlink:href="#DejaVuSans-30"/>
       <use xlink:href="#DejaVuSans-2e" x="63.623047"/>
       <use xlink:href="#DejaVuSans-38" x="95.410156"/>
      </g>
     </g>
    </g>
    <g id="ytick_6">
     <g id="line2d_13">
      <g>
       <use xlink:href="#m541b4a413f" x="90" y="67.68" style="stroke: #000000; stroke-width: 0.8"/>
      </g>
     </g>
     <g id="text_13">
      <!-- 1.0 -->
      <g transform="translate(67.096875 71.479219) scale(0.1 -0.1)">
       <use xlink:href="#DejaVuSans-31"/>
       <use xlink:href="#DejaVuSans-2e" x="63.623047"/>
       <use xlink:href="#DejaVuSans-30" x="95.410156"/>
      </g>
     </g>
    </g>
   </g>
   <g id="patch_51">
    <path d="M 90 384.48 
L 90 51.84 
" style="fill: none; stroke: #000000; stroke-width: 0.8; stroke-linejoin: miter; stroke-linecap: square"/>
   </g>
   <g id="patch_52">
    <path d="M 648 384.48 
L 648 51.84 
" style="fill: none; stroke: #000000; stroke-width: 0.8; stroke-linejoin: miter; stroke-linecap: square"/>
   </g>
   <g id="patch_53">
    <path d="M 90 384.48 
L 648 384.48 
" style="fill: none; stroke: #000000; stroke-width: 0.8; stroke-linejoin: miter; stroke-linecap: square"/>
   </g>
   <g id="patch_54">
    <path d="M 90 51.84 
L 648 51.84 
" style="fill: none; stroke: #000000; stroke-width: 0.8; stroke-linejoin: miter; stroke-linecap: square"/>
   </g>
  </g>
 </g>
 <defs>
  <clipPath id="p358b12d6f0">
   <rect x="90" y="51.84" width="558" height="332.64"/>
  </clipPath>
 </defs>
</svg>
