<?xml version="1.0" encoding="utf-8" standalone="no"?>
<!DOCTYPE svg PUBLIC "-//W3C//DTD SVG 1.1//EN"
  "http://www.w3.org/Graphics/SVG/1.1/DTD/svg11.dtd">
<svg xmlns:xlink="http://www.w3.org/1999/xlink" width="720pt" height="432pt" viewBox="0 0 720 432" xmlns="http://www.w3.org/2000/svg" version="1.1">
 <metadata>
  <rdf:RDF xmlns:dc="http://purl.org/dc/elements/1.1/" xmlns:cc="http://creativecommons.org/ns#" xmlns:rdf="http://www.w3.org/1999/02/22-rdf-syntax-ns#">
   <cc:Work>
    <dc:type rdf:resource="http://purl.org/dc/dcmitype/StillImage"/>
    <dc:date>2024-03-22T14:02:54.345326</dc:date>
    <dc:format>image/svg+xml</dc:format>
    <dc:creator>
     <cc:Agent>
      <dc:title>Matplotlib v3.7.2, https://matplotlib.org/</dc:title>
     </cc:Agent>
    </dc:creator>
   </cc:Work>
  </rdf:RDF>
 </metadata>
 <defs>
  <style type="text/css">*{stroke-linejoin: round; stroke-linecap: butt}</style>
 </defs>
 <g id="figure_1">
  <g id="patch_1">
   <path d="M 0 432 
L 720 432 
L 720 0 
L 0 0 
z
" style="fill: #ffffff"/>
  </g>
  <g id="axes_1">
   <g id="patch_2">
    <path d="M 90 384.48 
L 648 384.48 
L 648 51.84 
L 90 51.84 
z
" style="fill: #ffffff"/>
   </g>
   <g id="patch_3">
    <path d="M 115.363636 384.48 
L 115.541644 384.48 
L 115.541644 384.48 
L 115.363636 384.48 
z
" clip-path="url(#p1b3d8a8102)"/>
   </g>
   <g id="patch_4">
    <path d="M 117.247556 384.48 
L 117.425564 384.48 
L 117.425564 384.48 
L 117.247556 384.48 
z
" clip-path="url(#p1b3d8a8102)"/>
   </g>
   <g id="patch_5">
    <path d="M 118.045625 384.48 
L 118.223634 384.48 
L 118.223634 384.48 
L 118.045625 384.48 
z
" clip-path="url(#p1b3d8a8102)"/>
   </g>
   <g id="patch_6">
    <path d="M 120.157989 384.48 
L 120.335997 384.48 
L 120.335997 384.48 
L 120.157989 384.48 
z
" clip-path="url(#p1b3d8a8102)"/>
   </g>
   <g id="patch_7">
    <path d="M 122.611534 384.48 
L 122.789542 384.48 
L 122.789542 384.48 
L 122.611534 384.48 
z
" clip-path="url(#p1b3d8a8102)"/>
   </g>
   <g id="patch_8">
    <path d="M 124.777299 384.48 
L 124.955308 384.48 
L 124.955308 384.466345 
L 124.777299 384.466345 
z
" clip-path="url(#p1b3d8a8102)"/>
   </g>
   <g id="patch_9">
    <path d="M 127.574994 384.48 
L 127.753002 384.48 
L 127.753002 384.48 
L 127.574994 384.48 
z
" clip-path="url(#p1b3d8a8102)"/>
   </g>
   <g id="patch_10">
    <path d="M 129.68439 384.48 
L 129.862398 384.48 
L 129.862398 384.48 
L 129.68439 384.48 
z
" clip-path="url(#p1b3d8a8102)"/>
   </g>
   <g id="patch_11">
    <path d="M 130.426091 384.48 
L 130.604099 384.48 
L 130.604099 384.48 
L 130.426091 384.48 
z
" clip-path="url(#p1b3d8a8102)"/>
   </g>
   <g id="patch_12">
    <path d="M 131.167791 384.48 
L 131.345799 384.48 
L 131.345799 384.48 
L 131.167791 384.48 
z
" clip-path="url(#p1b3d8a8102)"/>
   </g>
   <g id="patch_13">
    <path d="M 134.078224 384.48 
L 134.256232 384.48 
L 134.256232 384.48 
L 134.078224 384.48 
z
" clip-path="url(#p1b3d8a8102)"/>
   </g>
   <g id="patch_14">
    <path d="M 135.44592 384.48 
L 135.623928 384.48 
L 135.623928 384.48 
L 135.44592 384.48 
z
" clip-path="url(#p1b3d8a8102)"/>
   </g>
   <g id="patch_15">
    <path d="M 138.015171 384.48 
L 138.193179 384.48 
L 138.193179 383.96518 
L 138.015171 383.96518 
z
" clip-path="url(#p1b3d8a8102)"/>
   </g>
   <g id="patch_16">
    <path d="M 139.955459 384.48 
L 140.133467 384.48 
L 140.133467 383.138033 
L 139.955459 383.138033 
z
" clip-path="url(#p1b3d8a8102)"/>
   </g>
   <g id="patch_17">
    <path d="M 143.379149 384.48 
L 143.557157 384.48 
L 143.557157 381.74774 
L 143.379149 381.74774 
z
" clip-path="url(#p1b3d8a8102)"/>
   </g>
   <g id="patch_18">
    <path d="M 144.405662 384.48 
L 144.58367 384.48 
L 144.58367 384.3609 
L 144.405662 384.3609 
z
" clip-path="url(#p1b3d8a8102)"/>
   </g>
   <g id="patch_19">
    <path d="M 144.975288 384.48 
L 145.153296 384.48 
L 145.153296 384.394889 
L 144.975288 384.394889 
z
" clip-path="url(#p1b3d8a8102)"/>
   </g>
   <g id="patch_20">
    <path d="M 145.889063 384.48 
L 146.067072 384.48 
L 146.067072 384.307501 
L 145.889063 384.307501 
z
" clip-path="url(#p1b3d8a8102)"/>
   </g>
   <g id="patch_21">
    <path d="M 147.770016 384.48 
L 147.948024 384.48 
L 147.948024 384.140355 
L 147.770016 384.140355 
z
" clip-path="url(#p1b3d8a8102)"/>
   </g>
   <g id="patch_22">
    <path d="M 149.140679 384.48 
L 149.318687 384.48 
L 149.318687 384.40092 
L 149.140679 384.40092 
z
" clip-path="url(#p1b3d8a8102)"/>
   </g>
   <g id="patch_23">
    <path d="M 150.56771 384.48 
L 150.745718 384.48 
L 150.745718 378.884478 
L 150.56771 378.884478 
z
" clip-path="url(#p1b3d8a8102)"/>
   </g>
   <g id="patch_24">
    <path d="M 152.279555 384.48 
L 152.457563 384.48 
L 152.457563 384.354949 
L 152.279555 384.354949 
z
" clip-path="url(#p1b3d8a8102)"/>
   </g>
   <g id="patch_25">
    <path d="M 153.932064 384.48 
L 154.110072 384.48 
L 154.110072 384.326832 
L 153.932064 384.326832 
z
" clip-path="url(#p1b3d8a8102)"/>
   </g>
   <g id="patch_26">
    <path d="M 156.441979 384.48 
L 156.619987 384.48 
L 156.619987 384.343607 
L 156.441979 384.343607 
z
" clip-path="url(#p1b3d8a8102)"/>
   </g>
   <g id="patch_27">
    <path d="M 158.325898 384.48 
L 158.503906 384.48 
L 158.503906 383.76029 
L 158.325898 383.76029 
z
" clip-path="url(#p1b3d8a8102)"/>
   </g>
   <g id="patch_28">
    <path d="M 159.524486 384.48 
L 159.702494 384.48 
L 159.702494 383.598935 
L 159.524486 383.598935 
z
" clip-path="url(#p1b3d8a8102)"/>
   </g>
   <g id="patch_29">
    <path d="M 160.266186 384.48 
L 160.444195 384.48 
L 160.444195 383.867728 
L 160.266186 383.867728 
z
" clip-path="url(#p1b3d8a8102)"/>
   </g>
   <g id="patch_30">
    <path d="M 162.375583 384.48 
L 162.553591 384.48 
L 162.553591 382.200254 
L 162.375583 382.200254 
z
" clip-path="url(#p1b3d8a8102)"/>
   </g>
   <g id="patch_31">
    <path d="M 163.746245 384.48 
L 163.924254 384.48 
L 163.924254 383.083716 
L 163.746245 383.083716 
z
" clip-path="url(#p1b3d8a8102)"/>
   </g>
   <g id="patch_32">
    <path d="M 165.971347 384.48 
L 166.149355 384.48 
L 166.149355 382.163909 
L 165.971347 382.163909 
z
" clip-path="url(#p1b3d8a8102)"/>
   </g>
   <g id="patch_33">
    <path d="M 167.855266 384.48 
L 168.033274 384.48 
L 168.033274 384.158527 
L 167.855266 384.158527 
z
" clip-path="url(#p1b3d8a8102)"/>
   </g>
   <g id="patch_34">
    <path d="M 169.338667 384.48 
L 169.516676 384.48 
L 169.516676 379.823056 
L 169.338667 379.823056 
z
" clip-path="url(#p1b3d8a8102)"/>
   </g>
   <g id="patch_35">
    <path d="M 171.391694 384.48 
L 171.569703 384.48 
L 171.569703 372.278487 
L 171.391694 372.278487 
z
" clip-path="url(#p1b3d8a8102)"/>
   </g>
   <g id="patch_36">
    <path d="M 172.530946 384.48 
L 172.708955 384.48 
L 172.708955 383.688 
L 172.530946 383.688 
z
" clip-path="url(#p1b3d8a8102)"/>
   </g>
   <g id="patch_37">
    <path d="M 173.616796 384.48 
L 173.794804 384.48 
L 173.794804 383.022209 
L 173.616796 383.022209 
z
" clip-path="url(#p1b3d8a8102)"/>
   </g>
   <g id="patch_38">
    <path d="M 175.441379 384.48 
L 175.619387 384.48 
L 175.619387 375.369803 
L 175.441379 375.369803 
z
" clip-path="url(#p1b3d8a8102)"/>
   </g>
   <g id="patch_39">
    <path d="M 176.868411 384.48 
L 177.046419 384.48 
L 177.046419 384.122182 
L 176.868411 384.122182 
z
" clip-path="url(#p1b3d8a8102)"/>
   </g>
   <g id="patch_40">
    <path d="M 179.378326 384.48 
L 179.556334 384.48 
L 179.556334 376.703782 
L 179.378326 376.703782 
z
" clip-path="url(#p1b3d8a8102)"/>
   </g>
   <g id="patch_41">
    <path d="M 180.633283 384.48 
L 180.811291 384.48 
L 180.811291 374.846596 
L 180.633283 374.846596 
z
" clip-path="url(#p1b3d8a8102)"/>
   </g>
   <g id="patch_42">
    <path d="M 182.401497 384.48 
L 182.579505 384.48 
L 182.579505 380.805168 
L 182.401497 380.805168 
z
" clip-path="url(#p1b3d8a8102)"/>
   </g>
   <g id="patch_43">
    <path d="M 184.798673 384.48 
L 184.976681 384.48 
L 184.976681 378.469107 
L 184.798673 378.469107 
z
" clip-path="url(#p1b3d8a8102)"/>
   </g>
   <g id="patch_44">
    <path d="M 186.169336 384.48 
L 186.347344 384.48 
L 186.347344 381.018045 
L 186.169336 381.018045 
z
" clip-path="url(#p1b3d8a8102)"/>
   </g>
   <g id="patch_45">
    <path d="M 187.364957 384.48 
L 187.542965 384.48 
L 187.542965 381.415843 
L 187.364957 381.415843 
z
" clip-path="url(#p1b3d8a8102)"/>
   </g>
   <g id="patch_46">
    <path d="M 188.67925 384.48 
L 188.857259 384.48 
L 188.857259 364.518245 
L 188.67925 364.518245 
z
" clip-path="url(#p1b3d8a8102)"/>
   </g>
   <g id="patch_47">
    <path d="M 190.904352 384.48 
L 191.08236 384.48 
L 191.08236 383.975964 
L 190.904352 383.975964 
z
" clip-path="url(#p1b3d8a8102)"/>
   </g>
   <g id="patch_48">
    <path d="M 192.159309 384.48 
L 192.337317 384.48 
L 192.337317 383.76748 
L 192.159309 383.76748 
z
" clip-path="url(#p1b3d8a8102)"/>
   </g>
   <g id="patch_49">
    <path d="M 194.212336 384.48 
L 194.390344 384.48 
L 194.390344 383.999528 
L 194.212336 383.999528 
z
" clip-path="url(#p1b3d8a8102)"/>
   </g>
   <g id="patch_50">
    <path d="M 196.096256 384.48 
L 196.274264 384.48 
L 196.274264 382.149132 
L 196.096256 382.149132 
z
" clip-path="url(#p1b3d8a8102)"/>
   </g>
   <g id="patch_51">
    <path d="M 197.463951 384.48 
L 197.64196 384.48 
L 197.64196 382.457464 
L 197.463951 382.457464 
z
" clip-path="url(#p1b3d8a8102)"/>
   </g>
   <g id="patch_52">
    <path d="M 198.60617 384.48 
L 198.784178 384.48 
L 198.784178 382.445083 
L 198.60617 382.445083 
z
" clip-path="url(#p1b3d8a8102)"/>
   </g>
   <g id="patch_53">
    <path d="M 200.831272 384.48 
L 201.00928 384.48 
L 201.00928 380.746057 
L 200.831272 380.746057 
z
" clip-path="url(#p1b3d8a8102)"/>
   </g>
   <g id="patch_54">
    <path d="M 202.02986 384.48 
L 202.207868 384.48 
L 202.207868 379.823056 
L 202.02986 379.823056 
z
" clip-path="url(#p1b3d8a8102)"/>
   </g>
   <g id="patch_55">
    <path d="M 204.824588 384.48 
L 205.002596 384.48 
L 205.002596 380.784399 
L 204.824588 380.784399 
z
" clip-path="url(#p1b3d8a8102)"/>
   </g>
   <g id="patch_56">
    <path d="M 206.023176 384.48 
L 206.201184 384.48 
L 206.201184 382.857259 
L 206.023176 382.857259 
z
" clip-path="url(#p1b3d8a8102)"/>
   </g>
   <g id="patch_57">
    <path d="M 209.788048 384.48 
L 209.966056 384.48 
L 209.966056 381.607552 
L 209.788048 381.607552 
z
" clip-path="url(#p1b3d8a8102)"/>
   </g>
   <g id="patch_58">
    <path d="M 210.814561 384.48 
L 210.992569 384.48 
L 210.992569 381.9718 
L 210.814561 381.9718 
z
" clip-path="url(#p1b3d8a8102)"/>
   </g>
   <g id="patch_59">
    <path d="M 214.353956 384.48 
L 214.531964 384.48 
L 214.531964 384.109481 
L 214.353956 384.109481 
z
" clip-path="url(#p1b3d8a8102)"/>
   </g>
   <g id="patch_60">
    <path d="M 216.863871 384.48 
L 217.041879 384.48 
L 217.041879 383.64167 
L 216.863871 383.64167 
z
" clip-path="url(#p1b3d8a8102)"/>
   </g>
   <g id="patch_61">
    <path d="M 219.088972 384.48 
L 219.26698 384.48 
L 219.26698 379.659304 
L 219.088972 379.659304 
z
" clip-path="url(#p1b3d8a8102)"/>
   </g>
   <g id="patch_62">
    <path d="M 221.08563 384.48 
L 221.263638 384.48 
L 221.263638 381.061979 
L 221.08563 381.061979 
z
" clip-path="url(#p1b3d8a8102)"/>
   </g>
   <g id="patch_63">
    <path d="M 222.224882 384.48 
L 222.40289 384.48 
L 222.40289 381.535661 
L 222.224882 381.535661 
z
" clip-path="url(#p1b3d8a8102)"/>
   </g>
   <g id="patch_64">
    <path d="M 223.651914 384.48 
L 223.829922 384.48 
L 223.829922 383.308575 
L 223.651914 383.308575 
z
" clip-path="url(#p1b3d8a8102)"/>
   </g>
   <g id="patch_65">
    <path d="M 225.25102 384.48 
L 225.429028 384.48 
L 225.429028 383.296194 
L 225.25102 383.296194 
z
" clip-path="url(#p1b3d8a8102)"/>
   </g>
   <g id="patch_66">
    <path d="M 226.390272 384.48 
L 226.56828 384.48 
L 226.56828 382.980672 
L 226.390272 382.980672 
z
" clip-path="url(#p1b3d8a8102)"/>
   </g>
   <g id="patch_67">
    <path d="M 230.327219 384.48 
L 230.505227 384.48 
L 230.505227 319.059123 
L 230.327219 319.059123 
z
" clip-path="url(#p1b3d8a8102)"/>
   </g>
   <g id="patch_68">
    <path d="M 235.062235 384.48 
L 235.240243 384.48 
L 235.240243 374.674856 
L 235.062235 374.674856 
z
" clip-path="url(#p1b3d8a8102)"/>
   </g>
   <g id="patch_69">
    <path d="M 236.833416 384.48 
L 237.011424 384.48 
L 237.011424 379.203994 
L 236.833416 379.203994 
z
" clip-path="url(#p1b3d8a8102)"/>
   </g>
   <g id="patch_70">
    <path d="M 238.429555 384.48 
L 238.607563 384.48 
L 238.607563 376.859546 
L 238.429555 376.859546 
z
" clip-path="url(#p1b3d8a8102)"/>
   </g>
   <g id="patch_71">
    <path d="M 240.369844 384.48 
L 240.547852 384.48 
L 240.547852 382.305694 
L 240.369844 382.305694 
z
" clip-path="url(#p1b3d8a8102)"/>
   </g>
   <g id="patch_72">
    <path d="M 242.194427 384.48 
L 242.372435 384.48 
L 242.372435 381.616738 
L 242.194427 381.616738 
z
" clip-path="url(#p1b3d8a8102)"/>
   </g>
   <g id="patch_73">
    <path d="M 243.734197 384.48 
L 243.912206 384.48 
L 243.912206 380.895431 
L 243.734197 380.895431 
z
" clip-path="url(#p1b3d8a8102)"/>
   </g>
   <g id="patch_74">
    <path d="M 245.90293 384.48 
L 246.080938 384.48 
L 246.080938 368.62003 
L 245.90293 368.62003 
z
" clip-path="url(#p1b3d8a8102)"/>
   </g>
   <g id="patch_75">
    <path d="M 249.098176 384.48 
L 249.276184 384.48 
L 249.276184 379.080182 
L 249.098176 379.080182 
z
" clip-path="url(#p1b3d8a8102)"/>
   </g>
   <g id="patch_76">
    <path d="M 251.836534 384.48 
L 252.014542 384.48 
L 252.014542 382.49341 
L 251.836534 382.49341 
z
" clip-path="url(#p1b3d8a8102)"/>
   </g>
   <g id="patch_77">
    <path d="M 254.177341 384.48 
L 254.355349 384.48 
L 254.355349 366.451316 
L 254.177341 366.451316 
z
" clip-path="url(#p1b3d8a8102)"/>
   </g>
   <g id="patch_78">
    <path d="M 256.230368 384.48 
L 256.408376 384.48 
L 256.408376 381.021241 
L 256.230368 381.021241 
z
" clip-path="url(#p1b3d8a8102)"/>
   </g>
   <g id="patch_79">
    <path d="M 259.882501 384.48 
L 260.060509 384.48 
L 260.060509 381.776496 
L 259.882501 381.776496 
z
" clip-path="url(#p1b3d8a8102)"/>
   </g>
   <g id="patch_80">
    <path d="M 262.62086 384.48 
L 262.798868 384.48 
L 262.798868 361.578699 
L 262.62086 361.578699 
z
" clip-path="url(#p1b3d8a8102)"/>
   </g>
   <g id="patch_81">
    <path d="M 265.644031 384.48 
L 265.822039 384.48 
L 265.822039 354.892829 
L 265.644031 354.892829 
z
" clip-path="url(#p1b3d8a8102)"/>
   </g>
   <g id="patch_82">
    <path d="M 271.806079 384.48 
L 271.984087 384.48 
L 271.984087 377.314856 
L 271.806079 377.314856 
z
" clip-path="url(#p1b3d8a8102)"/>
   </g>
   <g id="patch_83">
    <path d="M 275.057694 384.48 
L 275.235702 384.48 
L 275.235702 335.274554 
L 275.057694 335.274554 
z
" clip-path="url(#p1b3d8a8102)"/>
   </g>
   <g id="patch_84">
    <path d="M 278.822566 384.48 
L 279.000574 384.48 
L 279.000574 305.958971 
L 278.822566 305.958971 
z
" clip-path="url(#p1b3d8a8102)"/>
   </g>
   <g id="patch_85">
    <path d="M 282.531069 384.48 
L 282.709077 384.48 
L 282.709077 248.286354 
L 282.531069 248.286354 
z
" clip-path="url(#p1b3d8a8102)"/>
   </g>
   <g id="patch_86">
    <path d="M 285.213058 384.48 
L 285.391066 384.48 
L 285.391066 334.316006 
L 285.213058 334.316006 
z
" clip-path="url(#p1b3d8a8102)"/>
   </g>
   <g id="patch_87">
    <path d="M 291.888363 384.48 
L 292.066371 384.48 
L 292.066371 331.400424 
L 291.888363 331.400424 
z
" clip-path="url(#p1b3d8a8102)"/>
   </g>
   <g id="patch_88">
    <path d="M 293.715913 384.48 
L 293.893921 384.48 
L 293.893921 309.713283 
L 293.715913 309.713283 
z
" clip-path="url(#p1b3d8a8102)"/>
   </g>
   <g id="patch_89">
    <path d="M 296.739084 384.48 
L 296.917092 384.48 
L 296.917092 67.68 
L 296.739084 67.68 
z
" clip-path="url(#p1b3d8a8102)"/>
   </g>
   <g id="patch_90">
    <path d="M 301.245657 384.48 
L 301.423665 384.48 
L 301.423665 346.56944 
L 301.245657 346.56944 
z
" clip-path="url(#p1b3d8a8102)"/>
   </g>
   <g id="patch_91">
    <path d="M 305.752229 384.48 
L 305.930237 384.48 
L 305.930237 199.719939 
L 305.752229 199.719939 
z
" clip-path="url(#p1b3d8a8102)"/>
   </g>
   <g id="patch_92">
    <path d="M 308.834736 384.48 
L 309.012744 384.48 
L 309.012744 350.17997 
L 308.834736 350.17997 
z
" clip-path="url(#p1b3d8a8102)"/>
   </g>
   <g id="patch_93">
    <path d="M 313.112865 384.48 
L 313.290873 384.48 
L 313.290873 376.164599 
L 313.112865 376.164599 
z
" clip-path="url(#p1b3d8a8102)"/>
   </g>
   <g id="patch_94">
    <path d="M 316.36448 384.48 
L 316.542488 384.48 
L 316.542488 381.983383 
L 316.36448 381.983383 
z
" clip-path="url(#p1b3d8a8102)"/>
   </g>
   <g id="patch_95">
    <path d="M 318.761656 384.48 
L 318.939664 384.48 
L 318.939664 383.921247 
L 318.761656 383.921247 
z
" clip-path="url(#p1b3d8a8102)"/>
   </g>
   <g id="patch_96">
    <path d="M 326.691918 384.48 
L 326.869926 384.48 
L 326.869926 327.686051 
L 326.691918 327.686051 
z
" clip-path="url(#p1b3d8a8102)"/>
   </g>
   <g id="patch_97">
    <path d="M 329.65872 384.48 
L 329.836729 384.48 
L 329.836729 364.486293 
L 329.65872 364.486293 
z
" clip-path="url(#p1b3d8a8102)"/>
   </g>
   <g id="patch_98">
    <path d="M 333.479962 384.48 
L 333.65797 384.48 
L 333.65797 381.976992 
L 333.479962 381.976992 
z
" clip-path="url(#p1b3d8a8102)"/>
   </g>
   <g id="patch_99">
    <path d="M 338.671865 384.48 
L 338.849873 384.48 
L 338.849873 384.28889 
L 338.671865 384.28889 
z
" clip-path="url(#p1b3d8a8102)"/>
   </g>
   <g id="patch_100">
    <path d="M 342.552442 384.48 
L 342.730451 384.48 
L 342.730451 369.934039 
L 342.552442 369.934039 
z
" clip-path="url(#p1b3d8a8102)"/>
   </g>
   <g id="patch_101">
    <path d="M 346.317314 384.48 
L 346.495323 384.48 
L 346.495323 379.128109 
L 346.317314 379.128109 
z
" clip-path="url(#p1b3d8a8102)"/>
   </g>
   <g id="patch_102">
    <path d="M 353.565212 384.48 
L 353.74322 384.48 
L 353.74322 384.302669 
L 353.565212 384.302669 
z
" clip-path="url(#p1b3d8a8102)"/>
   </g>
   <g id="patch_103">
    <path d="M 356.816827 384.48 
L 356.994835 384.48 
L 356.994835 384.445528 
L 356.816827 384.445528 
z
" clip-path="url(#p1b3d8a8102)"/>
   </g>
   <g id="patch_104">
    <path d="M 361.952362 384.48 
L 362.13037 384.48 
L 362.13037 384.340531 
L 361.952362 384.340531 
z
" clip-path="url(#p1b3d8a8102)"/>
   </g>
   <g id="patch_105">
    <path d="M 367.02856 384.48 
L 367.206568 384.48 
L 367.206568 379.359758 
L 367.02856 379.359758 
z
" clip-path="url(#p1b3d8a8102)"/>
   </g>
   <g id="patch_106">
    <path d="M 372.73372 384.48 
L 372.911729 384.48 
L 372.911729 378.497065 
L 372.73372 378.497065 
z
" clip-path="url(#p1b3d8a8102)"/>
   </g>
   <g id="patch_107">
    <path d="M 377.355998 384.48 
L 377.534006 384.48 
L 377.534006 372.853616 
L 377.355998 372.853616 
z
" clip-path="url(#p1b3d8a8102)"/>
   </g>
   <g id="patch_108">
    <path d="M 384.716634 384.48 
L 384.894642 384.48 
L 384.894642 383.618905 
L 384.716634 383.618905 
z
" clip-path="url(#p1b3d8a8102)"/>
   </g>
   <g id="patch_109">
    <path d="M 387.226549 384.48 
L 387.404557 384.48 
L 387.404557 384.152656 
L 387.226549 384.152656 
z
" clip-path="url(#p1b3d8a8102)"/>
   </g>
   <g id="patch_110">
    <path d="M 395.497993 384.48 
L 395.676001 384.48 
L 395.676001 383.700781 
L 395.497993 383.700781 
z
" clip-path="url(#p1b3d8a8102)"/>
   </g>
   <g id="patch_111">
    <path d="M 402.345372 384.48 
L 402.523381 384.48 
L 402.523381 381.00846 
L 402.345372 381.00846 
z
" clip-path="url(#p1b3d8a8102)"/>
   </g>
   <g id="patch_112">
    <path d="M 410.447709 384.48 
L 410.625717 384.48 
L 410.625717 381.017247 
L 410.447709 381.017247 
z
" clip-path="url(#p1b3d8a8102)"/>
   </g>
   <g id="patch_113">
    <path d="M 415.639613 384.48 
L 415.817621 384.48 
L 415.817621 378.864508 
L 415.639613 378.864508 
z
" clip-path="url(#p1b3d8a8102)"/>
   </g>
   <g id="patch_114">
    <path d="M 425.738607 384.48 
L 425.916615 384.48 
L 425.916615 367.162239 
L 425.738607 367.162239 
z
" clip-path="url(#p1b3d8a8102)"/>
   </g>
   <g id="patch_115">
    <path d="M 435.665527 384.48 
L 435.843535 384.48 
L 435.843535 378.556974 
L 435.665527 378.556974 
z
" clip-path="url(#p1b3d8a8102)"/>
   </g>
   <g id="patch_116">
    <path d="M 440.801062 384.48 
L 440.97907 384.48 
L 440.97907 377.362784 
L 440.801062 377.362784 
z
" clip-path="url(#p1b3d8a8102)"/>
   </g>
   <g id="patch_117">
    <path d="M 450.155389 384.48 
L 450.333397 384.48 
L 450.333397 363.4918 
L 450.155389 363.4918 
z
" clip-path="url(#p1b3d8a8102)"/>
   </g>
   <g id="patch_118">
    <path d="M 453.694784 384.48 
L 453.872792 384.48 
L 453.872792 373.784206 
L 453.694784 373.784206 
z
" clip-path="url(#p1b3d8a8102)"/>
   </g>
   <g id="patch_119">
    <path d="M 456.661586 384.48 
L 456.839594 384.48 
L 456.839594 370.437277 
L 456.661586 370.437277 
z
" clip-path="url(#p1b3d8a8102)"/>
   </g>
   <g id="patch_120">
    <path d="M 460.426458 384.48 
L 460.604466 384.48 
L 460.604466 376.132648 
L 460.426458 376.132648 
z
" clip-path="url(#p1b3d8a8102)"/>
   </g>
   <g id="patch_121">
    <path d="M 466.244357 384.48 
L 466.422365 384.48 
L 466.422365 382.076442 
L 466.244357 382.076442 
z
" clip-path="url(#p1b3d8a8102)"/>
   </g>
   <g id="patch_122">
    <path d="M 474.233955 384.48 
L 474.411963 384.48 
L 474.411963 382.810929 
L 474.233955 382.810929 
z
" clip-path="url(#p1b3d8a8102)"/>
   </g>
   <g id="patch_123">
    <path d="M 480.909259 384.48 
L 481.087268 384.48 
L 481.087268 384.473606 
L 480.909259 384.473606 
z
" clip-path="url(#p1b3d8a8102)"/>
   </g>
   <g id="patch_124">
    <path d="M 489.978774 384.48 
L 490.156782 384.48 
L 490.156782 375.046293 
L 489.978774 375.046293 
z
" clip-path="url(#p1b3d8a8102)"/>
   </g>
   <g id="patch_125">
    <path d="M 502.474944 384.48 
L 502.652952 384.48 
L 502.652952 382.931147 
L 502.474944 382.931147 
z
" clip-path="url(#p1b3d8a8102)"/>
   </g>
   <g id="patch_126">
    <path d="M 510.064024 384.48 
L 510.242032 384.48 
L 510.242032 379.791104 
L 510.064024 379.791104 
z
" clip-path="url(#p1b3d8a8102)"/>
   </g>
   <g id="patch_127">
    <path d="M 527.921206 384.48 
L 528.099214 384.48 
L 528.099214 382.786166 
L 527.921206 382.786166 
z
" clip-path="url(#p1b3d8a8102)"/>
   </g>
   <g id="patch_128">
    <path d="M 543.78173 384.48 
L 543.959738 384.48 
L 543.959738 383.075328 
L 543.78173 383.075328 
z
" clip-path="url(#p1b3d8a8102)"/>
   </g>
   <g id="patch_129">
    <path d="M 558.900554 384.48 
L 559.078562 384.48 
L 559.078562 382.897997 
L 558.900554 382.897997 
z
" clip-path="url(#p1b3d8a8102)"/>
   </g>
   <g id="patch_130">
    <path d="M 584.916441 384.48 
L 585.09445 384.48 
L 585.09445 384.246953 
L 584.916441 384.246953 
z
" clip-path="url(#p1b3d8a8102)"/>
   </g>
   <g id="patch_131">
    <path d="M 610.591147 384.48 
L 610.769155 384.48 
L 610.769155 383.301386 
L 610.591147 383.301386 
z
" clip-path="url(#p1b3d8a8102)"/>
   </g>
   <g id="patch_132">
    <path d="M 622.458356 384.48 
L 622.636364 384.48 
L 622.636364 384.37452 
L 622.458356 384.37452 
z
" clip-path="url(#p1b3d8a8102)"/>
   </g>
   <g id="matplotlib.axis_1">
    <g id="xtick_1">
     <g id="line2d_1">
      <defs>
       <path id="mab9c98aeac" d="M 0 0 
L 0 3.5 
" style="stroke: #000000; stroke-width: 0.8"/>
      </defs>
      <g>
       <use xlink:href="#mab9c98aeac" x="130.141278" y="384.48" style="stroke: #000000; stroke-width: 0.8"/>
      </g>
     </g>
     <g id="text_1">
      <!-- 2500 -->
      <g transform="translate(117.416278 399.078438) scale(0.1 -0.1)">
       <defs>
        <path id="DejaVuSans-32" d="M 1228 531 
L 3431 531 
L 3431 0 
L 469 0 
L 469 531 
Q 828 903 1448 1529 
Q 2069 2156 2228 2338 
Q 2531 2678 2651 2914 
Q 2772 3150 2772 3378 
Q 2772 3750 2511 3984 
Q 2250 4219 1831 4219 
Q 1534 4219 1204 4116 
Q 875 4013 500 3803 
L 500 4441 
Q 881 4594 1212 4672 
Q 1544 4750 1819 4750 
Q 2544 4750 2975 4387 
Q 3406 4025 3406 3419 
Q 3406 3131 3298 2873 
Q 3191 2616 2906 2266 
Q 2828 2175 2409 1742 
Q 1991 1309 1228 531 
z
" transform="scale(0.015625)"/>
        <path id="DejaVuSans-35" d="M 691 4666 
L 3169 4666 
L 3169 4134 
L 1269 4134 
L 1269 2991 
Q 1406 3038 1543 3061 
Q 1681 3084 1819 3084 
Q 2600 3084 3056 2656 
Q 3513 2228 3513 1497 
Q 3513 744 3044 326 
Q 2575 -91 1722 -91 
Q 1428 -91 1123 -41 
Q 819 9 494 109 
L 494 744 
Q 775 591 1075 516 
Q 1375 441 1709 441 
Q 2250 441 2565 725 
Q 2881 1009 2881 1497 
Q 2881 1984 2565 2268 
Q 2250 2553 1709 2553 
Q 1456 2553 1204 2497 
Q 953 2441 691 2322 
L 691 4666 
z
" transform="scale(0.015625)"/>
        <path id="DejaVuSans-30" d="M 2034 4250 
Q 1547 4250 1301 3770 
Q 1056 3291 1056 2328 
Q 1056 1369 1301 889 
Q 1547 409 2034 409 
Q 2525 409 2770 889 
Q 3016 1369 3016 2328 
Q 3016 3291 2770 3770 
Q 2525 4250 2034 4250 
z
M 2034 4750 
Q 2819 4750 3233 4129 
Q 3647 3509 3647 2328 
Q 3647 1150 3233 529 
Q 2819 -91 2034 -91 
Q 1250 -91 836 529 
Q 422 1150 422 2328 
Q 422 3509 836 4129 
Q 1250 4750 2034 4750 
z
" transform="scale(0.015625)"/>
       </defs>
       <use xlink:href="#DejaVuSans-32"/>
       <use xlink:href="#DejaVuSans-35" x="63.623047"/>
       <use xlink:href="#DejaVuSans-30" x="127.246094"/>
       <use xlink:href="#DejaVuSans-30" x="190.869141"/>
      </g>
     </g>
    </g>
    <g id="xtick_2">
     <g id="line2d_2">
      <g>
       <use xlink:href="#mab9c98aeac" x="204.311331" y="384.48" style="stroke: #000000; stroke-width: 0.8"/>
      </g>
     </g>
     <g id="text_2">
      <!-- 5000 -->
      <g transform="translate(191.586331 399.078438) scale(0.1 -0.1)">
       <use xlink:href="#DejaVuSans-35"/>
       <use xlink:href="#DejaVuSans-30" x="63.623047"/>
       <use xlink:href="#DejaVuSans-30" x="127.246094"/>
       <use xlink:href="#DejaVuSans-30" x="190.869141"/>
      </g>
     </g>
    </g>
    <g id="xtick_3">
     <g id="line2d_3">
      <g>
       <use xlink:href="#mab9c98aeac" x="278.481384" y="384.48" style="stroke: #000000; stroke-width: 0.8"/>
      </g>
     </g>
     <g id="text_3">
      <!-- 7500 -->
      <g transform="translate(265.756384 399.078438) scale(0.1 -0.1)">
       <defs>
        <path id="DejaVuSans-37" d="M 525 4666 
L 3525 4666 
L 3525 4397 
L 1831 0 
L 1172 0 
L 2766 4134 
L 525 4134 
L 525 4666 
z
" transform="scale(0.015625)"/>
       </defs>
       <use xlink:href="#DejaVuSans-37"/>
       <use xlink:href="#DejaVuSans-35" x="63.623047"/>
       <use xlink:href="#DejaVuSans-30" x="127.246094"/>
       <use xlink:href="#DejaVuSans-30" x="190.869141"/>
      </g>
     </g>
    </g>
    <g id="xtick_4">
     <g id="line2d_4">
      <g>
       <use xlink:href="#mab9c98aeac" x="352.651437" y="384.48" style="stroke: #000000; stroke-width: 0.8"/>
      </g>
     </g>
     <g id="text_4">
      <!-- 10000 -->
      <g transform="translate(336.745187 399.078438) scale(0.1 -0.1)">
       <defs>
        <path id="DejaVuSans-31" d="M 794 531 
L 1825 531 
L 1825 4091 
L 703 3866 
L 703 4441 
L 1819 4666 
L 2450 4666 
L 2450 531 
L 3481 531 
L 3481 0 
L 794 0 
L 794 531 
z
" transform="scale(0.015625)"/>
       </defs>
       <use xlink:href="#DejaVuSans-31"/>
       <use xlink:href="#DejaVuSans-30" x="63.623047"/>
       <use xlink:href="#DejaVuSans-30" x="127.246094"/>
       <use xlink:href="#DejaVuSans-30" x="190.869141"/>
       <use xlink:href="#DejaVuSans-30" x="254.492188"/>
      </g>
     </g>
    </g>
    <g id="xtick_5">
     <g id="line2d_5">
      <g>
       <use xlink:href="#mab9c98aeac" x="426.82149" y="384.48" style="stroke: #000000; stroke-width: 0.8"/>
      </g>
     </g>
     <g id="text_5">
      <!-- 12500 -->
      <g transform="translate(410.91524 399.078438) scale(0.1 -0.1)">
       <use xlink:href="#DejaVuSans-31"/>
       <use xlink:href="#DejaVuSans-32" x="63.623047"/>
       <use xlink:href="#DejaVuSans-35" x="127.246094"/>
       <use xlink:href="#DejaVuSans-30" x="190.869141"/>
       <use xlink:href="#DejaVuSans-30" x="254.492188"/>
      </g>
     </g>
    </g>
    <g id="xtick_6">
     <g id="line2d_6">
      <g>
       <use xlink:href="#mab9c98aeac" x="500.991543" y="384.48" style="stroke: #000000; stroke-width: 0.8"/>
      </g>
     </g>
     <g id="text_6">
      <!-- 15000 -->
      <g transform="translate(485.085293 399.078438) scale(0.1 -0.1)">
       <use xlink:href="#DejaVuSans-31"/>
       <use xlink:href="#DejaVuSans-35" x="63.623047"/>
       <use xlink:href="#DejaVuSans-30" x="127.246094"/>
       <use xlink:href="#DejaVuSans-30" x="190.869141"/>
       <use xlink:href="#DejaVuSans-30" x="254.492188"/>
      </g>
     </g>
    </g>
    <g id="xtick_7">
     <g id="line2d_7">
      <g>
       <use xlink:href="#mab9c98aeac" x="575.161596" y="384.48" style="stroke: #000000; stroke-width: 0.8"/>
      </g>
     </g>
     <g id="text_7">
      <!-- 17500 -->
      <g transform="translate(559.255346 399.078438) scale(0.1 -0.1)">
       <use xlink:href="#DejaVuSans-31"/>
       <use xlink:href="#DejaVuSans-37" x="63.623047"/>
       <use xlink:href="#DejaVuSans-35" x="127.246094"/>
       <use xlink:href="#DejaVuSans-30" x="190.869141"/>
       <use xlink:href="#DejaVuSans-30" x="254.492188"/>
      </g>
     </g>
    </g>
   </g>
   <g id="matplotlib.axis_2">
    <g id="ytick_1">
     <g id="line2d_8">
      <defs>
       <path id="macfa9a923f" d="M 0 0 
L -3.5 0 
" style="stroke: #000000; stroke-width: 0.8"/>
      </defs>
      <g>
       <use xlink:href="#macfa9a923f" x="90" y="384.48" style="stroke: #000000; stroke-width: 0.8"/>
      </g>
     </g>
     <g id="text_8">
      <!-- 0.0 -->
      <g transform="translate(67.096875 388.279219) scale(0.1 -0.1)">
       <defs>
        <path id="DejaVuSans-2e" d="M 684 794 
L 1344 794 
L 1344 0 
L 684 0 
L 684 794 
z
" transform="scale(0.015625)"/>
       </defs>
       <use xlink:href="#DejaVuSans-30"/>
       <use xlink:href="#DejaVuSans-2e" x="63.623047"/>
       <use xlink:href="#DejaVuSans-30" x="95.410156"/>
      </g>
     </g>
    </g>
    <g id="ytick_2">
     <g id="line2d_9">
      <g>
       <use xlink:href="#macfa9a923f" x="90" y="321.12" style="stroke: #000000; stroke-width: 0.8"/>
      </g>
     </g>
     <g id="text_9">
      <!-- 0.2 -->
      <g transform="translate(67.096875 324.919219) scale(0.1 -0.1)">
       <use xlink:href="#DejaVuSans-30"/>
       <use xlink:href="#DejaVuSans-2e" x="63.623047"/>
       <use xlink:href="#DejaVuSans-32" x="95.410156"/>
      </g>
     </g>
    </g>
    <g id="ytick_3">
     <g id="line2d_10">
      <g>
       <use xlink:href="#macfa9a923f" x="90" y="257.76" style="stroke: #000000; stroke-width: 0.8"/>
      </g>
     </g>
     <g id="text_10">
      <!-- 0.4 -->
      <g transform="translate(67.096875 261.559219) scale(0.1 -0.1)">
       <defs>
        <path id="DejaVuSans-34" d="M 2419 4116 
L 825 1625 
L 2419 1625 
L 2419 4116 
z
M 2253 4666 
L 3047 4666 
L 3047 1625 
L 3713 1625 
L 3713 1100 
L 3047 1100 
L 3047 0 
L 2419 0 
L 2419 1100 
L 313 1100 
L 313 1709 
L 2253 4666 
z
" transform="scale(0.015625)"/>
       </defs>
       <use xlink:href="#DejaVuSans-30"/>
       <use xlink:href="#DejaVuSans-2e" x="63.623047"/>
       <use xlink:href="#DejaVuSans-34" x="95.410156"/>
      </g>
     </g>
    </g>
    <g id="ytick_4">
     <g id="line2d_11">
      <g>
       <use xlink:href="#macfa9a923f" x="90" y="194.4" style="stroke: #000000; stroke-width: 0.8"/>
      </g>
     </g>
     <g id="text_11">
      <!-- 0.6 -->
      <g transform="translate(67.096875 198.199219) scale(0.1 -0.1)">
       <defs>
        <path id="DejaVuSans-36" d="M 2113 2584 
Q 1688 2584 1439 2293 
Q 1191 2003 1191 1497 
Q 1191 994 1439 701 
Q 1688 409 2113 409 
Q 2538 409 2786 701 
Q 3034 994 3034 1497 
Q 3034 2003 2786 2293 
Q 2538 2584 2113 2584 
z
M 3366 4563 
L 3366 3988 
Q 3128 4100 2886 4159 
Q 2644 4219 2406 4219 
Q 1781 4219 1451 3797 
Q 1122 3375 1075 2522 
Q 1259 2794 1537 2939 
Q 1816 3084 2150 3084 
Q 2853 3084 3261 2657 
Q 3669 2231 3669 1497 
Q 3669 778 3244 343 
Q 2819 -91 2113 -91 
Q 1303 -91 875 529 
Q 447 1150 447 2328 
Q 447 3434 972 4092 
Q 1497 4750 2381 4750 
Q 2619 4750 2861 4703 
Q 3103 4656 3366 4563 
z
" transform="scale(0.015625)"/>
       </defs>
       <use xlink:href="#DejaVuSans-30"/>
       <use xlink:href="#DejaVuSans-2e" x="63.623047"/>
       <use xlink:href="#DejaVuSans-36" x="95.410156"/>
      </g>
     </g>
    </g>
    <g id="ytick_5">
     <g id="line2d_12">
      <g>
       <use xlink:href="#macfa9a923f" x="90" y="131.04" style="stroke: #000000; stroke-width: 0.8"/>
      </g>
     </g>
     <g id="text_12">
      <!-- 0.8 -->
      <g transform="translate(67.096875 134.839219) scale(0.1 -0.1)">
       <defs>
        <path id="DejaVuSans-38" d="M 2034 2216 
Q 1584 2216 1326 1975 
Q 1069 1734 1069 1313 
Q 1069 891 1326 650 
Q 1584 409 2034 409 
Q 2484 409 2743 651 
Q 3003 894 3003 1313 
Q 3003 1734 2745 1975 
Q 2488 2216 2034 2216 
z
M 1403 2484 
Q 997 2584 770 2862 
Q 544 3141 544 3541 
Q 544 4100 942 4425 
Q 1341 4750 2034 4750 
Q 2731 4750 3128 4425 
Q 3525 4100 3525 3541 
Q 3525 3141 3298 2862 
Q 3072 2584 2669 2484 
Q 3125 2378 3379 2068 
Q 3634 1759 3634 1313 
Q 3634 634 3220 271 
Q 2806 -91 2034 -91 
Q 1263 -91 848 271 
Q 434 634 434 1313 
Q 434 1759 690 2068 
Q 947 2378 1403 2484 
z
M 1172 3481 
Q 1172 3119 1398 2916 
Q 1625 2713 2034 2713 
Q 2441 2713 2670 2916 
Q 2900 3119 2900 3481 
Q 2900 3844 2670 4047 
Q 2441 4250 2034 4250 
Q 1625 4250 1398 4047 
Q 1172 3844 1172 3481 
z
" transform="scale(0.015625)"/>
       </defs>
       <use xlink:href="#DejaVuSans-30"/>
       <use xlink:href="#DejaVuSans-2e" x="63.623047"/>
       <use xlink:href="#DejaVuSans-38" x="95.410156"/>
      </g>
     </g>
    </g>
    <g id="ytick_6">
     <g id="line2d_13">
      <g>
       <use xlink:href="#macfa9a923f" x="90" y="67.68" style="stroke: #000000; stroke-width: 0.8"/>
      </g>
     </g>
     <g id="text_13">
      <!-- 1.0 -->
      <g transform="translate(67.096875 71.479219) scale(0.1 -0.1)">
       <use xlink:href="#DejaVuSans-31"/>
       <use xlink:href="#DejaVuSans-2e" x="63.623047"/>
       <use xlink:href="#DejaVuSans-30" x="95.410156"/>
      </g>
     </g>
    </g>
   </g>
   <g id="patch_133">
    <path d="M 90 384.48 
L 90 51.84 
" style="fill: none; stroke: #000000; stroke-width: 0.8; stroke-linejoin: miter; stroke-linecap: square"/>
   </g>
   <g id="patch_134">
    <path d="M 648 384.48 
L 648 51.84 
" style="fill: none; stroke: #000000; stroke-width: 0.8; stroke-linejoin: miter; stroke-linecap: square"/>
   </g>
   <g id="patch_135">
    <path d="M 90 384.48 
L 648 384.48 
" style="fill: none; stroke: #000000; stroke-width: 0.8; stroke-linejoin: miter; stroke-linecap: square"/>
   </g>
   <g id="patch_136">
    <path d="M 90 51.84 
L 648 51.84 
" style="fill: none; stroke: #000000; stroke-width: 0.8; stroke-linejoin: miter; stroke-linecap: square"/>
   </g>
  </g>
 </g>
 <defs>
  <clipPath id="p1b3d8a8102">
   <rect x="90" y="51.84" width="558" height="332.64"/>
  </clipPath>
 </defs>
</svg>
