<?xml version="1.0" encoding="utf-8" standalone="no"?>
<!DOCTYPE svg PUBLIC "-//W3C//DTD SVG 1.1//EN"
  "http://www.w3.org/Graphics/SVG/1.1/DTD/svg11.dtd">
<svg xmlns:xlink="http://www.w3.org/1999/xlink" width="720pt" height="432pt" viewBox="0 0 720 432" xmlns="http://www.w3.org/2000/svg" version="1.1">
 <metadata>
  <rdf:RDF xmlns:dc="http://purl.org/dc/elements/1.1/" xmlns:cc="http://creativecommons.org/ns#" xmlns:rdf="http://www.w3.org/1999/02/22-rdf-syntax-ns#">
   <cc:Work>
    <dc:type rdf:resource="http://purl.org/dc/dcmitype/StillImage"/>
    <dc:date>2024-03-22T10:17:30.358656</dc:date>
    <dc:format>image/svg+xml</dc:format>
    <dc:creator>
     <cc:Agent>
      <dc:title>Matplotlib v3.7.2, https://matplotlib.org/</dc:title>
     </cc:Agent>
    </dc:creator>
   </cc:Work>
  </rdf:RDF>
 </metadata>
 <defs>
  <style type="text/css">*{stroke-linejoin: round; stroke-linecap: butt}</style>
 </defs>
 <g id="figure_1">
  <g id="patch_1">
   <path d="M 0 432 
L 720 432 
L 720 0 
L 0 0 
z
" style="fill: #ffffff"/>
  </g>
  <g id="axes_1">
   <g id="patch_2">
    <path d="M 90 384.48 
L 648 384.48 
L 648 51.84 
L 90 51.84 
z
" style="fill: #ffffff"/>
   </g>
   <g id="patch_3">
    <path d="M 115.363636 384.48 
L 115.439415 384.48 
L 115.439415 381.625946 
L 115.363636 381.625946 
z
" clip-path="url(#p0ffdb18536)"/>
   </g>
   <g id="patch_4">
    <path d="M 117.471989 384.48 
L 117.547768 384.48 
L 117.547768 381.625946 
L 117.471989 381.625946 
z
" clip-path="url(#p0ffdb18536)"/>
   </g>
   <g id="patch_5">
    <path d="M 117.515212 384.48 
L 117.590991 384.48 
L 117.590991 380.04036 
L 117.515212 380.04036 
z
" clip-path="url(#p0ffdb18536)"/>
   </g>
   <g id="patch_6">
    <path d="M 117.515867 384.48 
L 117.591646 384.48 
L 117.591646 381.625946 
L 117.515867 381.625946 
z
" clip-path="url(#p0ffdb18536)"/>
   </g>
   <g id="patch_7">
    <path d="M 117.702776 384.48 
L 117.778555 384.48 
L 117.778555 384.162883 
L 117.702776 384.162883 
z
" clip-path="url(#p0ffdb18536)"/>
   </g>
   <g id="patch_8">
    <path d="M 117.7051 384.48 
L 117.780879 384.48 
L 117.780879 383.845766 
L 117.7051 383.845766 
z
" clip-path="url(#p0ffdb18536)"/>
   </g>
   <g id="patch_9">
    <path d="M 117.707982 384.48 
L 117.783761 384.48 
L 117.783761 383.528649 
L 117.707982 383.528649 
z
" clip-path="url(#p0ffdb18536)"/>
   </g>
   <g id="patch_10">
    <path d="M 117.711617 384.48 
L 117.787396 384.48 
L 117.787396 383.211532 
L 117.711617 383.211532 
z
" clip-path="url(#p0ffdb18536)"/>
   </g>
   <g id="patch_11">
    <path d="M 117.716293 384.48 
L 117.792072 384.48 
L 117.792072 382.577297 
L 117.716293 382.577297 
z
" clip-path="url(#p0ffdb18536)"/>
   </g>
   <g id="patch_12">
    <path d="M 117.722449 384.48 
L 117.798229 384.48 
L 117.798229 381.625946 
L 117.722449 381.625946 
z
" clip-path="url(#p0ffdb18536)"/>
   </g>
   <g id="patch_13">
    <path d="M 117.730786 384.48 
L 117.806565 384.48 
L 117.806565 380.04036 
L 117.730786 380.04036 
z
" clip-path="url(#p0ffdb18536)"/>
   </g>
   <g id="patch_14">
    <path d="M 117.742472 384.48 
L 117.818251 384.48 
L 117.818251 378.454775 
L 117.742472 378.454775 
z
" clip-path="url(#p0ffdb18536)"/>
   </g>
   <g id="patch_15">
    <path d="M 117.759585 384.48 
L 117.835364 384.48 
L 117.835364 376.869189 
L 117.759585 376.869189 
z
" clip-path="url(#p0ffdb18536)"/>
   </g>
   <g id="patch_16">
    <path d="M 117.786111 384.48 
L 117.86189 384.48 
L 117.86189 373.698018 
L 117.786111 373.698018 
z
" clip-path="url(#p0ffdb18536)"/>
   </g>
   <g id="patch_17">
    <path d="M 117.830546 384.48 
L 117.906325 384.48 
L 117.906325 368.941261 
L 117.830546 368.941261 
z
" clip-path="url(#p0ffdb18536)"/>
   </g>
   <g id="patch_18">
    <path d="M 117.877405 384.48 
L 117.953184 384.48 
L 117.953184 381.625946 
L 117.877405 381.625946 
z
" clip-path="url(#p0ffdb18536)"/>
   </g>
   <g id="patch_19">
    <path d="M 117.913856 384.48 
L 117.989635 384.48 
L 117.989635 353.085405 
L 117.913856 353.085405 
z
" clip-path="url(#p0ffdb18536)"/>
   </g>
   <g id="patch_20">
    <path d="M 118.10099 384.48 
L 118.176769 384.48 
L 118.176769 257.95027 
L 118.10099 257.95027 
z
" clip-path="url(#p0ffdb18536)"/>
   </g>
   <g id="patch_21">
    <path d="M 118.175285 384.48 
L 118.251064 384.48 
L 118.251064 381.625946 
L 118.175285 381.625946 
z
" clip-path="url(#p0ffdb18536)"/>
   </g>
   <g id="patch_22">
    <path d="M 118.178959 384.48 
L 118.254738 384.48 
L 118.254738 362.598919 
L 118.178959 362.598919 
z
" clip-path="url(#p0ffdb18536)"/>
   </g>
   <g id="patch_23">
    <path d="M 118.232728 384.48 
L 118.308507 384.48 
L 118.308507 376.869189 
L 118.232728 376.869189 
z
" clip-path="url(#p0ffdb18536)"/>
   </g>
   <g id="patch_24">
    <path d="M 118.350898 384.48 
L 118.426677 384.48 
L 118.426677 376.869189 
L 118.350898 376.869189 
z
" clip-path="url(#p0ffdb18536)"/>
   </g>
   <g id="patch_25">
    <path d="M 118.559857 384.48 
L 118.635636 384.48 
L 118.635636 376.869189 
L 118.559857 376.869189 
z
" clip-path="url(#p0ffdb18536)"/>
   </g>
   <g id="patch_26">
    <path d="M 118.602477 384.48 
L 118.678256 384.48 
L 118.678256 381.625946 
L 118.602477 381.625946 
z
" clip-path="url(#p0ffdb18536)"/>
   </g>
   <g id="patch_27">
    <path d="M 118.647019 384.48 
L 118.722799 384.48 
L 118.722799 376.869189 
L 118.647019 376.869189 
z
" clip-path="url(#p0ffdb18536)"/>
   </g>
   <g id="patch_28">
    <path d="M 118.687105 384.48 
L 118.762884 384.48 
L 118.762884 381.625946 
L 118.687105 381.625946 
z
" clip-path="url(#p0ffdb18536)"/>
   </g>
   <g id="patch_29">
    <path d="M 118.698438 384.48 
L 118.774217 384.48 
L 118.774217 67.68 
L 118.698438 67.68 
z
" clip-path="url(#p0ffdb18536)"/>
   </g>
   <g id="patch_30">
    <path d="M 118.787828 384.48 
L 118.863607 384.48 
L 118.863607 368.941261 
L 118.787828 368.941261 
z
" clip-path="url(#p0ffdb18536)"/>
   </g>
   <g id="patch_31">
    <path d="M 118.867245 384.48 
L 118.943024 384.48 
L 118.943024 376.869189 
L 118.867245 376.869189 
z
" clip-path="url(#p0ffdb18536)"/>
   </g>
   <g id="patch_32">
    <path d="M 118.932393 384.48 
L 119.008172 384.48 
L 119.008172 381.625946 
L 118.932393 381.625946 
z
" clip-path="url(#p0ffdb18536)"/>
   </g>
   <g id="patch_33">
    <path d="M 119.052544 384.48 
L 119.128323 384.48 
L 119.128323 381.625946 
L 119.052544 381.625946 
z
" clip-path="url(#p0ffdb18536)"/>
   </g>
   <g id="patch_34">
    <path d="M 119.677688 384.48 
L 119.753467 384.48 
L 119.753467 337.22955 
L 119.677688 337.22955 
z
" clip-path="url(#p0ffdb18536)"/>
   </g>
   <g id="patch_35">
    <path d="M 119.711704 384.48 
L 119.787483 384.48 
L 119.787483 381.625946 
L 119.711704 381.625946 
z
" clip-path="url(#p0ffdb18536)"/>
   </g>
   <g id="patch_36">
    <path d="M 119.73 384.48 
L 119.805779 384.48 
L 119.805779 362.598919 
L 119.73 362.598919 
z
" clip-path="url(#p0ffdb18536)"/>
   </g>
   <g id="patch_37">
    <path d="M 119.792323 384.48 
L 119.868102 384.48 
L 119.868102 289.661982 
L 119.792323 289.661982 
z
" clip-path="url(#p0ffdb18536)"/>
   </g>
   <g id="patch_38">
    <path d="M 119.803763 384.48 
L 119.879542 384.48 
L 119.879542 67.68 
L 119.803763 67.68 
z
" clip-path="url(#p0ffdb18536)"/>
   </g>
   <g id="patch_39">
    <path d="M 119.859223 384.48 
L 119.935002 384.48 
L 119.935002 376.869189 
L 119.859223 376.869189 
z
" clip-path="url(#p0ffdb18536)"/>
   </g>
   <g id="patch_40">
    <path d="M 119.880811 384.48 
L 119.95659 384.48 
L 119.95659 381.625946 
L 119.880811 381.625946 
z
" clip-path="url(#p0ffdb18536)"/>
   </g>
   <g id="patch_41">
    <path d="M 119.896808 384.48 
L 119.972587 384.48 
L 119.972587 381.625946 
L 119.896808 381.625946 
z
" clip-path="url(#p0ffdb18536)"/>
   </g>
   <g id="patch_42">
    <path d="M 119.899109 384.48 
L 119.974888 384.48 
L 119.974888 362.598919 
L 119.899109 362.598919 
z
" clip-path="url(#p0ffdb18536)"/>
   </g>
   <g id="patch_43">
    <path d="M 120.387749 384.48 
L 120.463528 384.48 
L 120.463528 362.598919 
L 120.387749 362.598919 
z
" clip-path="url(#p0ffdb18536)"/>
   </g>
   <g id="patch_44">
    <path d="M 120.454317 384.48 
L 120.530096 384.48 
L 120.530096 67.68 
L 120.454317 67.68 
z
" clip-path="url(#p0ffdb18536)"/>
   </g>
   <g id="patch_45">
    <path d="M 120.48195 384.48 
L 120.557729 384.48 
L 120.557729 337.22955 
L 120.48195 337.22955 
z
" clip-path="url(#p0ffdb18536)"/>
   </g>
   <g id="patch_46">
    <path d="M 120.549914 384.48 
L 120.625693 384.48 
L 120.625693 376.869189 
L 120.549914 376.869189 
z
" clip-path="url(#p0ffdb18536)"/>
   </g>
   <g id="patch_47">
    <path d="M 120.66787 384.48 
L 120.743649 384.48 
L 120.743649 362.598919 
L 120.66787 362.598919 
z
" clip-path="url(#p0ffdb18536)"/>
   </g>
   <g id="patch_48">
    <path d="M 120.72667 384.48 
L 120.802449 384.48 
L 120.802449 362.598919 
L 120.72667 362.598919 
z
" clip-path="url(#p0ffdb18536)"/>
   </g>
   <g id="patch_49">
    <path d="M 120.73169 384.48 
L 120.807469 384.48 
L 120.807469 376.869189 
L 120.73169 376.869189 
z
" clip-path="url(#p0ffdb18536)"/>
   </g>
   <g id="patch_50">
    <path d="M 121.458369 384.48 
L 121.534148 384.48 
L 121.534148 378.454775 
L 121.458369 378.454775 
z
" clip-path="url(#p0ffdb18536)"/>
   </g>
   <g id="patch_51">
    <path d="M 121.503989 384.48 
L 121.579768 384.48 
L 121.579768 353.085405 
L 121.503989 353.085405 
z
" clip-path="url(#p0ffdb18536)"/>
   </g>
   <g id="patch_52">
    <path d="M 121.509014 384.48 
L 121.584793 384.48 
L 121.584793 365.77009 
L 121.509014 365.77009 
z
" clip-path="url(#p0ffdb18536)"/>
   </g>
   <g id="patch_53">
    <path d="M 121.513429 384.48 
L 121.589208 384.48 
L 121.589208 375.283604 
L 121.513429 375.283604 
z
" clip-path="url(#p0ffdb18536)"/>
   </g>
   <g id="patch_54">
    <path d="M 121.518916 384.48 
L 121.594695 384.48 
L 121.594695 372.112432 
L 121.518916 372.112432 
z
" clip-path="url(#p0ffdb18536)"/>
   </g>
   <g id="patch_55">
    <path d="M 121.547632 384.48 
L 121.623411 384.48 
L 121.623411 368.941261 
L 121.547632 368.941261 
z
" clip-path="url(#p0ffdb18536)"/>
   </g>
   <g id="patch_56">
    <path d="M 121.627268 384.48 
L 121.703047 384.48 
L 121.703047 346.743063 
L 121.627268 346.743063 
z
" clip-path="url(#p0ffdb18536)"/>
   </g>
   <g id="patch_57">
    <path d="M 121.630198 384.48 
L 121.705977 384.48 
L 121.705977 362.598919 
L 121.630198 362.598919 
z
" clip-path="url(#p0ffdb18536)"/>
   </g>
   <g id="patch_58">
    <path d="M 121.676418 384.48 
L 121.752197 384.48 
L 121.752197 359.427748 
L 121.676418 359.427748 
z
" clip-path="url(#p0ffdb18536)"/>
   </g>
   <g id="patch_59">
    <path d="M 121.742376 384.48 
L 121.818155 384.48 
L 121.818155 346.743063 
L 121.742376 346.743063 
z
" clip-path="url(#p0ffdb18536)"/>
   </g>
   <g id="patch_60">
    <path d="M 121.755245 384.48 
L 121.831024 384.48 
L 121.831024 346.743063 
L 121.755245 346.743063 
z
" clip-path="url(#p0ffdb18536)"/>
   </g>
   <g id="patch_61">
    <path d="M 121.856624 384.48 
L 121.932403 384.48 
L 121.932403 337.22955 
L 121.856624 337.22955 
z
" clip-path="url(#p0ffdb18536)"/>
   </g>
   <g id="patch_62">
    <path d="M 121.864332 384.48 
L 121.940111 384.48 
L 121.940111 353.085405 
L 121.864332 353.085405 
z
" clip-path="url(#p0ffdb18536)"/>
   </g>
   <g id="patch_63">
    <path d="M 121.962882 384.48 
L 122.038661 384.48 
L 122.038661 353.085405 
L 121.962882 353.085405 
z
" clip-path="url(#p0ffdb18536)"/>
   </g>
   <g id="patch_64">
    <path d="M 122.265934 384.48 
L 122.341713 384.48 
L 122.341713 327.716036 
L 122.265934 327.716036 
z
" clip-path="url(#p0ffdb18536)"/>
   </g>
   <g id="patch_65">
    <path d="M 122.303245 384.48 
L 122.379024 384.48 
L 122.379024 337.22955 
L 122.303245 337.22955 
z
" clip-path="url(#p0ffdb18536)"/>
   </g>
   <g id="patch_66">
    <path d="M 122.382858 384.48 
L 122.458637 384.48 
L 122.458637 327.716036 
L 122.382858 327.716036 
z
" clip-path="url(#p0ffdb18536)"/>
   </g>
   <g id="patch_67">
    <path d="M 122.431974 384.48 
L 122.507753 384.48 
L 122.507753 327.716036 
L 122.431974 327.716036 
z
" clip-path="url(#p0ffdb18536)"/>
   </g>
   <g id="patch_68">
    <path d="M 122.613383 384.48 
L 122.689162 384.48 
L 122.689162 337.22955 
L 122.613383 337.22955 
z
" clip-path="url(#p0ffdb18536)"/>
   </g>
   <g id="patch_69">
    <path d="M 122.935076 384.48 
L 123.010855 384.48 
L 123.010855 289.661982 
L 122.935076 289.661982 
z
" clip-path="url(#p0ffdb18536)"/>
   </g>
   <g id="patch_70">
    <path d="M 123.090079 384.48 
L 123.165858 384.48 
L 123.165858 289.661982 
L 123.090079 289.661982 
z
" clip-path="url(#p0ffdb18536)"/>
   </g>
   <g id="patch_71">
    <path d="M 124.557239 384.48 
L 124.633018 384.48 
L 124.633018 67.68 
L 124.557239 67.68 
z
" clip-path="url(#p0ffdb18536)"/>
   </g>
   <g id="patch_72">
    <path d="M 124.790133 384.48 
L 124.865912 384.48 
L 124.865912 226.238559 
L 124.790133 226.238559 
z
" clip-path="url(#p0ffdb18536)"/>
   </g>
   <g id="patch_73">
    <path d="M 141.888368 384.48 
L 141.964147 384.48 
L 141.964147 384.162883 
L 141.888368 384.162883 
z
" clip-path="url(#p0ffdb18536)"/>
   </g>
   <g id="patch_74">
    <path d="M 143.105039 384.48 
L 143.180818 384.48 
L 143.180818 383.845766 
L 143.105039 383.845766 
z
" clip-path="url(#p0ffdb18536)"/>
   </g>
   <g id="patch_75">
    <path d="M 143.331365 384.48 
L 143.407144 384.48 
L 143.407144 383.845766 
L 143.331365 383.845766 
z
" clip-path="url(#p0ffdb18536)"/>
   </g>
   <g id="patch_76">
    <path d="M 143.677145 384.48 
L 143.752924 384.48 
L 143.752924 383.211532 
L 143.677145 383.211532 
z
" clip-path="url(#p0ffdb18536)"/>
   </g>
   <g id="patch_77">
    <path d="M 145.711851 384.48 
L 145.78763 384.48 
L 145.78763 384.48 
L 145.711851 384.48 
z
" clip-path="url(#p0ffdb18536)"/>
   </g>
   <g id="patch_78">
    <path d="M 146.224749 384.48 
L 146.300528 384.48 
L 146.300528 384.162883 
L 146.224749 384.162883 
z
" clip-path="url(#p0ffdb18536)"/>
   </g>
   <g id="patch_79">
    <path d="M 146.911813 384.48 
L 146.987592 384.48 
L 146.987592 381.625946 
L 146.911813 381.625946 
z
" clip-path="url(#p0ffdb18536)"/>
   </g>
   <g id="patch_80">
    <path d="M 147.049225 384.48 
L 147.125004 384.48 
L 147.125004 383.528649 
L 147.049225 383.528649 
z
" clip-path="url(#p0ffdb18536)"/>
   </g>
   <g id="patch_81">
    <path d="M 147.838995 384.48 
L 147.914774 384.48 
L 147.914774 382.26018 
L 147.838995 382.26018 
z
" clip-path="url(#p0ffdb18536)"/>
   </g>
   <g id="patch_82">
    <path d="M 148.486666 384.48 
L 148.562445 384.48 
L 148.562445 362.598919 
L 148.486666 362.598919 
z
" clip-path="url(#p0ffdb18536)"/>
   </g>
   <g id="patch_83">
    <path d="M 148.514666 384.48 
L 148.590445 384.48 
L 148.590445 381.625946 
L 148.514666 381.625946 
z
" clip-path="url(#p0ffdb18536)"/>
   </g>
   <g id="patch_84">
    <path d="M 148.943323 384.48 
L 149.019102 384.48 
L 149.019102 375.283604 
L 148.943323 375.283604 
z
" clip-path="url(#p0ffdb18536)"/>
   </g>
   <g id="patch_85">
    <path d="M 149.380947 384.48 
L 149.456726 384.48 
L 149.456726 372.112432 
L 149.380947 372.112432 
z
" clip-path="url(#p0ffdb18536)"/>
   </g>
   <g id="patch_86">
    <path d="M 149.631119 384.48 
L 149.706898 384.48 
L 149.706898 380.04036 
L 149.631119 380.04036 
z
" clip-path="url(#p0ffdb18536)"/>
   </g>
   <g id="patch_87">
    <path d="M 150.387571 384.48 
L 150.46335 384.48 
L 150.46335 380.04036 
L 150.387571 380.04036 
z
" clip-path="url(#p0ffdb18536)"/>
   </g>
   <g id="patch_88">
    <path d="M 151.579045 384.48 
L 151.654824 384.48 
L 151.654824 378.454775 
L 151.579045 378.454775 
z
" clip-path="url(#p0ffdb18536)"/>
   </g>
   <g id="patch_89">
    <path d="M 152.285672 384.48 
L 152.361451 384.48 
L 152.361451 382.577297 
L 152.285672 382.577297 
z
" clip-path="url(#p0ffdb18536)"/>
   </g>
   <g id="patch_90">
    <path d="M 152.916546 384.48 
L 152.992325 384.48 
L 152.992325 382.26018 
L 152.916546 382.26018 
z
" clip-path="url(#p0ffdb18536)"/>
   </g>
   <g id="patch_91">
    <path d="M 153.08816 384.48 
L 153.163939 384.48 
L 153.163939 382.577297 
L 153.08816 382.577297 
z
" clip-path="url(#p0ffdb18536)"/>
   </g>
   <g id="patch_92">
    <path d="M 153.640034 384.48 
L 153.715813 384.48 
L 153.715813 382.26018 
L 153.640034 382.26018 
z
" clip-path="url(#p0ffdb18536)"/>
   </g>
   <g id="patch_93">
    <path d="M 153.685829 384.48 
L 153.761608 384.48 
L 153.761608 384.48 
L 153.685829 384.48 
z
" clip-path="url(#p0ffdb18536)"/>
   </g>
   <g id="patch_94">
    <path d="M 153.962246 384.48 
L 154.038025 384.48 
L 154.038025 382.26018 
L 153.962246 382.26018 
z
" clip-path="url(#p0ffdb18536)"/>
   </g>
   <g id="patch_95">
    <path d="M 154.115004 384.48 
L 154.190783 384.48 
L 154.190783 382.26018 
L 154.115004 382.26018 
z
" clip-path="url(#p0ffdb18536)"/>
   </g>
   <g id="patch_96">
    <path d="M 154.86091 384.48 
L 154.936689 384.48 
L 154.936689 384.162883 
L 154.86091 384.162883 
z
" clip-path="url(#p0ffdb18536)"/>
   </g>
   <g id="patch_97">
    <path d="M 155.229158 384.48 
L 155.304938 384.48 
L 155.304938 376.869189 
L 155.229158 376.869189 
z
" clip-path="url(#p0ffdb18536)"/>
   </g>
   <g id="patch_98">
    <path d="M 155.247914 384.48 
L 155.323693 384.48 
L 155.323693 382.577297 
L 155.247914 382.577297 
z
" clip-path="url(#p0ffdb18536)"/>
   </g>
   <g id="patch_99">
    <path d="M 155.412253 384.48 
L 155.488032 384.48 
L 155.488032 380.04036 
L 155.412253 380.04036 
z
" clip-path="url(#p0ffdb18536)"/>
   </g>
   <g id="patch_100">
    <path d="M 155.415941 384.48 
L 155.49172 384.48 
L 155.49172 375.283604 
L 155.415941 375.283604 
z
" clip-path="url(#p0ffdb18536)"/>
   </g>
   <g id="patch_101">
    <path d="M 155.646335 384.48 
L 155.722114 384.48 
L 155.722114 376.869189 
L 155.646335 376.869189 
z
" clip-path="url(#p0ffdb18536)"/>
   </g>
   <g id="patch_102">
    <path d="M 155.704558 384.48 
L 155.780338 384.48 
L 155.780338 376.869189 
L 155.704558 376.869189 
z
" clip-path="url(#p0ffdb18536)"/>
   </g>
   <g id="patch_103">
    <path d="M 156.098711 384.48 
L 156.17449 384.48 
L 156.17449 376.869189 
L 156.098711 376.869189 
z
" clip-path="url(#p0ffdb18536)"/>
   </g>
   <g id="patch_104">
    <path d="M 156.101855 384.48 
L 156.177635 384.48 
L 156.177635 376.869189 
L 156.101855 376.869189 
z
" clip-path="url(#p0ffdb18536)"/>
   </g>
   <g id="patch_105">
    <path d="M 156.274417 384.48 
L 156.350196 384.48 
L 156.350196 375.283604 
L 156.274417 375.283604 
z
" clip-path="url(#p0ffdb18536)"/>
   </g>
   <g id="patch_106">
    <path d="M 156.29364 384.48 
L 156.369419 384.48 
L 156.369419 375.283604 
L 156.29364 375.283604 
z
" clip-path="url(#p0ffdb18536)"/>
   </g>
   <g id="patch_107">
    <path d="M 156.490488 384.48 
L 156.566267 384.48 
L 156.566267 376.869189 
L 156.490488 376.869189 
z
" clip-path="url(#p0ffdb18536)"/>
   </g>
   <g id="patch_108">
    <path d="M 156.553537 384.48 
L 156.629316 384.48 
L 156.629316 382.26018 
L 156.553537 382.26018 
z
" clip-path="url(#p0ffdb18536)"/>
   </g>
   <g id="patch_109">
    <path d="M 156.562971 384.48 
L 156.63875 384.48 
L 156.63875 380.04036 
L 156.562971 380.04036 
z
" clip-path="url(#p0ffdb18536)"/>
   </g>
   <g id="patch_110">
    <path d="M 156.625047 384.48 
L 156.700826 384.48 
L 156.700826 384.48 
L 156.625047 384.48 
z
" clip-path="url(#p0ffdb18536)"/>
   </g>
   <g id="patch_111">
    <path d="M 156.639836 384.48 
L 156.715615 384.48 
L 156.715615 376.869189 
L 156.639836 376.869189 
z
" clip-path="url(#p0ffdb18536)"/>
   </g>
   <g id="patch_112">
    <path d="M 156.958096 384.48 
L 157.033875 384.48 
L 157.033875 383.845766 
L 156.958096 383.845766 
z
" clip-path="url(#p0ffdb18536)"/>
   </g>
   <g id="patch_113">
    <path d="M 157.065424 384.48 
L 157.141203 384.48 
L 157.141203 382.26018 
L 157.065424 382.26018 
z
" clip-path="url(#p0ffdb18536)"/>
   </g>
   <g id="patch_114">
    <path d="M 157.218144 384.48 
L 157.293923 384.48 
L 157.293923 384.162883 
L 157.218144 384.162883 
z
" clip-path="url(#p0ffdb18536)"/>
   </g>
   <g id="patch_115">
    <path d="M 157.288909 384.48 
L 157.364688 384.48 
L 157.364688 382.577297 
L 157.288909 382.577297 
z
" clip-path="url(#p0ffdb18536)"/>
   </g>
   <g id="patch_116">
    <path d="M 158.111958 384.48 
L 158.187737 384.48 
L 158.187737 383.845766 
L 158.111958 383.845766 
z
" clip-path="url(#p0ffdb18536)"/>
   </g>
   <g id="patch_117">
    <path d="M 158.278748 384.48 
L 158.354527 384.48 
L 158.354527 380.991712 
L 158.278748 380.991712 
z
" clip-path="url(#p0ffdb18536)"/>
   </g>
   <g id="patch_118">
    <path d="M 158.418977 384.48 
L 158.494756 384.48 
L 158.494756 376.869189 
L 158.418977 376.869189 
z
" clip-path="url(#p0ffdb18536)"/>
   </g>
   <g id="patch_119">
    <path d="M 158.463826 384.48 
L 158.539605 384.48 
L 158.539605 384.48 
L 158.463826 384.48 
z
" clip-path="url(#p0ffdb18536)"/>
   </g>
   <g id="patch_120">
    <path d="M 158.527341 384.48 
L 158.60312 384.48 
L 158.60312 380.04036 
L 158.527341 380.04036 
z
" clip-path="url(#p0ffdb18536)"/>
   </g>
   <g id="patch_121">
    <path d="M 158.873159 384.48 
L 158.948938 384.48 
L 158.948938 368.941261 
L 158.873159 368.941261 
z
" clip-path="url(#p0ffdb18536)"/>
   </g>
   <g id="patch_122">
    <path d="M 158.883882 384.48 
L 158.959661 384.48 
L 158.959661 380.04036 
L 158.883882 380.04036 
z
" clip-path="url(#p0ffdb18536)"/>
   </g>
   <g id="patch_123">
    <path d="M 158.937559 384.48 
L 159.013338 384.48 
L 159.013338 384.48 
L 158.937559 384.48 
z
" clip-path="url(#p0ffdb18536)"/>
   </g>
   <g id="patch_124">
    <path d="M 158.939466 384.48 
L 159.015245 384.48 
L 159.015245 382.577297 
L 158.939466 382.577297 
z
" clip-path="url(#p0ffdb18536)"/>
   </g>
   <g id="patch_125">
    <path d="M 159.069806 384.48 
L 159.145585 384.48 
L 159.145585 382.26018 
L 159.069806 382.26018 
z
" clip-path="url(#p0ffdb18536)"/>
   </g>
   <g id="patch_126">
    <path d="M 159.351855 384.48 
L 159.427634 384.48 
L 159.427634 382.26018 
L 159.351855 382.26018 
z
" clip-path="url(#p0ffdb18536)"/>
   </g>
   <g id="patch_127">
    <path d="M 159.431221 384.48 
L 159.507 384.48 
L 159.507 380.04036 
L 159.431221 380.04036 
z
" clip-path="url(#p0ffdb18536)"/>
   </g>
   <g id="patch_128">
    <path d="M 159.559427 384.48 
L 159.635206 384.48 
L 159.635206 381.625946 
L 159.559427 381.625946 
z
" clip-path="url(#p0ffdb18536)"/>
   </g>
   <g id="patch_129">
    <path d="M 159.561359 384.48 
L 159.637138 384.48 
L 159.637138 384.48 
L 159.561359 384.48 
z
" clip-path="url(#p0ffdb18536)"/>
   </g>
   <g id="patch_130">
    <path d="M 159.950624 384.48 
L 160.026403 384.48 
L 160.026403 376.869189 
L 159.950624 376.869189 
z
" clip-path="url(#p0ffdb18536)"/>
   </g>
   <g id="patch_131">
    <path d="M 160.177291 384.48 
L 160.253071 384.48 
L 160.253071 380.991712 
L 160.177291 380.991712 
z
" clip-path="url(#p0ffdb18536)"/>
   </g>
   <g id="patch_132">
    <path d="M 160.430856 384.48 
L 160.506635 384.48 
L 160.506635 365.77009 
L 160.430856 365.77009 
z
" clip-path="url(#p0ffdb18536)"/>
   </g>
   <g id="patch_133">
    <path d="M 160.431374 384.48 
L 160.507153 384.48 
L 160.507153 321.373694 
L 160.431374 321.373694 
z
" clip-path="url(#p0ffdb18536)"/>
   </g>
   <g id="patch_134">
    <path d="M 160.431415 384.48 
L 160.507194 384.48 
L 160.507194 289.661982 
L 160.431415 289.661982 
z
" clip-path="url(#p0ffdb18536)"/>
   </g>
   <g id="patch_135">
    <path d="M 160.899605 384.48 
L 160.975384 384.48 
L 160.975384 380.991712 
L 160.899605 380.991712 
z
" clip-path="url(#p0ffdb18536)"/>
   </g>
   <g id="patch_136">
    <path d="M 160.936282 384.48 
L 161.012061 384.48 
L 161.012061 380.04036 
L 160.936282 380.04036 
z
" clip-path="url(#p0ffdb18536)"/>
   </g>
   <g id="patch_137">
    <path d="M 160.985841 384.48 
L 161.061621 384.48 
L 161.061621 382.26018 
L 160.985841 382.26018 
z
" clip-path="url(#p0ffdb18536)"/>
   </g>
   <g id="patch_138">
    <path d="M 161.156976 384.48 
L 161.232755 384.48 
L 161.232755 376.869189 
L 161.156976 376.869189 
z
" clip-path="url(#p0ffdb18536)"/>
   </g>
   <g id="patch_139">
    <path d="M 161.193375 384.48 
L 161.269154 384.48 
L 161.269154 384.48 
L 161.193375 384.48 
z
" clip-path="url(#p0ffdb18536)"/>
   </g>
   <g id="patch_140">
    <path d="M 161.392295 384.48 
L 161.468074 384.48 
L 161.468074 378.454775 
L 161.392295 378.454775 
z
" clip-path="url(#p0ffdb18536)"/>
   </g>
   <g id="patch_141">
    <path d="M 161.577032 384.48 
L 161.652811 384.48 
L 161.652811 382.577297 
L 161.577032 382.577297 
z
" clip-path="url(#p0ffdb18536)"/>
   </g>
   <g id="patch_142">
    <path d="M 161.771986 384.48 
L 161.847765 384.48 
L 161.847765 380.991712 
L 161.771986 380.991712 
z
" clip-path="url(#p0ffdb18536)"/>
   </g>
   <g id="patch_143">
    <path d="M 161.954841 384.48 
L 162.03062 384.48 
L 162.03062 384.48 
L 161.954841 384.48 
z
" clip-path="url(#p0ffdb18536)"/>
   </g>
   <g id="patch_144">
    <path d="M 162.012774 384.48 
L 162.088553 384.48 
L 162.088553 380.04036 
L 162.012774 380.04036 
z
" clip-path="url(#p0ffdb18536)"/>
   </g>
   <g id="patch_145">
    <path d="M 162.168551 384.48 
L 162.24433 384.48 
L 162.24433 368.941261 
L 162.168551 368.941261 
z
" clip-path="url(#p0ffdb18536)"/>
   </g>
   <g id="patch_146">
    <path d="M 162.170685 384.48 
L 162.246464 384.48 
L 162.246464 383.211532 
L 162.170685 383.211532 
z
" clip-path="url(#p0ffdb18536)"/>
   </g>
   <g id="patch_147">
    <path d="M 162.264765 384.48 
L 162.340544 384.48 
L 162.340544 380.04036 
L 162.264765 380.04036 
z
" clip-path="url(#p0ffdb18536)"/>
   </g>
   <g id="patch_148">
    <path d="M 162.285617 384.48 
L 162.361396 384.48 
L 162.361396 382.577297 
L 162.285617 382.577297 
z
" clip-path="url(#p0ffdb18536)"/>
   </g>
   <g id="patch_149">
    <path d="M 162.379507 384.48 
L 162.455286 384.48 
L 162.455286 368.941261 
L 162.379507 368.941261 
z
" clip-path="url(#p0ffdb18536)"/>
   </g>
   <g id="patch_150">
    <path d="M 162.398755 384.48 
L 162.474534 384.48 
L 162.474534 384.48 
L 162.398755 384.48 
z
" clip-path="url(#p0ffdb18536)"/>
   </g>
   <g id="patch_151">
    <path d="M 162.506146 384.48 
L 162.581925 384.48 
L 162.581925 375.283604 
L 162.506146 375.283604 
z
" clip-path="url(#p0ffdb18536)"/>
   </g>
   <g id="patch_152">
    <path d="M 162.747174 384.48 
L 162.822953 384.48 
L 162.822953 362.598919 
L 162.747174 362.598919 
z
" clip-path="url(#p0ffdb18536)"/>
   </g>
   <g id="patch_153">
    <path d="M 162.751974 384.48 
L 162.827753 384.48 
L 162.827753 376.869189 
L 162.751974 376.869189 
z
" clip-path="url(#p0ffdb18536)"/>
   </g>
   <g id="patch_154">
    <path d="M 162.805562 384.48 
L 162.881341 384.48 
L 162.881341 382.26018 
L 162.805562 382.26018 
z
" clip-path="url(#p0ffdb18536)"/>
   </g>
   <g id="patch_155">
    <path d="M 162.84277 384.48 
L 162.918549 384.48 
L 162.918549 380.991712 
L 162.84277 380.991712 
z
" clip-path="url(#p0ffdb18536)"/>
   </g>
   <g id="patch_156">
    <path d="M 162.878297 384.48 
L 162.954076 384.48 
L 162.954076 382.26018 
L 162.878297 382.26018 
z
" clip-path="url(#p0ffdb18536)"/>
   </g>
   <g id="patch_157">
    <path d="M 163.150155 384.48 
L 163.225934 384.48 
L 163.225934 368.941261 
L 163.150155 368.941261 
z
" clip-path="url(#p0ffdb18536)"/>
   </g>
   <g id="patch_158">
    <path d="M 163.3637 384.48 
L 163.439479 384.48 
L 163.439479 380.991712 
L 163.3637 380.991712 
z
" clip-path="url(#p0ffdb18536)"/>
   </g>
   <g id="patch_159">
    <path d="M 163.365847 384.48 
L 163.441626 384.48 
L 163.441626 384.162883 
L 163.365847 384.162883 
z
" clip-path="url(#p0ffdb18536)"/>
   </g>
   <g id="patch_160">
    <path d="M 163.501416 384.48 
L 163.577195 384.48 
L 163.577195 353.085405 
L 163.501416 353.085405 
z
" clip-path="url(#p0ffdb18536)"/>
   </g>
   <g id="patch_161">
    <path d="M 163.653429 384.48 
L 163.729208 384.48 
L 163.729208 383.845766 
L 163.653429 383.845766 
z
" clip-path="url(#p0ffdb18536)"/>
   </g>
   <g id="patch_162">
    <path d="M 163.809104 384.48 
L 163.884883 384.48 
L 163.884883 380.991712 
L 163.809104 380.991712 
z
" clip-path="url(#p0ffdb18536)"/>
   </g>
   <g id="patch_163">
    <path d="M 163.840729 384.48 
L 163.916508 384.48 
L 163.916508 381.308829 
L 163.840729 381.308829 
z
" clip-path="url(#p0ffdb18536)"/>
   </g>
   <g id="patch_164">
    <path d="M 163.91133 384.48 
L 163.987109 384.48 
L 163.987109 384.48 
L 163.91133 384.48 
z
" clip-path="url(#p0ffdb18536)"/>
   </g>
   <g id="patch_165">
    <path d="M 164.102256 384.48 
L 164.178035 384.48 
L 164.178035 380.991712 
L 164.102256 380.991712 
z
" clip-path="url(#p0ffdb18536)"/>
   </g>
   <g id="patch_166">
    <path d="M 164.134929 384.48 
L 164.210708 384.48 
L 164.210708 384.48 
L 164.134929 384.48 
z
" clip-path="url(#p0ffdb18536)"/>
   </g>
   <g id="patch_167">
    <path d="M 164.246438 384.48 
L 164.322217 384.48 
L 164.322217 383.845766 
L 164.246438 383.845766 
z
" clip-path="url(#p0ffdb18536)"/>
   </g>
   <g id="patch_168">
    <path d="M 164.250429 384.48 
L 164.326208 384.48 
L 164.326208 384.48 
L 164.250429 384.48 
z
" clip-path="url(#p0ffdb18536)"/>
   </g>
   <g id="patch_169">
    <path d="M 164.342475 384.48 
L 164.418254 384.48 
L 164.418254 382.894414 
L 164.342475 382.894414 
z
" clip-path="url(#p0ffdb18536)"/>
   </g>
   <g id="patch_170">
    <path d="M 164.372244 384.48 
L 164.448023 384.48 
L 164.448023 381.308829 
L 164.372244 381.308829 
z
" clip-path="url(#p0ffdb18536)"/>
   </g>
   <g id="patch_171">
    <path d="M 164.599467 384.48 
L 164.675246 384.48 
L 164.675246 382.26018 
L 164.599467 382.26018 
z
" clip-path="url(#p0ffdb18536)"/>
   </g>
   <g id="patch_172">
    <path d="M 164.649633 384.48 
L 164.725412 384.48 
L 164.725412 382.26018 
L 164.649633 382.26018 
z
" clip-path="url(#p0ffdb18536)"/>
   </g>
   <g id="patch_173">
    <path d="M 164.704585 384.48 
L 164.780364 384.48 
L 164.780364 382.26018 
L 164.704585 382.26018 
z
" clip-path="url(#p0ffdb18536)"/>
   </g>
   <g id="patch_174">
    <path d="M 164.719362 384.48 
L 164.795141 384.48 
L 164.795141 375.283604 
L 164.719362 375.283604 
z
" clip-path="url(#p0ffdb18536)"/>
   </g>
   <g id="patch_175">
    <path d="M 164.833814 384.48 
L 164.909593 384.48 
L 164.909593 375.283604 
L 164.833814 375.283604 
z
" clip-path="url(#p0ffdb18536)"/>
   </g>
   <g id="patch_176">
    <path d="M 165.01019 384.48 
L 165.085969 384.48 
L 165.085969 384.48 
L 165.01019 384.48 
z
" clip-path="url(#p0ffdb18536)"/>
   </g>
   <g id="patch_177">
    <path d="M 165.113464 384.48 
L 165.189243 384.48 
L 165.189243 382.894414 
L 165.113464 382.894414 
z
" clip-path="url(#p0ffdb18536)"/>
   </g>
   <g id="patch_178">
    <path d="M 165.200913 384.48 
L 165.276692 384.48 
L 165.276692 383.845766 
L 165.200913 383.845766 
z
" clip-path="url(#p0ffdb18536)"/>
   </g>
   <g id="patch_179">
    <path d="M 165.203957 384.48 
L 165.279736 384.48 
L 165.279736 376.869189 
L 165.203957 376.869189 
z
" clip-path="url(#p0ffdb18536)"/>
   </g>
   <g id="patch_180">
    <path d="M 165.275214 384.48 
L 165.350993 384.48 
L 165.350993 383.528649 
L 165.275214 383.528649 
z
" clip-path="url(#p0ffdb18536)"/>
   </g>
   <g id="patch_181">
    <path d="M 165.342898 384.48 
L 165.418677 384.48 
L 165.418677 321.373694 
L 165.342898 321.373694 
z
" clip-path="url(#p0ffdb18536)"/>
   </g>
   <g id="patch_182">
    <path d="M 165.41072 384.48 
L 165.486499 384.48 
L 165.486499 382.577297 
L 165.41072 382.577297 
z
" clip-path="url(#p0ffdb18536)"/>
   </g>
   <g id="patch_183">
    <path d="M 165.627991 384.48 
L 165.70377 384.48 
L 165.70377 383.845766 
L 165.627991 383.845766 
z
" clip-path="url(#p0ffdb18536)"/>
   </g>
   <g id="patch_184">
    <path d="M 165.634925 384.48 
L 165.710704 384.48 
L 165.710704 382.26018 
L 165.634925 382.26018 
z
" clip-path="url(#p0ffdb18536)"/>
   </g>
   <g id="patch_185">
    <path d="M 165.743403 384.48 
L 165.819182 384.48 
L 165.819182 376.869189 
L 165.743403 376.869189 
z
" clip-path="url(#p0ffdb18536)"/>
   </g>
   <g id="patch_186">
    <path d="M 166.020767 384.48 
L 166.096546 384.48 
L 166.096546 362.598919 
L 166.020767 362.598919 
z
" clip-path="url(#p0ffdb18536)"/>
   </g>
   <g id="patch_187">
    <path d="M 166.031249 384.48 
L 166.107029 384.48 
L 166.107029 380.04036 
L 166.031249 380.04036 
z
" clip-path="url(#p0ffdb18536)"/>
   </g>
   <g id="patch_188">
    <path d="M 166.050586 384.48 
L 166.126365 384.48 
L 166.126365 383.845766 
L 166.050586 383.845766 
z
" clip-path="url(#p0ffdb18536)"/>
   </g>
   <g id="patch_189">
    <path d="M 166.073029 384.48 
L 166.148808 384.48 
L 166.148808 384.48 
L 166.073029 384.48 
z
" clip-path="url(#p0ffdb18536)"/>
   </g>
   <g id="patch_190">
    <path d="M 166.19718 384.48 
L 166.272959 384.48 
L 166.272959 384.48 
L 166.19718 384.48 
z
" clip-path="url(#p0ffdb18536)"/>
   </g>
   <g id="patch_191">
    <path d="M 166.233756 384.48 
L 166.309535 384.48 
L 166.309535 305.517838 
L 166.233756 305.517838 
z
" clip-path="url(#p0ffdb18536)"/>
   </g>
   <g id="patch_192">
    <path d="M 166.286057 384.48 
L 166.361836 384.48 
L 166.361836 380.04036 
L 166.286057 380.04036 
z
" clip-path="url(#p0ffdb18536)"/>
   </g>
   <g id="patch_193">
    <path d="M 166.410599 384.48 
L 166.486379 384.48 
L 166.486379 382.26018 
L 166.410599 382.26018 
z
" clip-path="url(#p0ffdb18536)"/>
   </g>
   <g id="patch_194">
    <path d="M 166.483423 384.48 
L 166.559202 384.48 
L 166.559202 380.04036 
L 166.483423 380.04036 
z
" clip-path="url(#p0ffdb18536)"/>
   </g>
   <g id="patch_195">
    <path d="M 166.520315 384.48 
L 166.596094 384.48 
L 166.596094 362.598919 
L 166.520315 362.598919 
z
" clip-path="url(#p0ffdb18536)"/>
   </g>
   <g id="patch_196">
    <path d="M 166.52759 384.48 
L 166.603369 384.48 
L 166.603369 376.869189 
L 166.52759 376.869189 
z
" clip-path="url(#p0ffdb18536)"/>
   </g>
   <g id="patch_197">
    <path d="M 166.586003 384.48 
L 166.661782 384.48 
L 166.661782 380.04036 
L 166.586003 380.04036 
z
" clip-path="url(#p0ffdb18536)"/>
   </g>
   <g id="patch_198">
    <path d="M 166.632897 384.48 
L 166.708676 384.48 
L 166.708676 368.941261 
L 166.632897 368.941261 
z
" clip-path="url(#p0ffdb18536)"/>
   </g>
   <g id="patch_199">
    <path d="M 166.700972 384.48 
L 166.776751 384.48 
L 166.776751 380.04036 
L 166.700972 380.04036 
z
" clip-path="url(#p0ffdb18536)"/>
   </g>
   <g id="patch_200">
    <path d="M 166.737245 384.48 
L 166.813024 384.48 
L 166.813024 381.625946 
L 166.737245 381.625946 
z
" clip-path="url(#p0ffdb18536)"/>
   </g>
   <g id="patch_201">
    <path d="M 166.890925 384.48 
L 166.966704 384.48 
L 166.966704 376.869189 
L 166.890925 376.869189 
z
" clip-path="url(#p0ffdb18536)"/>
   </g>
   <g id="patch_202">
    <path d="M 166.902153 384.48 
L 166.977932 384.48 
L 166.977932 362.598919 
L 166.902153 362.598919 
z
" clip-path="url(#p0ffdb18536)"/>
   </g>
   <g id="patch_203">
    <path d="M 167.218089 384.48 
L 167.293868 384.48 
L 167.293868 343.571892 
L 167.218089 343.571892 
z
" clip-path="url(#p0ffdb18536)"/>
   </g>
   <g id="patch_204">
    <path d="M 167.270982 384.48 
L 167.346761 384.48 
L 167.346761 368.941261 
L 167.270982 368.941261 
z
" clip-path="url(#p0ffdb18536)"/>
   </g>
   <g id="patch_205">
    <path d="M 167.281175 384.48 
L 167.356954 384.48 
L 167.356954 380.04036 
L 167.281175 380.04036 
z
" clip-path="url(#p0ffdb18536)"/>
   </g>
   <g id="patch_206">
    <path d="M 167.317069 384.48 
L 167.392848 384.48 
L 167.392848 380.04036 
L 167.317069 380.04036 
z
" clip-path="url(#p0ffdb18536)"/>
   </g>
   <g id="patch_207">
    <path d="M 167.363951 384.48 
L 167.43973 384.48 
L 167.43973 383.845766 
L 167.363951 383.845766 
z
" clip-path="url(#p0ffdb18536)"/>
   </g>
   <g id="patch_208">
    <path d="M 167.388086 384.48 
L 167.463865 384.48 
L 167.463865 382.577297 
L 167.388086 382.577297 
z
" clip-path="url(#p0ffdb18536)"/>
   </g>
   <g id="patch_209">
    <path d="M 167.507034 384.48 
L 167.582813 384.48 
L 167.582813 380.991712 
L 167.507034 380.991712 
z
" clip-path="url(#p0ffdb18536)"/>
   </g>
   <g id="patch_210">
    <path d="M 167.792469 384.48 
L 167.868248 384.48 
L 167.868248 321.373694 
L 167.792469 321.373694 
z
" clip-path="url(#p0ffdb18536)"/>
   </g>
   <g id="patch_211">
    <path d="M 167.795007 384.48 
L 167.870786 384.48 
L 167.870786 376.869189 
L 167.795007 376.869189 
z
" clip-path="url(#p0ffdb18536)"/>
   </g>
   <g id="patch_212">
    <path d="M 167.833895 384.48 
L 167.909674 384.48 
L 167.909674 375.283604 
L 167.833895 375.283604 
z
" clip-path="url(#p0ffdb18536)"/>
   </g>
   <g id="patch_213">
    <path d="M 167.92296 384.48 
L 167.998739 384.48 
L 167.998739 362.598919 
L 167.92296 362.598919 
z
" clip-path="url(#p0ffdb18536)"/>
   </g>
   <g id="patch_214">
    <path d="M 168.288241 384.48 
L 168.36402 384.48 
L 168.36402 383.845766 
L 168.288241 383.845766 
z
" clip-path="url(#p0ffdb18536)"/>
   </g>
   <g id="patch_215">
    <path d="M 168.43462 384.48 
L 168.510399 384.48 
L 168.510399 384.48 
L 168.43462 384.48 
z
" clip-path="url(#p0ffdb18536)"/>
   </g>
   <g id="patch_216">
    <path d="M 168.538551 384.48 
L 168.61433 384.48 
L 168.61433 382.577297 
L 168.538551 382.577297 
z
" clip-path="url(#p0ffdb18536)"/>
   </g>
   <g id="patch_217">
    <path d="M 168.721684 384.48 
L 168.797463 384.48 
L 168.797463 343.571892 
L 168.721684 343.571892 
z
" clip-path="url(#p0ffdb18536)"/>
   </g>
   <g id="patch_218">
    <path d="M 168.96611 384.48 
L 169.041889 384.48 
L 169.041889 382.577297 
L 168.96611 382.577297 
z
" clip-path="url(#p0ffdb18536)"/>
   </g>
   <g id="patch_219">
    <path d="M 169.154863 384.48 
L 169.230642 384.48 
L 169.230642 343.571892 
L 169.154863 343.571892 
z
" clip-path="url(#p0ffdb18536)"/>
   </g>
   <g id="patch_220">
    <path d="M 169.288082 384.48 
L 169.363861 384.48 
L 169.363861 343.571892 
L 169.288082 343.571892 
z
" clip-path="url(#p0ffdb18536)"/>
   </g>
   <g id="patch_221">
    <path d="M 169.536499 384.48 
L 169.612278 384.48 
L 169.612278 321.373694 
L 169.536499 321.373694 
z
" clip-path="url(#p0ffdb18536)"/>
   </g>
   <g id="patch_222">
    <path d="M 169.885916 384.48 
L 169.961695 384.48 
L 169.961695 380.991712 
L 169.885916 380.991712 
z
" clip-path="url(#p0ffdb18536)"/>
   </g>
   <g id="patch_223">
    <path d="M 170.146949 384.48 
L 170.222729 384.48 
L 170.222729 343.571892 
L 170.146949 343.571892 
z
" clip-path="url(#p0ffdb18536)"/>
   </g>
   <g id="patch_224">
    <path d="M 170.844685 384.48 
L 170.920464 384.48 
L 170.920464 375.283604 
L 170.844685 375.283604 
z
" clip-path="url(#p0ffdb18536)"/>
   </g>
   <g id="patch_225">
    <path d="M 170.847641 384.48 
L 170.92342 384.48 
L 170.92342 383.528649 
L 170.847641 383.528649 
z
" clip-path="url(#p0ffdb18536)"/>
   </g>
   <g id="patch_226">
    <path d="M 170.951344 384.48 
L 171.027123 384.48 
L 171.027123 382.577297 
L 170.951344 382.577297 
z
" clip-path="url(#p0ffdb18536)"/>
   </g>
   <g id="patch_227">
    <path d="M 171.017992 384.48 
L 171.093771 384.48 
L 171.093771 321.373694 
L 171.017992 321.373694 
z
" clip-path="url(#p0ffdb18536)"/>
   </g>
   <g id="patch_228">
    <path d="M 171.083478 384.48 
L 171.159257 384.48 
L 171.159257 380.04036 
L 171.083478 380.04036 
z
" clip-path="url(#p0ffdb18536)"/>
   </g>
   <g id="patch_229">
    <path d="M 171.13214 384.48 
L 171.20792 384.48 
L 171.20792 353.085405 
L 171.13214 353.085405 
z
" clip-path="url(#p0ffdb18536)"/>
   </g>
   <g id="patch_230">
    <path d="M 171.497888 384.48 
L 171.573667 384.48 
L 171.573667 305.517838 
L 171.497888 305.517838 
z
" clip-path="url(#p0ffdb18536)"/>
   </g>
   <g id="patch_231">
    <path d="M 172.017669 384.48 
L 172.093448 384.48 
L 172.093448 321.373694 
L 172.017669 321.373694 
z
" clip-path="url(#p0ffdb18536)"/>
   </g>
   <g id="patch_232">
    <path d="M 172.545471 384.48 
L 172.62125 384.48 
L 172.62125 368.941261 
L 172.545471 368.941261 
z
" clip-path="url(#p0ffdb18536)"/>
   </g>
   <g id="patch_233">
    <path d="M 172.774071 384.48 
L 172.84985 384.48 
L 172.84985 380.04036 
L 172.774071 380.04036 
z
" clip-path="url(#p0ffdb18536)"/>
   </g>
   <g id="patch_234">
    <path d="M 172.950308 384.48 
L 173.026087 384.48 
L 173.026087 305.517838 
L 172.950308 305.517838 
z
" clip-path="url(#p0ffdb18536)"/>
   </g>
   <g id="patch_235">
    <path d="M 173.066224 384.48 
L 173.142003 384.48 
L 173.142003 376.869189 
L 173.066224 376.869189 
z
" clip-path="url(#p0ffdb18536)"/>
   </g>
   <g id="patch_236">
    <path d="M 173.264639 384.48 
L 173.340418 384.48 
L 173.340418 382.577297 
L 173.264639 382.577297 
z
" clip-path="url(#p0ffdb18536)"/>
   </g>
   <g id="patch_237">
    <path d="M 173.481607 384.48 
L 173.557386 384.48 
L 173.557386 378.454775 
L 173.481607 378.454775 
z
" clip-path="url(#p0ffdb18536)"/>
   </g>
   <g id="patch_238">
    <path d="M 173.624047 384.48 
L 173.699826 384.48 
L 173.699826 380.991712 
L 173.624047 380.991712 
z
" clip-path="url(#p0ffdb18536)"/>
   </g>
   <g id="patch_239">
    <path d="M 174.026572 384.48 
L 174.102351 384.48 
L 174.102351 362.598919 
L 174.026572 362.598919 
z
" clip-path="url(#p0ffdb18536)"/>
   </g>
   <g id="patch_240">
    <path d="M 174.585493 384.48 
L 174.661273 384.48 
L 174.661273 380.04036 
L 174.585493 380.04036 
z
" clip-path="url(#p0ffdb18536)"/>
   </g>
   <g id="patch_241">
    <path d="M 174.665617 384.48 
L 174.741396 384.48 
L 174.741396 353.085405 
L 174.665617 353.085405 
z
" clip-path="url(#p0ffdb18536)"/>
   </g>
   <g id="patch_242">
    <path d="M 174.684373 384.48 
L 174.760152 384.48 
L 174.760152 376.869189 
L 174.684373 376.869189 
z
" clip-path="url(#p0ffdb18536)"/>
   </g>
   <g id="patch_243">
    <path d="M 175.070555 384.48 
L 175.146334 384.48 
L 175.146334 381.625946 
L 175.070555 381.625946 
z
" clip-path="url(#p0ffdb18536)"/>
   </g>
   <g id="patch_244">
    <path d="M 175.251124 384.48 
L 175.326903 384.48 
L 175.326903 376.869189 
L 175.251124 376.869189 
z
" clip-path="url(#p0ffdb18536)"/>
   </g>
   <g id="patch_245">
    <path d="M 175.610544 384.48 
L 175.686323 384.48 
L 175.686323 382.577297 
L 175.610544 382.577297 
z
" clip-path="url(#p0ffdb18536)"/>
   </g>
   <g id="patch_246">
    <path d="M 176.258304 384.48 
L 176.334083 384.48 
L 176.334083 375.283604 
L 176.258304 375.283604 
z
" clip-path="url(#p0ffdb18536)"/>
   </g>
   <g id="patch_247">
    <path d="M 176.302824 384.48 
L 176.378603 384.48 
L 176.378603 376.869189 
L 176.302824 376.869189 
z
" clip-path="url(#p0ffdb18536)"/>
   </g>
   <g id="patch_248">
    <path d="M 176.561294 384.48 
L 176.637073 384.48 
L 176.637073 382.26018 
L 176.561294 382.26018 
z
" clip-path="url(#p0ffdb18536)"/>
   </g>
   <g id="patch_249">
    <path d="M 176.838809 384.48 
L 176.914588 384.48 
L 176.914588 384.48 
L 176.838809 384.48 
z
" clip-path="url(#p0ffdb18536)"/>
   </g>
   <g id="patch_250">
    <path d="M 177.205934 384.48 
L 177.281713 384.48 
L 177.281713 382.577297 
L 177.205934 382.577297 
z
" clip-path="url(#p0ffdb18536)"/>
   </g>
   <g id="patch_251">
    <path d="M 180.730418 384.48 
L 180.806197 384.48 
L 180.806197 384.48 
L 180.730418 384.48 
z
" clip-path="url(#p0ffdb18536)"/>
   </g>
   <g id="patch_252">
    <path d="M 181.523926 384.48 
L 181.599705 384.48 
L 181.599705 384.48 
L 181.523926 384.48 
z
" clip-path="url(#p0ffdb18536)"/>
   </g>
   <g id="patch_253">
    <path d="M 182.13055 384.48 
L 182.206329 384.48 
L 182.206329 384.48 
L 182.13055 384.48 
z
" clip-path="url(#p0ffdb18536)"/>
   </g>
   <g id="patch_254">
    <path d="M 182.685897 384.48 
L 182.761676 384.48 
L 182.761676 384.48 
L 182.685897 384.48 
z
" clip-path="url(#p0ffdb18536)"/>
   </g>
   <g id="patch_255">
    <path d="M 185.526485 384.48 
L 185.602264 384.48 
L 185.602264 226.238559 
L 185.526485 226.238559 
z
" clip-path="url(#p0ffdb18536)"/>
   </g>
   <g id="patch_256">
    <path d="M 185.526808 384.48 
L 185.602587 384.48 
L 185.602587 305.517838 
L 185.526808 305.517838 
z
" clip-path="url(#p0ffdb18536)"/>
   </g>
   <g id="patch_257">
    <path d="M 185.530924 384.48 
L 185.606703 384.48 
L 185.606703 346.743063 
L 185.530924 346.743063 
z
" clip-path="url(#p0ffdb18536)"/>
   </g>
   <g id="patch_258">
    <path d="M 185.690284 384.48 
L 185.766063 384.48 
L 185.766063 384.48 
L 185.690284 384.48 
z
" clip-path="url(#p0ffdb18536)"/>
   </g>
   <g id="patch_259">
    <path d="M 185.987098 384.48 
L 186.062877 384.48 
L 186.062877 384.48 
L 185.987098 384.48 
z
" clip-path="url(#p0ffdb18536)"/>
   </g>
   <g id="patch_260">
    <path d="M 187.50321 384.48 
L 187.578989 384.48 
L 187.578989 384.162883 
L 187.50321 384.162883 
z
" clip-path="url(#p0ffdb18536)"/>
   </g>
   <g id="patch_261">
    <path d="M 187.64335 384.48 
L 187.719129 384.48 
L 187.719129 384.48 
L 187.64335 384.48 
z
" clip-path="url(#p0ffdb18536)"/>
   </g>
   <g id="patch_262">
    <path d="M 187.84731 384.48 
L 187.923089 384.48 
L 187.923089 384.48 
L 187.84731 384.48 
z
" clip-path="url(#p0ffdb18536)"/>
   </g>
   <g id="patch_263">
    <path d="M 188.54891 384.48 
L 188.624689 384.48 
L 188.624689 375.283604 
L 188.54891 375.283604 
z
" clip-path="url(#p0ffdb18536)"/>
   </g>
   <g id="patch_264">
    <path d="M 189.273295 384.48 
L 189.349074 384.48 
L 189.349074 368.941261 
L 189.273295 368.941261 
z
" clip-path="url(#p0ffdb18536)"/>
   </g>
   <g id="patch_265">
    <path d="M 190.168018 384.48 
L 190.243797 384.48 
L 190.243797 382.26018 
L 190.168018 382.26018 
z
" clip-path="url(#p0ffdb18536)"/>
   </g>
   <g id="patch_266">
    <path d="M 191.956366 384.48 
L 192.032145 384.48 
L 192.032145 384.48 
L 191.956366 384.48 
z
" clip-path="url(#p0ffdb18536)"/>
   </g>
   <g id="patch_267">
    <path d="M 192.355343 384.48 
L 192.431122 384.48 
L 192.431122 384.162883 
L 192.355343 384.162883 
z
" clip-path="url(#p0ffdb18536)"/>
   </g>
   <g id="patch_268">
    <path d="M 193.198701 384.48 
L 193.27448 384.48 
L 193.27448 382.26018 
L 193.198701 382.26018 
z
" clip-path="url(#p0ffdb18536)"/>
   </g>
   <g id="patch_269">
    <path d="M 195.158082 384.48 
L 195.233862 384.48 
L 195.233862 382.26018 
L 195.158082 382.26018 
z
" clip-path="url(#p0ffdb18536)"/>
   </g>
   <g id="patch_270">
    <path d="M 195.177267 384.48 
L 195.253046 384.48 
L 195.253046 382.577297 
L 195.177267 382.577297 
z
" clip-path="url(#p0ffdb18536)"/>
   </g>
   <g id="patch_271">
    <path d="M 195.227256 384.48 
L 195.303035 384.48 
L 195.303035 380.04036 
L 195.227256 380.04036 
z
" clip-path="url(#p0ffdb18536)"/>
   </g>
   <g id="patch_272">
    <path d="M 195.513461 384.48 
L 195.58924 384.48 
L 195.58924 382.26018 
L 195.513461 382.26018 
z
" clip-path="url(#p0ffdb18536)"/>
   </g>
   <g id="patch_273">
    <path d="M 195.651417 384.48 
L 195.727196 384.48 
L 195.727196 383.845766 
L 195.651417 383.845766 
z
" clip-path="url(#p0ffdb18536)"/>
   </g>
   <g id="patch_274">
    <path d="M 195.662401 384.48 
L 195.73818 384.48 
L 195.73818 321.373694 
L 195.662401 321.373694 
z
" clip-path="url(#p0ffdb18536)"/>
   </g>
   <g id="patch_275">
    <path d="M 195.739965 384.48 
L 195.815744 384.48 
L 195.815744 380.991712 
L 195.739965 380.991712 
z
" clip-path="url(#p0ffdb18536)"/>
   </g>
   <g id="patch_276">
    <path d="M 196.605627 384.48 
L 196.681406 384.48 
L 196.681406 383.528649 
L 196.605627 383.528649 
z
" clip-path="url(#p0ffdb18536)"/>
   </g>
   <g id="patch_277">
    <path d="M 197.975144 384.48 
L 198.050923 384.48 
L 198.050923 382.577297 
L 197.975144 382.577297 
z
" clip-path="url(#p0ffdb18536)"/>
   </g>
   <g id="patch_278">
    <path d="M 198.053588 384.48 
L 198.129367 384.48 
L 198.129367 383.845766 
L 198.053588 383.845766 
z
" clip-path="url(#p0ffdb18536)"/>
   </g>
   <g id="patch_279">
    <path d="M 198.101695 384.48 
L 198.177474 384.48 
L 198.177474 383.528649 
L 198.101695 383.528649 
z
" clip-path="url(#p0ffdb18536)"/>
   </g>
   <g id="patch_280">
    <path d="M 198.940001 384.48 
L 199.01578 384.48 
L 199.01578 384.48 
L 198.940001 384.48 
z
" clip-path="url(#p0ffdb18536)"/>
   </g>
   <g id="patch_281">
    <path d="M 199.290694 384.48 
L 199.366473 384.48 
L 199.366473 289.661982 
L 199.290694 289.661982 
z
" clip-path="url(#p0ffdb18536)"/>
   </g>
   <g id="patch_282">
    <path d="M 200.10936 384.48 
L 200.185139 384.48 
L 200.185139 383.528649 
L 200.10936 383.528649 
z
" clip-path="url(#p0ffdb18536)"/>
   </g>
   <g id="patch_283">
    <path d="M 200.550471 384.48 
L 200.626251 384.48 
L 200.626251 353.085405 
L 200.550471 353.085405 
z
" clip-path="url(#p0ffdb18536)"/>
   </g>
   <g id="patch_284">
    <path d="M 200.550954 384.48 
L 200.626733 384.48 
L 200.626733 365.77009 
L 200.550954 365.77009 
z
" clip-path="url(#p0ffdb18536)"/>
   </g>
   <g id="patch_285">
    <path d="M 200.557184 384.48 
L 200.632963 384.48 
L 200.632963 378.454775 
L 200.557184 378.454775 
z
" clip-path="url(#p0ffdb18536)"/>
   </g>
   <g id="patch_286">
    <path d="M 200.576248 384.48 
L 200.652027 384.48 
L 200.652027 289.661982 
L 200.576248 289.661982 
z
" clip-path="url(#p0ffdb18536)"/>
   </g>
   <g id="patch_287">
    <path d="M 200.59542 384.48 
L 200.671199 384.48 
L 200.671199 383.845766 
L 200.59542 383.845766 
z
" clip-path="url(#p0ffdb18536)"/>
   </g>
   <g id="patch_288">
    <path d="M 201.084725 384.48 
L 201.160504 384.48 
L 201.160504 384.48 
L 201.084725 384.48 
z
" clip-path="url(#p0ffdb18536)"/>
   </g>
   <g id="patch_289">
    <path d="M 201.316382 384.48 
L 201.392161 384.48 
L 201.392161 384.48 
L 201.316382 384.48 
z
" clip-path="url(#p0ffdb18536)"/>
   </g>
   <g id="patch_290">
    <path d="M 201.584412 384.48 
L 201.660191 384.48 
L 201.660191 375.283604 
L 201.584412 375.283604 
z
" clip-path="url(#p0ffdb18536)"/>
   </g>
   <g id="patch_291">
    <path d="M 202.34142 384.48 
L 202.417199 384.48 
L 202.417199 384.162883 
L 202.34142 384.162883 
z
" clip-path="url(#p0ffdb18536)"/>
   </g>
   <g id="patch_292">
    <path d="M 203.174434 384.48 
L 203.250213 384.48 
L 203.250213 365.77009 
L 203.174434 365.77009 
z
" clip-path="url(#p0ffdb18536)"/>
   </g>
   <g id="patch_293">
    <path d="M 203.280701 384.48 
L 203.356481 384.48 
L 203.356481 368.941261 
L 203.280701 368.941261 
z
" clip-path="url(#p0ffdb18536)"/>
   </g>
   <g id="patch_294">
    <path d="M 203.664219 384.48 
L 203.739998 384.48 
L 203.739998 384.48 
L 203.664219 384.48 
z
" clip-path="url(#p0ffdb18536)"/>
   </g>
   <g id="patch_295">
    <path d="M 203.718389 384.48 
L 203.794168 384.48 
L 203.794168 384.48 
L 203.718389 384.48 
z
" clip-path="url(#p0ffdb18536)"/>
   </g>
   <g id="patch_296">
    <path d="M 204.18933 384.48 
L 204.265109 384.48 
L 204.265109 384.162883 
L 204.18933 384.162883 
z
" clip-path="url(#p0ffdb18536)"/>
   </g>
   <g id="patch_297">
    <path d="M 204.427087 384.48 
L 204.502866 384.48 
L 204.502866 382.894414 
L 204.427087 382.894414 
z
" clip-path="url(#p0ffdb18536)"/>
   </g>
   <g id="patch_298">
    <path d="M 204.532016 384.48 
L 204.607795 384.48 
L 204.607795 382.577297 
L 204.532016 382.577297 
z
" clip-path="url(#p0ffdb18536)"/>
   </g>
   <g id="patch_299">
    <path d="M 204.576902 384.48 
L 204.652681 384.48 
L 204.652681 289.661982 
L 204.576902 289.661982 
z
" clip-path="url(#p0ffdb18536)"/>
   </g>
   <g id="patch_300">
    <path d="M 204.690571 384.48 
L 204.76635 384.48 
L 204.76635 384.48 
L 204.690571 384.48 
z
" clip-path="url(#p0ffdb18536)"/>
   </g>
   <g id="patch_301">
    <path d="M 205.225925 384.48 
L 205.301704 384.48 
L 205.301704 384.48 
L 205.225925 384.48 
z
" clip-path="url(#p0ffdb18536)"/>
   </g>
   <g id="patch_302">
    <path d="M 206.091082 384.48 
L 206.166861 384.48 
L 206.166861 194.526847 
L 206.091082 194.526847 
z
" clip-path="url(#p0ffdb18536)"/>
   </g>
   <g id="patch_303">
    <path d="M 206.227269 384.48 
L 206.303048 384.48 
L 206.303048 257.95027 
L 206.227269 257.95027 
z
" clip-path="url(#p0ffdb18536)"/>
   </g>
   <g id="patch_304">
    <path d="M 207.748585 384.48 
L 207.824364 384.48 
L 207.824364 162.815135 
L 207.748585 162.815135 
z
" clip-path="url(#p0ffdb18536)"/>
   </g>
   <g id="patch_305">
    <path d="M 208.868283 384.48 
L 208.944063 384.48 
L 208.944063 257.95027 
L 208.868283 257.95027 
z
" clip-path="url(#p0ffdb18536)"/>
   </g>
   <g id="patch_306">
    <path d="M 208.873916 384.48 
L 208.949695 384.48 
L 208.949695 289.661982 
L 208.873916 289.661982 
z
" clip-path="url(#p0ffdb18536)"/>
   </g>
   <g id="patch_307">
    <path d="M 210.035142 384.48 
L 210.110921 384.48 
L 210.110921 384.48 
L 210.035142 384.48 
z
" clip-path="url(#p0ffdb18536)"/>
   </g>
   <g id="patch_308">
    <path d="M 211.70261 384.48 
L 211.778389 384.48 
L 211.778389 194.526847 
L 211.70261 194.526847 
z
" clip-path="url(#p0ffdb18536)"/>
   </g>
   <g id="patch_309">
    <path d="M 212.434901 384.48 
L 212.51068 384.48 
L 212.51068 194.526847 
L 212.434901 194.526847 
z
" clip-path="url(#p0ffdb18536)"/>
   </g>
   <g id="patch_310">
    <path d="M 212.543884 384.48 
L 212.619663 384.48 
L 212.619663 162.815135 
L 212.543884 162.815135 
z
" clip-path="url(#p0ffdb18536)"/>
   </g>
   <g id="patch_311">
    <path d="M 213.666765 384.48 
L 213.742544 384.48 
L 213.742544 194.526847 
L 213.666765 194.526847 
z
" clip-path="url(#p0ffdb18536)"/>
   </g>
   <g id="patch_312">
    <path d="M 213.813499 384.48 
L 213.889278 384.48 
L 213.889278 67.68 
L 213.813499 67.68 
z
" clip-path="url(#p0ffdb18536)"/>
   </g>
   <g id="patch_313">
    <path d="M 215.698011 384.48 
L 215.77379 384.48 
L 215.77379 289.661982 
L 215.698011 289.661982 
z
" clip-path="url(#p0ffdb18536)"/>
   </g>
   <g id="patch_314">
    <path d="M 216.925227 384.48 
L 217.001006 384.48 
L 217.001006 384.162883 
L 216.925227 384.162883 
z
" clip-path="url(#p0ffdb18536)"/>
   </g>
   <g id="patch_315">
    <path d="M 217.311448 384.48 
L 217.387227 384.48 
L 217.387227 384.48 
L 217.311448 384.48 
z
" clip-path="url(#p0ffdb18536)"/>
   </g>
   <g id="patch_316">
    <path d="M 217.512768 384.48 
L 217.588547 384.48 
L 217.588547 257.95027 
L 217.512768 257.95027 
z
" clip-path="url(#p0ffdb18536)"/>
   </g>
   <g id="patch_317">
    <path d="M 217.720377 384.48 
L 217.796156 384.48 
L 217.796156 194.526847 
L 217.720377 194.526847 
z
" clip-path="url(#p0ffdb18536)"/>
   </g>
   <g id="patch_318">
    <path d="M 218.94287 384.48 
L 219.018649 384.48 
L 219.018649 257.95027 
L 218.94287 257.95027 
z
" clip-path="url(#p0ffdb18536)"/>
   </g>
   <g id="patch_319">
    <path d="M 220.793168 384.48 
L 220.868947 384.48 
L 220.868947 343.571892 
L 220.793168 343.571892 
z
" clip-path="url(#p0ffdb18536)"/>
   </g>
   <g id="patch_320">
    <path d="M 222.105611 384.48 
L 222.18139 384.48 
L 222.18139 382.577297 
L 222.105611 382.577297 
z
" clip-path="url(#p0ffdb18536)"/>
   </g>
   <g id="patch_321">
    <path d="M 223.09137 384.48 
L 223.167149 384.48 
L 223.167149 383.211532 
L 223.09137 383.211532 
z
" clip-path="url(#p0ffdb18536)"/>
   </g>
   <g id="patch_322">
    <path d="M 225.786073 384.48 
L 225.861852 384.48 
L 225.861852 384.162883 
L 225.786073 384.162883 
z
" clip-path="url(#p0ffdb18536)"/>
   </g>
   <g id="patch_323">
    <path d="M 225.939198 384.48 
L 226.014977 384.48 
L 226.014977 384.48 
L 225.939198 384.48 
z
" clip-path="url(#p0ffdb18536)"/>
   </g>
   <g id="patch_324">
    <path d="M 226.540037 384.48 
L 226.615816 384.48 
L 226.615816 67.68 
L 226.540037 67.68 
z
" clip-path="url(#p0ffdb18536)"/>
   </g>
   <g id="patch_325">
    <path d="M 227.445231 384.48 
L 227.52101 384.48 
L 227.52101 380.04036 
L 227.445231 380.04036 
z
" clip-path="url(#p0ffdb18536)"/>
   </g>
   <g id="patch_326">
    <path d="M 227.643545 384.48 
L 227.719324 384.48 
L 227.719324 384.162883 
L 227.643545 384.162883 
z
" clip-path="url(#p0ffdb18536)"/>
   </g>
   <g id="patch_327">
    <path d="M 227.822371 384.48 
L 227.89815 384.48 
L 227.89815 257.95027 
L 227.822371 257.95027 
z
" clip-path="url(#p0ffdb18536)"/>
   </g>
   <g id="patch_328">
    <path d="M 228.668974 384.48 
L 228.744753 384.48 
L 228.744753 381.308829 
L 228.668974 381.308829 
z
" clip-path="url(#p0ffdb18536)"/>
   </g>
   <g id="patch_329">
    <path d="M 229.460727 384.48 
L 229.536506 384.48 
L 229.536506 368.941261 
L 229.460727 368.941261 
z
" clip-path="url(#p0ffdb18536)"/>
   </g>
   <g id="patch_330">
    <path d="M 230.842305 384.48 
L 230.918084 384.48 
L 230.918084 381.625946 
L 230.842305 381.625946 
z
" clip-path="url(#p0ffdb18536)"/>
   </g>
   <g id="patch_331">
    <path d="M 231.511561 384.48 
L 231.58734 384.48 
L 231.58734 383.528649 
L 231.511561 383.528649 
z
" clip-path="url(#p0ffdb18536)"/>
   </g>
   <g id="patch_332">
    <path d="M 231.632428 384.48 
L 231.708207 384.48 
L 231.708207 383.845766 
L 231.632428 383.845766 
z
" clip-path="url(#p0ffdb18536)"/>
   </g>
   <g id="patch_333">
    <path d="M 231.671581 384.48 
L 231.74736 384.48 
L 231.74736 384.48 
L 231.671581 384.48 
z
" clip-path="url(#p0ffdb18536)"/>
   </g>
   <g id="patch_334">
    <path d="M 232.608084 384.48 
L 232.683863 384.48 
L 232.683863 384.48 
L 232.608084 384.48 
z
" clip-path="url(#p0ffdb18536)"/>
   </g>
   <g id="patch_335">
    <path d="M 233.294718 384.48 
L 233.370497 384.48 
L 233.370497 162.815135 
L 233.294718 162.815135 
z
" clip-path="url(#p0ffdb18536)"/>
   </g>
   <g id="patch_336">
    <path d="M 233.860712 384.48 
L 233.936491 384.48 
L 233.936491 383.845766 
L 233.860712 383.845766 
z
" clip-path="url(#p0ffdb18536)"/>
   </g>
   <g id="patch_337">
    <path d="M 234.895134 384.48 
L 234.970913 384.48 
L 234.970913 343.571892 
L 234.895134 343.571892 
z
" clip-path="url(#p0ffdb18536)"/>
   </g>
   <g id="patch_338">
    <path d="M 237.967053 384.48 
L 238.042832 384.48 
L 238.042832 382.894414 
L 237.967053 382.894414 
z
" clip-path="url(#p0ffdb18536)"/>
   </g>
   <g id="patch_339">
    <path d="M 238.010373 384.48 
L 238.086152 384.48 
L 238.086152 384.162883 
L 238.010373 384.162883 
z
" clip-path="url(#p0ffdb18536)"/>
   </g>
   <g id="patch_340">
    <path d="M 238.274337 384.48 
L 238.350116 384.48 
L 238.350116 383.211532 
L 238.274337 383.211532 
z
" clip-path="url(#p0ffdb18536)"/>
   </g>
   <g id="patch_341">
    <path d="M 239.366061 384.48 
L 239.44184 384.48 
L 239.44184 384.48 
L 239.366061 384.48 
z
" clip-path="url(#p0ffdb18536)"/>
   </g>
   <g id="patch_342">
    <path d="M 241.547614 384.48 
L 241.623393 384.48 
L 241.623393 381.625946 
L 241.547614 381.625946 
z
" clip-path="url(#p0ffdb18536)"/>
   </g>
   <g id="patch_343">
    <path d="M 241.551529 384.48 
L 241.627308 384.48 
L 241.627308 384.162883 
L 241.551529 384.162883 
z
" clip-path="url(#p0ffdb18536)"/>
   </g>
   <g id="patch_344">
    <path d="M 241.819029 384.48 
L 241.894808 384.48 
L 241.894808 384.48 
L 241.819029 384.48 
z
" clip-path="url(#p0ffdb18536)"/>
   </g>
   <g id="patch_345">
    <path d="M 243.5172 384.48 
L 243.592979 384.48 
L 243.592979 375.283604 
L 243.5172 375.283604 
z
" clip-path="url(#p0ffdb18536)"/>
   </g>
   <g id="patch_346">
    <path d="M 243.553536 384.48 
L 243.629315 384.48 
L 243.629315 368.941261 
L 243.553536 368.941261 
z
" clip-path="url(#p0ffdb18536)"/>
   </g>
   <g id="patch_347">
    <path d="M 244.013843 384.48 
L 244.089622 384.48 
L 244.089622 383.211532 
L 244.013843 383.211532 
z
" clip-path="url(#p0ffdb18536)"/>
   </g>
   <g id="patch_348">
    <path d="M 246.049143 384.48 
L 246.124922 384.48 
L 246.124922 383.845766 
L 246.049143 383.845766 
z
" clip-path="url(#p0ffdb18536)"/>
   </g>
   <g id="patch_349">
    <path d="M 246.123848 384.48 
L 246.199627 384.48 
L 246.199627 382.894414 
L 246.123848 382.894414 
z
" clip-path="url(#p0ffdb18536)"/>
   </g>
   <g id="patch_350">
    <path d="M 246.24344 384.48 
L 246.319219 384.48 
L 246.319219 384.162883 
L 246.24344 384.162883 
z
" clip-path="url(#p0ffdb18536)"/>
   </g>
   <g id="patch_351">
    <path d="M 246.885491 384.48 
L 246.96127 384.48 
L 246.96127 384.48 
L 246.885491 384.48 
z
" clip-path="url(#p0ffdb18536)"/>
   </g>
   <g id="patch_352">
    <path d="M 247.2049 384.48 
L 247.280679 384.48 
L 247.280679 384.48 
L 247.2049 384.48 
z
" clip-path="url(#p0ffdb18536)"/>
   </g>
   <g id="patch_353">
    <path d="M 247.883577 384.48 
L 247.959356 384.48 
L 247.959356 384.162883 
L 247.883577 384.162883 
z
" clip-path="url(#p0ffdb18536)"/>
   </g>
   <g id="patch_354">
    <path d="M 248.088119 384.48 
L 248.163898 384.48 
L 248.163898 337.22955 
L 248.088119 337.22955 
z
" clip-path="url(#p0ffdb18536)"/>
   </g>
   <g id="patch_355">
    <path d="M 248.102757 384.48 
L 248.178536 384.48 
L 248.178536 226.238559 
L 248.102757 226.238559 
z
" clip-path="url(#p0ffdb18536)"/>
   </g>
   <g id="patch_356">
    <path d="M 248.10389 384.48 
L 248.179669 384.48 
L 248.179669 67.68 
L 248.10389 67.68 
z
" clip-path="url(#p0ffdb18536)"/>
   </g>
   <g id="patch_357">
    <path d="M 249.148507 384.48 
L 249.224286 384.48 
L 249.224286 381.943063 
L 249.148507 381.943063 
z
" clip-path="url(#p0ffdb18536)"/>
   </g>
   <g id="patch_358">
    <path d="M 249.199657 384.48 
L 249.275436 384.48 
L 249.275436 383.845766 
L 249.199657 383.845766 
z
" clip-path="url(#p0ffdb18536)"/>
   </g>
   <g id="patch_359">
    <path d="M 251.591245 384.48 
L 251.667024 384.48 
L 251.667024 384.48 
L 251.591245 384.48 
z
" clip-path="url(#p0ffdb18536)"/>
   </g>
   <g id="patch_360">
    <path d="M 256.411412 384.48 
L 256.487191 384.48 
L 256.487191 381.308829 
L 256.411412 381.308829 
z
" clip-path="url(#p0ffdb18536)"/>
   </g>
   <g id="patch_361">
    <path d="M 258.692375 384.48 
L 258.768154 384.48 
L 258.768154 382.894414 
L 258.692375 382.894414 
z
" clip-path="url(#p0ffdb18536)"/>
   </g>
   <g id="patch_362">
    <path d="M 262.486506 384.48 
L 262.562285 384.48 
L 262.562285 375.283604 
L 262.486506 375.283604 
z
" clip-path="url(#p0ffdb18536)"/>
   </g>
   <g id="patch_363">
    <path d="M 264.295176 384.48 
L 264.370955 384.48 
L 264.370955 382.894414 
L 264.295176 382.894414 
z
" clip-path="url(#p0ffdb18536)"/>
   </g>
   <g id="patch_364">
    <path d="M 264.641385 384.48 
L 264.717164 384.48 
L 264.717164 384.48 
L 264.641385 384.48 
z
" clip-path="url(#p0ffdb18536)"/>
   </g>
   <g id="patch_365">
    <path d="M 267.213516 384.48 
L 267.289295 384.48 
L 267.289295 384.48 
L 267.213516 384.48 
z
" clip-path="url(#p0ffdb18536)"/>
   </g>
   <g id="patch_366">
    <path d="M 267.964158 384.48 
L 268.039937 384.48 
L 268.039937 382.894414 
L 267.964158 382.894414 
z
" clip-path="url(#p0ffdb18536)"/>
   </g>
   <g id="patch_367">
    <path d="M 268.425071 384.48 
L 268.50085 384.48 
L 268.50085 382.894414 
L 268.425071 382.894414 
z
" clip-path="url(#p0ffdb18536)"/>
   </g>
   <g id="patch_368">
    <path d="M 268.63724 384.48 
L 268.713019 384.48 
L 268.713019 383.845766 
L 268.63724 383.845766 
z
" clip-path="url(#p0ffdb18536)"/>
   </g>
   <g id="patch_369">
    <path d="M 269.035623 384.48 
L 269.111402 384.48 
L 269.111402 382.894414 
L 269.035623 382.894414 
z
" clip-path="url(#p0ffdb18536)"/>
   </g>
   <g id="patch_370">
    <path d="M 269.539011 384.48 
L 269.61479 384.48 
L 269.61479 378.454775 
L 269.539011 378.454775 
z
" clip-path="url(#p0ffdb18536)"/>
   </g>
   <g id="patch_371">
    <path d="M 271.746215 384.48 
L 271.821994 384.48 
L 271.821994 383.528649 
L 271.746215 383.528649 
z
" clip-path="url(#p0ffdb18536)"/>
   </g>
   <g id="patch_372">
    <path d="M 272.139471 384.48 
L 272.21525 384.48 
L 272.21525 384.48 
L 272.139471 384.48 
z
" clip-path="url(#p0ffdb18536)"/>
   </g>
   <g id="patch_373">
    <path d="M 272.790817 384.48 
L 272.866596 384.48 
L 272.866596 368.941261 
L 272.790817 368.941261 
z
" clip-path="url(#p0ffdb18536)"/>
   </g>
   <g id="patch_374">
    <path d="M 272.861292 384.48 
L 272.937071 384.48 
L 272.937071 378.454775 
L 272.861292 378.454775 
z
" clip-path="url(#p0ffdb18536)"/>
   </g>
   <g id="patch_375">
    <path d="M 273.014984 384.48 
L 273.090763 384.48 
L 273.090763 382.894414 
L 273.014984 382.894414 
z
" clip-path="url(#p0ffdb18536)"/>
   </g>
   <g id="patch_376">
    <path d="M 273.560859 384.48 
L 273.636638 384.48 
L 273.636638 382.577297 
L 273.560859 382.577297 
z
" clip-path="url(#p0ffdb18536)"/>
   </g>
   <g id="patch_377">
    <path d="M 274.662623 384.48 
L 274.738402 384.48 
L 274.738402 384.48 
L 274.662623 384.48 
z
" clip-path="url(#p0ffdb18536)"/>
   </g>
   <g id="patch_378">
    <path d="M 274.95897 384.48 
L 275.034749 384.48 
L 275.034749 380.357477 
L 274.95897 380.357477 
z
" clip-path="url(#p0ffdb18536)"/>
   </g>
   <g id="patch_379">
    <path d="M 275.107888 384.48 
L 275.183667 384.48 
L 275.183667 381.625946 
L 275.107888 381.625946 
z
" clip-path="url(#p0ffdb18536)"/>
   </g>
   <g id="patch_380">
    <path d="M 275.315523 384.48 
L 275.391302 384.48 
L 275.391302 384.162883 
L 275.315523 384.162883 
z
" clip-path="url(#p0ffdb18536)"/>
   </g>
   <g id="patch_381">
    <path d="M 275.610733 384.48 
L 275.686512 384.48 
L 275.686512 382.894414 
L 275.610733 382.894414 
z
" clip-path="url(#p0ffdb18536)"/>
   </g>
   <g id="patch_382">
    <path d="M 278.20902 384.48 
L 278.284799 384.48 
L 278.284799 382.894414 
L 278.20902 382.894414 
z
" clip-path="url(#p0ffdb18536)"/>
   </g>
   <g id="patch_383">
    <path d="M 278.387316 384.48 
L 278.463095 384.48 
L 278.463095 382.894414 
L 278.387316 382.894414 
z
" clip-path="url(#p0ffdb18536)"/>
   </g>
   <g id="patch_384">
    <path d="M 278.422591 384.48 
L 278.49837 384.48 
L 278.49837 383.845766 
L 278.422591 383.845766 
z
" clip-path="url(#p0ffdb18536)"/>
   </g>
   <g id="patch_385">
    <path d="M 278.949761 384.48 
L 279.02554 384.48 
L 279.02554 380.357477 
L 278.949761 380.357477 
z
" clip-path="url(#p0ffdb18536)"/>
   </g>
   <g id="patch_386">
    <path d="M 279.462153 384.48 
L 279.537932 384.48 
L 279.537932 375.283604 
L 279.462153 375.283604 
z
" clip-path="url(#p0ffdb18536)"/>
   </g>
   <g id="patch_387">
    <path d="M 280.142915 384.48 
L 280.218694 384.48 
L 280.218694 375.283604 
L 280.142915 375.283604 
z
" clip-path="url(#p0ffdb18536)"/>
   </g>
   <g id="patch_388">
    <path d="M 281.81383 384.48 
L 281.889609 384.48 
L 281.889609 384.48 
L 281.81383 384.48 
z
" clip-path="url(#p0ffdb18536)"/>
   </g>
   <g id="patch_389">
    <path d="M 281.874214 384.48 
L 281.949993 384.48 
L 281.949993 375.283604 
L 281.874214 375.283604 
z
" clip-path="url(#p0ffdb18536)"/>
   </g>
   <g id="patch_390">
    <path d="M 283.075842 384.48 
L 283.151621 384.48 
L 283.151621 384.48 
L 283.075842 384.48 
z
" clip-path="url(#p0ffdb18536)"/>
   </g>
   <g id="patch_391">
    <path d="M 283.370446 384.48 
L 283.446225 384.48 
L 283.446225 381.308829 
L 283.370446 381.308829 
z
" clip-path="url(#p0ffdb18536)"/>
   </g>
   <g id="patch_392">
    <path d="M 284.076341 384.48 
L 284.15212 384.48 
L 284.15212 382.894414 
L 284.076341 382.894414 
z
" clip-path="url(#p0ffdb18536)"/>
   </g>
   <g id="patch_393">
    <path d="M 284.581875 384.48 
L 284.657654 384.48 
L 284.657654 375.283604 
L 284.581875 375.283604 
z
" clip-path="url(#p0ffdb18536)"/>
   </g>
   <g id="patch_394">
    <path d="M 289.318863 384.48 
L 289.394642 384.48 
L 289.394642 382.894414 
L 289.318863 382.894414 
z
" clip-path="url(#p0ffdb18536)"/>
   </g>
   <g id="patch_395">
    <path d="M 301.353336 384.48 
L 301.429115 384.48 
L 301.429115 383.845766 
L 301.353336 383.845766 
z
" clip-path="url(#p0ffdb18536)"/>
   </g>
   <g id="patch_396">
    <path d="M 301.822408 384.48 
L 301.898187 384.48 
L 301.898187 380.991712 
L 301.822408 380.991712 
z
" clip-path="url(#p0ffdb18536)"/>
   </g>
   <g id="patch_397">
    <path d="M 302.947096 384.48 
L 303.022875 384.48 
L 303.022875 384.48 
L 302.947096 384.48 
z
" clip-path="url(#p0ffdb18536)"/>
   </g>
   <g id="patch_398">
    <path d="M 313.263153 384.48 
L 313.338932 384.48 
L 313.338932 384.48 
L 313.263153 384.48 
z
" clip-path="url(#p0ffdb18536)"/>
   </g>
   <g id="patch_399">
    <path d="M 319.961643 384.48 
L 320.037422 384.48 
L 320.037422 384.48 
L 319.961643 384.48 
z
" clip-path="url(#p0ffdb18536)"/>
   </g>
   <g id="patch_400">
    <path d="M 325.275271 384.48 
L 325.35105 384.48 
L 325.35105 380.357477 
L 325.275271 380.357477 
z
" clip-path="url(#p0ffdb18536)"/>
   </g>
   <g id="patch_401">
    <path d="M 326.056932 384.48 
L 326.132711 384.48 
L 326.132711 321.373694 
L 326.056932 321.373694 
z
" clip-path="url(#p0ffdb18536)"/>
   </g>
   <g id="patch_402">
    <path d="M 345.672091 384.48 
L 345.74787 384.48 
L 345.74787 384.48 
L 345.672091 384.48 
z
" clip-path="url(#p0ffdb18536)"/>
   </g>
   <g id="patch_403">
    <path d="M 347.311318 384.48 
L 347.387097 384.48 
L 347.387097 226.238559 
L 347.311318 226.238559 
z
" clip-path="url(#p0ffdb18536)"/>
   </g>
   <g id="patch_404">
    <path d="M 347.461487 384.48 
L 347.537266 384.48 
L 347.537266 321.373694 
L 347.461487 321.373694 
z
" clip-path="url(#p0ffdb18536)"/>
   </g>
   <g id="patch_405">
    <path d="M 352.41428 384.48 
L 352.490059 384.48 
L 352.490059 353.085405 
L 352.41428 353.085405 
z
" clip-path="url(#p0ffdb18536)"/>
   </g>
   <g id="patch_406">
    <path d="M 358.144441 384.48 
L 358.22022 384.48 
L 358.22022 378.454775 
L 358.144441 378.454775 
z
" clip-path="url(#p0ffdb18536)"/>
   </g>
   <g id="patch_407">
    <path d="M 371.256833 384.48 
L 371.332612 384.48 
L 371.332612 226.238559 
L 371.256833 226.238559 
z
" clip-path="url(#p0ffdb18536)"/>
   </g>
   <g id="patch_408">
    <path d="M 371.698158 384.48 
L 371.773937 384.48 
L 371.773937 384.48 
L 371.698158 384.48 
z
" clip-path="url(#p0ffdb18536)"/>
   </g>
   <g id="patch_409">
    <path d="M 376.369685 384.48 
L 376.445464 384.48 
L 376.445464 384.48 
L 376.369685 384.48 
z
" clip-path="url(#p0ffdb18536)"/>
   </g>
   <g id="patch_410">
    <path d="M 378.061578 384.48 
L 378.137358 384.48 
L 378.137358 359.427748 
L 378.061578 359.427748 
z
" clip-path="url(#p0ffdb18536)"/>
   </g>
   <g id="patch_411">
    <path d="M 378.078755 384.48 
L 378.154534 384.48 
L 378.154534 381.625946 
L 378.078755 381.625946 
z
" clip-path="url(#p0ffdb18536)"/>
   </g>
   <g id="patch_412">
    <path d="M 378.212631 384.48 
L 378.28841 384.48 
L 378.28841 378.454775 
L 378.212631 378.454775 
z
" clip-path="url(#p0ffdb18536)"/>
   </g>
   <g id="patch_413">
    <path d="M 403.487097 384.48 
L 403.562876 384.48 
L 403.562876 384.48 
L 403.487097 384.48 
z
" clip-path="url(#p0ffdb18536)"/>
   </g>
   <g id="patch_414">
    <path d="M 414.011798 384.48 
L 414.087577 384.48 
L 414.087577 384.48 
L 414.011798 384.48 
z
" clip-path="url(#p0ffdb18536)"/>
   </g>
   <g id="patch_415">
    <path d="M 622.560585 384.48 
L 622.636364 384.48 
L 622.636364 383.528649 
L 622.560585 383.528649 
z
" clip-path="url(#p0ffdb18536)"/>
   </g>
   <g id="matplotlib.axis_1">
    <g id="xtick_1">
     <g id="line2d_1">
      <defs>
       <path id="m9d7bfba4be" d="M 0 0 
L 0 3.5 
" style="stroke: #000000; stroke-width: 0.8"/>
      </defs>
      <g>
       <use xlink:href="#m9d7bfba4be" x="111.318386" y="384.48" style="stroke: #000000; stroke-width: 0.8"/>
      </g>
     </g>
     <g id="text_1">
      <!-- 0 -->
      <g transform="translate(108.137136 399.078438) scale(0.1 -0.1)">
       <defs>
        <path id="DejaVuSans-30" d="M 2034 4250 
Q 1547 4250 1301 3770 
Q 1056 3291 1056 2328 
Q 1056 1369 1301 889 
Q 1547 409 2034 409 
Q 2525 409 2770 889 
Q 3016 1369 3016 2328 
Q 3016 3291 2770 3770 
Q 2525 4250 2034 4250 
z
M 2034 4750 
Q 2819 4750 3233 4129 
Q 3647 3509 3647 2328 
Q 3647 1150 3233 529 
Q 2819 -91 2034 -91 
Q 1250 -91 836 529 
Q 422 1150 422 2328 
Q 422 3509 836 4129 
Q 1250 4750 2034 4750 
z
" transform="scale(0.015625)"/>
       </defs>
       <use xlink:href="#DejaVuSans-30"/>
      </g>
     </g>
    </g>
    <g id="xtick_2">
     <g id="line2d_2">
      <g>
       <use xlink:href="#m9d7bfba4be" x="174.467607" y="384.48" style="stroke: #000000; stroke-width: 0.8"/>
      </g>
     </g>
     <g id="text_2">
      <!-- 5000 -->
      <g transform="translate(161.742607 399.078438) scale(0.1 -0.1)">
       <defs>
        <path id="DejaVuSans-35" d="M 691 4666 
L 3169 4666 
L 3169 4134 
L 1269 4134 
L 1269 2991 
Q 1406 3038 1543 3061 
Q 1681 3084 1819 3084 
Q 2600 3084 3056 2656 
Q 3513 2228 3513 1497 
Q 3513 744 3044 326 
Q 2575 -91 1722 -91 
Q 1428 -91 1123 -41 
Q 819 9 494 109 
L 494 744 
Q 775 591 1075 516 
Q 1375 441 1709 441 
Q 2250 441 2565 725 
Q 2881 1009 2881 1497 
Q 2881 1984 2565 2268 
Q 2250 2553 1709 2553 
Q 1456 2553 1204 2497 
Q 953 2441 691 2322 
L 691 4666 
z
" transform="scale(0.015625)"/>
       </defs>
       <use xlink:href="#DejaVuSans-35"/>
       <use xlink:href="#DejaVuSans-30" x="63.623047"/>
       <use xlink:href="#DejaVuSans-30" x="127.246094"/>
       <use xlink:href="#DejaVuSans-30" x="190.869141"/>
      </g>
     </g>
    </g>
    <g id="xtick_3">
     <g id="line2d_3">
      <g>
       <use xlink:href="#m9d7bfba4be" x="237.616827" y="384.48" style="stroke: #000000; stroke-width: 0.8"/>
      </g>
     </g>
     <g id="text_3">
      <!-- 10000 -->
      <g transform="translate(221.710577 399.078438) scale(0.1 -0.1)">
       <defs>
        <path id="DejaVuSans-31" d="M 794 531 
L 1825 531 
L 1825 4091 
L 703 3866 
L 703 4441 
L 1819 4666 
L 2450 4666 
L 2450 531 
L 3481 531 
L 3481 0 
L 794 0 
L 794 531 
z
" transform="scale(0.015625)"/>
       </defs>
       <use xlink:href="#DejaVuSans-31"/>
       <use xlink:href="#DejaVuSans-30" x="63.623047"/>
       <use xlink:href="#DejaVuSans-30" x="127.246094"/>
       <use xlink:href="#DejaVuSans-30" x="190.869141"/>
       <use xlink:href="#DejaVuSans-30" x="254.492188"/>
      </g>
     </g>
    </g>
    <g id="xtick_4">
     <g id="line2d_4">
      <g>
       <use xlink:href="#m9d7bfba4be" x="300.766048" y="384.48" style="stroke: #000000; stroke-width: 0.8"/>
      </g>
     </g>
     <g id="text_4">
      <!-- 15000 -->
      <g transform="translate(284.859798 399.078438) scale(0.1 -0.1)">
       <use xlink:href="#DejaVuSans-31"/>
       <use xlink:href="#DejaVuSans-35" x="63.623047"/>
       <use xlink:href="#DejaVuSans-30" x="127.246094"/>
       <use xlink:href="#DejaVuSans-30" x="190.869141"/>
       <use xlink:href="#DejaVuSans-30" x="254.492188"/>
      </g>
     </g>
    </g>
    <g id="xtick_5">
     <g id="line2d_5">
      <g>
       <use xlink:href="#m9d7bfba4be" x="363.915269" y="384.48" style="stroke: #000000; stroke-width: 0.8"/>
      </g>
     </g>
     <g id="text_5">
      <!-- 20000 -->
      <g transform="translate(348.009019 399.078438) scale(0.1 -0.1)">
       <defs>
        <path id="DejaVuSans-32" d="M 1228 531 
L 3431 531 
L 3431 0 
L 469 0 
L 469 531 
Q 828 903 1448 1529 
Q 2069 2156 2228 2338 
Q 2531 2678 2651 2914 
Q 2772 3150 2772 3378 
Q 2772 3750 2511 3984 
Q 2250 4219 1831 4219 
Q 1534 4219 1204 4116 
Q 875 4013 500 3803 
L 500 4441 
Q 881 4594 1212 4672 
Q 1544 4750 1819 4750 
Q 2544 4750 2975 4387 
Q 3406 4025 3406 3419 
Q 3406 3131 3298 2873 
Q 3191 2616 2906 2266 
Q 2828 2175 2409 1742 
Q 1991 1309 1228 531 
z
" transform="scale(0.015625)"/>
       </defs>
       <use xlink:href="#DejaVuSans-32"/>
       <use xlink:href="#DejaVuSans-30" x="63.623047"/>
       <use xlink:href="#DejaVuSans-30" x="127.246094"/>
       <use xlink:href="#DejaVuSans-30" x="190.869141"/>
       <use xlink:href="#DejaVuSans-30" x="254.492188"/>
      </g>
     </g>
    </g>
    <g id="xtick_6">
     <g id="line2d_6">
      <g>
       <use xlink:href="#m9d7bfba4be" x="427.06449" y="384.48" style="stroke: #000000; stroke-width: 0.8"/>
      </g>
     </g>
     <g id="text_6">
      <!-- 25000 -->
      <g transform="translate(411.15824 399.078438) scale(0.1 -0.1)">
       <use xlink:href="#DejaVuSans-32"/>
       <use xlink:href="#DejaVuSans-35" x="63.623047"/>
       <use xlink:href="#DejaVuSans-30" x="127.246094"/>
       <use xlink:href="#DejaVuSans-30" x="190.869141"/>
       <use xlink:href="#DejaVuSans-30" x="254.492188"/>
      </g>
     </g>
    </g>
    <g id="xtick_7">
     <g id="line2d_7">
      <g>
       <use xlink:href="#m9d7bfba4be" x="490.213711" y="384.48" style="stroke: #000000; stroke-width: 0.8"/>
      </g>
     </g>
     <g id="text_7">
      <!-- 30000 -->
      <g transform="translate(474.307461 399.078438) scale(0.1 -0.1)">
       <defs>
        <path id="DejaVuSans-33" d="M 2597 2516 
Q 3050 2419 3304 2112 
Q 3559 1806 3559 1356 
Q 3559 666 3084 287 
Q 2609 -91 1734 -91 
Q 1441 -91 1130 -33 
Q 819 25 488 141 
L 488 750 
Q 750 597 1062 519 
Q 1375 441 1716 441 
Q 2309 441 2620 675 
Q 2931 909 2931 1356 
Q 2931 1769 2642 2001 
Q 2353 2234 1838 2234 
L 1294 2234 
L 1294 2753 
L 1863 2753 
Q 2328 2753 2575 2939 
Q 2822 3125 2822 3475 
Q 2822 3834 2567 4026 
Q 2313 4219 1838 4219 
Q 1578 4219 1281 4162 
Q 984 4106 628 3988 
L 628 4550 
Q 988 4650 1302 4700 
Q 1616 4750 1894 4750 
Q 2613 4750 3031 4423 
Q 3450 4097 3450 3541 
Q 3450 3153 3228 2886 
Q 3006 2619 2597 2516 
z
" transform="scale(0.015625)"/>
       </defs>
       <use xlink:href="#DejaVuSans-33"/>
       <use xlink:href="#DejaVuSans-30" x="63.623047"/>
       <use xlink:href="#DejaVuSans-30" x="127.246094"/>
       <use xlink:href="#DejaVuSans-30" x="190.869141"/>
       <use xlink:href="#DejaVuSans-30" x="254.492188"/>
      </g>
     </g>
    </g>
    <g id="xtick_8">
     <g id="line2d_8">
      <g>
       <use xlink:href="#m9d7bfba4be" x="553.362931" y="384.48" style="stroke: #000000; stroke-width: 0.8"/>
      </g>
     </g>
     <g id="text_8">
      <!-- 35000 -->
      <g transform="translate(537.456681 399.078438) scale(0.1 -0.1)">
       <use xlink:href="#DejaVuSans-33"/>
       <use xlink:href="#DejaVuSans-35" x="63.623047"/>
       <use xlink:href="#DejaVuSans-30" x="127.246094"/>
       <use xlink:href="#DejaVuSans-30" x="190.869141"/>
       <use xlink:href="#DejaVuSans-30" x="254.492188"/>
      </g>
     </g>
    </g>
    <g id="xtick_9">
     <g id="line2d_9">
      <g>
       <use xlink:href="#m9d7bfba4be" x="616.512152" y="384.48" style="stroke: #000000; stroke-width: 0.8"/>
      </g>
     </g>
     <g id="text_9">
      <!-- 40000 -->
      <g transform="translate(600.605902 399.078438) scale(0.1 -0.1)">
       <defs>
        <path id="DejaVuSans-34" d="M 2419 4116 
L 825 1625 
L 2419 1625 
L 2419 4116 
z
M 2253 4666 
L 3047 4666 
L 3047 1625 
L 3713 1625 
L 3713 1100 
L 3047 1100 
L 3047 0 
L 2419 0 
L 2419 1100 
L 313 1100 
L 313 1709 
L 2253 4666 
z
" transform="scale(0.015625)"/>
       </defs>
       <use xlink:href="#DejaVuSans-34"/>
       <use xlink:href="#DejaVuSans-30" x="63.623047"/>
       <use xlink:href="#DejaVuSans-30" x="127.246094"/>
       <use xlink:href="#DejaVuSans-30" x="190.869141"/>
       <use xlink:href="#DejaVuSans-30" x="254.492188"/>
      </g>
     </g>
    </g>
   </g>
   <g id="matplotlib.axis_2">
    <g id="ytick_1">
     <g id="line2d_10">
      <defs>
       <path id="maee4e466b2" d="M 0 0 
L -3.5 0 
" style="stroke: #000000; stroke-width: 0.8"/>
      </defs>
      <g>
       <use xlink:href="#maee4e466b2" x="90" y="384.48" style="stroke: #000000; stroke-width: 0.8"/>
      </g>
     </g>
     <g id="text_10">
      <!-- 0.0 -->
      <g transform="translate(67.096875 388.279219) scale(0.1 -0.1)">
       <defs>
        <path id="DejaVuSans-2e" d="M 684 794 
L 1344 794 
L 1344 0 
L 684 0 
L 684 794 
z
" transform="scale(0.015625)"/>
       </defs>
       <use xlink:href="#DejaVuSans-30"/>
       <use xlink:href="#DejaVuSans-2e" x="63.623047"/>
       <use xlink:href="#DejaVuSans-30" x="95.410156"/>
      </g>
     </g>
    </g>
    <g id="ytick_2">
     <g id="line2d_11">
      <g>
       <use xlink:href="#maee4e466b2" x="90" y="321.12" style="stroke: #000000; stroke-width: 0.8"/>
      </g>
     </g>
     <g id="text_11">
      <!-- 0.2 -->
      <g transform="translate(67.096875 324.919219) scale(0.1 -0.1)">
       <use xlink:href="#DejaVuSans-30"/>
       <use xlink:href="#DejaVuSans-2e" x="63.623047"/>
       <use xlink:href="#DejaVuSans-32" x="95.410156"/>
      </g>
     </g>
    </g>
    <g id="ytick_3">
     <g id="line2d_12">
      <g>
       <use xlink:href="#maee4e466b2" x="90" y="257.76" style="stroke: #000000; stroke-width: 0.8"/>
      </g>
     </g>
     <g id="text_12">
      <!-- 0.4 -->
      <g transform="translate(67.096875 261.559219) scale(0.1 -0.1)">
       <use xlink:href="#DejaVuSans-30"/>
       <use xlink:href="#DejaVuSans-2e" x="63.623047"/>
       <use xlink:href="#DejaVuSans-34" x="95.410156"/>
      </g>
     </g>
    </g>
    <g id="ytick_4">
     <g id="line2d_13">
      <g>
       <use xlink:href="#maee4e466b2" x="90" y="194.4" style="stroke: #000000; stroke-width: 0.8"/>
      </g>
     </g>
     <g id="text_13">
      <!-- 0.6 -->
      <g transform="translate(67.096875 198.199219) scale(0.1 -0.1)">
       <defs>
        <path id="DejaVuSans-36" d="M 2113 2584 
Q 1688 2584 1439 2293 
Q 1191 2003 1191 1497 
Q 1191 994 1439 701 
Q 1688 409 2113 409 
Q 2538 409 2786 701 
Q 3034 994 3034 1497 
Q 3034 2003 2786 2293 
Q 2538 2584 2113 2584 
z
M 3366 4563 
L 3366 3988 
Q 3128 4100 2886 4159 
Q 2644 4219 2406 4219 
Q 1781 4219 1451 3797 
Q 1122 3375 1075 2522 
Q 1259 2794 1537 2939 
Q 1816 3084 2150 3084 
Q 2853 3084 3261 2657 
Q 3669 2231 3669 1497 
Q 3669 778 3244 343 
Q 2819 -91 2113 -91 
Q 1303 -91 875 529 
Q 447 1150 447 2328 
Q 447 3434 972 4092 
Q 1497 4750 2381 4750 
Q 2619 4750 2861 4703 
Q 3103 4656 3366 4563 
z
" transform="scale(0.015625)"/>
       </defs>
       <use xlink:href="#DejaVuSans-30"/>
       <use xlink:href="#DejaVuSans-2e" x="63.623047"/>
       <use xlink:href="#DejaVuSans-36" x="95.410156"/>
      </g>
     </g>
    </g>
    <g id="ytick_5">
     <g id="line2d_14">
      <g>
       <use xlink:href="#maee4e466b2" x="90" y="131.04" style="stroke: #000000; stroke-width: 0.8"/>
      </g>
     </g>
     <g id="text_14">
      <!-- 0.8 -->
      <g transform="translate(67.096875 134.839219) scale(0.1 -0.1)">
       <defs>
        <path id="DejaVuSans-38" d="M 2034 2216 
Q 1584 2216 1326 1975 
Q 1069 1734 1069 1313 
Q 1069 891 1326 650 
Q 1584 409 2034 409 
Q 2484 409 2743 651 
Q 3003 894 3003 1313 
Q 3003 1734 2745 1975 
Q 2488 2216 2034 2216 
z
M 1403 2484 
Q 997 2584 770 2862 
Q 544 3141 544 3541 
Q 544 4100 942 4425 
Q 1341 4750 2034 4750 
Q 2731 4750 3128 4425 
Q 3525 4100 3525 3541 
Q 3525 3141 3298 2862 
Q 3072 2584 2669 2484 
Q 3125 2378 3379 2068 
Q 3634 1759 3634 1313 
Q 3634 634 3220 271 
Q 2806 -91 2034 -91 
Q 1263 -91 848 271 
Q 434 634 434 1313 
Q 434 1759 690 2068 
Q 947 2378 1403 2484 
z
M 1172 3481 
Q 1172 3119 1398 2916 
Q 1625 2713 2034 2713 
Q 2441 2713 2670 2916 
Q 2900 3119 2900 3481 
Q 2900 3844 2670 4047 
Q 2441 4250 2034 4250 
Q 1625 4250 1398 4047 
Q 1172 3844 1172 3481 
z
" transform="scale(0.015625)"/>
       </defs>
       <use xlink:href="#DejaVuSans-30"/>
       <use xlink:href="#DejaVuSans-2e" x="63.623047"/>
       <use xlink:href="#DejaVuSans-38" x="95.410156"/>
      </g>
     </g>
    </g>
    <g id="ytick_6">
     <g id="line2d_15">
      <g>
       <use xlink:href="#maee4e466b2" x="90" y="67.68" style="stroke: #000000; stroke-width: 0.8"/>
      </g>
     </g>
     <g id="text_15">
      <!-- 1.0 -->
      <g transform="translate(67.096875 71.479219) scale(0.1 -0.1)">
       <use xlink:href="#DejaVuSans-31"/>
       <use xlink:href="#DejaVuSans-2e" x="63.623047"/>
       <use xlink:href="#DejaVuSans-30" x="95.410156"/>
      </g>
     </g>
    </g>
   </g>
   <g id="patch_416">
    <path d="M 90 384.48 
L 90 51.84 
" style="fill: none; stroke: #000000; stroke-width: 0.8; stroke-linejoin: miter; stroke-linecap: square"/>
   </g>
   <g id="patch_417">
    <path d="M 648 384.48 
L 648 51.84 
" style="fill: none; stroke: #000000; stroke-width: 0.8; stroke-linejoin: miter; stroke-linecap: square"/>
   </g>
   <g id="patch_418">
    <path d="M 90 384.48 
L 648 384.48 
" style="fill: none; stroke: #000000; stroke-width: 0.8; stroke-linejoin: miter; stroke-linecap: square"/>
   </g>
   <g id="patch_419">
    <path d="M 90 51.84 
L 648 51.84 
" style="fill: none; stroke: #000000; stroke-width: 0.8; stroke-linejoin: miter; stroke-linecap: square"/>
   </g>
  </g>
 </g>
 <defs>
  <clipPath id="p0ffdb18536">
   <rect x="90" y="51.84" width="558" height="332.64"/>
  </clipPath>
 </defs>
</svg>
