<?xml version="1.0" encoding="utf-8" standalone="no"?>
<!DOCTYPE svg PUBLIC "-//W3C//DTD SVG 1.1//EN"
  "http://www.w3.org/Graphics/SVG/1.1/DTD/svg11.dtd">
<svg xmlns:xlink="http://www.w3.org/1999/xlink" width="720pt" height="432pt" viewBox="0 0 720 432" xmlns="http://www.w3.org/2000/svg" version="1.1">
 <metadata>
  <rdf:RDF xmlns:dc="http://purl.org/dc/elements/1.1/" xmlns:cc="http://creativecommons.org/ns#" xmlns:rdf="http://www.w3.org/1999/02/22-rdf-syntax-ns#">
   <cc:Work>
    <dc:type rdf:resource="http://purl.org/dc/dcmitype/StillImage"/>
    <dc:date>2024-03-22T10:30:46.547824</dc:date>
    <dc:format>image/svg+xml</dc:format>
    <dc:creator>
     <cc:Agent>
      <dc:title>Matplotlib v3.7.2, https://matplotlib.org/</dc:title>
     </cc:Agent>
    </dc:creator>
   </cc:Work>
  </rdf:RDF>
 </metadata>
 <defs>
  <style type="text/css">*{stroke-linejoin: round; stroke-linecap: butt}</style>
 </defs>
 <g id="figure_1">
  <g id="patch_1">
   <path d="M 0 432 
L 720 432 
L 720 0 
L 0 0 
z
" style="fill: #ffffff"/>
  </g>
  <g id="axes_1">
   <g id="patch_2">
    <path d="M 90 384.48 
L 648 384.48 
L 648 51.84 
L 90 51.84 
z
" style="fill: #ffffff"/>
   </g>
   <g id="patch_3">
    <path d="M 115.363636 384.48 
L 115.511047 384.48 
L 115.511047 380.04036 
L 115.363636 380.04036 
z
" clip-path="url(#pdf1e9d5450)"/>
   </g>
   <g id="patch_4">
    <path d="M 115.977044 384.48 
L 116.124454 384.48 
L 116.124454 368.941261 
L 115.977044 368.941261 
z
" clip-path="url(#pdf1e9d5450)"/>
   </g>
   <g id="patch_5">
    <path d="M 116.503128 384.48 
L 116.650539 384.48 
L 116.650539 257.95027 
L 116.503128 257.95027 
z
" clip-path="url(#pdf1e9d5450)"/>
   </g>
   <g id="patch_6">
    <path d="M 116.654798 384.48 
L 116.802208 384.48 
L 116.802208 362.598919 
L 116.654798 362.598919 
z
" clip-path="url(#pdf1e9d5450)"/>
   </g>
   <g id="patch_7">
    <path d="M 117.5653 384.48 
L 117.71271 384.48 
L 117.71271 376.869189 
L 117.5653 376.869189 
z
" clip-path="url(#pdf1e9d5450)"/>
   </g>
   <g id="patch_8">
    <path d="M 117.665322 384.48 
L 117.812732 384.48 
L 117.812732 67.68 
L 117.665322 67.68 
z
" clip-path="url(#pdf1e9d5450)"/>
   </g>
   <g id="patch_9">
    <path d="M 119.570222 384.48 
L 119.717633 384.48 
L 119.717633 337.22955 
L 119.570222 337.22955 
z
" clip-path="url(#pdf1e9d5450)"/>
   </g>
   <g id="patch_10">
    <path d="M 119.815471 384.48 
L 119.962882 384.48 
L 119.962882 67.68 
L 119.815471 67.68 
z
" clip-path="url(#pdf1e9d5450)"/>
   </g>
   <g id="patch_11">
    <path d="M 121.080972 384.48 
L 121.228382 384.48 
L 121.228382 67.68 
L 121.080972 67.68 
z
" clip-path="url(#pdf1e9d5450)"/>
   </g>
   <g id="patch_12">
    <path d="M 121.496388 384.48 
L 121.643799 384.48 
L 121.643799 362.598919 
L 121.496388 362.598919 
z
" clip-path="url(#pdf1e9d5450)"/>
   </g>
   <g id="patch_13">
    <path d="M 123.12286 384.48 
L 123.27027 384.48 
L 123.27027 353.085405 
L 123.12286 353.085405 
z
" clip-path="url(#pdf1e9d5450)"/>
   </g>
   <g id="patch_14">
    <path d="M 123.36267 384.48 
L 123.51008 384.48 
L 123.51008 346.743063 
L 123.36267 346.743063 
z
" clip-path="url(#pdf1e9d5450)"/>
   </g>
   <g id="patch_15">
    <path d="M 123.808828 384.48 
L 123.956239 384.48 
L 123.956239 337.22955 
L 123.808828 337.22955 
z
" clip-path="url(#pdf1e9d5450)"/>
   </g>
   <g id="patch_16">
    <path d="M 124.605045 384.48 
L 124.752455 384.48 
L 124.752455 327.716036 
L 124.605045 327.716036 
z
" clip-path="url(#pdf1e9d5450)"/>
   </g>
   <g id="patch_17">
    <path d="M 124.832491 384.48 
L 124.979902 384.48 
L 124.979902 327.716036 
L 124.832491 327.716036 
z
" clip-path="url(#pdf1e9d5450)"/>
   </g>
   <g id="patch_18">
    <path d="M 129.062238 384.48 
L 129.209648 384.48 
L 129.209648 67.68 
L 129.062238 67.68 
z
" clip-path="url(#pdf1e9d5450)"/>
   </g>
   <g id="patch_19">
    <path d="M 166.255504 384.48 
L 166.402914 384.48 
L 166.402914 383.211532 
L 166.255504 383.211532 
z
" clip-path="url(#pdf1e9d5450)"/>
   </g>
   <g id="patch_20">
    <path d="M 172.547786 384.48 
L 172.695196 384.48 
L 172.695196 381.625946 
L 172.547786 381.625946 
z
" clip-path="url(#pdf1e9d5450)"/>
   </g>
   <g id="patch_21">
    <path d="M 175.611291 384.48 
L 175.758701 384.48 
L 175.758701 362.598919 
L 175.611291 362.598919 
z
" clip-path="url(#pdf1e9d5450)"/>
   </g>
   <g id="patch_22">
    <path d="M 177.350904 384.48 
L 177.498315 384.48 
L 177.498315 372.112432 
L 177.350904 372.112432 
z
" clip-path="url(#pdf1e9d5450)"/>
   </g>
   <g id="patch_23">
    <path d="M 181.626786 384.48 
L 181.774196 384.48 
L 181.774196 378.454775 
L 181.626786 378.454775 
z
" clip-path="url(#pdf1e9d5450)"/>
   </g>
   <g id="patch_24">
    <path d="M 184.228577 384.48 
L 184.375987 384.48 
L 184.375987 382.26018 
L 184.228577 382.26018 
z
" clip-path="url(#pdf1e9d5450)"/>
   </g>
   <g id="patch_25">
    <path d="M 185.635952 384.48 
L 185.783363 384.48 
L 185.783363 382.26018 
L 185.635952 382.26018 
z
" clip-path="url(#pdf1e9d5450)"/>
   </g>
   <g id="patch_26">
    <path d="M 186.262741 384.48 
L 186.410151 384.48 
L 186.410151 382.26018 
L 186.262741 382.26018 
z
" clip-path="url(#pdf1e9d5450)"/>
   </g>
   <g id="patch_27">
    <path d="M 188.72722 384.48 
L 188.87463 384.48 
L 188.87463 376.869189 
L 188.72722 376.869189 
z
" clip-path="url(#pdf1e9d5450)"/>
   </g>
   <g id="patch_28">
    <path d="M 189.090562 384.48 
L 189.237972 384.48 
L 189.237972 375.283604 
L 189.090562 375.283604 
z
" clip-path="url(#pdf1e9d5450)"/>
   </g>
   <g id="patch_29">
    <path d="M 190.760524 384.48 
L 190.907934 384.48 
L 190.907934 375.283604 
L 190.760524 375.283604 
z
" clip-path="url(#pdf1e9d5450)"/>
   </g>
   <g id="patch_30">
    <path d="M 191.321837 384.48 
L 191.469248 384.48 
L 191.469248 380.04036 
L 191.321837 380.04036 
z
" clip-path="url(#pdf1e9d5450)"/>
   </g>
   <g id="patch_31">
    <path d="M 191.471361 384.48 
L 191.618771 384.48 
L 191.618771 376.869189 
L 191.471361 376.869189 
z
" clip-path="url(#pdf1e9d5450)"/>
   </g>
   <g id="patch_32">
    <path d="M 192.299241 384.48 
L 192.446652 384.48 
L 192.446652 382.26018 
L 192.299241 382.26018 
z
" clip-path="url(#pdf1e9d5450)"/>
   </g>
   <g id="patch_33">
    <path d="M 192.733979 384.48 
L 192.881389 384.48 
L 192.881389 382.577297 
L 192.733979 382.577297 
z
" clip-path="url(#pdf1e9d5450)"/>
   </g>
   <g id="patch_34">
    <path d="M 194.932259 384.48 
L 195.07967 384.48 
L 195.07967 376.869189 
L 194.932259 376.869189 
z
" clip-path="url(#pdf1e9d5450)"/>
   </g>
   <g id="patch_35">
    <path d="M 195.815763 384.48 
L 195.963173 384.48 
L 195.963173 368.941261 
L 195.815763 368.941261 
z
" clip-path="url(#pdf1e9d5450)"/>
   </g>
   <g id="patch_36">
    <path d="M 196.901342 384.48 
L 197.048752 384.48 
L 197.048752 380.04036 
L 196.901342 380.04036 
z
" clip-path="url(#pdf1e9d5450)"/>
   </g>
   <g id="patch_37">
    <path d="M 197.911716 384.48 
L 198.059127 384.48 
L 198.059127 376.869189 
L 197.911716 376.869189 
z
" clip-path="url(#pdf1e9d5450)"/>
   </g>
   <g id="patch_38">
    <path d="M 198.846983 384.48 
L 198.994393 384.48 
L 198.994393 289.661982 
L 198.846983 289.661982 
z
" clip-path="url(#pdf1e9d5450)"/>
   </g>
   <g id="patch_39">
    <path d="M 199.829082 384.48 
L 199.976492 384.48 
L 199.976492 380.04036 
L 199.829082 380.04036 
z
" clip-path="url(#pdf1e9d5450)"/>
   </g>
   <g id="patch_40">
    <path d="M 200.25839 384.48 
L 200.4058 384.48 
L 200.4058 376.869189 
L 200.25839 376.869189 
z
" clip-path="url(#pdf1e9d5450)"/>
   </g>
   <g id="patch_41">
    <path d="M 200.716148 384.48 
L 200.863558 384.48 
L 200.863558 378.454775 
L 200.716148 378.454775 
z
" clip-path="url(#pdf1e9d5450)"/>
   </g>
   <g id="patch_42">
    <path d="M 201.454747 384.48 
L 201.602157 384.48 
L 201.602157 380.991712 
L 201.454747 380.991712 
z
" clip-path="url(#pdf1e9d5450)"/>
   </g>
   <g id="patch_43">
    <path d="M 202.22617 384.48 
L 202.37358 384.48 
L 202.37358 368.941261 
L 202.22617 368.941261 
z
" clip-path="url(#pdf1e9d5450)"/>
   </g>
   <g id="patch_44">
    <path d="M 202.413332 384.48 
L 202.560742 384.48 
L 202.560742 380.04036 
L 202.413332 380.04036 
z
" clip-path="url(#pdf1e9d5450)"/>
   </g>
   <g id="patch_45">
    <path d="M 202.636535 384.48 
L 202.783946 384.48 
L 202.783946 368.941261 
L 202.636535 368.941261 
z
" clip-path="url(#pdf1e9d5450)"/>
   </g>
   <g id="patch_46">
    <path d="M 203.351746 384.48 
L 203.499156 384.48 
L 203.499156 362.598919 
L 203.351746 362.598919 
z
" clip-path="url(#pdf1e9d5450)"/>
   </g>
   <g id="patch_47">
    <path d="M 203.537704 384.48 
L 203.685114 384.48 
L 203.685114 380.991712 
L 203.537704 380.991712 
z
" clip-path="url(#pdf1e9d5450)"/>
   </g>
   <g id="patch_48">
    <path d="M 204.135649 384.48 
L 204.283059 384.48 
L 204.283059 368.941261 
L 204.135649 368.941261 
z
" clip-path="url(#pdf1e9d5450)"/>
   </g>
   <g id="patch_49">
    <path d="M 204.818945 384.48 
L 204.966355 384.48 
L 204.966355 353.085405 
L 204.818945 353.085405 
z
" clip-path="url(#pdf1e9d5450)"/>
   </g>
   <g id="patch_50">
    <path d="M 205.41748 384.48 
L 205.56489 384.48 
L 205.56489 380.991712 
L 205.41748 380.991712 
z
" clip-path="url(#pdf1e9d5450)"/>
   </g>
   <g id="patch_51">
    <path d="M 205.987736 384.48 
L 206.135147 384.48 
L 206.135147 380.991712 
L 205.987736 380.991712 
z
" clip-path="url(#pdf1e9d5450)"/>
   </g>
   <g id="patch_52">
    <path d="M 206.268209 384.48 
L 206.415619 384.48 
L 206.415619 383.845766 
L 206.268209 383.845766 
z
" clip-path="url(#pdf1e9d5450)"/>
   </g>
   <g id="patch_53">
    <path d="M 206.512935 384.48 
L 206.660345 384.48 
L 206.660345 381.308829 
L 206.512935 381.308829 
z
" clip-path="url(#pdf1e9d5450)"/>
   </g>
   <g id="patch_54">
    <path d="M 207.188172 384.48 
L 207.335582 384.48 
L 207.335582 375.283604 
L 207.188172 375.283604 
z
" clip-path="url(#pdf1e9d5450)"/>
   </g>
   <g id="patch_55">
    <path d="M 207.954804 384.48 
L 208.102214 384.48 
L 208.102214 382.894414 
L 207.954804 382.894414 
z
" clip-path="url(#pdf1e9d5450)"/>
   </g>
   <g id="patch_56">
    <path d="M 208.130836 384.48 
L 208.278247 384.48 
L 208.278247 376.869189 
L 208.130836 376.869189 
z
" clip-path="url(#pdf1e9d5450)"/>
   </g>
   <g id="patch_57">
    <path d="M 208.401113 384.48 
L 208.548523 384.48 
L 208.548523 321.373694 
L 208.401113 321.373694 
z
" clip-path="url(#pdf1e9d5450)"/>
   </g>
   <g id="patch_58">
    <path d="M 209.719747 384.48 
L 209.867158 384.48 
L 209.867158 362.598919 
L 209.719747 362.598919 
z
" clip-path="url(#pdf1e9d5450)"/>
   </g>
   <g id="patch_59">
    <path d="M 210.134069 384.48 
L 210.281479 384.48 
L 210.281479 305.517838 
L 210.134069 305.517838 
z
" clip-path="url(#pdf1e9d5450)"/>
   </g>
   <g id="patch_60">
    <path d="M 210.691501 384.48 
L 210.838911 384.48 
L 210.838911 362.598919 
L 210.691501 362.598919 
z
" clip-path="url(#pdf1e9d5450)"/>
   </g>
   <g id="patch_61">
    <path d="M 210.910503 384.48 
L 211.057913 384.48 
L 211.057913 368.941261 
L 210.910503 368.941261 
z
" clip-path="url(#pdf1e9d5450)"/>
   </g>
   <g id="patch_62">
    <path d="M 212.048855 384.48 
L 212.196265 384.48 
L 212.196265 343.571892 
L 212.048855 343.571892 
z
" clip-path="url(#pdf1e9d5450)"/>
   </g>
   <g id="patch_63">
    <path d="M 213.166175 384.48 
L 213.313586 384.48 
L 213.313586 321.373694 
L 213.166175 321.373694 
z
" clip-path="url(#pdf1e9d5450)"/>
   </g>
   <g id="patch_64">
    <path d="M 213.420016 384.48 
L 213.567426 384.48 
L 213.567426 362.598919 
L 213.420016 362.598919 
z
" clip-path="url(#pdf1e9d5450)"/>
   </g>
   <g id="patch_65">
    <path d="M 214.973745 384.48 
L 215.121155 384.48 
L 215.121155 343.571892 
L 214.973745 343.571892 
z
" clip-path="url(#pdf1e9d5450)"/>
   </g>
   <g id="patch_66">
    <path d="M 216.558774 384.48 
L 216.706184 384.48 
L 216.706184 321.373694 
L 216.558774 321.373694 
z
" clip-path="url(#pdf1e9d5450)"/>
   </g>
   <g id="patch_67">
    <path d="M 217.746262 384.48 
L 217.893673 384.48 
L 217.893673 343.571892 
L 217.746262 343.571892 
z
" clip-path="url(#pdf1e9d5450)"/>
   </g>
   <g id="patch_68">
    <path d="M 219.44067 384.48 
L 219.58808 384.48 
L 219.58808 321.373694 
L 219.44067 321.373694 
z
" clip-path="url(#pdf1e9d5450)"/>
   </g>
   <g id="patch_69">
    <path d="M 220.374195 384.48 
L 220.521605 384.48 
L 220.521605 305.517838 
L 220.374195 305.517838 
z
" clip-path="url(#pdf1e9d5450)"/>
   </g>
   <g id="patch_70">
    <path d="M 223.199534 384.48 
L 223.346944 384.48 
L 223.346944 305.517838 
L 223.199534 305.517838 
z
" clip-path="url(#pdf1e9d5450)"/>
   </g>
   <g id="patch_71">
    <path d="M 224.233052 384.48 
L 224.380462 384.48 
L 224.380462 378.454775 
L 224.233052 378.454775 
z
" clip-path="url(#pdf1e9d5450)"/>
   </g>
   <g id="patch_72">
    <path d="M 225.293153 384.48 
L 225.440564 384.48 
L 225.440564 362.598919 
L 225.293153 362.598919 
z
" clip-path="url(#pdf1e9d5450)"/>
   </g>
   <g id="patch_73">
    <path d="M 226.536264 384.48 
L 226.683674 384.48 
L 226.683674 353.085405 
L 226.536264 353.085405 
z
" clip-path="url(#pdf1e9d5450)"/>
   </g>
   <g id="patch_74">
    <path d="M 227.67523 384.48 
L 227.82264 384.48 
L 227.82264 376.869189 
L 227.67523 376.869189 
z
" clip-path="url(#pdf1e9d5450)"/>
   </g>
   <g id="patch_75">
    <path d="M 229.63446 384.48 
L 229.78187 384.48 
L 229.78187 375.283604 
L 229.63446 375.283604 
z
" clip-path="url(#pdf1e9d5450)"/>
   </g>
   <g id="patch_76">
    <path d="M 231.47785 384.48 
L 231.625261 384.48 
L 231.625261 382.577297 
L 231.47785 382.577297 
z
" clip-path="url(#pdf1e9d5450)"/>
   </g>
   <g id="patch_77">
    <path d="M 247.66352 384.48 
L 247.81093 384.48 
L 247.81093 226.238559 
L 247.66352 226.238559 
z
" clip-path="url(#pdf1e9d5450)"/>
   </g>
   <g id="patch_78">
    <path d="M 251.508771 384.48 
L 251.656182 384.48 
L 251.656182 384.162883 
L 251.508771 384.162883 
z
" clip-path="url(#pdf1e9d5450)"/>
   </g>
   <g id="patch_79">
    <path d="M 254.952055 384.48 
L 255.099465 384.48 
L 255.099465 368.941261 
L 254.952055 368.941261 
z
" clip-path="url(#pdf1e9d5450)"/>
   </g>
   <g id="patch_80">
    <path d="M 262.588006 384.48 
L 262.735416 384.48 
L 262.735416 382.26018 
L 262.588006 382.26018 
z
" clip-path="url(#pdf1e9d5450)"/>
   </g>
   <g id="patch_81">
    <path d="M 266.534081 384.48 
L 266.681491 384.48 
L 266.681491 380.04036 
L 266.534081 380.04036 
z
" clip-path="url(#pdf1e9d5450)"/>
   </g>
   <g id="patch_82">
    <path d="M 267.380553 384.48 
L 267.527963 384.48 
L 267.527963 321.373694 
L 267.380553 321.373694 
z
" clip-path="url(#pdf1e9d5450)"/>
   </g>
   <g id="patch_83">
    <path d="M 271.879449 384.48 
L 272.026859 384.48 
L 272.026859 382.577297 
L 271.879449 382.577297 
z
" clip-path="url(#pdf1e9d5450)"/>
   </g>
   <g id="patch_84">
    <path d="M 272.125624 384.48 
L 272.273034 384.48 
L 272.273034 383.528649 
L 272.125624 383.528649 
z
" clip-path="url(#pdf1e9d5450)"/>
   </g>
   <g id="patch_85">
    <path d="M 274.43854 384.48 
L 274.585951 384.48 
L 274.585951 289.661982 
L 274.43854 289.661982 
z
" clip-path="url(#pdf1e9d5450)"/>
   </g>
   <g id="patch_86">
    <path d="M 276.889141 384.48 
L 277.036551 384.48 
L 277.036551 353.085405 
L 276.889141 353.085405 
z
" clip-path="url(#pdf1e9d5450)"/>
   </g>
   <g id="patch_87">
    <path d="M 276.939282 384.48 
L 277.086692 384.48 
L 277.086692 289.661982 
L 276.939282 289.661982 
z
" clip-path="url(#pdf1e9d5450)"/>
   </g>
   <g id="patch_88">
    <path d="M 278.900429 384.48 
L 279.047839 384.48 
L 279.047839 375.283604 
L 278.900429 375.283604 
z
" clip-path="url(#pdf1e9d5450)"/>
   </g>
   <g id="patch_89">
    <path d="M 281.993441 384.48 
L 282.140851 384.48 
L 282.140851 365.77009 
L 281.993441 365.77009 
z
" clip-path="url(#pdf1e9d5450)"/>
   </g>
   <g id="patch_90">
    <path d="M 284.721612 384.48 
L 284.869022 384.48 
L 284.869022 289.661982 
L 284.721612 289.661982 
z
" clip-path="url(#pdf1e9d5450)"/>
   </g>
   <g id="patch_91">
    <path d="M 287.667091 384.48 
L 287.814501 384.48 
L 287.814501 194.526847 
L 287.667091 194.526847 
z
" clip-path="url(#pdf1e9d5450)"/>
   </g>
   <g id="patch_92">
    <path d="M 290.891371 384.48 
L 291.038782 384.48 
L 291.038782 162.815135 
L 290.891371 162.815135 
z
" clip-path="url(#pdf1e9d5450)"/>
   </g>
   <g id="patch_93">
    <path d="M 300.219495 384.48 
L 300.366905 384.48 
L 300.366905 162.815135 
L 300.219495 162.815135 
z
" clip-path="url(#pdf1e9d5450)"/>
   </g>
   <g id="patch_94">
    <path d="M 302.689231 384.48 
L 302.836641 384.48 
L 302.836641 67.68 
L 302.689231 67.68 
z
" clip-path="url(#pdf1e9d5450)"/>
   </g>
   <g id="patch_95">
    <path d="M 310.289141 384.48 
L 310.436551 384.48 
L 310.436551 194.526847 
L 310.289141 194.526847 
z
" clip-path="url(#pdf1e9d5450)"/>
   </g>
   <g id="patch_96">
    <path d="M 327.445709 384.48 
L 327.593119 384.48 
L 327.593119 67.68 
L 327.445709 67.68 
z
" clip-path="url(#pdf1e9d5450)"/>
   </g>
   <g id="patch_97">
    <path d="M 329.940185 384.48 
L 330.087596 384.48 
L 330.087596 257.95027 
L 329.940185 257.95027 
z
" clip-path="url(#pdf1e9d5450)"/>
   </g>
   <g id="patch_98">
    <path d="M 333.127221 384.48 
L 333.274631 384.48 
L 333.274631 368.941261 
L 333.127221 368.941261 
z
" clip-path="url(#pdf1e9d5450)"/>
   </g>
   <g id="patch_99">
    <path d="M 340.585346 384.48 
L 340.732756 384.48 
L 340.732756 162.815135 
L 340.585346 162.815135 
z
" clip-path="url(#pdf1e9d5450)"/>
   </g>
   <g id="patch_100">
    <path d="M 343.698578 384.48 
L 343.845988 384.48 
L 343.845988 343.571892 
L 343.698578 343.571892 
z
" clip-path="url(#pdf1e9d5450)"/>
   </g>
   <g id="patch_101">
    <path d="M 350.27202 384.48 
L 350.41943 384.48 
L 350.41943 383.211532 
L 350.27202 383.211532 
z
" clip-path="url(#pdf1e9d5450)"/>
   </g>
   <g id="patch_102">
    <path d="M 356.639408 384.48 
L 356.786818 384.48 
L 356.786818 381.625946 
L 356.639408 381.625946 
z
" clip-path="url(#pdf1e9d5450)"/>
   </g>
   <g id="patch_103">
    <path d="M 360.541456 384.48 
L 360.688867 384.48 
L 360.688867 368.941261 
L 360.541456 368.941261 
z
" clip-path="url(#pdf1e9d5450)"/>
   </g>
   <g id="patch_104">
    <path d="M 365.541392 384.48 
L 365.688802 384.48 
L 365.688802 382.894414 
L 365.541392 382.894414 
z
" clip-path="url(#pdf1e9d5450)"/>
   </g>
   <g id="patch_105">
    <path d="M 369.393095 384.48 
L 369.540506 384.48 
L 369.540506 67.68 
L 369.393095 67.68 
z
" clip-path="url(#pdf1e9d5450)"/>
   </g>
   <g id="patch_106">
    <path d="M 385.55342 384.48 
L 385.70083 384.48 
L 385.70083 381.308829 
L 385.55342 381.308829 
z
" clip-path="url(#pdf1e9d5450)"/>
   </g>
   <g id="patch_107">
    <path d="M 397.371082 384.48 
L 397.518492 384.48 
L 397.518492 375.283604 
L 397.371082 375.283604 
z
" clip-path="url(#pdf1e9d5450)"/>
   </g>
   <g id="patch_108">
    <path d="M 408.026561 384.48 
L 408.173972 384.48 
L 408.173972 382.894414 
L 408.026561 382.894414 
z
" clip-path="url(#pdf1e9d5450)"/>
   </g>
   <g id="patch_109">
    <path d="M 411.090066 384.48 
L 411.237477 384.48 
L 411.237477 378.454775 
L 411.090066 378.454775 
z
" clip-path="url(#pdf1e9d5450)"/>
   </g>
   <g id="patch_110">
    <path d="M 417.415688 384.48 
L 417.563098 384.48 
L 417.563098 368.941261 
L 417.415688 368.941261 
z
" clip-path="url(#pdf1e9d5450)"/>
   </g>
   <g id="patch_111">
    <path d="M 418.913622 384.48 
L 419.061032 384.48 
L 419.061032 382.577297 
L 418.913622 382.577297 
z
" clip-path="url(#pdf1e9d5450)"/>
   </g>
   <g id="patch_112">
    <path d="M 421.633317 384.48 
L 421.780728 384.48 
L 421.780728 380.357477 
L 421.633317 380.357477 
z
" clip-path="url(#pdf1e9d5450)"/>
   </g>
   <g id="patch_113">
    <path d="M 427.955524 384.48 
L 428.102934 384.48 
L 428.102934 382.894414 
L 427.955524 382.894414 
z
" clip-path="url(#pdf1e9d5450)"/>
   </g>
   <g id="patch_114">
    <path d="M 430.393198 384.48 
L 430.540609 384.48 
L 430.540609 375.283604 
L 430.393198 375.283604 
z
" clip-path="url(#pdf1e9d5450)"/>
   </g>
   <g id="patch_115">
    <path d="M 435.085292 384.48 
L 435.232703 384.48 
L 435.232703 375.283604 
L 435.085292 375.283604 
z
" clip-path="url(#pdf1e9d5450)"/>
   </g>
   <g id="patch_116">
    <path d="M 437.99586 384.48 
L 438.14327 384.48 
L 438.14327 381.308829 
L 437.99586 381.308829 
z
" clip-path="url(#pdf1e9d5450)"/>
   </g>
   <g id="patch_117">
    <path d="M 440.35241 384.48 
L 440.49982 384.48 
L 440.49982 375.283604 
L 440.35241 375.283604 
z
" clip-path="url(#pdf1e9d5450)"/>
   </g>
   <g id="patch_118">
    <path d="M 473.889799 384.48 
L 474.037209 384.48 
L 474.037209 380.991712 
L 473.889799 380.991712 
z
" clip-path="url(#pdf1e9d5450)"/>
   </g>
   <g id="patch_119">
    <path d="M 521.032347 384.48 
L 521.179757 384.48 
L 521.179757 321.373694 
L 521.032347 321.373694 
z
" clip-path="url(#pdf1e9d5450)"/>
   </g>
   <g id="patch_120">
    <path d="M 562.377739 384.48 
L 562.52515 384.48 
L 562.52515 226.238559 
L 562.377739 226.238559 
z
" clip-path="url(#pdf1e9d5450)"/>
   </g>
   <g id="patch_121">
    <path d="M 608.958089 384.48 
L 609.105499 384.48 
L 609.105499 226.238559 
L 608.958089 226.238559 
z
" clip-path="url(#pdf1e9d5450)"/>
   </g>
   <g id="patch_122">
    <path d="M 622.195115 384.48 
L 622.342526 384.48 
L 622.342526 359.427748 
L 622.195115 359.427748 
z
" clip-path="url(#pdf1e9d5450)"/>
   </g>
   <g id="patch_123">
    <path d="M 622.488953 384.48 
L 622.636364 384.48 
L 622.636364 378.454775 
L 622.488953 378.454775 
z
" clip-path="url(#pdf1e9d5450)"/>
   </g>
   <g id="matplotlib.axis_1">
    <g id="xtick_1">
     <g id="line2d_1">
      <defs>
       <path id="m6d1e0b51a9" d="M 0 0 
L 0 3.5 
" style="stroke: #000000; stroke-width: 0.8"/>
      </defs>
      <g>
       <use xlink:href="#m6d1e0b51a9" x="103.309172" y="384.48" style="stroke: #000000; stroke-width: 0.8"/>
      </g>
     </g>
     <g id="text_1">
      <!-- 0 -->
      <g transform="translate(100.127922 399.078438) scale(0.1 -0.1)">
       <defs>
        <path id="DejaVuSans-30" d="M 2034 4250 
Q 1547 4250 1301 3770 
Q 1056 3291 1056 2328 
Q 1056 1369 1301 889 
Q 1547 409 2034 409 
Q 2525 409 2770 889 
Q 3016 1369 3016 2328 
Q 3016 3291 2770 3770 
Q 2525 4250 2034 4250 
z
M 2034 4750 
Q 2819 4750 3233 4129 
Q 3647 3509 3647 2328 
Q 3647 1150 3233 529 
Q 2819 -91 2034 -91 
Q 1250 -91 836 529 
Q 422 1150 422 2328 
Q 422 3509 836 4129 
Q 1250 4750 2034 4750 
z
" transform="scale(0.015625)"/>
       </defs>
       <use xlink:href="#DejaVuSans-30"/>
      </g>
     </g>
    </g>
    <g id="xtick_2">
     <g id="line2d_2">
      <g>
       <use xlink:href="#m6d1e0b51a9" x="226.151081" y="384.48" style="stroke: #000000; stroke-width: 0.8"/>
      </g>
     </g>
     <g id="text_2">
      <!-- 5000 -->
      <g transform="translate(213.426081 399.078438) scale(0.1 -0.1)">
       <defs>
        <path id="DejaVuSans-35" d="M 691 4666 
L 3169 4666 
L 3169 4134 
L 1269 4134 
L 1269 2991 
Q 1406 3038 1543 3061 
Q 1681 3084 1819 3084 
Q 2600 3084 3056 2656 
Q 3513 2228 3513 1497 
Q 3513 744 3044 326 
Q 2575 -91 1722 -91 
Q 1428 -91 1123 -41 
Q 819 9 494 109 
L 494 744 
Q 775 591 1075 516 
Q 1375 441 1709 441 
Q 2250 441 2565 725 
Q 2881 1009 2881 1497 
Q 2881 1984 2565 2268 
Q 2250 2553 1709 2553 
Q 1456 2553 1204 2497 
Q 953 2441 691 2322 
L 691 4666 
z
" transform="scale(0.015625)"/>
       </defs>
       <use xlink:href="#DejaVuSans-35"/>
       <use xlink:href="#DejaVuSans-30" x="63.623047"/>
       <use xlink:href="#DejaVuSans-30" x="127.246094"/>
       <use xlink:href="#DejaVuSans-30" x="190.869141"/>
      </g>
     </g>
    </g>
    <g id="xtick_3">
     <g id="line2d_3">
      <g>
       <use xlink:href="#m6d1e0b51a9" x="348.99299" y="384.48" style="stroke: #000000; stroke-width: 0.8"/>
      </g>
     </g>
     <g id="text_3">
      <!-- 10000 -->
      <g transform="translate(333.08674 399.078438) scale(0.1 -0.1)">
       <defs>
        <path id="DejaVuSans-31" d="M 794 531 
L 1825 531 
L 1825 4091 
L 703 3866 
L 703 4441 
L 1819 4666 
L 2450 4666 
L 2450 531 
L 3481 531 
L 3481 0 
L 794 0 
L 794 531 
z
" transform="scale(0.015625)"/>
       </defs>
       <use xlink:href="#DejaVuSans-31"/>
       <use xlink:href="#DejaVuSans-30" x="63.623047"/>
       <use xlink:href="#DejaVuSans-30" x="127.246094"/>
       <use xlink:href="#DejaVuSans-30" x="190.869141"/>
       <use xlink:href="#DejaVuSans-30" x="254.492188"/>
      </g>
     </g>
    </g>
    <g id="xtick_4">
     <g id="line2d_4">
      <g>
       <use xlink:href="#m6d1e0b51a9" x="471.834899" y="384.48" style="stroke: #000000; stroke-width: 0.8"/>
      </g>
     </g>
     <g id="text_4">
      <!-- 15000 -->
      <g transform="translate(455.928649 399.078438) scale(0.1 -0.1)">
       <use xlink:href="#DejaVuSans-31"/>
       <use xlink:href="#DejaVuSans-35" x="63.623047"/>
       <use xlink:href="#DejaVuSans-30" x="127.246094"/>
       <use xlink:href="#DejaVuSans-30" x="190.869141"/>
       <use xlink:href="#DejaVuSans-30" x="254.492188"/>
      </g>
     </g>
    </g>
    <g id="xtick_5">
     <g id="line2d_5">
      <g>
       <use xlink:href="#m6d1e0b51a9" x="594.676808" y="384.48" style="stroke: #000000; stroke-width: 0.8"/>
      </g>
     </g>
     <g id="text_5">
      <!-- 20000 -->
      <g transform="translate(578.770558 399.078438) scale(0.1 -0.1)">
       <defs>
        <path id="DejaVuSans-32" d="M 1228 531 
L 3431 531 
L 3431 0 
L 469 0 
L 469 531 
Q 828 903 1448 1529 
Q 2069 2156 2228 2338 
Q 2531 2678 2651 2914 
Q 2772 3150 2772 3378 
Q 2772 3750 2511 3984 
Q 2250 4219 1831 4219 
Q 1534 4219 1204 4116 
Q 875 4013 500 3803 
L 500 4441 
Q 881 4594 1212 4672 
Q 1544 4750 1819 4750 
Q 2544 4750 2975 4387 
Q 3406 4025 3406 3419 
Q 3406 3131 3298 2873 
Q 3191 2616 2906 2266 
Q 2828 2175 2409 1742 
Q 1991 1309 1228 531 
z
" transform="scale(0.015625)"/>
       </defs>
       <use xlink:href="#DejaVuSans-32"/>
       <use xlink:href="#DejaVuSans-30" x="63.623047"/>
       <use xlink:href="#DejaVuSans-30" x="127.246094"/>
       <use xlink:href="#DejaVuSans-30" x="190.869141"/>
       <use xlink:href="#DejaVuSans-30" x="254.492188"/>
      </g>
     </g>
    </g>
   </g>
   <g id="matplotlib.axis_2">
    <g id="ytick_1">
     <g id="line2d_6">
      <defs>
       <path id="mf687d78eac" d="M 0 0 
L -3.5 0 
" style="stroke: #000000; stroke-width: 0.8"/>
      </defs>
      <g>
       <use xlink:href="#mf687d78eac" x="90" y="384.48" style="stroke: #000000; stroke-width: 0.8"/>
      </g>
     </g>
     <g id="text_6">
      <!-- 0.0 -->
      <g transform="translate(67.096875 388.279219) scale(0.1 -0.1)">
       <defs>
        <path id="DejaVuSans-2e" d="M 684 794 
L 1344 794 
L 1344 0 
L 684 0 
L 684 794 
z
" transform="scale(0.015625)"/>
       </defs>
       <use xlink:href="#DejaVuSans-30"/>
       <use xlink:href="#DejaVuSans-2e" x="63.623047"/>
       <use xlink:href="#DejaVuSans-30" x="95.410156"/>
      </g>
     </g>
    </g>
    <g id="ytick_2">
     <g id="line2d_7">
      <g>
       <use xlink:href="#mf687d78eac" x="90" y="321.12" style="stroke: #000000; stroke-width: 0.8"/>
      </g>
     </g>
     <g id="text_7">
      <!-- 0.2 -->
      <g transform="translate(67.096875 324.919219) scale(0.1 -0.1)">
       <use xlink:href="#DejaVuSans-30"/>
       <use xlink:href="#DejaVuSans-2e" x="63.623047"/>
       <use xlink:href="#DejaVuSans-32" x="95.410156"/>
      </g>
     </g>
    </g>
    <g id="ytick_3">
     <g id="line2d_8">
      <g>
       <use xlink:href="#mf687d78eac" x="90" y="257.76" style="stroke: #000000; stroke-width: 0.8"/>
      </g>
     </g>
     <g id="text_8">
      <!-- 0.4 -->
      <g transform="translate(67.096875 261.559219) scale(0.1 -0.1)">
       <defs>
        <path id="DejaVuSans-34" d="M 2419 4116 
L 825 1625 
L 2419 1625 
L 2419 4116 
z
M 2253 4666 
L 3047 4666 
L 3047 1625 
L 3713 1625 
L 3713 1100 
L 3047 1100 
L 3047 0 
L 2419 0 
L 2419 1100 
L 313 1100 
L 313 1709 
L 2253 4666 
z
" transform="scale(0.015625)"/>
       </defs>
       <use xlink:href="#DejaVuSans-30"/>
       <use xlink:href="#DejaVuSans-2e" x="63.623047"/>
       <use xlink:href="#DejaVuSans-34" x="95.410156"/>
      </g>
     </g>
    </g>
    <g id="ytick_4">
     <g id="line2d_9">
      <g>
       <use xlink:href="#mf687d78eac" x="90" y="194.4" style="stroke: #000000; stroke-width: 0.8"/>
      </g>
     </g>
     <g id="text_9">
      <!-- 0.6 -->
      <g transform="translate(67.096875 198.199219) scale(0.1 -0.1)">
       <defs>
        <path id="DejaVuSans-36" d="M 2113 2584 
Q 1688 2584 1439 2293 
Q 1191 2003 1191 1497 
Q 1191 994 1439 701 
Q 1688 409 2113 409 
Q 2538 409 2786 701 
Q 3034 994 3034 1497 
Q 3034 2003 2786 2293 
Q 2538 2584 2113 2584 
z
M 3366 4563 
L 3366 3988 
Q 3128 4100 2886 4159 
Q 2644 4219 2406 4219 
Q 1781 4219 1451 3797 
Q 1122 3375 1075 2522 
Q 1259 2794 1537 2939 
Q 1816 3084 2150 3084 
Q 2853 3084 3261 2657 
Q 3669 2231 3669 1497 
Q 3669 778 3244 343 
Q 2819 -91 2113 -91 
Q 1303 -91 875 529 
Q 447 1150 447 2328 
Q 447 3434 972 4092 
Q 1497 4750 2381 4750 
Q 2619 4750 2861 4703 
Q 3103 4656 3366 4563 
z
" transform="scale(0.015625)"/>
       </defs>
       <use xlink:href="#DejaVuSans-30"/>
       <use xlink:href="#DejaVuSans-2e" x="63.623047"/>
       <use xlink:href="#DejaVuSans-36" x="95.410156"/>
      </g>
     </g>
    </g>
    <g id="ytick_5">
     <g id="line2d_10">
      <g>
       <use xlink:href="#mf687d78eac" x="90" y="131.04" style="stroke: #000000; stroke-width: 0.8"/>
      </g>
     </g>
     <g id="text_10">
      <!-- 0.8 -->
      <g transform="translate(67.096875 134.839219) scale(0.1 -0.1)">
       <defs>
        <path id="DejaVuSans-38" d="M 2034 2216 
Q 1584 2216 1326 1975 
Q 1069 1734 1069 1313 
Q 1069 891 1326 650 
Q 1584 409 2034 409 
Q 2484 409 2743 651 
Q 3003 894 3003 1313 
Q 3003 1734 2745 1975 
Q 2488 2216 2034 2216 
z
M 1403 2484 
Q 997 2584 770 2862 
Q 544 3141 544 3541 
Q 544 4100 942 4425 
Q 1341 4750 2034 4750 
Q 2731 4750 3128 4425 
Q 3525 4100 3525 3541 
Q 3525 3141 3298 2862 
Q 3072 2584 2669 2484 
Q 3125 2378 3379 2068 
Q 3634 1759 3634 1313 
Q 3634 634 3220 271 
Q 2806 -91 2034 -91 
Q 1263 -91 848 271 
Q 434 634 434 1313 
Q 434 1759 690 2068 
Q 947 2378 1403 2484 
z
M 1172 3481 
Q 1172 3119 1398 2916 
Q 1625 2713 2034 2713 
Q 2441 2713 2670 2916 
Q 2900 3119 2900 3481 
Q 2900 3844 2670 4047 
Q 2441 4250 2034 4250 
Q 1625 4250 1398 4047 
Q 1172 3844 1172 3481 
z
" transform="scale(0.015625)"/>
       </defs>
       <use xlink:href="#DejaVuSans-30"/>
       <use xlink:href="#DejaVuSans-2e" x="63.623047"/>
       <use xlink:href="#DejaVuSans-38" x="95.410156"/>
      </g>
     </g>
    </g>
    <g id="ytick_6">
     <g id="line2d_11">
      <g>
       <use xlink:href="#mf687d78eac" x="90" y="67.68" style="stroke: #000000; stroke-width: 0.8"/>
      </g>
     </g>
     <g id="text_11">
      <!-- 1.0 -->
      <g transform="translate(67.096875 71.479219) scale(0.1 -0.1)">
       <use xlink:href="#DejaVuSans-31"/>
       <use xlink:href="#DejaVuSans-2e" x="63.623047"/>
       <use xlink:href="#DejaVuSans-30" x="95.410156"/>
      </g>
     </g>
    </g>
   </g>
   <g id="patch_124">
    <path d="M 90 384.48 
L 90 51.84 
" style="fill: none; stroke: #000000; stroke-width: 0.8; stroke-linejoin: miter; stroke-linecap: square"/>
   </g>
   <g id="patch_125">
    <path d="M 648 384.48 
L 648 51.84 
" style="fill: none; stroke: #000000; stroke-width: 0.8; stroke-linejoin: miter; stroke-linecap: square"/>
   </g>
   <g id="patch_126">
    <path d="M 90 384.48 
L 648 384.48 
" style="fill: none; stroke: #000000; stroke-width: 0.8; stroke-linejoin: miter; stroke-linecap: square"/>
   </g>
   <g id="patch_127">
    <path d="M 90 51.84 
L 648 51.84 
" style="fill: none; stroke: #000000; stroke-width: 0.8; stroke-linejoin: miter; stroke-linecap: square"/>
   </g>
  </g>
 </g>
 <defs>
  <clipPath id="pdf1e9d5450">
   <rect x="90" y="51.84" width="558" height="332.64"/>
  </clipPath>
 </defs>
</svg>
