<?xml version="1.0" encoding="utf-8" standalone="no"?>
<!DOCTYPE svg PUBLIC "-//W3C//DTD SVG 1.1//EN"
  "http://www.w3.org/Graphics/SVG/1.1/DTD/svg11.dtd">
<svg xmlns:xlink="http://www.w3.org/1999/xlink" width="720pt" height="432pt" viewBox="0 0 720 432" xmlns="http://www.w3.org/2000/svg" version="1.1">
 <metadata>
  <rdf:RDF xmlns:dc="http://purl.org/dc/elements/1.1/" xmlns:cc="http://creativecommons.org/ns#" xmlns:rdf="http://www.w3.org/1999/02/22-rdf-syntax-ns#">
   <cc:Work>
    <dc:type rdf:resource="http://purl.org/dc/dcmitype/StillImage"/>
    <dc:date>2024-03-26T00:15:32.424714</dc:date>
    <dc:format>image/svg+xml</dc:format>
    <dc:creator>
     <cc:Agent>
      <dc:title>Matplotlib v3.7.5, https://matplotlib.org/</dc:title>
     </cc:Agent>
    </dc:creator>
   </cc:Work>
  </rdf:RDF>
 </metadata>
 <defs>
  <style type="text/css">*{stroke-linejoin: round; stroke-linecap: butt}</style>
 </defs>
 <g id="figure_1">
  <g id="patch_1">
   <path d="M 0 432 
L 720 432 
L 720 0 
L 0 0 
z
" style="fill: #ffffff"/>
  </g>
  <g id="axes_1">
   <g id="patch_2">
    <path d="M 90 384.48 
L 648 384.48 
L 648 51.84 
L 90 51.84 
z
" style="fill: #ffffff"/>
   </g>
   <g id="patch_3">
    <path d="M 115.363636 351.58901 
L 117.312451 351.58901 
L 117.312451 351.600314 
L 115.363636 351.600314 
z
" clip-path="url(#p647b16e3d8)" style="fill: #0000ff; opacity: 0.7"/>
   </g>
   <g id="patch_4">
    <path d="M 149.467896 351.58901 
L 151.416711 351.58901 
L 151.416711 351.58901 
L 149.467896 351.58901 
z
" clip-path="url(#p647b16e3d8)" style="fill: #0000ff; opacity: 0.7"/>
   </g>
   <g id="patch_5">
    <path d="M 202.085897 351.58901 
L 204.034711 351.58901 
L 204.034711 352.024791 
L 202.085897 352.024791 
z
" clip-path="url(#p647b16e3d8)" style="fill: #0000ff; opacity: 0.7"/>
   </g>
   <g id="patch_6">
    <path d="M 214.753193 351.58901 
L 216.702008 351.58901 
L 216.702008 352.71166 
L 214.753193 352.71166 
z
" clip-path="url(#p647b16e3d8)" style="fill: #0000ff; opacity: 0.7"/>
   </g>
   <g id="patch_7">
    <path d="M 237.164564 351.58901 
L 239.113378 351.58901 
L 239.113378 353.898118 
L 237.164564 353.898118 
z
" clip-path="url(#p647b16e3d8)" style="fill: #0000ff; opacity: 0.7"/>
   </g>
   <g id="patch_8">
    <path d="M 266.396786 351.58901 
L 268.345601 351.58901 
L 268.345601 351.882951 
L 266.396786 351.882951 
z
" clip-path="url(#p647b16e3d8)" style="fill: #0000ff; opacity: 0.7"/>
   </g>
   <g id="patch_9">
    <path d="M 283.93612 351.58901 
L 285.884935 351.58901 
L 285.884935 356.319318 
L 283.93612 356.319318 
z
" clip-path="url(#p647b16e3d8)" style="fill: #0000ff; opacity: 0.7"/>
   </g>
   <g id="patch_10">
    <path d="M 305.373083 351.58901 
L 307.321898 351.58901 
L 307.321898 351.784482 
L 305.373083 351.784482 
z
" clip-path="url(#p647b16e3d8)" style="fill: #0000ff; opacity: 0.7"/>
   </g>
   <g id="patch_11">
    <path d="M 343.374972 351.58901 
L 345.323787 351.58901 
L 345.323787 353.057423 
L 343.374972 353.057423 
z
" clip-path="url(#p647b16e3d8)" style="fill: #0000ff; opacity: 0.7"/>
   </g>
   <g id="patch_12">
    <path d="M 361.888713 351.58901 
L 363.837528 351.58901 
L 363.837528 354.622408 
L 361.888713 354.622408 
z
" clip-path="url(#p647b16e3d8)" style="fill: #0000ff; opacity: 0.7"/>
   </g>
   <g id="patch_13">
    <path d="M 386.248899 351.58901 
L 388.197713 351.58901 
L 388.197713 354.021419 
L 386.248899 354.021419 
z
" clip-path="url(#p647b16e3d8)" style="fill: #0000ff; opacity: 0.7"/>
   </g>
   <g id="patch_14">
    <path d="M 420.353158 351.58901 
L 422.301973 351.58901 
L 422.301973 362.505106 
L 420.353158 362.505106 
z
" clip-path="url(#p647b16e3d8)" style="fill: #0000ff; opacity: 0.7"/>
   </g>
   <g id="patch_15">
    <path d="M 447.636566 351.58901 
L 449.585381 351.58901 
L 449.585381 359.822643 
L 447.636566 359.822643 
z
" clip-path="url(#p647b16e3d8)" style="fill: #0000ff; opacity: 0.7"/>
   </g>
   <g id="patch_16">
    <path d="M 478.817603 351.58901 
L 480.766418 351.58901 
L 480.766418 363.324244 
L 478.817603 363.324244 
z
" clip-path="url(#p647b16e3d8)" style="fill: #0000ff; opacity: 0.7"/>
   </g>
   <g id="patch_17">
    <path d="M 511.947455 351.58901 
L 513.89627 351.58901 
L 513.89627 359.401003 
L 511.947455 359.401003 
z
" clip-path="url(#p647b16e3d8)" style="fill: #0000ff; opacity: 0.7"/>
   </g>
   <g id="patch_18">
    <path d="M 534.358826 351.58901 
L 536.307641 351.58901 
L 536.307641 369.36 
L 534.358826 369.36 
z
" clip-path="url(#p647b16e3d8)" style="fill: #0000ff; opacity: 0.7"/>
   </g>
   <g id="patch_19">
    <path d="M 589.900049 351.58901 
L 591.848864 351.58901 
L 591.848864 355.313933 
L 589.900049 355.313933 
z
" clip-path="url(#p647b16e3d8)" style="fill: #0000ff; opacity: 0.7"/>
   </g>
   <g id="patch_20">
    <path d="M 619.132271 351.58901 
L 621.081086 351.58901 
L 621.081086 357.829119 
L 619.132271 357.829119 
z
" clip-path="url(#p647b16e3d8)" style="fill: #0000ff; opacity: 0.7"/>
   </g>
   <g id="patch_21">
    <path d="M 334.898591 351.58901 
L 335.288354 351.58901 
L 335.288354 347.460793 
L 334.898591 347.460793 
z
" clip-path="url(#p647b16e3d8)" style="opacity: 0.7"/>
   </g>
   <g id="patch_22">
    <path d="M 338.458655 351.58901 
L 338.848418 351.58901 
L 338.848418 345.035468 
L 338.458655 345.035468 
z
" clip-path="url(#p647b16e3d8)" style="opacity: 0.7"/>
   </g>
   <g id="patch_23">
    <path d="M 340.492977 351.58901 
L 340.88274 351.58901 
L 340.88274 344.615585 
L 340.492977 344.615585 
z
" clip-path="url(#p647b16e3d8)" style="opacity: 0.7"/>
   </g>
   <g id="patch_24">
    <path d="M 343.54446 351.58901 
L 343.934223 351.58901 
L 343.934223 331.733832 
L 343.54446 331.733832 
z
" clip-path="url(#p647b16e3d8)" style="opacity: 0.7"/>
   </g>
   <g id="patch_25">
    <path d="M 348.121685 351.58901 
L 348.511448 351.58901 
L 348.511448 340.229078 
L 348.121685 340.229078 
z
" clip-path="url(#p647b16e3d8)" style="opacity: 0.7"/>
   </g>
   <g id="patch_26">
    <path d="M 349.138846 351.58901 
L 349.528609 351.58901 
L 349.528609 340.390639 
L 349.138846 340.390639 
z
" clip-path="url(#p647b16e3d8)" style="opacity: 0.7"/>
   </g>
   <g id="patch_27">
    <path d="M 354.224652 351.58901 
L 354.614415 351.58901 
L 354.614415 324.570989 
L 354.224652 324.570989 
z
" clip-path="url(#p647b16e3d8)" style="opacity: 0.7"/>
   </g>
   <g id="patch_28">
    <path d="M 356.767554 351.58901 
L 357.157317 351.58901 
L 357.157317 314.371184 
L 356.767554 314.371184 
z
" clip-path="url(#p647b16e3d8)" style="opacity: 0.7"/>
   </g>
   <g id="patch_29">
    <path d="M 360.327618 351.58901 
L 360.717381 351.58901 
L 360.717381 329.096007 
L 360.327618 329.096007 
z
" clip-path="url(#p647b16e3d8)" style="opacity: 0.7"/>
   </g>
   <g id="patch_30">
    <path d="M 362.361941 351.58901 
L 362.751703 351.58901 
L 362.751703 328.956103 
L 362.361941 328.956103 
z
" clip-path="url(#p647b16e3d8)" style="opacity: 0.7"/>
   </g>
   <g id="patch_31">
    <path d="M 365.922004 351.58901 
L 366.311767 351.58901 
L 366.311767 343.025511 
L 365.922004 343.025511 
z
" clip-path="url(#p647b16e3d8)" style="opacity: 0.7"/>
   </g>
   <g id="patch_32">
    <path d="M 367.447746 351.58901 
L 367.837509 351.58901 
L 367.837509 345.099917 
L 367.447746 345.099917 
z
" clip-path="url(#p647b16e3d8)" style="opacity: 0.7"/>
   </g>
   <g id="patch_33">
    <path d="M 371.51639 351.58901 
L 371.906153 351.58901 
L 371.906153 345.063715 
L 371.51639 345.063715 
z
" clip-path="url(#p647b16e3d8)" style="opacity: 0.7"/>
   </g>
   <g id="patch_34">
    <path d="M 375.585035 351.58901 
L 375.974798 351.58901 
L 375.974798 347.408668 
L 375.585035 347.408668 
z
" clip-path="url(#p647b16e3d8)" style="opacity: 0.7"/>
   </g>
   <g id="patch_35">
    <path d="M 378.636518 351.58901 
L 379.026281 351.58901 
L 379.026281 348.824142 
L 378.636518 348.824142 
z
" clip-path="url(#p647b16e3d8)" style="opacity: 0.7"/>
   </g>
   <g id="patch_36">
    <path d="M 380.16226 351.58901 
L 380.552023 351.58901 
L 380.552023 348.605283 
L 380.16226 348.605283 
z
" clip-path="url(#p647b16e3d8)" style="opacity: 0.7"/>
   </g>
   <g id="patch_37">
    <path d="M 382.705162 351.58901 
L 383.094925 351.58901 
L 383.094925 350.184182 
L 382.705162 350.184182 
z
" clip-path="url(#p647b16e3d8)" style="opacity: 0.7"/>
   </g>
   <g id="patch_38">
    <path d="M 385.248065 351.58901 
L 385.637828 351.58901 
L 385.637828 348.775133 
L 385.248065 348.775133 
z
" clip-path="url(#p647b16e3d8)" style="opacity: 0.7"/>
   </g>
   <g id="patch_39">
    <path d="M 387.790968 351.58901 
L 388.180731 351.58901 
L 388.180731 343.251959 
L 387.790968 343.251959 
z
" clip-path="url(#p647b16e3d8)" style="opacity: 0.7"/>
   </g>
   <g id="patch_40">
    <path d="M 389.82529 351.58901 
L 390.215053 351.58901 
L 390.215053 326.803428 
L 389.82529 326.803428 
z
" clip-path="url(#p647b16e3d8)" style="opacity: 0.7"/>
   </g>
   <g id="patch_41">
    <path d="M 394.911096 351.58901 
L 395.300859 351.58901 
L 395.300859 348.738673 
L 394.911096 348.738673 
z
" clip-path="url(#p647b16e3d8)" style="opacity: 0.7"/>
   </g>
   <g id="patch_42">
    <path d="M 396.945418 351.58901 
L 397.335181 351.58901 
L 397.335181 339.271716 
L 396.945418 339.271716 
z
" clip-path="url(#p647b16e3d8)" style="opacity: 0.7"/>
   </g>
   <g id="patch_43">
    <path d="M 399.996901 351.58901 
L 400.386664 351.58901 
L 400.386664 342.769488 
L 399.996901 342.769488 
z
" clip-path="url(#p647b16e3d8)" style="opacity: 0.7"/>
   </g>
   <g id="patch_44">
    <path d="M 404.574126 351.58901 
L 404.963889 351.58901 
L 404.963889 345.815769 
L 404.574126 345.815769 
z
" clip-path="url(#p647b16e3d8)" style="opacity: 0.7"/>
   </g>
   <g id="patch_45">
    <path d="M 407.625609 351.58901 
L 408.015372 351.58901 
L 408.015372 344.11983 
L 407.625609 344.11983 
z
" clip-path="url(#p647b16e3d8)" style="opacity: 0.7"/>
   </g>
   <g id="patch_46">
    <path d="M 410.677093 351.58901 
L 411.066856 351.58901 
L 411.066856 344.917828 
L 410.677093 344.917828 
z
" clip-path="url(#p647b16e3d8)" style="opacity: 0.7"/>
   </g>
   <g id="patch_47">
    <path d="M 413.728576 351.58901 
L 414.118339 351.58901 
L 414.118339 329.067944 
L 413.728576 329.067944 
z
" clip-path="url(#p647b16e3d8)" style="opacity: 0.7"/>
   </g>
   <g id="patch_48">
    <path d="M 417.28864 351.58901 
L 417.678403 351.58901 
L 417.678403 336.076779 
L 417.28864 336.076779 
z
" clip-path="url(#p647b16e3d8)" style="opacity: 0.7"/>
   </g>
   <g id="patch_49">
    <path d="M 420.848704 351.58901 
L 421.238467 351.58901 
L 421.238467 66.96 
L 420.848704 66.96 
z
" clip-path="url(#p647b16e3d8)" style="opacity: 0.7"/>
   </g>
   <g id="patch_50">
    <path d="M 425.934509 351.58901 
L 426.324272 351.58901 
L 426.324272 347.653255 
L 425.934509 347.653255 
z
" clip-path="url(#p647b16e3d8)" style="opacity: 0.7"/>
   </g>
   <g id="patch_51">
    <path d="M 428.985992 351.58901 
L 429.375755 351.58901 
L 429.375755 330.214752 
L 428.985992 330.214752 
z
" clip-path="url(#p647b16e3d8)" style="opacity: 0.7"/>
   </g>
   <g id="patch_52">
    <path d="M 432.546056 351.58901 
L 432.935819 351.58901 
L 432.935819 294.361409 
L 432.546056 294.361409 
z
" clip-path="url(#p647b16e3d8)" style="opacity: 0.7"/>
   </g>
   <g id="patch_53">
    <path d="M 436.10612 351.58901 
L 436.495883 351.58901 
L 436.495883 324.465783 
L 436.10612 324.465783 
z
" clip-path="url(#p647b16e3d8)" style="opacity: 0.7"/>
   </g>
   <g id="patch_54">
    <path d="M 438.140442 351.58901 
L 438.530205 351.58901 
L 438.530205 345.232061 
L 438.140442 345.232061 
z
" clip-path="url(#p647b16e3d8)" style="opacity: 0.7"/>
   </g>
   <g id="patch_55">
    <path d="M 441.700506 351.58901 
L 442.090269 351.58901 
L 442.090269 347.16882 
L 441.700506 347.16882 
z
" clip-path="url(#p647b16e3d8)" style="opacity: 0.7"/>
   </g>
   <g id="patch_56">
    <path d="M 445.26057 351.58901 
L 445.650333 351.58901 
L 445.650333 344.283899 
L 445.26057 344.283899 
z
" clip-path="url(#p647b16e3d8)" style="opacity: 0.7"/>
   </g>
   <g id="patch_57">
    <path d="M 447.803473 351.58901 
L 448.193236 351.58901 
L 448.193236 321.572646 
L 447.803473 321.572646 
z
" clip-path="url(#p647b16e3d8)" style="opacity: 0.7"/>
   </g>
   <g id="patch_58">
    <path d="M 451.363536 351.58901 
L 451.753299 351.58901 
L 451.753299 284.350615 
L 451.363536 284.350615 
z
" clip-path="url(#p647b16e3d8)" style="opacity: 0.7"/>
   </g>
   <g id="patch_59">
    <path d="M 456.957922 351.58901 
L 457.347685 351.58901 
L 457.347685 321.625769 
L 456.957922 321.625769 
z
" clip-path="url(#p647b16e3d8)" style="opacity: 0.7"/>
   </g>
   <g id="patch_60">
    <path d="M 463.060889 351.58901 
L 463.450652 351.58901 
L 463.450652 336.763734 
L 463.060889 336.763734 
z
" clip-path="url(#p647b16e3d8)" style="opacity: 0.7"/>
   </g>
   <g id="patch_61">
    <path d="M 466.620953 351.58901 
L 467.010716 351.58901 
L 467.010716 342.233464 
L 466.620953 342.233464 
z
" clip-path="url(#p647b16e3d8)" style="opacity: 0.7"/>
   </g>
   <g id="patch_62">
    <path d="M 468.655275 351.58901 
L 469.045038 351.58901 
L 469.045038 330.987477 
L 468.655275 330.987477 
z
" clip-path="url(#p647b16e3d8)" style="opacity: 0.7"/>
   </g>
   <g id="patch_63">
    <path d="M 470.689597 351.58901 
L 471.07936 351.58901 
L 471.07936 341.149904 
L 470.689597 341.149904 
z
" clip-path="url(#p647b16e3d8)" style="opacity: 0.7"/>
   </g>
   <g id="patch_64">
    <path d="M 473.741081 351.58901 
L 474.130844 351.58901 
L 474.130844 272.158002 
L 473.741081 272.158002 
z
" clip-path="url(#p647b16e3d8)" style="opacity: 0.7"/>
   </g>
   <g id="patch_65">
    <path d="M 478.318306 351.58901 
L 478.708068 351.58901 
L 478.708068 300.835079 
L 478.318306 300.835079 
z
" clip-path="url(#p647b16e3d8)" style="opacity: 0.7"/>
   </g>
   <g id="patch_66">
    <path d="M 479.844047 351.58901 
L 480.23381 351.58901 
L 480.23381 264.66038 
L 479.844047 264.66038 
z
" clip-path="url(#p647b16e3d8)" style="opacity: 0.7"/>
   </g>
   <g id="patch_67">
    <path d="M 481.878369 351.58901 
L 482.268132 351.58901 
L 482.268132 159.925098 
L 481.878369 159.925098 
z
" clip-path="url(#p647b16e3d8)" style="opacity: 0.7"/>
   </g>
   <g id="patch_68">
    <path d="M 486.964175 351.58901 
L 487.353938 351.58901 
L 487.353938 336.105969 
L 486.964175 336.105969 
z
" clip-path="url(#p647b16e3d8)" style="opacity: 0.7"/>
   </g>
   <g id="patch_69">
    <path d="M 488.998497 351.58901 
L 489.38826 351.58901 
L 489.38826 339.389214 
L 488.998497 339.389214 
z
" clip-path="url(#p647b16e3d8)" style="opacity: 0.7"/>
   </g>
   <g id="patch_70">
    <path d="M 493.067141 351.58901 
L 493.456904 351.58901 
L 493.456904 212.752449 
L 493.067141 212.752449 
z
" clip-path="url(#p647b16e3d8)" style="opacity: 0.7"/>
   </g>
   <g id="patch_71">
    <path d="M 496.627205 351.58901 
L 497.016968 351.58901 
L 497.016968 292.881397 
L 496.627205 292.881397 
z
" clip-path="url(#p647b16e3d8)" style="opacity: 0.7"/>
   </g>
   <g id="patch_72">
    <path d="M 501.20443 351.58901 
L 501.594193 351.58901 
L 501.594193 311.972129 
L 501.20443 311.972129 
z
" clip-path="url(#p647b16e3d8)" style="opacity: 0.7"/>
   </g>
   <g id="patch_73">
    <path d="M 507.815977 351.58901 
L 508.20574 351.58901 
L 508.20574 211.397497 
L 507.815977 211.397497 
z
" clip-path="url(#p647b16e3d8)" style="opacity: 0.7"/>
   </g>
   <g id="patch_74">
    <path d="M 510.35888 351.58901 
L 510.748643 351.58901 
L 510.748643 267.333308 
L 510.35888 267.333308 
z
" clip-path="url(#p647b16e3d8)" style="opacity: 0.7"/>
   </g>
   <g id="patch_75">
    <path d="M 514.936105 351.58901 
L 515.325868 351.58901 
L 515.325868 314.485661 
L 514.936105 314.485661 
z
" clip-path="url(#p647b16e3d8)" style="opacity: 0.7"/>
   </g>
   <g id="patch_76">
    <path d="M 516.461847 351.58901 
L 516.85161 351.58901 
L 516.85161 310.441409 
L 516.461847 310.441409 
z
" clip-path="url(#p647b16e3d8)" style="opacity: 0.7"/>
   </g>
   <g id="patch_77">
    <path d="M 518.496169 351.58901 
L 518.885932 351.58901 
L 518.885932 322.54773 
L 518.496169 322.54773 
z
" clip-path="url(#p647b16e3d8)" style="opacity: 0.7"/>
   </g>
   <g id="patch_78">
    <path d="M 521.039072 351.58901 
L 521.428835 351.58901 
L 521.428835 321.975519 
L 521.039072 321.975519 
z
" clip-path="url(#p647b16e3d8)" style="opacity: 0.7"/>
   </g>
   <g id="patch_79">
    <path d="M 526.124877 351.58901 
L 526.51464 351.58901 
L 526.51464 291.905847 
L 526.124877 291.905847 
z
" clip-path="url(#p647b16e3d8)" style="opacity: 0.7"/>
   </g>
   <g id="patch_80">
    <path d="M 530.193521 351.58901 
L 530.583284 351.58901 
L 530.583284 341.37323 
L 530.193521 341.37323 
z
" clip-path="url(#p647b16e3d8)" style="opacity: 0.7"/>
   </g>
   <g id="patch_81">
    <path d="M 534.770746 351.58901 
L 535.160509 351.58901 
L 535.160509 106.902163 
L 534.770746 106.902163 
z
" clip-path="url(#p647b16e3d8)" style="opacity: 0.7"/>
   </g>
   <g id="patch_82">
    <path d="M 536.805069 351.58901 
L 537.194832 351.58901 
L 537.194832 326.0955 
L 536.805069 326.0955 
z
" clip-path="url(#p647b16e3d8)" style="opacity: 0.7"/>
   </g>
   <g id="patch_83">
    <path d="M 542.399455 351.58901 
L 542.789218 351.58901 
L 542.789218 310.454417 
L 542.399455 310.454417 
z
" clip-path="url(#p647b16e3d8)" style="opacity: 0.7"/>
   </g>
   <g id="patch_84">
    <path d="M 544.433777 351.58901 
L 544.82354 351.58901 
L 544.82354 343.048954 
L 544.433777 343.048954 
z
" clip-path="url(#p647b16e3d8)" style="opacity: 0.7"/>
   </g>
   <g id="patch_85">
    <path d="M 546.468099 351.58901 
L 546.857862 351.58901 
L 546.857862 347.541482 
L 546.468099 347.541482 
z
" clip-path="url(#p647b16e3d8)" style="opacity: 0.7"/>
   </g>
   <g id="patch_86">
    <path d="M 549.011002 351.58901 
L 549.400765 351.58901 
L 549.400765 256.392537 
L 549.011002 256.392537 
z
" clip-path="url(#p647b16e3d8)" style="opacity: 0.7"/>
   </g>
   <g id="patch_87">
    <path d="M 552.571066 351.58901 
L 552.960829 351.58901 
L 552.960829 348.21457 
L 552.571066 348.21457 
z
" clip-path="url(#p647b16e3d8)" style="opacity: 0.7"/>
   </g>
   <g id="patch_88">
    <path d="M 555.622549 351.58901 
L 556.012312 351.58901 
L 556.012312 294.388837 
L 555.622549 294.388837 
z
" clip-path="url(#p647b16e3d8)" style="opacity: 0.7"/>
   </g>
   <g id="patch_89">
    <path d="M 557.656871 351.58901 
L 558.046634 351.58901 
L 558.046634 317.713616 
L 557.656871 317.713616 
z
" clip-path="url(#p647b16e3d8)" style="opacity: 0.7"/>
   </g>
   <g id="patch_90">
    <path d="M 561.725515 351.58901 
L 562.115278 351.58901 
L 562.115278 306.068647 
L 561.725515 306.068647 
z
" clip-path="url(#p647b16e3d8)" style="opacity: 0.7"/>
   </g>
   <g id="patch_91">
    <path d="M 565.285579 351.58901 
L 565.675342 351.58901 
L 565.675342 347.04421 
L 565.285579 347.04421 
z
" clip-path="url(#p647b16e3d8)" style="opacity: 0.7"/>
   </g>
   <g id="patch_92">
    <path d="M 566.811321 351.58901 
L 567.201084 351.58901 
L 567.201084 347.635576 
L 566.811321 347.635576 
z
" clip-path="url(#p647b16e3d8)" style="opacity: 0.7"/>
   </g>
   <g id="patch_93">
    <path d="M 570.879965 351.58901 
L 571.269728 351.58901 
L 571.269728 300.012563 
L 570.879965 300.012563 
z
" clip-path="url(#p647b16e3d8)" style="opacity: 0.7"/>
   </g>
   <g id="patch_94">
    <path d="M 575.965771 351.58901 
L 576.355534 351.58901 
L 576.355534 351.195054 
L 575.965771 351.195054 
z
" clip-path="url(#p647b16e3d8)" style="opacity: 0.7"/>
   </g>
   <g id="patch_95">
    <path d="M 576.982932 351.58901 
L 577.372695 351.58901 
L 577.372695 351.231559 
L 576.982932 351.231559 
z
" clip-path="url(#p647b16e3d8)" style="opacity: 0.7"/>
   </g>
   <g id="patch_96">
    <path d="M 579.525835 351.58901 
L 579.915598 351.58901 
L 579.915598 342.986105 
L 579.525835 342.986105 
z
" clip-path="url(#p647b16e3d8)" style="opacity: 0.7"/>
   </g>
   <g id="patch_97">
    <path d="M 581.560157 351.58901 
L 581.94992 351.58901 
L 581.94992 301.583889 
L 581.560157 301.583889 
z
" clip-path="url(#p647b16e3d8)" style="opacity: 0.7"/>
   </g>
   <g id="patch_98">
    <path d="M 584.61164 351.58901 
L 585.001403 351.58901 
L 585.001403 314.994418 
L 584.61164 314.994418 
z
" clip-path="url(#p647b16e3d8)" style="opacity: 0.7"/>
   </g>
   <g id="patch_99">
    <path d="M 586.137382 351.58901 
L 586.527145 351.58901 
L 586.527145 318.817352 
L 586.137382 318.817352 
z
" clip-path="url(#p647b16e3d8)" style="opacity: 0.7"/>
   </g>
   <g id="patch_100">
    <path d="M 589.697446 351.58901 
L 590.087209 351.58901 
L 590.087209 347.943481 
L 589.697446 347.943481 
z
" clip-path="url(#p647b16e3d8)" style="opacity: 0.7"/>
   </g>
   <g id="patch_101">
    <path d="M 591.731768 351.58901 
L 592.121531 351.58901 
L 592.121531 232.183257 
L 591.731768 232.183257 
z
" clip-path="url(#p647b16e3d8)" style="opacity: 0.7"/>
   </g>
   <g id="patch_102">
    <path d="M 597.326154 351.58901 
L 597.715917 351.58901 
L 597.715917 350.838683 
L 597.326154 350.838683 
z
" clip-path="url(#p647b16e3d8)" style="opacity: 0.7"/>
   </g>
   <g id="patch_103">
    <path d="M 599.869057 351.58901 
L 600.25882 351.58901 
L 600.25882 302.090576 
L 599.869057 302.090576 
z
" clip-path="url(#p647b16e3d8)" style="opacity: 0.7"/>
   </g>
   <g id="patch_104">
    <path d="M 605.972023 351.58901 
L 606.361786 351.58901 
L 606.361786 350.098534 
L 605.972023 350.098534 
z
" clip-path="url(#p647b16e3d8)" style="opacity: 0.7"/>
   </g>
   <g id="patch_105">
    <path d="M 608.006345 351.58901 
L 608.396108 351.58901 
L 608.396108 330.169317 
L 608.006345 330.169317 
z
" clip-path="url(#p647b16e3d8)" style="opacity: 0.7"/>
   </g>
   <g id="patch_106">
    <path d="M 611.566409 351.58901 
L 611.956172 351.58901 
L 611.956172 349.386222 
L 611.566409 349.386222 
z
" clip-path="url(#p647b16e3d8)" style="opacity: 0.7"/>
   </g>
   <g id="patch_107">
    <path d="M 614.109312 351.58901 
L 614.499075 351.58901 
L 614.499075 290.43386 
L 614.109312 290.43386 
z
" clip-path="url(#p647b16e3d8)" style="opacity: 0.7"/>
   </g>
   <g id="patch_108">
    <path d="M 616.143634 351.58901 
L 616.533397 351.58901 
L 616.533397 333.793339 
L 616.143634 333.793339 
z
" clip-path="url(#p647b16e3d8)" style="opacity: 0.7"/>
   </g>
   <g id="patch_109">
    <path d="M 619.195117 351.58901 
L 619.58488 351.58901 
L 619.58488 349.219799 
L 619.195117 349.219799 
z
" clip-path="url(#p647b16e3d8)" style="opacity: 0.7"/>
   </g>
   <g id="patch_110">
    <path d="M 622.246601 351.58901 
L 622.636364 351.58901 
L 622.636364 238.157607 
L 622.246601 238.157607 
z
" clip-path="url(#p647b16e3d8)" style="opacity: 0.7"/>
   </g>
   <g id="patch_111">
    <path d="M 115.363636 351.58901 
L 115.948281 351.58901 
L 115.948281 347.460793 
L 115.363636 347.460793 
z
" clip-path="url(#p647b16e3d8)" style="fill: #ff0000"/>
   </g>
   <g id="patch_112">
    <path d="M 115.363636 351.58901 
L 115.948281 351.58901 
L 115.948281 345.035468 
L 115.363636 345.035468 
z
" clip-path="url(#p647b16e3d8)" style="fill: #ff0000"/>
   </g>
   <g id="patch_113">
    <path d="M 115.363636 351.58901 
L 115.948281 351.58901 
L 115.948281 344.615585 
L 115.363636 344.615585 
z
" clip-path="url(#p647b16e3d8)" style="fill: #ff0000"/>
   </g>
   <g id="patch_114">
    <path d="M 115.363636 351.58901 
L 115.948281 351.58901 
L 115.948281 331.733832 
L 115.363636 331.733832 
z
" clip-path="url(#p647b16e3d8)" style="fill: #ff0000"/>
   </g>
   <g id="patch_115">
    <path d="M 115.363636 351.58901 
L 115.948281 351.58901 
L 115.948281 340.229078 
L 115.363636 340.229078 
z
" clip-path="url(#p647b16e3d8)" style="fill: #ff0000"/>
   </g>
   <g id="patch_116">
    <path d="M 115.363636 351.58901 
L 115.948281 351.58901 
L 115.948281 340.390639 
L 115.363636 340.390639 
z
" clip-path="url(#p647b16e3d8)" style="fill: #ff0000"/>
   </g>
   <g id="patch_117">
    <path d="M 115.363636 351.58901 
L 115.948281 351.58901 
L 115.948281 324.570989 
L 115.363636 324.570989 
z
" clip-path="url(#p647b16e3d8)" style="fill: #ff0000"/>
   </g>
   <g id="patch_118">
    <path d="M 115.363636 351.58901 
L 115.948281 351.58901 
L 115.948281 314.371184 
L 115.363636 314.371184 
z
" clip-path="url(#p647b16e3d8)" style="fill: #ff0000"/>
   </g>
   <g id="patch_119">
    <path d="M 115.363636 351.58901 
L 115.948281 351.58901 
L 115.948281 329.096007 
L 115.363636 329.096007 
z
" clip-path="url(#p647b16e3d8)" style="fill: #ff0000"/>
   </g>
   <g id="patch_120">
    <path d="M 115.363636 351.58901 
L 115.948281 351.58901 
L 115.948281 328.956103 
L 115.363636 328.956103 
z
" clip-path="url(#p647b16e3d8)" style="fill: #ff0000"/>
   </g>
   <g id="patch_121">
    <path d="M 115.363636 351.58901 
L 115.948281 351.58901 
L 115.948281 343.025511 
L 115.363636 343.025511 
z
" clip-path="url(#p647b16e3d8)" style="fill: #ff0000"/>
   </g>
   <g id="patch_122">
    <path d="M 115.363636 351.58901 
L 115.948281 351.58901 
L 115.948281 345.099917 
L 115.363636 345.099917 
z
" clip-path="url(#p647b16e3d8)" style="fill: #ff0000"/>
   </g>
   <g id="patch_123">
    <path d="M 115.363636 351.58901 
L 115.948281 351.58901 
L 115.948281 345.063715 
L 115.363636 345.063715 
z
" clip-path="url(#p647b16e3d8)" style="fill: #ff0000"/>
   </g>
   <g id="patch_124">
    <path d="M 115.363636 351.58901 
L 115.948281 351.58901 
L 115.948281 347.408668 
L 115.363636 347.408668 
z
" clip-path="url(#p647b16e3d8)" style="fill: #ff0000"/>
   </g>
   <g id="patch_125">
    <path d="M 115.363636 351.58901 
L 115.948281 351.58901 
L 115.948281 348.824142 
L 115.363636 348.824142 
z
" clip-path="url(#p647b16e3d8)" style="fill: #ff0000"/>
   </g>
   <g id="patch_126">
    <path d="M 115.363636 351.58901 
L 115.948281 351.58901 
L 115.948281 348.605283 
L 115.363636 348.605283 
z
" clip-path="url(#p647b16e3d8)" style="fill: #ff0000"/>
   </g>
   <g id="patch_127">
    <path d="M 115.363636 351.58901 
L 115.948281 351.58901 
L 115.948281 350.184182 
L 115.363636 350.184182 
z
" clip-path="url(#p647b16e3d8)" style="fill: #ff0000"/>
   </g>
   <g id="patch_128">
    <path d="M 115.363636 351.58901 
L 115.948281 351.58901 
L 115.948281 348.775133 
L 115.363636 348.775133 
z
" clip-path="url(#p647b16e3d8)" style="fill: #ff0000"/>
   </g>
   <g id="patch_129">
    <path d="M 115.363636 351.58901 
L 115.948281 351.58901 
L 115.948281 343.251959 
L 115.363636 343.251959 
z
" clip-path="url(#p647b16e3d8)" style="fill: #ff0000"/>
   </g>
   <g id="patch_130">
    <path d="M 115.363636 351.58901 
L 115.948281 351.58901 
L 115.948281 326.803428 
L 115.363636 326.803428 
z
" clip-path="url(#p647b16e3d8)" style="fill: #ff0000"/>
   </g>
   <g id="patch_131">
    <path d="M 115.363636 351.58901 
L 115.948281 351.58901 
L 115.948281 348.738673 
L 115.363636 348.738673 
z
" clip-path="url(#p647b16e3d8)" style="fill: #ff0000"/>
   </g>
   <g id="patch_132">
    <path d="M 115.363636 351.58901 
L 115.948281 351.58901 
L 115.948281 339.271716 
L 115.363636 339.271716 
z
" clip-path="url(#p647b16e3d8)" style="fill: #ff0000"/>
   </g>
   <g id="patch_133">
    <path d="M 115.363636 351.58901 
L 115.948281 351.58901 
L 115.948281 342.769488 
L 115.363636 342.769488 
z
" clip-path="url(#p647b16e3d8)" style="fill: #ff0000"/>
   </g>
   <g id="patch_134">
    <path d="M 115.363636 351.58901 
L 115.948281 351.58901 
L 115.948281 345.815769 
L 115.363636 345.815769 
z
" clip-path="url(#p647b16e3d8)" style="fill: #ff0000"/>
   </g>
   <g id="patch_135">
    <path d="M 115.363636 351.58901 
L 115.948281 351.58901 
L 115.948281 344.11983 
L 115.363636 344.11983 
z
" clip-path="url(#p647b16e3d8)" style="fill: #ff0000"/>
   </g>
   <g id="patch_136">
    <path d="M 115.363636 351.58901 
L 115.948281 351.58901 
L 115.948281 344.917828 
L 115.363636 344.917828 
z
" clip-path="url(#p647b16e3d8)" style="fill: #ff0000"/>
   </g>
   <g id="patch_137">
    <path d="M 202.085897 351.58901 
L 202.670541 351.58901 
L 202.670541 329.067944 
L 202.085897 329.067944 
z
" clip-path="url(#p647b16e3d8)" style="fill: #ff0000"/>
   </g>
   <g id="patch_138">
    <path d="M 202.085897 351.58901 
L 202.670541 351.58901 
L 202.670541 336.076779 
L 202.085897 336.076779 
z
" clip-path="url(#p647b16e3d8)" style="fill: #ff0000"/>
   </g>
   <g id="patch_139">
    <path d="M 202.085897 351.58901 
L 202.670541 351.58901 
L 202.670541 66.96 
L 202.085897 66.96 
z
" clip-path="url(#p647b16e3d8)" style="fill: #ff0000"/>
   </g>
   <g id="patch_140">
    <path d="M 202.085897 351.58901 
L 202.670541 351.58901 
L 202.670541 347.653255 
L 202.085897 347.653255 
z
" clip-path="url(#p647b16e3d8)" style="fill: #ff0000"/>
   </g>
   <g id="patch_141">
    <path d="M 202.085897 351.58901 
L 202.670541 351.58901 
L 202.670541 330.214752 
L 202.085897 330.214752 
z
" clip-path="url(#p647b16e3d8)" style="fill: #ff0000"/>
   </g>
   <g id="patch_142">
    <path d="M 202.085897 351.58901 
L 202.670541 351.58901 
L 202.670541 294.361409 
L 202.085897 294.361409 
z
" clip-path="url(#p647b16e3d8)" style="fill: #ff0000"/>
   </g>
   <g id="patch_143">
    <path d="M 202.085897 351.58901 
L 202.670541 351.58901 
L 202.670541 324.465783 
L 202.085897 324.465783 
z
" clip-path="url(#p647b16e3d8)" style="fill: #ff0000"/>
   </g>
   <g id="patch_144">
    <path d="M 202.085897 351.58901 
L 202.670541 351.58901 
L 202.670541 345.232061 
L 202.085897 345.232061 
z
" clip-path="url(#p647b16e3d8)" style="fill: #ff0000"/>
   </g>
   <g id="patch_145">
    <path d="M 202.085897 351.58901 
L 202.670541 351.58901 
L 202.670541 347.16882 
L 202.085897 347.16882 
z
" clip-path="url(#p647b16e3d8)" style="fill: #ff0000"/>
   </g>
   <g id="patch_146">
    <path d="M 202.085897 351.58901 
L 202.670541 351.58901 
L 202.670541 344.283899 
L 202.085897 344.283899 
z
" clip-path="url(#p647b16e3d8)" style="fill: #ff0000"/>
   </g>
   <g id="patch_147">
    <path d="M 202.085897 351.58901 
L 202.670541 351.58901 
L 202.670541 321.572646 
L 202.085897 321.572646 
z
" clip-path="url(#p647b16e3d8)" style="fill: #ff0000"/>
   </g>
   <g id="patch_148">
    <path d="M 202.085897 351.58901 
L 202.670541 351.58901 
L 202.670541 284.350615 
L 202.085897 284.350615 
z
" clip-path="url(#p647b16e3d8)" style="fill: #ff0000"/>
   </g>
   <g id="patch_149">
    <path d="M 202.085897 351.58901 
L 202.670541 351.58901 
L 202.670541 321.625769 
L 202.085897 321.625769 
z
" clip-path="url(#p647b16e3d8)" style="fill: #ff0000"/>
   </g>
   <g id="patch_150">
    <path d="M 202.085897 351.58901 
L 202.670541 351.58901 
L 202.670541 336.763734 
L 202.085897 336.763734 
z
" clip-path="url(#p647b16e3d8)" style="fill: #ff0000"/>
   </g>
   <g id="patch_151">
    <path d="M 202.085897 351.58901 
L 202.670541 351.58901 
L 202.670541 342.233464 
L 202.085897 342.233464 
z
" clip-path="url(#p647b16e3d8)" style="fill: #ff0000"/>
   </g>
   <g id="patch_152">
    <path d="M 202.085897 351.58901 
L 202.670541 351.58901 
L 202.670541 330.987477 
L 202.085897 330.987477 
z
" clip-path="url(#p647b16e3d8)" style="fill: #ff0000"/>
   </g>
   <g id="patch_153">
    <path d="M 202.085897 351.58901 
L 202.670541 351.58901 
L 202.670541 341.149904 
L 202.085897 341.149904 
z
" clip-path="url(#p647b16e3d8)" style="fill: #ff0000"/>
   </g>
   <g id="patch_154">
    <path d="M 214.753193 351.58901 
L 215.337837 351.58901 
L 215.337837 272.158002 
L 214.753193 272.158002 
z
" clip-path="url(#p647b16e3d8)" style="fill: #ff0000"/>
   </g>
   <g id="patch_155">
    <path d="M 214.753193 351.58901 
L 215.337837 351.58901 
L 215.337837 300.835079 
L 214.753193 300.835079 
z
" clip-path="url(#p647b16e3d8)" style="fill: #ff0000"/>
   </g>
   <g id="patch_156">
    <path d="M 214.753193 351.58901 
L 215.337837 351.58901 
L 215.337837 264.66038 
L 214.753193 264.66038 
z
" clip-path="url(#p647b16e3d8)" style="fill: #ff0000"/>
   </g>
   <g id="patch_157">
    <path d="M 214.753193 351.58901 
L 215.337837 351.58901 
L 215.337837 159.925098 
L 214.753193 159.925098 
z
" clip-path="url(#p647b16e3d8)" style="fill: #ff0000"/>
   </g>
   <g id="patch_158">
    <path d="M 214.753193 351.58901 
L 215.337837 351.58901 
L 215.337837 336.105969 
L 214.753193 336.105969 
z
" clip-path="url(#p647b16e3d8)" style="fill: #ff0000"/>
   </g>
   <g id="patch_159">
    <path d="M 214.753193 351.58901 
L 215.337837 351.58901 
L 215.337837 339.389214 
L 214.753193 339.389214 
z
" clip-path="url(#p647b16e3d8)" style="fill: #ff0000"/>
   </g>
   <g id="patch_160">
    <path d="M 214.753193 351.58901 
L 215.337837 351.58901 
L 215.337837 212.752449 
L 214.753193 212.752449 
z
" clip-path="url(#p647b16e3d8)" style="fill: #ff0000"/>
   </g>
   <g id="patch_161">
    <path d="M 214.753193 351.58901 
L 215.337837 351.58901 
L 215.337837 292.881397 
L 214.753193 292.881397 
z
" clip-path="url(#p647b16e3d8)" style="fill: #ff0000"/>
   </g>
   <g id="patch_162">
    <path d="M 214.753193 351.58901 
L 215.337837 351.58901 
L 215.337837 311.972129 
L 214.753193 311.972129 
z
" clip-path="url(#p647b16e3d8)" style="fill: #ff0000"/>
   </g>
   <g id="patch_163">
    <path d="M 237.164564 351.58901 
L 237.749208 351.58901 
L 237.749208 211.397497 
L 237.164564 211.397497 
z
" clip-path="url(#p647b16e3d8)" style="fill: #ff0000"/>
   </g>
   <g id="patch_164">
    <path d="M 237.164564 351.58901 
L 237.749208 351.58901 
L 237.749208 267.333308 
L 237.164564 267.333308 
z
" clip-path="url(#p647b16e3d8)" style="fill: #ff0000"/>
   </g>
   <g id="patch_165">
    <path d="M 266.396786 351.58901 
L 266.981431 351.58901 
L 266.981431 314.485661 
L 266.396786 314.485661 
z
" clip-path="url(#p647b16e3d8)" style="fill: #ff0000"/>
   </g>
   <g id="patch_166">
    <path d="M 266.396786 351.58901 
L 266.981431 351.58901 
L 266.981431 310.441409 
L 266.396786 310.441409 
z
" clip-path="url(#p647b16e3d8)" style="fill: #ff0000"/>
   </g>
   <g id="patch_167">
    <path d="M 266.396786 351.58901 
L 266.981431 351.58901 
L 266.981431 322.54773 
L 266.396786 322.54773 
z
" clip-path="url(#p647b16e3d8)" style="fill: #ff0000"/>
   </g>
   <g id="patch_168">
    <path d="M 266.396786 351.58901 
L 266.981431 351.58901 
L 266.981431 321.975519 
L 266.396786 321.975519 
z
" clip-path="url(#p647b16e3d8)" style="fill: #ff0000"/>
   </g>
   <g id="patch_169">
    <path d="M 266.396786 351.58901 
L 266.981431 351.58901 
L 266.981431 291.905847 
L 266.396786 291.905847 
z
" clip-path="url(#p647b16e3d8)" style="fill: #ff0000"/>
   </g>
   <g id="patch_170">
    <path d="M 266.396786 351.58901 
L 266.981431 351.58901 
L 266.981431 341.37323 
L 266.396786 341.37323 
z
" clip-path="url(#p647b16e3d8)" style="fill: #ff0000"/>
   </g>
   <g id="patch_171">
    <path d="M 283.93612 351.58901 
L 284.520764 351.58901 
L 284.520764 106.902163 
L 283.93612 106.902163 
z
" clip-path="url(#p647b16e3d8)" style="fill: #ff0000"/>
   </g>
   <g id="patch_172">
    <path d="M 305.373083 351.58901 
L 305.957727 351.58901 
L 305.957727 326.0955 
L 305.373083 326.0955 
z
" clip-path="url(#p647b16e3d8)" style="fill: #ff0000"/>
   </g>
   <g id="patch_173">
    <path d="M 305.373083 351.58901 
L 305.957727 351.58901 
L 305.957727 310.454417 
L 305.373083 310.454417 
z
" clip-path="url(#p647b16e3d8)" style="fill: #ff0000"/>
   </g>
   <g id="patch_174">
    <path d="M 305.373083 351.58901 
L 305.957727 351.58901 
L 305.957727 343.048954 
L 305.373083 343.048954 
z
" clip-path="url(#p647b16e3d8)" style="fill: #ff0000"/>
   </g>
   <g id="patch_175">
    <path d="M 305.373083 351.58901 
L 305.957727 351.58901 
L 305.957727 347.541482 
L 305.373083 347.541482 
z
" clip-path="url(#p647b16e3d8)" style="fill: #ff0000"/>
   </g>
   <g id="patch_176">
    <path d="M 305.373083 351.58901 
L 305.957727 351.58901 
L 305.957727 256.392537 
L 305.373083 256.392537 
z
" clip-path="url(#p647b16e3d8)" style="fill: #ff0000"/>
   </g>
   <g id="patch_177">
    <path d="M 305.373083 351.58901 
L 305.957727 351.58901 
L 305.957727 348.21457 
L 305.373083 348.21457 
z
" clip-path="url(#p647b16e3d8)" style="fill: #ff0000"/>
   </g>
   <g id="patch_178">
    <path d="M 305.373083 351.58901 
L 305.957727 351.58901 
L 305.957727 294.388837 
L 305.373083 294.388837 
z
" clip-path="url(#p647b16e3d8)" style="fill: #ff0000"/>
   </g>
   <g id="patch_179">
    <path d="M 305.373083 351.58901 
L 305.957727 351.58901 
L 305.957727 317.713616 
L 305.373083 317.713616 
z
" clip-path="url(#p647b16e3d8)" style="fill: #ff0000"/>
   </g>
   <g id="patch_180">
    <path d="M 305.373083 351.58901 
L 305.957727 351.58901 
L 305.957727 306.068647 
L 305.373083 306.068647 
z
" clip-path="url(#p647b16e3d8)" style="fill: #ff0000"/>
   </g>
   <g id="patch_181">
    <path d="M 305.373083 351.58901 
L 305.957727 351.58901 
L 305.957727 347.04421 
L 305.373083 347.04421 
z
" clip-path="url(#p647b16e3d8)" style="fill: #ff0000"/>
   </g>
   <g id="patch_182">
    <path d="M 305.373083 351.58901 
L 305.957727 351.58901 
L 305.957727 347.635576 
L 305.373083 347.635576 
z
" clip-path="url(#p647b16e3d8)" style="fill: #ff0000"/>
   </g>
   <g id="patch_183">
    <path d="M 305.373083 351.58901 
L 305.957727 351.58901 
L 305.957727 300.012563 
L 305.373083 300.012563 
z
" clip-path="url(#p647b16e3d8)" style="fill: #ff0000"/>
   </g>
   <g id="patch_184">
    <path d="M 305.373083 351.58901 
L 305.957727 351.58901 
L 305.957727 351.195054 
L 305.373083 351.195054 
z
" clip-path="url(#p647b16e3d8)" style="fill: #ff0000"/>
   </g>
   <g id="patch_185">
    <path d="M 305.373083 351.58901 
L 305.957727 351.58901 
L 305.957727 351.231559 
L 305.373083 351.231559 
z
" clip-path="url(#p647b16e3d8)" style="fill: #ff0000"/>
   </g>
   <g id="patch_186">
    <path d="M 305.373083 351.58901 
L 305.957727 351.58901 
L 305.957727 342.986105 
L 305.373083 342.986105 
z
" clip-path="url(#p647b16e3d8)" style="fill: #ff0000"/>
   </g>
   <g id="patch_187">
    <path d="M 305.373083 351.58901 
L 305.957727 351.58901 
L 305.957727 301.583889 
L 305.373083 301.583889 
z
" clip-path="url(#p647b16e3d8)" style="fill: #ff0000"/>
   </g>
   <g id="patch_188">
    <path d="M 305.373083 351.58901 
L 305.957727 351.58901 
L 305.957727 314.994418 
L 305.373083 314.994418 
z
" clip-path="url(#p647b16e3d8)" style="fill: #ff0000"/>
   </g>
   <g id="patch_189">
    <path d="M 305.373083 351.58901 
L 305.957727 351.58901 
L 305.957727 318.817352 
L 305.373083 318.817352 
z
" clip-path="url(#p647b16e3d8)" style="fill: #ff0000"/>
   </g>
   <g id="patch_190">
    <path d="M 305.373083 351.58901 
L 305.957727 351.58901 
L 305.957727 347.943481 
L 305.373083 347.943481 
z
" clip-path="url(#p647b16e3d8)" style="fill: #ff0000"/>
   </g>
   <g id="patch_191">
    <path d="M 305.373083 351.58901 
L 305.957727 351.58901 
L 305.957727 232.183257 
L 305.373083 232.183257 
z
" clip-path="url(#p647b16e3d8)" style="fill: #ff0000"/>
   </g>
   <g id="patch_192">
    <path d="M 305.373083 351.58901 
L 305.957727 351.58901 
L 305.957727 350.838683 
L 305.373083 350.838683 
z
" clip-path="url(#p647b16e3d8)" style="fill: #ff0000"/>
   </g>
   <g id="patch_193">
    <path d="M 305.373083 351.58901 
L 305.957727 351.58901 
L 305.957727 302.090576 
L 305.373083 302.090576 
z
" clip-path="url(#p647b16e3d8)" style="fill: #ff0000"/>
   </g>
   <g id="patch_194">
    <path d="M 305.373083 351.58901 
L 305.957727 351.58901 
L 305.957727 350.098534 
L 305.373083 350.098534 
z
" clip-path="url(#p647b16e3d8)" style="fill: #ff0000"/>
   </g>
   <g id="patch_195">
    <path d="M 305.373083 351.58901 
L 305.957727 351.58901 
L 305.957727 330.169317 
L 305.373083 330.169317 
z
" clip-path="url(#p647b16e3d8)" style="fill: #ff0000"/>
   </g>
   <g id="patch_196">
    <path d="M 305.373083 351.58901 
L 305.957727 351.58901 
L 305.957727 349.386222 
L 305.373083 349.386222 
z
" clip-path="url(#p647b16e3d8)" style="fill: #ff0000"/>
   </g>
   <g id="patch_197">
    <path d="M 305.373083 351.58901 
L 305.957727 351.58901 
L 305.957727 290.43386 
L 305.373083 290.43386 
z
" clip-path="url(#p647b16e3d8)" style="fill: #ff0000"/>
   </g>
   <g id="patch_198">
    <path d="M 305.373083 351.58901 
L 305.957727 351.58901 
L 305.957727 333.793339 
L 305.373083 333.793339 
z
" clip-path="url(#p647b16e3d8)" style="fill: #ff0000"/>
   </g>
   <g id="patch_199">
    <path d="M 305.373083 351.58901 
L 305.957727 351.58901 
L 305.957727 349.219799 
L 305.373083 349.219799 
z
" clip-path="url(#p647b16e3d8)" style="fill: #ff0000"/>
   </g>
   <g id="patch_200">
    <path d="M 343.374972 351.58901 
L 343.959617 351.58901 
L 343.959617 238.157607 
L 343.374972 238.157607 
z
" clip-path="url(#p647b16e3d8)" style="fill: #ff0000"/>
   </g>
   <g id="matplotlib.axis_1">
    <g id="xtick_1">
     <g id="line2d_1">
      <defs>
       <path id="m013c110e88" d="M 0 0 
L 0 3.5 
" style="stroke: #000000; stroke-width: 0.8"/>
      </defs>
      <g>
       <use xlink:href="#m013c110e88" x="150.442303" y="384.48" style="stroke: #000000; stroke-width: 0.8"/>
      </g>
     </g>
     <g id="text_1">
      <!-- 2500 -->
      <g transform="translate(137.717303 399.078438) scale(0.1 -0.1)">
       <defs>
        <path id="DejaVuSans-32" d="M 1228 531 
L 3431 531 
L 3431 0 
L 469 0 
L 469 531 
Q 828 903 1448 1529 
Q 2069 2156 2228 2338 
Q 2531 2678 2651 2914 
Q 2772 3150 2772 3378 
Q 2772 3750 2511 3984 
Q 2250 4219 1831 4219 
Q 1534 4219 1204 4116 
Q 875 4013 500 3803 
L 500 4441 
Q 881 4594 1212 4672 
Q 1544 4750 1819 4750 
Q 2544 4750 2975 4387 
Q 3406 4025 3406 3419 
Q 3406 3131 3298 2873 
Q 3191 2616 2906 2266 
Q 2828 2175 2409 1742 
Q 1991 1309 1228 531 
z
" transform="scale(0.015625)"/>
        <path id="DejaVuSans-35" d="M 691 4666 
L 3169 4666 
L 3169 4134 
L 1269 4134 
L 1269 2991 
Q 1406 3038 1543 3061 
Q 1681 3084 1819 3084 
Q 2600 3084 3056 2656 
Q 3513 2228 3513 1497 
Q 3513 744 3044 326 
Q 2575 -91 1722 -91 
Q 1428 -91 1123 -41 
Q 819 9 494 109 
L 494 744 
Q 775 591 1075 516 
Q 1375 441 1709 441 
Q 2250 441 2565 725 
Q 2881 1009 2881 1497 
Q 2881 1984 2565 2268 
Q 2250 2553 1709 2553 
Q 1456 2553 1204 2497 
Q 953 2441 691 2322 
L 691 4666 
z
" transform="scale(0.015625)"/>
        <path id="DejaVuSans-30" d="M 2034 4250 
Q 1547 4250 1301 3770 
Q 1056 3291 1056 2328 
Q 1056 1369 1301 889 
Q 1547 409 2034 409 
Q 2525 409 2770 889 
Q 3016 1369 3016 2328 
Q 3016 3291 2770 3770 
Q 2525 4250 2034 4250 
z
M 2034 4750 
Q 2819 4750 3233 4129 
Q 3647 3509 3647 2328 
Q 3647 1150 3233 529 
Q 2819 -91 2034 -91 
Q 1250 -91 836 529 
Q 422 1150 422 2328 
Q 422 3509 836 4129 
Q 1250 4750 2034 4750 
z
" transform="scale(0.015625)"/>
       </defs>
       <use xlink:href="#DejaVuSans-32"/>
       <use xlink:href="#DejaVuSans-35" x="63.623047"/>
       <use xlink:href="#DejaVuSans-30" x="127.246094"/>
       <use xlink:href="#DejaVuSans-30" x="190.869141"/>
      </g>
     </g>
    </g>
    <g id="xtick_2">
     <g id="line2d_2">
      <g>
       <use xlink:href="#m013c110e88" x="247.883045" y="384.48" style="stroke: #000000; stroke-width: 0.8"/>
      </g>
     </g>
     <g id="text_2">
      <!-- 3000 -->
      <g transform="translate(235.158045 399.078438) scale(0.1 -0.1)">
       <defs>
        <path id="DejaVuSans-33" d="M 2597 2516 
Q 3050 2419 3304 2112 
Q 3559 1806 3559 1356 
Q 3559 666 3084 287 
Q 2609 -91 1734 -91 
Q 1441 -91 1130 -33 
Q 819 25 488 141 
L 488 750 
Q 750 597 1062 519 
Q 1375 441 1716 441 
Q 2309 441 2620 675 
Q 2931 909 2931 1356 
Q 2931 1769 2642 2001 
Q 2353 2234 1838 2234 
L 1294 2234 
L 1294 2753 
L 1863 2753 
Q 2328 2753 2575 2939 
Q 2822 3125 2822 3475 
Q 2822 3834 2567 4026 
Q 2313 4219 1838 4219 
Q 1578 4219 1281 4162 
Q 984 4106 628 3988 
L 628 4550 
Q 988 4650 1302 4700 
Q 1616 4750 1894 4750 
Q 2613 4750 3031 4423 
Q 3450 4097 3450 3541 
Q 3450 3153 3228 2886 
Q 3006 2619 2597 2516 
z
" transform="scale(0.015625)"/>
       </defs>
       <use xlink:href="#DejaVuSans-33"/>
       <use xlink:href="#DejaVuSans-30" x="63.623047"/>
       <use xlink:href="#DejaVuSans-30" x="127.246094"/>
       <use xlink:href="#DejaVuSans-30" x="190.869141"/>
      </g>
     </g>
    </g>
    <g id="xtick_3">
     <g id="line2d_3">
      <g>
       <use xlink:href="#m013c110e88" x="345.323787" y="384.48" style="stroke: #000000; stroke-width: 0.8"/>
      </g>
     </g>
     <g id="text_3">
      <!-- 3500 -->
      <g transform="translate(332.598787 399.078438) scale(0.1 -0.1)">
       <use xlink:href="#DejaVuSans-33"/>
       <use xlink:href="#DejaVuSans-35" x="63.623047"/>
       <use xlink:href="#DejaVuSans-30" x="127.246094"/>
       <use xlink:href="#DejaVuSans-30" x="190.869141"/>
      </g>
     </g>
    </g>
    <g id="xtick_4">
     <g id="line2d_4">
      <g>
       <use xlink:href="#m013c110e88" x="442.764529" y="384.48" style="stroke: #000000; stroke-width: 0.8"/>
      </g>
     </g>
     <g id="text_4">
      <!-- 4000 -->
      <g transform="translate(430.039529 399.078438) scale(0.1 -0.1)">
       <defs>
        <path id="DejaVuSans-34" d="M 2419 4116 
L 825 1625 
L 2419 1625 
L 2419 4116 
z
M 2253 4666 
L 3047 4666 
L 3047 1625 
L 3713 1625 
L 3713 1100 
L 3047 1100 
L 3047 0 
L 2419 0 
L 2419 1100 
L 313 1100 
L 313 1709 
L 2253 4666 
z
" transform="scale(0.015625)"/>
       </defs>
       <use xlink:href="#DejaVuSans-34"/>
       <use xlink:href="#DejaVuSans-30" x="63.623047"/>
       <use xlink:href="#DejaVuSans-30" x="127.246094"/>
       <use xlink:href="#DejaVuSans-30" x="190.869141"/>
      </g>
     </g>
    </g>
    <g id="xtick_5">
     <g id="line2d_5">
      <g>
       <use xlink:href="#m013c110e88" x="540.205271" y="384.48" style="stroke: #000000; stroke-width: 0.8"/>
      </g>
     </g>
     <g id="text_5">
      <!-- 4500 -->
      <g transform="translate(527.480271 399.078438) scale(0.1 -0.1)">
       <use xlink:href="#DejaVuSans-34"/>
       <use xlink:href="#DejaVuSans-35" x="63.623047"/>
       <use xlink:href="#DejaVuSans-30" x="127.246094"/>
       <use xlink:href="#DejaVuSans-30" x="190.869141"/>
      </g>
     </g>
    </g>
    <g id="xtick_6">
     <g id="line2d_6">
      <g>
       <use xlink:href="#m013c110e88" x="637.646012" y="384.48" style="stroke: #000000; stroke-width: 0.8"/>
      </g>
     </g>
     <g id="text_6">
      <!-- 5000 -->
      <g transform="translate(624.921012 399.078438) scale(0.1 -0.1)">
       <use xlink:href="#DejaVuSans-35"/>
       <use xlink:href="#DejaVuSans-30" x="63.623047"/>
       <use xlink:href="#DejaVuSans-30" x="127.246094"/>
       <use xlink:href="#DejaVuSans-30" x="190.869141"/>
      </g>
     </g>
    </g>
   </g>
   <g id="matplotlib.axis_2">
    <g id="ytick_1">
     <g id="line2d_7">
      <defs>
       <path id="m2c4062868b" d="M 0 0 
L -3.5 0 
" style="stroke: #000000; stroke-width: 0.8"/>
      </defs>
      <g>
       <use xlink:href="#m2c4062868b" x="90" y="351.58901" style="stroke: #000000; stroke-width: 0.8"/>
      </g>
     </g>
     <g id="text_7">
      <!-- 0.0 -->
      <g transform="translate(67.096875 355.388228) scale(0.1 -0.1)">
       <defs>
        <path id="DejaVuSans-2e" d="M 684 794 
L 1344 794 
L 1344 0 
L 684 0 
L 684 794 
z
" transform="scale(0.015625)"/>
       </defs>
       <use xlink:href="#DejaVuSans-30"/>
       <use xlink:href="#DejaVuSans-2e" x="63.623047"/>
       <use xlink:href="#DejaVuSans-30" x="95.410156"/>
      </g>
     </g>
    </g>
    <g id="ytick_2">
     <g id="line2d_8">
      <g>
       <use xlink:href="#m2c4062868b" x="90" y="294.663208" style="stroke: #000000; stroke-width: 0.8"/>
      </g>
     </g>
     <g id="text_8">
      <!-- 0.2 -->
      <g transform="translate(67.096875 298.462427) scale(0.1 -0.1)">
       <use xlink:href="#DejaVuSans-30"/>
       <use xlink:href="#DejaVuSans-2e" x="63.623047"/>
       <use xlink:href="#DejaVuSans-32" x="95.410156"/>
      </g>
     </g>
    </g>
    <g id="ytick_3">
     <g id="line2d_9">
      <g>
       <use xlink:href="#m2c4062868b" x="90" y="237.737406" style="stroke: #000000; stroke-width: 0.8"/>
      </g>
     </g>
     <g id="text_9">
      <!-- 0.4 -->
      <g transform="translate(67.096875 241.536625) scale(0.1 -0.1)">
       <use xlink:href="#DejaVuSans-30"/>
       <use xlink:href="#DejaVuSans-2e" x="63.623047"/>
       <use xlink:href="#DejaVuSans-34" x="95.410156"/>
      </g>
     </g>
    </g>
    <g id="ytick_4">
     <g id="line2d_10">
      <g>
       <use xlink:href="#m2c4062868b" x="90" y="180.811604" style="stroke: #000000; stroke-width: 0.8"/>
      </g>
     </g>
     <g id="text_10">
      <!-- 0.6 -->
      <g transform="translate(67.096875 184.610823) scale(0.1 -0.1)">
       <defs>
        <path id="DejaVuSans-36" d="M 2113 2584 
Q 1688 2584 1439 2293 
Q 1191 2003 1191 1497 
Q 1191 994 1439 701 
Q 1688 409 2113 409 
Q 2538 409 2786 701 
Q 3034 994 3034 1497 
Q 3034 2003 2786 2293 
Q 2538 2584 2113 2584 
z
M 3366 4563 
L 3366 3988 
Q 3128 4100 2886 4159 
Q 2644 4219 2406 4219 
Q 1781 4219 1451 3797 
Q 1122 3375 1075 2522 
Q 1259 2794 1537 2939 
Q 1816 3084 2150 3084 
Q 2853 3084 3261 2657 
Q 3669 2231 3669 1497 
Q 3669 778 3244 343 
Q 2819 -91 2113 -91 
Q 1303 -91 875 529 
Q 447 1150 447 2328 
Q 447 3434 972 4092 
Q 1497 4750 2381 4750 
Q 2619 4750 2861 4703 
Q 3103 4656 3366 4563 
z
" transform="scale(0.015625)"/>
       </defs>
       <use xlink:href="#DejaVuSans-30"/>
       <use xlink:href="#DejaVuSans-2e" x="63.623047"/>
       <use xlink:href="#DejaVuSans-36" x="95.410156"/>
      </g>
     </g>
    </g>
    <g id="ytick_5">
     <g id="line2d_11">
      <g>
       <use xlink:href="#m2c4062868b" x="90" y="123.885802" style="stroke: #000000; stroke-width: 0.8"/>
      </g>
     </g>
     <g id="text_11">
      <!-- 0.8 -->
      <g transform="translate(67.096875 127.685021) scale(0.1 -0.1)">
       <defs>
        <path id="DejaVuSans-38" d="M 2034 2216 
Q 1584 2216 1326 1975 
Q 1069 1734 1069 1313 
Q 1069 891 1326 650 
Q 1584 409 2034 409 
Q 2484 409 2743 651 
Q 3003 894 3003 1313 
Q 3003 1734 2745 1975 
Q 2488 2216 2034 2216 
z
M 1403 2484 
Q 997 2584 770 2862 
Q 544 3141 544 3541 
Q 544 4100 942 4425 
Q 1341 4750 2034 4750 
Q 2731 4750 3128 4425 
Q 3525 4100 3525 3541 
Q 3525 3141 3298 2862 
Q 3072 2584 2669 2484 
Q 3125 2378 3379 2068 
Q 3634 1759 3634 1313 
Q 3634 634 3220 271 
Q 2806 -91 2034 -91 
Q 1263 -91 848 271 
Q 434 634 434 1313 
Q 434 1759 690 2068 
Q 947 2378 1403 2484 
z
M 1172 3481 
Q 1172 3119 1398 2916 
Q 1625 2713 2034 2713 
Q 2441 2713 2670 2916 
Q 2900 3119 2900 3481 
Q 2900 3844 2670 4047 
Q 2441 4250 2034 4250 
Q 1625 4250 1398 4047 
Q 1172 3844 1172 3481 
z
" transform="scale(0.015625)"/>
       </defs>
       <use xlink:href="#DejaVuSans-30"/>
       <use xlink:href="#DejaVuSans-2e" x="63.623047"/>
       <use xlink:href="#DejaVuSans-38" x="95.410156"/>
      </g>
     </g>
    </g>
    <g id="ytick_6">
     <g id="line2d_12">
      <g>
       <use xlink:href="#m2c4062868b" x="90" y="66.96" style="stroke: #000000; stroke-width: 0.8"/>
      </g>
     </g>
     <g id="text_12">
      <!-- 1.0 -->
      <g transform="translate(67.096875 70.759219) scale(0.1 -0.1)">
       <defs>
        <path id="DejaVuSans-31" d="M 794 531 
L 1825 531 
L 1825 4091 
L 703 3866 
L 703 4441 
L 1819 4666 
L 2450 4666 
L 2450 531 
L 3481 531 
L 3481 0 
L 794 0 
L 794 531 
z
" transform="scale(0.015625)"/>
       </defs>
       <use xlink:href="#DejaVuSans-31"/>
       <use xlink:href="#DejaVuSans-2e" x="63.623047"/>
       <use xlink:href="#DejaVuSans-30" x="95.410156"/>
      </g>
     </g>
    </g>
   </g>
   <g id="patch_201">
    <path d="M 90 384.48 
L 90 51.84 
" style="fill: none; stroke: #000000; stroke-width: 0.8; stroke-linejoin: miter; stroke-linecap: square"/>
   </g>
   <g id="patch_202">
    <path d="M 648 384.48 
L 648 51.84 
" style="fill: none; stroke: #000000; stroke-width: 0.8; stroke-linejoin: miter; stroke-linecap: square"/>
   </g>
   <g id="patch_203">
    <path d="M 90 384.48 
L 648 384.48 
" style="fill: none; stroke: #000000; stroke-width: 0.8; stroke-linejoin: miter; stroke-linecap: square"/>
   </g>
   <g id="patch_204">
    <path d="M 90 51.84 
L 648 51.84 
" style="fill: none; stroke: #000000; stroke-width: 0.8; stroke-linejoin: miter; stroke-linecap: square"/>
   </g>
   <g id="legend_1">
    <g id="patch_205">
     <path d="M 546.635937 103.874375 
L 641 103.874375 
Q 643 103.874375 643 101.874375 
L 643 58.84 
Q 643 56.84 641 56.84 
L 546.635937 56.84 
Q 544.635937 56.84 544.635937 58.84 
L 544.635937 101.874375 
Q 544.635937 103.874375 546.635937 103.874375 
z
" style="fill: #ffffff; opacity: 0.8; stroke: #cccccc; stroke-linejoin: miter"/>
    </g>
    <g id="patch_206">
     <path d="M 548.635937 68.438437 
L 568.635937 68.438437 
L 568.635937 61.438437 
L 548.635937 61.438437 
z
" style="fill: #0000ff; opacity: 0.7"/>
    </g>
    <g id="text_13">
     <!-- Teorico -->
     <g transform="translate(576.635937 68.438437) scale(0.1 -0.1)">
      <defs>
       <path id="DejaVuSans-54" d="M -19 4666 
L 3928 4666 
L 3928 4134 
L 2272 4134 
L 2272 0 
L 1638 0 
L 1638 4134 
L -19 4134 
L -19 4666 
z
" transform="scale(0.015625)"/>
       <path id="DejaVuSans-65" d="M 3597 1894 
L 3597 1613 
L 953 1613 
Q 991 1019 1311 708 
Q 1631 397 2203 397 
Q 2534 397 2845 478 
Q 3156 559 3463 722 
L 3463 178 
Q 3153 47 2828 -22 
Q 2503 -91 2169 -91 
Q 1331 -91 842 396 
Q 353 884 353 1716 
Q 353 2575 817 3079 
Q 1281 3584 2069 3584 
Q 2775 3584 3186 3129 
Q 3597 2675 3597 1894 
z
M 3022 2063 
Q 3016 2534 2758 2815 
Q 2500 3097 2075 3097 
Q 1594 3097 1305 2825 
Q 1016 2553 972 2059 
L 3022 2063 
z
" transform="scale(0.015625)"/>
       <path id="DejaVuSans-6f" d="M 1959 3097 
Q 1497 3097 1228 2736 
Q 959 2375 959 1747 
Q 959 1119 1226 758 
Q 1494 397 1959 397 
Q 2419 397 2687 759 
Q 2956 1122 2956 1747 
Q 2956 2369 2687 2733 
Q 2419 3097 1959 3097 
z
M 1959 3584 
Q 2709 3584 3137 3096 
Q 3566 2609 3566 1747 
Q 3566 888 3137 398 
Q 2709 -91 1959 -91 
Q 1206 -91 779 398 
Q 353 888 353 1747 
Q 353 2609 779 3096 
Q 1206 3584 1959 3584 
z
" transform="scale(0.015625)"/>
       <path id="DejaVuSans-72" d="M 2631 2963 
Q 2534 3019 2420 3045 
Q 2306 3072 2169 3072 
Q 1681 3072 1420 2755 
Q 1159 2438 1159 1844 
L 1159 0 
L 581 0 
L 581 3500 
L 1159 3500 
L 1159 2956 
Q 1341 3275 1631 3429 
Q 1922 3584 2338 3584 
Q 2397 3584 2469 3576 
Q 2541 3569 2628 3553 
L 2631 2963 
z
" transform="scale(0.015625)"/>
       <path id="DejaVuSans-69" d="M 603 3500 
L 1178 3500 
L 1178 0 
L 603 0 
L 603 3500 
z
M 603 4863 
L 1178 4863 
L 1178 4134 
L 603 4134 
L 603 4863 
z
" transform="scale(0.015625)"/>
       <path id="DejaVuSans-63" d="M 3122 3366 
L 3122 2828 
Q 2878 2963 2633 3030 
Q 2388 3097 2138 3097 
Q 1578 3097 1268 2742 
Q 959 2388 959 1747 
Q 959 1106 1268 751 
Q 1578 397 2138 397 
Q 2388 397 2633 464 
Q 2878 531 3122 666 
L 3122 134 
Q 2881 22 2623 -34 
Q 2366 -91 2075 -91 
Q 1284 -91 818 406 
Q 353 903 353 1747 
Q 353 2603 823 3093 
Q 1294 3584 2113 3584 
Q 2378 3584 2631 3529 
Q 2884 3475 3122 3366 
z
" transform="scale(0.015625)"/>
      </defs>
      <use xlink:href="#DejaVuSans-54"/>
      <use xlink:href="#DejaVuSans-65" x="44.083984"/>
      <use xlink:href="#DejaVuSans-6f" x="105.607422"/>
      <use xlink:href="#DejaVuSans-72" x="166.789062"/>
      <use xlink:href="#DejaVuSans-69" x="207.902344"/>
      <use xlink:href="#DejaVuSans-63" x="235.685547"/>
      <use xlink:href="#DejaVuSans-6f" x="290.666016"/>
     </g>
    </g>
    <g id="patch_207">
     <path d="M 548.635937 83.116562 
L 568.635937 83.116562 
L 568.635937 76.116562 
L 548.635937 76.116562 
z
" style="opacity: 0.7"/>
    </g>
    <g id="text_14">
     <!-- Emp Real -->
     <g transform="translate(576.635937 83.116562) scale(0.1 -0.1)">
      <defs>
       <path id="DejaVuSans-45" d="M 628 4666 
L 3578 4666 
L 3578 4134 
L 1259 4134 
L 1259 2753 
L 3481 2753 
L 3481 2222 
L 1259 2222 
L 1259 531 
L 3634 531 
L 3634 0 
L 628 0 
L 628 4666 
z
" transform="scale(0.015625)"/>
       <path id="DejaVuSans-6d" d="M 3328 2828 
Q 3544 3216 3844 3400 
Q 4144 3584 4550 3584 
Q 5097 3584 5394 3201 
Q 5691 2819 5691 2113 
L 5691 0 
L 5113 0 
L 5113 2094 
Q 5113 2597 4934 2840 
Q 4756 3084 4391 3084 
Q 3944 3084 3684 2787 
Q 3425 2491 3425 1978 
L 3425 0 
L 2847 0 
L 2847 2094 
Q 2847 2600 2669 2842 
Q 2491 3084 2119 3084 
Q 1678 3084 1418 2786 
Q 1159 2488 1159 1978 
L 1159 0 
L 581 0 
L 581 3500 
L 1159 3500 
L 1159 2956 
Q 1356 3278 1631 3431 
Q 1906 3584 2284 3584 
Q 2666 3584 2933 3390 
Q 3200 3197 3328 2828 
z
" transform="scale(0.015625)"/>
       <path id="DejaVuSans-70" d="M 1159 525 
L 1159 -1331 
L 581 -1331 
L 581 3500 
L 1159 3500 
L 1159 2969 
Q 1341 3281 1617 3432 
Q 1894 3584 2278 3584 
Q 2916 3584 3314 3078 
Q 3713 2572 3713 1747 
Q 3713 922 3314 415 
Q 2916 -91 2278 -91 
Q 1894 -91 1617 61 
Q 1341 213 1159 525 
z
M 3116 1747 
Q 3116 2381 2855 2742 
Q 2594 3103 2138 3103 
Q 1681 3103 1420 2742 
Q 1159 2381 1159 1747 
Q 1159 1113 1420 752 
Q 1681 391 2138 391 
Q 2594 391 2855 752 
Q 3116 1113 3116 1747 
z
" transform="scale(0.015625)"/>
       <path id="DejaVuSans-20" transform="scale(0.015625)"/>
       <path id="DejaVuSans-52" d="M 2841 2188 
Q 3044 2119 3236 1894 
Q 3428 1669 3622 1275 
L 4263 0 
L 3584 0 
L 2988 1197 
Q 2756 1666 2539 1819 
Q 2322 1972 1947 1972 
L 1259 1972 
L 1259 0 
L 628 0 
L 628 4666 
L 2053 4666 
Q 2853 4666 3247 4331 
Q 3641 3997 3641 3322 
Q 3641 2881 3436 2590 
Q 3231 2300 2841 2188 
z
M 1259 4147 
L 1259 2491 
L 2053 2491 
Q 2509 2491 2742 2702 
Q 2975 2913 2975 3322 
Q 2975 3731 2742 3939 
Q 2509 4147 2053 4147 
L 1259 4147 
z
" transform="scale(0.015625)"/>
       <path id="DejaVuSans-61" d="M 2194 1759 
Q 1497 1759 1228 1600 
Q 959 1441 959 1056 
Q 959 750 1161 570 
Q 1363 391 1709 391 
Q 2188 391 2477 730 
Q 2766 1069 2766 1631 
L 2766 1759 
L 2194 1759 
z
M 3341 1997 
L 3341 0 
L 2766 0 
L 2766 531 
Q 2569 213 2275 61 
Q 1981 -91 1556 -91 
Q 1019 -91 701 211 
Q 384 513 384 1019 
Q 384 1609 779 1909 
Q 1175 2209 1959 2209 
L 2766 2209 
L 2766 2266 
Q 2766 2663 2505 2880 
Q 2244 3097 1772 3097 
Q 1472 3097 1187 3025 
Q 903 2953 641 2809 
L 641 3341 
Q 956 3463 1253 3523 
Q 1550 3584 1831 3584 
Q 2591 3584 2966 3190 
Q 3341 2797 3341 1997 
z
" transform="scale(0.015625)"/>
       <path id="DejaVuSans-6c" d="M 603 4863 
L 1178 4863 
L 1178 0 
L 603 0 
L 603 4863 
z
" transform="scale(0.015625)"/>
      </defs>
      <use xlink:href="#DejaVuSans-45"/>
      <use xlink:href="#DejaVuSans-6d" x="63.183594"/>
      <use xlink:href="#DejaVuSans-70" x="160.595703"/>
      <use xlink:href="#DejaVuSans-20" x="224.072266"/>
      <use xlink:href="#DejaVuSans-52" x="255.859375"/>
      <use xlink:href="#DejaVuSans-65" x="320.841797"/>
      <use xlink:href="#DejaVuSans-61" x="382.365234"/>
      <use xlink:href="#DejaVuSans-6c" x="443.644531"/>
     </g>
    </g>
    <g id="patch_208">
     <path d="M 548.635937 97.794687 
L 568.635937 97.794687 
L 568.635937 90.794687 
L 548.635937 90.794687 
z
" style="fill: #ff0000"/>
    </g>
    <g id="text_15">
     <!-- Emp Optimo -->
     <g transform="translate(576.635937 97.794687) scale(0.1 -0.1)">
      <defs>
       <path id="DejaVuSans-4f" d="M 2522 4238 
Q 1834 4238 1429 3725 
Q 1025 3213 1025 2328 
Q 1025 1447 1429 934 
Q 1834 422 2522 422 
Q 3209 422 3611 934 
Q 4013 1447 4013 2328 
Q 4013 3213 3611 3725 
Q 3209 4238 2522 4238 
z
M 2522 4750 
Q 3503 4750 4090 4092 
Q 4678 3434 4678 2328 
Q 4678 1225 4090 567 
Q 3503 -91 2522 -91 
Q 1538 -91 948 565 
Q 359 1222 359 2328 
Q 359 3434 948 4092 
Q 1538 4750 2522 4750 
z
" transform="scale(0.015625)"/>
       <path id="DejaVuSans-74" d="M 1172 4494 
L 1172 3500 
L 2356 3500 
L 2356 3053 
L 1172 3053 
L 1172 1153 
Q 1172 725 1289 603 
Q 1406 481 1766 481 
L 2356 481 
L 2356 0 
L 1766 0 
Q 1100 0 847 248 
Q 594 497 594 1153 
L 594 3053 
L 172 3053 
L 172 3500 
L 594 3500 
L 594 4494 
L 1172 4494 
z
" transform="scale(0.015625)"/>
      </defs>
      <use xlink:href="#DejaVuSans-45"/>
      <use xlink:href="#DejaVuSans-6d" x="63.183594"/>
      <use xlink:href="#DejaVuSans-70" x="160.595703"/>
      <use xlink:href="#DejaVuSans-20" x="224.072266"/>
      <use xlink:href="#DejaVuSans-4f" x="255.859375"/>
      <use xlink:href="#DejaVuSans-70" x="334.570312"/>
      <use xlink:href="#DejaVuSans-74" x="398.046875"/>
      <use xlink:href="#DejaVuSans-69" x="437.255859"/>
      <use xlink:href="#DejaVuSans-6d" x="465.039062"/>
      <use xlink:href="#DejaVuSans-6f" x="562.451172"/>
     </g>
    </g>
   </g>
  </g>
 </g>
 <defs>
  <clipPath id="p647b16e3d8">
   <rect x="90" y="51.84" width="558" height="332.64"/>
  </clipPath>
 </defs>
</svg>
