<?xml version="1.0" encoding="utf-8" standalone="no"?>
<!DOCTYPE svg PUBLIC "-//W3C//DTD SVG 1.1//EN"
  "http://www.w3.org/Graphics/SVG/1.1/DTD/svg11.dtd">
<svg xmlns:xlink="http://www.w3.org/1999/xlink" width="720pt" height="432pt" viewBox="0 0 720 432" xmlns="http://www.w3.org/2000/svg" version="1.1">
 <metadata>
  <rdf:RDF xmlns:dc="http://purl.org/dc/elements/1.1/" xmlns:cc="http://creativecommons.org/ns#" xmlns:rdf="http://www.w3.org/1999/02/22-rdf-syntax-ns#">
   <cc:Work>
    <dc:type rdf:resource="http://purl.org/dc/dcmitype/StillImage"/>
    <dc:date>2024-03-26T22:08:55.197852</dc:date>
    <dc:format>image/svg+xml</dc:format>
    <dc:creator>
     <cc:Agent>
      <dc:title>Matplotlib v3.7.5, https://matplotlib.org/</dc:title>
     </cc:Agent>
    </dc:creator>
   </cc:Work>
  </rdf:RDF>
 </metadata>
 <defs>
  <style type="text/css">*{stroke-linejoin: round; stroke-linecap: butt}</style>
 </defs>
 <g id="figure_1">
  <g id="patch_1">
   <path d="M 0 432 
L 720 432 
L 720 0 
L 0 0 
z
" style="fill: #ffffff"/>
  </g>
  <g id="axes_1">
   <g id="patch_2">
    <path d="M 90 384.48 
L 648 384.48 
L 648 51.84 
L 90 51.84 
z
" style="fill: #ffffff"/>
   </g>
   <g id="patch_3">
    <path d="M 115.363636 351.435059 
L 118.686529 351.435059 
L 118.686529 351.435059 
L 115.363636 351.435059 
z
" clip-path="url(#p449595f37e)" style="fill: #0000ff; opacity: 0.7"/>
   </g>
   <g id="patch_4">
    <path d="M 118.686529 351.435059 
L 122.009421 351.435059 
L 122.009421 351.435059 
L 118.686529 351.435059 
z
" clip-path="url(#p449595f37e)" style="fill: #0000ff; opacity: 0.7"/>
   </g>
   <g id="patch_5">
    <path d="M 122.009421 351.435059 
L 125.332313 351.435059 
L 125.332313 351.435059 
L 122.009421 351.435059 
z
" clip-path="url(#p449595f37e)" style="fill: #0000ff; opacity: 0.7"/>
   </g>
   <g id="patch_6">
    <path d="M 123.172433 351.435059 
L 126.495325 351.435059 
L 126.495325 352.081332 
L 123.172433 352.081332 
z
" clip-path="url(#p449595f37e)" style="fill: #0000ff; opacity: 0.7"/>
   </g>
   <g id="patch_7">
    <path d="M 126.495325 351.435059 
L 129.818218 351.435059 
L 129.818218 351.435059 
L 126.495325 351.435059 
z
" clip-path="url(#p449595f37e)" style="fill: #0000ff; opacity: 0.7"/>
   </g>
   <g id="patch_8">
    <path d="M 129.818218 351.435059 
L 133.14111 351.435059 
L 133.14111 351.435059 
L 129.818218 351.435059 
z
" clip-path="url(#p449595f37e)" style="fill: #0000ff; opacity: 0.7"/>
   </g>
   <g id="patch_9">
    <path d="M 133.14111 351.435059 
L 136.464002 351.435059 
L 136.464002 351.435059 
L 133.14111 351.435059 
z
" clip-path="url(#p449595f37e)" style="fill: #0000ff; opacity: 0.7"/>
   </g>
   <g id="patch_10">
    <path d="M 136.464002 351.435059 
L 139.786894 351.435059 
L 139.786894 351.435059 
L 136.464002 351.435059 
z
" clip-path="url(#p449595f37e)" style="fill: #0000ff; opacity: 0.7"/>
   </g>
   <g id="patch_11">
    <path d="M 136.596918 351.435059 
L 139.91981 351.435059 
L 139.91981 352.226224 
L 136.596918 352.226224 
z
" clip-path="url(#p449595f37e)" style="fill: #0000ff; opacity: 0.7"/>
   </g>
   <g id="patch_12">
    <path d="M 139.91981 351.435059 
L 143.242702 351.435059 
L 143.242702 351.435059 
L 139.91981 351.435059 
z
" clip-path="url(#p449595f37e)" style="fill: #0000ff; opacity: 0.7"/>
   </g>
   <g id="patch_13">
    <path d="M 143.242702 351.435059 
L 146.565594 351.435059 
L 146.565594 351.435059 
L 143.242702 351.435059 
z
" clip-path="url(#p449595f37e)" style="fill: #0000ff; opacity: 0.7"/>
   </g>
   <g id="patch_14">
    <path d="M 144.904148 351.435059 
L 148.22704 351.435059 
L 148.22704 351.984857 
L 144.904148 351.984857 
z
" clip-path="url(#p449595f37e)" style="fill: #0000ff; opacity: 0.7"/>
   </g>
   <g id="patch_15">
    <path d="M 148.22704 351.435059 
L 151.549933 351.435059 
L 151.549933 351.435059 
L 148.22704 351.435059 
z
" clip-path="url(#p449595f37e)" style="fill: #0000ff; opacity: 0.7"/>
   </g>
   <g id="patch_16">
    <path d="M 151.549933 351.435059 
L 154.872825 351.435059 
L 154.872825 351.435059 
L 151.549933 351.435059 
z
" clip-path="url(#p449595f37e)" style="fill: #0000ff; opacity: 0.7"/>
   </g>
   <g id="patch_17">
    <path d="M 154.872825 351.435059 
L 158.195717 351.435059 
L 158.195717 351.435059 
L 154.872825 351.435059 
z
" clip-path="url(#p449595f37e)" style="fill: #0000ff; opacity: 0.7"/>
   </g>
   <g id="patch_18">
    <path d="M 158.195717 351.435059 
L 161.518609 351.435059 
L 161.518609 351.435059 
L 158.195717 351.435059 
z
" clip-path="url(#p449595f37e)" style="fill: #0000ff; opacity: 0.7"/>
   </g>
   <g id="patch_19">
    <path d="M 161.518609 351.435059 
L 164.841502 351.435059 
L 164.841502 351.435059 
L 161.518609 351.435059 
z
" clip-path="url(#p449595f37e)" style="fill: #0000ff; opacity: 0.7"/>
   </g>
   <g id="patch_20">
    <path d="M 164.841502 351.435059 
L 168.164394 351.435059 
L 168.164394 351.435059 
L 164.841502 351.435059 
z
" clip-path="url(#p449595f37e)" style="fill: #0000ff; opacity: 0.7"/>
   </g>
   <g id="patch_21">
    <path d="M 168.164394 351.435059 
L 171.487286 351.435059 
L 171.487286 351.435059 
L 168.164394 351.435059 
z
" clip-path="url(#p449595f37e)" style="fill: #0000ff; opacity: 0.7"/>
   </g>
   <g id="patch_22">
    <path d="M 168.529912 351.435059 
L 171.852804 351.435059 
L 171.852804 353.482189 
L 168.529912 353.482189 
z
" clip-path="url(#p449595f37e)" style="fill: #0000ff; opacity: 0.7"/>
   </g>
   <g id="patch_23">
    <path d="M 171.852804 351.435059 
L 175.175696 351.435059 
L 175.175696 351.435059 
L 171.852804 351.435059 
z
" clip-path="url(#p449595f37e)" style="fill: #0000ff; opacity: 0.7"/>
   </g>
   <g id="patch_24">
    <path d="M 175.175696 351.435059 
L 178.498589 351.435059 
L 178.498589 351.435059 
L 175.175696 351.435059 
z
" clip-path="url(#p449595f37e)" style="fill: #0000ff; opacity: 0.7"/>
   </g>
   <g id="patch_25">
    <path d="M 178.498589 351.435059 
L 181.821481 351.435059 
L 181.821481 351.435059 
L 178.498589 351.435059 
z
" clip-path="url(#p449595f37e)" style="fill: #0000ff; opacity: 0.7"/>
   </g>
   <g id="patch_26">
    <path d="M 181.821481 351.435059 
L 185.144373 351.435059 
L 185.144373 351.435059 
L 181.821481 351.435059 
z
" clip-path="url(#p449595f37e)" style="fill: #0000ff; opacity: 0.7"/>
   </g>
   <g id="patch_27">
    <path d="M 183.881674 351.435059 
L 187.204566 351.435059 
L 187.204566 352.688872 
L 183.881674 352.688872 
z
" clip-path="url(#p449595f37e)" style="fill: #0000ff; opacity: 0.7"/>
   </g>
   <g id="patch_28">
    <path d="M 187.204566 351.435059 
L 190.527459 351.435059 
L 190.527459 351.435059 
L 187.204566 351.435059 
z
" clip-path="url(#p449595f37e)" style="fill: #0000ff; opacity: 0.7"/>
   </g>
   <g id="patch_29">
    <path d="M 190.527459 351.435059 
L 193.850351 351.435059 
L 193.850351 351.435059 
L 190.527459 351.435059 
z
" clip-path="url(#p449595f37e)" style="fill: #0000ff; opacity: 0.7"/>
   </g>
   <g id="patch_30">
    <path d="M 193.850351 351.435059 
L 197.173243 351.435059 
L 197.173243 351.435059 
L 193.850351 351.435059 
z
" clip-path="url(#p449595f37e)" style="fill: #0000ff; opacity: 0.7"/>
   </g>
   <g id="patch_31">
    <path d="M 197.173243 351.435059 
L 200.496135 351.435059 
L 200.496135 351.435059 
L 197.173243 351.435059 
z
" clip-path="url(#p449595f37e)" style="fill: #0000ff; opacity: 0.7"/>
   </g>
   <g id="patch_32">
    <path d="M 200.496135 351.435059 
L 203.819027 351.435059 
L 203.819027 351.435059 
L 200.496135 351.435059 
z
" clip-path="url(#p449595f37e)" style="fill: #0000ff; opacity: 0.7"/>
   </g>
   <g id="patch_33">
    <path d="M 203.819027 351.435059 
L 207.14192 351.435059 
L 207.14192 351.435059 
L 203.819027 351.435059 
z
" clip-path="url(#p449595f37e)" style="fill: #0000ff; opacity: 0.7"/>
   </g>
   <g id="patch_34">
    <path d="M 207.14192 351.435059 
L 210.464812 351.435059 
L 210.464812 351.435059 
L 207.14192 351.435059 
z
" clip-path="url(#p449595f37e)" style="fill: #0000ff; opacity: 0.7"/>
   </g>
   <g id="patch_35">
    <path d="M 208.803366 351.435059 
L 212.126258 351.435059 
L 212.126258 353.514825 
L 208.803366 353.514825 
z
" clip-path="url(#p449595f37e)" style="fill: #0000ff; opacity: 0.7"/>
   </g>
   <g id="patch_36">
    <path d="M 212.126258 351.435059 
L 215.44915 351.435059 
L 215.44915 351.435059 
L 212.126258 351.435059 
z
" clip-path="url(#p449595f37e)" style="fill: #0000ff; opacity: 0.7"/>
   </g>
   <g id="patch_37">
    <path d="M 215.44915 351.435059 
L 218.772042 351.435059 
L 218.772042 351.435059 
L 215.44915 351.435059 
z
" clip-path="url(#p449595f37e)" style="fill: #0000ff; opacity: 0.7"/>
   </g>
   <g id="patch_38">
    <path d="M 218.772042 351.435059 
L 222.094935 351.435059 
L 222.094935 351.435059 
L 218.772042 351.435059 
z
" clip-path="url(#p449595f37e)" style="fill: #0000ff; opacity: 0.7"/>
   </g>
   <g id="patch_39">
    <path d="M 222.094935 351.435059 
L 225.417827 351.435059 
L 225.417827 351.435059 
L 222.094935 351.435059 
z
" clip-path="url(#p449595f37e)" style="fill: #0000ff; opacity: 0.7"/>
   </g>
   <g id="patch_40">
    <path d="M 225.417827 351.435059 
L 228.740719 351.435059 
L 228.740719 351.435059 
L 225.417827 351.435059 
z
" clip-path="url(#p449595f37e)" style="fill: #0000ff; opacity: 0.7"/>
   </g>
   <g id="patch_41">
    <path d="M 228.740719 351.435059 
L 232.063611 351.435059 
L 232.063611 351.435059 
L 228.740719 351.435059 
z
" clip-path="url(#p449595f37e)" style="fill: #0000ff; opacity: 0.7"/>
   </g>
   <g id="patch_42">
    <path d="M 229.903731 351.435059 
L 233.226624 351.435059 
L 233.226624 351.72373 
L 229.903731 351.72373 
z
" clip-path="url(#p449595f37e)" style="fill: #0000ff; opacity: 0.7"/>
   </g>
   <g id="patch_43">
    <path d="M 233.226624 351.435059 
L 236.549516 351.435059 
L 236.549516 351.435059 
L 233.226624 351.435059 
z
" clip-path="url(#p449595f37e)" style="fill: #0000ff; opacity: 0.7"/>
   </g>
   <g id="patch_44">
    <path d="M 236.549516 351.435059 
L 239.872408 351.435059 
L 239.872408 351.435059 
L 236.549516 351.435059 
z
" clip-path="url(#p449595f37e)" style="fill: #0000ff; opacity: 0.7"/>
   </g>
   <g id="patch_45">
    <path d="M 239.872408 351.435059 
L 243.1953 351.435059 
L 243.1953 351.435059 
L 239.872408 351.435059 
z
" clip-path="url(#p449595f37e)" style="fill: #0000ff; opacity: 0.7"/>
   </g>
   <g id="patch_46">
    <path d="M 243.1953 351.435059 
L 246.518193 351.435059 
L 246.518193 351.435059 
L 243.1953 351.435059 
z
" clip-path="url(#p449595f37e)" style="fill: #0000ff; opacity: 0.7"/>
   </g>
   <g id="patch_47">
    <path d="M 246.518193 351.435059 
L 249.841085 351.435059 
L 249.841085 355.616828 
L 246.518193 355.616828 
z
" clip-path="url(#p449595f37e)" style="fill: #0000ff; opacity: 0.7"/>
   </g>
   <g id="patch_48">
    <path d="M 249.841085 351.435059 
L 253.163977 351.435059 
L 253.163977 351.435059 
L 249.841085 351.435059 
z
" clip-path="url(#p449595f37e)" style="fill: #0000ff; opacity: 0.7"/>
   </g>
   <g id="patch_49">
    <path d="M 253.163977 351.435059 
L 256.486869 351.435059 
L 256.486869 351.435059 
L 253.163977 351.435059 
z
" clip-path="url(#p449595f37e)" style="fill: #0000ff; opacity: 0.7"/>
   </g>
   <g id="patch_50">
    <path d="M 256.486869 351.435059 
L 259.809761 351.435059 
L 259.809761 351.435059 
L 256.486869 351.435059 
z
" clip-path="url(#p449595f37e)" style="fill: #0000ff; opacity: 0.7"/>
   </g>
   <g id="patch_51">
    <path d="M 259.809761 351.435059 
L 263.132654 351.435059 
L 263.132654 351.435059 
L 259.809761 351.435059 
z
" clip-path="url(#p449595f37e)" style="fill: #0000ff; opacity: 0.7"/>
   </g>
   <g id="patch_52">
    <path d="M 263.132654 351.435059 
L 266.455546 351.435059 
L 266.455546 351.435059 
L 263.132654 351.435059 
z
" clip-path="url(#p449595f37e)" style="fill: #0000ff; opacity: 0.7"/>
   </g>
   <g id="patch_53">
    <path d="M 266.455546 351.435059 
L 269.778438 351.435059 
L 269.778438 351.435059 
L 266.455546 351.435059 
z
" clip-path="url(#p449595f37e)" style="fill: #0000ff; opacity: 0.7"/>
   </g>
   <g id="patch_54">
    <path d="M 269.512607 351.435059 
L 272.835499 351.435059 
L 272.835499 362.39158 
L 269.512607 362.39158 
z
" clip-path="url(#p449595f37e)" style="fill: #0000ff; opacity: 0.7"/>
   </g>
   <g id="patch_55">
    <path d="M 272.835499 351.435059 
L 276.158391 351.435059 
L 276.158391 351.435059 
L 272.835499 351.435059 
z
" clip-path="url(#p449595f37e)" style="fill: #0000ff; opacity: 0.7"/>
   </g>
   <g id="patch_56">
    <path d="M 276.158391 351.435059 
L 279.481283 351.435059 
L 279.481283 351.435059 
L 276.158391 351.435059 
z
" clip-path="url(#p449595f37e)" style="fill: #0000ff; opacity: 0.7"/>
   </g>
   <g id="patch_57">
    <path d="M 279.481283 351.435059 
L 282.804176 351.435059 
L 282.804176 351.435059 
L 279.481283 351.435059 
z
" clip-path="url(#p449595f37e)" style="fill: #0000ff; opacity: 0.7"/>
   </g>
   <g id="patch_58">
    <path d="M 282.272513 351.435059 
L 285.595405 351.435059 
L 285.595405 352.146246 
L 282.272513 352.146246 
z
" clip-path="url(#p449595f37e)" style="fill: #0000ff; opacity: 0.7"/>
   </g>
   <g id="patch_59">
    <path d="M 285.595405 351.435059 
L 288.918297 351.435059 
L 288.918297 351.435059 
L 285.595405 351.435059 
z
" clip-path="url(#p449595f37e)" style="fill: #0000ff; opacity: 0.7"/>
   </g>
   <g id="patch_60">
    <path d="M 288.918297 351.435059 
L 292.24119 351.435059 
L 292.24119 351.435059 
L 288.918297 351.435059 
z
" clip-path="url(#p449595f37e)" style="fill: #0000ff; opacity: 0.7"/>
   </g>
   <g id="patch_61">
    <path d="M 292.24119 351.435059 
L 295.564082 351.435059 
L 295.564082 351.435059 
L 292.24119 351.435059 
z
" clip-path="url(#p449595f37e)" style="fill: #0000ff; opacity: 0.7"/>
   </g>
   <g id="patch_62">
    <path d="M 294.434298 351.435059 
L 297.757191 351.435059 
L 297.757191 352.744103 
L 294.434298 352.744103 
z
" clip-path="url(#p449595f37e)" style="fill: #0000ff; opacity: 0.7"/>
   </g>
   <g id="patch_63">
    <path d="M 297.757191 351.435059 
L 301.080083 351.435059 
L 301.080083 351.435059 
L 297.757191 351.435059 
z
" clip-path="url(#p449595f37e)" style="fill: #0000ff; opacity: 0.7"/>
   </g>
   <g id="patch_64">
    <path d="M 301.080083 351.435059 
L 304.402975 351.435059 
L 304.402975 351.435059 
L 301.080083 351.435059 
z
" clip-path="url(#p449595f37e)" style="fill: #0000ff; opacity: 0.7"/>
   </g>
   <g id="patch_65">
    <path d="M 304.402975 351.435059 
L 307.725867 351.435059 
L 307.725867 351.435059 
L 304.402975 351.435059 
z
" clip-path="url(#p449595f37e)" style="fill: #0000ff; opacity: 0.7"/>
   </g>
   <g id="patch_66">
    <path d="M 307.725867 351.435059 
L 311.04876 351.435059 
L 311.04876 351.435059 
L 307.725867 351.435059 
z
" clip-path="url(#p449595f37e)" style="fill: #0000ff; opacity: 0.7"/>
   </g>
   <g id="patch_67">
    <path d="M 311.04876 351.435059 
L 314.371652 351.435059 
L 314.371652 351.435059 
L 311.04876 351.435059 
z
" clip-path="url(#p449595f37e)" style="fill: #0000ff; opacity: 0.7"/>
   </g>
   <g id="patch_68">
    <path d="M 314.371652 351.435059 
L 317.694544 351.435059 
L 317.694544 351.435059 
L 314.371652 351.435059 
z
" clip-path="url(#p449595f37e)" style="fill: #0000ff; opacity: 0.7"/>
   </g>
   <g id="patch_69">
    <path d="M 314.870086 351.435059 
L 318.192978 351.435059 
L 318.192978 359.615689 
L 314.870086 359.615689 
z
" clip-path="url(#p449595f37e)" style="fill: #0000ff; opacity: 0.7"/>
   </g>
   <g id="patch_70">
    <path d="M 318.192978 351.435059 
L 321.51587 351.435059 
L 321.51587 351.435059 
L 318.192978 351.435059 
z
" clip-path="url(#p449595f37e)" style="fill: #0000ff; opacity: 0.7"/>
   </g>
   <g id="patch_71">
    <path d="M 321.51587 351.435059 
L 324.838762 351.435059 
L 324.838762 351.435059 
L 321.51587 351.435059 
z
" clip-path="url(#p449595f37e)" style="fill: #0000ff; opacity: 0.7"/>
   </g>
   <g id="patch_72">
    <path d="M 324.838762 351.435059 
L 328.161655 351.435059 
L 328.161655 351.435059 
L 324.838762 351.435059 
z
" clip-path="url(#p449595f37e)" style="fill: #0000ff; opacity: 0.7"/>
   </g>
   <g id="patch_73">
    <path d="M 328.161655 351.435059 
L 331.484547 351.435059 
L 331.484547 351.435059 
L 328.161655 351.435059 
z
" clip-path="url(#p449595f37e)" style="fill: #0000ff; opacity: 0.7"/>
   </g>
   <g id="patch_74">
    <path d="M 330.853197 351.435059 
L 334.176089 351.435059 
L 334.176089 351.756366 
L 330.853197 351.756366 
z
" clip-path="url(#p449595f37e)" style="fill: #0000ff; opacity: 0.7"/>
   </g>
   <g id="patch_75">
    <path d="M 334.176089 351.435059 
L 337.498982 351.435059 
L 337.498982 351.435059 
L 334.176089 351.435059 
z
" clip-path="url(#p449595f37e)" style="fill: #0000ff; opacity: 0.7"/>
   </g>
   <g id="patch_76">
    <path d="M 337.498982 351.435059 
L 340.821874 351.435059 
L 340.821874 351.435059 
L 337.498982 351.435059 
z
" clip-path="url(#p449595f37e)" style="fill: #0000ff; opacity: 0.7"/>
   </g>
   <g id="patch_77">
    <path d="M 340.821874 351.435059 
L 344.144766 351.435059 
L 344.144766 351.435059 
L 340.821874 351.435059 
z
" clip-path="url(#p449595f37e)" style="fill: #0000ff; opacity: 0.7"/>
   </g>
   <g id="patch_78">
    <path d="M 344.144766 351.435059 
L 347.467658 351.435059 
L 347.467658 351.435059 
L 344.144766 351.435059 
z
" clip-path="url(#p449595f37e)" style="fill: #0000ff; opacity: 0.7"/>
   </g>
   <g id="patch_79">
    <path d="M 347.467658 351.435059 
L 350.790551 351.435059 
L 350.790551 351.435059 
L 347.467658 351.435059 
z
" clip-path="url(#p449595f37e)" style="fill: #0000ff; opacity: 0.7"/>
   </g>
   <g id="patch_80">
    <path d="M 350.790551 351.435059 
L 354.113443 351.435059 
L 354.113443 351.435059 
L 350.790551 351.435059 
z
" clip-path="url(#p449595f37e)" style="fill: #0000ff; opacity: 0.7"/>
   </g>
   <g id="patch_81">
    <path d="M 354.113443 351.435059 
L 357.436335 351.435059 
L 357.436335 351.435059 
L 354.113443 351.435059 
z
" clip-path="url(#p449595f37e)" style="fill: #0000ff; opacity: 0.7"/>
   </g>
   <g id="patch_82">
    <path d="M 357.436335 351.435059 
L 360.759227 351.435059 
L 360.759227 351.435059 
L 357.436335 351.435059 
z
" clip-path="url(#p449595f37e)" style="fill: #0000ff; opacity: 0.7"/>
   </g>
   <g id="patch_83">
    <path d="M 358.964865 351.435059 
L 362.287758 351.435059 
L 362.287758 358.417824 
L 358.964865 358.417824 
z
" clip-path="url(#p449595f37e)" style="fill: #0000ff; opacity: 0.7"/>
   </g>
   <g id="patch_84">
    <path d="M 362.287758 351.435059 
L 365.61065 351.435059 
L 365.61065 351.435059 
L 362.287758 351.435059 
z
" clip-path="url(#p449595f37e)" style="fill: #0000ff; opacity: 0.7"/>
   </g>
   <g id="patch_85">
    <path d="M 365.61065 351.435059 
L 368.933542 351.435059 
L 368.933542 351.435059 
L 365.61065 351.435059 
z
" clip-path="url(#p449595f37e)" style="fill: #0000ff; opacity: 0.7"/>
   </g>
   <g id="patch_86">
    <path d="M 368.933542 351.435059 
L 372.256434 351.435059 
L 372.256434 351.435059 
L 368.933542 351.435059 
z
" clip-path="url(#p449595f37e)" style="fill: #0000ff; opacity: 0.7"/>
   </g>
   <g id="patch_87">
    <path d="M 372.256434 351.435059 
L 375.579327 351.435059 
L 375.579327 351.435059 
L 372.256434 351.435059 
z
" clip-path="url(#p449595f37e)" style="fill: #0000ff; opacity: 0.7"/>
   </g>
   <g id="patch_88">
    <path d="M 373.0207 351.435059 
L 376.343592 351.435059 
L 376.343592 360.085511 
L 373.0207 360.085511 
z
" clip-path="url(#p449595f37e)" style="fill: #0000ff; opacity: 0.7"/>
   </g>
   <g id="patch_89">
    <path d="M 376.343592 351.435059 
L 379.666484 351.435059 
L 379.666484 351.435059 
L 376.343592 351.435059 
z
" clip-path="url(#p449595f37e)" style="fill: #0000ff; opacity: 0.7"/>
   </g>
   <g id="patch_90">
    <path d="M 379.666484 351.435059 
L 382.989376 351.435059 
L 382.989376 351.435059 
L 379.666484 351.435059 
z
" clip-path="url(#p449595f37e)" style="fill: #0000ff; opacity: 0.7"/>
   </g>
   <g id="patch_91">
    <path d="M 382.989376 351.435059 
L 386.312268 351.435059 
L 386.312268 351.435059 
L 382.989376 351.435059 
z
" clip-path="url(#p449595f37e)" style="fill: #0000ff; opacity: 0.7"/>
   </g>
   <g id="patch_92">
    <path d="M 386.312268 351.435059 
L 389.635161 351.435059 
L 389.635161 351.435059 
L 386.312268 351.435059 
z
" clip-path="url(#p449595f37e)" style="fill: #0000ff; opacity: 0.7"/>
   </g>
   <g id="patch_93">
    <path d="M 389.635161 351.435059 
L 392.958053 351.435059 
L 392.958053 351.435059 
L 389.635161 351.435059 
z
" clip-path="url(#p449595f37e)" style="fill: #0000ff; opacity: 0.7"/>
   </g>
   <g id="patch_94">
    <path d="M 392.825137 351.435059 
L 396.148029 351.435059 
L 396.148029 354.734926 
L 392.825137 354.734926 
z
" clip-path="url(#p449595f37e)" style="fill: #0000ff; opacity: 0.7"/>
   </g>
   <g id="patch_95">
    <path d="M 396.148029 351.435059 
L 399.470922 351.435059 
L 399.470922 351.435059 
L 396.148029 351.435059 
z
" clip-path="url(#p449595f37e)" style="fill: #0000ff; opacity: 0.7"/>
   </g>
   <g id="patch_96">
    <path d="M 399.470922 351.435059 
L 402.793814 351.435059 
L 402.793814 351.435059 
L 399.470922 351.435059 
z
" clip-path="url(#p449595f37e)" style="fill: #0000ff; opacity: 0.7"/>
   </g>
   <g id="patch_97">
    <path d="M 402.793814 351.435059 
L 406.116706 351.435059 
L 406.116706 351.435059 
L 402.793814 351.435059 
z
" clip-path="url(#p449595f37e)" style="fill: #0000ff; opacity: 0.7"/>
   </g>
   <g id="patch_98">
    <path d="M 406.116706 351.435059 
L 409.439598 351.435059 
L 409.439598 351.435059 
L 406.116706 351.435059 
z
" clip-path="url(#p449595f37e)" style="fill: #0000ff; opacity: 0.7"/>
   </g>
   <g id="patch_99">
    <path d="M 409.439598 351.435059 
L 412.762491 351.435059 
L 412.762491 351.435059 
L 409.439598 351.435059 
z
" clip-path="url(#p449595f37e)" style="fill: #0000ff; opacity: 0.7"/>
   </g>
   <g id="patch_100">
    <path d="M 412.762491 351.435059 
L 416.085383 351.435059 
L 416.085383 351.435059 
L 412.762491 351.435059 
z
" clip-path="url(#p449595f37e)" style="fill: #0000ff; opacity: 0.7"/>
   </g>
   <g id="patch_101">
    <path d="M 416.085383 351.435059 
L 419.408275 351.435059 
L 419.408275 351.435059 
L 416.085383 351.435059 
z
" clip-path="url(#p449595f37e)" style="fill: #0000ff; opacity: 0.7"/>
   </g>
   <g id="patch_102">
    <path d="M 419.408275 351.435059 
L 422.731167 351.435059 
L 422.731167 351.435059 
L 419.408275 351.435059 
z
" clip-path="url(#p449595f37e)" style="fill: #0000ff; opacity: 0.7"/>
   </g>
   <g id="patch_103">
    <path d="M 419.674106 351.435059 
L 422.996999 351.435059 
L 422.996999 356.832625 
L 419.674106 356.832625 
z
" clip-path="url(#p449595f37e)" style="fill: #0000ff; opacity: 0.7"/>
   </g>
   <g id="patch_104">
    <path d="M 422.996999 351.435059 
L 426.319891 351.435059 
L 426.319891 351.435059 
L 422.996999 351.435059 
z
" clip-path="url(#p449595f37e)" style="fill: #0000ff; opacity: 0.7"/>
   </g>
   <g id="patch_105">
    <path d="M 426.319891 351.435059 
L 429.642783 351.435059 
L 429.642783 351.435059 
L 426.319891 351.435059 
z
" clip-path="url(#p449595f37e)" style="fill: #0000ff; opacity: 0.7"/>
   </g>
   <g id="patch_106">
    <path d="M 429.642783 351.435059 
L 432.965675 351.435059 
L 432.965675 351.435059 
L 429.642783 351.435059 
z
" clip-path="url(#p449595f37e)" style="fill: #0000ff; opacity: 0.7"/>
   </g>
   <g id="patch_107">
    <path d="M 432.965675 351.435059 
L 436.288568 351.435059 
L 436.288568 351.435059 
L 432.965675 351.435059 
z
" clip-path="url(#p449595f37e)" style="fill: #0000ff; opacity: 0.7"/>
   </g>
   <g id="patch_108">
    <path d="M 435.025869 351.435059 
L 438.348761 351.435059 
L 438.348761 354.54377 
L 435.025869 354.54377 
z
" clip-path="url(#p449595f37e)" style="fill: #0000ff; opacity: 0.7"/>
   </g>
   <g id="patch_109">
    <path d="M 438.348761 351.435059 
L 441.671653 351.435059 
L 441.671653 351.435059 
L 438.348761 351.435059 
z
" clip-path="url(#p449595f37e)" style="fill: #0000ff; opacity: 0.7"/>
   </g>
   <g id="patch_110">
    <path d="M 441.671653 351.435059 
L 444.994545 351.435059 
L 444.994545 351.435059 
L 441.671653 351.435059 
z
" clip-path="url(#p449595f37e)" style="fill: #0000ff; opacity: 0.7"/>
   </g>
   <g id="patch_111">
    <path d="M 444.994545 351.435059 
L 448.317437 351.435059 
L 448.317437 351.435059 
L 444.994545 351.435059 
z
" clip-path="url(#p449595f37e)" style="fill: #0000ff; opacity: 0.7"/>
   </g>
   <g id="patch_112">
    <path d="M 448.317437 351.435059 
L 451.64033 351.435059 
L 451.64033 351.435059 
L 448.317437 351.435059 
z
" clip-path="url(#p449595f37e)" style="fill: #0000ff; opacity: 0.7"/>
   </g>
   <g id="patch_113">
    <path d="M 448.417124 351.435059 
L 451.740016 351.435059 
L 451.740016 354.186562 
L 448.417124 354.186562 
z
" clip-path="url(#p449595f37e)" style="fill: #0000ff; opacity: 0.7"/>
   </g>
   <g id="patch_114">
    <path d="M 451.740016 351.435059 
L 455.062909 351.435059 
L 455.062909 351.435059 
L 451.740016 351.435059 
z
" clip-path="url(#p449595f37e)" style="fill: #0000ff; opacity: 0.7"/>
   </g>
   <g id="patch_115">
    <path d="M 455.062909 351.435059 
L 458.385801 351.435059 
L 458.385801 351.435059 
L 455.062909 351.435059 
z
" clip-path="url(#p449595f37e)" style="fill: #0000ff; opacity: 0.7"/>
   </g>
   <g id="patch_116">
    <path d="M 458.385801 351.435059 
L 461.708693 351.435059 
L 461.708693 351.435059 
L 458.385801 351.435059 
z
" clip-path="url(#p449595f37e)" style="fill: #0000ff; opacity: 0.7"/>
   </g>
   <g id="patch_117">
    <path d="M 461.708693 351.435059 
L 465.031585 351.435059 
L 465.031585 351.435059 
L 461.708693 351.435059 
z
" clip-path="url(#p449595f37e)" style="fill: #0000ff; opacity: 0.7"/>
   </g>
   <g id="patch_118">
    <path d="M 463.137537 351.435059 
L 466.460429 351.435059 
L 466.460429 369.36 
L 463.137537 369.36 
z
" clip-path="url(#p449595f37e)" style="fill: #0000ff; opacity: 0.7"/>
   </g>
   <g id="patch_119">
    <path d="M 466.460429 351.435059 
L 469.783321 351.435059 
L 469.783321 351.435059 
L 466.460429 351.435059 
z
" clip-path="url(#p449595f37e)" style="fill: #0000ff; opacity: 0.7"/>
   </g>
   <g id="patch_120">
    <path d="M 469.783321 351.435059 
L 473.106213 351.435059 
L 473.106213 351.435059 
L 469.783321 351.435059 
z
" clip-path="url(#p449595f37e)" style="fill: #0000ff; opacity: 0.7"/>
   </g>
   <g id="patch_121">
    <path d="M 473.106213 351.435059 
L 476.429106 351.435059 
L 476.429106 351.435059 
L 473.106213 351.435059 
z
" clip-path="url(#p449595f37e)" style="fill: #0000ff; opacity: 0.7"/>
   </g>
   <g id="patch_122">
    <path d="M 476.429106 351.435059 
L 479.751998 351.435059 
L 479.751998 351.435059 
L 476.429106 351.435059 
z
" clip-path="url(#p449595f37e)" style="fill: #0000ff; opacity: 0.7"/>
   </g>
   <g id="patch_123">
    <path d="M 479.751998 351.435059 
L 483.07489 351.435059 
L 483.07489 351.435059 
L 479.751998 351.435059 
z
" clip-path="url(#p449595f37e)" style="fill: #0000ff; opacity: 0.7"/>
   </g>
   <g id="patch_124">
    <path d="M 483.07489 351.435059 
L 486.397782 351.435059 
L 486.397782 351.435059 
L 483.07489 351.435059 
z
" clip-path="url(#p449595f37e)" style="fill: #0000ff; opacity: 0.7"/>
   </g>
   <g id="patch_125">
    <path d="M 486.397782 351.435059 
L 489.720675 351.435059 
L 489.720675 351.435059 
L 486.397782 351.435059 
z
" clip-path="url(#p449595f37e)" style="fill: #0000ff; opacity: 0.7"/>
   </g>
   <g id="patch_126">
    <path d="M 488.059228 351.435059 
L 491.382121 351.435059 
L 491.382121 351.887665 
L 488.059228 351.887665 
z
" clip-path="url(#p449595f37e)" style="fill: #0000ff; opacity: 0.7"/>
   </g>
   <g id="patch_127">
    <path d="M 491.382121 351.435059 
L 494.705013 351.435059 
L 494.705013 351.435059 
L 491.382121 351.435059 
z
" clip-path="url(#p449595f37e)" style="fill: #0000ff; opacity: 0.7"/>
   </g>
   <g id="patch_128">
    <path d="M 494.705013 351.435059 
L 498.027905 351.435059 
L 498.027905 351.435059 
L 494.705013 351.435059 
z
" clip-path="url(#p449595f37e)" style="fill: #0000ff; opacity: 0.7"/>
   </g>
   <g id="patch_129">
    <path d="M 498.027905 351.435059 
L 501.350797 351.435059 
L 501.350797 351.435059 
L 498.027905 351.435059 
z
" clip-path="url(#p449595f37e)" style="fill: #0000ff; opacity: 0.7"/>
   </g>
   <g id="patch_130">
    <path d="M 501.350797 351.435059 
L 504.67369 351.435059 
L 504.67369 351.435059 
L 501.350797 351.435059 
z
" clip-path="url(#p449595f37e)" style="fill: #0000ff; opacity: 0.7"/>
   </g>
   <g id="patch_131">
    <path d="M 502.115063 351.435059 
L 505.437955 351.435059 
L 505.437955 352.074877 
L 502.115063 352.074877 
z
" clip-path="url(#p449595f37e)" style="fill: #0000ff; opacity: 0.7"/>
   </g>
   <g id="patch_132">
    <path d="M 505.437955 351.435059 
L 508.760847 351.435059 
L 508.760847 351.435059 
L 505.437955 351.435059 
z
" clip-path="url(#p449595f37e)" style="fill: #0000ff; opacity: 0.7"/>
   </g>
   <g id="patch_133">
    <path d="M 508.760847 351.435059 
L 512.083739 351.435059 
L 512.083739 351.435059 
L 508.760847 351.435059 
z
" clip-path="url(#p449595f37e)" style="fill: #0000ff; opacity: 0.7"/>
   </g>
   <g id="patch_134">
    <path d="M 512.083739 351.435059 
L 515.406631 351.435059 
L 515.406631 351.435059 
L 512.083739 351.435059 
z
" clip-path="url(#p449595f37e)" style="fill: #0000ff; opacity: 0.7"/>
   </g>
   <g id="patch_135">
    <path d="M 515.406631 351.435059 
L 518.729524 351.435059 
L 518.729524 351.435059 
L 515.406631 351.435059 
z
" clip-path="url(#p449595f37e)" style="fill: #0000ff; opacity: 0.7"/>
   </g>
   <g id="patch_136">
    <path d="M 518.729524 351.435059 
L 522.052416 351.435059 
L 522.052416 351.435059 
L 518.729524 351.435059 
z
" clip-path="url(#p449595f37e)" style="fill: #0000ff; opacity: 0.7"/>
   </g>
   <g id="patch_137">
    <path d="M 522.052416 351.435059 
L 525.375308 351.435059 
L 525.375308 351.435059 
L 522.052416 351.435059 
z
" clip-path="url(#p449595f37e)" style="fill: #0000ff; opacity: 0.7"/>
   </g>
   <g id="patch_138">
    <path d="M 525.109477 351.435059 
L 528.432369 351.435059 
L 528.432369 351.866505 
L 525.109477 351.866505 
z
" clip-path="url(#p449595f37e)" style="fill: #0000ff; opacity: 0.7"/>
   </g>
   <g id="patch_139">
    <path d="M 528.432369 351.435059 
L 531.755261 351.435059 
L 531.755261 351.435059 
L 528.432369 351.435059 
z
" clip-path="url(#p449595f37e)" style="fill: #0000ff; opacity: 0.7"/>
   </g>
   <g id="patch_140">
    <path d="M 531.755261 351.435059 
L 535.078153 351.435059 
L 535.078153 351.435059 
L 531.755261 351.435059 
z
" clip-path="url(#p449595f37e)" style="fill: #0000ff; opacity: 0.7"/>
   </g>
   <g id="patch_141">
    <path d="M 535.078153 351.435059 
L 538.401046 351.435059 
L 538.401046 351.435059 
L 535.078153 351.435059 
z
" clip-path="url(#p449595f37e)" style="fill: #0000ff; opacity: 0.7"/>
   </g>
   <g id="patch_142">
    <path d="M 538.401046 351.435059 
L 541.723938 351.435059 
L 541.723938 351.435059 
L 538.401046 351.435059 
z
" clip-path="url(#p449595f37e)" style="fill: #0000ff; opacity: 0.7"/>
   </g>
   <g id="patch_143">
    <path d="M 541.723938 351.435059 
L 545.04683 351.435059 
L 545.04683 351.435059 
L 541.723938 351.435059 
z
" clip-path="url(#p449595f37e)" style="fill: #0000ff; opacity: 0.7"/>
   </g>
   <g id="patch_144">
    <path d="M 545.04683 351.435059 
L 548.369722 351.435059 
L 548.369722 351.435059 
L 545.04683 351.435059 
z
" clip-path="url(#p449595f37e)" style="fill: #0000ff; opacity: 0.7"/>
   </g>
   <g id="patch_145">
    <path d="M 546.209842 351.435059 
L 549.532735 351.435059 
L 549.532735 353.528095 
L 546.209842 353.528095 
z
" clip-path="url(#p449595f37e)" style="fill: #0000ff; opacity: 0.7"/>
   </g>
   <g id="patch_146">
    <path d="M 549.532735 351.435059 
L 552.855627 351.435059 
L 552.855627 351.435059 
L 549.532735 351.435059 
z
" clip-path="url(#p449595f37e)" style="fill: #0000ff; opacity: 0.7"/>
   </g>
   <g id="patch_147">
    <path d="M 552.855627 351.435059 
L 556.178519 351.435059 
L 556.178519 351.435059 
L 552.855627 351.435059 
z
" clip-path="url(#p449595f37e)" style="fill: #0000ff; opacity: 0.7"/>
   </g>
   <g id="patch_148">
    <path d="M 556.178519 351.435059 
L 559.501411 351.435059 
L 559.501411 351.435059 
L 556.178519 351.435059 
z
" clip-path="url(#p449595f37e)" style="fill: #0000ff; opacity: 0.7"/>
   </g>
   <g id="patch_149">
    <path d="M 559.501411 351.435059 
L 562.824304 351.435059 
L 562.824304 351.435059 
L 559.501411 351.435059 
z
" clip-path="url(#p449595f37e)" style="fill: #0000ff; opacity: 0.7"/>
   </g>
   <g id="patch_150">
    <path d="M 561.528376 351.435059 
L 564.851268 351.435059 
L 564.851268 353.251223 
L 561.528376 353.251223 
z
" clip-path="url(#p449595f37e)" style="fill: #0000ff; opacity: 0.7"/>
   </g>
   <g id="patch_151">
    <path d="M 564.851268 351.435059 
L 568.17416 351.435059 
L 568.17416 351.435059 
L 564.851268 351.435059 
z
" clip-path="url(#p449595f37e)" style="fill: #0000ff; opacity: 0.7"/>
   </g>
   <g id="patch_152">
    <path d="M 568.17416 351.435059 
L 571.497052 351.435059 
L 571.497052 351.435059 
L 568.17416 351.435059 
z
" clip-path="url(#p449595f37e)" style="fill: #0000ff; opacity: 0.7"/>
   </g>
   <g id="patch_153">
    <path d="M 571.497052 351.435059 
L 574.819944 351.435059 
L 574.819944 351.435059 
L 571.497052 351.435059 
z
" clip-path="url(#p449595f37e)" style="fill: #0000ff; opacity: 0.7"/>
   </g>
   <g id="patch_154">
    <path d="M 574.321511 351.435059 
L 577.644403 351.435059 
L 577.644403 353.262341 
L 574.321511 353.262341 
z
" clip-path="url(#p449595f37e)" style="fill: #0000ff; opacity: 0.7"/>
   </g>
   <g id="patch_155">
    <path d="M 577.644403 351.435059 
L 580.967295 351.435059 
L 580.967295 351.435059 
L 577.644403 351.435059 
z
" clip-path="url(#p449595f37e)" style="fill: #0000ff; opacity: 0.7"/>
   </g>
   <g id="patch_156">
    <path d="M 580.967295 351.435059 
L 584.290187 351.435059 
L 584.290187 351.435059 
L 580.967295 351.435059 
z
" clip-path="url(#p449595f37e)" style="fill: #0000ff; opacity: 0.7"/>
   </g>
   <g id="patch_157">
    <path d="M 584.290187 351.435059 
L 587.61308 351.435059 
L 587.61308 351.435059 
L 584.290187 351.435059 
z
" clip-path="url(#p449595f37e)" style="fill: #0000ff; opacity: 0.7"/>
   </g>
   <g id="patch_158">
    <path d="M 587.61308 351.435059 
L 590.935972 351.435059 
L 590.935972 351.435059 
L 587.61308 351.435059 
z
" clip-path="url(#p449595f37e)" style="fill: #0000ff; opacity: 0.7"/>
   </g>
   <g id="patch_159">
    <path d="M 590.935972 351.435059 
L 594.258864 351.435059 
L 594.258864 351.435059 
L 590.935972 351.435059 
z
" clip-path="url(#p449595f37e)" style="fill: #0000ff; opacity: 0.7"/>
   </g>
   <g id="patch_160">
    <path d="M 594.258864 351.435059 
L 597.581756 351.435059 
L 597.581756 351.435059 
L 594.258864 351.435059 
z
" clip-path="url(#p449595f37e)" style="fill: #0000ff; opacity: 0.7"/>
   </g>
   <g id="patch_161">
    <path d="M 597.581756 351.435059 
L 600.904648 351.435059 
L 600.904648 351.435059 
L 597.581756 351.435059 
z
" clip-path="url(#p449595f37e)" style="fill: #0000ff; opacity: 0.7"/>
   </g>
   <g id="patch_162">
    <path d="M 599.243202 351.435059 
L 602.566095 351.435059 
L 602.566095 354.788005 
L 599.243202 354.788005 
z
" clip-path="url(#p449595f37e)" style="fill: #0000ff; opacity: 0.7"/>
   </g>
   <g id="patch_163">
    <path d="M 602.566095 351.435059 
L 605.888987 351.435059 
L 605.888987 351.435059 
L 602.566095 351.435059 
z
" clip-path="url(#p449595f37e)" style="fill: #0000ff; opacity: 0.7"/>
   </g>
   <g id="patch_164">
    <path d="M 605.888987 351.435059 
L 609.211879 351.435059 
L 609.211879 351.435059 
L 605.888987 351.435059 
z
" clip-path="url(#p449595f37e)" style="fill: #0000ff; opacity: 0.7"/>
   </g>
   <g id="patch_165">
    <path d="M 609.211879 351.435059 
L 612.534771 351.435059 
L 612.534771 351.435059 
L 609.211879 351.435059 
z
" clip-path="url(#p449595f37e)" style="fill: #0000ff; opacity: 0.7"/>
   </g>
   <g id="patch_166">
    <path d="M 612.534771 351.435059 
L 615.857663 351.435059 
L 615.857663 351.435059 
L 612.534771 351.435059 
z
" clip-path="url(#p449595f37e)" style="fill: #0000ff; opacity: 0.7"/>
   </g>
   <g id="patch_167">
    <path d="M 612.667687 351.435059 
L 615.990579 351.435059 
L 615.990579 355.616828 
L 612.667687 355.616828 
z
" clip-path="url(#p449595f37e)" style="fill: #0000ff; opacity: 0.7"/>
   </g>
   <g id="patch_168">
    <path d="M 615.990579 351.435059 
L 619.313471 351.435059 
L 619.313471 351.435059 
L 615.990579 351.435059 
z
" clip-path="url(#p449595f37e)" style="fill: #0000ff; opacity: 0.7"/>
   </g>
   <g id="patch_169">
    <path d="M 619.313471 351.435059 
L 622.636364 351.435059 
L 622.636364 351.435059 
L 619.313471 351.435059 
z
" clip-path="url(#p449595f37e)" style="fill: #0000ff; opacity: 0.7"/>
   </g>
   <g id="patch_170">
    <path d="M 122.011063 351.435059 
L 122.675642 351.435059 
L 122.675642 347.309075 
L 122.011063 347.309075 
z
" clip-path="url(#p449595f37e)" style="opacity: 0.7"/>
   </g>
   <g id="patch_171">
    <path d="M 128.08127 351.435059 
L 128.745848 351.435059 
L 128.745848 344.885062 
L 128.08127 344.885062 
z
" clip-path="url(#p449595f37e)" style="opacity: 0.7"/>
   </g>
   <g id="patch_172">
    <path d="M 131.549959 351.435059 
L 132.214538 351.435059 
L 132.214538 344.465406 
L 131.549959 344.465406 
z
" clip-path="url(#p449595f37e)" style="opacity: 0.7"/>
   </g>
   <g id="patch_173">
    <path d="M 136.752993 351.435059 
L 137.417572 351.435059 
L 137.417572 331.590621 
L 136.752993 331.590621 
z
" clip-path="url(#p449595f37e)" style="opacity: 0.7"/>
   </g>
   <g id="patch_174">
    <path d="M 144.557545 351.435059 
L 145.222123 351.435059 
L 145.222123 340.081271 
L 144.557545 340.081271 
z
" clip-path="url(#p449595f37e)" style="opacity: 0.7"/>
   </g>
   <g id="patch_175">
    <path d="M 146.291889 351.435059 
L 146.956468 351.435059 
L 146.956468 340.242745 
L 146.291889 340.242745 
z
" clip-path="url(#p449595f37e)" style="opacity: 0.7"/>
   </g>
   <g id="patch_176">
    <path d="M 154.963613 351.435059 
L 155.628191 351.435059 
L 155.628191 324.431651 
L 154.963613 324.431651 
z
" clip-path="url(#p449595f37e)" style="opacity: 0.7"/>
   </g>
   <g id="patch_177">
    <path d="M 159.299475 351.435059 
L 159.964053 351.435059 
L 159.964053 314.237363 
L 159.299475 314.237363 
z
" clip-path="url(#p449595f37e)" style="opacity: 0.7"/>
   </g>
   <g id="patch_178">
    <path d="M 165.369681 351.435059 
L 166.034259 351.435059 
L 166.034259 328.954222 
L 165.369681 328.954222 
z
" clip-path="url(#p449595f37e)" style="opacity: 0.7"/>
   </g>
   <g id="patch_179">
    <path d="M 168.83837 351.435059 
L 169.502949 351.435059 
L 169.502949 328.814394 
L 168.83837 328.814394 
z
" clip-path="url(#p449595f37e)" style="opacity: 0.7"/>
   </g>
   <g id="patch_180">
    <path d="M 174.908577 351.435059 
L 175.573155 351.435059 
L 175.573155 342.876192 
L 174.908577 342.876192 
z
" clip-path="url(#p449595f37e)" style="opacity: 0.7"/>
   </g>
   <g id="patch_181">
    <path d="M 177.510094 351.435059 
L 178.174672 351.435059 
L 178.174672 344.949476 
L 177.510094 344.949476 
z
" clip-path="url(#p449595f37e)" style="opacity: 0.7"/>
   </g>
   <g id="patch_182">
    <path d="M 184.447473 351.435059 
L 185.112051 351.435059 
L 185.112051 344.913293 
L 184.447473 344.913293 
z
" clip-path="url(#p449595f37e)" style="opacity: 0.7"/>
   </g>
   <g id="patch_183">
    <path d="M 191.384852 351.435059 
L 192.04943 351.435059 
L 192.04943 347.256978 
L 191.384852 347.256978 
z
" clip-path="url(#p449595f37e)" style="opacity: 0.7"/>
   </g>
   <g id="patch_184">
    <path d="M 196.587886 351.435059 
L 197.252464 351.435059 
L 197.252464 348.671687 
L 196.587886 348.671687 
z
" clip-path="url(#p449595f37e)" style="opacity: 0.7"/>
   </g>
   <g id="patch_185">
    <path d="M 199.189403 351.435059 
L 199.853981 351.435059 
L 199.853981 348.452945 
L 199.189403 348.452945 
z
" clip-path="url(#p449595f37e)" style="opacity: 0.7"/>
   </g>
   <g id="patch_186">
    <path d="M 203.525265 351.435059 
L 204.189843 351.435059 
L 204.189843 350.030991 
L 203.525265 350.030991 
z
" clip-path="url(#p449595f37e)" style="opacity: 0.7"/>
   </g>
   <g id="patch_187">
    <path d="M 207.861126 351.435059 
L 208.525705 351.435059 
L 208.525705 348.622704 
L 207.861126 348.622704 
z
" clip-path="url(#p449595f37e)" style="opacity: 0.7"/>
   </g>
   <g id="patch_188">
    <path d="M 212.196988 351.435059 
L 212.861567 351.435059 
L 212.861567 343.102517 
L 212.196988 343.102517 
z
" clip-path="url(#p449595f37e)" style="opacity: 0.7"/>
   </g>
   <g id="patch_189">
    <path d="M 215.665678 351.435059 
L 216.330256 351.435059 
L 216.330256 326.662883 
L 215.665678 326.662883 
z
" clip-path="url(#p449595f37e)" style="opacity: 0.7"/>
   </g>
   <g id="patch_190">
    <path d="M 224.337401 351.435059 
L 225.00198 351.435059 
L 225.00198 348.586263 
L 224.337401 348.586263 
z
" clip-path="url(#p449595f37e)" style="opacity: 0.7"/>
   </g>
   <g id="patch_191">
    <path d="M 227.806091 351.435059 
L 228.470669 351.435059 
L 228.470669 339.124427 
L 227.806091 339.124427 
z
" clip-path="url(#p449595f37e)" style="opacity: 0.7"/>
   </g>
   <g id="patch_192">
    <path d="M 233.009125 351.435059 
L 233.673703 351.435059 
L 233.673703 342.620308 
L 233.009125 342.620308 
z
" clip-path="url(#p449595f37e)" style="opacity: 0.7"/>
   </g>
   <g id="patch_193">
    <path d="M 240.813676 351.435059 
L 241.478254 351.435059 
L 241.478254 345.66494 
L 240.813676 345.66494 
z
" clip-path="url(#p449595f37e)" style="opacity: 0.7"/>
   </g>
   <g id="patch_194">
    <path d="M 246.01671 351.435059 
L 246.681288 351.435059 
L 246.681288 343.969919 
L 246.01671 343.969919 
z
" clip-path="url(#p449595f37e)" style="opacity: 0.7"/>
   </g>
   <g id="patch_195">
    <path d="M 251.219744 351.435059 
L 251.884323 351.435059 
L 251.884323 344.767485 
L 251.219744 344.767485 
z
" clip-path="url(#p449595f37e)" style="opacity: 0.7"/>
   </g>
   <g id="patch_196">
    <path d="M 256.422778 351.435059 
L 257.087357 351.435059 
L 257.087357 328.926175 
L 256.422778 328.926175 
z
" clip-path="url(#p449595f37e)" style="opacity: 0.7"/>
   </g>
   <g id="patch_197">
    <path d="M 262.492985 351.435059 
L 263.157563 351.435059 
L 263.157563 335.931218 
L 262.492985 335.931218 
z
" clip-path="url(#p449595f37e)" style="opacity: 0.7"/>
   </g>
   <g id="patch_198">
    <path d="M 268.563191 351.435059 
L 269.22777 351.435059 
L 269.22777 66.96 
L 268.563191 66.96 
z
" clip-path="url(#p449595f37e)" style="opacity: 0.7"/>
   </g>
   <g id="patch_199">
    <path d="M 277.234915 351.435059 
L 277.899493 351.435059 
L 277.899493 347.501433 
L 277.234915 347.501433 
z
" clip-path="url(#p449595f37e)" style="opacity: 0.7"/>
   </g>
   <g id="patch_200">
    <path d="M 282.437949 351.435059 
L 283.102527 351.435059 
L 283.102527 330.072362 
L 282.437949 330.072362 
z
" clip-path="url(#p449595f37e)" style="opacity: 0.7"/>
   </g>
   <g id="patch_201">
    <path d="M 288.508155 351.435059 
L 289.172734 351.435059 
L 289.172734 294.238411 
L 288.508155 294.238411 
z
" clip-path="url(#p449595f37e)" style="opacity: 0.7"/>
   </g>
   <g id="patch_202">
    <path d="M 294.578362 351.435059 
L 295.24294 351.435059 
L 295.24294 324.326503 
L 294.578362 324.326503 
z
" clip-path="url(#p449595f37e)" style="opacity: 0.7"/>
   </g>
   <g id="patch_203">
    <path d="M 298.047051 351.435059 
L 298.71163 351.435059 
L 298.71163 345.081548 
L 298.047051 345.081548 
z
" clip-path="url(#p449595f37e)" style="opacity: 0.7"/>
   </g>
   <g id="patch_204">
    <path d="M 304.117258 351.435059 
L 304.781836 351.435059 
L 304.781836 347.01726 
L 304.117258 347.01726 
z
" clip-path="url(#p449595f37e)" style="opacity: 0.7"/>
   </g>
   <g id="patch_205">
    <path d="M 310.187464 351.435059 
L 310.852043 351.435059 
L 310.852043 344.133899 
L 310.187464 344.133899 
z
" clip-path="url(#p449595f37e)" style="opacity: 0.7"/>
   </g>
   <g id="patch_206">
    <path d="M 314.523326 351.435059 
L 315.187904 351.435059 
L 315.187904 321.434931 
L 314.523326 321.434931 
z
" clip-path="url(#p449595f37e)" style="opacity: 0.7"/>
   </g>
   <g id="patch_207">
    <path d="M 320.593533 351.435059 
L 321.258111 351.435059 
L 321.258111 284.233032 
L 320.593533 284.233032 
z
" clip-path="url(#p449595f37e)" style="opacity: 0.7"/>
   </g>
   <g id="patch_208">
    <path d="M 330.132428 351.435059 
L 330.797007 351.435059 
L 330.797007 321.488024 
L 330.132428 321.488024 
z
" clip-path="url(#p449595f37e)" style="opacity: 0.7"/>
   </g>
   <g id="patch_209">
    <path d="M 340.538497 351.435059 
L 341.203075 351.435059 
L 341.203075 336.617802 
L 340.538497 336.617802 
z
" clip-path="url(#p449595f37e)" style="opacity: 0.7"/>
   </g>
   <g id="patch_210">
    <path d="M 346.608703 351.435059 
L 347.273282 351.435059 
L 347.273282 342.084573 
L 346.608703 342.084573 
z
" clip-path="url(#p449595f37e)" style="opacity: 0.7"/>
   </g>
   <g id="patch_211">
    <path d="M 350.077393 351.435059 
L 350.741971 351.435059 
L 350.741971 330.84467 
L 350.077393 330.84467 
z
" clip-path="url(#p449595f37e)" style="opacity: 0.7"/>
   </g>
   <g id="patch_212">
    <path d="M 353.546082 351.435059 
L 354.21066 351.435059 
L 354.21066 341.001599 
L 353.546082 341.001599 
z
" clip-path="url(#p449595f37e)" style="opacity: 0.7"/>
   </g>
   <g id="patch_213">
    <path d="M 358.749116 351.435059 
L 359.413695 351.435059 
L 359.413695 272.047014 
L 358.749116 272.047014 
z
" clip-path="url(#p449595f37e)" style="opacity: 0.7"/>
   </g>
   <g id="patch_214">
    <path d="M 366.553667 351.435059 
L 367.218246 351.435059 
L 367.218246 300.70858 
L 366.553667 300.70858 
z
" clip-path="url(#p449595f37e)" style="opacity: 0.7"/>
   </g>
   <g id="patch_215">
    <path d="M 369.155184 351.435059 
L 369.819763 351.435059 
L 369.819763 264.553447 
L 369.155184 264.553447 
z
" clip-path="url(#p449595f37e)" style="opacity: 0.7"/>
   </g>
   <g id="patch_216">
    <path d="M 372.623874 351.435059 
L 373.288452 351.435059 
L 373.288452 159.874815 
L 372.623874 159.874815 
z
" clip-path="url(#p449595f37e)" style="opacity: 0.7"/>
   </g>
   <g id="patch_217">
    <path d="M 381.295597 351.435059 
L 381.960176 351.435059 
L 381.960176 335.960392 
L 381.295597 335.960392 
z
" clip-path="url(#p449595f37e)" style="opacity: 0.7"/>
   </g>
   <g id="patch_218">
    <path d="M 384.764287 351.435059 
L 385.428865 351.435059 
L 385.428865 339.241862 
L 384.764287 339.241862 
z
" clip-path="url(#p449595f37e)" style="opacity: 0.7"/>
   </g>
   <g id="patch_219">
    <path d="M 391.701666 351.435059 
L 392.366244 351.435059 
L 392.366244 212.673593 
L 391.701666 212.673593 
z
" clip-path="url(#p449595f37e)" style="opacity: 0.7"/>
   </g>
   <g id="patch_220">
    <path d="M 397.771872 351.435059 
L 398.436451 351.435059 
L 398.436451 292.7592 
L 397.771872 292.7592 
z
" clip-path="url(#p449595f37e)" style="opacity: 0.7"/>
   </g>
   <g id="patch_221">
    <path d="M 405.576423 351.435059 
L 406.241002 351.435059 
L 406.241002 311.839606 
L 405.576423 311.839606 
z
" clip-path="url(#p449595f37e)" style="opacity: 0.7"/>
   </g>
   <g id="patch_222">
    <path d="M 416.849664 351.435059 
L 417.514242 351.435059 
L 417.514242 211.319374 
L 416.849664 211.319374 
z
" clip-path="url(#p449595f37e)" style="opacity: 0.7"/>
   </g>
   <g id="patch_223">
    <path d="M 421.185526 351.435059 
L 421.850104 351.435059 
L 421.850104 267.22493 
L 421.185526 267.22493 
z
" clip-path="url(#p449595f37e)" style="opacity: 0.7"/>
   </g>
   <g id="patch_224">
    <path d="M 428.990077 351.435059 
L 429.654655 351.435059 
L 429.654655 314.351778 
L 428.990077 314.351778 
z
" clip-path="url(#p449595f37e)" style="opacity: 0.7"/>
   </g>
   <g id="patch_225">
    <path d="M 431.591594 351.435059 
L 432.256172 351.435059 
L 432.256172 310.309714 
L 431.591594 310.309714 
z
" clip-path="url(#p449595f37e)" style="opacity: 0.7"/>
   </g>
   <g id="patch_226">
    <path d="M 435.060283 351.435059 
L 435.724862 351.435059 
L 435.724862 322.409487 
L 435.060283 322.409487 
z
" clip-path="url(#p449595f37e)" style="opacity: 0.7"/>
   </g>
   <g id="patch_227">
    <path d="M 439.396145 351.435059 
L 440.060724 351.435059 
L 440.060724 321.837586 
L 439.396145 321.837586 
z
" clip-path="url(#p449595f37e)" style="opacity: 0.7"/>
   </g>
   <g id="patch_228">
    <path d="M 448.067869 351.435059 
L 448.732447 351.435059 
L 448.732447 291.784178 
L 448.067869 291.784178 
z
" clip-path="url(#p449595f37e)" style="opacity: 0.7"/>
   </g>
   <g id="patch_229">
    <path d="M 455.005248 351.435059 
L 455.669826 351.435059 
L 455.669826 341.224804 
L 455.005248 341.224804 
z
" clip-path="url(#p449595f37e)" style="opacity: 0.7"/>
   </g>
   <g id="patch_230">
    <path d="M 462.809799 351.435059 
L 463.474377 351.435059 
L 463.474377 106.880559 
L 462.809799 106.880559 
z
" clip-path="url(#p449595f37e)" style="opacity: 0.7"/>
   </g>
   <g id="patch_231">
    <path d="M 466.278488 351.435059 
L 466.943067 351.435059 
L 466.943067 325.955338 
L 466.278488 325.955338 
z
" clip-path="url(#p449595f37e)" style="opacity: 0.7"/>
   </g>
   <g id="patch_232">
    <path d="M 475.817384 351.435059 
L 476.481962 351.435059 
L 476.481962 310.322715 
L 475.817384 310.322715 
z
" clip-path="url(#p449595f37e)" style="opacity: 0.7"/>
   </g>
   <g id="patch_233">
    <path d="M 479.286073 351.435059 
L 479.950652 351.435059 
L 479.950652 342.899622 
L 479.286073 342.899622 
z
" clip-path="url(#p449595f37e)" style="opacity: 0.7"/>
   </g>
   <g id="patch_234">
    <path d="M 482.754763 351.435059 
L 483.419341 351.435059 
L 483.419341 347.389721 
L 482.754763 347.389721 
z
" clip-path="url(#p449595f37e)" style="opacity: 0.7"/>
   </g>
   <g id="patch_235">
    <path d="M 487.090625 351.435059 
L 487.755203 351.435059 
L 487.755203 256.290076 
L 487.090625 256.290076 
z
" clip-path="url(#p449595f37e)" style="opacity: 0.7"/>
   </g>
   <g id="patch_236">
    <path d="M 493.160831 351.435059 
L 493.82541 351.435059 
L 493.82541 348.062444 
L 493.160831 348.062444 
z
" clip-path="url(#p449595f37e)" style="opacity: 0.7"/>
   </g>
   <g id="patch_237">
    <path d="M 498.363865 351.435059 
L 499.028444 351.435059 
L 499.028444 294.265825 
L 498.363865 294.265825 
z
" clip-path="url(#p449595f37e)" style="opacity: 0.7"/>
   </g>
   <g id="patch_238">
    <path d="M 501.832555 351.435059 
L 502.497133 351.435059 
L 502.497133 317.577988 
L 501.832555 317.577988 
z
" clip-path="url(#p449595f37e)" style="opacity: 0.7"/>
   </g>
   <g id="patch_239">
    <path d="M 508.769933 351.435059 
L 509.434512 351.435059 
L 509.434512 305.939317 
L 508.769933 305.939317 
z
" clip-path="url(#p449595f37e)" style="opacity: 0.7"/>
   </g>
   <g id="patch_240">
    <path d="M 514.84014 351.435059 
L 515.504718 351.435059 
L 515.504718 346.892717 
L 514.84014 346.892717 
z
" clip-path="url(#p449595f37e)" style="opacity: 0.7"/>
   </g>
   <g id="patch_241">
    <path d="M 517.441657 351.435059 
L 518.106235 351.435059 
L 518.106235 347.483763 
L 517.441657 347.483763 
z
" clip-path="url(#p449595f37e)" style="opacity: 0.7"/>
   </g>
   <g id="patch_242">
    <path d="M 524.379036 351.435059 
L 525.043614 351.435059 
L 525.043614 299.886509 
L 524.379036 299.886509 
z
" clip-path="url(#p449595f37e)" style="opacity: 0.7"/>
   </g>
   <g id="patch_243">
    <path d="M 533.050759 351.435059 
L 533.715338 351.435059 
L 533.715338 351.041316 
L 533.050759 351.041316 
z
" clip-path="url(#p449595f37e)" style="opacity: 0.7"/>
   </g>
   <g id="patch_244">
    <path d="M 534.785104 351.435059 
L 535.449683 351.435059 
L 535.449683 351.077801 
L 534.785104 351.077801 
z
" clip-path="url(#p449595f37e)" style="opacity: 0.7"/>
   </g>
   <g id="patch_245">
    <path d="M 539.120966 351.435059 
L 539.785544 351.435059 
L 539.785544 342.836808 
L 539.120966 342.836808 
z
" clip-path="url(#p449595f37e)" style="opacity: 0.7"/>
   </g>
   <g id="patch_246">
    <path d="M 542.589655 351.435059 
L 543.254234 351.435059 
L 543.254234 301.456985 
L 542.589655 301.456985 
z
" clip-path="url(#p449595f37e)" style="opacity: 0.7"/>
   </g>
   <g id="patch_247">
    <path d="M 547.792689 351.435059 
L 548.457268 351.435059 
L 548.457268 314.86026 
L 547.792689 314.86026 
z
" clip-path="url(#p449595f37e)" style="opacity: 0.7"/>
   </g>
   <g id="patch_248">
    <path d="M 550.394207 351.435059 
L 551.058785 351.435059 
L 551.058785 318.681127 
L 550.394207 318.681127 
z
" clip-path="url(#p449595f37e)" style="opacity: 0.7"/>
   </g>
   <g id="patch_249">
    <path d="M 556.464413 351.435059 
L 557.128991 351.435059 
L 557.128991 347.791502 
L 556.464413 347.791502 
z
" clip-path="url(#p449595f37e)" style="opacity: 0.7"/>
   </g>
   <g id="patch_250">
    <path d="M 559.933102 351.435059 
L 560.597681 351.435059 
L 560.597681 232.093891 
L 559.933102 232.093891 
z
" clip-path="url(#p449595f37e)" style="opacity: 0.7"/>
   </g>
   <g id="patch_251">
    <path d="M 569.471998 351.435059 
L 570.136577 351.435059 
L 570.136577 350.685138 
L 569.471998 350.685138 
z
" clip-path="url(#p449595f37e)" style="opacity: 0.7"/>
   </g>
   <g id="patch_252">
    <path d="M 573.80786 351.435059 
L 574.472439 351.435059 
L 574.472439 301.963398 
L 573.80786 301.963398 
z
" clip-path="url(#p449595f37e)" style="opacity: 0.7"/>
   </g>
   <g id="patch_253">
    <path d="M 584.213928 351.435059 
L 584.878507 351.435059 
L 584.878507 349.94539 
L 584.213928 349.94539 
z
" clip-path="url(#p449595f37e)" style="opacity: 0.7"/>
   </g>
   <g id="patch_254">
    <path d="M 587.682618 351.435059 
L 588.347196 351.435059 
L 588.347196 330.026952 
L 587.682618 330.026952 
z
" clip-path="url(#p449595f37e)" style="opacity: 0.7"/>
   </g>
   <g id="patch_255">
    <path d="M 593.752824 351.435059 
L 594.417403 351.435059 
L 594.417403 349.233462 
L 593.752824 349.233462 
z
" clip-path="url(#p449595f37e)" style="opacity: 0.7"/>
   </g>
   <g id="patch_256">
    <path d="M 598.088686 351.435059 
L 598.753264 351.435059 
L 598.753264 290.312987 
L 598.088686 290.312987 
z
" clip-path="url(#p449595f37e)" style="opacity: 0.7"/>
   </g>
   <g id="patch_257">
    <path d="M 601.557375 351.435059 
L 602.221954 351.435059 
L 602.221954 333.649013 
L 601.557375 333.649013 
z
" clip-path="url(#p449595f37e)" style="opacity: 0.7"/>
   </g>
   <g id="patch_258">
    <path d="M 606.76041 351.435059 
L 607.424988 351.435059 
L 607.424988 349.067129 
L 606.76041 349.067129 
z
" clip-path="url(#p449595f37e)" style="opacity: 0.7"/>
   </g>
   <g id="patch_259">
    <path d="M 611.963444 351.435059 
L 612.628022 351.435059 
L 612.628022 238.065009 
L 611.963444 238.065009 
z
" clip-path="url(#p449595f37e)" style="opacity: 0.7"/>
   </g>
   <g id="patch_260">
    <path d="M 279.481283 351.435059 
L 280.478151 351.435059 
L 280.478151 347.309075 
L 279.481283 347.309075 
z
" clip-path="url(#p449595f37e)" style="fill: #ff0000"/>
   </g>
   <g id="patch_261">
    <path d="M 282.272513 351.435059 
L 283.269381 351.435059 
L 283.269381 344.885062 
L 282.272513 344.885062 
z
" clip-path="url(#p449595f37e)" style="fill: #ff0000"/>
   </g>
   <g id="patch_262">
    <path d="M 282.272513 351.435059 
L 283.269381 351.435059 
L 283.269381 344.465406 
L 282.272513 344.465406 
z
" clip-path="url(#p449595f37e)" style="fill: #ff0000"/>
   </g>
   <g id="patch_263">
    <path d="M 282.272513 351.435059 
L 283.269381 351.435059 
L 283.269381 331.590621 
L 282.272513 331.590621 
z
" clip-path="url(#p449595f37e)" style="fill: #ff0000"/>
   </g>
   <g id="patch_264">
    <path d="M 282.272513 351.435059 
L 283.269381 351.435059 
L 283.269381 340.081271 
L 282.272513 340.081271 
z
" clip-path="url(#p449595f37e)" style="fill: #ff0000"/>
   </g>
   <g id="patch_265">
    <path d="M 288.918297 351.435059 
L 289.915165 351.435059 
L 289.915165 340.242745 
L 288.918297 340.242745 
z
" clip-path="url(#p449595f37e)" style="fill: #ff0000"/>
   </g>
   <g id="patch_266">
    <path d="M 294.434298 351.435059 
L 295.431166 351.435059 
L 295.431166 324.431651 
L 294.434298 324.431651 
z
" clip-path="url(#p449595f37e)" style="fill: #ff0000"/>
   </g>
   <g id="patch_267">
    <path d="M 294.434298 351.435059 
L 295.431166 351.435059 
L 295.431166 314.237363 
L 294.434298 314.237363 
z
" clip-path="url(#p449595f37e)" style="fill: #ff0000"/>
   </g>
   <g id="patch_268">
    <path d="M 294.434298 351.435059 
L 295.431166 351.435059 
L 295.431166 328.954222 
L 294.434298 328.954222 
z
" clip-path="url(#p449595f37e)" style="fill: #ff0000"/>
   </g>
   <g id="patch_269">
    <path d="M 294.434298 351.435059 
L 295.431166 351.435059 
L 295.431166 328.814394 
L 294.434298 328.814394 
z
" clip-path="url(#p449595f37e)" style="fill: #ff0000"/>
   </g>
   <g id="patch_270">
    <path d="M 301.080083 351.435059 
L 302.076951 351.435059 
L 302.076951 342.876192 
L 301.080083 342.876192 
z
" clip-path="url(#p449595f37e)" style="fill: #ff0000"/>
   </g>
   <g id="patch_271">
    <path d="M 307.725867 351.435059 
L 308.722735 351.435059 
L 308.722735 344.949476 
L 307.725867 344.949476 
z
" clip-path="url(#p449595f37e)" style="fill: #ff0000"/>
   </g>
   <g id="patch_272">
    <path d="M 314.371652 351.435059 
L 315.368519 351.435059 
L 315.368519 344.913293 
L 314.371652 344.913293 
z
" clip-path="url(#p449595f37e)" style="fill: #ff0000"/>
   </g>
   <g id="patch_273">
    <path d="M 318.192978 351.435059 
L 319.189846 351.435059 
L 319.189846 347.256978 
L 318.192978 347.256978 
z
" clip-path="url(#p449595f37e)" style="fill: #ff0000"/>
   </g>
   <g id="patch_274">
    <path d="M 324.838762 351.435059 
L 325.83563 351.435059 
L 325.83563 348.671687 
L 324.838762 348.671687 
z
" clip-path="url(#p449595f37e)" style="fill: #ff0000"/>
   </g>
   <g id="patch_275">
    <path d="M 328.161655 351.435059 
L 329.158522 351.435059 
L 329.158522 348.452945 
L 328.161655 348.452945 
z
" clip-path="url(#p449595f37e)" style="fill: #ff0000"/>
   </g>
   <g id="patch_276">
    <path d="M 328.161655 351.435059 
L 329.158522 351.435059 
L 329.158522 350.030991 
L 328.161655 350.030991 
z
" clip-path="url(#p449595f37e)" style="fill: #ff0000"/>
   </g>
   <g id="patch_277">
    <path d="M 330.853197 351.435059 
L 331.850065 351.435059 
L 331.850065 348.622704 
L 330.853197 348.622704 
z
" clip-path="url(#p449595f37e)" style="fill: #ff0000"/>
   </g>
   <g id="patch_278">
    <path d="M 330.853197 351.435059 
L 331.850065 351.435059 
L 331.850065 343.102517 
L 330.853197 343.102517 
z
" clip-path="url(#p449595f37e)" style="fill: #ff0000"/>
   </g>
   <g id="patch_279">
    <path d="M 330.853197 351.435059 
L 331.850065 351.435059 
L 331.850065 326.662883 
L 330.853197 326.662883 
z
" clip-path="url(#p449595f37e)" style="fill: #ff0000"/>
   </g>
   <g id="patch_280">
    <path d="M 330.853197 351.435059 
L 331.850065 351.435059 
L 331.850065 348.586263 
L 330.853197 348.586263 
z
" clip-path="url(#p449595f37e)" style="fill: #ff0000"/>
   </g>
   <g id="patch_281">
    <path d="M 330.853197 351.435059 
L 331.850065 351.435059 
L 331.850065 339.124427 
L 330.853197 339.124427 
z
" clip-path="url(#p449595f37e)" style="fill: #ff0000"/>
   </g>
   <g id="patch_282">
    <path d="M 337.498982 351.435059 
L 338.495849 351.435059 
L 338.495849 342.620308 
L 337.498982 342.620308 
z
" clip-path="url(#p449595f37e)" style="fill: #ff0000"/>
   </g>
   <g id="patch_283">
    <path d="M 344.144766 351.435059 
L 345.141634 351.435059 
L 345.141634 345.66494 
L 344.144766 345.66494 
z
" clip-path="url(#p449595f37e)" style="fill: #ff0000"/>
   </g>
   <g id="patch_284">
    <path d="M 350.790551 351.435059 
L 351.787418 351.435059 
L 351.787418 343.969919 
L 350.790551 343.969919 
z
" clip-path="url(#p449595f37e)" style="fill: #ff0000"/>
   </g>
   <g id="patch_285">
    <path d="M 357.436335 351.435059 
L 358.433203 351.435059 
L 358.433203 344.767485 
L 357.436335 344.767485 
z
" clip-path="url(#p449595f37e)" style="fill: #ff0000"/>
   </g>
   <g id="patch_286">
    <path d="M 362.287758 351.435059 
L 363.284625 351.435059 
L 363.284625 328.926175 
L 362.287758 328.926175 
z
" clip-path="url(#p449595f37e)" style="fill: #ff0000"/>
   </g>
   <g id="patch_287">
    <path d="M 368.933542 351.435059 
L 369.93041 351.435059 
L 369.93041 335.931218 
L 368.933542 335.931218 
z
" clip-path="url(#p449595f37e)" style="fill: #ff0000"/>
   </g>
   <g id="patch_288">
    <path d="M 373.0207 351.435059 
L 374.017567 351.435059 
L 374.017567 66.96 
L 373.0207 66.96 
z
" clip-path="url(#p449595f37e)" style="fill: #ff0000"/>
   </g>
   <g id="patch_289">
    <path d="M 379.666484 351.435059 
L 380.663352 351.435059 
L 380.663352 347.501433 
L 379.666484 347.501433 
z
" clip-path="url(#p449595f37e)" style="fill: #ff0000"/>
   </g>
   <g id="patch_290">
    <path d="M 386.312268 351.435059 
L 387.309136 351.435059 
L 387.309136 330.072362 
L 386.312268 330.072362 
z
" clip-path="url(#p449595f37e)" style="fill: #ff0000"/>
   </g>
   <g id="patch_291">
    <path d="M 389.635161 351.435059 
L 390.632028 351.435059 
L 390.632028 294.238411 
L 389.635161 294.238411 
z
" clip-path="url(#p449595f37e)" style="fill: #ff0000"/>
   </g>
   <g id="patch_292">
    <path d="M 389.635161 351.435059 
L 390.632028 351.435059 
L 390.632028 324.326503 
L 389.635161 324.326503 
z
" clip-path="url(#p449595f37e)" style="fill: #ff0000"/>
   </g>
   <g id="patch_293">
    <path d="M 389.635161 351.435059 
L 390.632028 351.435059 
L 390.632028 345.081548 
L 389.635161 345.081548 
z
" clip-path="url(#p449595f37e)" style="fill: #ff0000"/>
   </g>
   <g id="patch_294">
    <path d="M 389.635161 351.435059 
L 390.632028 351.435059 
L 390.632028 347.01726 
L 389.635161 347.01726 
z
" clip-path="url(#p449595f37e)" style="fill: #ff0000"/>
   </g>
   <g id="patch_295">
    <path d="M 389.635161 351.435059 
L 390.632028 351.435059 
L 390.632028 344.133899 
L 389.635161 344.133899 
z
" clip-path="url(#p449595f37e)" style="fill: #ff0000"/>
   </g>
   <g id="patch_296">
    <path d="M 392.825137 351.435059 
L 393.822005 351.435059 
L 393.822005 321.434931 
L 392.825137 321.434931 
z
" clip-path="url(#p449595f37e)" style="fill: #ff0000"/>
   </g>
   <g id="patch_297">
    <path d="M 392.825137 351.435059 
L 393.822005 351.435059 
L 393.822005 284.233032 
L 392.825137 284.233032 
z
" clip-path="url(#p449595f37e)" style="fill: #ff0000"/>
   </g>
   <g id="patch_298">
    <path d="M 392.825137 351.435059 
L 393.822005 351.435059 
L 393.822005 321.488024 
L 392.825137 321.488024 
z
" clip-path="url(#p449595f37e)" style="fill: #ff0000"/>
   </g>
   <g id="patch_299">
    <path d="M 399.470922 351.435059 
L 400.467789 351.435059 
L 400.467789 336.617802 
L 399.470922 336.617802 
z
" clip-path="url(#p449595f37e)" style="fill: #ff0000"/>
   </g>
   <g id="patch_300">
    <path d="M 406.116706 351.435059 
L 407.113574 351.435059 
L 407.113574 342.084573 
L 406.116706 342.084573 
z
" clip-path="url(#p449595f37e)" style="fill: #ff0000"/>
   </g>
   <g id="patch_301">
    <path d="M 412.762491 351.435059 
L 413.759358 351.435059 
L 413.759358 330.84467 
L 412.762491 330.84467 
z
" clip-path="url(#p449595f37e)" style="fill: #ff0000"/>
   </g>
   <g id="patch_302">
    <path d="M 419.408275 351.435059 
L 420.405143 351.435059 
L 420.405143 341.001599 
L 419.408275 341.001599 
z
" clip-path="url(#p449595f37e)" style="fill: #ff0000"/>
   </g>
   <g id="patch_303">
    <path d="M 419.674106 351.435059 
L 420.670974 351.435059 
L 420.670974 272.047014 
L 419.674106 272.047014 
z
" clip-path="url(#p449595f37e)" style="fill: #ff0000"/>
   </g>
   <g id="patch_304">
    <path d="M 419.674106 351.435059 
L 420.670974 351.435059 
L 420.670974 300.70858 
L 419.674106 300.70858 
z
" clip-path="url(#p449595f37e)" style="fill: #ff0000"/>
   </g>
   <g id="patch_305">
    <path d="M 419.674106 351.435059 
L 420.670974 351.435059 
L 420.670974 264.553447 
L 419.674106 264.553447 
z
" clip-path="url(#p449595f37e)" style="fill: #ff0000"/>
   </g>
   <g id="patch_306">
    <path d="M 419.674106 351.435059 
L 420.670974 351.435059 
L 420.670974 159.874815 
L 419.674106 159.874815 
z
" clip-path="url(#p449595f37e)" style="fill: #ff0000"/>
   </g>
   <g id="patch_307">
    <path d="M 426.319891 351.435059 
L 427.316759 351.435059 
L 427.316759 335.960392 
L 426.319891 335.960392 
z
" clip-path="url(#p449595f37e)" style="fill: #ff0000"/>
   </g>
   <g id="patch_308">
    <path d="M 432.965675 351.435059 
L 433.962543 351.435059 
L 433.962543 339.241862 
L 432.965675 339.241862 
z
" clip-path="url(#p449595f37e)" style="fill: #ff0000"/>
   </g>
   <g id="patch_309">
    <path d="M 435.025869 351.435059 
L 436.022736 351.435059 
L 436.022736 212.673593 
L 435.025869 212.673593 
z
" clip-path="url(#p449595f37e)" style="fill: #ff0000"/>
   </g>
   <g id="patch_310">
    <path d="M 435.025869 351.435059 
L 436.022736 351.435059 
L 436.022736 292.7592 
L 435.025869 292.7592 
z
" clip-path="url(#p449595f37e)" style="fill: #ff0000"/>
   </g>
   <g id="patch_311">
    <path d="M 435.025869 351.435059 
L 436.022736 351.435059 
L 436.022736 311.839606 
L 435.025869 311.839606 
z
" clip-path="url(#p449595f37e)" style="fill: #ff0000"/>
   </g>
   <g id="patch_312">
    <path d="M 435.025869 351.435059 
L 436.022736 351.435059 
L 436.022736 211.319374 
L 435.025869 211.319374 
z
" clip-path="url(#p449595f37e)" style="fill: #ff0000"/>
   </g>
   <g id="patch_313">
    <path d="M 435.025869 351.435059 
L 436.022736 351.435059 
L 436.022736 267.22493 
L 435.025869 267.22493 
z
" clip-path="url(#p449595f37e)" style="fill: #ff0000"/>
   </g>
   <g id="patch_314">
    <path d="M 435.025869 351.435059 
L 436.022736 351.435059 
L 436.022736 314.351778 
L 435.025869 314.351778 
z
" clip-path="url(#p449595f37e)" style="fill: #ff0000"/>
   </g>
   <g id="patch_315">
    <path d="M 435.025869 351.435059 
L 436.022736 351.435059 
L 436.022736 310.309714 
L 435.025869 310.309714 
z
" clip-path="url(#p449595f37e)" style="fill: #ff0000"/>
   </g>
   <g id="patch_316">
    <path d="M 441.671653 351.435059 
L 442.668521 351.435059 
L 442.668521 322.409487 
L 441.671653 322.409487 
z
" clip-path="url(#p449595f37e)" style="fill: #ff0000"/>
   </g>
   <g id="patch_317">
    <path d="M 448.317437 351.435059 
L 449.314305 351.435059 
L 449.314305 321.837586 
L 448.317437 321.837586 
z
" clip-path="url(#p449595f37e)" style="fill: #ff0000"/>
   </g>
   <g id="patch_318">
    <path d="M 451.740016 351.435059 
L 452.736884 351.435059 
L 452.736884 291.784178 
L 451.740016 291.784178 
z
" clip-path="url(#p449595f37e)" style="fill: #ff0000"/>
   </g>
   <g id="patch_319">
    <path d="M 458.385801 351.435059 
L 459.382669 351.435059 
L 459.382669 341.224804 
L 458.385801 341.224804 
z
" clip-path="url(#p449595f37e)" style="fill: #ff0000"/>
   </g>
   <g id="patch_320">
    <path d="M 463.137537 351.435059 
L 464.134404 351.435059 
L 464.134404 106.880559 
L 463.137537 106.880559 
z
" clip-path="url(#p449595f37e)" style="fill: #ff0000"/>
   </g>
   <g id="patch_321">
    <path d="M 469.783321 351.435059 
L 470.780189 351.435059 
L 470.780189 325.955338 
L 469.783321 325.955338 
z
" clip-path="url(#p449595f37e)" style="fill: #ff0000"/>
   </g>
   <g id="patch_322">
    <path d="M 476.429106 351.435059 
L 477.425973 351.435059 
L 477.425973 310.322715 
L 476.429106 310.322715 
z
" clip-path="url(#p449595f37e)" style="fill: #ff0000"/>
   </g>
   <g id="patch_323">
    <path d="M 483.07489 351.435059 
L 484.071758 351.435059 
L 484.071758 342.899622 
L 483.07489 342.899622 
z
" clip-path="url(#p449595f37e)" style="fill: #ff0000"/>
   </g>
   <g id="patch_324">
    <path d="M 488.059228 351.435059 
L 489.056096 351.435059 
L 489.056096 347.389721 
L 488.059228 347.389721 
z
" clip-path="url(#p449595f37e)" style="fill: #ff0000"/>
   </g>
   <g id="patch_325">
    <path d="M 494.705013 351.435059 
L 495.701881 351.435059 
L 495.701881 256.290076 
L 494.705013 256.290076 
z
" clip-path="url(#p449595f37e)" style="fill: #ff0000"/>
   </g>
   <g id="patch_326">
    <path d="M 501.350797 351.435059 
L 502.347665 351.435059 
L 502.347665 348.062444 
L 501.350797 348.062444 
z
" clip-path="url(#p449595f37e)" style="fill: #ff0000"/>
   </g>
   <g id="patch_327">
    <path d="M 502.115063 351.435059 
L 503.11193 351.435059 
L 503.11193 294.265825 
L 502.115063 294.265825 
z
" clip-path="url(#p449595f37e)" style="fill: #ff0000"/>
   </g>
   <g id="patch_328">
    <path d="M 502.115063 351.435059 
L 503.11193 351.435059 
L 503.11193 317.577988 
L 502.115063 317.577988 
z
" clip-path="url(#p449595f37e)" style="fill: #ff0000"/>
   </g>
   <g id="patch_329">
    <path d="M 502.115063 351.435059 
L 503.11193 351.435059 
L 503.11193 305.939317 
L 502.115063 305.939317 
z
" clip-path="url(#p449595f37e)" style="fill: #ff0000"/>
   </g>
   <g id="patch_330">
    <path d="M 508.760847 351.435059 
L 509.757715 351.435059 
L 509.757715 346.892717 
L 508.760847 346.892717 
z
" clip-path="url(#p449595f37e)" style="fill: #ff0000"/>
   </g>
   <g id="patch_331">
    <path d="M 515.406631 351.435059 
L 516.403499 351.435059 
L 516.403499 347.483763 
L 515.406631 347.483763 
z
" clip-path="url(#p449595f37e)" style="fill: #ff0000"/>
   </g>
   <g id="patch_332">
    <path d="M 522.052416 351.435059 
L 523.049284 351.435059 
L 523.049284 299.886509 
L 522.052416 299.886509 
z
" clip-path="url(#p449595f37e)" style="fill: #ff0000"/>
   </g>
   <g id="patch_333">
    <path d="M 528.432369 351.435059 
L 529.429237 351.435059 
L 529.429237 351.041316 
L 528.432369 351.041316 
z
" clip-path="url(#p449595f37e)" style="fill: #ff0000"/>
   </g>
   <g id="patch_334">
    <path d="M 535.078153 351.435059 
L 536.075021 351.435059 
L 536.075021 351.077801 
L 535.078153 351.077801 
z
" clip-path="url(#p449595f37e)" style="fill: #ff0000"/>
   </g>
   <g id="patch_335">
    <path d="M 541.723938 351.435059 
L 542.720806 351.435059 
L 542.720806 342.836808 
L 541.723938 342.836808 
z
" clip-path="url(#p449595f37e)" style="fill: #ff0000"/>
   </g>
   <g id="patch_336">
    <path d="M 546.209842 351.435059 
L 547.20671 351.435059 
L 547.20671 301.456985 
L 546.209842 301.456985 
z
" clip-path="url(#p449595f37e)" style="fill: #ff0000"/>
   </g>
   <g id="patch_337">
    <path d="M 546.209842 351.435059 
L 547.20671 351.435059 
L 547.20671 314.86026 
L 546.209842 314.86026 
z
" clip-path="url(#p449595f37e)" style="fill: #ff0000"/>
   </g>
   <g id="patch_338">
    <path d="M 552.855627 351.435059 
L 553.852495 351.435059 
L 553.852495 318.681127 
L 552.855627 318.681127 
z
" clip-path="url(#p449595f37e)" style="fill: #ff0000"/>
   </g>
   <g id="patch_339">
    <path d="M 559.501411 351.435059 
L 560.498279 351.435059 
L 560.498279 347.791502 
L 559.501411 347.791502 
z
" clip-path="url(#p449595f37e)" style="fill: #ff0000"/>
   </g>
   <g id="patch_340">
    <path d="M 561.528376 351.435059 
L 562.525243 351.435059 
L 562.525243 232.093891 
L 561.528376 232.093891 
z
" clip-path="url(#p449595f37e)" style="fill: #ff0000"/>
   </g>
   <g id="patch_341">
    <path d="M 568.17416 351.435059 
L 569.171028 351.435059 
L 569.171028 350.685138 
L 568.17416 350.685138 
z
" clip-path="url(#p449595f37e)" style="fill: #ff0000"/>
   </g>
   <g id="patch_342">
    <path d="M 574.321511 351.435059 
L 575.318378 351.435059 
L 575.318378 301.963398 
L 574.321511 301.963398 
z
" clip-path="url(#p449595f37e)" style="fill: #ff0000"/>
   </g>
   <g id="patch_343">
    <path d="M 580.967295 351.435059 
L 581.964163 351.435059 
L 581.964163 349.94539 
L 580.967295 349.94539 
z
" clip-path="url(#p449595f37e)" style="fill: #ff0000"/>
   </g>
   <g id="patch_344">
    <path d="M 587.61308 351.435059 
L 588.609947 351.435059 
L 588.609947 330.026952 
L 587.61308 330.026952 
z
" clip-path="url(#p449595f37e)" style="fill: #ff0000"/>
   </g>
   <g id="patch_345">
    <path d="M 594.258864 351.435059 
L 595.255732 351.435059 
L 595.255732 349.233462 
L 594.258864 349.233462 
z
" clip-path="url(#p449595f37e)" style="fill: #ff0000"/>
   </g>
   <g id="patch_346">
    <path d="M 599.243202 351.435059 
L 600.24007 351.435059 
L 600.24007 290.312987 
L 599.243202 290.312987 
z
" clip-path="url(#p449595f37e)" style="fill: #ff0000"/>
   </g>
   <g id="patch_347">
    <path d="M 605.888987 351.435059 
L 606.885854 351.435059 
L 606.885854 333.649013 
L 605.888987 333.649013 
z
" clip-path="url(#p449595f37e)" style="fill: #ff0000"/>
   </g>
   <g id="patch_348">
    <path d="M 612.534771 351.435059 
L 613.531639 351.435059 
L 613.531639 349.067129 
L 612.534771 349.067129 
z
" clip-path="url(#p449595f37e)" style="fill: #ff0000"/>
   </g>
   <g id="patch_349">
    <path d="M 612.667687 351.435059 
L 613.664555 351.435059 
L 613.664555 238.065009 
L 612.667687 238.065009 
z
" clip-path="url(#p449595f37e)" style="fill: #ff0000"/>
   </g>
   <g id="matplotlib.axis_1">
    <g id="xtick_1">
     <g id="line2d_1">
      <defs>
       <path id="m4095215eb8" d="M 0 0 
L 0 3.5 
" style="stroke: #000000; stroke-width: 0.8"/>
      </defs>
      <g>
       <use xlink:href="#m4095215eb8" x="106.557972" y="384.48" style="stroke: #000000; stroke-width: 0.8"/>
      </g>
     </g>
     <g id="text_1">
      <!-- 3400 -->
      <g transform="translate(93.832972 399.078438) scale(0.1 -0.1)">
       <defs>
        <path id="DejaVuSans-33" d="M 2597 2516 
Q 3050 2419 3304 2112 
Q 3559 1806 3559 1356 
Q 3559 666 3084 287 
Q 2609 -91 1734 -91 
Q 1441 -91 1130 -33 
Q 819 25 488 141 
L 488 750 
Q 750 597 1062 519 
Q 1375 441 1716 441 
Q 2309 441 2620 675 
Q 2931 909 2931 1356 
Q 2931 1769 2642 2001 
Q 2353 2234 1838 2234 
L 1294 2234 
L 1294 2753 
L 1863 2753 
Q 2328 2753 2575 2939 
Q 2822 3125 2822 3475 
Q 2822 3834 2567 4026 
Q 2313 4219 1838 4219 
Q 1578 4219 1281 4162 
Q 984 4106 628 3988 
L 628 4550 
Q 988 4650 1302 4700 
Q 1616 4750 1894 4750 
Q 2613 4750 3031 4423 
Q 3450 4097 3450 3541 
Q 3450 3153 3228 2886 
Q 3006 2619 2597 2516 
z
" transform="scale(0.015625)"/>
        <path id="DejaVuSans-34" d="M 2419 4116 
L 825 1625 
L 2419 1625 
L 2419 4116 
z
M 2253 4666 
L 3047 4666 
L 3047 1625 
L 3713 1625 
L 3713 1100 
L 3047 1100 
L 3047 0 
L 2419 0 
L 2419 1100 
L 313 1100 
L 313 1709 
L 2253 4666 
z
" transform="scale(0.015625)"/>
        <path id="DejaVuSans-30" d="M 2034 4250 
Q 1547 4250 1301 3770 
Q 1056 3291 1056 2328 
Q 1056 1369 1301 889 
Q 1547 409 2034 409 
Q 2525 409 2770 889 
Q 3016 1369 3016 2328 
Q 3016 3291 2770 3770 
Q 2525 4250 2034 4250 
z
M 2034 4750 
Q 2819 4750 3233 4129 
Q 3647 3509 3647 2328 
Q 3647 1150 3233 529 
Q 2819 -91 2034 -91 
Q 1250 -91 836 529 
Q 422 1150 422 2328 
Q 422 3509 836 4129 
Q 1250 4750 2034 4750 
z
" transform="scale(0.015625)"/>
       </defs>
       <use xlink:href="#DejaVuSans-33"/>
       <use xlink:href="#DejaVuSans-34" x="63.623047"/>
       <use xlink:href="#DejaVuSans-30" x="127.246094"/>
       <use xlink:href="#DejaVuSans-30" x="190.869141"/>
      </g>
     </g>
    </g>
    <g id="xtick_2">
     <g id="line2d_2">
      <g>
       <use xlink:href="#m4095215eb8" x="173.015816" y="384.48" style="stroke: #000000; stroke-width: 0.8"/>
      </g>
     </g>
     <g id="text_2">
      <!-- 3600 -->
      <g transform="translate(160.290816 399.078438) scale(0.1 -0.1)">
       <defs>
        <path id="DejaVuSans-36" d="M 2113 2584 
Q 1688 2584 1439 2293 
Q 1191 2003 1191 1497 
Q 1191 994 1439 701 
Q 1688 409 2113 409 
Q 2538 409 2786 701 
Q 3034 994 3034 1497 
Q 3034 2003 2786 2293 
Q 2538 2584 2113 2584 
z
M 3366 4563 
L 3366 3988 
Q 3128 4100 2886 4159 
Q 2644 4219 2406 4219 
Q 1781 4219 1451 3797 
Q 1122 3375 1075 2522 
Q 1259 2794 1537 2939 
Q 1816 3084 2150 3084 
Q 2853 3084 3261 2657 
Q 3669 2231 3669 1497 
Q 3669 778 3244 343 
Q 2819 -91 2113 -91 
Q 1303 -91 875 529 
Q 447 1150 447 2328 
Q 447 3434 972 4092 
Q 1497 4750 2381 4750 
Q 2619 4750 2861 4703 
Q 3103 4656 3366 4563 
z
" transform="scale(0.015625)"/>
       </defs>
       <use xlink:href="#DejaVuSans-33"/>
       <use xlink:href="#DejaVuSans-36" x="63.623047"/>
       <use xlink:href="#DejaVuSans-30" x="127.246094"/>
       <use xlink:href="#DejaVuSans-30" x="190.869141"/>
      </g>
     </g>
    </g>
    <g id="xtick_3">
     <g id="line2d_3">
      <g>
       <use xlink:href="#m4095215eb8" x="239.473661" y="384.48" style="stroke: #000000; stroke-width: 0.8"/>
      </g>
     </g>
     <g id="text_3">
      <!-- 3800 -->
      <g transform="translate(226.748661 399.078438) scale(0.1 -0.1)">
       <defs>
        <path id="DejaVuSans-38" d="M 2034 2216 
Q 1584 2216 1326 1975 
Q 1069 1734 1069 1313 
Q 1069 891 1326 650 
Q 1584 409 2034 409 
Q 2484 409 2743 651 
Q 3003 894 3003 1313 
Q 3003 1734 2745 1975 
Q 2488 2216 2034 2216 
z
M 1403 2484 
Q 997 2584 770 2862 
Q 544 3141 544 3541 
Q 544 4100 942 4425 
Q 1341 4750 2034 4750 
Q 2731 4750 3128 4425 
Q 3525 4100 3525 3541 
Q 3525 3141 3298 2862 
Q 3072 2584 2669 2484 
Q 3125 2378 3379 2068 
Q 3634 1759 3634 1313 
Q 3634 634 3220 271 
Q 2806 -91 2034 -91 
Q 1263 -91 848 271 
Q 434 634 434 1313 
Q 434 1759 690 2068 
Q 947 2378 1403 2484 
z
M 1172 3481 
Q 1172 3119 1398 2916 
Q 1625 2713 2034 2713 
Q 2441 2713 2670 2916 
Q 2900 3119 2900 3481 
Q 2900 3844 2670 4047 
Q 2441 4250 2034 4250 
Q 1625 4250 1398 4047 
Q 1172 3844 1172 3481 
z
" transform="scale(0.015625)"/>
       </defs>
       <use xlink:href="#DejaVuSans-33"/>
       <use xlink:href="#DejaVuSans-38" x="63.623047"/>
       <use xlink:href="#DejaVuSans-30" x="127.246094"/>
       <use xlink:href="#DejaVuSans-30" x="190.869141"/>
      </g>
     </g>
    </g>
    <g id="xtick_4">
     <g id="line2d_4">
      <g>
       <use xlink:href="#m4095215eb8" x="305.931506" y="384.48" style="stroke: #000000; stroke-width: 0.8"/>
      </g>
     </g>
     <g id="text_4">
      <!-- 4000 -->
      <g transform="translate(293.206506 399.078438) scale(0.1 -0.1)">
       <use xlink:href="#DejaVuSans-34"/>
       <use xlink:href="#DejaVuSans-30" x="63.623047"/>
       <use xlink:href="#DejaVuSans-30" x="127.246094"/>
       <use xlink:href="#DejaVuSans-30" x="190.869141"/>
      </g>
     </g>
    </g>
    <g id="xtick_5">
     <g id="line2d_5">
      <g>
       <use xlink:href="#m4095215eb8" x="372.38935" y="384.48" style="stroke: #000000; stroke-width: 0.8"/>
      </g>
     </g>
     <g id="text_5">
      <!-- 4200 -->
      <g transform="translate(359.66435 399.078438) scale(0.1 -0.1)">
       <defs>
        <path id="DejaVuSans-32" d="M 1228 531 
L 3431 531 
L 3431 0 
L 469 0 
L 469 531 
Q 828 903 1448 1529 
Q 2069 2156 2228 2338 
Q 2531 2678 2651 2914 
Q 2772 3150 2772 3378 
Q 2772 3750 2511 3984 
Q 2250 4219 1831 4219 
Q 1534 4219 1204 4116 
Q 875 4013 500 3803 
L 500 4441 
Q 881 4594 1212 4672 
Q 1544 4750 1819 4750 
Q 2544 4750 2975 4387 
Q 3406 4025 3406 3419 
Q 3406 3131 3298 2873 
Q 3191 2616 2906 2266 
Q 2828 2175 2409 1742 
Q 1991 1309 1228 531 
z
" transform="scale(0.015625)"/>
       </defs>
       <use xlink:href="#DejaVuSans-34"/>
       <use xlink:href="#DejaVuSans-32" x="63.623047"/>
       <use xlink:href="#DejaVuSans-30" x="127.246094"/>
       <use xlink:href="#DejaVuSans-30" x="190.869141"/>
      </g>
     </g>
    </g>
    <g id="xtick_6">
     <g id="line2d_6">
      <g>
       <use xlink:href="#m4095215eb8" x="438.847195" y="384.48" style="stroke: #000000; stroke-width: 0.8"/>
      </g>
     </g>
     <g id="text_6">
      <!-- 4400 -->
      <g transform="translate(426.122195 399.078438) scale(0.1 -0.1)">
       <use xlink:href="#DejaVuSans-34"/>
       <use xlink:href="#DejaVuSans-34" x="63.623047"/>
       <use xlink:href="#DejaVuSans-30" x="127.246094"/>
       <use xlink:href="#DejaVuSans-30" x="190.869141"/>
      </g>
     </g>
    </g>
    <g id="xtick_7">
     <g id="line2d_7">
      <g>
       <use xlink:href="#m4095215eb8" x="505.305039" y="384.48" style="stroke: #000000; stroke-width: 0.8"/>
      </g>
     </g>
     <g id="text_7">
      <!-- 4600 -->
      <g transform="translate(492.580039 399.078438) scale(0.1 -0.1)">
       <use xlink:href="#DejaVuSans-34"/>
       <use xlink:href="#DejaVuSans-36" x="63.623047"/>
       <use xlink:href="#DejaVuSans-30" x="127.246094"/>
       <use xlink:href="#DejaVuSans-30" x="190.869141"/>
      </g>
     </g>
    </g>
    <g id="xtick_8">
     <g id="line2d_8">
      <g>
       <use xlink:href="#m4095215eb8" x="571.762884" y="384.48" style="stroke: #000000; stroke-width: 0.8"/>
      </g>
     </g>
     <g id="text_8">
      <!-- 4800 -->
      <g transform="translate(559.037884 399.078438) scale(0.1 -0.1)">
       <use xlink:href="#DejaVuSans-34"/>
       <use xlink:href="#DejaVuSans-38" x="63.623047"/>
       <use xlink:href="#DejaVuSans-30" x="127.246094"/>
       <use xlink:href="#DejaVuSans-30" x="190.869141"/>
      </g>
     </g>
    </g>
    <g id="xtick_9">
     <g id="line2d_9">
      <g>
       <use xlink:href="#m4095215eb8" x="638.220728" y="384.48" style="stroke: #000000; stroke-width: 0.8"/>
      </g>
     </g>
     <g id="text_9">
      <!-- 5000 -->
      <g transform="translate(625.495728 399.078438) scale(0.1 -0.1)">
       <defs>
        <path id="DejaVuSans-35" d="M 691 4666 
L 3169 4666 
L 3169 4134 
L 1269 4134 
L 1269 2991 
Q 1406 3038 1543 3061 
Q 1681 3084 1819 3084 
Q 2600 3084 3056 2656 
Q 3513 2228 3513 1497 
Q 3513 744 3044 326 
Q 2575 -91 1722 -91 
Q 1428 -91 1123 -41 
Q 819 9 494 109 
L 494 744 
Q 775 591 1075 516 
Q 1375 441 1709 441 
Q 2250 441 2565 725 
Q 2881 1009 2881 1497 
Q 2881 1984 2565 2268 
Q 2250 2553 1709 2553 
Q 1456 2553 1204 2497 
Q 953 2441 691 2322 
L 691 4666 
z
" transform="scale(0.015625)"/>
       </defs>
       <use xlink:href="#DejaVuSans-35"/>
       <use xlink:href="#DejaVuSans-30" x="63.623047"/>
       <use xlink:href="#DejaVuSans-30" x="127.246094"/>
       <use xlink:href="#DejaVuSans-30" x="190.869141"/>
      </g>
     </g>
    </g>
   </g>
   <g id="matplotlib.axis_2">
    <g id="ytick_1">
     <g id="line2d_10">
      <defs>
       <path id="m9fb1035e17" d="M 0 0 
L -3.5 0 
" style="stroke: #000000; stroke-width: 0.8"/>
      </defs>
      <g>
       <use xlink:href="#m9fb1035e17" x="90" y="351.435059" style="stroke: #000000; stroke-width: 0.8"/>
      </g>
     </g>
     <g id="text_10">
      <!-- 0.0 -->
      <g transform="translate(67.096875 355.234277) scale(0.1 -0.1)">
       <defs>
        <path id="DejaVuSans-2e" d="M 684 794 
L 1344 794 
L 1344 0 
L 684 0 
L 684 794 
z
" transform="scale(0.015625)"/>
       </defs>
       <use xlink:href="#DejaVuSans-30"/>
       <use xlink:href="#DejaVuSans-2e" x="63.623047"/>
       <use xlink:href="#DejaVuSans-30" x="95.410156"/>
      </g>
     </g>
    </g>
    <g id="ytick_2">
     <g id="line2d_11">
      <g>
       <use xlink:href="#m9fb1035e17" x="90" y="294.540047" style="stroke: #000000; stroke-width: 0.8"/>
      </g>
     </g>
     <g id="text_11">
      <!-- 0.2 -->
      <g transform="translate(67.096875 298.339266) scale(0.1 -0.1)">
       <use xlink:href="#DejaVuSans-30"/>
       <use xlink:href="#DejaVuSans-2e" x="63.623047"/>
       <use xlink:href="#DejaVuSans-32" x="95.410156"/>
      </g>
     </g>
    </g>
    <g id="ytick_3">
     <g id="line2d_12">
      <g>
       <use xlink:href="#m9fb1035e17" x="90" y="237.645035" style="stroke: #000000; stroke-width: 0.8"/>
      </g>
     </g>
     <g id="text_12">
      <!-- 0.4 -->
      <g transform="translate(67.096875 241.444254) scale(0.1 -0.1)">
       <use xlink:href="#DejaVuSans-30"/>
       <use xlink:href="#DejaVuSans-2e" x="63.623047"/>
       <use xlink:href="#DejaVuSans-34" x="95.410156"/>
      </g>
     </g>
    </g>
    <g id="ytick_4">
     <g id="line2d_13">
      <g>
       <use xlink:href="#m9fb1035e17" x="90" y="180.750023" style="stroke: #000000; stroke-width: 0.8"/>
      </g>
     </g>
     <g id="text_13">
      <!-- 0.6 -->
      <g transform="translate(67.096875 184.549242) scale(0.1 -0.1)">
       <use xlink:href="#DejaVuSans-30"/>
       <use xlink:href="#DejaVuSans-2e" x="63.623047"/>
       <use xlink:href="#DejaVuSans-36" x="95.410156"/>
      </g>
     </g>
    </g>
    <g id="ytick_5">
     <g id="line2d_14">
      <g>
       <use xlink:href="#m9fb1035e17" x="90" y="123.855012" style="stroke: #000000; stroke-width: 0.8"/>
      </g>
     </g>
     <g id="text_14">
      <!-- 0.8 -->
      <g transform="translate(67.096875 127.65423) scale(0.1 -0.1)">
       <use xlink:href="#DejaVuSans-30"/>
       <use xlink:href="#DejaVuSans-2e" x="63.623047"/>
       <use xlink:href="#DejaVuSans-38" x="95.410156"/>
      </g>
     </g>
    </g>
    <g id="ytick_6">
     <g id="line2d_15">
      <g>
       <use xlink:href="#m9fb1035e17" x="90" y="66.96" style="stroke: #000000; stroke-width: 0.8"/>
      </g>
     </g>
     <g id="text_15">
      <!-- 1.0 -->
      <g transform="translate(67.096875 70.759219) scale(0.1 -0.1)">
       <defs>
        <path id="DejaVuSans-31" d="M 794 531 
L 1825 531 
L 1825 4091 
L 703 3866 
L 703 4441 
L 1819 4666 
L 2450 4666 
L 2450 531 
L 3481 531 
L 3481 0 
L 794 0 
L 794 531 
z
" transform="scale(0.015625)"/>
       </defs>
       <use xlink:href="#DejaVuSans-31"/>
       <use xlink:href="#DejaVuSans-2e" x="63.623047"/>
       <use xlink:href="#DejaVuSans-30" x="95.410156"/>
      </g>
     </g>
    </g>
   </g>
   <g id="patch_350">
    <path d="M 90 384.48 
L 90 51.84 
" style="fill: none; stroke: #000000; stroke-width: 0.8; stroke-linejoin: miter; stroke-linecap: square"/>
   </g>
   <g id="patch_351">
    <path d="M 648 384.48 
L 648 51.84 
" style="fill: none; stroke: #000000; stroke-width: 0.8; stroke-linejoin: miter; stroke-linecap: square"/>
   </g>
   <g id="patch_352">
    <path d="M 90 384.48 
L 648 384.48 
" style="fill: none; stroke: #000000; stroke-width: 0.8; stroke-linejoin: miter; stroke-linecap: square"/>
   </g>
   <g id="patch_353">
    <path d="M 90 51.84 
L 648 51.84 
" style="fill: none; stroke: #000000; stroke-width: 0.8; stroke-linejoin: miter; stroke-linecap: square"/>
   </g>
   <g id="legend_1">
    <g id="patch_354">
     <path d="M 546.635937 103.874375 
L 641 103.874375 
Q 643 103.874375 643 101.874375 
L 643 58.84 
Q 643 56.84 641 56.84 
L 546.635937 56.84 
Q 544.635937 56.84 544.635937 58.84 
L 544.635937 101.874375 
Q 544.635937 103.874375 546.635937 103.874375 
z
" style="fill: #ffffff; opacity: 0.8; stroke: #cccccc; stroke-linejoin: miter"/>
    </g>
    <g id="patch_355">
     <path d="M 548.635937 68.438437 
L 568.635937 68.438437 
L 568.635937 61.438437 
L 548.635937 61.438437 
z
" style="fill: #0000ff; opacity: 0.7"/>
    </g>
    <g id="text_16">
     <!-- Teorico -->
     <g transform="translate(576.635937 68.438437) scale(0.1 -0.1)">
      <defs>
       <path id="DejaVuSans-54" d="M -19 4666 
L 3928 4666 
L 3928 4134 
L 2272 4134 
L 2272 0 
L 1638 0 
L 1638 4134 
L -19 4134 
L -19 4666 
z
" transform="scale(0.015625)"/>
       <path id="DejaVuSans-65" d="M 3597 1894 
L 3597 1613 
L 953 1613 
Q 991 1019 1311 708 
Q 1631 397 2203 397 
Q 2534 397 2845 478 
Q 3156 559 3463 722 
L 3463 178 
Q 3153 47 2828 -22 
Q 2503 -91 2169 -91 
Q 1331 -91 842 396 
Q 353 884 353 1716 
Q 353 2575 817 3079 
Q 1281 3584 2069 3584 
Q 2775 3584 3186 3129 
Q 3597 2675 3597 1894 
z
M 3022 2063 
Q 3016 2534 2758 2815 
Q 2500 3097 2075 3097 
Q 1594 3097 1305 2825 
Q 1016 2553 972 2059 
L 3022 2063 
z
" transform="scale(0.015625)"/>
       <path id="DejaVuSans-6f" d="M 1959 3097 
Q 1497 3097 1228 2736 
Q 959 2375 959 1747 
Q 959 1119 1226 758 
Q 1494 397 1959 397 
Q 2419 397 2687 759 
Q 2956 1122 2956 1747 
Q 2956 2369 2687 2733 
Q 2419 3097 1959 3097 
z
M 1959 3584 
Q 2709 3584 3137 3096 
Q 3566 2609 3566 1747 
Q 3566 888 3137 398 
Q 2709 -91 1959 -91 
Q 1206 -91 779 398 
Q 353 888 353 1747 
Q 353 2609 779 3096 
Q 1206 3584 1959 3584 
z
" transform="scale(0.015625)"/>
       <path id="DejaVuSans-72" d="M 2631 2963 
Q 2534 3019 2420 3045 
Q 2306 3072 2169 3072 
Q 1681 3072 1420 2755 
Q 1159 2438 1159 1844 
L 1159 0 
L 581 0 
L 581 3500 
L 1159 3500 
L 1159 2956 
Q 1341 3275 1631 3429 
Q 1922 3584 2338 3584 
Q 2397 3584 2469 3576 
Q 2541 3569 2628 3553 
L 2631 2963 
z
" transform="scale(0.015625)"/>
       <path id="DejaVuSans-69" d="M 603 3500 
L 1178 3500 
L 1178 0 
L 603 0 
L 603 3500 
z
M 603 4863 
L 1178 4863 
L 1178 4134 
L 603 4134 
L 603 4863 
z
" transform="scale(0.015625)"/>
       <path id="DejaVuSans-63" d="M 3122 3366 
L 3122 2828 
Q 2878 2963 2633 3030 
Q 2388 3097 2138 3097 
Q 1578 3097 1268 2742 
Q 959 2388 959 1747 
Q 959 1106 1268 751 
Q 1578 397 2138 397 
Q 2388 397 2633 464 
Q 2878 531 3122 666 
L 3122 134 
Q 2881 22 2623 -34 
Q 2366 -91 2075 -91 
Q 1284 -91 818 406 
Q 353 903 353 1747 
Q 353 2603 823 3093 
Q 1294 3584 2113 3584 
Q 2378 3584 2631 3529 
Q 2884 3475 3122 3366 
z
" transform="scale(0.015625)"/>
      </defs>
      <use xlink:href="#DejaVuSans-54"/>
      <use xlink:href="#DejaVuSans-65" x="44.083984"/>
      <use xlink:href="#DejaVuSans-6f" x="105.607422"/>
      <use xlink:href="#DejaVuSans-72" x="166.789062"/>
      <use xlink:href="#DejaVuSans-69" x="207.902344"/>
      <use xlink:href="#DejaVuSans-63" x="235.685547"/>
      <use xlink:href="#DejaVuSans-6f" x="290.666016"/>
     </g>
    </g>
    <g id="patch_356">
     <path d="M 548.635937 83.116562 
L 568.635937 83.116562 
L 568.635937 76.116562 
L 548.635937 76.116562 
z
" style="opacity: 0.7"/>
    </g>
    <g id="text_17">
     <!-- Emp Real -->
     <g transform="translate(576.635937 83.116562) scale(0.1 -0.1)">
      <defs>
       <path id="DejaVuSans-45" d="M 628 4666 
L 3578 4666 
L 3578 4134 
L 1259 4134 
L 1259 2753 
L 3481 2753 
L 3481 2222 
L 1259 2222 
L 1259 531 
L 3634 531 
L 3634 0 
L 628 0 
L 628 4666 
z
" transform="scale(0.015625)"/>
       <path id="DejaVuSans-6d" d="M 3328 2828 
Q 3544 3216 3844 3400 
Q 4144 3584 4550 3584 
Q 5097 3584 5394 3201 
Q 5691 2819 5691 2113 
L 5691 0 
L 5113 0 
L 5113 2094 
Q 5113 2597 4934 2840 
Q 4756 3084 4391 3084 
Q 3944 3084 3684 2787 
Q 3425 2491 3425 1978 
L 3425 0 
L 2847 0 
L 2847 2094 
Q 2847 2600 2669 2842 
Q 2491 3084 2119 3084 
Q 1678 3084 1418 2786 
Q 1159 2488 1159 1978 
L 1159 0 
L 581 0 
L 581 3500 
L 1159 3500 
L 1159 2956 
Q 1356 3278 1631 3431 
Q 1906 3584 2284 3584 
Q 2666 3584 2933 3390 
Q 3200 3197 3328 2828 
z
" transform="scale(0.015625)"/>
       <path id="DejaVuSans-70" d="M 1159 525 
L 1159 -1331 
L 581 -1331 
L 581 3500 
L 1159 3500 
L 1159 2969 
Q 1341 3281 1617 3432 
Q 1894 3584 2278 3584 
Q 2916 3584 3314 3078 
Q 3713 2572 3713 1747 
Q 3713 922 3314 415 
Q 2916 -91 2278 -91 
Q 1894 -91 1617 61 
Q 1341 213 1159 525 
z
M 3116 1747 
Q 3116 2381 2855 2742 
Q 2594 3103 2138 3103 
Q 1681 3103 1420 2742 
Q 1159 2381 1159 1747 
Q 1159 1113 1420 752 
Q 1681 391 2138 391 
Q 2594 391 2855 752 
Q 3116 1113 3116 1747 
z
" transform="scale(0.015625)"/>
       <path id="DejaVuSans-20" transform="scale(0.015625)"/>
       <path id="DejaVuSans-52" d="M 2841 2188 
Q 3044 2119 3236 1894 
Q 3428 1669 3622 1275 
L 4263 0 
L 3584 0 
L 2988 1197 
Q 2756 1666 2539 1819 
Q 2322 1972 1947 1972 
L 1259 1972 
L 1259 0 
L 628 0 
L 628 4666 
L 2053 4666 
Q 2853 4666 3247 4331 
Q 3641 3997 3641 3322 
Q 3641 2881 3436 2590 
Q 3231 2300 2841 2188 
z
M 1259 4147 
L 1259 2491 
L 2053 2491 
Q 2509 2491 2742 2702 
Q 2975 2913 2975 3322 
Q 2975 3731 2742 3939 
Q 2509 4147 2053 4147 
L 1259 4147 
z
" transform="scale(0.015625)"/>
       <path id="DejaVuSans-61" d="M 2194 1759 
Q 1497 1759 1228 1600 
Q 959 1441 959 1056 
Q 959 750 1161 570 
Q 1363 391 1709 391 
Q 2188 391 2477 730 
Q 2766 1069 2766 1631 
L 2766 1759 
L 2194 1759 
z
M 3341 1997 
L 3341 0 
L 2766 0 
L 2766 531 
Q 2569 213 2275 61 
Q 1981 -91 1556 -91 
Q 1019 -91 701 211 
Q 384 513 384 1019 
Q 384 1609 779 1909 
Q 1175 2209 1959 2209 
L 2766 2209 
L 2766 2266 
Q 2766 2663 2505 2880 
Q 2244 3097 1772 3097 
Q 1472 3097 1187 3025 
Q 903 2953 641 2809 
L 641 3341 
Q 956 3463 1253 3523 
Q 1550 3584 1831 3584 
Q 2591 3584 2966 3190 
Q 3341 2797 3341 1997 
z
" transform="scale(0.015625)"/>
       <path id="DejaVuSans-6c" d="M 603 4863 
L 1178 4863 
L 1178 0 
L 603 0 
L 603 4863 
z
" transform="scale(0.015625)"/>
      </defs>
      <use xlink:href="#DejaVuSans-45"/>
      <use xlink:href="#DejaVuSans-6d" x="63.183594"/>
      <use xlink:href="#DejaVuSans-70" x="160.595703"/>
      <use xlink:href="#DejaVuSans-20" x="224.072266"/>
      <use xlink:href="#DejaVuSans-52" x="255.859375"/>
      <use xlink:href="#DejaVuSans-65" x="320.841797"/>
      <use xlink:href="#DejaVuSans-61" x="382.365234"/>
      <use xlink:href="#DejaVuSans-6c" x="443.644531"/>
     </g>
    </g>
    <g id="patch_357">
     <path d="M 548.635937 97.794687 
L 568.635937 97.794687 
L 568.635937 90.794687 
L 548.635937 90.794687 
z
" style="fill: #ff0000"/>
    </g>
    <g id="text_18">
     <!-- Emp Optimo -->
     <g transform="translate(576.635937 97.794687) scale(0.1 -0.1)">
      <defs>
       <path id="DejaVuSans-4f" d="M 2522 4238 
Q 1834 4238 1429 3725 
Q 1025 3213 1025 2328 
Q 1025 1447 1429 934 
Q 1834 422 2522 422 
Q 3209 422 3611 934 
Q 4013 1447 4013 2328 
Q 4013 3213 3611 3725 
Q 3209 4238 2522 4238 
z
M 2522 4750 
Q 3503 4750 4090 4092 
Q 4678 3434 4678 2328 
Q 4678 1225 4090 567 
Q 3503 -91 2522 -91 
Q 1538 -91 948 565 
Q 359 1222 359 2328 
Q 359 3434 948 4092 
Q 1538 4750 2522 4750 
z
" transform="scale(0.015625)"/>
       <path id="DejaVuSans-74" d="M 1172 4494 
L 1172 3500 
L 2356 3500 
L 2356 3053 
L 1172 3053 
L 1172 1153 
Q 1172 725 1289 603 
Q 1406 481 1766 481 
L 2356 481 
L 2356 0 
L 1766 0 
Q 1100 0 847 248 
Q 594 497 594 1153 
L 594 3053 
L 172 3053 
L 172 3500 
L 594 3500 
L 594 4494 
L 1172 4494 
z
" transform="scale(0.015625)"/>
      </defs>
      <use xlink:href="#DejaVuSans-45"/>
      <use xlink:href="#DejaVuSans-6d" x="63.183594"/>
      <use xlink:href="#DejaVuSans-70" x="160.595703"/>
      <use xlink:href="#DejaVuSans-20" x="224.072266"/>
      <use xlink:href="#DejaVuSans-4f" x="255.859375"/>
      <use xlink:href="#DejaVuSans-70" x="334.570312"/>
      <use xlink:href="#DejaVuSans-74" x="398.046875"/>
      <use xlink:href="#DejaVuSans-69" x="437.255859"/>
      <use xlink:href="#DejaVuSans-6d" x="465.039062"/>
      <use xlink:href="#DejaVuSans-6f" x="562.451172"/>
     </g>
    </g>
   </g>
  </g>
 </g>
 <defs>
  <clipPath id="p449595f37e">
   <rect x="90" y="51.84" width="558" height="332.64"/>
  </clipPath>
 </defs>
</svg>
