<?xml version="1.0" encoding="utf-8" standalone="no"?>
<!DOCTYPE svg PUBLIC "-//W3C//DTD SVG 1.1//EN"
  "http://www.w3.org/Graphics/SVG/1.1/DTD/svg11.dtd">
<svg xmlns:xlink="http://www.w3.org/1999/xlink" width="720pt" height="432pt" viewBox="0 0 720 432" xmlns="http://www.w3.org/2000/svg" version="1.1">
 <metadata>
  <rdf:RDF xmlns:dc="http://purl.org/dc/elements/1.1/" xmlns:cc="http://creativecommons.org/ns#" xmlns:rdf="http://www.w3.org/1999/02/22-rdf-syntax-ns#">
   <cc:Work>
    <dc:type rdf:resource="http://purl.org/dc/dcmitype/StillImage"/>
    <dc:date>2024-03-26T22:10:20.974571</dc:date>
    <dc:format>image/svg+xml</dc:format>
    <dc:creator>
     <cc:Agent>
      <dc:title>Matplotlib v3.7.5, https://matplotlib.org/</dc:title>
     </cc:Agent>
    </dc:creator>
   </cc:Work>
  </rdf:RDF>
 </metadata>
 <defs>
  <style type="text/css">*{stroke-linejoin: round; stroke-linecap: butt}</style>
 </defs>
 <g id="figure_1">
  <g id="patch_1">
   <path d="M 0 432 
L 720 432 
L 720 0 
L 0 0 
z
" style="fill: #ffffff"/>
  </g>
  <g id="axes_1">
   <g id="patch_2">
    <path d="M 90 384.48 
L 648 384.48 
L 648 51.84 
L 90 51.84 
z
" style="fill: #ffffff"/>
   </g>
   <g id="patch_3">
    <path d="M 115.70258 218.16 
L 116.672362 218.16 
L 116.672362 218.503498 
L 115.70258 218.503498 
z
" clip-path="url(#pea2dfb6fcc)" style="fill: #0000ff; opacity: 0.7"/>
   </g>
   <g id="patch_4">
    <path d="M 119.620497 218.16 
L 120.590278 218.16 
L 120.590278 218.580508 
L 119.620497 218.580508 
z
" clip-path="url(#pea2dfb6fcc)" style="fill: #0000ff; opacity: 0.7"/>
   </g>
   <g id="patch_5">
    <path d="M 122.04495 218.16 
L 123.014732 218.16 
L 123.014732 218.452221 
L 122.04495 218.452221 
z
" clip-path="url(#pea2dfb6fcc)" style="fill: #0000ff; opacity: 0.7"/>
   </g>
   <g id="patch_6">
    <path d="M 128.940095 218.16 
L 129.909877 218.16 
L 129.909877 219.248061 
L 128.940095 219.248061 
z
" clip-path="url(#pea2dfb6fcc)" style="fill: #0000ff; opacity: 0.7"/>
   </g>
   <g id="patch_7">
    <path d="M 133.420485 218.16 
L 134.390266 218.16 
L 134.390266 218.826408 
L 133.420485 218.826408 
z
" clip-path="url(#pea2dfb6fcc)" style="fill: #0000ff; opacity: 0.7"/>
   </g>
   <g id="patch_8">
    <path d="M 140.693845 218.16 
L 141.663626 218.16 
L 141.663626 219.265407 
L 140.693845 219.265407 
z
" clip-path="url(#pea2dfb6fcc)" style="fill: #0000ff; opacity: 0.7"/>
   </g>
   <g id="patch_9">
    <path d="M 146.851956 218.16 
L 147.821737 218.16 
L 147.821737 218.31343 
L 146.851956 218.31343 
z
" clip-path="url(#pea2dfb6fcc)" style="fill: #0000ff; opacity: 0.7"/>
   </g>
   <g id="patch_10">
    <path d="M 151.700863 218.16 
L 152.670644 218.16 
L 152.670644 220.382632 
L 151.700863 220.382632 
z
" clip-path="url(#pea2dfb6fcc)" style="fill: #0000ff; opacity: 0.7"/>
   </g>
   <g id="patch_11">
    <path d="M 158.411749 218.16 
L 159.381531 218.16 
L 159.381531 223.983449 
L 158.411749 223.983449 
z
" clip-path="url(#pea2dfb6fcc)" style="fill: #0000ff; opacity: 0.7"/>
   </g>
   <g id="patch_12">
    <path d="M 162.135709 218.16 
L 163.105491 218.16 
L 163.105491 218.538 
L 162.135709 218.538 
z
" clip-path="url(#pea2dfb6fcc)" style="fill: #0000ff; opacity: 0.7"/>
   </g>
   <g id="patch_13">
    <path d="M 165.685109 218.16 
L 166.65489 218.16 
L 166.65489 218.855764 
L 165.685109 218.855764 
z
" clip-path="url(#pea2dfb6fcc)" style="fill: #0000ff; opacity: 0.7"/>
   </g>
   <g id="patch_14">
    <path d="M 171.649264 218.16 
L 172.619045 218.16 
L 172.619045 222.508048 
L 171.649264 222.508048 
z
" clip-path="url(#pea2dfb6fcc)" style="fill: #0000ff; opacity: 0.7"/>
   </g>
   <g id="patch_15">
    <path d="M 176.313912 218.16 
L 177.283694 218.16 
L 177.283694 218.330777 
L 176.313912 218.330777 
z
" clip-path="url(#pea2dfb6fcc)" style="fill: #0000ff; opacity: 0.7"/>
   </g>
   <g id="patch_16">
    <path d="M 184.518262 218.16 
L 185.488043 218.16 
L 185.488043 221.871377 
L 184.518262 221.871377 
z
" clip-path="url(#pea2dfb6fcc)" style="fill: #0000ff; opacity: 0.7"/>
   </g>
   <g id="patch_17">
    <path d="M 188.620437 218.16 
L 189.590218 218.16 
L 189.590218 222.757761 
L 188.620437 222.757761 
z
" clip-path="url(#pea2dfb6fcc)" style="fill: #0000ff; opacity: 0.7"/>
   </g>
   <g id="patch_18">
    <path d="M 194.400334 218.16 
L 195.370115 218.16 
L 195.370115 219.913897 
L 194.400334 219.913897 
z
" clip-path="url(#pea2dfb6fcc)" style="fill: #0000ff; opacity: 0.7"/>
   </g>
   <g id="patch_19">
    <path d="M 202.236167 218.16 
L 203.205948 218.16 
L 203.205948 221.028835 
L 202.236167 221.028835 
z
" clip-path="url(#pea2dfb6fcc)" style="fill: #0000ff; opacity: 0.7"/>
   </g>
   <g id="patch_20">
    <path d="M 206.716556 218.16 
L 207.686338 218.16 
L 207.686338 219.812297 
L 206.716556 219.812297 
z
" clip-path="url(#pea2dfb6fcc)" style="fill: #0000ff; opacity: 0.7"/>
   </g>
   <g id="patch_21">
    <path d="M 210.624775 218.16 
L 211.594556 218.16 
L 211.594556 219.622439 
L 210.624775 219.622439 
z
" clip-path="url(#pea2dfb6fcc)" style="fill: #0000ff; opacity: 0.7"/>
   </g>
   <g id="patch_22">
    <path d="M 214.920906 218.16 
L 215.890687 218.16 
L 215.890687 227.687201 
L 214.920906 227.687201 
z
" clip-path="url(#pea2dfb6fcc)" style="fill: #0000ff; opacity: 0.7"/>
   </g>
   <g id="patch_23">
    <path d="M 222.194266 218.16 
L 223.164047 218.16 
L 223.164047 218.400563 
L 222.194266 218.400563 
z
" clip-path="url(#pea2dfb6fcc)" style="fill: #0000ff; opacity: 0.7"/>
   </g>
   <g id="patch_24">
    <path d="M 226.296441 218.16 
L 227.266222 218.16 
L 227.266222 218.500067 
L 226.296441 218.500067 
z
" clip-path="url(#pea2dfb6fcc)" style="fill: #0000ff; opacity: 0.7"/>
   </g>
   <g id="patch_25">
    <path d="M 233.007327 218.16 
L 233.977109 218.16 
L 233.977109 218.389316 
L 233.007327 218.389316 
z
" clip-path="url(#pea2dfb6fcc)" style="fill: #0000ff; opacity: 0.7"/>
   </g>
   <g id="patch_26">
    <path d="M 239.165439 218.16 
L 240.13522 218.16 
L 240.13522 219.27246 
L 239.165439 219.27246 
z
" clip-path="url(#pea2dfb6fcc)" style="fill: #0000ff; opacity: 0.7"/>
   </g>
   <g id="patch_27">
    <path d="M 243.636131 218.16 
L 244.605912 218.16 
L 244.605912 219.125301 
L 243.636131 219.125301 
z
" clip-path="url(#pea2dfb6fcc)" style="fill: #0000ff; opacity: 0.7"/>
   </g>
   <g id="patch_28">
    <path d="M 247.369789 218.16 
L 248.33957 218.16 
L 248.33957 219.13121 
L 247.369789 219.13121 
z
" clip-path="url(#pea2dfb6fcc)" style="fill: #0000ff; opacity: 0.7"/>
   </g>
   <g id="patch_29">
    <path d="M 254.643148 218.16 
L 255.61293 218.16 
L 255.61293 219.942109 
L 254.643148 219.942109 
z
" clip-path="url(#pea2dfb6fcc)" style="fill: #0000ff; opacity: 0.7"/>
   </g>
   <g id="patch_30">
    <path d="M 258.561065 218.16 
L 259.530846 218.16 
L 259.530846 220.382632 
L 258.561065 220.382632 
z
" clip-path="url(#pea2dfb6fcc)" style="fill: #0000ff; opacity: 0.7"/>
   </g>
   <g id="patch_31">
    <path d="M 267.696405 218.16 
L 268.666186 218.16 
L 268.666186 219.923809 
L 267.696405 219.923809 
z
" clip-path="url(#pea2dfb6fcc)" style="fill: #0000ff; opacity: 0.7"/>
   </g>
   <g id="patch_32">
    <path d="M 271.614321 218.16 
L 272.584103 218.16 
L 272.584103 218.93449 
L 271.614321 218.93449 
z
" clip-path="url(#pea2dfb6fcc)" style="fill: #0000ff; opacity: 0.7"/>
   </g>
   <g id="patch_33">
    <path d="M 283.920846 218.16 
L 284.890627 218.16 
L 284.890627 219.530941 
L 283.920846 219.530941 
z
" clip-path="url(#pea2dfb6fcc)" style="fill: #0000ff; opacity: 0.7"/>
   </g>
   <g id="patch_34">
    <path d="M 287.276289 218.16 
L 288.246071 218.16 
L 288.246071 219.357095 
L 287.276289 219.357095 
z
" clip-path="url(#pea2dfb6fcc)" style="fill: #0000ff; opacity: 0.7"/>
   </g>
   <g id="patch_35">
    <path d="M 298.84578 218.16 
L 299.815562 218.16 
L 299.815562 218.336838 
L 298.84578 218.336838 
z
" clip-path="url(#pea2dfb6fcc)" style="fill: #0000ff; opacity: 0.7"/>
   </g>
   <g id="patch_36">
    <path d="M 307.05013 218.16 
L 308.019912 218.16 
L 308.019912 218.560112 
L 307.05013 218.560112 
z
" clip-path="url(#pea2dfb6fcc)" style="fill: #0000ff; opacity: 0.7"/>
   </g>
   <g id="patch_37">
    <path d="M 314.32349 218.16 
L 315.293271 218.16 
L 315.293271 220.460787 
L 314.32349 220.460787 
z
" clip-path="url(#pea2dfb6fcc)" style="fill: #0000ff; opacity: 0.7"/>
   </g>
   <g id="patch_38">
    <path d="M 320.850118 218.16 
L 321.8199 218.16 
L 321.8199 219.791328 
L 320.850118 219.791328 
z
" clip-path="url(#pea2dfb6fcc)" style="fill: #0000ff; opacity: 0.7"/>
   </g>
   <g id="patch_39">
    <path d="M 324.574079 218.16 
L 325.54386 218.16 
L 325.54386 219.565253 
L 324.574079 219.565253 
z
" clip-path="url(#pea2dfb6fcc)" style="fill: #0000ff; opacity: 0.7"/>
   </g>
   <g id="patch_40">
    <path d="M 329.238727 218.16 
L 330.208508 218.16 
L 330.208508 218.719089 
L 329.238727 218.719089 
z
" clip-path="url(#pea2dfb6fcc)" style="fill: #0000ff; opacity: 0.7"/>
   </g>
   <g id="patch_41">
    <path d="M 334.465848 218.16 
L 335.435629 218.16 
L 335.435629 218.724998 
L 334.465848 218.724998 
z
" clip-path="url(#pea2dfb6fcc)" style="fill: #0000ff; opacity: 0.7"/>
   </g>
   <g id="patch_42">
    <path d="M 338.189808 218.16 
L 339.159589 218.16 
L 339.159589 218.875589 
L 338.189808 218.875589 
z
" clip-path="url(#pea2dfb6fcc)" style="fill: #0000ff; opacity: 0.7"/>
   </g>
   <g id="patch_43">
    <path d="M 351.058806 218.16 
L 352.028587 218.16 
L 352.028587 249.383601 
L 351.058806 249.383601 
z
" clip-path="url(#pea2dfb6fcc)" style="fill: #0000ff; opacity: 0.7"/>
   </g>
   <g id="patch_44">
    <path d="M 366.536516 218.16 
L 367.506297 218.16 
L 367.506297 222.839728 
L 366.536516 222.839728 
z
" clip-path="url(#pea2dfb6fcc)" style="fill: #0000ff; opacity: 0.7"/>
   </g>
   <g id="patch_45">
    <path d="M 372.32611 218.16 
L 373.295892 218.16 
L 373.295892 220.678094 
L 372.32611 220.678094 
z
" clip-path="url(#pea2dfb6fcc)" style="fill: #0000ff; opacity: 0.7"/>
   </g>
   <g id="patch_46">
    <path d="M 377.543534 218.16 
L 378.513315 218.16 
L 378.513315 221.797035 
L 377.543534 221.797035 
z
" clip-path="url(#pea2dfb6fcc)" style="fill: #0000ff; opacity: 0.7"/>
   </g>
   <g id="patch_47">
    <path d="M 383.885903 218.16 
L 384.855685 218.16 
L 384.855685 219.197737 
L 383.885903 219.197737 
z
" clip-path="url(#pea2dfb6fcc)" style="fill: #0000ff; opacity: 0.7"/>
   </g>
   <g id="patch_48">
    <path d="M 389.850058 218.16 
L 390.81984 218.16 
L 390.81984 219.526557 
L 389.850058 219.526557 
z
" clip-path="url(#pea2dfb6fcc)" style="fill: #0000ff; opacity: 0.7"/>
   </g>
   <g id="patch_49">
    <path d="M 394.883223 218.16 
L 395.853005 218.16 
L 395.853005 219.870817 
L 394.883223 219.870817 
z
" clip-path="url(#pea2dfb6fcc)" style="fill: #0000ff; opacity: 0.7"/>
   </g>
   <g id="patch_50">
    <path d="M 401.972325 218.16 
L 402.942106 218.16 
L 402.942106 225.729531 
L 401.972325 225.729531 
z
" clip-path="url(#pea2dfb6fcc)" style="fill: #0000ff; opacity: 0.7"/>
   </g>
   <g id="patch_51">
    <path d="M 412.416869 218.16 
L 413.386651 218.16 
L 413.386651 220.737186 
L 412.416869 220.737186 
z
" clip-path="url(#pea2dfb6fcc)" style="fill: #0000ff; opacity: 0.7"/>
   </g>
   <g id="patch_52">
    <path d="M 421.367951 218.16 
L 422.337732 218.16 
L 422.337732 219.108145 
L 421.367951 219.108145 
z
" clip-path="url(#pea2dfb6fcc)" style="fill: #0000ff; opacity: 0.7"/>
   </g>
   <g id="patch_53">
    <path d="M 429.019525 218.16 
L 429.989307 218.16 
L 429.989307 226.764599 
L 429.019525 226.764599 
z
" clip-path="url(#pea2dfb6fcc)" style="fill: #0000ff; opacity: 0.7"/>
   </g>
   <g id="patch_54">
    <path d="M 435.730412 218.16 
L 436.700193 218.16 
L 436.700193 219.810772 
L 435.730412 219.810772 
z
" clip-path="url(#pea2dfb6fcc)" style="fill: #0000ff; opacity: 0.7"/>
   </g>
   <g id="patch_55">
    <path d="M 447.66842 218.16 
L 448.638201 218.16 
L 448.638201 219.450309 
L 447.66842 219.450309 
z
" clip-path="url(#pea2dfb6fcc)" style="fill: #0000ff; opacity: 0.7"/>
   </g>
   <g id="patch_56">
    <path d="M 456.619502 218.16 
L 457.589283 218.16 
L 457.589283 229.090166 
L 456.619502 229.090166 
z
" clip-path="url(#pea2dfb6fcc)" style="fill: #0000ff; opacity: 0.7"/>
   </g>
   <g id="patch_57">
    <path d="M 466.501573 218.16 
L 467.471354 218.16 
L 467.471354 232.28115 
L 466.501573 232.28115 
z
" clip-path="url(#pea2dfb6fcc)" style="fill: #0000ff; opacity: 0.7"/>
   </g>
   <g id="patch_58">
    <path d="M 486.643931 218.16 
L 487.613712 218.16 
L 487.613712 221.579728 
L 486.643931 221.579728 
z
" clip-path="url(#pea2dfb6fcc)" style="fill: #0000ff; opacity: 0.7"/>
   </g>
   <g id="patch_59">
    <path d="M 497.272734 218.16 
L 498.242515 218.16 
L 498.242515 241.644418 
L 497.272734 241.644418 
z
" clip-path="url(#pea2dfb6fcc)" style="fill: #0000ff; opacity: 0.7"/>
   </g>
   <g id="patch_60">
    <path d="M 509.579259 218.16 
L 510.54904 218.16 
L 510.54904 255.635946 
L 509.579259 255.635946 
z
" clip-path="url(#pea2dfb6fcc)" style="fill: #0000ff; opacity: 0.7"/>
   </g>
   <g id="patch_61">
    <path d="M 521.701525 218.16 
L 522.671306 218.16 
L 522.671306 283.161513 
L 521.701525 283.161513 
z
" clip-path="url(#pea2dfb6fcc)" style="fill: #0000ff; opacity: 0.7"/>
   </g>
   <g id="patch_62">
    <path d="M 530.468348 218.16 
L 531.438129 218.16 
L 531.438129 242.101906 
L 530.468348 242.101906 
z
" clip-path="url(#pea2dfb6fcc)" style="fill: #0000ff; opacity: 0.7"/>
   </g>
   <g id="patch_63">
    <path d="M 552.288428 218.16 
L 553.258209 218.16 
L 553.258209 243.493434 
L 552.288428 243.493434 
z
" clip-path="url(#pea2dfb6fcc)" style="fill: #0000ff; opacity: 0.7"/>
   </g>
   <g id="patch_64">
    <path d="M 558.26228 218.16 
L 559.232062 218.16 
L 559.232062 253.844115 
L 558.26228 253.844115 
z
" clip-path="url(#pea2dfb6fcc)" style="fill: #0000ff; opacity: 0.7"/>
   </g>
   <g id="patch_65">
    <path d="M 568.144352 218.16 
L 569.114133 218.16 
L 569.114133 369.36 
L 568.144352 369.36 
z
" clip-path="url(#pea2dfb6fcc)" style="fill: #0000ff; opacity: 0.7"/>
   </g>
   <g id="patch_66">
    <path d="M 582.87533 218.16 
L 583.845111 218.16 
L 583.845111 236.253676 
L 582.87533 236.253676 
z
" clip-path="url(#pea2dfb6fcc)" style="fill: #0000ff; opacity: 0.7"/>
   </g>
   <g id="patch_67">
    <path d="M 597.606308 218.16 
L 598.576089 218.16 
L 598.576089 306.340938 
L 597.606308 306.340938 
z
" clip-path="url(#pea2dfb6fcc)" style="fill: #0000ff; opacity: 0.7"/>
   </g>
   <g id="patch_68">
    <path d="M 607.682336 218.16 
L 608.652117 218.16 
L 608.652117 234.530469 
L 607.682336 234.530469 
z
" clip-path="url(#pea2dfb6fcc)" style="fill: #0000ff; opacity: 0.7"/>
   </g>
   <g id="patch_69">
    <path d="M 621.666582 218.16 
L 622.636364 218.16 
L 622.636364 222.128714 
L 621.666582 222.128714 
z
" clip-path="url(#pea2dfb6fcc)" style="fill: #0000ff; opacity: 0.7"/>
   </g>
   <g id="patch_70">
    <path d="M 115.363636 218.16 
L 115.557593 218.16 
L 115.557593 215.967018 
L 115.363636 215.967018 
z
" clip-path="url(#pea2dfb6fcc)" style="opacity: 0.7"/>
   </g>
   <g id="patch_71">
    <path d="M 117.135217 218.16 
L 117.329174 218.16 
L 117.329174 214.678642 
L 117.135217 214.678642 
z
" clip-path="url(#pea2dfb6fcc)" style="opacity: 0.7"/>
   </g>
   <g id="patch_72">
    <path d="M 118.147549 218.16 
L 118.341506 218.16 
L 118.341506 214.455593 
L 118.147549 214.455593 
z
" clip-path="url(#pea2dfb6fcc)" style="opacity: 0.7"/>
   </g>
   <g id="patch_73">
    <path d="M 119.666047 218.16 
L 119.860004 218.16 
L 119.860004 207.612576 
L 119.666047 207.612576 
z
" clip-path="url(#pea2dfb6fcc)" style="opacity: 0.7"/>
   </g>
   <g id="patch_74">
    <path d="M 121.943794 218.16 
L 122.137751 218.16 
L 122.137751 212.125402 
L 121.943794 212.125402 
z
" clip-path="url(#pea2dfb6fcc)" style="opacity: 0.7"/>
   </g>
   <g id="patch_75">
    <path d="M 122.44996 218.16 
L 122.643917 218.16 
L 122.643917 212.211226 
L 122.44996 212.211226 
z
" clip-path="url(#pea2dfb6fcc)" style="opacity: 0.7"/>
   </g>
   <g id="patch_76">
    <path d="M 124.98079 218.16 
L 125.174747 218.16 
L 125.174747 203.807546 
L 124.98079 203.807546 
z
" clip-path="url(#pea2dfb6fcc)" style="opacity: 0.7"/>
   </g>
   <g id="patch_77">
    <path d="M 126.246205 218.16 
L 126.440162 218.16 
L 126.440162 198.389228 
L 126.246205 198.389228 
z
" clip-path="url(#pea2dfb6fcc)" style="opacity: 0.7"/>
   </g>
   <g id="patch_78">
    <path d="M 128.017786 218.16 
L 128.211743 218.16 
L 128.211743 206.211316 
L 128.017786 206.211316 
z
" clip-path="url(#pea2dfb6fcc)" style="opacity: 0.7"/>
   </g>
   <g id="patch_79">
    <path d="M 129.030118 218.16 
L 129.224075 218.16 
L 129.224075 206.136997 
L 129.030118 206.136997 
z
" clip-path="url(#pea2dfb6fcc)" style="opacity: 0.7"/>
   </g>
   <g id="patch_80">
    <path d="M 130.801699 218.16 
L 130.995656 218.16 
L 130.995656 213.610917 
L 130.801699 213.610917 
z
" clip-path="url(#pea2dfb6fcc)" style="opacity: 0.7"/>
   </g>
   <g id="patch_81">
    <path d="M 131.560949 218.16 
L 131.754905 218.16 
L 131.754905 214.712878 
L 131.560949 214.712878 
z
" clip-path="url(#pea2dfb6fcc)" style="opacity: 0.7"/>
   </g>
   <g id="patch_82">
    <path d="M 133.585613 218.16 
L 133.779569 218.16 
L 133.779569 214.693647 
L 133.585613 214.693647 
z
" clip-path="url(#pea2dfb6fcc)" style="opacity: 0.7"/>
   </g>
   <g id="patch_83">
    <path d="M 135.610277 218.16 
L 135.804233 218.16 
L 135.804233 215.939328 
L 135.610277 215.939328 
z
" clip-path="url(#pea2dfb6fcc)" style="opacity: 0.7"/>
   </g>
   <g id="patch_84">
    <path d="M 137.128775 218.16 
L 137.322731 218.16 
L 137.322731 216.691253 
L 137.128775 216.691253 
z
" clip-path="url(#pea2dfb6fcc)" style="opacity: 0.7"/>
   </g>
   <g id="patch_85">
    <path d="M 137.888024 218.16 
L 138.08198 218.16 
L 138.08198 216.574991 
L 137.888024 216.574991 
z
" clip-path="url(#pea2dfb6fcc)" style="opacity: 0.7"/>
   </g>
   <g id="patch_86">
    <path d="M 139.153439 218.16 
L 139.347395 218.16 
L 139.347395 217.413731 
L 139.153439 217.413731 
z
" clip-path="url(#pea2dfb6fcc)" style="opacity: 0.7"/>
   </g>
   <g id="patch_87">
    <path d="M 140.418854 218.16 
L 140.61281 218.16 
L 140.61281 216.665218 
L 140.418854 216.665218 
z
" clip-path="url(#pea2dfb6fcc)" style="opacity: 0.7"/>
   </g>
   <g id="patch_88">
    <path d="M 141.684269 218.16 
L 141.878225 218.16 
L 141.878225 213.73121 
L 141.684269 213.73121 
z
" clip-path="url(#pea2dfb6fcc)" style="opacity: 0.7"/>
   </g>
   <g id="patch_89">
    <path d="M 142.696601 218.16 
L 142.890557 218.16 
L 142.890557 204.993458 
L 142.696601 204.993458 
z
" clip-path="url(#pea2dfb6fcc)" style="opacity: 0.7"/>
   </g>
   <g id="patch_90">
    <path d="M 145.227431 218.16 
L 145.421387 218.16 
L 145.421387 216.64585 
L 145.227431 216.64585 
z
" clip-path="url(#pea2dfb6fcc)" style="opacity: 0.7"/>
   </g>
   <g id="patch_91">
    <path d="M 146.239763 218.16 
L 146.433719 218.16 
L 146.433719 211.616834 
L 146.239763 211.616834 
z
" clip-path="url(#pea2dfb6fcc)" style="opacity: 0.7"/>
   </g>
   <g id="patch_92">
    <path d="M 147.758261 218.16 
L 147.952217 218.16 
L 147.952217 213.474913 
L 147.758261 213.474913 
z
" clip-path="url(#pea2dfb6fcc)" style="opacity: 0.7"/>
   </g>
   <g id="patch_93">
    <path d="M 150.036008 218.16 
L 150.229964 218.16 
L 150.229964 215.093151 
L 150.036008 215.093151 
z
" clip-path="url(#pea2dfb6fcc)" style="opacity: 0.7"/>
   </g>
   <g id="patch_94">
    <path d="M 151.554506 218.16 
L 151.748462 218.16 
L 151.748462 214.192239 
L 151.554506 214.192239 
z
" clip-path="url(#pea2dfb6fcc)" style="opacity: 0.7"/>
   </g>
   <g id="patch_95">
    <path d="M 153.073004 218.16 
L 153.26696 218.16 
L 153.26696 214.616149 
L 153.073004 214.616149 
z
" clip-path="url(#pea2dfb6fcc)" style="opacity: 0.7"/>
   </g>
   <g id="patch_96">
    <path d="M 154.591502 218.16 
L 154.785458 218.16 
L 154.785458 206.196409 
L 154.591502 206.196409 
z
" clip-path="url(#pea2dfb6fcc)" style="opacity: 0.7"/>
   </g>
   <g id="patch_97">
    <path d="M 156.363083 218.16 
L 156.557039 218.16 
L 156.557039 209.919627 
L 156.363083 209.919627 
z
" clip-path="url(#pea2dfb6fcc)" style="opacity: 0.7"/>
   </g>
   <g id="patch_98">
    <path d="M 158.134664 218.16 
L 158.32862 218.16 
L 158.32862 66.96 
L 158.134664 66.96 
z
" clip-path="url(#pea2dfb6fcc)" style="opacity: 0.7"/>
   </g>
   <g id="patch_99">
    <path d="M 160.665494 218.16 
L 160.85945 218.16 
L 160.85945 216.069257 
L 160.665494 216.069257 
z
" clip-path="url(#pea2dfb6fcc)" style="opacity: 0.7"/>
   </g>
   <g id="patch_100">
    <path d="M 162.183992 218.16 
L 162.377948 218.16 
L 162.377948 206.805614 
L 162.183992 206.805614 
z
" clip-path="url(#pea2dfb6fcc)" style="opacity: 0.7"/>
   </g>
   <g id="patch_101">
    <path d="M 163.955573 218.16 
L 164.149529 218.16 
L 164.149529 187.759679 
L 163.955573 187.759679 
z
" clip-path="url(#pea2dfb6fcc)" style="opacity: 0.7"/>
   </g>
   <g id="patch_102">
    <path d="M 165.727154 218.16 
L 165.92111 218.16 
L 165.92111 203.751659 
L 165.727154 203.751659 
z
" clip-path="url(#pea2dfb6fcc)" style="opacity: 0.7"/>
   </g>
   <g id="patch_103">
    <path d="M 166.739486 218.16 
L 166.933442 218.16 
L 166.933442 214.783076 
L 166.739486 214.783076 
z
" clip-path="url(#pea2dfb6fcc)" style="opacity: 0.7"/>
   </g>
   <g id="patch_104">
    <path d="M 168.511067 218.16 
L 168.705023 218.16 
L 168.705023 215.811917 
L 168.511067 215.811917 
z
" clip-path="url(#pea2dfb6fcc)" style="opacity: 0.7"/>
   </g>
   <g id="patch_105">
    <path d="M 170.282648 218.16 
L 170.476604 218.16 
L 170.476604 214.279395 
L 170.282648 214.279395 
z
" clip-path="url(#pea2dfb6fcc)" style="opacity: 0.7"/>
   </g>
   <g id="patch_106">
    <path d="M 171.548063 218.16 
L 171.742019 218.16 
L 171.742019 202.214773 
L 171.548063 202.214773 
z
" clip-path="url(#pea2dfb6fcc)" style="opacity: 0.7"/>
   </g>
   <g id="patch_107">
    <path d="M 173.319644 218.16 
L 173.5136 218.16 
L 173.5136 182.441767 
L 173.319644 182.441767 
z
" clip-path="url(#pea2dfb6fcc)" style="opacity: 0.7"/>
   </g>
   <g id="patch_108">
    <path d="M 176.103557 218.16 
L 176.297513 218.16 
L 176.297513 202.242993 
L 176.103557 202.242993 
z
" clip-path="url(#pea2dfb6fcc)" style="opacity: 0.7"/>
   </g>
   <g id="patch_109">
    <path d="M 179.140553 218.16 
L 179.334509 218.16 
L 179.334509 210.28455 
L 179.140553 210.28455 
z
" clip-path="url(#pea2dfb6fcc)" style="opacity: 0.7"/>
   </g>
   <g id="patch_110">
    <path d="M 180.912134 218.16 
L 181.10609 218.16 
L 181.10609 213.190167 
L 180.912134 213.190167 
z
" clip-path="url(#pea2dfb6fcc)" style="opacity: 0.7"/>
   </g>
   <g id="patch_111">
    <path d="M 181.924466 218.16 
L 182.118422 218.16 
L 182.118422 207.216099 
L 181.924466 207.216099 
z
" clip-path="url(#pea2dfb6fcc)" style="opacity: 0.7"/>
   </g>
   <g id="patch_112">
    <path d="M 182.936798 218.16 
L 183.130754 218.16 
L 183.130754 212.614561 
L 182.936798 212.614561 
z
" clip-path="url(#pea2dfb6fcc)" style="opacity: 0.7"/>
   </g>
   <g id="patch_113">
    <path d="M 184.455296 218.16 
L 184.649252 218.16 
L 184.649252 175.964834 
L 184.455296 175.964834 
z
" clip-path="url(#pea2dfb6fcc)" style="opacity: 0.7"/>
   </g>
   <g id="patch_114">
    <path d="M 186.733043 218.16 
L 186.926999 218.16 
L 186.926999 191.198608 
L 186.733043 191.198608 
z
" clip-path="url(#pea2dfb6fcc)" style="opacity: 0.7"/>
   </g>
   <g id="patch_115">
    <path d="M 187.492292 218.16 
L 187.686248 218.16 
L 187.686248 171.981963 
L 187.492292 171.981963 
z
" clip-path="url(#pea2dfb6fcc)" style="opacity: 0.7"/>
   </g>
   <g id="patch_116">
    <path d="M 188.504624 218.16 
L 188.69858 218.16 
L 188.69858 116.344716 
L 188.504624 116.344716 
z
" clip-path="url(#pea2dfb6fcc)" style="opacity: 0.7"/>
   </g>
   <g id="patch_117">
    <path d="M 191.035454 218.16 
L 191.22941 218.16 
L 191.22941 209.935133 
L 191.035454 209.935133 
z
" clip-path="url(#pea2dfb6fcc)" style="opacity: 0.7"/>
   </g>
   <g id="patch_118">
    <path d="M 192.047786 218.16 
L 192.241742 218.16 
L 192.241742 211.679251 
L 192.047786 211.679251 
z
" clip-path="url(#pea2dfb6fcc)" style="opacity: 0.7"/>
   </g>
   <g id="patch_119">
    <path d="M 194.07245 218.16 
L 194.266406 218.16 
L 194.266406 144.407546 
L 194.07245 144.407546 
z
" clip-path="url(#pea2dfb6fcc)" style="opacity: 0.7"/>
   </g>
   <g id="patch_120">
    <path d="M 195.844031 218.16 
L 196.037987 218.16 
L 196.037987 186.973471 
L 195.844031 186.973471 
z
" clip-path="url(#pea2dfb6fcc)" style="opacity: 0.7"/>
   </g>
   <g id="patch_121">
    <path d="M 198.121778 218.16 
L 198.315734 218.16 
L 198.315734 197.114807 
L 198.121778 197.114807 
z
" clip-path="url(#pea2dfb6fcc)" style="opacity: 0.7"/>
   </g>
   <g id="patch_122">
    <path d="M 201.411857 218.16 
L 201.605813 218.16 
L 201.605813 143.687771 
L 201.411857 143.687771 
z
" clip-path="url(#pea2dfb6fcc)" style="opacity: 0.7"/>
   </g>
   <g id="patch_123">
    <path d="M 202.677272 218.16 
L 202.871228 218.16 
L 202.871228 173.40187 
L 202.677272 173.40187 
z
" clip-path="url(#pea2dfb6fcc)" style="opacity: 0.7"/>
   </g>
   <g id="patch_124">
    <path d="M 204.955019 218.16 
L 205.148975 218.16 
L 205.148975 198.45004 
L 204.955019 198.45004 
z
" clip-path="url(#pea2dfb6fcc)" style="opacity: 0.7"/>
   </g>
   <g id="patch_125">
    <path d="M 205.714268 218.16 
L 205.908224 218.16 
L 205.908224 196.301661 
L 205.714268 196.301661 
z
" clip-path="url(#pea2dfb6fcc)" style="opacity: 0.7"/>
   </g>
   <g id="patch_126">
    <path d="M 206.7266 218.16 
L 206.920556 218.16 
L 206.920556 202.732755 
L 206.7266 202.732755 
z
" clip-path="url(#pea2dfb6fcc)" style="opacity: 0.7"/>
   </g>
   <g id="patch_127">
    <path d="M 207.992015 218.16 
L 208.185971 218.16 
L 208.185971 202.428786 
L 207.992015 202.428786 
z
" clip-path="url(#pea2dfb6fcc)" style="opacity: 0.7"/>
   </g>
   <g id="patch_128">
    <path d="M 210.522845 218.16 
L 210.716801 218.16 
L 210.716801 186.455241 
L 210.522845 186.455241 
z
" clip-path="url(#pea2dfb6fcc)" style="opacity: 0.7"/>
   </g>
   <g id="patch_129">
    <path d="M 212.547509 218.16 
L 212.741465 218.16 
L 212.741465 212.733196 
L 212.547509 212.733196 
z
" clip-path="url(#pea2dfb6fcc)" style="opacity: 0.7"/>
   </g>
   <g id="patch_130">
    <path d="M 214.825256 218.16 
L 215.019212 218.16 
L 215.019212 88.177989 
L 214.825256 88.177989 
z
" clip-path="url(#pea2dfb6fcc)" style="opacity: 0.7"/>
   </g>
   <g id="patch_131">
    <path d="M 215.837588 218.16 
L 216.031544 218.16 
L 216.031544 204.617393 
L 215.837588 204.617393 
z
" clip-path="url(#pea2dfb6fcc)" style="opacity: 0.7"/>
   </g>
   <g id="patch_132">
    <path d="M 218.621501 218.16 
L 218.815458 218.16 
L 218.815458 196.308572 
L 218.621501 196.308572 
z
" clip-path="url(#pea2dfb6fcc)" style="opacity: 0.7"/>
   </g>
   <g id="patch_133">
    <path d="M 219.633833 218.16 
L 219.82779 218.16 
L 219.82779 213.62337 
L 219.633833 213.62337 
z
" clip-path="url(#pea2dfb6fcc)" style="opacity: 0.7"/>
   </g>
   <g id="patch_134">
    <path d="M 220.646165 218.16 
L 220.840122 218.16 
L 220.840122 216.009881 
L 220.646165 216.009881 
z
" clip-path="url(#pea2dfb6fcc)" style="opacity: 0.7"/>
   </g>
   <g id="patch_135">
    <path d="M 221.91158 218.16 
L 222.105537 218.16 
L 222.105537 167.589938 
L 221.91158 167.589938 
z
" clip-path="url(#pea2dfb6fcc)" style="opacity: 0.7"/>
   </g>
   <g id="patch_136">
    <path d="M 223.683161 218.16 
L 223.877118 218.16 
L 223.877118 216.367437 
L 223.683161 216.367437 
z
" clip-path="url(#pea2dfb6fcc)" style="opacity: 0.7"/>
   </g>
   <g id="patch_137">
    <path d="M 225.201659 218.16 
L 225.395616 218.16 
L 225.395616 187.774249 
L 225.201659 187.774249 
z
" clip-path="url(#pea2dfb6fcc)" style="opacity: 0.7"/>
   </g>
   <g id="patch_138">
    <path d="M 226.213991 218.16 
L 226.407948 218.16 
L 226.407948 200.164788 
L 226.213991 200.164788 
z
" clip-path="url(#pea2dfb6fcc)" style="opacity: 0.7"/>
   </g>
   <g id="patch_139">
    <path d="M 228.238655 218.16 
L 228.432612 218.16 
L 228.432612 193.978772 
L 228.238655 193.978772 
z
" clip-path="url(#pea2dfb6fcc)" style="opacity: 0.7"/>
   </g>
   <g id="patch_140">
    <path d="M 230.010236 218.16 
L 230.204193 218.16 
L 230.204193 215.745721 
L 230.010236 215.745721 
z
" clip-path="url(#pea2dfb6fcc)" style="opacity: 0.7"/>
   </g>
   <g id="patch_141">
    <path d="M 230.769485 218.16 
L 230.963442 218.16 
L 230.963442 216.059866 
L 230.769485 216.059866 
z
" clip-path="url(#pea2dfb6fcc)" style="opacity: 0.7"/>
   </g>
   <g id="patch_142">
    <path d="M 232.794149 218.16 
L 232.988106 218.16 
L 232.988106 190.761673 
L 232.794149 190.761673 
z
" clip-path="url(#pea2dfb6fcc)" style="opacity: 0.7"/>
   </g>
   <g id="patch_143">
    <path d="M 235.324979 218.16 
L 235.518936 218.16 
L 235.518936 217.950724 
L 235.324979 217.950724 
z
" clip-path="url(#pea2dfb6fcc)" style="opacity: 0.7"/>
   </g>
   <g id="patch_144">
    <path d="M 235.831145 218.16 
L 236.025102 218.16 
L 236.025102 217.970116 
L 235.831145 217.970116 
z
" clip-path="url(#pea2dfb6fcc)" style="opacity: 0.7"/>
   </g>
   <g id="patch_145">
    <path d="M 237.09656 218.16 
L 237.290517 218.16 
L 237.290517 213.589984 
L 237.09656 213.589984 
z
" clip-path="url(#pea2dfb6fcc)" style="opacity: 0.7"/>
   </g>
   <g id="patch_146">
    <path d="M 238.108892 218.16 
L 238.302849 218.16 
L 238.302849 191.596389 
L 238.108892 191.596389 
z
" clip-path="url(#pea2dfb6fcc)" style="opacity: 0.7"/>
   </g>
   <g id="patch_147">
    <path d="M 239.62739 218.16 
L 239.821347 218.16 
L 239.821347 198.720301 
L 239.62739 198.720301 
z
" clip-path="url(#pea2dfb6fcc)" style="opacity: 0.7"/>
   </g>
   <g id="patch_148">
    <path d="M 240.386639 218.16 
L 240.580596 218.16 
L 240.580596 200.751112 
L 240.386639 200.751112 
z
" clip-path="url(#pea2dfb6fcc)" style="opacity: 0.7"/>
   </g>
   <g id="patch_149">
    <path d="M 242.15822 218.16 
L 242.352177 218.16 
L 242.352177 216.22343 
L 242.15822 216.22343 
z
" clip-path="url(#pea2dfb6fcc)" style="opacity: 0.7"/>
   </g>
   <g id="patch_150">
    <path d="M 243.170552 218.16 
L 243.364509 218.16 
L 243.364509 154.729537 
L 243.170552 154.729537 
z
" clip-path="url(#pea2dfb6fcc)" style="opacity: 0.7"/>
   </g>
   <g id="patch_151">
    <path d="M 245.954465 218.16 
L 246.148422 218.16 
L 246.148422 217.761413 
L 245.954465 217.761413 
z
" clip-path="url(#pea2dfb6fcc)" style="opacity: 0.7"/>
   </g>
   <g id="patch_152">
    <path d="M 247.21988 218.16 
L 247.413837 218.16 
L 247.413837 191.86555 
L 247.21988 191.86555 
z
" clip-path="url(#pea2dfb6fcc)" style="opacity: 0.7"/>
   </g>
   <g id="patch_153">
    <path d="M 250.256877 218.16 
L 250.450833 218.16 
L 250.450833 217.368233 
L 250.256877 217.368233 
z
" clip-path="url(#pea2dfb6fcc)" style="opacity: 0.7"/>
   </g>
   <g id="patch_154">
    <path d="M 251.269209 218.16 
L 251.463165 218.16 
L 251.463165 206.781478 
L 251.269209 206.781478 
z
" clip-path="url(#pea2dfb6fcc)" style="opacity: 0.7"/>
   </g>
   <g id="patch_155">
    <path d="M 253.04079 218.16 
L 253.234746 218.16 
L 253.234746 216.98984 
L 253.04079 216.98984 
z
" clip-path="url(#pea2dfb6fcc)" style="opacity: 0.7"/>
   </g>
   <g id="patch_156">
    <path d="M 254.306205 218.16 
L 254.500161 218.16 
L 254.500161 185.673295 
L 254.306205 185.673295 
z
" clip-path="url(#pea2dfb6fcc)" style="opacity: 0.7"/>
   </g>
   <g id="patch_157">
    <path d="M 255.318537 218.16 
L 255.512493 218.16 
L 255.512493 208.706623 
L 255.318537 208.706623 
z
" clip-path="url(#pea2dfb6fcc)" style="opacity: 0.7"/>
   </g>
   <g id="patch_158">
    <path d="M 256.837035 218.16 
L 257.030991 218.16 
L 257.030991 216.901433 
L 256.837035 216.901433 
z
" clip-path="url(#pea2dfb6fcc)" style="opacity: 0.7"/>
   </g>
   <g id="patch_159">
    <path d="M 258.355533 218.16 
L 258.549489 218.16 
L 258.549489 157.903218 
L 258.355533 157.903218 
z
" clip-path="url(#pea2dfb6fcc)" style="opacity: 0.7"/>
   </g>
   <g id="patch_160">
    <path d="M 429.019525 218.16 
L 429.31046 218.16 
L 429.31046 215.967018 
L 429.019525 215.967018 
z
" clip-path="url(#pea2dfb6fcc)" style="fill: #ff0000"/>
   </g>
   <g id="patch_161">
    <path d="M 431.406303 218.16 
L 431.697238 218.16 
L 431.697238 214.678642 
L 431.406303 214.678642 
z
" clip-path="url(#pea2dfb6fcc)" style="fill: #ff0000"/>
   </g>
   <g id="patch_162">
    <path d="M 432.770176 218.16 
L 433.061111 218.16 
L 433.061111 214.455593 
L 432.770176 214.455593 
z
" clip-path="url(#pea2dfb6fcc)" style="fill: #ff0000"/>
   </g>
   <g id="patch_163">
    <path d="M 434.815986 218.16 
L 435.10692 218.16 
L 435.10692 207.612576 
L 434.815986 207.612576 
z
" clip-path="url(#pea2dfb6fcc)" style="fill: #ff0000"/>
   </g>
   <g id="patch_164">
    <path d="M 437.8847 218.16 
L 438.175634 218.16 
L 438.175634 212.125402 
L 437.8847 212.125402 
z
" clip-path="url(#pea2dfb6fcc)" style="fill: #ff0000"/>
   </g>
   <g id="patch_165">
    <path d="M 438.566636 218.16 
L 438.857571 218.16 
L 438.857571 212.211226 
L 438.566636 212.211226 
z
" clip-path="url(#pea2dfb6fcc)" style="fill: #ff0000"/>
   </g>
   <g id="patch_166">
    <path d="M 441.976319 218.16 
L 442.267253 218.16 
L 442.267253 203.807546 
L 441.976319 203.807546 
z
" clip-path="url(#pea2dfb6fcc)" style="fill: #ff0000"/>
   </g>
   <g id="patch_167">
    <path d="M 443.68116 218.16 
L 443.972094 218.16 
L 443.972094 198.389228 
L 443.68116 198.389228 
z
" clip-path="url(#pea2dfb6fcc)" style="fill: #ff0000"/>
   </g>
   <g id="patch_168">
    <path d="M 446.067938 218.16 
L 446.358872 218.16 
L 446.358872 206.211316 
L 446.067938 206.211316 
z
" clip-path="url(#pea2dfb6fcc)" style="fill: #ff0000"/>
   </g>
   <g id="patch_169">
    <path d="M 447.431811 218.16 
L 447.722745 218.16 
L 447.722745 206.136997 
L 447.431811 206.136997 
z
" clip-path="url(#pea2dfb6fcc)" style="fill: #ff0000"/>
   </g>
   <g id="patch_170">
    <path d="M 449.818588 218.16 
L 450.109523 218.16 
L 450.109523 213.610917 
L 449.818588 213.610917 
z
" clip-path="url(#pea2dfb6fcc)" style="fill: #ff0000"/>
   </g>
   <g id="patch_171">
    <path d="M 450.841493 218.16 
L 451.132427 218.16 
L 451.132427 214.712878 
L 450.841493 214.712878 
z
" clip-path="url(#pea2dfb6fcc)" style="fill: #ff0000"/>
   </g>
   <g id="patch_172">
    <path d="M 453.569239 218.16 
L 453.860173 218.16 
L 453.860173 214.693647 
L 453.569239 214.693647 
z
" clip-path="url(#pea2dfb6fcc)" style="fill: #ff0000"/>
   </g>
   <g id="patch_173">
    <path d="M 456.296985 218.16 
L 456.587919 218.16 
L 456.587919 215.939328 
L 456.296985 215.939328 
z
" clip-path="url(#pea2dfb6fcc)" style="fill: #ff0000"/>
   </g>
   <g id="patch_174">
    <path d="M 458.342794 218.16 
L 458.633729 218.16 
L 458.633729 216.691253 
L 458.342794 216.691253 
z
" clip-path="url(#pea2dfb6fcc)" style="fill: #ff0000"/>
   </g>
   <g id="patch_175">
    <path d="M 459.365699 218.16 
L 459.656633 218.16 
L 459.656633 216.574991 
L 459.365699 216.574991 
z
" clip-path="url(#pea2dfb6fcc)" style="fill: #ff0000"/>
   </g>
   <g id="patch_176">
    <path d="M 461.07054 218.16 
L 461.361475 218.16 
L 461.361475 217.413731 
L 461.07054 217.413731 
z
" clip-path="url(#pea2dfb6fcc)" style="fill: #ff0000"/>
   </g>
   <g id="patch_177">
    <path d="M 462.775381 218.16 
L 463.066316 218.16 
L 463.066316 216.665218 
L 462.775381 216.665218 
z
" clip-path="url(#pea2dfb6fcc)" style="fill: #ff0000"/>
   </g>
   <g id="patch_178">
    <path d="M 464.480223 218.16 
L 464.771157 218.16 
L 464.771157 213.73121 
L 464.480223 213.73121 
z
" clip-path="url(#pea2dfb6fcc)" style="fill: #ff0000"/>
   </g>
   <g id="patch_179">
    <path d="M 465.844096 218.16 
L 466.13503 218.16 
L 466.13503 204.993458 
L 465.844096 204.993458 
z
" clip-path="url(#pea2dfb6fcc)" style="fill: #ff0000"/>
   </g>
   <g id="patch_180">
    <path d="M 469.253778 218.16 
L 469.544712 218.16 
L 469.544712 216.64585 
L 469.253778 216.64585 
z
" clip-path="url(#pea2dfb6fcc)" style="fill: #ff0000"/>
   </g>
   <g id="patch_181">
    <path d="M 470.617651 218.16 
L 470.908585 218.16 
L 470.908585 211.616834 
L 470.617651 211.616834 
z
" clip-path="url(#pea2dfb6fcc)" style="fill: #ff0000"/>
   </g>
   <g id="patch_182">
    <path d="M 472.66346 218.16 
L 472.954395 218.16 
L 472.954395 213.474913 
L 472.66346 213.474913 
z
" clip-path="url(#pea2dfb6fcc)" style="fill: #ff0000"/>
   </g>
   <g id="patch_183">
    <path d="M 475.732175 218.16 
L 476.023109 218.16 
L 476.023109 215.093151 
L 475.732175 215.093151 
z
" clip-path="url(#pea2dfb6fcc)" style="fill: #ff0000"/>
   </g>
   <g id="patch_184">
    <path d="M 477.777984 218.16 
L 478.068919 218.16 
L 478.068919 214.192239 
L 477.777984 214.192239 
z
" clip-path="url(#pea2dfb6fcc)" style="fill: #ff0000"/>
   </g>
   <g id="patch_185">
    <path d="M 479.823794 218.16 
L 480.114728 218.16 
L 480.114728 214.616149 
L 479.823794 214.616149 
z
" clip-path="url(#pea2dfb6fcc)" style="fill: #ff0000"/>
   </g>
   <g id="patch_186">
    <path d="M 481.869603 218.16 
L 482.160537 218.16 
L 482.160537 206.196409 
L 481.869603 206.196409 
z
" clip-path="url(#pea2dfb6fcc)" style="fill: #ff0000"/>
   </g>
   <g id="patch_187">
    <path d="M 484.256381 218.16 
L 484.547315 218.16 
L 484.547315 209.919627 
L 484.256381 209.919627 
z
" clip-path="url(#pea2dfb6fcc)" style="fill: #ff0000"/>
   </g>
   <g id="patch_188">
    <path d="M 486.643158 218.16 
L 486.934093 218.16 
L 486.934093 66.96 
L 486.643158 66.96 
z
" clip-path="url(#pea2dfb6fcc)" style="fill: #ff0000"/>
   </g>
   <g id="patch_189">
    <path d="M 490.052841 218.16 
L 490.343775 218.16 
L 490.343775 216.069257 
L 490.052841 216.069257 
z
" clip-path="url(#pea2dfb6fcc)" style="fill: #ff0000"/>
   </g>
   <g id="patch_190">
    <path d="M 492.09865 218.16 
L 492.389585 218.16 
L 492.389585 206.805614 
L 492.09865 206.805614 
z
" clip-path="url(#pea2dfb6fcc)" style="fill: #ff0000"/>
   </g>
   <g id="patch_191">
    <path d="M 494.485428 218.16 
L 494.776362 218.16 
L 494.776362 187.759679 
L 494.485428 187.759679 
z
" clip-path="url(#pea2dfb6fcc)" style="fill: #ff0000"/>
   </g>
   <g id="patch_192">
    <path d="M 496.872206 218.16 
L 497.16314 218.16 
L 497.16314 203.751659 
L 496.872206 203.751659 
z
" clip-path="url(#pea2dfb6fcc)" style="fill: #ff0000"/>
   </g>
   <g id="patch_193">
    <path d="M 498.236079 218.16 
L 498.527013 218.16 
L 498.527013 214.783076 
L 498.236079 214.783076 
z
" clip-path="url(#pea2dfb6fcc)" style="fill: #ff0000"/>
   </g>
   <g id="patch_194">
    <path d="M 500.622856 218.16 
L 500.913791 218.16 
L 500.913791 215.811917 
L 500.622856 215.811917 
z
" clip-path="url(#pea2dfb6fcc)" style="fill: #ff0000"/>
   </g>
   <g id="patch_195">
    <path d="M 503.009634 218.16 
L 503.300568 218.16 
L 503.300568 214.279395 
L 503.009634 214.279395 
z
" clip-path="url(#pea2dfb6fcc)" style="fill: #ff0000"/>
   </g>
   <g id="patch_196">
    <path d="M 504.714475 218.16 
L 505.00541 218.16 
L 505.00541 202.214773 
L 504.714475 202.214773 
z
" clip-path="url(#pea2dfb6fcc)" style="fill: #ff0000"/>
   </g>
   <g id="patch_197">
    <path d="M 507.101253 218.16 
L 507.392187 218.16 
L 507.392187 182.441767 
L 507.101253 182.441767 
z
" clip-path="url(#pea2dfb6fcc)" style="fill: #ff0000"/>
   </g>
   <g id="patch_198">
    <path d="M 510.851904 218.16 
L 511.142838 218.16 
L 511.142838 202.242993 
L 510.851904 202.242993 
z
" clip-path="url(#pea2dfb6fcc)" style="fill: #ff0000"/>
   </g>
   <g id="patch_199">
    <path d="M 514.943523 218.16 
L 515.234457 218.16 
L 515.234457 210.28455 
L 514.943523 210.28455 
z
" clip-path="url(#pea2dfb6fcc)" style="fill: #ff0000"/>
   </g>
   <g id="patch_200">
    <path d="M 517.3303 218.16 
L 517.621235 218.16 
L 517.621235 213.190167 
L 517.3303 213.190167 
z
" clip-path="url(#pea2dfb6fcc)" style="fill: #ff0000"/>
   </g>
   <g id="patch_201">
    <path d="M 518.694173 218.16 
L 518.985108 218.16 
L 518.985108 207.216099 
L 518.694173 207.216099 
z
" clip-path="url(#pea2dfb6fcc)" style="fill: #ff0000"/>
   </g>
   <g id="patch_202">
    <path d="M 520.058046 218.16 
L 520.348981 218.16 
L 520.348981 212.614561 
L 520.058046 212.614561 
z
" clip-path="url(#pea2dfb6fcc)" style="fill: #ff0000"/>
   </g>
   <g id="patch_203">
    <path d="M 522.103856 218.16 
L 522.39479 218.16 
L 522.39479 175.964834 
L 522.103856 175.964834 
z
" clip-path="url(#pea2dfb6fcc)" style="fill: #ff0000"/>
   </g>
   <g id="patch_204">
    <path d="M 525.17257 218.16 
L 525.463504 218.16 
L 525.463504 191.198608 
L 525.17257 191.198608 
z
" clip-path="url(#pea2dfb6fcc)" style="fill: #ff0000"/>
   </g>
   <g id="patch_205">
    <path d="M 526.195475 218.16 
L 526.486409 218.16 
L 526.486409 171.981963 
L 526.195475 171.981963 
z
" clip-path="url(#pea2dfb6fcc)" style="fill: #ff0000"/>
   </g>
   <g id="patch_206">
    <path d="M 527.559347 218.16 
L 527.850282 218.16 
L 527.850282 116.344716 
L 527.559347 116.344716 
z
" clip-path="url(#pea2dfb6fcc)" style="fill: #ff0000"/>
   </g>
   <g id="patch_207">
    <path d="M 530.96903 218.16 
L 531.259964 218.16 
L 531.259964 209.935133 
L 530.96903 209.935133 
z
" clip-path="url(#pea2dfb6fcc)" style="fill: #ff0000"/>
   </g>
   <g id="patch_208">
    <path d="M 532.332903 218.16 
L 532.623837 218.16 
L 532.623837 211.679251 
L 532.332903 211.679251 
z
" clip-path="url(#pea2dfb6fcc)" style="fill: #ff0000"/>
   </g>
   <g id="patch_209">
    <path d="M 535.060649 218.16 
L 535.351583 218.16 
L 535.351583 144.407546 
L 535.060649 144.407546 
z
" clip-path="url(#pea2dfb6fcc)" style="fill: #ff0000"/>
   </g>
   <g id="patch_210">
    <path d="M 537.447427 218.16 
L 537.738361 218.16 
L 537.738361 186.973471 
L 537.447427 186.973471 
z
" clip-path="url(#pea2dfb6fcc)" style="fill: #ff0000"/>
   </g>
   <g id="patch_211">
    <path d="M 540.516141 218.16 
L 540.807075 218.16 
L 540.807075 197.114807 
L 540.516141 197.114807 
z
" clip-path="url(#pea2dfb6fcc)" style="fill: #ff0000"/>
   </g>
   <g id="patch_212">
    <path d="M 544.948728 218.16 
L 545.239662 218.16 
L 545.239662 143.687771 
L 544.948728 143.687771 
z
" clip-path="url(#pea2dfb6fcc)" style="fill: #ff0000"/>
   </g>
   <g id="patch_213">
    <path d="M 546.653569 218.16 
L 546.944503 218.16 
L 546.944503 173.40187 
L 546.653569 173.40187 
z
" clip-path="url(#pea2dfb6fcc)" style="fill: #ff0000"/>
   </g>
   <g id="patch_214">
    <path d="M 549.722283 218.16 
L 550.013218 218.16 
L 550.013218 198.45004 
L 549.722283 198.45004 
z
" clip-path="url(#pea2dfb6fcc)" style="fill: #ff0000"/>
   </g>
   <g id="patch_215">
    <path d="M 550.745188 218.16 
L 551.036122 218.16 
L 551.036122 196.301661 
L 550.745188 196.301661 
z
" clip-path="url(#pea2dfb6fcc)" style="fill: #ff0000"/>
   </g>
   <g id="patch_216">
    <path d="M 552.109061 218.16 
L 552.399995 218.16 
L 552.399995 202.732755 
L 552.109061 202.732755 
z
" clip-path="url(#pea2dfb6fcc)" style="fill: #ff0000"/>
   </g>
   <g id="patch_217">
    <path d="M 553.813902 218.16 
L 554.104837 218.16 
L 554.104837 202.428786 
L 553.813902 202.428786 
z
" clip-path="url(#pea2dfb6fcc)" style="fill: #ff0000"/>
   </g>
   <g id="patch_218">
    <path d="M 557.223585 218.16 
L 557.514519 218.16 
L 557.514519 186.455241 
L 557.223585 186.455241 
z
" clip-path="url(#pea2dfb6fcc)" style="fill: #ff0000"/>
   </g>
   <g id="patch_219">
    <path d="M 559.95133 218.16 
L 560.242265 218.16 
L 560.242265 212.733196 
L 559.95133 212.733196 
z
" clip-path="url(#pea2dfb6fcc)" style="fill: #ff0000"/>
   </g>
   <g id="patch_220">
    <path d="M 563.020045 218.16 
L 563.310979 218.16 
L 563.310979 88.177989 
L 563.020045 88.177989 
z
" clip-path="url(#pea2dfb6fcc)" style="fill: #ff0000"/>
   </g>
   <g id="patch_221">
    <path d="M 564.383918 218.16 
L 564.674852 218.16 
L 564.674852 204.617393 
L 564.383918 204.617393 
z
" clip-path="url(#pea2dfb6fcc)" style="fill: #ff0000"/>
   </g>
   <g id="patch_222">
    <path d="M 568.134568 218.16 
L 568.425503 218.16 
L 568.425503 196.308572 
L 568.134568 196.308572 
z
" clip-path="url(#pea2dfb6fcc)" style="fill: #ff0000"/>
   </g>
   <g id="patch_223">
    <path d="M 569.498441 218.16 
L 569.789376 218.16 
L 569.789376 213.62337 
L 569.498441 213.62337 
z
" clip-path="url(#pea2dfb6fcc)" style="fill: #ff0000"/>
   </g>
   <g id="patch_224">
    <path d="M 570.862314 218.16 
L 571.153249 218.16 
L 571.153249 216.009881 
L 570.862314 216.009881 
z
" clip-path="url(#pea2dfb6fcc)" style="fill: #ff0000"/>
   </g>
   <g id="patch_225">
    <path d="M 572.567155 218.16 
L 572.85809 218.16 
L 572.85809 167.589938 
L 572.567155 167.589938 
z
" clip-path="url(#pea2dfb6fcc)" style="fill: #ff0000"/>
   </g>
   <g id="patch_226">
    <path d="M 574.953933 218.16 
L 575.244868 218.16 
L 575.244868 216.367437 
L 574.953933 216.367437 
z
" clip-path="url(#pea2dfb6fcc)" style="fill: #ff0000"/>
   </g>
   <g id="patch_227">
    <path d="M 576.999743 218.16 
L 577.290677 218.16 
L 577.290677 187.774249 
L 576.999743 187.774249 
z
" clip-path="url(#pea2dfb6fcc)" style="fill: #ff0000"/>
   </g>
   <g id="patch_228">
    <path d="M 578.363616 218.16 
L 578.65455 218.16 
L 578.65455 200.164788 
L 578.363616 200.164788 
z
" clip-path="url(#pea2dfb6fcc)" style="fill: #ff0000"/>
   </g>
   <g id="patch_229">
    <path d="M 581.091362 218.16 
L 581.382296 218.16 
L 581.382296 193.978772 
L 581.091362 193.978772 
z
" clip-path="url(#pea2dfb6fcc)" style="fill: #ff0000"/>
   </g>
   <g id="patch_230">
    <path d="M 583.478139 218.16 
L 583.769074 218.16 
L 583.769074 215.745721 
L 583.478139 215.745721 
z
" clip-path="url(#pea2dfb6fcc)" style="fill: #ff0000"/>
   </g>
   <g id="patch_231">
    <path d="M 584.501044 218.16 
L 584.791978 218.16 
L 584.791978 216.059866 
L 584.501044 216.059866 
z
" clip-path="url(#pea2dfb6fcc)" style="fill: #ff0000"/>
   </g>
   <g id="patch_232">
    <path d="M 587.22879 218.16 
L 587.519724 218.16 
L 587.519724 190.761673 
L 587.22879 190.761673 
z
" clip-path="url(#pea2dfb6fcc)" style="fill: #ff0000"/>
   </g>
   <g id="patch_233">
    <path d="M 590.638472 218.16 
L 590.929407 218.16 
L 590.929407 217.950724 
L 590.638472 217.950724 
z
" clip-path="url(#pea2dfb6fcc)" style="fill: #ff0000"/>
   </g>
   <g id="patch_234">
    <path d="M 591.320409 218.16 
L 591.611343 218.16 
L 591.611343 217.970116 
L 591.320409 217.970116 
z
" clip-path="url(#pea2dfb6fcc)" style="fill: #ff0000"/>
   </g>
   <g id="patch_235">
    <path d="M 593.02525 218.16 
L 593.316184 218.16 
L 593.316184 213.589984 
L 593.02525 213.589984 
z
" clip-path="url(#pea2dfb6fcc)" style="fill: #ff0000"/>
   </g>
   <g id="patch_236">
    <path d="M 594.389123 218.16 
L 594.680057 218.16 
L 594.680057 191.596389 
L 594.389123 191.596389 
z
" clip-path="url(#pea2dfb6fcc)" style="fill: #ff0000"/>
   </g>
   <g id="patch_237">
    <path d="M 596.434932 218.16 
L 596.725867 218.16 
L 596.725867 198.720301 
L 596.434932 198.720301 
z
" clip-path="url(#pea2dfb6fcc)" style="fill: #ff0000"/>
   </g>
   <g id="patch_238">
    <path d="M 597.457837 218.16 
L 597.748772 218.16 
L 597.748772 200.751112 
L 597.457837 200.751112 
z
" clip-path="url(#pea2dfb6fcc)" style="fill: #ff0000"/>
   </g>
   <g id="patch_239">
    <path d="M 599.844615 218.16 
L 600.135549 218.16 
L 600.135549 216.22343 
L 599.844615 216.22343 
z
" clip-path="url(#pea2dfb6fcc)" style="fill: #ff0000"/>
   </g>
   <g id="patch_240">
    <path d="M 601.208488 218.16 
L 601.499422 218.16 
L 601.499422 154.729537 
L 601.208488 154.729537 
z
" clip-path="url(#pea2dfb6fcc)" style="fill: #ff0000"/>
   </g>
   <g id="patch_241">
    <path d="M 604.959138 218.16 
L 605.250073 218.16 
L 605.250073 217.761413 
L 604.959138 217.761413 
z
" clip-path="url(#pea2dfb6fcc)" style="fill: #ff0000"/>
   </g>
   <g id="patch_242">
    <path d="M 606.66398 218.16 
L 606.954914 218.16 
L 606.954914 191.86555 
L 606.66398 191.86555 
z
" clip-path="url(#pea2dfb6fcc)" style="fill: #ff0000"/>
   </g>
   <g id="patch_243">
    <path d="M 610.755599 218.16 
L 611.046533 218.16 
L 611.046533 217.368233 
L 610.755599 217.368233 
z
" clip-path="url(#pea2dfb6fcc)" style="fill: #ff0000"/>
   </g>
   <g id="patch_244">
    <path d="M 612.119472 218.16 
L 612.410406 218.16 
L 612.410406 206.781478 
L 612.119472 206.781478 
z
" clip-path="url(#pea2dfb6fcc)" style="fill: #ff0000"/>
   </g>
   <g id="patch_245">
    <path d="M 614.506249 218.16 
L 614.797184 218.16 
L 614.797184 216.98984 
L 614.506249 216.98984 
z
" clip-path="url(#pea2dfb6fcc)" style="fill: #ff0000"/>
   </g>
   <g id="patch_246">
    <path d="M 616.21109 218.16 
L 616.502025 218.16 
L 616.502025 185.673295 
L 616.21109 185.673295 
z
" clip-path="url(#pea2dfb6fcc)" style="fill: #ff0000"/>
   </g>
   <g id="patch_247">
    <path d="M 617.574963 218.16 
L 617.865898 218.16 
L 617.865898 208.706623 
L 617.574963 208.706623 
z
" clip-path="url(#pea2dfb6fcc)" style="fill: #ff0000"/>
   </g>
   <g id="patch_248">
    <path d="M 619.620773 218.16 
L 619.911707 218.16 
L 619.911707 216.901433 
L 619.620773 216.901433 
z
" clip-path="url(#pea2dfb6fcc)" style="fill: #ff0000"/>
   </g>
   <g id="patch_249">
    <path d="M 621.666582 218.16 
L 621.957517 218.16 
L 621.957517 157.903218 
L 621.666582 157.903218 
z
" clip-path="url(#pea2dfb6fcc)" style="fill: #ff0000"/>
   </g>
   <g id="matplotlib.axis_1">
    <g id="xtick_1">
     <g id="line2d_1">
      <defs>
       <path id="m2450c87d84" d="M 0 0 
L 0 3.5 
" style="stroke: #000000; stroke-width: 0.8"/>
      </defs>
      <g>
       <use xlink:href="#m2450c87d84" x="169.040552" y="384.48" style="stroke: #000000; stroke-width: 0.8"/>
      </g>
     </g>
     <g id="text_1">
      <!-- 4000 -->
      <g transform="translate(156.315552 399.078438) scale(0.1 -0.1)">
       <defs>
        <path id="DejaVuSans-34" d="M 2419 4116 
L 825 1625 
L 2419 1625 
L 2419 4116 
z
M 2253 4666 
L 3047 4666 
L 3047 1625 
L 3713 1625 
L 3713 1100 
L 3047 1100 
L 3047 0 
L 2419 0 
L 2419 1100 
L 313 1100 
L 313 1709 
L 2253 4666 
z
" transform="scale(0.015625)"/>
        <path id="DejaVuSans-30" d="M 2034 4250 
Q 1547 4250 1301 3770 
Q 1056 3291 1056 2328 
Q 1056 1369 1301 889 
Q 1547 409 2034 409 
Q 2525 409 2770 889 
Q 3016 1369 3016 2328 
Q 3016 3291 2770 3770 
Q 2525 4250 2034 4250 
z
M 2034 4750 
Q 2819 4750 3233 4129 
Q 3647 3509 3647 2328 
Q 3647 1150 3233 529 
Q 2819 -91 2034 -91 
Q 1250 -91 836 529 
Q 422 1150 422 2328 
Q 422 3509 836 4129 
Q 1250 4750 2034 4750 
z
" transform="scale(0.015625)"/>
       </defs>
       <use xlink:href="#DejaVuSans-34"/>
       <use xlink:href="#DejaVuSans-30" x="63.623047"/>
       <use xlink:href="#DejaVuSans-30" x="127.246094"/>
       <use xlink:href="#DejaVuSans-30" x="190.869141"/>
      </g>
     </g>
    </g>
    <g id="xtick_2">
     <g id="line2d_2">
      <g>
       <use xlink:href="#m2450c87d84" x="266.018683" y="384.48" style="stroke: #000000; stroke-width: 0.8"/>
      </g>
     </g>
     <g id="text_2">
      <!-- 5000 -->
      <g transform="translate(253.293683 399.078438) scale(0.1 -0.1)">
       <defs>
        <path id="DejaVuSans-35" d="M 691 4666 
L 3169 4666 
L 3169 4134 
L 1269 4134 
L 1269 2991 
Q 1406 3038 1543 3061 
Q 1681 3084 1819 3084 
Q 2600 3084 3056 2656 
Q 3513 2228 3513 1497 
Q 3513 744 3044 326 
Q 2575 -91 1722 -91 
Q 1428 -91 1123 -41 
Q 819 9 494 109 
L 494 744 
Q 775 591 1075 516 
Q 1375 441 1709 441 
Q 2250 441 2565 725 
Q 2881 1009 2881 1497 
Q 2881 1984 2565 2268 
Q 2250 2553 1709 2553 
Q 1456 2553 1204 2497 
Q 953 2441 691 2322 
L 691 4666 
z
" transform="scale(0.015625)"/>
       </defs>
       <use xlink:href="#DejaVuSans-35"/>
       <use xlink:href="#DejaVuSans-30" x="63.623047"/>
       <use xlink:href="#DejaVuSans-30" x="127.246094"/>
       <use xlink:href="#DejaVuSans-30" x="190.869141"/>
      </g>
     </g>
    </g>
    <g id="xtick_3">
     <g id="line2d_3">
      <g>
       <use xlink:href="#m2450c87d84" x="362.996814" y="384.48" style="stroke: #000000; stroke-width: 0.8"/>
      </g>
     </g>
     <g id="text_3">
      <!-- 6000 -->
      <g transform="translate(350.271814 399.078438) scale(0.1 -0.1)">
       <defs>
        <path id="DejaVuSans-36" d="M 2113 2584 
Q 1688 2584 1439 2293 
Q 1191 2003 1191 1497 
Q 1191 994 1439 701 
Q 1688 409 2113 409 
Q 2538 409 2786 701 
Q 3034 994 3034 1497 
Q 3034 2003 2786 2293 
Q 2538 2584 2113 2584 
z
M 3366 4563 
L 3366 3988 
Q 3128 4100 2886 4159 
Q 2644 4219 2406 4219 
Q 1781 4219 1451 3797 
Q 1122 3375 1075 2522 
Q 1259 2794 1537 2939 
Q 1816 3084 2150 3084 
Q 2853 3084 3261 2657 
Q 3669 2231 3669 1497 
Q 3669 778 3244 343 
Q 2819 -91 2113 -91 
Q 1303 -91 875 529 
Q 447 1150 447 2328 
Q 447 3434 972 4092 
Q 1497 4750 2381 4750 
Q 2619 4750 2861 4703 
Q 3103 4656 3366 4563 
z
" transform="scale(0.015625)"/>
       </defs>
       <use xlink:href="#DejaVuSans-36"/>
       <use xlink:href="#DejaVuSans-30" x="63.623047"/>
       <use xlink:href="#DejaVuSans-30" x="127.246094"/>
       <use xlink:href="#DejaVuSans-30" x="190.869141"/>
      </g>
     </g>
    </g>
    <g id="xtick_4">
     <g id="line2d_4">
      <g>
       <use xlink:href="#m2450c87d84" x="459.974945" y="384.48" style="stroke: #000000; stroke-width: 0.8"/>
      </g>
     </g>
     <g id="text_4">
      <!-- 7000 -->
      <g transform="translate(447.249945 399.078438) scale(0.1 -0.1)">
       <defs>
        <path id="DejaVuSans-37" d="M 525 4666 
L 3525 4666 
L 3525 4397 
L 1831 0 
L 1172 0 
L 2766 4134 
L 525 4134 
L 525 4666 
z
" transform="scale(0.015625)"/>
       </defs>
       <use xlink:href="#DejaVuSans-37"/>
       <use xlink:href="#DejaVuSans-30" x="63.623047"/>
       <use xlink:href="#DejaVuSans-30" x="127.246094"/>
       <use xlink:href="#DejaVuSans-30" x="190.869141"/>
      </g>
     </g>
    </g>
    <g id="xtick_5">
     <g id="line2d_5">
      <g>
       <use xlink:href="#m2450c87d84" x="556.953076" y="384.48" style="stroke: #000000; stroke-width: 0.8"/>
      </g>
     </g>
     <g id="text_5">
      <!-- 8000 -->
      <g transform="translate(544.228076 399.078438) scale(0.1 -0.1)">
       <defs>
        <path id="DejaVuSans-38" d="M 2034 2216 
Q 1584 2216 1326 1975 
Q 1069 1734 1069 1313 
Q 1069 891 1326 650 
Q 1584 409 2034 409 
Q 2484 409 2743 651 
Q 3003 894 3003 1313 
Q 3003 1734 2745 1975 
Q 2488 2216 2034 2216 
z
M 1403 2484 
Q 997 2584 770 2862 
Q 544 3141 544 3541 
Q 544 4100 942 4425 
Q 1341 4750 2034 4750 
Q 2731 4750 3128 4425 
Q 3525 4100 3525 3541 
Q 3525 3141 3298 2862 
Q 3072 2584 2669 2484 
Q 3125 2378 3379 2068 
Q 3634 1759 3634 1313 
Q 3634 634 3220 271 
Q 2806 -91 2034 -91 
Q 1263 -91 848 271 
Q 434 634 434 1313 
Q 434 1759 690 2068 
Q 947 2378 1403 2484 
z
M 1172 3481 
Q 1172 3119 1398 2916 
Q 1625 2713 2034 2713 
Q 2441 2713 2670 2916 
Q 2900 3119 2900 3481 
Q 2900 3844 2670 4047 
Q 2441 4250 2034 4250 
Q 1625 4250 1398 4047 
Q 1172 3844 1172 3481 
z
" transform="scale(0.015625)"/>
       </defs>
       <use xlink:href="#DejaVuSans-38"/>
       <use xlink:href="#DejaVuSans-30" x="63.623047"/>
       <use xlink:href="#DejaVuSans-30" x="127.246094"/>
       <use xlink:href="#DejaVuSans-30" x="190.869141"/>
      </g>
     </g>
    </g>
   </g>
   <g id="matplotlib.axis_2">
    <g id="ytick_1">
     <g id="line2d_6">
      <defs>
       <path id="m729b0f606d" d="M 0 0 
L -3.5 0 
" style="stroke: #000000; stroke-width: 0.8"/>
      </defs>
      <g>
       <use xlink:href="#m729b0f606d" x="90" y="369.36" style="stroke: #000000; stroke-width: 0.8"/>
      </g>
     </g>
     <g id="text_6">
      <!-- 1.00 -->
      <g transform="translate(52.354687 373.159219) scale(0.1 -0.1)">
       <defs>
        <path id="DejaVuSans-2212" d="M 678 2272 
L 4684 2272 
L 4684 1741 
L 678 1741 
L 678 2272 
z
" transform="scale(0.015625)"/>
        <path id="DejaVuSans-31" d="M 794 531 
L 1825 531 
L 1825 4091 
L 703 3866 
L 703 4441 
L 1819 4666 
L 2450 4666 
L 2450 531 
L 3481 531 
L 3481 0 
L 794 0 
L 794 531 
z
" transform="scale(0.015625)"/>
        <path id="DejaVuSans-2e" d="M 684 794 
L 1344 794 
L 1344 0 
L 684 0 
L 684 794 
z
" transform="scale(0.015625)"/>
       </defs>
       <use xlink:href="#DejaVuSans-2212"/>
       <use xlink:href="#DejaVuSans-31" x="83.789062"/>
       <use xlink:href="#DejaVuSans-2e" x="147.412109"/>
       <use xlink:href="#DejaVuSans-30" x="179.199219"/>
       <use xlink:href="#DejaVuSans-30" x="242.822266"/>
      </g>
     </g>
    </g>
    <g id="ytick_2">
     <g id="line2d_7">
      <g>
       <use xlink:href="#m729b0f606d" x="90" y="331.56" style="stroke: #000000; stroke-width: 0.8"/>
      </g>
     </g>
     <g id="text_7">
      <!-- 0.75 -->
      <g transform="translate(52.354687 335.359219) scale(0.1 -0.1)">
       <use xlink:href="#DejaVuSans-2212"/>
       <use xlink:href="#DejaVuSans-30" x="83.789062"/>
       <use xlink:href="#DejaVuSans-2e" x="147.412109"/>
       <use xlink:href="#DejaVuSans-37" x="179.199219"/>
       <use xlink:href="#DejaVuSans-35" x="242.822266"/>
      </g>
     </g>
    </g>
    <g id="ytick_3">
     <g id="line2d_8">
      <g>
       <use xlink:href="#m729b0f606d" x="90" y="293.76" style="stroke: #000000; stroke-width: 0.8"/>
      </g>
     </g>
     <g id="text_8">
      <!-- 0.50 -->
      <g transform="translate(52.354687 297.559219) scale(0.1 -0.1)">
       <use xlink:href="#DejaVuSans-2212"/>
       <use xlink:href="#DejaVuSans-30" x="83.789062"/>
       <use xlink:href="#DejaVuSans-2e" x="147.412109"/>
       <use xlink:href="#DejaVuSans-35" x="179.199219"/>
       <use xlink:href="#DejaVuSans-30" x="242.822266"/>
      </g>
     </g>
    </g>
    <g id="ytick_4">
     <g id="line2d_9">
      <g>
       <use xlink:href="#m729b0f606d" x="90" y="255.96" style="stroke: #000000; stroke-width: 0.8"/>
      </g>
     </g>
     <g id="text_9">
      <!-- 0.25 -->
      <g transform="translate(52.354687 259.759219) scale(0.1 -0.1)">
       <defs>
        <path id="DejaVuSans-32" d="M 1228 531 
L 3431 531 
L 3431 0 
L 469 0 
L 469 531 
Q 828 903 1448 1529 
Q 2069 2156 2228 2338 
Q 2531 2678 2651 2914 
Q 2772 3150 2772 3378 
Q 2772 3750 2511 3984 
Q 2250 4219 1831 4219 
Q 1534 4219 1204 4116 
Q 875 4013 500 3803 
L 500 4441 
Q 881 4594 1212 4672 
Q 1544 4750 1819 4750 
Q 2544 4750 2975 4387 
Q 3406 4025 3406 3419 
Q 3406 3131 3298 2873 
Q 3191 2616 2906 2266 
Q 2828 2175 2409 1742 
Q 1991 1309 1228 531 
z
" transform="scale(0.015625)"/>
       </defs>
       <use xlink:href="#DejaVuSans-2212"/>
       <use xlink:href="#DejaVuSans-30" x="83.789062"/>
       <use xlink:href="#DejaVuSans-2e" x="147.412109"/>
       <use xlink:href="#DejaVuSans-32" x="179.199219"/>
       <use xlink:href="#DejaVuSans-35" x="242.822266"/>
      </g>
     </g>
    </g>
    <g id="ytick_5">
     <g id="line2d_10">
      <g>
       <use xlink:href="#m729b0f606d" x="90" y="218.16" style="stroke: #000000; stroke-width: 0.8"/>
      </g>
     </g>
     <g id="text_10">
      <!-- 0.00 -->
      <g transform="translate(60.734375 221.959219) scale(0.1 -0.1)">
       <use xlink:href="#DejaVuSans-30"/>
       <use xlink:href="#DejaVuSans-2e" x="63.623047"/>
       <use xlink:href="#DejaVuSans-30" x="95.410156"/>
       <use xlink:href="#DejaVuSans-30" x="159.033203"/>
      </g>
     </g>
    </g>
    <g id="ytick_6">
     <g id="line2d_11">
      <g>
       <use xlink:href="#m729b0f606d" x="90" y="180.36" style="stroke: #000000; stroke-width: 0.8"/>
      </g>
     </g>
     <g id="text_11">
      <!-- 0.25 -->
      <g transform="translate(60.734375 184.159219) scale(0.1 -0.1)">
       <use xlink:href="#DejaVuSans-30"/>
       <use xlink:href="#DejaVuSans-2e" x="63.623047"/>
       <use xlink:href="#DejaVuSans-32" x="95.410156"/>
       <use xlink:href="#DejaVuSans-35" x="159.033203"/>
      </g>
     </g>
    </g>
    <g id="ytick_7">
     <g id="line2d_12">
      <g>
       <use xlink:href="#m729b0f606d" x="90" y="142.56" style="stroke: #000000; stroke-width: 0.8"/>
      </g>
     </g>
     <g id="text_12">
      <!-- 0.50 -->
      <g transform="translate(60.734375 146.359219) scale(0.1 -0.1)">
       <use xlink:href="#DejaVuSans-30"/>
       <use xlink:href="#DejaVuSans-2e" x="63.623047"/>
       <use xlink:href="#DejaVuSans-35" x="95.410156"/>
       <use xlink:href="#DejaVuSans-30" x="159.033203"/>
      </g>
     </g>
    </g>
    <g id="ytick_8">
     <g id="line2d_13">
      <g>
       <use xlink:href="#m729b0f606d" x="90" y="104.76" style="stroke: #000000; stroke-width: 0.8"/>
      </g>
     </g>
     <g id="text_13">
      <!-- 0.75 -->
      <g transform="translate(60.734375 108.559219) scale(0.1 -0.1)">
       <use xlink:href="#DejaVuSans-30"/>
       <use xlink:href="#DejaVuSans-2e" x="63.623047"/>
       <use xlink:href="#DejaVuSans-37" x="95.410156"/>
       <use xlink:href="#DejaVuSans-35" x="159.033203"/>
      </g>
     </g>
    </g>
    <g id="ytick_9">
     <g id="line2d_14">
      <g>
       <use xlink:href="#m729b0f606d" x="90" y="66.96" style="stroke: #000000; stroke-width: 0.8"/>
      </g>
     </g>
     <g id="text_14">
      <!-- 1.00 -->
      <g transform="translate(60.734375 70.759219) scale(0.1 -0.1)">
       <use xlink:href="#DejaVuSans-31"/>
       <use xlink:href="#DejaVuSans-2e" x="63.623047"/>
       <use xlink:href="#DejaVuSans-30" x="95.410156"/>
       <use xlink:href="#DejaVuSans-30" x="159.033203"/>
      </g>
     </g>
    </g>
   </g>
   <g id="patch_250">
    <path d="M 90 384.48 
L 90 51.84 
" style="fill: none; stroke: #000000; stroke-width: 0.8; stroke-linejoin: miter; stroke-linecap: square"/>
   </g>
   <g id="patch_251">
    <path d="M 648 384.48 
L 648 51.84 
" style="fill: none; stroke: #000000; stroke-width: 0.8; stroke-linejoin: miter; stroke-linecap: square"/>
   </g>
   <g id="patch_252">
    <path d="M 90 384.48 
L 648 384.48 
" style="fill: none; stroke: #000000; stroke-width: 0.8; stroke-linejoin: miter; stroke-linecap: square"/>
   </g>
   <g id="patch_253">
    <path d="M 90 51.84 
L 648 51.84 
" style="fill: none; stroke: #000000; stroke-width: 0.8; stroke-linejoin: miter; stroke-linecap: square"/>
   </g>
   <g id="legend_1">
    <g id="patch_254">
     <path d="M 97 379.48 
L 191.364062 379.48 
Q 193.364062 379.48 193.364062 377.48 
L 193.364062 334.445625 
Q 193.364062 332.445625 191.364062 332.445625 
L 97 332.445625 
Q 95 332.445625 95 334.445625 
L 95 377.48 
Q 95 379.48 97 379.48 
z
" style="fill: #ffffff; opacity: 0.8; stroke: #cccccc; stroke-linejoin: miter"/>
    </g>
    <g id="patch_255">
     <path d="M 99 344.044062 
L 119 344.044062 
L 119 337.044062 
L 99 337.044062 
z
" style="fill: #0000ff; opacity: 0.7"/>
    </g>
    <g id="text_15">
     <!-- Teorico -->
     <g transform="translate(127 344.044062) scale(0.1 -0.1)">
      <defs>
       <path id="DejaVuSans-54" d="M -19 4666 
L 3928 4666 
L 3928 4134 
L 2272 4134 
L 2272 0 
L 1638 0 
L 1638 4134 
L -19 4134 
L -19 4666 
z
" transform="scale(0.015625)"/>
       <path id="DejaVuSans-65" d="M 3597 1894 
L 3597 1613 
L 953 1613 
Q 991 1019 1311 708 
Q 1631 397 2203 397 
Q 2534 397 2845 478 
Q 3156 559 3463 722 
L 3463 178 
Q 3153 47 2828 -22 
Q 2503 -91 2169 -91 
Q 1331 -91 842 396 
Q 353 884 353 1716 
Q 353 2575 817 3079 
Q 1281 3584 2069 3584 
Q 2775 3584 3186 3129 
Q 3597 2675 3597 1894 
z
M 3022 2063 
Q 3016 2534 2758 2815 
Q 2500 3097 2075 3097 
Q 1594 3097 1305 2825 
Q 1016 2553 972 2059 
L 3022 2063 
z
" transform="scale(0.015625)"/>
       <path id="DejaVuSans-6f" d="M 1959 3097 
Q 1497 3097 1228 2736 
Q 959 2375 959 1747 
Q 959 1119 1226 758 
Q 1494 397 1959 397 
Q 2419 397 2687 759 
Q 2956 1122 2956 1747 
Q 2956 2369 2687 2733 
Q 2419 3097 1959 3097 
z
M 1959 3584 
Q 2709 3584 3137 3096 
Q 3566 2609 3566 1747 
Q 3566 888 3137 398 
Q 2709 -91 1959 -91 
Q 1206 -91 779 398 
Q 353 888 353 1747 
Q 353 2609 779 3096 
Q 1206 3584 1959 3584 
z
" transform="scale(0.015625)"/>
       <path id="DejaVuSans-72" d="M 2631 2963 
Q 2534 3019 2420 3045 
Q 2306 3072 2169 3072 
Q 1681 3072 1420 2755 
Q 1159 2438 1159 1844 
L 1159 0 
L 581 0 
L 581 3500 
L 1159 3500 
L 1159 2956 
Q 1341 3275 1631 3429 
Q 1922 3584 2338 3584 
Q 2397 3584 2469 3576 
Q 2541 3569 2628 3553 
L 2631 2963 
z
" transform="scale(0.015625)"/>
       <path id="DejaVuSans-69" d="M 603 3500 
L 1178 3500 
L 1178 0 
L 603 0 
L 603 3500 
z
M 603 4863 
L 1178 4863 
L 1178 4134 
L 603 4134 
L 603 4863 
z
" transform="scale(0.015625)"/>
       <path id="DejaVuSans-63" d="M 3122 3366 
L 3122 2828 
Q 2878 2963 2633 3030 
Q 2388 3097 2138 3097 
Q 1578 3097 1268 2742 
Q 959 2388 959 1747 
Q 959 1106 1268 751 
Q 1578 397 2138 397 
Q 2388 397 2633 464 
Q 2878 531 3122 666 
L 3122 134 
Q 2881 22 2623 -34 
Q 2366 -91 2075 -91 
Q 1284 -91 818 406 
Q 353 903 353 1747 
Q 353 2603 823 3093 
Q 1294 3584 2113 3584 
Q 2378 3584 2631 3529 
Q 2884 3475 3122 3366 
z
" transform="scale(0.015625)"/>
      </defs>
      <use xlink:href="#DejaVuSans-54"/>
      <use xlink:href="#DejaVuSans-65" x="44.083984"/>
      <use xlink:href="#DejaVuSans-6f" x="105.607422"/>
      <use xlink:href="#DejaVuSans-72" x="166.789062"/>
      <use xlink:href="#DejaVuSans-69" x="207.902344"/>
      <use xlink:href="#DejaVuSans-63" x="235.685547"/>
      <use xlink:href="#DejaVuSans-6f" x="290.666016"/>
     </g>
    </g>
    <g id="patch_256">
     <path d="M 99 358.722188 
L 119 358.722188 
L 119 351.722188 
L 99 351.722188 
z
" style="opacity: 0.7"/>
    </g>
    <g id="text_16">
     <!-- Emp Real -->
     <g transform="translate(127 358.722188) scale(0.1 -0.1)">
      <defs>
       <path id="DejaVuSans-45" d="M 628 4666 
L 3578 4666 
L 3578 4134 
L 1259 4134 
L 1259 2753 
L 3481 2753 
L 3481 2222 
L 1259 2222 
L 1259 531 
L 3634 531 
L 3634 0 
L 628 0 
L 628 4666 
z
" transform="scale(0.015625)"/>
       <path id="DejaVuSans-6d" d="M 3328 2828 
Q 3544 3216 3844 3400 
Q 4144 3584 4550 3584 
Q 5097 3584 5394 3201 
Q 5691 2819 5691 2113 
L 5691 0 
L 5113 0 
L 5113 2094 
Q 5113 2597 4934 2840 
Q 4756 3084 4391 3084 
Q 3944 3084 3684 2787 
Q 3425 2491 3425 1978 
L 3425 0 
L 2847 0 
L 2847 2094 
Q 2847 2600 2669 2842 
Q 2491 3084 2119 3084 
Q 1678 3084 1418 2786 
Q 1159 2488 1159 1978 
L 1159 0 
L 581 0 
L 581 3500 
L 1159 3500 
L 1159 2956 
Q 1356 3278 1631 3431 
Q 1906 3584 2284 3584 
Q 2666 3584 2933 3390 
Q 3200 3197 3328 2828 
z
" transform="scale(0.015625)"/>
       <path id="DejaVuSans-70" d="M 1159 525 
L 1159 -1331 
L 581 -1331 
L 581 3500 
L 1159 3500 
L 1159 2969 
Q 1341 3281 1617 3432 
Q 1894 3584 2278 3584 
Q 2916 3584 3314 3078 
Q 3713 2572 3713 1747 
Q 3713 922 3314 415 
Q 2916 -91 2278 -91 
Q 1894 -91 1617 61 
Q 1341 213 1159 525 
z
M 3116 1747 
Q 3116 2381 2855 2742 
Q 2594 3103 2138 3103 
Q 1681 3103 1420 2742 
Q 1159 2381 1159 1747 
Q 1159 1113 1420 752 
Q 1681 391 2138 391 
Q 2594 391 2855 752 
Q 3116 1113 3116 1747 
z
" transform="scale(0.015625)"/>
       <path id="DejaVuSans-20" transform="scale(0.015625)"/>
       <path id="DejaVuSans-52" d="M 2841 2188 
Q 3044 2119 3236 1894 
Q 3428 1669 3622 1275 
L 4263 0 
L 3584 0 
L 2988 1197 
Q 2756 1666 2539 1819 
Q 2322 1972 1947 1972 
L 1259 1972 
L 1259 0 
L 628 0 
L 628 4666 
L 2053 4666 
Q 2853 4666 3247 4331 
Q 3641 3997 3641 3322 
Q 3641 2881 3436 2590 
Q 3231 2300 2841 2188 
z
M 1259 4147 
L 1259 2491 
L 2053 2491 
Q 2509 2491 2742 2702 
Q 2975 2913 2975 3322 
Q 2975 3731 2742 3939 
Q 2509 4147 2053 4147 
L 1259 4147 
z
" transform="scale(0.015625)"/>
       <path id="DejaVuSans-61" d="M 2194 1759 
Q 1497 1759 1228 1600 
Q 959 1441 959 1056 
Q 959 750 1161 570 
Q 1363 391 1709 391 
Q 2188 391 2477 730 
Q 2766 1069 2766 1631 
L 2766 1759 
L 2194 1759 
z
M 3341 1997 
L 3341 0 
L 2766 0 
L 2766 531 
Q 2569 213 2275 61 
Q 1981 -91 1556 -91 
Q 1019 -91 701 211 
Q 384 513 384 1019 
Q 384 1609 779 1909 
Q 1175 2209 1959 2209 
L 2766 2209 
L 2766 2266 
Q 2766 2663 2505 2880 
Q 2244 3097 1772 3097 
Q 1472 3097 1187 3025 
Q 903 2953 641 2809 
L 641 3341 
Q 956 3463 1253 3523 
Q 1550 3584 1831 3584 
Q 2591 3584 2966 3190 
Q 3341 2797 3341 1997 
z
" transform="scale(0.015625)"/>
       <path id="DejaVuSans-6c" d="M 603 4863 
L 1178 4863 
L 1178 0 
L 603 0 
L 603 4863 
z
" transform="scale(0.015625)"/>
      </defs>
      <use xlink:href="#DejaVuSans-45"/>
      <use xlink:href="#DejaVuSans-6d" x="63.183594"/>
      <use xlink:href="#DejaVuSans-70" x="160.595703"/>
      <use xlink:href="#DejaVuSans-20" x="224.072266"/>
      <use xlink:href="#DejaVuSans-52" x="255.859375"/>
      <use xlink:href="#DejaVuSans-65" x="320.841797"/>
      <use xlink:href="#DejaVuSans-61" x="382.365234"/>
      <use xlink:href="#DejaVuSans-6c" x="443.644531"/>
     </g>
    </g>
    <g id="patch_257">
     <path d="M 99 373.400312 
L 119 373.400312 
L 119 366.400312 
L 99 366.400312 
z
" style="fill: #ff0000"/>
    </g>
    <g id="text_17">
     <!-- Emp Optimo -->
     <g transform="translate(127 373.400312) scale(0.1 -0.1)">
      <defs>
       <path id="DejaVuSans-4f" d="M 2522 4238 
Q 1834 4238 1429 3725 
Q 1025 3213 1025 2328 
Q 1025 1447 1429 934 
Q 1834 422 2522 422 
Q 3209 422 3611 934 
Q 4013 1447 4013 2328 
Q 4013 3213 3611 3725 
Q 3209 4238 2522 4238 
z
M 2522 4750 
Q 3503 4750 4090 4092 
Q 4678 3434 4678 2328 
Q 4678 1225 4090 567 
Q 3503 -91 2522 -91 
Q 1538 -91 948 565 
Q 359 1222 359 2328 
Q 359 3434 948 4092 
Q 1538 4750 2522 4750 
z
" transform="scale(0.015625)"/>
       <path id="DejaVuSans-74" d="M 1172 4494 
L 1172 3500 
L 2356 3500 
L 2356 3053 
L 1172 3053 
L 1172 1153 
Q 1172 725 1289 603 
Q 1406 481 1766 481 
L 2356 481 
L 2356 0 
L 1766 0 
Q 1100 0 847 248 
Q 594 497 594 1153 
L 594 3053 
L 172 3053 
L 172 3500 
L 594 3500 
L 594 4494 
L 1172 4494 
z
" transform="scale(0.015625)"/>
      </defs>
      <use xlink:href="#DejaVuSans-45"/>
      <use xlink:href="#DejaVuSans-6d" x="63.183594"/>
      <use xlink:href="#DejaVuSans-70" x="160.595703"/>
      <use xlink:href="#DejaVuSans-20" x="224.072266"/>
      <use xlink:href="#DejaVuSans-4f" x="255.859375"/>
      <use xlink:href="#DejaVuSans-70" x="334.570312"/>
      <use xlink:href="#DejaVuSans-74" x="398.046875"/>
      <use xlink:href="#DejaVuSans-69" x="437.255859"/>
      <use xlink:href="#DejaVuSans-6d" x="465.039062"/>
      <use xlink:href="#DejaVuSans-6f" x="562.451172"/>
     </g>
    </g>
   </g>
  </g>
 </g>
 <defs>
  <clipPath id="pea2dfb6fcc">
   <rect x="90" y="51.84" width="558" height="332.64"/>
  </clipPath>
 </defs>
</svg>
