<?xml version="1.0" encoding="utf-8" standalone="no"?>
<!DOCTYPE svg PUBLIC "-//W3C//DTD SVG 1.1//EN"
  "http://www.w3.org/Graphics/SVG/1.1/DTD/svg11.dtd">
<svg xmlns:xlink="http://www.w3.org/1999/xlink" width="720pt" height="432pt" viewBox="0 0 720 432" xmlns="http://www.w3.org/2000/svg" version="1.1">
 <metadata>
  <rdf:RDF xmlns:dc="http://purl.org/dc/elements/1.1/" xmlns:cc="http://creativecommons.org/ns#" xmlns:rdf="http://www.w3.org/1999/02/22-rdf-syntax-ns#">
   <cc:Work>
    <dc:type rdf:resource="http://purl.org/dc/dcmitype/StillImage"/>
    <dc:date>2024-03-26T22:09:17.061166</dc:date>
    <dc:format>image/svg+xml</dc:format>
    <dc:creator>
     <cc:Agent>
      <dc:title>Matplotlib v3.7.5, https://matplotlib.org/</dc:title>
     </cc:Agent>
    </dc:creator>
   </cc:Work>
  </rdf:RDF>
 </metadata>
 <defs>
  <style type="text/css">*{stroke-linejoin: round; stroke-linecap: butt}</style>
 </defs>
 <g id="figure_1">
  <g id="patch_1">
   <path d="M 0 432 
L 720 432 
L 720 0 
L 0 0 
z
" style="fill: #ffffff"/>
  </g>
  <g id="axes_1">
   <g id="patch_2">
    <path d="M 90 384.48 
L 648 384.48 
L 648 51.84 
L 90 51.84 
z
" style="fill: #ffffff"/>
   </g>
   <g id="patch_3">
    <path d="M 115.363636 351.435059 
L 118.04379 351.435059 
L 118.04379 351.572598 
L 115.363636 351.572598 
z
" clip-path="url(#pe05170b5f5)" style="fill: #0000ff; opacity: 0.7"/>
   </g>
   <g id="patch_4">
    <path d="M 138.037738 351.435059 
L 140.717892 351.435059 
L 140.717892 351.557535 
L 138.037738 351.557535 
z
" clip-path="url(#pe05170b5f5)" style="fill: #0000ff; opacity: 0.7"/>
   </g>
   <g id="patch_5">
    <path d="M 155.056716 351.435059 
L 157.736869 351.435059 
L 157.736869 352.081332 
L 155.056716 352.081332 
z
" clip-path="url(#pe05170b5f5)" style="fill: #0000ff; opacity: 0.7"/>
   </g>
   <g id="patch_6">
    <path d="M 165.884537 351.435059 
L 168.564691 351.435059 
L 168.564691 352.226224 
L 165.884537 352.226224 
z
" clip-path="url(#pe05170b5f5)" style="fill: #0000ff; opacity: 0.7"/>
   </g>
   <g id="patch_7">
    <path d="M 172.584922 351.435059 
L 175.265076 351.435059 
L 175.265076 351.984857 
L 172.584922 351.984857 
z
" clip-path="url(#pe05170b5f5)" style="fill: #0000ff; opacity: 0.7"/>
   </g>
   <g id="patch_8">
    <path d="M 191.640816 351.435059 
L 194.32097 351.435059 
L 194.32097 353.482189 
L 191.640816 353.482189 
z
" clip-path="url(#pe05170b5f5)" style="fill: #0000ff; opacity: 0.7"/>
   </g>
   <g id="patch_9">
    <path d="M 204.023127 351.435059 
L 206.703281 351.435059 
L 206.703281 352.688872 
L 204.023127 352.688872 
z
" clip-path="url(#pe05170b5f5)" style="fill: #0000ff; opacity: 0.7"/>
   </g>
   <g id="patch_10">
    <path d="M 224.124281 351.435059 
L 226.804435 351.435059 
L 226.804435 353.514825 
L 224.124281 353.514825 
z
" clip-path="url(#pe05170b5f5)" style="fill: #0000ff; opacity: 0.7"/>
   </g>
   <g id="patch_11">
    <path d="M 241.143259 351.435059 
L 243.823412 351.435059 
L 243.823412 351.72373 
L 241.143259 351.72373 
z
" clip-path="url(#pe05170b5f5)" style="fill: #0000ff; opacity: 0.7"/>
   </g>
   <g id="patch_12">
    <path d="M 254.544028 351.435059 
L 257.224182 351.435059 
L 257.224182 355.616828 
L 254.544028 355.616828 
z
" clip-path="url(#pe05170b5f5)" style="fill: #0000ff; opacity: 0.7"/>
   </g>
   <g id="patch_13">
    <path d="M 273.090693 351.435059 
L 275.770847 351.435059 
L 275.770847 362.39158 
L 273.090693 362.39158 
z
" clip-path="url(#pe05170b5f5)" style="fill: #0000ff; opacity: 0.7"/>
   </g>
   <g id="patch_14">
    <path d="M 283.382484 351.435059 
L 286.062638 351.435059 
L 286.062638 352.146246 
L 283.382484 352.146246 
z
" clip-path="url(#pe05170b5f5)" style="fill: #0000ff; opacity: 0.7"/>
   </g>
   <g id="patch_15">
    <path d="M 293.191847 351.435059 
L 295.872001 351.435059 
L 295.872001 352.744103 
L 293.191847 352.744103 
z
" clip-path="url(#pe05170b5f5)" style="fill: #0000ff; opacity: 0.7"/>
   </g>
   <g id="patch_16">
    <path d="M 309.674794 351.435059 
L 312.354947 351.435059 
L 312.354947 359.615689 
L 309.674794 359.615689 
z
" clip-path="url(#pe05170b5f5)" style="fill: #0000ff; opacity: 0.7"/>
   </g>
   <g id="patch_17">
    <path d="M 322.566334 351.435059 
L 325.246488 351.435059 
L 325.246488 351.756366 
L 322.566334 351.756366 
z
" clip-path="url(#pe05170b5f5)" style="fill: #0000ff; opacity: 0.7"/>
   </g>
   <g id="patch_18">
    <path d="M 345.240436 351.435059 
L 347.92059 351.435059 
L 347.92059 358.417824 
L 345.240436 358.417824 
z
" clip-path="url(#pe05170b5f5)" style="fill: #0000ff; opacity: 0.7"/>
   </g>
   <g id="patch_19">
    <path d="M 356.577487 351.435059 
L 359.257641 351.435059 
L 359.257641 360.085511 
L 356.577487 360.085511 
z
" clip-path="url(#pe05170b5f5)" style="fill: #0000ff; opacity: 0.7"/>
   </g>
   <g id="patch_20">
    <path d="M 372.551204 351.435059 
L 375.231358 351.435059 
L 375.231358 354.734926 
L 372.551204 354.734926 
z
" clip-path="url(#pe05170b5f5)" style="fill: #0000ff; opacity: 0.7"/>
   </g>
   <g id="patch_21">
    <path d="M 394.206847 351.435059 
L 396.887001 351.435059 
L 396.887001 356.832625 
L 394.206847 356.832625 
z
" clip-path="url(#pe05170b5f5)" style="fill: #0000ff; opacity: 0.7"/>
   </g>
   <g id="patch_22">
    <path d="M 406.589158 351.435059 
L 409.269312 351.435059 
L 409.269312 354.54377 
L 406.589158 354.54377 
z
" clip-path="url(#pe05170b5f5)" style="fill: #0000ff; opacity: 0.7"/>
   </g>
   <g id="patch_23">
    <path d="M 417.390179 351.435059 
L 420.070332 351.435059 
L 420.070332 354.186562 
L 417.390179 354.186562 
z
" clip-path="url(#pe05170b5f5)" style="fill: #0000ff; opacity: 0.7"/>
   </g>
   <g id="patch_24">
    <path d="M 429.26326 351.435059 
L 431.943414 351.435059 
L 431.943414 369.36 
L 429.26326 369.36 
z
" clip-path="url(#pe05170b5f5)" style="fill: #0000ff; opacity: 0.7"/>
   </g>
   <g id="patch_25">
    <path d="M 449.364414 351.435059 
L 452.044568 351.435059 
L 452.044568 351.887665 
L 449.364414 351.887665 
z
" clip-path="url(#pe05170b5f5)" style="fill: #0000ff; opacity: 0.7"/>
   </g>
   <g id="patch_26">
    <path d="M 460.701465 351.435059 
L 463.381619 351.435059 
L 463.381619 352.074877 
L 460.701465 352.074877 
z
" clip-path="url(#pe05170b5f5)" style="fill: #0000ff; opacity: 0.7"/>
   </g>
   <g id="patch_27">
    <path d="M 479.24813 351.435059 
L 481.928284 351.435059 
L 481.928284 351.866505 
L 479.24813 351.866505 
z
" clip-path="url(#pe05170b5f5)" style="fill: #0000ff; opacity: 0.7"/>
   </g>
   <g id="patch_28">
    <path d="M 496.267108 351.435059 
L 498.947261 351.435059 
L 498.947261 353.528095 
L 496.267108 353.528095 
z
" clip-path="url(#pe05170b5f5)" style="fill: #0000ff; opacity: 0.7"/>
   </g>
   <g id="patch_29">
    <path d="M 508.622617 351.435059 
L 511.302771 351.435059 
L 511.302771 353.251223 
L 508.622617 353.251223 
z
" clip-path="url(#pe05170b5f5)" style="fill: #0000ff; opacity: 0.7"/>
   </g>
   <g id="patch_30">
    <path d="M 518.94121 351.435059 
L 521.621363 351.435059 
L 521.621363 353.262341 
L 518.94121 353.262341 
z
" clip-path="url(#pe05170b5f5)" style="fill: #0000ff; opacity: 0.7"/>
   </g>
   <g id="patch_31">
    <path d="M 539.042364 351.435059 
L 541.722518 351.435059 
L 541.722518 354.788005 
L 539.042364 354.788005 
z
" clip-path="url(#pe05170b5f5)" style="fill: #0000ff; opacity: 0.7"/>
   </g>
   <g id="patch_32">
    <path d="M 549.870185 351.435059 
L 552.550339 351.435059 
L 552.550339 355.616828 
L 549.870185 355.616828 
z
" clip-path="url(#pe05170b5f5)" style="fill: #0000ff; opacity: 0.7"/>
   </g>
   <g id="patch_33">
    <path d="M 575.117235 351.435059 
L 577.797389 351.435059 
L 577.797389 354.753576 
L 575.117235 354.753576 
z
" clip-path="url(#pe05170b5f5)" style="fill: #0000ff; opacity: 0.7"/>
   </g>
   <g id="patch_34">
    <path d="M 585.945057 351.435059 
L 588.625211 351.435059 
L 588.625211 352.892222 
L 585.945057 352.892222 
z
" clip-path="url(#pe05170b5f5)" style="fill: #0000ff; opacity: 0.7"/>
   </g>
   <g id="patch_35">
    <path d="M 619.95621 351.435059 
L 622.636364 351.435059 
L 622.636364 354.014414 
L 619.95621 354.014414 
z
" clip-path="url(#pe05170b5f5)" style="fill: #0000ff; opacity: 0.7"/>
   </g>
   <g id="patch_36">
    <path d="M 154.119986 351.435059 
L 154.656017 351.435059 
L 154.656017 347.309075 
L 154.119986 347.309075 
z
" clip-path="url(#pe05170b5f5)" style="opacity: 0.7"/>
   </g>
   <g id="patch_37">
    <path d="M 159.016049 351.435059 
L 159.55208 351.435059 
L 159.55208 344.885062 
L 159.016049 344.885062 
z
" clip-path="url(#pe05170b5f5)" style="opacity: 0.7"/>
   </g>
   <g id="patch_38">
    <path d="M 161.813799 351.435059 
L 162.349829 351.435059 
L 162.349829 344.465406 
L 161.813799 344.465406 
z
" clip-path="url(#pe05170b5f5)" style="opacity: 0.7"/>
   </g>
   <g id="patch_39">
    <path d="M 166.010424 351.435059 
L 166.546454 351.435059 
L 166.546454 331.590621 
L 166.010424 331.590621 
z
" clip-path="url(#pe05170b5f5)" style="opacity: 0.7"/>
   </g>
   <g id="patch_40">
    <path d="M 172.305361 351.435059 
L 172.841392 351.435059 
L 172.841392 340.081271 
L 172.305361 340.081271 
z
" clip-path="url(#pe05170b5f5)" style="opacity: 0.7"/>
   </g>
   <g id="patch_41">
    <path d="M 173.704236 351.435059 
L 174.240267 351.435059 
L 174.240267 340.242745 
L 173.704236 340.242745 
z
" clip-path="url(#pe05170b5f5)" style="opacity: 0.7"/>
   </g>
   <g id="patch_42">
    <path d="M 180.698611 351.435059 
L 181.234641 351.435059 
L 181.234641 324.431651 
L 180.698611 324.431651 
z
" clip-path="url(#pe05170b5f5)" style="opacity: 0.7"/>
   </g>
   <g id="patch_43">
    <path d="M 184.195798 351.435059 
L 184.731829 351.435059 
L 184.731829 314.237363 
L 184.195798 314.237363 
z
" clip-path="url(#pe05170b5f5)" style="opacity: 0.7"/>
   </g>
   <g id="patch_44">
    <path d="M 189.09186 351.435059 
L 189.627891 351.435059 
L 189.627891 328.954222 
L 189.09186 328.954222 
z
" clip-path="url(#pe05170b5f5)" style="opacity: 0.7"/>
   </g>
   <g id="patch_45">
    <path d="M 191.88961 351.435059 
L 192.425641 351.435059 
L 192.425641 328.814394 
L 191.88961 328.814394 
z
" clip-path="url(#pe05170b5f5)" style="opacity: 0.7"/>
   </g>
   <g id="patch_46">
    <path d="M 196.785673 351.435059 
L 197.321703 351.435059 
L 197.321703 342.876192 
L 196.785673 342.876192 
z
" clip-path="url(#pe05170b5f5)" style="opacity: 0.7"/>
   </g>
   <g id="patch_47">
    <path d="M 198.883985 351.435059 
L 199.420016 351.435059 
L 199.420016 344.949476 
L 198.883985 344.949476 
z
" clip-path="url(#pe05170b5f5)" style="opacity: 0.7"/>
   </g>
   <g id="patch_48">
    <path d="M 204.479485 351.435059 
L 205.015516 351.435059 
L 205.015516 344.913293 
L 204.479485 344.913293 
z
" clip-path="url(#pe05170b5f5)" style="opacity: 0.7"/>
   </g>
   <g id="patch_49">
    <path d="M 210.074985 351.435059 
L 210.611016 351.435059 
L 210.611016 347.256978 
L 210.074985 347.256978 
z
" clip-path="url(#pe05170b5f5)" style="opacity: 0.7"/>
   </g>
   <g id="patch_50">
    <path d="M 214.27161 351.435059 
L 214.80764 351.435059 
L 214.80764 348.671687 
L 214.27161 348.671687 
z
" clip-path="url(#pe05170b5f5)" style="opacity: 0.7"/>
   </g>
   <g id="patch_51">
    <path d="M 216.369922 351.435059 
L 216.905953 351.435059 
L 216.905953 348.452945 
L 216.369922 348.452945 
z
" clip-path="url(#pe05170b5f5)" style="opacity: 0.7"/>
   </g>
   <g id="patch_52">
    <path d="M 219.867109 351.435059 
L 220.40314 351.435059 
L 220.40314 350.030991 
L 219.867109 350.030991 
z
" clip-path="url(#pe05170b5f5)" style="opacity: 0.7"/>
   </g>
   <g id="patch_53">
    <path d="M 223.364297 351.435059 
L 223.900328 351.435059 
L 223.900328 348.622704 
L 223.364297 348.622704 
z
" clip-path="url(#pe05170b5f5)" style="opacity: 0.7"/>
   </g>
   <g id="patch_54">
    <path d="M 226.861484 351.435059 
L 227.397515 351.435059 
L 227.397515 343.102517 
L 226.861484 343.102517 
z
" clip-path="url(#pe05170b5f5)" style="opacity: 0.7"/>
   </g>
   <g id="patch_55">
    <path d="M 229.659234 351.435059 
L 230.195265 351.435059 
L 230.195265 326.662883 
L 229.659234 326.662883 
z
" clip-path="url(#pe05170b5f5)" style="opacity: 0.7"/>
   </g>
   <g id="patch_56">
    <path d="M 236.653609 351.435059 
L 237.18964 351.435059 
L 237.18964 348.586263 
L 236.653609 348.586263 
z
" clip-path="url(#pe05170b5f5)" style="opacity: 0.7"/>
   </g>
   <g id="patch_57">
    <path d="M 239.451359 351.435059 
L 239.98739 351.435059 
L 239.98739 339.124427 
L 239.451359 339.124427 
z
" clip-path="url(#pe05170b5f5)" style="opacity: 0.7"/>
   </g>
   <g id="patch_58">
    <path d="M 243.647984 351.435059 
L 244.184015 351.435059 
L 244.184015 342.620308 
L 243.647984 342.620308 
z
" clip-path="url(#pe05170b5f5)" style="opacity: 0.7"/>
   </g>
   <g id="patch_59">
    <path d="M 249.942921 351.435059 
L 250.478952 351.435059 
L 250.478952 345.66494 
L 249.942921 345.66494 
z
" clip-path="url(#pe05170b5f5)" style="opacity: 0.7"/>
   </g>
   <g id="patch_60">
    <path d="M 254.139546 351.435059 
L 254.675577 351.435059 
L 254.675577 343.969919 
L 254.139546 343.969919 
z
" clip-path="url(#pe05170b5f5)" style="opacity: 0.7"/>
   </g>
   <g id="patch_61">
    <path d="M 258.336171 351.435059 
L 258.872202 351.435059 
L 258.872202 344.767485 
L 258.336171 344.767485 
z
" clip-path="url(#pe05170b5f5)" style="opacity: 0.7"/>
   </g>
   <g id="patch_62">
    <path d="M 262.532796 351.435059 
L 263.068826 351.435059 
L 263.068826 328.926175 
L 262.532796 328.926175 
z
" clip-path="url(#pe05170b5f5)" style="opacity: 0.7"/>
   </g>
   <g id="patch_63">
    <path d="M 267.428858 351.435059 
L 267.964889 351.435059 
L 267.964889 335.931218 
L 267.428858 335.931218 
z
" clip-path="url(#pe05170b5f5)" style="opacity: 0.7"/>
   </g>
   <g id="patch_64">
    <path d="M 272.32492 351.435059 
L 272.860951 351.435059 
L 272.860951 66.96 
L 272.32492 66.96 
z
" clip-path="url(#pe05170b5f5)" style="opacity: 0.7"/>
   </g>
   <g id="patch_65">
    <path d="M 279.319295 351.435059 
L 279.855326 351.435059 
L 279.855326 347.501433 
L 279.319295 347.501433 
z
" clip-path="url(#pe05170b5f5)" style="opacity: 0.7"/>
   </g>
   <g id="patch_66">
    <path d="M 283.51592 351.435059 
L 284.051951 351.435059 
L 284.051951 330.072362 
L 283.51592 330.072362 
z
" clip-path="url(#pe05170b5f5)" style="opacity: 0.7"/>
   </g>
   <g id="patch_67">
    <path d="M 288.411982 351.435059 
L 288.948013 351.435059 
L 288.948013 294.238411 
L 288.411982 294.238411 
z
" clip-path="url(#pe05170b5f5)" style="opacity: 0.7"/>
   </g>
   <g id="patch_68">
    <path d="M 293.308045 351.435059 
L 293.844076 351.435059 
L 293.844076 324.326503 
L 293.308045 324.326503 
z
" clip-path="url(#pe05170b5f5)" style="opacity: 0.7"/>
   </g>
   <g id="patch_69">
    <path d="M 296.105795 351.435059 
L 296.641825 351.435059 
L 296.641825 345.081548 
L 296.105795 345.081548 
z
" clip-path="url(#pe05170b5f5)" style="opacity: 0.7"/>
   </g>
   <g id="patch_70">
    <path d="M 301.001857 351.435059 
L 301.537888 351.435059 
L 301.537888 347.01726 
L 301.001857 347.01726 
z
" clip-path="url(#pe05170b5f5)" style="opacity: 0.7"/>
   </g>
   <g id="patch_71">
    <path d="M 305.897919 351.435059 
L 306.43395 351.435059 
L 306.43395 344.133899 
L 305.897919 344.133899 
z
" clip-path="url(#pe05170b5f5)" style="opacity: 0.7"/>
   </g>
   <g id="patch_72">
    <path d="M 309.395107 351.435059 
L 309.931138 351.435059 
L 309.931138 321.434931 
L 309.395107 321.434931 
z
" clip-path="url(#pe05170b5f5)" style="opacity: 0.7"/>
   </g>
   <g id="patch_73">
    <path d="M 314.291169 351.435059 
L 314.8272 351.435059 
L 314.8272 284.233032 
L 314.291169 284.233032 
z
" clip-path="url(#pe05170b5f5)" style="opacity: 0.7"/>
   </g>
   <g id="patch_74">
    <path d="M 321.984981 351.435059 
L 322.521012 351.435059 
L 322.521012 321.488024 
L 321.984981 321.488024 
z
" clip-path="url(#pe05170b5f5)" style="opacity: 0.7"/>
   </g>
   <g id="patch_75">
    <path d="M 330.378231 351.435059 
L 330.914262 351.435059 
L 330.914262 336.617802 
L 330.378231 336.617802 
z
" clip-path="url(#pe05170b5f5)" style="opacity: 0.7"/>
   </g>
   <g id="patch_76">
    <path d="M 335.274294 351.435059 
L 335.810324 351.435059 
L 335.810324 342.084573 
L 335.274294 342.084573 
z
" clip-path="url(#pe05170b5f5)" style="opacity: 0.7"/>
   </g>
   <g id="patch_77">
    <path d="M 338.072043 351.435059 
L 338.608074 351.435059 
L 338.608074 330.84467 
L 338.072043 330.84467 
z
" clip-path="url(#pe05170b5f5)" style="opacity: 0.7"/>
   </g>
   <g id="patch_78">
    <path d="M 340.869793 351.435059 
L 341.405824 351.435059 
L 341.405824 341.001599 
L 340.869793 341.001599 
z
" clip-path="url(#pe05170b5f5)" style="opacity: 0.7"/>
   </g>
   <g id="patch_79">
    <path d="M 345.066418 351.435059 
L 345.602449 351.435059 
L 345.602449 272.047014 
L 345.066418 272.047014 
z
" clip-path="url(#pe05170b5f5)" style="opacity: 0.7"/>
   </g>
   <g id="patch_80">
    <path d="M 351.361356 351.435059 
L 351.897386 351.435059 
L 351.897386 300.70858 
L 351.361356 300.70858 
z
" clip-path="url(#pe05170b5f5)" style="opacity: 0.7"/>
   </g>
   <g id="patch_81">
    <path d="M 353.459668 351.435059 
L 353.995699 351.435059 
L 353.995699 264.553447 
L 353.459668 264.553447 
z
" clip-path="url(#pe05170b5f5)" style="opacity: 0.7"/>
   </g>
   <g id="patch_82">
    <path d="M 356.257418 351.435059 
L 356.793449 351.435059 
L 356.793449 159.874815 
L 356.257418 159.874815 
z
" clip-path="url(#pe05170b5f5)" style="opacity: 0.7"/>
   </g>
   <g id="patch_83">
    <path d="M 363.251793 351.435059 
L 363.787823 351.435059 
L 363.787823 335.960392 
L 363.251793 335.960392 
z
" clip-path="url(#pe05170b5f5)" style="opacity: 0.7"/>
   </g>
   <g id="patch_84">
    <path d="M 366.049543 351.435059 
L 366.585573 351.435059 
L 366.585573 339.241862 
L 366.049543 339.241862 
z
" clip-path="url(#pe05170b5f5)" style="opacity: 0.7"/>
   </g>
   <g id="patch_85">
    <path d="M 371.645042 351.435059 
L 372.181073 351.435059 
L 372.181073 212.673593 
L 371.645042 212.673593 
z
" clip-path="url(#pe05170b5f5)" style="opacity: 0.7"/>
   </g>
   <g id="patch_86">
    <path d="M 376.541105 351.435059 
L 377.077136 351.435059 
L 377.077136 292.7592 
L 376.541105 292.7592 
z
" clip-path="url(#pe05170b5f5)" style="opacity: 0.7"/>
   </g>
   <g id="patch_87">
    <path d="M 382.836042 351.435059 
L 383.372073 351.435059 
L 383.372073 311.839606 
L 382.836042 311.839606 
z
" clip-path="url(#pe05170b5f5)" style="opacity: 0.7"/>
   </g>
   <g id="patch_88">
    <path d="M 391.928729 351.435059 
L 392.46476 351.435059 
L 392.46476 211.319374 
L 391.928729 211.319374 
z
" clip-path="url(#pe05170b5f5)" style="opacity: 0.7"/>
   </g>
   <g id="patch_89">
    <path d="M 395.425917 351.435059 
L 395.961948 351.435059 
L 395.961948 267.22493 
L 395.425917 267.22493 
z
" clip-path="url(#pe05170b5f5)" style="opacity: 0.7"/>
   </g>
   <g id="patch_90">
    <path d="M 401.720854 351.435059 
L 402.256885 351.435059 
L 402.256885 314.351778 
L 401.720854 314.351778 
z
" clip-path="url(#pe05170b5f5)" style="opacity: 0.7"/>
   </g>
   <g id="patch_91">
    <path d="M 403.819166 351.435059 
L 404.355197 351.435059 
L 404.355197 310.309714 
L 403.819166 310.309714 
z
" clip-path="url(#pe05170b5f5)" style="opacity: 0.7"/>
   </g>
   <g id="patch_92">
    <path d="M 406.616916 351.435059 
L 407.152947 351.435059 
L 407.152947 322.409487 
L 406.616916 322.409487 
z
" clip-path="url(#pe05170b5f5)" style="opacity: 0.7"/>
   </g>
   <g id="patch_93">
    <path d="M 410.114104 351.435059 
L 410.650135 351.435059 
L 410.650135 321.837586 
L 410.114104 321.837586 
z
" clip-path="url(#pe05170b5f5)" style="opacity: 0.7"/>
   </g>
   <g id="patch_94">
    <path d="M 417.108479 351.435059 
L 417.644509 351.435059 
L 417.644509 291.784178 
L 417.108479 291.784178 
z
" clip-path="url(#pe05170b5f5)" style="opacity: 0.7"/>
   </g>
   <g id="patch_95">
    <path d="M 422.703978 351.435059 
L 423.240009 351.435059 
L 423.240009 341.224804 
L 422.703978 341.224804 
z
" clip-path="url(#pe05170b5f5)" style="opacity: 0.7"/>
   </g>
   <g id="patch_96">
    <path d="M 428.998916 351.435059 
L 429.534946 351.435059 
L 429.534946 106.880559 
L 428.998916 106.880559 
z
" clip-path="url(#pe05170b5f5)" style="opacity: 0.7"/>
   </g>
   <g id="patch_97">
    <path d="M 431.796666 351.435059 
L 432.332696 351.435059 
L 432.332696 325.955338 
L 431.796666 325.955338 
z
" clip-path="url(#pe05170b5f5)" style="opacity: 0.7"/>
   </g>
   <g id="patch_98">
    <path d="M 439.490478 351.435059 
L 440.026509 351.435059 
L 440.026509 310.322715 
L 439.490478 310.322715 
z
" clip-path="url(#pe05170b5f5)" style="opacity: 0.7"/>
   </g>
   <g id="patch_99">
    <path d="M 442.288228 351.435059 
L 442.824259 351.435059 
L 442.824259 342.899622 
L 442.288228 342.899622 
z
" clip-path="url(#pe05170b5f5)" style="opacity: 0.7"/>
   </g>
   <g id="patch_100">
    <path d="M 445.085978 351.435059 
L 445.622009 351.435059 
L 445.622009 347.389721 
L 445.085978 347.389721 
z
" clip-path="url(#pe05170b5f5)" style="opacity: 0.7"/>
   </g>
   <g id="patch_101">
    <path d="M 448.583165 351.435059 
L 449.119196 351.435059 
L 449.119196 256.290076 
L 448.583165 256.290076 
z
" clip-path="url(#pe05170b5f5)" style="opacity: 0.7"/>
   </g>
   <g id="patch_102">
    <path d="M 453.479227 351.435059 
L 454.015258 351.435059 
L 454.015258 348.062444 
L 453.479227 348.062444 
z
" clip-path="url(#pe05170b5f5)" style="opacity: 0.7"/>
   </g>
   <g id="patch_103">
    <path d="M 457.675852 351.435059 
L 458.211883 351.435059 
L 458.211883 294.265825 
L 457.675852 294.265825 
z
" clip-path="url(#pe05170b5f5)" style="opacity: 0.7"/>
   </g>
   <g id="patch_104">
    <path d="M 460.473602 351.435059 
L 461.009633 351.435059 
L 461.009633 317.577988 
L 460.473602 317.577988 
z
" clip-path="url(#pe05170b5f5)" style="opacity: 0.7"/>
   </g>
   <g id="patch_105">
    <path d="M 466.069102 351.435059 
L 466.605133 351.435059 
L 466.605133 305.939317 
L 466.069102 305.939317 
z
" clip-path="url(#pe05170b5f5)" style="opacity: 0.7"/>
   </g>
   <g id="patch_106">
    <path d="M 470.965164 351.435059 
L 471.501195 351.435059 
L 471.501195 346.892717 
L 470.965164 346.892717 
z
" clip-path="url(#pe05170b5f5)" style="opacity: 0.7"/>
   </g>
   <g id="patch_107">
    <path d="M 473.063477 351.435059 
L 473.599508 351.435059 
L 473.599508 347.483763 
L 473.063477 347.483763 
z
" clip-path="url(#pe05170b5f5)" style="opacity: 0.7"/>
   </g>
   <g id="patch_108">
    <path d="M 478.658977 351.435059 
L 479.195008 351.435059 
L 479.195008 299.886509 
L 478.658977 299.886509 
z
" clip-path="url(#pe05170b5f5)" style="opacity: 0.7"/>
   </g>
   <g id="patch_109">
    <path d="M 485.653352 351.435059 
L 486.189382 351.435059 
L 486.189382 351.041316 
L 485.653352 351.041316 
z
" clip-path="url(#pe05170b5f5)" style="opacity: 0.7"/>
   </g>
   <g id="patch_110">
    <path d="M 487.052226 351.435059 
L 487.588257 351.435059 
L 487.588257 351.077801 
L 487.052226 351.077801 
z
" clip-path="url(#pe05170b5f5)" style="opacity: 0.7"/>
   </g>
   <g id="patch_111">
    <path d="M 490.549414 351.435059 
L 491.085445 351.435059 
L 491.085445 342.836808 
L 490.549414 342.836808 
z
" clip-path="url(#pe05170b5f5)" style="opacity: 0.7"/>
   </g>
   <g id="patch_112">
    <path d="M 493.347164 351.435059 
L 493.883195 351.435059 
L 493.883195 301.456985 
L 493.347164 301.456985 
z
" clip-path="url(#pe05170b5f5)" style="opacity: 0.7"/>
   </g>
   <g id="patch_113">
    <path d="M 497.543789 351.435059 
L 498.079819 351.435059 
L 498.079819 314.86026 
L 497.543789 314.86026 
z
" clip-path="url(#pe05170b5f5)" style="opacity: 0.7"/>
   </g>
   <g id="patch_114">
    <path d="M 499.642101 351.435059 
L 500.178132 351.435059 
L 500.178132 318.681127 
L 499.642101 318.681127 
z
" clip-path="url(#pe05170b5f5)" style="opacity: 0.7"/>
   </g>
   <g id="patch_115">
    <path d="M 504.538163 351.435059 
L 505.074194 351.435059 
L 505.074194 347.791502 
L 504.538163 347.791502 
z
" clip-path="url(#pe05170b5f5)" style="opacity: 0.7"/>
   </g>
   <g id="patch_116">
    <path d="M 507.335913 351.435059 
L 507.871944 351.435059 
L 507.871944 232.093891 
L 507.335913 232.093891 
z
" clip-path="url(#pe05170b5f5)" style="opacity: 0.7"/>
   </g>
   <g id="patch_117">
    <path d="M 515.029726 351.435059 
L 515.565756 351.435059 
L 515.565756 350.685138 
L 515.029726 350.685138 
z
" clip-path="url(#pe05170b5f5)" style="opacity: 0.7"/>
   </g>
   <g id="patch_118">
    <path d="M 518.526913 351.435059 
L 519.062944 351.435059 
L 519.062944 301.963398 
L 518.526913 301.963398 
z
" clip-path="url(#pe05170b5f5)" style="opacity: 0.7"/>
   </g>
   <g id="patch_119">
    <path d="M 526.920163 351.435059 
L 527.456194 351.435059 
L 527.456194 349.94539 
L 526.920163 349.94539 
z
" clip-path="url(#pe05170b5f5)" style="opacity: 0.7"/>
   </g>
   <g id="patch_120">
    <path d="M 529.717913 351.435059 
L 530.253943 351.435059 
L 530.253943 330.026952 
L 529.717913 330.026952 
z
" clip-path="url(#pe05170b5f5)" style="opacity: 0.7"/>
   </g>
   <g id="patch_121">
    <path d="M 534.613975 351.435059 
L 535.150006 351.435059 
L 535.150006 349.233462 
L 534.613975 349.233462 
z
" clip-path="url(#pe05170b5f5)" style="opacity: 0.7"/>
   </g>
   <g id="patch_122">
    <path d="M 538.111162 351.435059 
L 538.647193 351.435059 
L 538.647193 290.312987 
L 538.111162 290.312987 
z
" clip-path="url(#pe05170b5f5)" style="opacity: 0.7"/>
   </g>
   <g id="patch_123">
    <path d="M 540.908912 351.435059 
L 541.444943 351.435059 
L 541.444943 333.649013 
L 540.908912 333.649013 
z
" clip-path="url(#pe05170b5f5)" style="opacity: 0.7"/>
   </g>
   <g id="patch_124">
    <path d="M 545.105537 351.435059 
L 545.641568 351.435059 
L 545.641568 349.067129 
L 545.105537 349.067129 
z
" clip-path="url(#pe05170b5f5)" style="opacity: 0.7"/>
   </g>
   <g id="patch_125">
    <path d="M 549.302162 351.435059 
L 549.838193 351.435059 
L 549.838193 238.065009 
L 549.302162 238.065009 
z
" clip-path="url(#pe05170b5f5)" style="opacity: 0.7"/>
   </g>
   <g id="patch_126">
    <path d="M 115.363636 351.435059 
L 116.167683 351.435059 
L 116.167683 347.309075 
L 115.363636 347.309075 
z
" clip-path="url(#pe05170b5f5)" style="fill: #ff0000"/>
   </g>
   <g id="patch_127">
    <path d="M 155.056716 351.435059 
L 155.860762 351.435059 
L 155.860762 344.885062 
L 155.056716 344.885062 
z
" clip-path="url(#pe05170b5f5)" style="fill: #ff0000"/>
   </g>
   <g id="patch_128">
    <path d="M 155.056716 351.435059 
L 155.860762 351.435059 
L 155.860762 344.465406 
L 155.056716 344.465406 
z
" clip-path="url(#pe05170b5f5)" style="fill: #ff0000"/>
   </g>
   <g id="patch_129">
    <path d="M 165.884537 351.435059 
L 166.688583 351.435059 
L 166.688583 331.590621 
L 165.884537 331.590621 
z
" clip-path="url(#pe05170b5f5)" style="fill: #ff0000"/>
   </g>
   <g id="patch_130">
    <path d="M 165.884537 351.435059 
L 166.688583 351.435059 
L 166.688583 340.081271 
L 165.884537 340.081271 
z
" clip-path="url(#pe05170b5f5)" style="fill: #ff0000"/>
   </g>
   <g id="patch_131">
    <path d="M 165.884537 351.435059 
L 166.688583 351.435059 
L 166.688583 340.242745 
L 165.884537 340.242745 
z
" clip-path="url(#pe05170b5f5)" style="fill: #ff0000"/>
   </g>
   <g id="patch_132">
    <path d="M 191.640816 351.435059 
L 192.444862 351.435059 
L 192.444862 324.431651 
L 191.640816 324.431651 
z
" clip-path="url(#pe05170b5f5)" style="fill: #ff0000"/>
   </g>
   <g id="patch_133">
    <path d="M 191.640816 351.435059 
L 192.444862 351.435059 
L 192.444862 314.237363 
L 191.640816 314.237363 
z
" clip-path="url(#pe05170b5f5)" style="fill: #ff0000"/>
   </g>
   <g id="patch_134">
    <path d="M 204.023127 351.435059 
L 204.827173 351.435059 
L 204.827173 328.954222 
L 204.023127 328.954222 
z
" clip-path="url(#pe05170b5f5)" style="fill: #ff0000"/>
   </g>
   <g id="patch_135">
    <path d="M 204.023127 351.435059 
L 204.827173 351.435059 
L 204.827173 328.814394 
L 204.023127 328.814394 
z
" clip-path="url(#pe05170b5f5)" style="fill: #ff0000"/>
   </g>
   <g id="patch_136">
    <path d="M 241.143259 351.435059 
L 241.947305 351.435059 
L 241.947305 342.876192 
L 241.143259 342.876192 
z
" clip-path="url(#pe05170b5f5)" style="fill: #ff0000"/>
   </g>
   <g id="patch_137">
    <path d="M 241.143259 351.435059 
L 241.947305 351.435059 
L 241.947305 344.949476 
L 241.143259 344.949476 
z
" clip-path="url(#pe05170b5f5)" style="fill: #ff0000"/>
   </g>
   <g id="patch_138">
    <path d="M 241.143259 351.435059 
L 241.947305 351.435059 
L 241.947305 344.913293 
L 241.143259 344.913293 
z
" clip-path="url(#pe05170b5f5)" style="fill: #ff0000"/>
   </g>
   <g id="patch_139">
    <path d="M 241.143259 351.435059 
L 241.947305 351.435059 
L 241.947305 347.256978 
L 241.143259 347.256978 
z
" clip-path="url(#pe05170b5f5)" style="fill: #ff0000"/>
   </g>
   <g id="patch_140">
    <path d="M 241.143259 351.435059 
L 241.947305 351.435059 
L 241.947305 348.671687 
L 241.143259 348.671687 
z
" clip-path="url(#pe05170b5f5)" style="fill: #ff0000"/>
   </g>
   <g id="patch_141">
    <path d="M 241.143259 351.435059 
L 241.947305 351.435059 
L 241.947305 348.452945 
L 241.143259 348.452945 
z
" clip-path="url(#pe05170b5f5)" style="fill: #ff0000"/>
   </g>
   <g id="patch_142">
    <path d="M 241.143259 351.435059 
L 241.947305 351.435059 
L 241.947305 350.030991 
L 241.143259 350.030991 
z
" clip-path="url(#pe05170b5f5)" style="fill: #ff0000"/>
   </g>
   <g id="patch_143">
    <path d="M 241.143259 351.435059 
L 241.947305 351.435059 
L 241.947305 348.622704 
L 241.143259 348.622704 
z
" clip-path="url(#pe05170b5f5)" style="fill: #ff0000"/>
   </g>
   <g id="patch_144">
    <path d="M 241.143259 351.435059 
L 241.947305 351.435059 
L 241.947305 343.102517 
L 241.143259 343.102517 
z
" clip-path="url(#pe05170b5f5)" style="fill: #ff0000"/>
   </g>
   <g id="patch_145">
    <path d="M 241.143259 351.435059 
L 241.947305 351.435059 
L 241.947305 326.662883 
L 241.143259 326.662883 
z
" clip-path="url(#pe05170b5f5)" style="fill: #ff0000"/>
   </g>
   <g id="patch_146">
    <path d="M 241.143259 351.435059 
L 241.947305 351.435059 
L 241.947305 348.586263 
L 241.143259 348.586263 
z
" clip-path="url(#pe05170b5f5)" style="fill: #ff0000"/>
   </g>
   <g id="patch_147">
    <path d="M 241.143259 351.435059 
L 241.947305 351.435059 
L 241.947305 339.124427 
L 241.143259 339.124427 
z
" clip-path="url(#pe05170b5f5)" style="fill: #ff0000"/>
   </g>
   <g id="patch_148">
    <path d="M 241.143259 351.435059 
L 241.947305 351.435059 
L 241.947305 342.620308 
L 241.143259 342.620308 
z
" clip-path="url(#pe05170b5f5)" style="fill: #ff0000"/>
   </g>
   <g id="patch_149">
    <path d="M 241.143259 351.435059 
L 241.947305 351.435059 
L 241.947305 345.66494 
L 241.143259 345.66494 
z
" clip-path="url(#pe05170b5f5)" style="fill: #ff0000"/>
   </g>
   <g id="patch_150">
    <path d="M 241.143259 351.435059 
L 241.947305 351.435059 
L 241.947305 343.969919 
L 241.143259 343.969919 
z
" clip-path="url(#pe05170b5f5)" style="fill: #ff0000"/>
   </g>
   <g id="patch_151">
    <path d="M 241.143259 351.435059 
L 241.947305 351.435059 
L 241.947305 344.767485 
L 241.143259 344.767485 
z
" clip-path="url(#pe05170b5f5)" style="fill: #ff0000"/>
   </g>
   <g id="patch_152">
    <path d="M 241.143259 351.435059 
L 241.947305 351.435059 
L 241.947305 328.926175 
L 241.143259 328.926175 
z
" clip-path="url(#pe05170b5f5)" style="fill: #ff0000"/>
   </g>
   <g id="patch_153">
    <path d="M 241.143259 351.435059 
L 241.947305 351.435059 
L 241.947305 335.931218 
L 241.143259 335.931218 
z
" clip-path="url(#pe05170b5f5)" style="fill: #ff0000"/>
   </g>
   <g id="patch_154">
    <path d="M 273.090693 351.435059 
L 273.894739 351.435059 
L 273.894739 66.96 
L 273.090693 66.96 
z
" clip-path="url(#pe05170b5f5)" style="fill: #ff0000"/>
   </g>
   <g id="patch_155">
    <path d="M 283.382484 351.435059 
L 284.18653 351.435059 
L 284.18653 347.501433 
L 283.382484 347.501433 
z
" clip-path="url(#pe05170b5f5)" style="fill: #ff0000"/>
   </g>
   <g id="patch_156">
    <path d="M 293.191847 351.435059 
L 293.995893 351.435059 
L 293.995893 330.072362 
L 293.191847 330.072362 
z
" clip-path="url(#pe05170b5f5)" style="fill: #ff0000"/>
   </g>
   <g id="patch_157">
    <path d="M 293.191847 351.435059 
L 293.995893 351.435059 
L 293.995893 294.238411 
L 293.191847 294.238411 
z
" clip-path="url(#pe05170b5f5)" style="fill: #ff0000"/>
   </g>
   <g id="patch_158">
    <path d="M 293.191847 351.435059 
L 293.995893 351.435059 
L 293.995893 324.326503 
L 293.191847 324.326503 
z
" clip-path="url(#pe05170b5f5)" style="fill: #ff0000"/>
   </g>
   <g id="patch_159">
    <path d="M 293.191847 351.435059 
L 293.995893 351.435059 
L 293.995893 345.081548 
L 293.191847 345.081548 
z
" clip-path="url(#pe05170b5f5)" style="fill: #ff0000"/>
   </g>
   <g id="patch_160">
    <path d="M 293.191847 351.435059 
L 293.995893 351.435059 
L 293.995893 347.01726 
L 293.191847 347.01726 
z
" clip-path="url(#pe05170b5f5)" style="fill: #ff0000"/>
   </g>
   <g id="patch_161">
    <path d="M 293.191847 351.435059 
L 293.995893 351.435059 
L 293.995893 344.133899 
L 293.191847 344.133899 
z
" clip-path="url(#pe05170b5f5)" style="fill: #ff0000"/>
   </g>
   <g id="patch_162">
    <path d="M 293.191847 351.435059 
L 293.995893 351.435059 
L 293.995893 321.434931 
L 293.191847 321.434931 
z
" clip-path="url(#pe05170b5f5)" style="fill: #ff0000"/>
   </g>
   <g id="patch_163">
    <path d="M 293.191847 351.435059 
L 293.995893 351.435059 
L 293.995893 284.233032 
L 293.191847 284.233032 
z
" clip-path="url(#pe05170b5f5)" style="fill: #ff0000"/>
   </g>
   <g id="patch_164">
    <path d="M 293.191847 351.435059 
L 293.995893 351.435059 
L 293.995893 321.488024 
L 293.191847 321.488024 
z
" clip-path="url(#pe05170b5f5)" style="fill: #ff0000"/>
   </g>
   <g id="patch_165">
    <path d="M 293.191847 351.435059 
L 293.995893 351.435059 
L 293.995893 336.617802 
L 293.191847 336.617802 
z
" clip-path="url(#pe05170b5f5)" style="fill: #ff0000"/>
   </g>
   <g id="patch_166">
    <path d="M 293.191847 351.435059 
L 293.995893 351.435059 
L 293.995893 342.084573 
L 293.191847 342.084573 
z
" clip-path="url(#pe05170b5f5)" style="fill: #ff0000"/>
   </g>
   <g id="patch_167">
    <path d="M 293.191847 351.435059 
L 293.995893 351.435059 
L 293.995893 330.84467 
L 293.191847 330.84467 
z
" clip-path="url(#pe05170b5f5)" style="fill: #ff0000"/>
   </g>
   <g id="patch_168">
    <path d="M 293.191847 351.435059 
L 293.995893 351.435059 
L 293.995893 341.001599 
L 293.191847 341.001599 
z
" clip-path="url(#pe05170b5f5)" style="fill: #ff0000"/>
   </g>
   <g id="patch_169">
    <path d="M 293.191847 351.435059 
L 293.995893 351.435059 
L 293.995893 272.047014 
L 293.191847 272.047014 
z
" clip-path="url(#pe05170b5f5)" style="fill: #ff0000"/>
   </g>
   <g id="patch_170">
    <path d="M 293.191847 351.435059 
L 293.995893 351.435059 
L 293.995893 300.70858 
L 293.191847 300.70858 
z
" clip-path="url(#pe05170b5f5)" style="fill: #ff0000"/>
   </g>
   <g id="patch_171">
    <path d="M 309.674794 351.435059 
L 310.47884 351.435059 
L 310.47884 264.553447 
L 309.674794 264.553447 
z
" clip-path="url(#pe05170b5f5)" style="fill: #ff0000"/>
   </g>
   <g id="patch_172">
    <path d="M 309.674794 351.435059 
L 310.47884 351.435059 
L 310.47884 159.874815 
L 309.674794 159.874815 
z
" clip-path="url(#pe05170b5f5)" style="fill: #ff0000"/>
   </g>
   <g id="patch_173">
    <path d="M 322.566334 351.435059 
L 323.37038 351.435059 
L 323.37038 335.960392 
L 322.566334 335.960392 
z
" clip-path="url(#pe05170b5f5)" style="fill: #ff0000"/>
   </g>
   <g id="patch_174">
    <path d="M 322.566334 351.435059 
L 323.37038 351.435059 
L 323.37038 339.241862 
L 322.566334 339.241862 
z
" clip-path="url(#pe05170b5f5)" style="fill: #ff0000"/>
   </g>
   <g id="patch_175">
    <path d="M 356.577487 351.435059 
L 357.381533 351.435059 
L 357.381533 212.673593 
L 356.577487 212.673593 
z
" clip-path="url(#pe05170b5f5)" style="fill: #ff0000"/>
   </g>
   <g id="patch_176">
    <path d="M 372.551204 351.435059 
L 373.35525 351.435059 
L 373.35525 292.7592 
L 372.551204 292.7592 
z
" clip-path="url(#pe05170b5f5)" style="fill: #ff0000"/>
   </g>
   <g id="patch_177">
    <path d="M 372.551204 351.435059 
L 373.35525 351.435059 
L 373.35525 311.839606 
L 372.551204 311.839606 
z
" clip-path="url(#pe05170b5f5)" style="fill: #ff0000"/>
   </g>
   <g id="patch_178">
    <path d="M 394.206847 351.435059 
L 395.010894 351.435059 
L 395.010894 211.319374 
L 394.206847 211.319374 
z
" clip-path="url(#pe05170b5f5)" style="fill: #ff0000"/>
   </g>
   <g id="patch_179">
    <path d="M 394.206847 351.435059 
L 395.010894 351.435059 
L 395.010894 267.22493 
L 394.206847 267.22493 
z
" clip-path="url(#pe05170b5f5)" style="fill: #ff0000"/>
   </g>
   <g id="patch_180">
    <path d="M 417.390179 351.435059 
L 418.194225 351.435059 
L 418.194225 314.351778 
L 417.390179 314.351778 
z
" clip-path="url(#pe05170b5f5)" style="fill: #ff0000"/>
   </g>
   <g id="patch_181">
    <path d="M 417.390179 351.435059 
L 418.194225 351.435059 
L 418.194225 310.309714 
L 417.390179 310.309714 
z
" clip-path="url(#pe05170b5f5)" style="fill: #ff0000"/>
   </g>
   <g id="patch_182">
    <path d="M 417.390179 351.435059 
L 418.194225 351.435059 
L 418.194225 322.409487 
L 417.390179 322.409487 
z
" clip-path="url(#pe05170b5f5)" style="fill: #ff0000"/>
   </g>
   <g id="patch_183">
    <path d="M 417.390179 351.435059 
L 418.194225 351.435059 
L 418.194225 321.837586 
L 417.390179 321.837586 
z
" clip-path="url(#pe05170b5f5)" style="fill: #ff0000"/>
   </g>
   <g id="patch_184">
    <path d="M 417.390179 351.435059 
L 418.194225 351.435059 
L 418.194225 291.784178 
L 417.390179 291.784178 
z
" clip-path="url(#pe05170b5f5)" style="fill: #ff0000"/>
   </g>
   <g id="patch_185">
    <path d="M 417.390179 351.435059 
L 418.194225 351.435059 
L 418.194225 341.224804 
L 417.390179 341.224804 
z
" clip-path="url(#pe05170b5f5)" style="fill: #ff0000"/>
   </g>
   <g id="patch_186">
    <path d="M 429.26326 351.435059 
L 430.067306 351.435059 
L 430.067306 106.880559 
L 429.26326 106.880559 
z
" clip-path="url(#pe05170b5f5)" style="fill: #ff0000"/>
   </g>
   <g id="patch_187">
    <path d="M 460.701465 351.435059 
L 461.505512 351.435059 
L 461.505512 325.955338 
L 460.701465 325.955338 
z
" clip-path="url(#pe05170b5f5)" style="fill: #ff0000"/>
   </g>
   <g id="patch_188">
    <path d="M 460.701465 351.435059 
L 461.505512 351.435059 
L 461.505512 310.322715 
L 460.701465 310.322715 
z
" clip-path="url(#pe05170b5f5)" style="fill: #ff0000"/>
   </g>
   <g id="patch_189">
    <path d="M 460.701465 351.435059 
L 461.505512 351.435059 
L 461.505512 342.899622 
L 460.701465 342.899622 
z
" clip-path="url(#pe05170b5f5)" style="fill: #ff0000"/>
   </g>
   <g id="patch_190">
    <path d="M 460.701465 351.435059 
L 461.505512 351.435059 
L 461.505512 347.389721 
L 460.701465 347.389721 
z
" clip-path="url(#pe05170b5f5)" style="fill: #ff0000"/>
   </g>
   <g id="patch_191">
    <path d="M 460.701465 351.435059 
L 461.505512 351.435059 
L 461.505512 256.290076 
L 460.701465 256.290076 
z
" clip-path="url(#pe05170b5f5)" style="fill: #ff0000"/>
   </g>
   <g id="patch_192">
    <path d="M 460.701465 351.435059 
L 461.505512 351.435059 
L 461.505512 348.062444 
L 460.701465 348.062444 
z
" clip-path="url(#pe05170b5f5)" style="fill: #ff0000"/>
   </g>
   <g id="patch_193">
    <path d="M 460.701465 351.435059 
L 461.505512 351.435059 
L 461.505512 294.265825 
L 460.701465 294.265825 
z
" clip-path="url(#pe05170b5f5)" style="fill: #ff0000"/>
   </g>
   <g id="patch_194">
    <path d="M 460.701465 351.435059 
L 461.505512 351.435059 
L 461.505512 317.577988 
L 460.701465 317.577988 
z
" clip-path="url(#pe05170b5f5)" style="fill: #ff0000"/>
   </g>
   <g id="patch_195">
    <path d="M 460.701465 351.435059 
L 461.505512 351.435059 
L 461.505512 305.939317 
L 460.701465 305.939317 
z
" clip-path="url(#pe05170b5f5)" style="fill: #ff0000"/>
   </g>
   <g id="patch_196">
    <path d="M 479.24813 351.435059 
L 480.052177 351.435059 
L 480.052177 346.892717 
L 479.24813 346.892717 
z
" clip-path="url(#pe05170b5f5)" style="fill: #ff0000"/>
   </g>
   <g id="patch_197">
    <path d="M 479.24813 351.435059 
L 480.052177 351.435059 
L 480.052177 347.483763 
L 479.24813 347.483763 
z
" clip-path="url(#pe05170b5f5)" style="fill: #ff0000"/>
   </g>
   <g id="patch_198">
    <path d="M 479.24813 351.435059 
L 480.052177 351.435059 
L 480.052177 299.886509 
L 479.24813 299.886509 
z
" clip-path="url(#pe05170b5f5)" style="fill: #ff0000"/>
   </g>
   <g id="patch_199">
    <path d="M 479.24813 351.435059 
L 480.052177 351.435059 
L 480.052177 351.041316 
L 479.24813 351.041316 
z
" clip-path="url(#pe05170b5f5)" style="fill: #ff0000"/>
   </g>
   <g id="patch_200">
    <path d="M 479.24813 351.435059 
L 480.052177 351.435059 
L 480.052177 351.077801 
L 479.24813 351.077801 
z
" clip-path="url(#pe05170b5f5)" style="fill: #ff0000"/>
   </g>
   <g id="patch_201">
    <path d="M 479.24813 351.435059 
L 480.052177 351.435059 
L 480.052177 342.836808 
L 479.24813 342.836808 
z
" clip-path="url(#pe05170b5f5)" style="fill: #ff0000"/>
   </g>
   <g id="patch_202">
    <path d="M 496.267108 351.435059 
L 497.071154 351.435059 
L 497.071154 301.456985 
L 496.267108 301.456985 
z
" clip-path="url(#pe05170b5f5)" style="fill: #ff0000"/>
   </g>
   <g id="patch_203">
    <path d="M 496.267108 351.435059 
L 497.071154 351.435059 
L 497.071154 314.86026 
L 496.267108 314.86026 
z
" clip-path="url(#pe05170b5f5)" style="fill: #ff0000"/>
   </g>
   <g id="patch_204">
    <path d="M 496.267108 351.435059 
L 497.071154 351.435059 
L 497.071154 318.681127 
L 496.267108 318.681127 
z
" clip-path="url(#pe05170b5f5)" style="fill: #ff0000"/>
   </g>
   <g id="patch_205">
    <path d="M 518.94121 351.435059 
L 519.745256 351.435059 
L 519.745256 347.791502 
L 518.94121 347.791502 
z
" clip-path="url(#pe05170b5f5)" style="fill: #ff0000"/>
   </g>
   <g id="patch_206">
    <path d="M 549.870185 351.435059 
L 550.674232 351.435059 
L 550.674232 232.093891 
L 549.870185 232.093891 
z
" clip-path="url(#pe05170b5f5)" style="fill: #ff0000"/>
   </g>
   <g id="patch_207">
    <path d="M 585.945057 351.435059 
L 586.749103 351.435059 
L 586.749103 350.685138 
L 585.945057 350.685138 
z
" clip-path="url(#pe05170b5f5)" style="fill: #ff0000"/>
   </g>
   <g id="patch_208">
    <path d="M 585.945057 351.435059 
L 586.749103 351.435059 
L 586.749103 301.963398 
L 585.945057 301.963398 
z
" clip-path="url(#pe05170b5f5)" style="fill: #ff0000"/>
   </g>
   <g id="patch_209">
    <path d="M 585.945057 351.435059 
L 586.749103 351.435059 
L 586.749103 349.94539 
L 585.945057 349.94539 
z
" clip-path="url(#pe05170b5f5)" style="fill: #ff0000"/>
   </g>
   <g id="patch_210">
    <path d="M 585.945057 351.435059 
L 586.749103 351.435059 
L 586.749103 330.026952 
L 585.945057 330.026952 
z
" clip-path="url(#pe05170b5f5)" style="fill: #ff0000"/>
   </g>
   <g id="patch_211">
    <path d="M 585.945057 351.435059 
L 586.749103 351.435059 
L 586.749103 349.233462 
L 585.945057 349.233462 
z
" clip-path="url(#pe05170b5f5)" style="fill: #ff0000"/>
   </g>
   <g id="patch_212">
    <path d="M 585.945057 351.435059 
L 586.749103 351.435059 
L 586.749103 290.312987 
L 585.945057 290.312987 
z
" clip-path="url(#pe05170b5f5)" style="fill: #ff0000"/>
   </g>
   <g id="patch_213">
    <path d="M 585.945057 351.435059 
L 586.749103 351.435059 
L 586.749103 333.649013 
L 585.945057 333.649013 
z
" clip-path="url(#pe05170b5f5)" style="fill: #ff0000"/>
   </g>
   <g id="patch_214">
    <path d="M 585.945057 351.435059 
L 586.749103 351.435059 
L 586.749103 349.067129 
L 585.945057 349.067129 
z
" clip-path="url(#pe05170b5f5)" style="fill: #ff0000"/>
   </g>
   <g id="patch_215">
    <path d="M 619.95621 351.435059 
L 620.760256 351.435059 
L 620.760256 238.065009 
L 619.95621 238.065009 
z
" clip-path="url(#pe05170b5f5)" style="fill: #ff0000"/>
   </g>
   <g id="matplotlib.axis_1">
    <g id="xtick_1">
     <g id="line2d_1">
      <defs>
       <path id="m22f49074aa" d="M 0 0 
L 0 3.5 
" style="stroke: #000000; stroke-width: 0.8"/>
      </defs>
      <g>
       <use xlink:href="#m22f49074aa" x="101.453638" y="384.48" style="stroke: #000000; stroke-width: 0.8"/>
      </g>
     </g>
     <g id="text_1">
      <!-- 3250 -->
      <g transform="translate(88.728638 399.078438) scale(0.1 -0.1)">
       <defs>
        <path id="DejaVuSans-33" d="M 2597 2516 
Q 3050 2419 3304 2112 
Q 3559 1806 3559 1356 
Q 3559 666 3084 287 
Q 2609 -91 1734 -91 
Q 1441 -91 1130 -33 
Q 819 25 488 141 
L 488 750 
Q 750 597 1062 519 
Q 1375 441 1716 441 
Q 2309 441 2620 675 
Q 2931 909 2931 1356 
Q 2931 1769 2642 2001 
Q 2353 2234 1838 2234 
L 1294 2234 
L 1294 2753 
L 1863 2753 
Q 2328 2753 2575 2939 
Q 2822 3125 2822 3475 
Q 2822 3834 2567 4026 
Q 2313 4219 1838 4219 
Q 1578 4219 1281 4162 
Q 984 4106 628 3988 
L 628 4550 
Q 988 4650 1302 4700 
Q 1616 4750 1894 4750 
Q 2613 4750 3031 4423 
Q 3450 4097 3450 3541 
Q 3450 3153 3228 2886 
Q 3006 2619 2597 2516 
z
" transform="scale(0.015625)"/>
        <path id="DejaVuSans-32" d="M 1228 531 
L 3431 531 
L 3431 0 
L 469 0 
L 469 531 
Q 828 903 1448 1529 
Q 2069 2156 2228 2338 
Q 2531 2678 2651 2914 
Q 2772 3150 2772 3378 
Q 2772 3750 2511 3984 
Q 2250 4219 1831 4219 
Q 1534 4219 1204 4116 
Q 875 4013 500 3803 
L 500 4441 
Q 881 4594 1212 4672 
Q 1544 4750 1819 4750 
Q 2544 4750 2975 4387 
Q 3406 4025 3406 3419 
Q 3406 3131 3298 2873 
Q 3191 2616 2906 2266 
Q 2828 2175 2409 1742 
Q 1991 1309 1228 531 
z
" transform="scale(0.015625)"/>
        <path id="DejaVuSans-35" d="M 691 4666 
L 3169 4666 
L 3169 4134 
L 1269 4134 
L 1269 2991 
Q 1406 3038 1543 3061 
Q 1681 3084 1819 3084 
Q 2600 3084 3056 2656 
Q 3513 2228 3513 1497 
Q 3513 744 3044 326 
Q 2575 -91 1722 -91 
Q 1428 -91 1123 -41 
Q 819 9 494 109 
L 494 744 
Q 775 591 1075 516 
Q 1375 441 1709 441 
Q 2250 441 2565 725 
Q 2881 1009 2881 1497 
Q 2881 1984 2565 2268 
Q 2250 2553 1709 2553 
Q 1456 2553 1204 2497 
Q 953 2441 691 2322 
L 691 4666 
z
" transform="scale(0.015625)"/>
        <path id="DejaVuSans-30" d="M 2034 4250 
Q 1547 4250 1301 3770 
Q 1056 3291 1056 2328 
Q 1056 1369 1301 889 
Q 1547 409 2034 409 
Q 2525 409 2770 889 
Q 3016 1369 3016 2328 
Q 3016 3291 2770 3770 
Q 2525 4250 2034 4250 
z
M 2034 4750 
Q 2819 4750 3233 4129 
Q 3647 3509 3647 2328 
Q 3647 1150 3233 529 
Q 2819 -91 2034 -91 
Q 1250 -91 836 529 
Q 422 1150 422 2328 
Q 422 3509 836 4129 
Q 1250 4750 2034 4750 
z
" transform="scale(0.015625)"/>
       </defs>
       <use xlink:href="#DejaVuSans-33"/>
       <use xlink:href="#DejaVuSans-32" x="63.623047"/>
       <use xlink:href="#DejaVuSans-35" x="127.246094"/>
       <use xlink:href="#DejaVuSans-30" x="190.869141"/>
      </g>
     </g>
    </g>
    <g id="xtick_2">
     <g id="line2d_2">
      <g>
       <use xlink:href="#m22f49074aa" x="168.457485" y="384.48" style="stroke: #000000; stroke-width: 0.8"/>
      </g>
     </g>
     <g id="text_2">
      <!-- 3500 -->
      <g transform="translate(155.732485 399.078438) scale(0.1 -0.1)">
       <use xlink:href="#DejaVuSans-33"/>
       <use xlink:href="#DejaVuSans-35" x="63.623047"/>
       <use xlink:href="#DejaVuSans-30" x="127.246094"/>
       <use xlink:href="#DejaVuSans-30" x="190.869141"/>
      </g>
     </g>
    </g>
    <g id="xtick_3">
     <g id="line2d_3">
      <g>
       <use xlink:href="#m22f49074aa" x="235.461332" y="384.48" style="stroke: #000000; stroke-width: 0.8"/>
      </g>
     </g>
     <g id="text_3">
      <!-- 3750 -->
      <g transform="translate(222.736332 399.078438) scale(0.1 -0.1)">
       <defs>
        <path id="DejaVuSans-37" d="M 525 4666 
L 3525 4666 
L 3525 4397 
L 1831 0 
L 1172 0 
L 2766 4134 
L 525 4134 
L 525 4666 
z
" transform="scale(0.015625)"/>
       </defs>
       <use xlink:href="#DejaVuSans-33"/>
       <use xlink:href="#DejaVuSans-37" x="63.623047"/>
       <use xlink:href="#DejaVuSans-35" x="127.246094"/>
       <use xlink:href="#DejaVuSans-30" x="190.869141"/>
      </g>
     </g>
    </g>
    <g id="xtick_4">
     <g id="line2d_4">
      <g>
       <use xlink:href="#m22f49074aa" x="302.46518" y="384.48" style="stroke: #000000; stroke-width: 0.8"/>
      </g>
     </g>
     <g id="text_4">
      <!-- 4000 -->
      <g transform="translate(289.74018 399.078438) scale(0.1 -0.1)">
       <defs>
        <path id="DejaVuSans-34" d="M 2419 4116 
L 825 1625 
L 2419 1625 
L 2419 4116 
z
M 2253 4666 
L 3047 4666 
L 3047 1625 
L 3713 1625 
L 3713 1100 
L 3047 1100 
L 3047 0 
L 2419 0 
L 2419 1100 
L 313 1100 
L 313 1709 
L 2253 4666 
z
" transform="scale(0.015625)"/>
       </defs>
       <use xlink:href="#DejaVuSans-34"/>
       <use xlink:href="#DejaVuSans-30" x="63.623047"/>
       <use xlink:href="#DejaVuSans-30" x="127.246094"/>
       <use xlink:href="#DejaVuSans-30" x="190.869141"/>
      </g>
     </g>
    </g>
    <g id="xtick_5">
     <g id="line2d_5">
      <g>
       <use xlink:href="#m22f49074aa" x="369.469027" y="384.48" style="stroke: #000000; stroke-width: 0.8"/>
      </g>
     </g>
     <g id="text_5">
      <!-- 4250 -->
      <g transform="translate(356.744027 399.078438) scale(0.1 -0.1)">
       <use xlink:href="#DejaVuSans-34"/>
       <use xlink:href="#DejaVuSans-32" x="63.623047"/>
       <use xlink:href="#DejaVuSans-35" x="127.246094"/>
       <use xlink:href="#DejaVuSans-30" x="190.869141"/>
      </g>
     </g>
    </g>
    <g id="xtick_6">
     <g id="line2d_6">
      <g>
       <use xlink:href="#m22f49074aa" x="436.472874" y="384.48" style="stroke: #000000; stroke-width: 0.8"/>
      </g>
     </g>
     <g id="text_6">
      <!-- 4500 -->
      <g transform="translate(423.747874 399.078438) scale(0.1 -0.1)">
       <use xlink:href="#DejaVuSans-34"/>
       <use xlink:href="#DejaVuSans-35" x="63.623047"/>
       <use xlink:href="#DejaVuSans-30" x="127.246094"/>
       <use xlink:href="#DejaVuSans-30" x="190.869141"/>
      </g>
     </g>
    </g>
    <g id="xtick_7">
     <g id="line2d_7">
      <g>
       <use xlink:href="#m22f49074aa" x="503.476722" y="384.48" style="stroke: #000000; stroke-width: 0.8"/>
      </g>
     </g>
     <g id="text_7">
      <!-- 4750 -->
      <g transform="translate(490.751722 399.078438) scale(0.1 -0.1)">
       <use xlink:href="#DejaVuSans-34"/>
       <use xlink:href="#DejaVuSans-37" x="63.623047"/>
       <use xlink:href="#DejaVuSans-35" x="127.246094"/>
       <use xlink:href="#DejaVuSans-30" x="190.869141"/>
      </g>
     </g>
    </g>
    <g id="xtick_8">
     <g id="line2d_8">
      <g>
       <use xlink:href="#m22f49074aa" x="570.480569" y="384.48" style="stroke: #000000; stroke-width: 0.8"/>
      </g>
     </g>
     <g id="text_8">
      <!-- 5000 -->
      <g transform="translate(557.755569 399.078438) scale(0.1 -0.1)">
       <use xlink:href="#DejaVuSans-35"/>
       <use xlink:href="#DejaVuSans-30" x="63.623047"/>
       <use xlink:href="#DejaVuSans-30" x="127.246094"/>
       <use xlink:href="#DejaVuSans-30" x="190.869141"/>
      </g>
     </g>
    </g>
    <g id="xtick_9">
     <g id="line2d_9">
      <g>
       <use xlink:href="#m22f49074aa" x="637.484416" y="384.48" style="stroke: #000000; stroke-width: 0.8"/>
      </g>
     </g>
     <g id="text_9">
      <!-- 5250 -->
      <g transform="translate(624.759416 399.078438) scale(0.1 -0.1)">
       <use xlink:href="#DejaVuSans-35"/>
       <use xlink:href="#DejaVuSans-32" x="63.623047"/>
       <use xlink:href="#DejaVuSans-35" x="127.246094"/>
       <use xlink:href="#DejaVuSans-30" x="190.869141"/>
      </g>
     </g>
    </g>
   </g>
   <g id="matplotlib.axis_2">
    <g id="ytick_1">
     <g id="line2d_10">
      <defs>
       <path id="md8773d6e98" d="M 0 0 
L -3.5 0 
" style="stroke: #000000; stroke-width: 0.8"/>
      </defs>
      <g>
       <use xlink:href="#md8773d6e98" x="90" y="351.435059" style="stroke: #000000; stroke-width: 0.8"/>
      </g>
     </g>
     <g id="text_10">
      <!-- 0.0 -->
      <g transform="translate(67.096875 355.234277) scale(0.1 -0.1)">
       <defs>
        <path id="DejaVuSans-2e" d="M 684 794 
L 1344 794 
L 1344 0 
L 684 0 
L 684 794 
z
" transform="scale(0.015625)"/>
       </defs>
       <use xlink:href="#DejaVuSans-30"/>
       <use xlink:href="#DejaVuSans-2e" x="63.623047"/>
       <use xlink:href="#DejaVuSans-30" x="95.410156"/>
      </g>
     </g>
    </g>
    <g id="ytick_2">
     <g id="line2d_11">
      <g>
       <use xlink:href="#md8773d6e98" x="90" y="294.540047" style="stroke: #000000; stroke-width: 0.8"/>
      </g>
     </g>
     <g id="text_11">
      <!-- 0.2 -->
      <g transform="translate(67.096875 298.339266) scale(0.1 -0.1)">
       <use xlink:href="#DejaVuSans-30"/>
       <use xlink:href="#DejaVuSans-2e" x="63.623047"/>
       <use xlink:href="#DejaVuSans-32" x="95.410156"/>
      </g>
     </g>
    </g>
    <g id="ytick_3">
     <g id="line2d_12">
      <g>
       <use xlink:href="#md8773d6e98" x="90" y="237.645035" style="stroke: #000000; stroke-width: 0.8"/>
      </g>
     </g>
     <g id="text_12">
      <!-- 0.4 -->
      <g transform="translate(67.096875 241.444254) scale(0.1 -0.1)">
       <use xlink:href="#DejaVuSans-30"/>
       <use xlink:href="#DejaVuSans-2e" x="63.623047"/>
       <use xlink:href="#DejaVuSans-34" x="95.410156"/>
      </g>
     </g>
    </g>
    <g id="ytick_4">
     <g id="line2d_13">
      <g>
       <use xlink:href="#md8773d6e98" x="90" y="180.750023" style="stroke: #000000; stroke-width: 0.8"/>
      </g>
     </g>
     <g id="text_13">
      <!-- 0.6 -->
      <g transform="translate(67.096875 184.549242) scale(0.1 -0.1)">
       <defs>
        <path id="DejaVuSans-36" d="M 2113 2584 
Q 1688 2584 1439 2293 
Q 1191 2003 1191 1497 
Q 1191 994 1439 701 
Q 1688 409 2113 409 
Q 2538 409 2786 701 
Q 3034 994 3034 1497 
Q 3034 2003 2786 2293 
Q 2538 2584 2113 2584 
z
M 3366 4563 
L 3366 3988 
Q 3128 4100 2886 4159 
Q 2644 4219 2406 4219 
Q 1781 4219 1451 3797 
Q 1122 3375 1075 2522 
Q 1259 2794 1537 2939 
Q 1816 3084 2150 3084 
Q 2853 3084 3261 2657 
Q 3669 2231 3669 1497 
Q 3669 778 3244 343 
Q 2819 -91 2113 -91 
Q 1303 -91 875 529 
Q 447 1150 447 2328 
Q 447 3434 972 4092 
Q 1497 4750 2381 4750 
Q 2619 4750 2861 4703 
Q 3103 4656 3366 4563 
z
" transform="scale(0.015625)"/>
       </defs>
       <use xlink:href="#DejaVuSans-30"/>
       <use xlink:href="#DejaVuSans-2e" x="63.623047"/>
       <use xlink:href="#DejaVuSans-36" x="95.410156"/>
      </g>
     </g>
    </g>
    <g id="ytick_5">
     <g id="line2d_14">
      <g>
       <use xlink:href="#md8773d6e98" x="90" y="123.855012" style="stroke: #000000; stroke-width: 0.8"/>
      </g>
     </g>
     <g id="text_14">
      <!-- 0.8 -->
      <g transform="translate(67.096875 127.65423) scale(0.1 -0.1)">
       <defs>
        <path id="DejaVuSans-38" d="M 2034 2216 
Q 1584 2216 1326 1975 
Q 1069 1734 1069 1313 
Q 1069 891 1326 650 
Q 1584 409 2034 409 
Q 2484 409 2743 651 
Q 3003 894 3003 1313 
Q 3003 1734 2745 1975 
Q 2488 2216 2034 2216 
z
M 1403 2484 
Q 997 2584 770 2862 
Q 544 3141 544 3541 
Q 544 4100 942 4425 
Q 1341 4750 2034 4750 
Q 2731 4750 3128 4425 
Q 3525 4100 3525 3541 
Q 3525 3141 3298 2862 
Q 3072 2584 2669 2484 
Q 3125 2378 3379 2068 
Q 3634 1759 3634 1313 
Q 3634 634 3220 271 
Q 2806 -91 2034 -91 
Q 1263 -91 848 271 
Q 434 634 434 1313 
Q 434 1759 690 2068 
Q 947 2378 1403 2484 
z
M 1172 3481 
Q 1172 3119 1398 2916 
Q 1625 2713 2034 2713 
Q 2441 2713 2670 2916 
Q 2900 3119 2900 3481 
Q 2900 3844 2670 4047 
Q 2441 4250 2034 4250 
Q 1625 4250 1398 4047 
Q 1172 3844 1172 3481 
z
" transform="scale(0.015625)"/>
       </defs>
       <use xlink:href="#DejaVuSans-30"/>
       <use xlink:href="#DejaVuSans-2e" x="63.623047"/>
       <use xlink:href="#DejaVuSans-38" x="95.410156"/>
      </g>
     </g>
    </g>
    <g id="ytick_6">
     <g id="line2d_15">
      <g>
       <use xlink:href="#md8773d6e98" x="90" y="66.96" style="stroke: #000000; stroke-width: 0.8"/>
      </g>
     </g>
     <g id="text_15">
      <!-- 1.0 -->
      <g transform="translate(67.096875 70.759219) scale(0.1 -0.1)">
       <defs>
        <path id="DejaVuSans-31" d="M 794 531 
L 1825 531 
L 1825 4091 
L 703 3866 
L 703 4441 
L 1819 4666 
L 2450 4666 
L 2450 531 
L 3481 531 
L 3481 0 
L 794 0 
L 794 531 
z
" transform="scale(0.015625)"/>
       </defs>
       <use xlink:href="#DejaVuSans-31"/>
       <use xlink:href="#DejaVuSans-2e" x="63.623047"/>
       <use xlink:href="#DejaVuSans-30" x="95.410156"/>
      </g>
     </g>
    </g>
   </g>
   <g id="patch_216">
    <path d="M 90 384.48 
L 90 51.84 
" style="fill: none; stroke: #000000; stroke-width: 0.8; stroke-linejoin: miter; stroke-linecap: square"/>
   </g>
   <g id="patch_217">
    <path d="M 648 384.48 
L 648 51.84 
" style="fill: none; stroke: #000000; stroke-width: 0.8; stroke-linejoin: miter; stroke-linecap: square"/>
   </g>
   <g id="patch_218">
    <path d="M 90 384.48 
L 648 384.48 
" style="fill: none; stroke: #000000; stroke-width: 0.8; stroke-linejoin: miter; stroke-linecap: square"/>
   </g>
   <g id="patch_219">
    <path d="M 90 51.84 
L 648 51.84 
" style="fill: none; stroke: #000000; stroke-width: 0.8; stroke-linejoin: miter; stroke-linecap: square"/>
   </g>
   <g id="legend_1">
    <g id="patch_220">
     <path d="M 546.635937 103.874375 
L 641 103.874375 
Q 643 103.874375 643 101.874375 
L 643 58.84 
Q 643 56.84 641 56.84 
L 546.635937 56.84 
Q 544.635937 56.84 544.635937 58.84 
L 544.635937 101.874375 
Q 544.635937 103.874375 546.635937 103.874375 
z
" style="fill: #ffffff; opacity: 0.8; stroke: #cccccc; stroke-linejoin: miter"/>
    </g>
    <g id="patch_221">
     <path d="M 548.635937 68.438437 
L 568.635937 68.438437 
L 568.635937 61.438437 
L 548.635937 61.438437 
z
" style="fill: #0000ff; opacity: 0.7"/>
    </g>
    <g id="text_16">
     <!-- Teorico -->
     <g transform="translate(576.635937 68.438437) scale(0.1 -0.1)">
      <defs>
       <path id="DejaVuSans-54" d="M -19 4666 
L 3928 4666 
L 3928 4134 
L 2272 4134 
L 2272 0 
L 1638 0 
L 1638 4134 
L -19 4134 
L -19 4666 
z
" transform="scale(0.015625)"/>
       <path id="DejaVuSans-65" d="M 3597 1894 
L 3597 1613 
L 953 1613 
Q 991 1019 1311 708 
Q 1631 397 2203 397 
Q 2534 397 2845 478 
Q 3156 559 3463 722 
L 3463 178 
Q 3153 47 2828 -22 
Q 2503 -91 2169 -91 
Q 1331 -91 842 396 
Q 353 884 353 1716 
Q 353 2575 817 3079 
Q 1281 3584 2069 3584 
Q 2775 3584 3186 3129 
Q 3597 2675 3597 1894 
z
M 3022 2063 
Q 3016 2534 2758 2815 
Q 2500 3097 2075 3097 
Q 1594 3097 1305 2825 
Q 1016 2553 972 2059 
L 3022 2063 
z
" transform="scale(0.015625)"/>
       <path id="DejaVuSans-6f" d="M 1959 3097 
Q 1497 3097 1228 2736 
Q 959 2375 959 1747 
Q 959 1119 1226 758 
Q 1494 397 1959 397 
Q 2419 397 2687 759 
Q 2956 1122 2956 1747 
Q 2956 2369 2687 2733 
Q 2419 3097 1959 3097 
z
M 1959 3584 
Q 2709 3584 3137 3096 
Q 3566 2609 3566 1747 
Q 3566 888 3137 398 
Q 2709 -91 1959 -91 
Q 1206 -91 779 398 
Q 353 888 353 1747 
Q 353 2609 779 3096 
Q 1206 3584 1959 3584 
z
" transform="scale(0.015625)"/>
       <path id="DejaVuSans-72" d="M 2631 2963 
Q 2534 3019 2420 3045 
Q 2306 3072 2169 3072 
Q 1681 3072 1420 2755 
Q 1159 2438 1159 1844 
L 1159 0 
L 581 0 
L 581 3500 
L 1159 3500 
L 1159 2956 
Q 1341 3275 1631 3429 
Q 1922 3584 2338 3584 
Q 2397 3584 2469 3576 
Q 2541 3569 2628 3553 
L 2631 2963 
z
" transform="scale(0.015625)"/>
       <path id="DejaVuSans-69" d="M 603 3500 
L 1178 3500 
L 1178 0 
L 603 0 
L 603 3500 
z
M 603 4863 
L 1178 4863 
L 1178 4134 
L 603 4134 
L 603 4863 
z
" transform="scale(0.015625)"/>
       <path id="DejaVuSans-63" d="M 3122 3366 
L 3122 2828 
Q 2878 2963 2633 3030 
Q 2388 3097 2138 3097 
Q 1578 3097 1268 2742 
Q 959 2388 959 1747 
Q 959 1106 1268 751 
Q 1578 397 2138 397 
Q 2388 397 2633 464 
Q 2878 531 3122 666 
L 3122 134 
Q 2881 22 2623 -34 
Q 2366 -91 2075 -91 
Q 1284 -91 818 406 
Q 353 903 353 1747 
Q 353 2603 823 3093 
Q 1294 3584 2113 3584 
Q 2378 3584 2631 3529 
Q 2884 3475 3122 3366 
z
" transform="scale(0.015625)"/>
      </defs>
      <use xlink:href="#DejaVuSans-54"/>
      <use xlink:href="#DejaVuSans-65" x="44.083984"/>
      <use xlink:href="#DejaVuSans-6f" x="105.607422"/>
      <use xlink:href="#DejaVuSans-72" x="166.789062"/>
      <use xlink:href="#DejaVuSans-69" x="207.902344"/>
      <use xlink:href="#DejaVuSans-63" x="235.685547"/>
      <use xlink:href="#DejaVuSans-6f" x="290.666016"/>
     </g>
    </g>
    <g id="patch_222">
     <path d="M 548.635937 83.116562 
L 568.635937 83.116562 
L 568.635937 76.116562 
L 548.635937 76.116562 
z
" style="opacity: 0.7"/>
    </g>
    <g id="text_17">
     <!-- Emp Real -->
     <g transform="translate(576.635937 83.116562) scale(0.1 -0.1)">
      <defs>
       <path id="DejaVuSans-45" d="M 628 4666 
L 3578 4666 
L 3578 4134 
L 1259 4134 
L 1259 2753 
L 3481 2753 
L 3481 2222 
L 1259 2222 
L 1259 531 
L 3634 531 
L 3634 0 
L 628 0 
L 628 4666 
z
" transform="scale(0.015625)"/>
       <path id="DejaVuSans-6d" d="M 3328 2828 
Q 3544 3216 3844 3400 
Q 4144 3584 4550 3584 
Q 5097 3584 5394 3201 
Q 5691 2819 5691 2113 
L 5691 0 
L 5113 0 
L 5113 2094 
Q 5113 2597 4934 2840 
Q 4756 3084 4391 3084 
Q 3944 3084 3684 2787 
Q 3425 2491 3425 1978 
L 3425 0 
L 2847 0 
L 2847 2094 
Q 2847 2600 2669 2842 
Q 2491 3084 2119 3084 
Q 1678 3084 1418 2786 
Q 1159 2488 1159 1978 
L 1159 0 
L 581 0 
L 581 3500 
L 1159 3500 
L 1159 2956 
Q 1356 3278 1631 3431 
Q 1906 3584 2284 3584 
Q 2666 3584 2933 3390 
Q 3200 3197 3328 2828 
z
" transform="scale(0.015625)"/>
       <path id="DejaVuSans-70" d="M 1159 525 
L 1159 -1331 
L 581 -1331 
L 581 3500 
L 1159 3500 
L 1159 2969 
Q 1341 3281 1617 3432 
Q 1894 3584 2278 3584 
Q 2916 3584 3314 3078 
Q 3713 2572 3713 1747 
Q 3713 922 3314 415 
Q 2916 -91 2278 -91 
Q 1894 -91 1617 61 
Q 1341 213 1159 525 
z
M 3116 1747 
Q 3116 2381 2855 2742 
Q 2594 3103 2138 3103 
Q 1681 3103 1420 2742 
Q 1159 2381 1159 1747 
Q 1159 1113 1420 752 
Q 1681 391 2138 391 
Q 2594 391 2855 752 
Q 3116 1113 3116 1747 
z
" transform="scale(0.015625)"/>
       <path id="DejaVuSans-20" transform="scale(0.015625)"/>
       <path id="DejaVuSans-52" d="M 2841 2188 
Q 3044 2119 3236 1894 
Q 3428 1669 3622 1275 
L 4263 0 
L 3584 0 
L 2988 1197 
Q 2756 1666 2539 1819 
Q 2322 1972 1947 1972 
L 1259 1972 
L 1259 0 
L 628 0 
L 628 4666 
L 2053 4666 
Q 2853 4666 3247 4331 
Q 3641 3997 3641 3322 
Q 3641 2881 3436 2590 
Q 3231 2300 2841 2188 
z
M 1259 4147 
L 1259 2491 
L 2053 2491 
Q 2509 2491 2742 2702 
Q 2975 2913 2975 3322 
Q 2975 3731 2742 3939 
Q 2509 4147 2053 4147 
L 1259 4147 
z
" transform="scale(0.015625)"/>
       <path id="DejaVuSans-61" d="M 2194 1759 
Q 1497 1759 1228 1600 
Q 959 1441 959 1056 
Q 959 750 1161 570 
Q 1363 391 1709 391 
Q 2188 391 2477 730 
Q 2766 1069 2766 1631 
L 2766 1759 
L 2194 1759 
z
M 3341 1997 
L 3341 0 
L 2766 0 
L 2766 531 
Q 2569 213 2275 61 
Q 1981 -91 1556 -91 
Q 1019 -91 701 211 
Q 384 513 384 1019 
Q 384 1609 779 1909 
Q 1175 2209 1959 2209 
L 2766 2209 
L 2766 2266 
Q 2766 2663 2505 2880 
Q 2244 3097 1772 3097 
Q 1472 3097 1187 3025 
Q 903 2953 641 2809 
L 641 3341 
Q 956 3463 1253 3523 
Q 1550 3584 1831 3584 
Q 2591 3584 2966 3190 
Q 3341 2797 3341 1997 
z
" transform="scale(0.015625)"/>
       <path id="DejaVuSans-6c" d="M 603 4863 
L 1178 4863 
L 1178 0 
L 603 0 
L 603 4863 
z
" transform="scale(0.015625)"/>
      </defs>
      <use xlink:href="#DejaVuSans-45"/>
      <use xlink:href="#DejaVuSans-6d" x="63.183594"/>
      <use xlink:href="#DejaVuSans-70" x="160.595703"/>
      <use xlink:href="#DejaVuSans-20" x="224.072266"/>
      <use xlink:href="#DejaVuSans-52" x="255.859375"/>
      <use xlink:href="#DejaVuSans-65" x="320.841797"/>
      <use xlink:href="#DejaVuSans-61" x="382.365234"/>
      <use xlink:href="#DejaVuSans-6c" x="443.644531"/>
     </g>
    </g>
    <g id="patch_223">
     <path d="M 548.635937 97.794687 
L 568.635937 97.794687 
L 568.635937 90.794687 
L 548.635937 90.794687 
z
" style="fill: #ff0000"/>
    </g>
    <g id="text_18">
     <!-- Emp Optimo -->
     <g transform="translate(576.635937 97.794687) scale(0.1 -0.1)">
      <defs>
       <path id="DejaVuSans-4f" d="M 2522 4238 
Q 1834 4238 1429 3725 
Q 1025 3213 1025 2328 
Q 1025 1447 1429 934 
Q 1834 422 2522 422 
Q 3209 422 3611 934 
Q 4013 1447 4013 2328 
Q 4013 3213 3611 3725 
Q 3209 4238 2522 4238 
z
M 2522 4750 
Q 3503 4750 4090 4092 
Q 4678 3434 4678 2328 
Q 4678 1225 4090 567 
Q 3503 -91 2522 -91 
Q 1538 -91 948 565 
Q 359 1222 359 2328 
Q 359 3434 948 4092 
Q 1538 4750 2522 4750 
z
" transform="scale(0.015625)"/>
       <path id="DejaVuSans-74" d="M 1172 4494 
L 1172 3500 
L 2356 3500 
L 2356 3053 
L 1172 3053 
L 1172 1153 
Q 1172 725 1289 603 
Q 1406 481 1766 481 
L 2356 481 
L 2356 0 
L 1766 0 
Q 1100 0 847 248 
Q 594 497 594 1153 
L 594 3053 
L 172 3053 
L 172 3500 
L 594 3500 
L 594 4494 
L 1172 4494 
z
" transform="scale(0.015625)"/>
      </defs>
      <use xlink:href="#DejaVuSans-45"/>
      <use xlink:href="#DejaVuSans-6d" x="63.183594"/>
      <use xlink:href="#DejaVuSans-70" x="160.595703"/>
      <use xlink:href="#DejaVuSans-20" x="224.072266"/>
      <use xlink:href="#DejaVuSans-4f" x="255.859375"/>
      <use xlink:href="#DejaVuSans-70" x="334.570312"/>
      <use xlink:href="#DejaVuSans-74" x="398.046875"/>
      <use xlink:href="#DejaVuSans-69" x="437.255859"/>
      <use xlink:href="#DejaVuSans-6d" x="465.039062"/>
      <use xlink:href="#DejaVuSans-6f" x="562.451172"/>
     </g>
    </g>
   </g>
  </g>
 </g>
 <defs>
  <clipPath id="pe05170b5f5">
   <rect x="90" y="51.84" width="558" height="332.64"/>
  </clipPath>
 </defs>
</svg>
