<?xml version="1.0" encoding="utf-8" standalone="no"?>
<!DOCTYPE svg PUBLIC "-//W3C//DTD SVG 1.1//EN"
  "http://www.w3.org/Graphics/SVG/1.1/DTD/svg11.dtd">
<svg xmlns:xlink="http://www.w3.org/1999/xlink" width="720pt" height="432pt" viewBox="0 0 720 432" xmlns="http://www.w3.org/2000/svg" version="1.1">
 <metadata>
  <rdf:RDF xmlns:dc="http://purl.org/dc/elements/1.1/" xmlns:cc="http://creativecommons.org/ns#" xmlns:rdf="http://www.w3.org/1999/02/22-rdf-syntax-ns#">
   <cc:Work>
    <dc:type rdf:resource="http://purl.org/dc/dcmitype/StillImage"/>
    <dc:date>2024-03-26T21:18:37.644161</dc:date>
    <dc:format>image/svg+xml</dc:format>
    <dc:creator>
     <cc:Agent>
      <dc:title>Matplotlib v3.7.5, https://matplotlib.org/</dc:title>
     </cc:Agent>
    </dc:creator>
   </cc:Work>
  </rdf:RDF>
 </metadata>
 <defs>
  <style type="text/css">*{stroke-linejoin: round; stroke-linecap: butt}</style>
 </defs>
 <g id="figure_1">
  <g id="patch_1">
   <path d="M 0 432 
L 720 432 
L 720 0 
L 0 0 
z
" style="fill: #ffffff"/>
  </g>
  <g id="axes_1">
   <g id="patch_2">
    <path d="M 90 384.48 
L 648 384.48 
L 648 51.84 
L 90 51.84 
z
" style="fill: #ffffff"/>
   </g>
   <g id="patch_3">
    <path d="M 115.363636 351.58901 
L 118.047619 351.58901 
L 118.047619 351.58901 
L 115.363636 351.58901 
z
" clip-path="url(#p9c0f78c940)" style="fill: #0000ff; opacity: 0.7"/>
   </g>
   <g id="patch_4">
    <path d="M 118.047619 351.58901 
L 120.731602 351.58901 
L 120.731602 351.58901 
L 118.047619 351.58901 
z
" clip-path="url(#p9c0f78c940)" style="fill: #0000ff; opacity: 0.7"/>
   </g>
   <g id="patch_5">
    <path d="M 120.731602 351.58901 
L 123.415584 351.58901 
L 123.415584 351.58901 
L 120.731602 351.58901 
z
" clip-path="url(#p9c0f78c940)" style="fill: #0000ff; opacity: 0.7"/>
   </g>
   <g id="patch_6">
    <path d="M 123.415584 351.58901 
L 126.099567 351.58901 
L 126.099567 351.882951 
L 123.415584 351.882951 
z
" clip-path="url(#p9c0f78c940)" style="fill: #0000ff; opacity: 0.7"/>
   </g>
   <g id="patch_7">
    <path d="M 126.099567 351.58901 
L 128.78355 351.58901 
L 128.78355 351.58901 
L 126.099567 351.58901 
z
" clip-path="url(#p9c0f78c940)" style="fill: #0000ff; opacity: 0.7"/>
   </g>
   <g id="patch_8">
    <path d="M 128.78355 351.58901 
L 131.467532 351.58901 
L 131.467532 351.58901 
L 128.78355 351.58901 
z
" clip-path="url(#p9c0f78c940)" style="fill: #0000ff; opacity: 0.7"/>
   </g>
   <g id="patch_9">
    <path d="M 131.467532 351.58901 
L 134.151515 351.58901 
L 134.151515 351.58901 
L 131.467532 351.58901 
z
" clip-path="url(#p9c0f78c940)" style="fill: #0000ff; opacity: 0.7"/>
   </g>
   <g id="patch_10">
    <path d="M 134.151515 351.58901 
L 136.835498 351.58901 
L 136.835498 351.58901 
L 134.151515 351.58901 
z
" clip-path="url(#p9c0f78c940)" style="fill: #0000ff; opacity: 0.7"/>
   </g>
   <g id="patch_11">
    <path d="M 136.835498 351.58901 
L 139.519481 351.58901 
L 139.519481 351.58901 
L 136.835498 351.58901 
z
" clip-path="url(#p9c0f78c940)" style="fill: #0000ff; opacity: 0.7"/>
   </g>
   <g id="patch_12">
    <path d="M 139.519481 351.58901 
L 142.203463 351.58901 
L 142.203463 351.58901 
L 139.519481 351.58901 
z
" clip-path="url(#p9c0f78c940)" style="fill: #0000ff; opacity: 0.7"/>
   </g>
   <g id="patch_13">
    <path d="M 142.203463 351.58901 
L 144.887446 351.58901 
L 144.887446 351.58901 
L 142.203463 351.58901 
z
" clip-path="url(#p9c0f78c940)" style="fill: #0000ff; opacity: 0.7"/>
   </g>
   <g id="patch_14">
    <path d="M 144.887446 351.58901 
L 147.571429 351.58901 
L 147.571429 351.58901 
L 144.887446 351.58901 
z
" clip-path="url(#p9c0f78c940)" style="fill: #0000ff; opacity: 0.7"/>
   </g>
   <g id="patch_15">
    <path d="M 147.571429 351.58901 
L 150.255411 351.58901 
L 150.255411 356.319318 
L 147.571429 356.319318 
z
" clip-path="url(#p9c0f78c940)" style="fill: #0000ff; opacity: 0.7"/>
   </g>
   <g id="patch_16">
    <path d="M 150.255411 351.58901 
L 152.939394 351.58901 
L 152.939394 351.58901 
L 150.255411 351.58901 
z
" clip-path="url(#p9c0f78c940)" style="fill: #0000ff; opacity: 0.7"/>
   </g>
   <g id="patch_17">
    <path d="M 152.939394 351.58901 
L 155.623377 351.58901 
L 155.623377 351.58901 
L 152.939394 351.58901 
z
" clip-path="url(#p9c0f78c940)" style="fill: #0000ff; opacity: 0.7"/>
   </g>
   <g id="patch_18">
    <path d="M 155.623377 351.58901 
L 158.307359 351.58901 
L 158.307359 351.58901 
L 155.623377 351.58901 
z
" clip-path="url(#p9c0f78c940)" style="fill: #0000ff; opacity: 0.7"/>
   </g>
   <g id="patch_19">
    <path d="M 158.307359 351.58901 
L 160.991342 351.58901 
L 160.991342 351.58901 
L 158.307359 351.58901 
z
" clip-path="url(#p9c0f78c940)" style="fill: #0000ff; opacity: 0.7"/>
   </g>
   <g id="patch_20">
    <path d="M 160.991342 351.58901 
L 163.675325 351.58901 
L 163.675325 351.58901 
L 160.991342 351.58901 
z
" clip-path="url(#p9c0f78c940)" style="fill: #0000ff; opacity: 0.7"/>
   </g>
   <g id="patch_21">
    <path d="M 163.675325 351.58901 
L 166.359307 351.58901 
L 166.359307 351.58901 
L 163.675325 351.58901 
z
" clip-path="url(#p9c0f78c940)" style="fill: #0000ff; opacity: 0.7"/>
   </g>
   <g id="patch_22">
    <path d="M 166.359307 351.58901 
L 169.04329 351.58901 
L 169.04329 351.58901 
L 166.359307 351.58901 
z
" clip-path="url(#p9c0f78c940)" style="fill: #0000ff; opacity: 0.7"/>
   </g>
   <g id="patch_23">
    <path d="M 169.04329 351.58901 
L 171.727273 351.58901 
L 171.727273 351.58901 
L 169.04329 351.58901 
z
" clip-path="url(#p9c0f78c940)" style="fill: #0000ff; opacity: 0.7"/>
   </g>
   <g id="patch_24">
    <path d="M 171.727273 351.58901 
L 174.411255 351.58901 
L 174.411255 351.58901 
L 171.727273 351.58901 
z
" clip-path="url(#p9c0f78c940)" style="fill: #0000ff; opacity: 0.7"/>
   </g>
   <g id="patch_25">
    <path d="M 174.411255 351.58901 
L 177.095238 351.58901 
L 177.095238 351.58901 
L 174.411255 351.58901 
z
" clip-path="url(#p9c0f78c940)" style="fill: #0000ff; opacity: 0.7"/>
   </g>
   <g id="patch_26">
    <path d="M 177.095238 351.58901 
L 179.779221 351.58901 
L 179.779221 351.784482 
L 177.095238 351.784482 
z
" clip-path="url(#p9c0f78c940)" style="fill: #0000ff; opacity: 0.7"/>
   </g>
   <g id="patch_27">
    <path d="M 179.779221 351.58901 
L 182.463203 351.58901 
L 182.463203 351.58901 
L 179.779221 351.58901 
z
" clip-path="url(#p9c0f78c940)" style="fill: #0000ff; opacity: 0.7"/>
   </g>
   <g id="patch_28">
    <path d="M 182.463203 351.58901 
L 185.147186 351.58901 
L 185.147186 351.58901 
L 182.463203 351.58901 
z
" clip-path="url(#p9c0f78c940)" style="fill: #0000ff; opacity: 0.7"/>
   </g>
   <g id="patch_29">
    <path d="M 185.147186 351.58901 
L 187.831169 351.58901 
L 187.831169 351.58901 
L 185.147186 351.58901 
z
" clip-path="url(#p9c0f78c940)" style="fill: #0000ff; opacity: 0.7"/>
   </g>
   <g id="patch_30">
    <path d="M 187.831169 351.58901 
L 190.515152 351.58901 
L 190.515152 351.58901 
L 187.831169 351.58901 
z
" clip-path="url(#p9c0f78c940)" style="fill: #0000ff; opacity: 0.7"/>
   </g>
   <g id="patch_31">
    <path d="M 190.515152 351.58901 
L 193.199134 351.58901 
L 193.199134 351.58901 
L 190.515152 351.58901 
z
" clip-path="url(#p9c0f78c940)" style="fill: #0000ff; opacity: 0.7"/>
   </g>
   <g id="patch_32">
    <path d="M 193.199134 351.58901 
L 195.883117 351.58901 
L 195.883117 351.58901 
L 193.199134 351.58901 
z
" clip-path="url(#p9c0f78c940)" style="fill: #0000ff; opacity: 0.7"/>
   </g>
   <g id="patch_33">
    <path d="M 195.883117 351.58901 
L 198.5671 351.58901 
L 198.5671 351.58901 
L 195.883117 351.58901 
z
" clip-path="url(#p9c0f78c940)" style="fill: #0000ff; opacity: 0.7"/>
   </g>
   <g id="patch_34">
    <path d="M 198.5671 351.58901 
L 201.251082 351.58901 
L 201.251082 351.58901 
L 198.5671 351.58901 
z
" clip-path="url(#p9c0f78c940)" style="fill: #0000ff; opacity: 0.7"/>
   </g>
   <g id="patch_35">
    <path d="M 201.251082 351.58901 
L 203.935065 351.58901 
L 203.935065 351.58901 
L 201.251082 351.58901 
z
" clip-path="url(#p9c0f78c940)" style="fill: #0000ff; opacity: 0.7"/>
   </g>
   <g id="patch_36">
    <path d="M 203.935065 351.58901 
L 206.619048 351.58901 
L 206.619048 351.58901 
L 203.935065 351.58901 
z
" clip-path="url(#p9c0f78c940)" style="fill: #0000ff; opacity: 0.7"/>
   </g>
   <g id="patch_37">
    <path d="M 206.619048 351.58901 
L 209.30303 351.58901 
L 209.30303 351.58901 
L 206.619048 351.58901 
z
" clip-path="url(#p9c0f78c940)" style="fill: #0000ff; opacity: 0.7"/>
   </g>
   <g id="patch_38">
    <path d="M 209.30303 351.58901 
L 211.987013 351.58901 
L 211.987013 351.58901 
L 209.30303 351.58901 
z
" clip-path="url(#p9c0f78c940)" style="fill: #0000ff; opacity: 0.7"/>
   </g>
   <g id="patch_39">
    <path d="M 211.987013 351.58901 
L 214.670996 351.58901 
L 214.670996 351.58901 
L 211.987013 351.58901 
z
" clip-path="url(#p9c0f78c940)" style="fill: #0000ff; opacity: 0.7"/>
   </g>
   <g id="patch_40">
    <path d="M 214.670996 351.58901 
L 217.354978 351.58901 
L 217.354978 351.58901 
L 214.670996 351.58901 
z
" clip-path="url(#p9c0f78c940)" style="fill: #0000ff; opacity: 0.7"/>
   </g>
   <g id="patch_41">
    <path d="M 217.354978 351.58901 
L 220.038961 351.58901 
L 220.038961 351.58901 
L 217.354978 351.58901 
z
" clip-path="url(#p9c0f78c940)" style="fill: #0000ff; opacity: 0.7"/>
   </g>
   <g id="patch_42">
    <path d="M 220.038961 351.58901 
L 222.722944 351.58901 
L 222.722944 351.58901 
L 220.038961 351.58901 
z
" clip-path="url(#p9c0f78c940)" style="fill: #0000ff; opacity: 0.7"/>
   </g>
   <g id="patch_43">
    <path d="M 222.722944 351.58901 
L 225.406926 351.58901 
L 225.406926 351.58901 
L 222.722944 351.58901 
z
" clip-path="url(#p9c0f78c940)" style="fill: #0000ff; opacity: 0.7"/>
   </g>
   <g id="patch_44">
    <path d="M 225.406926 351.58901 
L 228.090909 351.58901 
L 228.090909 351.58901 
L 225.406926 351.58901 
z
" clip-path="url(#p9c0f78c940)" style="fill: #0000ff; opacity: 0.7"/>
   </g>
   <g id="patch_45">
    <path d="M 228.090909 351.58901 
L 230.774892 351.58901 
L 230.774892 351.58901 
L 228.090909 351.58901 
z
" clip-path="url(#p9c0f78c940)" style="fill: #0000ff; opacity: 0.7"/>
   </g>
   <g id="patch_46">
    <path d="M 229.4329 351.58901 
L 232.116883 351.58901 
L 232.116883 353.057423 
L 229.4329 353.057423 
z
" clip-path="url(#p9c0f78c940)" style="fill: #0000ff; opacity: 0.7"/>
   </g>
   <g id="patch_47">
    <path d="M 232.116883 351.58901 
L 234.800866 351.58901 
L 234.800866 351.58901 
L 232.116883 351.58901 
z
" clip-path="url(#p9c0f78c940)" style="fill: #0000ff; opacity: 0.7"/>
   </g>
   <g id="patch_48">
    <path d="M 234.800866 351.58901 
L 237.484848 351.58901 
L 237.484848 351.58901 
L 234.800866 351.58901 
z
" clip-path="url(#p9c0f78c940)" style="fill: #0000ff; opacity: 0.7"/>
   </g>
   <g id="patch_49">
    <path d="M 237.484848 351.58901 
L 240.168831 351.58901 
L 240.168831 351.58901 
L 237.484848 351.58901 
z
" clip-path="url(#p9c0f78c940)" style="fill: #0000ff; opacity: 0.7"/>
   </g>
   <g id="patch_50">
    <path d="M 240.168831 351.58901 
L 242.852814 351.58901 
L 242.852814 351.58901 
L 240.168831 351.58901 
z
" clip-path="url(#p9c0f78c940)" style="fill: #0000ff; opacity: 0.7"/>
   </g>
   <g id="patch_51">
    <path d="M 242.852814 351.58901 
L 245.536797 351.58901 
L 245.536797 351.58901 
L 242.852814 351.58901 
z
" clip-path="url(#p9c0f78c940)" style="fill: #0000ff; opacity: 0.7"/>
   </g>
   <g id="patch_52">
    <path d="M 245.536797 351.58901 
L 248.220779 351.58901 
L 248.220779 351.58901 
L 245.536797 351.58901 
z
" clip-path="url(#p9c0f78c940)" style="fill: #0000ff; opacity: 0.7"/>
   </g>
   <g id="patch_53">
    <path d="M 248.220779 351.58901 
L 250.904762 351.58901 
L 250.904762 351.58901 
L 248.220779 351.58901 
z
" clip-path="url(#p9c0f78c940)" style="fill: #0000ff; opacity: 0.7"/>
   </g>
   <g id="patch_54">
    <path d="M 250.904762 351.58901 
L 253.588745 351.58901 
L 253.588745 351.58901 
L 250.904762 351.58901 
z
" clip-path="url(#p9c0f78c940)" style="fill: #0000ff; opacity: 0.7"/>
   </g>
   <g id="patch_55">
    <path d="M 253.588745 351.58901 
L 256.272727 351.58901 
L 256.272727 351.58901 
L 253.588745 351.58901 
z
" clip-path="url(#p9c0f78c940)" style="fill: #0000ff; opacity: 0.7"/>
   </g>
   <g id="patch_56">
    <path d="M 254.930736 351.58901 
L 257.614719 351.58901 
L 257.614719 354.622408 
L 254.930736 354.622408 
z
" clip-path="url(#p9c0f78c940)" style="fill: #0000ff; opacity: 0.7"/>
   </g>
   <g id="patch_57">
    <path d="M 257.614719 351.58901 
L 260.298701 351.58901 
L 260.298701 351.58901 
L 257.614719 351.58901 
z
" clip-path="url(#p9c0f78c940)" style="fill: #0000ff; opacity: 0.7"/>
   </g>
   <g id="patch_58">
    <path d="M 260.298701 351.58901 
L 262.982684 351.58901 
L 262.982684 351.58901 
L 260.298701 351.58901 
z
" clip-path="url(#p9c0f78c940)" style="fill: #0000ff; opacity: 0.7"/>
   </g>
   <g id="patch_59">
    <path d="M 262.982684 351.58901 
L 265.666667 351.58901 
L 265.666667 351.58901 
L 262.982684 351.58901 
z
" clip-path="url(#p9c0f78c940)" style="fill: #0000ff; opacity: 0.7"/>
   </g>
   <g id="patch_60">
    <path d="M 265.666667 351.58901 
L 268.350649 351.58901 
L 268.350649 351.58901 
L 265.666667 351.58901 
z
" clip-path="url(#p9c0f78c940)" style="fill: #0000ff; opacity: 0.7"/>
   </g>
   <g id="patch_61">
    <path d="M 268.350649 351.58901 
L 271.034632 351.58901 
L 271.034632 351.58901 
L 268.350649 351.58901 
z
" clip-path="url(#p9c0f78c940)" style="fill: #0000ff; opacity: 0.7"/>
   </g>
   <g id="patch_62">
    <path d="M 271.034632 351.58901 
L 273.718615 351.58901 
L 273.718615 351.58901 
L 271.034632 351.58901 
z
" clip-path="url(#p9c0f78c940)" style="fill: #0000ff; opacity: 0.7"/>
   </g>
   <g id="patch_63">
    <path d="M 273.718615 351.58901 
L 276.402597 351.58901 
L 276.402597 351.58901 
L 273.718615 351.58901 
z
" clip-path="url(#p9c0f78c940)" style="fill: #0000ff; opacity: 0.7"/>
   </g>
   <g id="patch_64">
    <path d="M 276.402597 351.58901 
L 279.08658 351.58901 
L 279.08658 351.58901 
L 276.402597 351.58901 
z
" clip-path="url(#p9c0f78c940)" style="fill: #0000ff; opacity: 0.7"/>
   </g>
   <g id="patch_65">
    <path d="M 279.08658 351.58901 
L 281.770563 351.58901 
L 281.770563 351.58901 
L 279.08658 351.58901 
z
" clip-path="url(#p9c0f78c940)" style="fill: #0000ff; opacity: 0.7"/>
   </g>
   <g id="patch_66">
    <path d="M 281.770563 351.58901 
L 284.454545 351.58901 
L 284.454545 351.58901 
L 281.770563 351.58901 
z
" clip-path="url(#p9c0f78c940)" style="fill: #0000ff; opacity: 0.7"/>
   </g>
   <g id="patch_67">
    <path d="M 284.454545 351.58901 
L 287.138528 351.58901 
L 287.138528 351.58901 
L 284.454545 351.58901 
z
" clip-path="url(#p9c0f78c940)" style="fill: #0000ff; opacity: 0.7"/>
   </g>
   <g id="patch_68">
    <path d="M 287.138528 351.58901 
L 289.822511 351.58901 
L 289.822511 351.58901 
L 287.138528 351.58901 
z
" clip-path="url(#p9c0f78c940)" style="fill: #0000ff; opacity: 0.7"/>
   </g>
   <g id="patch_69">
    <path d="M 288.480519 351.58901 
L 291.164502 351.58901 
L 291.164502 354.021419 
L 288.480519 354.021419 
z
" clip-path="url(#p9c0f78c940)" style="fill: #0000ff; opacity: 0.7"/>
   </g>
   <g id="patch_70">
    <path d="M 291.164502 351.58901 
L 293.848485 351.58901 
L 293.848485 351.58901 
L 291.164502 351.58901 
z
" clip-path="url(#p9c0f78c940)" style="fill: #0000ff; opacity: 0.7"/>
   </g>
   <g id="patch_71">
    <path d="M 293.848485 351.58901 
L 296.532468 351.58901 
L 296.532468 351.58901 
L 293.848485 351.58901 
z
" clip-path="url(#p9c0f78c940)" style="fill: #0000ff; opacity: 0.7"/>
   </g>
   <g id="patch_72">
    <path d="M 296.532468 351.58901 
L 299.21645 351.58901 
L 299.21645 351.58901 
L 296.532468 351.58901 
z
" clip-path="url(#p9c0f78c940)" style="fill: #0000ff; opacity: 0.7"/>
   </g>
   <g id="patch_73">
    <path d="M 299.21645 351.58901 
L 301.900433 351.58901 
L 301.900433 351.58901 
L 299.21645 351.58901 
z
" clip-path="url(#p9c0f78c940)" style="fill: #0000ff; opacity: 0.7"/>
   </g>
   <g id="patch_74">
    <path d="M 301.900433 351.58901 
L 304.584416 351.58901 
L 304.584416 351.58901 
L 301.900433 351.58901 
z
" clip-path="url(#p9c0f78c940)" style="fill: #0000ff; opacity: 0.7"/>
   </g>
   <g id="patch_75">
    <path d="M 304.584416 351.58901 
L 307.268398 351.58901 
L 307.268398 351.58901 
L 304.584416 351.58901 
z
" clip-path="url(#p9c0f78c940)" style="fill: #0000ff; opacity: 0.7"/>
   </g>
   <g id="patch_76">
    <path d="M 307.268398 351.58901 
L 309.952381 351.58901 
L 309.952381 351.58901 
L 307.268398 351.58901 
z
" clip-path="url(#p9c0f78c940)" style="fill: #0000ff; opacity: 0.7"/>
   </g>
   <g id="patch_77">
    <path d="M 309.952381 351.58901 
L 312.636364 351.58901 
L 312.636364 351.58901 
L 309.952381 351.58901 
z
" clip-path="url(#p9c0f78c940)" style="fill: #0000ff; opacity: 0.7"/>
   </g>
   <g id="patch_78">
    <path d="M 312.636364 351.58901 
L 315.320346 351.58901 
L 315.320346 351.58901 
L 312.636364 351.58901 
z
" clip-path="url(#p9c0f78c940)" style="fill: #0000ff; opacity: 0.7"/>
   </g>
   <g id="patch_79">
    <path d="M 315.320346 351.58901 
L 318.004329 351.58901 
L 318.004329 351.58901 
L 315.320346 351.58901 
z
" clip-path="url(#p9c0f78c940)" style="fill: #0000ff; opacity: 0.7"/>
   </g>
   <g id="patch_80">
    <path d="M 318.004329 351.58901 
L 320.688312 351.58901 
L 320.688312 351.58901 
L 318.004329 351.58901 
z
" clip-path="url(#p9c0f78c940)" style="fill: #0000ff; opacity: 0.7"/>
   </g>
   <g id="patch_81">
    <path d="M 320.688312 351.58901 
L 323.372294 351.58901 
L 323.372294 351.58901 
L 320.688312 351.58901 
z
" clip-path="url(#p9c0f78c940)" style="fill: #0000ff; opacity: 0.7"/>
   </g>
   <g id="patch_82">
    <path d="M 323.372294 351.58901 
L 326.056277 351.58901 
L 326.056277 351.58901 
L 323.372294 351.58901 
z
" clip-path="url(#p9c0f78c940)" style="fill: #0000ff; opacity: 0.7"/>
   </g>
   <g id="patch_83">
    <path d="M 326.056277 351.58901 
L 328.74026 351.58901 
L 328.74026 351.58901 
L 326.056277 351.58901 
z
" clip-path="url(#p9c0f78c940)" style="fill: #0000ff; opacity: 0.7"/>
   </g>
   <g id="patch_84">
    <path d="M 328.74026 351.58901 
L 331.424242 351.58901 
L 331.424242 351.58901 
L 328.74026 351.58901 
z
" clip-path="url(#p9c0f78c940)" style="fill: #0000ff; opacity: 0.7"/>
   </g>
   <g id="patch_85">
    <path d="M 331.424242 351.58901 
L 334.108225 351.58901 
L 334.108225 351.58901 
L 331.424242 351.58901 
z
" clip-path="url(#p9c0f78c940)" style="fill: #0000ff; opacity: 0.7"/>
   </g>
   <g id="patch_86">
    <path d="M 334.108225 351.58901 
L 336.792208 351.58901 
L 336.792208 351.58901 
L 334.108225 351.58901 
z
" clip-path="url(#p9c0f78c940)" style="fill: #0000ff; opacity: 0.7"/>
   </g>
   <g id="patch_87">
    <path d="M 335.450216 351.58901 
L 338.134199 351.58901 
L 338.134199 362.505106 
L 335.450216 362.505106 
z
" clip-path="url(#p9c0f78c940)" style="fill: #0000ff; opacity: 0.7"/>
   </g>
   <g id="patch_88">
    <path d="M 338.134199 351.58901 
L 340.818182 351.58901 
L 340.818182 351.58901 
L 338.134199 351.58901 
z
" clip-path="url(#p9c0f78c940)" style="fill: #0000ff; opacity: 0.7"/>
   </g>
   <g id="patch_89">
    <path d="M 340.818182 351.58901 
L 343.502165 351.58901 
L 343.502165 351.58901 
L 340.818182 351.58901 
z
" clip-path="url(#p9c0f78c940)" style="fill: #0000ff; opacity: 0.7"/>
   </g>
   <g id="patch_90">
    <path d="M 343.502165 351.58901 
L 346.186147 351.58901 
L 346.186147 351.58901 
L 343.502165 351.58901 
z
" clip-path="url(#p9c0f78c940)" style="fill: #0000ff; opacity: 0.7"/>
   </g>
   <g id="patch_91">
    <path d="M 346.186147 351.58901 
L 348.87013 351.58901 
L 348.87013 351.58901 
L 346.186147 351.58901 
z
" clip-path="url(#p9c0f78c940)" style="fill: #0000ff; opacity: 0.7"/>
   </g>
   <g id="patch_92">
    <path d="M 348.87013 351.58901 
L 351.554113 351.58901 
L 351.554113 351.58901 
L 348.87013 351.58901 
z
" clip-path="url(#p9c0f78c940)" style="fill: #0000ff; opacity: 0.7"/>
   </g>
   <g id="patch_93">
    <path d="M 351.554113 351.58901 
L 354.238095 351.58901 
L 354.238095 351.58901 
L 351.554113 351.58901 
z
" clip-path="url(#p9c0f78c940)" style="fill: #0000ff; opacity: 0.7"/>
   </g>
   <g id="patch_94">
    <path d="M 354.238095 351.58901 
L 356.922078 351.58901 
L 356.922078 351.58901 
L 354.238095 351.58901 
z
" clip-path="url(#p9c0f78c940)" style="fill: #0000ff; opacity: 0.7"/>
   </g>
   <g id="patch_95">
    <path d="M 356.922078 351.58901 
L 359.606061 351.58901 
L 359.606061 351.58901 
L 356.922078 351.58901 
z
" clip-path="url(#p9c0f78c940)" style="fill: #0000ff; opacity: 0.7"/>
   </g>
   <g id="patch_96">
    <path d="M 359.606061 351.58901 
L 362.290043 351.58901 
L 362.290043 351.58901 
L 359.606061 351.58901 
z
" clip-path="url(#p9c0f78c940)" style="fill: #0000ff; opacity: 0.7"/>
   </g>
   <g id="patch_97">
    <path d="M 362.290043 351.58901 
L 364.974026 351.58901 
L 364.974026 351.58901 
L 362.290043 351.58901 
z
" clip-path="url(#p9c0f78c940)" style="fill: #0000ff; opacity: 0.7"/>
   </g>
   <g id="patch_98">
    <path d="M 364.974026 351.58901 
L 367.658009 351.58901 
L 367.658009 351.58901 
L 364.974026 351.58901 
z
" clip-path="url(#p9c0f78c940)" style="fill: #0000ff; opacity: 0.7"/>
   </g>
   <g id="patch_99">
    <path d="M 367.658009 351.58901 
L 370.341991 351.58901 
L 370.341991 351.58901 
L 367.658009 351.58901 
z
" clip-path="url(#p9c0f78c940)" style="fill: #0000ff; opacity: 0.7"/>
   </g>
   <g id="patch_100">
    <path d="M 370.341991 351.58901 
L 373.025974 351.58901 
L 373.025974 351.58901 
L 370.341991 351.58901 
z
" clip-path="url(#p9c0f78c940)" style="fill: #0000ff; opacity: 0.7"/>
   </g>
   <g id="patch_101">
    <path d="M 373.025974 351.58901 
L 375.709957 351.58901 
L 375.709957 359.822643 
L 373.025974 359.822643 
z
" clip-path="url(#p9c0f78c940)" style="fill: #0000ff; opacity: 0.7"/>
   </g>
   <g id="patch_102">
    <path d="M 375.709957 351.58901 
L 378.393939 351.58901 
L 378.393939 351.58901 
L 375.709957 351.58901 
z
" clip-path="url(#p9c0f78c940)" style="fill: #0000ff; opacity: 0.7"/>
   </g>
   <g id="patch_103">
    <path d="M 378.393939 351.58901 
L 381.077922 351.58901 
L 381.077922 351.58901 
L 378.393939 351.58901 
z
" clip-path="url(#p9c0f78c940)" style="fill: #0000ff; opacity: 0.7"/>
   </g>
   <g id="patch_104">
    <path d="M 381.077922 351.58901 
L 383.761905 351.58901 
L 383.761905 351.58901 
L 381.077922 351.58901 
z
" clip-path="url(#p9c0f78c940)" style="fill: #0000ff; opacity: 0.7"/>
   </g>
   <g id="patch_105">
    <path d="M 383.761905 351.58901 
L 386.445887 351.58901 
L 386.445887 351.58901 
L 383.761905 351.58901 
z
" clip-path="url(#p9c0f78c940)" style="fill: #0000ff; opacity: 0.7"/>
   </g>
   <g id="patch_106">
    <path d="M 386.445887 351.58901 
L 389.12987 351.58901 
L 389.12987 351.58901 
L 386.445887 351.58901 
z
" clip-path="url(#p9c0f78c940)" style="fill: #0000ff; opacity: 0.7"/>
   </g>
   <g id="patch_107">
    <path d="M 389.12987 351.58901 
L 391.813853 351.58901 
L 391.813853 351.58901 
L 389.12987 351.58901 
z
" clip-path="url(#p9c0f78c940)" style="fill: #0000ff; opacity: 0.7"/>
   </g>
   <g id="patch_108">
    <path d="M 391.813853 351.58901 
L 394.497835 351.58901 
L 394.497835 351.58901 
L 391.813853 351.58901 
z
" clip-path="url(#p9c0f78c940)" style="fill: #0000ff; opacity: 0.7"/>
   </g>
   <g id="patch_109">
    <path d="M 394.497835 351.58901 
L 397.181818 351.58901 
L 397.181818 351.58901 
L 394.497835 351.58901 
z
" clip-path="url(#p9c0f78c940)" style="fill: #0000ff; opacity: 0.7"/>
   </g>
   <g id="patch_110">
    <path d="M 397.181818 351.58901 
L 399.865801 351.58901 
L 399.865801 351.58901 
L 397.181818 351.58901 
z
" clip-path="url(#p9c0f78c940)" style="fill: #0000ff; opacity: 0.7"/>
   </g>
   <g id="patch_111">
    <path d="M 399.865801 351.58901 
L 402.549784 351.58901 
L 402.549784 351.58901 
L 399.865801 351.58901 
z
" clip-path="url(#p9c0f78c940)" style="fill: #0000ff; opacity: 0.7"/>
   </g>
   <g id="patch_112">
    <path d="M 402.549784 351.58901 
L 405.233766 351.58901 
L 405.233766 351.58901 
L 402.549784 351.58901 
z
" clip-path="url(#p9c0f78c940)" style="fill: #0000ff; opacity: 0.7"/>
   </g>
   <g id="patch_113">
    <path d="M 405.233766 351.58901 
L 407.917749 351.58901 
L 407.917749 351.58901 
L 405.233766 351.58901 
z
" clip-path="url(#p9c0f78c940)" style="fill: #0000ff; opacity: 0.7"/>
   </g>
   <g id="patch_114">
    <path d="M 407.917749 351.58901 
L 410.601732 351.58901 
L 410.601732 351.58901 
L 407.917749 351.58901 
z
" clip-path="url(#p9c0f78c940)" style="fill: #0000ff; opacity: 0.7"/>
   </g>
   <g id="patch_115">
    <path d="M 410.601732 351.58901 
L 413.285714 351.58901 
L 413.285714 351.58901 
L 410.601732 351.58901 
z
" clip-path="url(#p9c0f78c940)" style="fill: #0000ff; opacity: 0.7"/>
   </g>
   <g id="patch_116">
    <path d="M 413.285714 351.58901 
L 415.969697 351.58901 
L 415.969697 351.58901 
L 413.285714 351.58901 
z
" clip-path="url(#p9c0f78c940)" style="fill: #0000ff; opacity: 0.7"/>
   </g>
   <g id="patch_117">
    <path d="M 415.969697 351.58901 
L 418.65368 351.58901 
L 418.65368 363.324244 
L 415.969697 363.324244 
z
" clip-path="url(#p9c0f78c940)" style="fill: #0000ff; opacity: 0.7"/>
   </g>
   <g id="patch_118">
    <path d="M 418.65368 351.58901 
L 421.337662 351.58901 
L 421.337662 351.58901 
L 418.65368 351.58901 
z
" clip-path="url(#p9c0f78c940)" style="fill: #0000ff; opacity: 0.7"/>
   </g>
   <g id="patch_119">
    <path d="M 421.337662 351.58901 
L 424.021645 351.58901 
L 424.021645 351.58901 
L 421.337662 351.58901 
z
" clip-path="url(#p9c0f78c940)" style="fill: #0000ff; opacity: 0.7"/>
   </g>
   <g id="patch_120">
    <path d="M 424.021645 351.58901 
L 426.705628 351.58901 
L 426.705628 351.58901 
L 424.021645 351.58901 
z
" clip-path="url(#p9c0f78c940)" style="fill: #0000ff; opacity: 0.7"/>
   </g>
   <g id="patch_121">
    <path d="M 426.705628 351.58901 
L 429.38961 351.58901 
L 429.38961 351.58901 
L 426.705628 351.58901 
z
" clip-path="url(#p9c0f78c940)" style="fill: #0000ff; opacity: 0.7"/>
   </g>
   <g id="patch_122">
    <path d="M 429.38961 351.58901 
L 432.073593 351.58901 
L 432.073593 351.58901 
L 429.38961 351.58901 
z
" clip-path="url(#p9c0f78c940)" style="fill: #0000ff; opacity: 0.7"/>
   </g>
   <g id="patch_123">
    <path d="M 432.073593 351.58901 
L 434.757576 351.58901 
L 434.757576 351.58901 
L 432.073593 351.58901 
z
" clip-path="url(#p9c0f78c940)" style="fill: #0000ff; opacity: 0.7"/>
   </g>
   <g id="patch_124">
    <path d="M 434.757576 351.58901 
L 437.441558 351.58901 
L 437.441558 351.58901 
L 434.757576 351.58901 
z
" clip-path="url(#p9c0f78c940)" style="fill: #0000ff; opacity: 0.7"/>
   </g>
   <g id="patch_125">
    <path d="M 437.441558 351.58901 
L 440.125541 351.58901 
L 440.125541 351.58901 
L 437.441558 351.58901 
z
" clip-path="url(#p9c0f78c940)" style="fill: #0000ff; opacity: 0.7"/>
   </g>
   <g id="patch_126">
    <path d="M 440.125541 351.58901 
L 442.809524 351.58901 
L 442.809524 351.58901 
L 440.125541 351.58901 
z
" clip-path="url(#p9c0f78c940)" style="fill: #0000ff; opacity: 0.7"/>
   </g>
   <g id="patch_127">
    <path d="M 442.809524 351.58901 
L 445.493506 351.58901 
L 445.493506 351.58901 
L 442.809524 351.58901 
z
" clip-path="url(#p9c0f78c940)" style="fill: #0000ff; opacity: 0.7"/>
   </g>
   <g id="patch_128">
    <path d="M 445.493506 351.58901 
L 448.177489 351.58901 
L 448.177489 351.58901 
L 445.493506 351.58901 
z
" clip-path="url(#p9c0f78c940)" style="fill: #0000ff; opacity: 0.7"/>
   </g>
   <g id="patch_129">
    <path d="M 448.177489 351.58901 
L 450.861472 351.58901 
L 450.861472 351.58901 
L 448.177489 351.58901 
z
" clip-path="url(#p9c0f78c940)" style="fill: #0000ff; opacity: 0.7"/>
   </g>
   <g id="patch_130">
    <path d="M 450.861472 351.58901 
L 453.545455 351.58901 
L 453.545455 351.58901 
L 450.861472 351.58901 
z
" clip-path="url(#p9c0f78c940)" style="fill: #0000ff; opacity: 0.7"/>
   </g>
   <g id="patch_131">
    <path d="M 453.545455 351.58901 
L 456.229437 351.58901 
L 456.229437 351.58901 
L 453.545455 351.58901 
z
" clip-path="url(#p9c0f78c940)" style="fill: #0000ff; opacity: 0.7"/>
   </g>
   <g id="patch_132">
    <path d="M 456.229437 351.58901 
L 458.91342 351.58901 
L 458.91342 351.58901 
L 456.229437 351.58901 
z
" clip-path="url(#p9c0f78c940)" style="fill: #0000ff; opacity: 0.7"/>
   </g>
   <g id="patch_133">
    <path d="M 458.91342 351.58901 
L 461.597403 351.58901 
L 461.597403 351.58901 
L 458.91342 351.58901 
z
" clip-path="url(#p9c0f78c940)" style="fill: #0000ff; opacity: 0.7"/>
   </g>
   <g id="patch_134">
    <path d="M 461.597403 351.58901 
L 464.281385 351.58901 
L 464.281385 359.401003 
L 461.597403 359.401003 
z
" clip-path="url(#p9c0f78c940)" style="fill: #0000ff; opacity: 0.7"/>
   </g>
   <g id="patch_135">
    <path d="M 464.281385 351.58901 
L 466.965368 351.58901 
L 466.965368 351.58901 
L 464.281385 351.58901 
z
" clip-path="url(#p9c0f78c940)" style="fill: #0000ff; opacity: 0.7"/>
   </g>
   <g id="patch_136">
    <path d="M 466.965368 351.58901 
L 469.649351 351.58901 
L 469.649351 351.58901 
L 466.965368 351.58901 
z
" clip-path="url(#p9c0f78c940)" style="fill: #0000ff; opacity: 0.7"/>
   </g>
   <g id="patch_137">
    <path d="M 469.649351 351.58901 
L 472.333333 351.58901 
L 472.333333 351.58901 
L 469.649351 351.58901 
z
" clip-path="url(#p9c0f78c940)" style="fill: #0000ff; opacity: 0.7"/>
   </g>
   <g id="patch_138">
    <path d="M 472.333333 351.58901 
L 475.017316 351.58901 
L 475.017316 351.58901 
L 472.333333 351.58901 
z
" clip-path="url(#p9c0f78c940)" style="fill: #0000ff; opacity: 0.7"/>
   </g>
   <g id="patch_139">
    <path d="M 475.017316 351.58901 
L 477.701299 351.58901 
L 477.701299 351.58901 
L 475.017316 351.58901 
z
" clip-path="url(#p9c0f78c940)" style="fill: #0000ff; opacity: 0.7"/>
   </g>
   <g id="patch_140">
    <path d="M 477.701299 351.58901 
L 480.385281 351.58901 
L 480.385281 351.58901 
L 477.701299 351.58901 
z
" clip-path="url(#p9c0f78c940)" style="fill: #0000ff; opacity: 0.7"/>
   </g>
   <g id="patch_141">
    <path d="M 480.385281 351.58901 
L 483.069264 351.58901 
L 483.069264 351.58901 
L 480.385281 351.58901 
z
" clip-path="url(#p9c0f78c940)" style="fill: #0000ff; opacity: 0.7"/>
   </g>
   <g id="patch_142">
    <path d="M 483.069264 351.58901 
L 485.753247 351.58901 
L 485.753247 351.58901 
L 483.069264 351.58901 
z
" clip-path="url(#p9c0f78c940)" style="fill: #0000ff; opacity: 0.7"/>
   </g>
   <g id="patch_143">
    <path d="M 485.753247 351.58901 
L 488.437229 351.58901 
L 488.437229 351.58901 
L 485.753247 351.58901 
z
" clip-path="url(#p9c0f78c940)" style="fill: #0000ff; opacity: 0.7"/>
   </g>
   <g id="patch_144">
    <path d="M 488.437229 351.58901 
L 491.121212 351.58901 
L 491.121212 351.58901 
L 488.437229 351.58901 
z
" clip-path="url(#p9c0f78c940)" style="fill: #0000ff; opacity: 0.7"/>
   </g>
   <g id="patch_145">
    <path d="M 491.121212 351.58901 
L 493.805195 351.58901 
L 493.805195 351.58901 
L 491.121212 351.58901 
z
" clip-path="url(#p9c0f78c940)" style="fill: #0000ff; opacity: 0.7"/>
   </g>
   <g id="patch_146">
    <path d="M 492.463203 351.58901 
L 495.147186 351.58901 
L 495.147186 369.36 
L 492.463203 369.36 
z
" clip-path="url(#p9c0f78c940)" style="fill: #0000ff; opacity: 0.7"/>
   </g>
   <g id="patch_147">
    <path d="M 495.147186 351.58901 
L 497.831169 351.58901 
L 497.831169 351.58901 
L 495.147186 351.58901 
z
" clip-path="url(#p9c0f78c940)" style="fill: #0000ff; opacity: 0.7"/>
   </g>
   <g id="patch_148">
    <path d="M 497.831169 351.58901 
L 500.515152 351.58901 
L 500.515152 351.58901 
L 497.831169 351.58901 
z
" clip-path="url(#p9c0f78c940)" style="fill: #0000ff; opacity: 0.7"/>
   </g>
   <g id="patch_149">
    <path d="M 500.515152 351.58901 
L 503.199134 351.58901 
L 503.199134 351.58901 
L 500.515152 351.58901 
z
" clip-path="url(#p9c0f78c940)" style="fill: #0000ff; opacity: 0.7"/>
   </g>
   <g id="patch_150">
    <path d="M 503.199134 351.58901 
L 505.883117 351.58901 
L 505.883117 351.58901 
L 503.199134 351.58901 
z
" clip-path="url(#p9c0f78c940)" style="fill: #0000ff; opacity: 0.7"/>
   </g>
   <g id="patch_151">
    <path d="M 505.883117 351.58901 
L 508.5671 351.58901 
L 508.5671 351.58901 
L 505.883117 351.58901 
z
" clip-path="url(#p9c0f78c940)" style="fill: #0000ff; opacity: 0.7"/>
   </g>
   <g id="patch_152">
    <path d="M 508.5671 351.58901 
L 511.251082 351.58901 
L 511.251082 351.58901 
L 508.5671 351.58901 
z
" clip-path="url(#p9c0f78c940)" style="fill: #0000ff; opacity: 0.7"/>
   </g>
   <g id="patch_153">
    <path d="M 511.251082 351.58901 
L 513.935065 351.58901 
L 513.935065 351.58901 
L 511.251082 351.58901 
z
" clip-path="url(#p9c0f78c940)" style="fill: #0000ff; opacity: 0.7"/>
   </g>
   <g id="patch_154">
    <path d="M 513.935065 351.58901 
L 516.619048 351.58901 
L 516.619048 351.58901 
L 513.935065 351.58901 
z
" clip-path="url(#p9c0f78c940)" style="fill: #0000ff; opacity: 0.7"/>
   </g>
   <g id="patch_155">
    <path d="M 516.619048 351.58901 
L 519.30303 351.58901 
L 519.30303 351.58901 
L 516.619048 351.58901 
z
" clip-path="url(#p9c0f78c940)" style="fill: #0000ff; opacity: 0.7"/>
   </g>
   <g id="patch_156">
    <path d="M 519.30303 351.58901 
L 521.987013 351.58901 
L 521.987013 351.58901 
L 519.30303 351.58901 
z
" clip-path="url(#p9c0f78c940)" style="fill: #0000ff; opacity: 0.7"/>
   </g>
   <g id="patch_157">
    <path d="M 521.987013 351.58901 
L 524.670996 351.58901 
L 524.670996 351.58901 
L 521.987013 351.58901 
z
" clip-path="url(#p9c0f78c940)" style="fill: #0000ff; opacity: 0.7"/>
   </g>
   <g id="patch_158">
    <path d="M 524.670996 351.58901 
L 527.354978 351.58901 
L 527.354978 351.58901 
L 524.670996 351.58901 
z
" clip-path="url(#p9c0f78c940)" style="fill: #0000ff; opacity: 0.7"/>
   </g>
   <g id="patch_159">
    <path d="M 527.354978 351.58901 
L 530.038961 351.58901 
L 530.038961 351.58901 
L 527.354978 351.58901 
z
" clip-path="url(#p9c0f78c940)" style="fill: #0000ff; opacity: 0.7"/>
   </g>
   <g id="patch_160">
    <path d="M 530.038961 351.58901 
L 532.722944 351.58901 
L 532.722944 351.58901 
L 530.038961 351.58901 
z
" clip-path="url(#p9c0f78c940)" style="fill: #0000ff; opacity: 0.7"/>
   </g>
   <g id="patch_161">
    <path d="M 532.722944 351.58901 
L 535.406926 351.58901 
L 535.406926 351.58901 
L 532.722944 351.58901 
z
" clip-path="url(#p9c0f78c940)" style="fill: #0000ff; opacity: 0.7"/>
   </g>
   <g id="patch_162">
    <path d="M 535.406926 351.58901 
L 538.090909 351.58901 
L 538.090909 351.58901 
L 535.406926 351.58901 
z
" clip-path="url(#p9c0f78c940)" style="fill: #0000ff; opacity: 0.7"/>
   </g>
   <g id="patch_163">
    <path d="M 538.090909 351.58901 
L 540.774892 351.58901 
L 540.774892 351.58901 
L 538.090909 351.58901 
z
" clip-path="url(#p9c0f78c940)" style="fill: #0000ff; opacity: 0.7"/>
   </g>
   <g id="patch_164">
    <path d="M 540.774892 351.58901 
L 543.458874 351.58901 
L 543.458874 351.58901 
L 540.774892 351.58901 
z
" clip-path="url(#p9c0f78c940)" style="fill: #0000ff; opacity: 0.7"/>
   </g>
   <g id="patch_165">
    <path d="M 543.458874 351.58901 
L 546.142857 351.58901 
L 546.142857 351.58901 
L 543.458874 351.58901 
z
" clip-path="url(#p9c0f78c940)" style="fill: #0000ff; opacity: 0.7"/>
   </g>
   <g id="patch_166">
    <path d="M 546.142857 351.58901 
L 548.82684 351.58901 
L 548.82684 351.58901 
L 546.142857 351.58901 
z
" clip-path="url(#p9c0f78c940)" style="fill: #0000ff; opacity: 0.7"/>
   </g>
   <g id="patch_167">
    <path d="M 548.82684 351.58901 
L 551.510823 351.58901 
L 551.510823 351.58901 
L 548.82684 351.58901 
z
" clip-path="url(#p9c0f78c940)" style="fill: #0000ff; opacity: 0.7"/>
   </g>
   <g id="patch_168">
    <path d="M 551.510823 351.58901 
L 554.194805 351.58901 
L 554.194805 351.58901 
L 551.510823 351.58901 
z
" clip-path="url(#p9c0f78c940)" style="fill: #0000ff; opacity: 0.7"/>
   </g>
   <g id="patch_169">
    <path d="M 554.194805 351.58901 
L 556.878788 351.58901 
L 556.878788 351.58901 
L 554.194805 351.58901 
z
" clip-path="url(#p9c0f78c940)" style="fill: #0000ff; opacity: 0.7"/>
   </g>
   <g id="patch_170">
    <path d="M 556.878788 351.58901 
L 559.562771 351.58901 
L 559.562771 351.58901 
L 556.878788 351.58901 
z
" clip-path="url(#p9c0f78c940)" style="fill: #0000ff; opacity: 0.7"/>
   </g>
   <g id="patch_171">
    <path d="M 559.562771 351.58901 
L 562.246753 351.58901 
L 562.246753 351.58901 
L 559.562771 351.58901 
z
" clip-path="url(#p9c0f78c940)" style="fill: #0000ff; opacity: 0.7"/>
   </g>
   <g id="patch_172">
    <path d="M 562.246753 351.58901 
L 564.930736 351.58901 
L 564.930736 351.58901 
L 562.246753 351.58901 
z
" clip-path="url(#p9c0f78c940)" style="fill: #0000ff; opacity: 0.7"/>
   </g>
   <g id="patch_173">
    <path d="M 564.930736 351.58901 
L 567.614719 351.58901 
L 567.614719 351.58901 
L 564.930736 351.58901 
z
" clip-path="url(#p9c0f78c940)" style="fill: #0000ff; opacity: 0.7"/>
   </g>
   <g id="patch_174">
    <path d="M 567.614719 351.58901 
L 570.298701 351.58901 
L 570.298701 351.58901 
L 567.614719 351.58901 
z
" clip-path="url(#p9c0f78c940)" style="fill: #0000ff; opacity: 0.7"/>
   </g>
   <g id="patch_175">
    <path d="M 568.95671 351.58901 
L 571.640693 351.58901 
L 571.640693 355.313933 
L 568.95671 355.313933 
z
" clip-path="url(#p9c0f78c940)" style="fill: #0000ff; opacity: 0.7"/>
   </g>
   <g id="patch_176">
    <path d="M 571.640693 351.58901 
L 574.324675 351.58901 
L 574.324675 351.58901 
L 571.640693 351.58901 
z
" clip-path="url(#p9c0f78c940)" style="fill: #0000ff; opacity: 0.7"/>
   </g>
   <g id="patch_177">
    <path d="M 574.324675 351.58901 
L 577.008658 351.58901 
L 577.008658 351.58901 
L 574.324675 351.58901 
z
" clip-path="url(#p9c0f78c940)" style="fill: #0000ff; opacity: 0.7"/>
   </g>
   <g id="patch_178">
    <path d="M 577.008658 351.58901 
L 579.692641 351.58901 
L 579.692641 351.58901 
L 577.008658 351.58901 
z
" clip-path="url(#p9c0f78c940)" style="fill: #0000ff; opacity: 0.7"/>
   </g>
   <g id="patch_179">
    <path d="M 579.692641 351.58901 
L 582.376623 351.58901 
L 582.376623 351.58901 
L 579.692641 351.58901 
z
" clip-path="url(#p9c0f78c940)" style="fill: #0000ff; opacity: 0.7"/>
   </g>
   <g id="patch_180">
    <path d="M 582.376623 351.58901 
L 585.060606 351.58901 
L 585.060606 351.58901 
L 582.376623 351.58901 
z
" clip-path="url(#p9c0f78c940)" style="fill: #0000ff; opacity: 0.7"/>
   </g>
   <g id="patch_181">
    <path d="M 585.060606 351.58901 
L 587.744589 351.58901 
L 587.744589 351.58901 
L 585.060606 351.58901 
z
" clip-path="url(#p9c0f78c940)" style="fill: #0000ff; opacity: 0.7"/>
   </g>
   <g id="patch_182">
    <path d="M 587.744589 351.58901 
L 590.428571 351.58901 
L 590.428571 351.58901 
L 587.744589 351.58901 
z
" clip-path="url(#p9c0f78c940)" style="fill: #0000ff; opacity: 0.7"/>
   </g>
   <g id="patch_183">
    <path d="M 590.428571 351.58901 
L 593.112554 351.58901 
L 593.112554 351.58901 
L 590.428571 351.58901 
z
" clip-path="url(#p9c0f78c940)" style="fill: #0000ff; opacity: 0.7"/>
   </g>
   <g id="patch_184">
    <path d="M 593.112554 351.58901 
L 595.796537 351.58901 
L 595.796537 351.58901 
L 593.112554 351.58901 
z
" clip-path="url(#p9c0f78c940)" style="fill: #0000ff; opacity: 0.7"/>
   </g>
   <g id="patch_185">
    <path d="M 595.796537 351.58901 
L 598.480519 351.58901 
L 598.480519 351.58901 
L 595.796537 351.58901 
z
" clip-path="url(#p9c0f78c940)" style="fill: #0000ff; opacity: 0.7"/>
   </g>
   <g id="patch_186">
    <path d="M 598.480519 351.58901 
L 601.164502 351.58901 
L 601.164502 351.58901 
L 598.480519 351.58901 
z
" clip-path="url(#p9c0f78c940)" style="fill: #0000ff; opacity: 0.7"/>
   </g>
   <g id="patch_187">
    <path d="M 601.164502 351.58901 
L 603.848485 351.58901 
L 603.848485 351.58901 
L 601.164502 351.58901 
z
" clip-path="url(#p9c0f78c940)" style="fill: #0000ff; opacity: 0.7"/>
   </g>
   <g id="patch_188">
    <path d="M 603.848485 351.58901 
L 606.532468 351.58901 
L 606.532468 351.58901 
L 603.848485 351.58901 
z
" clip-path="url(#p9c0f78c940)" style="fill: #0000ff; opacity: 0.7"/>
   </g>
   <g id="patch_189">
    <path d="M 606.532468 351.58901 
L 609.21645 351.58901 
L 609.21645 351.58901 
L 606.532468 351.58901 
z
" clip-path="url(#p9c0f78c940)" style="fill: #0000ff; opacity: 0.7"/>
   </g>
   <g id="patch_190">
    <path d="M 609.21645 351.58901 
L 611.900433 351.58901 
L 611.900433 357.829119 
L 609.21645 357.829119 
z
" clip-path="url(#p9c0f78c940)" style="fill: #0000ff; opacity: 0.7"/>
   </g>
   <g id="patch_191">
    <path d="M 611.900433 351.58901 
L 614.584416 351.58901 
L 614.584416 351.58901 
L 611.900433 351.58901 
z
" clip-path="url(#p9c0f78c940)" style="fill: #0000ff; opacity: 0.7"/>
   </g>
   <g id="patch_192">
    <path d="M 614.584416 351.58901 
L 617.268398 351.58901 
L 617.268398 351.58901 
L 614.584416 351.58901 
z
" clip-path="url(#p9c0f78c940)" style="fill: #0000ff; opacity: 0.7"/>
   </g>
   <g id="patch_193">
    <path d="M 617.268398 351.58901 
L 619.952381 351.58901 
L 619.952381 351.58901 
L 617.268398 351.58901 
z
" clip-path="url(#p9c0f78c940)" style="fill: #0000ff; opacity: 0.7"/>
   </g>
   <g id="patch_194">
    <path d="M 619.952381 351.58901 
L 622.636364 351.58901 
L 622.636364 351.58901 
L 619.952381 351.58901 
z
" clip-path="url(#p9c0f78c940)" style="fill: #0000ff; opacity: 0.7"/>
   </g>
   <g id="patch_195">
    <path d="M 217.758902 351.58901 
L 218.295699 351.58901 
L 218.295699 347.460793 
L 217.758902 347.460793 
z
" clip-path="url(#p9c0f78c940)" style="opacity: 0.7"/>
   </g>
   <g id="patch_196">
    <path d="M 222.661959 351.58901 
L 223.198756 351.58901 
L 223.198756 345.035468 
L 222.661959 345.035468 
z
" clip-path="url(#p9c0f78c940)" style="opacity: 0.7"/>
   </g>
   <g id="patch_197">
    <path d="M 225.463706 351.58901 
L 226.000502 351.58901 
L 226.000502 344.615585 
L 225.463706 344.615585 
z
" clip-path="url(#p9c0f78c940)" style="opacity: 0.7"/>
   </g>
   <g id="patch_198">
    <path d="M 229.666326 351.58901 
L 230.203122 351.58901 
L 230.203122 331.733832 
L 229.666326 331.733832 
z
" clip-path="url(#p9c0f78c940)" style="opacity: 0.7"/>
   </g>
   <g id="patch_199">
    <path d="M 235.970256 351.58901 
L 236.507053 351.58901 
L 236.507053 340.229078 
L 235.970256 340.229078 
z
" clip-path="url(#p9c0f78c940)" style="opacity: 0.7"/>
   </g>
   <g id="patch_200">
    <path d="M 237.371129 351.58901 
L 237.907926 351.58901 
L 237.907926 340.390639 
L 237.371129 340.390639 
z
" clip-path="url(#p9c0f78c940)" style="opacity: 0.7"/>
   </g>
   <g id="patch_201">
    <path d="M 244.375496 351.58901 
L 244.912293 351.58901 
L 244.912293 324.570989 
L 244.375496 324.570989 
z
" clip-path="url(#p9c0f78c940)" style="opacity: 0.7"/>
   </g>
   <g id="patch_202">
    <path d="M 247.877679 351.58901 
L 248.414476 351.58901 
L 248.414476 314.371184 
L 247.877679 314.371184 
z
" clip-path="url(#p9c0f78c940)" style="opacity: 0.7"/>
   </g>
   <g id="patch_203">
    <path d="M 252.780736 351.58901 
L 253.317533 351.58901 
L 253.317533 329.096007 
L 252.780736 329.096007 
z
" clip-path="url(#p9c0f78c940)" style="opacity: 0.7"/>
   </g>
   <g id="patch_204">
    <path d="M 255.582483 351.58901 
L 256.119279 351.58901 
L 256.119279 328.956103 
L 255.582483 328.956103 
z
" clip-path="url(#p9c0f78c940)" style="opacity: 0.7"/>
   </g>
   <g id="patch_205">
    <path d="M 260.48554 351.58901 
L 261.022336 351.58901 
L 261.022336 343.025511 
L 260.48554 343.025511 
z
" clip-path="url(#p9c0f78c940)" style="opacity: 0.7"/>
   </g>
   <g id="patch_206">
    <path d="M 262.58685 351.58901 
L 263.123646 351.58901 
L 263.123646 345.099917 
L 262.58685 345.099917 
z
" clip-path="url(#p9c0f78c940)" style="opacity: 0.7"/>
   </g>
   <g id="patch_207">
    <path d="M 268.190343 351.58901 
L 268.72714 351.58901 
L 268.72714 345.063715 
L 268.190343 345.063715 
z
" clip-path="url(#p9c0f78c940)" style="opacity: 0.7"/>
   </g>
   <g id="patch_208">
    <path d="M 273.793836 351.58901 
L 274.330633 351.58901 
L 274.330633 347.408668 
L 273.793836 347.408668 
z
" clip-path="url(#p9c0f78c940)" style="opacity: 0.7"/>
   </g>
   <g id="patch_209">
    <path d="M 277.996457 351.58901 
L 278.533253 351.58901 
L 278.533253 348.824142 
L 277.996457 348.824142 
z
" clip-path="url(#p9c0f78c940)" style="opacity: 0.7"/>
   </g>
   <g id="patch_210">
    <path d="M 280.097767 351.58901 
L 280.634563 351.58901 
L 280.634563 348.605283 
L 280.097767 348.605283 
z
" clip-path="url(#p9c0f78c940)" style="opacity: 0.7"/>
   </g>
   <g id="patch_211">
    <path d="M 283.59995 351.58901 
L 284.136746 351.58901 
L 284.136746 350.184182 
L 283.59995 350.184182 
z
" clip-path="url(#p9c0f78c940)" style="opacity: 0.7"/>
   </g>
   <g id="patch_212">
    <path d="M 287.102133 351.58901 
L 287.63893 351.58901 
L 287.63893 348.775133 
L 287.102133 348.775133 
z
" clip-path="url(#p9c0f78c940)" style="opacity: 0.7"/>
   </g>
   <g id="patch_213">
    <path d="M 290.604317 351.58901 
L 291.141113 351.58901 
L 291.141113 343.251959 
L 290.604317 343.251959 
z
" clip-path="url(#p9c0f78c940)" style="opacity: 0.7"/>
   </g>
   <g id="patch_214">
    <path d="M 293.406063 351.58901 
L 293.94286 351.58901 
L 293.94286 326.803428 
L 293.406063 326.803428 
z
" clip-path="url(#p9c0f78c940)" style="opacity: 0.7"/>
   </g>
   <g id="patch_215">
    <path d="M 300.41043 351.58901 
L 300.947227 351.58901 
L 300.947227 348.738673 
L 300.41043 348.738673 
z
" clip-path="url(#p9c0f78c940)" style="opacity: 0.7"/>
   </g>
   <g id="patch_216">
    <path d="M 303.212177 351.58901 
L 303.748973 351.58901 
L 303.748973 339.271716 
L 303.212177 339.271716 
z
" clip-path="url(#p9c0f78c940)" style="opacity: 0.7"/>
   </g>
   <g id="patch_217">
    <path d="M 307.414797 351.58901 
L 307.951593 351.58901 
L 307.951593 342.769488 
L 307.414797 342.769488 
z
" clip-path="url(#p9c0f78c940)" style="opacity: 0.7"/>
   </g>
   <g id="patch_218">
    <path d="M 313.718727 351.58901 
L 314.255524 351.58901 
L 314.255524 345.815769 
L 313.718727 345.815769 
z
" clip-path="url(#p9c0f78c940)" style="opacity: 0.7"/>
   </g>
   <g id="patch_219">
    <path d="M 317.921347 351.58901 
L 318.458144 351.58901 
L 318.458144 344.11983 
L 317.921347 344.11983 
z
" clip-path="url(#p9c0f78c940)" style="opacity: 0.7"/>
   </g>
   <g id="patch_220">
    <path d="M 322.123967 351.58901 
L 322.660764 351.58901 
L 322.660764 344.917828 
L 322.123967 344.917828 
z
" clip-path="url(#p9c0f78c940)" style="opacity: 0.7"/>
   </g>
   <g id="patch_221">
    <path d="M 326.326587 351.58901 
L 326.863384 351.58901 
L 326.863384 329.067944 
L 326.326587 329.067944 
z
" clip-path="url(#p9c0f78c940)" style="opacity: 0.7"/>
   </g>
   <g id="patch_222">
    <path d="M 331.229644 351.58901 
L 331.76644 351.58901 
L 331.76644 336.076779 
L 331.229644 336.076779 
z
" clip-path="url(#p9c0f78c940)" style="opacity: 0.7"/>
   </g>
   <g id="patch_223">
    <path d="M 336.132701 351.58901 
L 336.669497 351.58901 
L 336.669497 66.96 
L 336.132701 66.96 
z
" clip-path="url(#p9c0f78c940)" style="opacity: 0.7"/>
   </g>
   <g id="patch_224">
    <path d="M 343.137067 351.58901 
L 343.673864 351.58901 
L 343.673864 347.653255 
L 343.137067 347.653255 
z
" clip-path="url(#p9c0f78c940)" style="opacity: 0.7"/>
   </g>
   <g id="patch_225">
    <path d="M 347.339687 351.58901 
L 347.876484 351.58901 
L 347.876484 330.214752 
L 347.339687 330.214752 
z
" clip-path="url(#p9c0f78c940)" style="opacity: 0.7"/>
   </g>
   <g id="patch_226">
    <path d="M 352.242744 351.58901 
L 352.779541 351.58901 
L 352.779541 294.361409 
L 352.242744 294.361409 
z
" clip-path="url(#p9c0f78c940)" style="opacity: 0.7"/>
   </g>
   <g id="patch_227">
    <path d="M 357.145801 351.58901 
L 357.682597 351.58901 
L 357.682597 324.465783 
L 357.145801 324.465783 
z
" clip-path="url(#p9c0f78c940)" style="opacity: 0.7"/>
   </g>
   <g id="patch_228">
    <path d="M 359.947548 351.58901 
L 360.484344 351.58901 
L 360.484344 345.232061 
L 359.947548 345.232061 
z
" clip-path="url(#p9c0f78c940)" style="opacity: 0.7"/>
   </g>
   <g id="patch_229">
    <path d="M 364.850604 351.58901 
L 365.387401 351.58901 
L 365.387401 347.16882 
L 364.850604 347.16882 
z
" clip-path="url(#p9c0f78c940)" style="opacity: 0.7"/>
   </g>
   <g id="patch_230">
    <path d="M 369.753661 351.58901 
L 370.290458 351.58901 
L 370.290458 344.283899 
L 369.753661 344.283899 
z
" clip-path="url(#p9c0f78c940)" style="opacity: 0.7"/>
   </g>
   <g id="patch_231">
    <path d="M 373.255844 351.58901 
L 373.792641 351.58901 
L 373.792641 321.572646 
L 373.255844 321.572646 
z
" clip-path="url(#p9c0f78c940)" style="opacity: 0.7"/>
   </g>
   <g id="patch_232">
    <path d="M 378.158901 351.58901 
L 378.695698 351.58901 
L 378.695698 284.350615 
L 378.158901 284.350615 
z
" clip-path="url(#p9c0f78c940)" style="opacity: 0.7"/>
   </g>
   <g id="patch_233">
    <path d="M 385.863705 351.58901 
L 386.400501 351.58901 
L 386.400501 321.625769 
L 385.863705 321.625769 
z
" clip-path="url(#p9c0f78c940)" style="opacity: 0.7"/>
   </g>
   <g id="patch_234">
    <path d="M 394.268945 351.58901 
L 394.805741 351.58901 
L 394.805741 336.763734 
L 394.268945 336.763734 
z
" clip-path="url(#p9c0f78c940)" style="opacity: 0.7"/>
   </g>
   <g id="patch_235">
    <path d="M 399.172001 351.58901 
L 399.708798 351.58901 
L 399.708798 342.233464 
L 399.172001 342.233464 
z
" clip-path="url(#p9c0f78c940)" style="opacity: 0.7"/>
   </g>
   <g id="patch_236">
    <path d="M 401.973748 351.58901 
L 402.510545 351.58901 
L 402.510545 330.987477 
L 401.973748 330.987477 
z
" clip-path="url(#p9c0f78c940)" style="opacity: 0.7"/>
   </g>
   <g id="patch_237">
    <path d="M 404.775495 351.58901 
L 405.312291 351.58901 
L 405.312291 341.149904 
L 404.775495 341.149904 
z
" clip-path="url(#p9c0f78c940)" style="opacity: 0.7"/>
   </g>
   <g id="patch_238">
    <path d="M 408.978115 351.58901 
L 409.514911 351.58901 
L 409.514911 272.158002 
L 408.978115 272.158002 
z
" clip-path="url(#p9c0f78c940)" style="opacity: 0.7"/>
   </g>
   <g id="patch_239">
    <path d="M 415.282045 351.58901 
L 415.818841 351.58901 
L 415.818841 300.835079 
L 415.282045 300.835079 
z
" clip-path="url(#p9c0f78c940)" style="opacity: 0.7"/>
   </g>
   <g id="patch_240">
    <path d="M 417.383355 351.58901 
L 417.920151 351.58901 
L 417.920151 264.66038 
L 417.383355 264.66038 
z
" clip-path="url(#p9c0f78c940)" style="opacity: 0.7"/>
   </g>
   <g id="patch_241">
    <path d="M 420.185102 351.58901 
L 420.721898 351.58901 
L 420.721898 159.925098 
L 420.185102 159.925098 
z
" clip-path="url(#p9c0f78c940)" style="opacity: 0.7"/>
   </g>
   <g id="patch_242">
    <path d="M 427.189468 351.58901 
L 427.726265 351.58901 
L 427.726265 336.105969 
L 427.189468 336.105969 
z
" clip-path="url(#p9c0f78c940)" style="opacity: 0.7"/>
   </g>
   <g id="patch_243">
    <path d="M 429.991215 351.58901 
L 430.528012 351.58901 
L 430.528012 339.389214 
L 429.991215 339.389214 
z
" clip-path="url(#p9c0f78c940)" style="opacity: 0.7"/>
   </g>
   <g id="patch_244">
    <path d="M 435.594709 351.58901 
L 436.131505 351.58901 
L 436.131505 212.752449 
L 435.594709 212.752449 
z
" clip-path="url(#p9c0f78c940)" style="opacity: 0.7"/>
   </g>
   <g id="patch_245">
    <path d="M 440.497765 351.58901 
L 441.034562 351.58901 
L 441.034562 292.881397 
L 440.497765 292.881397 
z
" clip-path="url(#p9c0f78c940)" style="opacity: 0.7"/>
   </g>
   <g id="patch_246">
    <path d="M 446.801695 351.58901 
L 447.338492 351.58901 
L 447.338492 311.972129 
L 446.801695 311.972129 
z
" clip-path="url(#p9c0f78c940)" style="opacity: 0.7"/>
   </g>
   <g id="patch_247">
    <path d="M 455.907372 351.58901 
L 456.444169 351.58901 
L 456.444169 211.397497 
L 455.907372 211.397497 
z
" clip-path="url(#p9c0f78c940)" style="opacity: 0.7"/>
   </g>
   <g id="patch_248">
    <path d="M 459.409555 351.58901 
L 459.946352 351.58901 
L 459.946352 267.333308 
L 459.409555 267.333308 
z
" clip-path="url(#p9c0f78c940)" style="opacity: 0.7"/>
   </g>
   <g id="patch_249">
    <path d="M 465.713486 351.58901 
L 466.250282 351.58901 
L 466.250282 314.485661 
L 465.713486 314.485661 
z
" clip-path="url(#p9c0f78c940)" style="opacity: 0.7"/>
   </g>
   <g id="patch_250">
    <path d="M 467.814796 351.58901 
L 468.351592 351.58901 
L 468.351592 310.441409 
L 467.814796 310.441409 
z
" clip-path="url(#p9c0f78c940)" style="opacity: 0.7"/>
   </g>
   <g id="patch_251">
    <path d="M 470.616542 351.58901 
L 471.153339 351.58901 
L 471.153339 322.54773 
L 470.616542 322.54773 
z
" clip-path="url(#p9c0f78c940)" style="opacity: 0.7"/>
   </g>
   <g id="patch_252">
    <path d="M 474.118726 351.58901 
L 474.655522 351.58901 
L 474.655522 321.975519 
L 474.118726 321.975519 
z
" clip-path="url(#p9c0f78c940)" style="opacity: 0.7"/>
   </g>
   <g id="patch_253">
    <path d="M 481.123092 351.58901 
L 481.659889 351.58901 
L 481.659889 291.905847 
L 481.123092 291.905847 
z
" clip-path="url(#p9c0f78c940)" style="opacity: 0.7"/>
   </g>
   <g id="patch_254">
    <path d="M 486.726586 351.58901 
L 487.263382 351.58901 
L 487.263382 341.37323 
L 486.726586 341.37323 
z
" clip-path="url(#p9c0f78c940)" style="opacity: 0.7"/>
   </g>
   <g id="patch_255">
    <path d="M 493.030516 351.58901 
L 493.567312 351.58901 
L 493.567312 106.902163 
L 493.030516 106.902163 
z
" clip-path="url(#p9c0f78c940)" style="opacity: 0.7"/>
   </g>
   <g id="patch_256">
    <path d="M 495.832263 351.58901 
L 496.369059 351.58901 
L 496.369059 326.0955 
L 495.832263 326.0955 
z
" clip-path="url(#p9c0f78c940)" style="opacity: 0.7"/>
   </g>
   <g id="patch_257">
    <path d="M 503.537066 351.58901 
L 504.073863 351.58901 
L 504.073863 310.454417 
L 503.537066 310.454417 
z
" clip-path="url(#p9c0f78c940)" style="opacity: 0.7"/>
   </g>
   <g id="patch_258">
    <path d="M 506.338813 351.58901 
L 506.875609 351.58901 
L 506.875609 343.048954 
L 506.338813 343.048954 
z
" clip-path="url(#p9c0f78c940)" style="opacity: 0.7"/>
   </g>
   <g id="patch_259">
    <path d="M 509.140559 351.58901 
L 509.677356 351.58901 
L 509.677356 347.541482 
L 509.140559 347.541482 
z
" clip-path="url(#p9c0f78c940)" style="opacity: 0.7"/>
   </g>
   <g id="patch_260">
    <path d="M 512.642743 351.58901 
L 513.179539 351.58901 
L 513.179539 256.392537 
L 512.642743 256.392537 
z
" clip-path="url(#p9c0f78c940)" style="opacity: 0.7"/>
   </g>
   <g id="patch_261">
    <path d="M 517.5458 351.58901 
L 518.082596 351.58901 
L 518.082596 348.21457 
L 517.5458 348.21457 
z
" clip-path="url(#p9c0f78c940)" style="opacity: 0.7"/>
   </g>
   <g id="patch_262">
    <path d="M 521.74842 351.58901 
L 522.285216 351.58901 
L 522.285216 294.388837 
L 521.74842 294.388837 
z
" clip-path="url(#p9c0f78c940)" style="opacity: 0.7"/>
   </g>
   <g id="patch_263">
    <path d="M 524.550166 351.58901 
L 525.086963 351.58901 
L 525.086963 317.713616 
L 524.550166 317.713616 
z
" clip-path="url(#p9c0f78c940)" style="opacity: 0.7"/>
   </g>
   <g id="patch_264">
    <path d="M 530.15366 351.58901 
L 530.690456 351.58901 
L 530.690456 306.068647 
L 530.15366 306.068647 
z
" clip-path="url(#p9c0f78c940)" style="opacity: 0.7"/>
   </g>
   <g id="patch_265">
    <path d="M 535.056716 351.58901 
L 535.593513 351.58901 
L 535.593513 347.04421 
L 535.056716 347.04421 
z
" clip-path="url(#p9c0f78c940)" style="opacity: 0.7"/>
   </g>
   <g id="patch_266">
    <path d="M 537.158026 351.58901 
L 537.694823 351.58901 
L 537.694823 347.635576 
L 537.158026 347.635576 
z
" clip-path="url(#p9c0f78c940)" style="opacity: 0.7"/>
   </g>
   <g id="patch_267">
    <path d="M 542.76152 351.58901 
L 543.298316 351.58901 
L 543.298316 300.012563 
L 542.76152 300.012563 
z
" clip-path="url(#p9c0f78c940)" style="opacity: 0.7"/>
   </g>
   <g id="patch_268">
    <path d="M 549.765887 351.58901 
L 550.302683 351.58901 
L 550.302683 351.195054 
L 549.765887 351.195054 
z
" clip-path="url(#p9c0f78c940)" style="opacity: 0.7"/>
   </g>
   <g id="patch_269">
    <path d="M 551.16676 351.58901 
L 551.703557 351.58901 
L 551.703557 351.231559 
L 551.16676 351.231559 
z
" clip-path="url(#p9c0f78c940)" style="opacity: 0.7"/>
   </g>
   <g id="patch_270">
    <path d="M 554.668943 351.58901 
L 555.20574 351.58901 
L 555.20574 342.986105 
L 554.668943 342.986105 
z
" clip-path="url(#p9c0f78c940)" style="opacity: 0.7"/>
   </g>
   <g id="patch_271">
    <path d="M 557.47069 351.58901 
L 558.007487 351.58901 
L 558.007487 301.583889 
L 557.47069 301.583889 
z
" clip-path="url(#p9c0f78c940)" style="opacity: 0.7"/>
   </g>
   <g id="patch_272">
    <path d="M 561.67331 351.58901 
L 562.210107 351.58901 
L 562.210107 314.994418 
L 561.67331 314.994418 
z
" clip-path="url(#p9c0f78c940)" style="opacity: 0.7"/>
   </g>
   <g id="patch_273">
    <path d="M 563.77462 351.58901 
L 564.311417 351.58901 
L 564.311417 318.817352 
L 563.77462 318.817352 
z
" clip-path="url(#p9c0f78c940)" style="opacity: 0.7"/>
   </g>
   <g id="patch_274">
    <path d="M 568.677677 351.58901 
L 569.214473 351.58901 
L 569.214473 347.943481 
L 568.677677 347.943481 
z
" clip-path="url(#p9c0f78c940)" style="opacity: 0.7"/>
   </g>
   <g id="patch_275">
    <path d="M 571.479424 351.58901 
L 572.01622 351.58901 
L 572.01622 232.183257 
L 571.479424 232.183257 
z
" clip-path="url(#p9c0f78c940)" style="opacity: 0.7"/>
   </g>
   <g id="patch_276">
    <path d="M 579.184227 351.58901 
L 579.721024 351.58901 
L 579.721024 350.838683 
L 579.184227 350.838683 
z
" clip-path="url(#p9c0f78c940)" style="opacity: 0.7"/>
   </g>
   <g id="patch_277">
    <path d="M 582.68641 351.58901 
L 583.223207 351.58901 
L 583.223207 302.090576 
L 582.68641 302.090576 
z
" clip-path="url(#p9c0f78c940)" style="opacity: 0.7"/>
   </g>
   <g id="patch_278">
    <path d="M 591.09165 351.58901 
L 591.628447 351.58901 
L 591.628447 350.098534 
L 591.09165 350.098534 
z
" clip-path="url(#p9c0f78c940)" style="opacity: 0.7"/>
   </g>
   <g id="patch_279">
    <path d="M 593.893397 351.58901 
L 594.430194 351.58901 
L 594.430194 330.169317 
L 593.893397 330.169317 
z
" clip-path="url(#p9c0f78c940)" style="opacity: 0.7"/>
   </g>
   <g id="patch_280">
    <path d="M 598.796454 351.58901 
L 599.33325 351.58901 
L 599.33325 349.386222 
L 598.796454 349.386222 
z
" clip-path="url(#p9c0f78c940)" style="opacity: 0.7"/>
   </g>
   <g id="patch_281">
    <path d="M 602.298637 351.58901 
L 602.835434 351.58901 
L 602.835434 290.43386 
L 602.298637 290.43386 
z
" clip-path="url(#p9c0f78c940)" style="opacity: 0.7"/>
   </g>
   <g id="patch_282">
    <path d="M 605.100384 351.58901 
L 605.637181 351.58901 
L 605.637181 333.793339 
L 605.100384 333.793339 
z
" clip-path="url(#p9c0f78c940)" style="opacity: 0.7"/>
   </g>
   <g id="patch_283">
    <path d="M 609.303004 351.58901 
L 609.839801 351.58901 
L 609.839801 349.219799 
L 609.303004 349.219799 
z
" clip-path="url(#p9c0f78c940)" style="opacity: 0.7"/>
   </g>
   <g id="patch_284">
    <path d="M 613.505624 351.58901 
L 614.042421 351.58901 
L 614.042421 238.157607 
L 613.505624 238.157607 
z
" clip-path="url(#p9c0f78c940)" style="opacity: 0.7"/>
   </g>
   <g id="patch_285">
    <path d="M 120.731602 351.58901 
L 121.536797 351.58901 
L 121.536797 347.460793 
L 120.731602 347.460793 
z
" clip-path="url(#p9c0f78c940)" style="fill: #ff0000"/>
   </g>
   <g id="patch_286">
    <path d="M 122.84316 351.58901 
L 123.648355 351.58901 
L 123.648355 345.035468 
L 122.84316 345.035468 
z
" clip-path="url(#p9c0f78c940)" style="fill: #ff0000"/>
   </g>
   <g id="patch_287">
    <path d="M 124.049764 351.58901 
L 124.854959 351.58901 
L 124.854959 344.615585 
L 124.049764 344.615585 
z
" clip-path="url(#p9c0f78c940)" style="fill: #ff0000"/>
   </g>
   <g id="patch_288">
    <path d="M 125.859671 351.58901 
L 126.664866 351.58901 
L 126.664866 331.733832 
L 125.859671 331.733832 
z
" clip-path="url(#p9c0f78c940)" style="fill: #ff0000"/>
   </g>
   <g id="patch_289">
    <path d="M 128.574532 351.58901 
L 129.379726 351.58901 
L 129.379726 340.229078 
L 128.574532 340.229078 
z
" clip-path="url(#p9c0f78c940)" style="fill: #ff0000"/>
   </g>
   <g id="patch_290">
    <path d="M 129.177834 351.58901 
L 129.983029 351.58901 
L 129.983029 340.390639 
L 129.177834 340.390639 
z
" clip-path="url(#p9c0f78c940)" style="fill: #ff0000"/>
   </g>
   <g id="patch_291">
    <path d="M 132.194345 351.58901 
L 132.99954 351.58901 
L 132.99954 324.570989 
L 132.194345 324.570989 
z
" clip-path="url(#p9c0f78c940)" style="fill: #ff0000"/>
   </g>
   <g id="patch_292">
    <path d="M 133.702601 351.58901 
L 134.507796 351.58901 
L 134.507796 314.371184 
L 133.702601 314.371184 
z
" clip-path="url(#p9c0f78c940)" style="fill: #ff0000"/>
   </g>
   <g id="patch_293">
    <path d="M 135.814159 351.58901 
L 136.619354 351.58901 
L 136.619354 329.096007 
L 135.814159 329.096007 
z
" clip-path="url(#p9c0f78c940)" style="fill: #ff0000"/>
   </g>
   <g id="patch_294">
    <path d="M 137.020764 351.58901 
L 137.825959 351.58901 
L 137.825959 328.956103 
L 137.020764 328.956103 
z
" clip-path="url(#p9c0f78c940)" style="fill: #ff0000"/>
   </g>
   <g id="patch_295">
    <path d="M 139.132322 351.58901 
L 139.937517 351.58901 
L 139.937517 343.025511 
L 139.132322 343.025511 
z
" clip-path="url(#p9c0f78c940)" style="fill: #ff0000"/>
   </g>
   <g id="patch_296">
    <path d="M 140.037275 351.58901 
L 140.84247 351.58901 
L 140.84247 345.099917 
L 140.037275 345.099917 
z
" clip-path="url(#p9c0f78c940)" style="fill: #ff0000"/>
   </g>
   <g id="patch_297">
    <path d="M 142.450485 351.58901 
L 143.255679 351.58901 
L 143.255679 345.063715 
L 142.450485 345.063715 
z
" clip-path="url(#p9c0f78c940)" style="fill: #ff0000"/>
   </g>
   <g id="patch_298">
    <path d="M 144.863694 351.58901 
L 145.668889 351.58901 
L 145.668889 347.408668 
L 144.863694 347.408668 
z
" clip-path="url(#p9c0f78c940)" style="fill: #ff0000"/>
   </g>
   <g id="patch_299">
    <path d="M 146.673601 351.58901 
L 147.478796 351.58901 
L 147.478796 348.824142 
L 146.673601 348.824142 
z
" clip-path="url(#p9c0f78c940)" style="fill: #ff0000"/>
   </g>
   <g id="patch_300">
    <path d="M 147.578554 351.58901 
L 148.383749 351.58901 
L 148.383749 348.605283 
L 147.578554 348.605283 
z
" clip-path="url(#p9c0f78c940)" style="fill: #ff0000"/>
   </g>
   <g id="patch_301">
    <path d="M 149.08681 351.58901 
L 149.892005 351.58901 
L 149.892005 350.184182 
L 149.08681 350.184182 
z
" clip-path="url(#p9c0f78c940)" style="fill: #ff0000"/>
   </g>
   <g id="patch_302">
    <path d="M 150.595066 351.58901 
L 151.400261 351.58901 
L 151.400261 348.775133 
L 150.595066 348.775133 
z
" clip-path="url(#p9c0f78c940)" style="fill: #ff0000"/>
   </g>
   <g id="patch_303">
    <path d="M 152.103321 351.58901 
L 152.908516 351.58901 
L 152.908516 343.251959 
L 152.103321 343.251959 
z
" clip-path="url(#p9c0f78c940)" style="fill: #ff0000"/>
   </g>
   <g id="patch_304">
    <path d="M 153.309926 351.58901 
L 154.115121 351.58901 
L 154.115121 326.803428 
L 153.309926 326.803428 
z
" clip-path="url(#p9c0f78c940)" style="fill: #ff0000"/>
   </g>
   <g id="patch_305">
    <path d="M 156.326438 351.58901 
L 157.131632 351.58901 
L 157.131632 348.738673 
L 156.326438 348.738673 
z
" clip-path="url(#p9c0f78c940)" style="fill: #ff0000"/>
   </g>
   <g id="patch_306">
    <path d="M 157.533042 351.58901 
L 158.338237 351.58901 
L 158.338237 339.271716 
L 157.533042 339.271716 
z
" clip-path="url(#p9c0f78c940)" style="fill: #ff0000"/>
   </g>
   <g id="patch_307">
    <path d="M 159.342949 351.58901 
L 160.148144 351.58901 
L 160.148144 342.769488 
L 159.342949 342.769488 
z
" clip-path="url(#p9c0f78c940)" style="fill: #ff0000"/>
   </g>
   <g id="patch_308">
    <path d="M 162.057809 351.58901 
L 162.863004 351.58901 
L 162.863004 345.815769 
L 162.057809 345.815769 
z
" clip-path="url(#p9c0f78c940)" style="fill: #ff0000"/>
   </g>
   <g id="patch_309">
    <path d="M 163.867716 351.58901 
L 164.672911 351.58901 
L 164.672911 344.11983 
L 163.867716 344.11983 
z
" clip-path="url(#p9c0f78c940)" style="fill: #ff0000"/>
   </g>
   <g id="patch_310">
    <path d="M 165.677623 351.58901 
L 166.482818 351.58901 
L 166.482818 344.917828 
L 165.677623 344.917828 
z
" clip-path="url(#p9c0f78c940)" style="fill: #ff0000"/>
   </g>
   <g id="patch_311">
    <path d="M 167.48753 351.58901 
L 168.292725 351.58901 
L 168.292725 329.067944 
L 167.48753 329.067944 
z
" clip-path="url(#p9c0f78c940)" style="fill: #ff0000"/>
   </g>
   <g id="patch_312">
    <path d="M 169.599088 351.58901 
L 170.404283 351.58901 
L 170.404283 336.076779 
L 169.599088 336.076779 
z
" clip-path="url(#p9c0f78c940)" style="fill: #ff0000"/>
   </g>
   <g id="patch_313">
    <path d="M 171.710646 351.58901 
L 172.515841 351.58901 
L 172.515841 66.96 
L 171.710646 66.96 
z
" clip-path="url(#p9c0f78c940)" style="fill: #ff0000"/>
   </g>
   <g id="patch_314">
    <path d="M 174.727158 351.58901 
L 175.532353 351.58901 
L 175.532353 347.653255 
L 174.727158 347.653255 
z
" clip-path="url(#p9c0f78c940)" style="fill: #ff0000"/>
   </g>
   <g id="patch_315">
    <path d="M 176.537065 351.58901 
L 177.34226 351.58901 
L 177.34226 330.214752 
L 176.537065 330.214752 
z
" clip-path="url(#p9c0f78c940)" style="fill: #ff0000"/>
   </g>
   <g id="patch_316">
    <path d="M 178.648623 351.58901 
L 179.453818 351.58901 
L 179.453818 294.361409 
L 178.648623 294.361409 
z
" clip-path="url(#p9c0f78c940)" style="fill: #ff0000"/>
   </g>
   <g id="patch_317">
    <path d="M 180.760181 351.58901 
L 181.565376 351.58901 
L 181.565376 324.465783 
L 180.760181 324.465783 
z
" clip-path="url(#p9c0f78c940)" style="fill: #ff0000"/>
   </g>
   <g id="patch_318">
    <path d="M 181.966785 351.58901 
L 182.77198 351.58901 
L 182.77198 345.232061 
L 181.966785 345.232061 
z
" clip-path="url(#p9c0f78c940)" style="fill: #ff0000"/>
   </g>
   <g id="patch_319">
    <path d="M 184.078343 351.58901 
L 184.883538 351.58901 
L 184.883538 347.16882 
L 184.078343 347.16882 
z
" clip-path="url(#p9c0f78c940)" style="fill: #ff0000"/>
   </g>
   <g id="patch_320">
    <path d="M 186.189902 351.58901 
L 186.995096 351.58901 
L 186.995096 344.283899 
L 186.189902 344.283899 
z
" clip-path="url(#p9c0f78c940)" style="fill: #ff0000"/>
   </g>
   <g id="patch_321">
    <path d="M 187.698157 351.58901 
L 188.503352 351.58901 
L 188.503352 321.572646 
L 187.698157 321.572646 
z
" clip-path="url(#p9c0f78c940)" style="fill: #ff0000"/>
   </g>
   <g id="patch_322">
    <path d="M 189.809715 351.58901 
L 190.61491 351.58901 
L 190.61491 284.350615 
L 189.809715 284.350615 
z
" clip-path="url(#p9c0f78c940)" style="fill: #ff0000"/>
   </g>
   <g id="patch_323">
    <path d="M 193.127878 351.58901 
L 193.933073 351.58901 
L 193.933073 321.625769 
L 193.127878 321.625769 
z
" clip-path="url(#p9c0f78c940)" style="fill: #ff0000"/>
   </g>
   <g id="patch_324">
    <path d="M 196.747692 351.58901 
L 197.552887 351.58901 
L 197.552887 336.763734 
L 196.747692 336.763734 
z
" clip-path="url(#p9c0f78c940)" style="fill: #ff0000"/>
   </g>
   <g id="patch_325">
    <path d="M 198.85925 351.58901 
L 199.664445 351.58901 
L 199.664445 342.233464 
L 198.85925 342.233464 
z
" clip-path="url(#p9c0f78c940)" style="fill: #ff0000"/>
   </g>
   <g id="patch_326">
    <path d="M 200.065854 351.58901 
L 200.871049 351.58901 
L 200.871049 330.987477 
L 200.065854 330.987477 
z
" clip-path="url(#p9c0f78c940)" style="fill: #ff0000"/>
   </g>
   <g id="patch_327">
    <path d="M 201.272459 351.58901 
L 202.077654 351.58901 
L 202.077654 341.149904 
L 201.272459 341.149904 
z
" clip-path="url(#p9c0f78c940)" style="fill: #ff0000"/>
   </g>
   <g id="patch_328">
    <path d="M 203.082366 351.58901 
L 203.887561 351.58901 
L 203.887561 272.158002 
L 203.082366 272.158002 
z
" clip-path="url(#p9c0f78c940)" style="fill: #ff0000"/>
   </g>
   <g id="patch_329">
    <path d="M 205.797226 351.58901 
L 206.602421 351.58901 
L 206.602421 300.835079 
L 205.797226 300.835079 
z
" clip-path="url(#p9c0f78c940)" style="fill: #ff0000"/>
   </g>
   <g id="patch_330">
    <path d="M 206.70218 351.58901 
L 207.507375 351.58901 
L 207.507375 264.66038 
L 206.70218 264.66038 
z
" clip-path="url(#p9c0f78c940)" style="fill: #ff0000"/>
   </g>
   <g id="patch_331">
    <path d="M 207.908784 351.58901 
L 208.713979 351.58901 
L 208.713979 159.925098 
L 207.908784 159.925098 
z
" clip-path="url(#p9c0f78c940)" style="fill: #ff0000"/>
   </g>
   <g id="patch_332">
    <path d="M 210.925296 351.58901 
L 211.730491 351.58901 
L 211.730491 336.105969 
L 210.925296 336.105969 
z
" clip-path="url(#p9c0f78c940)" style="fill: #ff0000"/>
   </g>
   <g id="patch_333">
    <path d="M 212.131901 351.58901 
L 212.937095 351.58901 
L 212.937095 339.389214 
L 212.131901 339.389214 
z
" clip-path="url(#p9c0f78c940)" style="fill: #ff0000"/>
   </g>
   <g id="patch_334">
    <path d="M 214.54511 351.58901 
L 215.350305 351.58901 
L 215.350305 212.752449 
L 214.54511 212.752449 
z
" clip-path="url(#p9c0f78c940)" style="fill: #ff0000"/>
   </g>
   <g id="patch_335">
    <path d="M 216.656668 351.58901 
L 217.461863 351.58901 
L 217.461863 292.881397 
L 216.656668 292.881397 
z
" clip-path="url(#p9c0f78c940)" style="fill: #ff0000"/>
   </g>
   <g id="patch_336">
    <path d="M 219.371528 351.58901 
L 220.176723 351.58901 
L 220.176723 311.972129 
L 219.371528 311.972129 
z
" clip-path="url(#p9c0f78c940)" style="fill: #ff0000"/>
   </g>
   <g id="patch_337">
    <path d="M 223.292993 351.58901 
L 224.098188 351.58901 
L 224.098188 211.397497 
L 223.292993 211.397497 
z
" clip-path="url(#p9c0f78c940)" style="fill: #ff0000"/>
   </g>
   <g id="patch_338">
    <path d="M 224.801249 351.58901 
L 225.606444 351.58901 
L 225.606444 267.333308 
L 224.801249 267.333308 
z
" clip-path="url(#p9c0f78c940)" style="fill: #ff0000"/>
   </g>
   <g id="patch_339">
    <path d="M 227.516109 351.58901 
L 228.321304 351.58901 
L 228.321304 314.485661 
L 227.516109 314.485661 
z
" clip-path="url(#p9c0f78c940)" style="fill: #ff0000"/>
   </g>
   <g id="patch_340">
    <path d="M 228.421063 351.58901 
L 229.226258 351.58901 
L 229.226258 310.441409 
L 228.421063 310.441409 
z
" clip-path="url(#p9c0f78c940)" style="fill: #ff0000"/>
   </g>
   <g id="patch_341">
    <path d="M 229.627667 351.58901 
L 230.432862 351.58901 
L 230.432862 322.54773 
L 229.627667 322.54773 
z
" clip-path="url(#p9c0f78c940)" style="fill: #ff0000"/>
   </g>
   <g id="patch_342">
    <path d="M 231.135923 351.58901 
L 231.941118 351.58901 
L 231.941118 321.975519 
L 231.135923 321.975519 
z
" clip-path="url(#p9c0f78c940)" style="fill: #ff0000"/>
   </g>
   <g id="patch_343">
    <path d="M 234.152435 351.58901 
L 234.957629 351.58901 
L 234.957629 291.905847 
L 234.152435 291.905847 
z
" clip-path="url(#p9c0f78c940)" style="fill: #ff0000"/>
   </g>
   <g id="patch_344">
    <path d="M 236.565644 351.58901 
L 237.370839 351.58901 
L 237.370839 341.37323 
L 236.565644 341.37323 
z
" clip-path="url(#p9c0f78c940)" style="fill: #ff0000"/>
   </g>
   <g id="patch_345">
    <path d="M 239.280504 351.58901 
L 240.085699 351.58901 
L 240.085699 106.902163 
L 239.280504 106.902163 
z
" clip-path="url(#p9c0f78c940)" style="fill: #ff0000"/>
   </g>
   <g id="patch_346">
    <path d="M 240.487109 351.58901 
L 241.292304 351.58901 
L 241.292304 326.0955 
L 240.487109 326.0955 
z
" clip-path="url(#p9c0f78c940)" style="fill: #ff0000"/>
   </g>
   <g id="patch_347">
    <path d="M 243.805271 351.58901 
L 244.610466 351.58901 
L 244.610466 310.454417 
L 243.805271 310.454417 
z
" clip-path="url(#p9c0f78c940)" style="fill: #ff0000"/>
   </g>
   <g id="patch_348">
    <path d="M 245.011876 351.58901 
L 245.817071 351.58901 
L 245.817071 343.048954 
L 245.011876 343.048954 
z
" clip-path="url(#p9c0f78c940)" style="fill: #ff0000"/>
   </g>
   <g id="patch_349">
    <path d="M 246.218481 351.58901 
L 247.023675 351.58901 
L 247.023675 347.541482 
L 246.218481 347.541482 
z
" clip-path="url(#p9c0f78c940)" style="fill: #ff0000"/>
   </g>
   <g id="patch_350">
    <path d="M 247.726736 351.58901 
L 248.531931 351.58901 
L 248.531931 256.392537 
L 247.726736 256.392537 
z
" clip-path="url(#p9c0f78c940)" style="fill: #ff0000"/>
   </g>
   <g id="patch_351">
    <path d="M 249.838294 351.58901 
L 250.643489 351.58901 
L 250.643489 348.21457 
L 249.838294 348.21457 
z
" clip-path="url(#p9c0f78c940)" style="fill: #ff0000"/>
   </g>
   <g id="patch_352">
    <path d="M 251.648201 351.58901 
L 252.453396 351.58901 
L 252.453396 294.388837 
L 251.648201 294.388837 
z
" clip-path="url(#p9c0f78c940)" style="fill: #ff0000"/>
   </g>
   <g id="patch_353">
    <path d="M 252.854806 351.58901 
L 253.660001 351.58901 
L 253.660001 317.713616 
L 252.854806 317.713616 
z
" clip-path="url(#p9c0f78c940)" style="fill: #ff0000"/>
   </g>
   <g id="patch_354">
    <path d="M 255.268015 351.58901 
L 256.07321 351.58901 
L 256.07321 306.068647 
L 255.268015 306.068647 
z
" clip-path="url(#p9c0f78c940)" style="fill: #ff0000"/>
   </g>
   <g id="patch_355">
    <path d="M 257.379573 351.58901 
L 258.184768 351.58901 
L 258.184768 347.04421 
L 257.379573 347.04421 
z
" clip-path="url(#p9c0f78c940)" style="fill: #ff0000"/>
   </g>
   <g id="patch_356">
    <path d="M 258.284527 351.58901 
L 259.089721 351.58901 
L 259.089721 347.635576 
L 258.284527 347.635576 
z
" clip-path="url(#p9c0f78c940)" style="fill: #ff0000"/>
   </g>
   <g id="patch_357">
    <path d="M 260.697736 351.58901 
L 261.502931 351.58901 
L 261.502931 300.012563 
L 260.697736 300.012563 
z
" clip-path="url(#p9c0f78c940)" style="fill: #ff0000"/>
   </g>
   <g id="patch_358">
    <path d="M 263.714247 351.58901 
L 264.519442 351.58901 
L 264.519442 351.195054 
L 263.714247 351.195054 
z
" clip-path="url(#p9c0f78c940)" style="fill: #ff0000"/>
   </g>
   <g id="patch_359">
    <path d="M 264.31755 351.58901 
L 265.122745 351.58901 
L 265.122745 351.231559 
L 264.31755 351.231559 
z
" clip-path="url(#p9c0f78c940)" style="fill: #ff0000"/>
   </g>
   <g id="patch_360">
    <path d="M 265.825805 351.58901 
L 266.631 351.58901 
L 266.631 342.986105 
L 265.825805 342.986105 
z
" clip-path="url(#p9c0f78c940)" style="fill: #ff0000"/>
   </g>
   <g id="patch_361">
    <path d="M 267.03241 351.58901 
L 267.837605 351.58901 
L 267.837605 301.583889 
L 267.03241 301.583889 
z
" clip-path="url(#p9c0f78c940)" style="fill: #ff0000"/>
   </g>
   <g id="patch_362">
    <path d="M 268.842317 351.58901 
L 269.647512 351.58901 
L 269.647512 314.994418 
L 268.842317 314.994418 
z
" clip-path="url(#p9c0f78c940)" style="fill: #ff0000"/>
   </g>
   <g id="patch_363">
    <path d="M 269.74727 351.58901 
L 270.552465 351.58901 
L 270.552465 318.817352 
L 269.74727 318.817352 
z
" clip-path="url(#p9c0f78c940)" style="fill: #ff0000"/>
   </g>
   <g id="patch_364">
    <path d="M 271.858828 351.58901 
L 272.664023 351.58901 
L 272.664023 347.943481 
L 271.858828 347.943481 
z
" clip-path="url(#p9c0f78c940)" style="fill: #ff0000"/>
   </g>
   <g id="patch_365">
    <path d="M 273.065433 351.58901 
L 273.870628 351.58901 
L 273.870628 232.183257 
L 273.065433 232.183257 
z
" clip-path="url(#p9c0f78c940)" style="fill: #ff0000"/>
   </g>
   <g id="patch_366">
    <path d="M 276.383596 351.58901 
L 277.188791 351.58901 
L 277.188791 350.838683 
L 276.383596 350.838683 
z
" clip-path="url(#p9c0f78c940)" style="fill: #ff0000"/>
   </g>
   <g id="patch_367">
    <path d="M 277.891852 351.58901 
L 278.697046 351.58901 
L 278.697046 302.090576 
L 277.891852 302.090576 
z
" clip-path="url(#p9c0f78c940)" style="fill: #ff0000"/>
   </g>
   <g id="patch_368">
    <path d="M 281.511665 351.58901 
L 282.31686 351.58901 
L 282.31686 350.098534 
L 281.511665 350.098534 
z
" clip-path="url(#p9c0f78c940)" style="fill: #ff0000"/>
   </g>
   <g id="patch_369">
    <path d="M 282.71827 351.58901 
L 283.523465 351.58901 
L 283.523465 330.169317 
L 282.71827 330.169317 
z
" clip-path="url(#p9c0f78c940)" style="fill: #ff0000"/>
   </g>
   <g id="patch_370">
    <path d="M 284.829828 351.58901 
L 285.635023 351.58901 
L 285.635023 349.386222 
L 284.829828 349.386222 
z
" clip-path="url(#p9c0f78c940)" style="fill: #ff0000"/>
   </g>
   <g id="patch_371">
    <path d="M 286.338084 351.58901 
L 287.143279 351.58901 
L 287.143279 290.43386 
L 286.338084 290.43386 
z
" clip-path="url(#p9c0f78c940)" style="fill: #ff0000"/>
   </g>
   <g id="patch_372">
    <path d="M 287.544688 351.58901 
L 288.349883 351.58901 
L 288.349883 333.793339 
L 287.544688 333.793339 
z
" clip-path="url(#p9c0f78c940)" style="fill: #ff0000"/>
   </g>
   <g id="patch_373">
    <path d="M 289.354595 351.58901 
L 290.15979 351.58901 
L 290.15979 349.219799 
L 289.354595 349.219799 
z
" clip-path="url(#p9c0f78c940)" style="fill: #ff0000"/>
   </g>
   <g id="patch_374">
    <path d="M 291.164502 351.58901 
L 291.969697 351.58901 
L 291.969697 238.157607 
L 291.164502 238.157607 
z
" clip-path="url(#p9c0f78c940)" style="fill: #ff0000"/>
   </g>
   <g id="matplotlib.axis_1">
    <g id="xtick_1">
     <g id="line2d_1">
      <defs>
       <path id="mcb77f248dd" d="M 0 0 
L 0 3.5 
" style="stroke: #000000; stroke-width: 0.8"/>
      </defs>
      <g>
       <use xlink:href="#mcb77f248dd" x="97.917749" y="384.48" style="stroke: #000000; stroke-width: 0.8"/>
      </g>
     </g>
     <g id="text_1">
      <!-- 3000 -->
      <g transform="translate(85.192749 399.078438) scale(0.1 -0.1)">
       <defs>
        <path id="DejaVuSans-33" d="M 2597 2516 
Q 3050 2419 3304 2112 
Q 3559 1806 3559 1356 
Q 3559 666 3084 287 
Q 2609 -91 1734 -91 
Q 1441 -91 1130 -33 
Q 819 25 488 141 
L 488 750 
Q 750 597 1062 519 
Q 1375 441 1716 441 
Q 2309 441 2620 675 
Q 2931 909 2931 1356 
Q 2931 1769 2642 2001 
Q 2353 2234 1838 2234 
L 1294 2234 
L 1294 2753 
L 1863 2753 
Q 2328 2753 2575 2939 
Q 2822 3125 2822 3475 
Q 2822 3834 2567 4026 
Q 2313 4219 1838 4219 
Q 1578 4219 1281 4162 
Q 984 4106 628 3988 
L 628 4550 
Q 988 4650 1302 4700 
Q 1616 4750 1894 4750 
Q 2613 4750 3031 4423 
Q 3450 4097 3450 3541 
Q 3450 3153 3228 2886 
Q 3006 2619 2597 2516 
z
" transform="scale(0.015625)"/>
        <path id="DejaVuSans-30" d="M 2034 4250 
Q 1547 4250 1301 3770 
Q 1056 3291 1056 2328 
Q 1056 1369 1301 889 
Q 1547 409 2034 409 
Q 2525 409 2770 889 
Q 3016 1369 3016 2328 
Q 3016 3291 2770 3770 
Q 2525 4250 2034 4250 
z
M 2034 4750 
Q 2819 4750 3233 4129 
Q 3647 3509 3647 2328 
Q 3647 1150 3233 529 
Q 2819 -91 2034 -91 
Q 1250 -91 836 529 
Q 422 1150 422 2328 
Q 422 3509 836 4129 
Q 1250 4750 2034 4750 
z
" transform="scale(0.015625)"/>
       </defs>
       <use xlink:href="#DejaVuSans-33"/>
       <use xlink:href="#DejaVuSans-30" x="63.623047"/>
       <use xlink:href="#DejaVuSans-30" x="127.246094"/>
       <use xlink:href="#DejaVuSans-30" x="190.869141"/>
      </g>
     </g>
    </g>
    <g id="xtick_2">
     <g id="line2d_2">
      <g>
       <use xlink:href="#mcb77f248dd" x="165.017316" y="384.48" style="stroke: #000000; stroke-width: 0.8"/>
      </g>
     </g>
     <g id="text_2">
      <!-- 3250 -->
      <g transform="translate(152.292316 399.078438) scale(0.1 -0.1)">
       <defs>
        <path id="DejaVuSans-32" d="M 1228 531 
L 3431 531 
L 3431 0 
L 469 0 
L 469 531 
Q 828 903 1448 1529 
Q 2069 2156 2228 2338 
Q 2531 2678 2651 2914 
Q 2772 3150 2772 3378 
Q 2772 3750 2511 3984 
Q 2250 4219 1831 4219 
Q 1534 4219 1204 4116 
Q 875 4013 500 3803 
L 500 4441 
Q 881 4594 1212 4672 
Q 1544 4750 1819 4750 
Q 2544 4750 2975 4387 
Q 3406 4025 3406 3419 
Q 3406 3131 3298 2873 
Q 3191 2616 2906 2266 
Q 2828 2175 2409 1742 
Q 1991 1309 1228 531 
z
" transform="scale(0.015625)"/>
        <path id="DejaVuSans-35" d="M 691 4666 
L 3169 4666 
L 3169 4134 
L 1269 4134 
L 1269 2991 
Q 1406 3038 1543 3061 
Q 1681 3084 1819 3084 
Q 2600 3084 3056 2656 
Q 3513 2228 3513 1497 
Q 3513 744 3044 326 
Q 2575 -91 1722 -91 
Q 1428 -91 1123 -41 
Q 819 9 494 109 
L 494 744 
Q 775 591 1075 516 
Q 1375 441 1709 441 
Q 2250 441 2565 725 
Q 2881 1009 2881 1497 
Q 2881 1984 2565 2268 
Q 2250 2553 1709 2553 
Q 1456 2553 1204 2497 
Q 953 2441 691 2322 
L 691 4666 
z
" transform="scale(0.015625)"/>
       </defs>
       <use xlink:href="#DejaVuSans-33"/>
       <use xlink:href="#DejaVuSans-32" x="63.623047"/>
       <use xlink:href="#DejaVuSans-35" x="127.246094"/>
       <use xlink:href="#DejaVuSans-30" x="190.869141"/>
      </g>
     </g>
    </g>
    <g id="xtick_3">
     <g id="line2d_3">
      <g>
       <use xlink:href="#mcb77f248dd" x="232.116883" y="384.48" style="stroke: #000000; stroke-width: 0.8"/>
      </g>
     </g>
     <g id="text_3">
      <!-- 3500 -->
      <g transform="translate(219.391883 399.078438) scale(0.1 -0.1)">
       <use xlink:href="#DejaVuSans-33"/>
       <use xlink:href="#DejaVuSans-35" x="63.623047"/>
       <use xlink:href="#DejaVuSans-30" x="127.246094"/>
       <use xlink:href="#DejaVuSans-30" x="190.869141"/>
      </g>
     </g>
    </g>
    <g id="xtick_4">
     <g id="line2d_4">
      <g>
       <use xlink:href="#mcb77f248dd" x="299.21645" y="384.48" style="stroke: #000000; stroke-width: 0.8"/>
      </g>
     </g>
     <g id="text_4">
      <!-- 3750 -->
      <g transform="translate(286.49145 399.078438) scale(0.1 -0.1)">
       <defs>
        <path id="DejaVuSans-37" d="M 525 4666 
L 3525 4666 
L 3525 4397 
L 1831 0 
L 1172 0 
L 2766 4134 
L 525 4134 
L 525 4666 
z
" transform="scale(0.015625)"/>
       </defs>
       <use xlink:href="#DejaVuSans-33"/>
       <use xlink:href="#DejaVuSans-37" x="63.623047"/>
       <use xlink:href="#DejaVuSans-35" x="127.246094"/>
       <use xlink:href="#DejaVuSans-30" x="190.869141"/>
      </g>
     </g>
    </g>
    <g id="xtick_5">
     <g id="line2d_5">
      <g>
       <use xlink:href="#mcb77f248dd" x="366.316017" y="384.48" style="stroke: #000000; stroke-width: 0.8"/>
      </g>
     </g>
     <g id="text_5">
      <!-- 4000 -->
      <g transform="translate(353.591017 399.078438) scale(0.1 -0.1)">
       <defs>
        <path id="DejaVuSans-34" d="M 2419 4116 
L 825 1625 
L 2419 1625 
L 2419 4116 
z
M 2253 4666 
L 3047 4666 
L 3047 1625 
L 3713 1625 
L 3713 1100 
L 3047 1100 
L 3047 0 
L 2419 0 
L 2419 1100 
L 313 1100 
L 313 1709 
L 2253 4666 
z
" transform="scale(0.015625)"/>
       </defs>
       <use xlink:href="#DejaVuSans-34"/>
       <use xlink:href="#DejaVuSans-30" x="63.623047"/>
       <use xlink:href="#DejaVuSans-30" x="127.246094"/>
       <use xlink:href="#DejaVuSans-30" x="190.869141"/>
      </g>
     </g>
    </g>
    <g id="xtick_6">
     <g id="line2d_6">
      <g>
       <use xlink:href="#mcb77f248dd" x="433.415584" y="384.48" style="stroke: #000000; stroke-width: 0.8"/>
      </g>
     </g>
     <g id="text_6">
      <!-- 4250 -->
      <g transform="translate(420.690584 399.078438) scale(0.1 -0.1)">
       <use xlink:href="#DejaVuSans-34"/>
       <use xlink:href="#DejaVuSans-32" x="63.623047"/>
       <use xlink:href="#DejaVuSans-35" x="127.246094"/>
       <use xlink:href="#DejaVuSans-30" x="190.869141"/>
      </g>
     </g>
    </g>
    <g id="xtick_7">
     <g id="line2d_7">
      <g>
       <use xlink:href="#mcb77f248dd" x="500.515152" y="384.48" style="stroke: #000000; stroke-width: 0.8"/>
      </g>
     </g>
     <g id="text_7">
      <!-- 4500 -->
      <g transform="translate(487.790152 399.078438) scale(0.1 -0.1)">
       <use xlink:href="#DejaVuSans-34"/>
       <use xlink:href="#DejaVuSans-35" x="63.623047"/>
       <use xlink:href="#DejaVuSans-30" x="127.246094"/>
       <use xlink:href="#DejaVuSans-30" x="190.869141"/>
      </g>
     </g>
    </g>
    <g id="xtick_8">
     <g id="line2d_8">
      <g>
       <use xlink:href="#mcb77f248dd" x="567.614719" y="384.48" style="stroke: #000000; stroke-width: 0.8"/>
      </g>
     </g>
     <g id="text_8">
      <!-- 4750 -->
      <g transform="translate(554.889719 399.078438) scale(0.1 -0.1)">
       <use xlink:href="#DejaVuSans-34"/>
       <use xlink:href="#DejaVuSans-37" x="63.623047"/>
       <use xlink:href="#DejaVuSans-35" x="127.246094"/>
       <use xlink:href="#DejaVuSans-30" x="190.869141"/>
      </g>
     </g>
    </g>
    <g id="xtick_9">
     <g id="line2d_9">
      <g>
       <use xlink:href="#mcb77f248dd" x="634.714286" y="384.48" style="stroke: #000000; stroke-width: 0.8"/>
      </g>
     </g>
     <g id="text_9">
      <!-- 5000 -->
      <g transform="translate(621.989286 399.078438) scale(0.1 -0.1)">
       <use xlink:href="#DejaVuSans-35"/>
       <use xlink:href="#DejaVuSans-30" x="63.623047"/>
       <use xlink:href="#DejaVuSans-30" x="127.246094"/>
       <use xlink:href="#DejaVuSans-30" x="190.869141"/>
      </g>
     </g>
    </g>
   </g>
   <g id="matplotlib.axis_2">
    <g id="ytick_1">
     <g id="line2d_10">
      <defs>
       <path id="ma9eb2a158d" d="M 0 0 
L -3.5 0 
" style="stroke: #000000; stroke-width: 0.8"/>
      </defs>
      <g>
       <use xlink:href="#ma9eb2a158d" x="90" y="351.58901" style="stroke: #000000; stroke-width: 0.8"/>
      </g>
     </g>
     <g id="text_10">
      <!-- 0.0 -->
      <g transform="translate(67.096875 355.388228) scale(0.1 -0.1)">
       <defs>
        <path id="DejaVuSans-2e" d="M 684 794 
L 1344 794 
L 1344 0 
L 684 0 
L 684 794 
z
" transform="scale(0.015625)"/>
       </defs>
       <use xlink:href="#DejaVuSans-30"/>
       <use xlink:href="#DejaVuSans-2e" x="63.623047"/>
       <use xlink:href="#DejaVuSans-30" x="95.410156"/>
      </g>
     </g>
    </g>
    <g id="ytick_2">
     <g id="line2d_11">
      <g>
       <use xlink:href="#ma9eb2a158d" x="90" y="294.663208" style="stroke: #000000; stroke-width: 0.8"/>
      </g>
     </g>
     <g id="text_11">
      <!-- 0.2 -->
      <g transform="translate(67.096875 298.462427) scale(0.1 -0.1)">
       <use xlink:href="#DejaVuSans-30"/>
       <use xlink:href="#DejaVuSans-2e" x="63.623047"/>
       <use xlink:href="#DejaVuSans-32" x="95.410156"/>
      </g>
     </g>
    </g>
    <g id="ytick_3">
     <g id="line2d_12">
      <g>
       <use xlink:href="#ma9eb2a158d" x="90" y="237.737406" style="stroke: #000000; stroke-width: 0.8"/>
      </g>
     </g>
     <g id="text_12">
      <!-- 0.4 -->
      <g transform="translate(67.096875 241.536625) scale(0.1 -0.1)">
       <use xlink:href="#DejaVuSans-30"/>
       <use xlink:href="#DejaVuSans-2e" x="63.623047"/>
       <use xlink:href="#DejaVuSans-34" x="95.410156"/>
      </g>
     </g>
    </g>
    <g id="ytick_4">
     <g id="line2d_13">
      <g>
       <use xlink:href="#ma9eb2a158d" x="90" y="180.811604" style="stroke: #000000; stroke-width: 0.8"/>
      </g>
     </g>
     <g id="text_13">
      <!-- 0.6 -->
      <g transform="translate(67.096875 184.610823) scale(0.1 -0.1)">
       <defs>
        <path id="DejaVuSans-36" d="M 2113 2584 
Q 1688 2584 1439 2293 
Q 1191 2003 1191 1497 
Q 1191 994 1439 701 
Q 1688 409 2113 409 
Q 2538 409 2786 701 
Q 3034 994 3034 1497 
Q 3034 2003 2786 2293 
Q 2538 2584 2113 2584 
z
M 3366 4563 
L 3366 3988 
Q 3128 4100 2886 4159 
Q 2644 4219 2406 4219 
Q 1781 4219 1451 3797 
Q 1122 3375 1075 2522 
Q 1259 2794 1537 2939 
Q 1816 3084 2150 3084 
Q 2853 3084 3261 2657 
Q 3669 2231 3669 1497 
Q 3669 778 3244 343 
Q 2819 -91 2113 -91 
Q 1303 -91 875 529 
Q 447 1150 447 2328 
Q 447 3434 972 4092 
Q 1497 4750 2381 4750 
Q 2619 4750 2861 4703 
Q 3103 4656 3366 4563 
z
" transform="scale(0.015625)"/>
       </defs>
       <use xlink:href="#DejaVuSans-30"/>
       <use xlink:href="#DejaVuSans-2e" x="63.623047"/>
       <use xlink:href="#DejaVuSans-36" x="95.410156"/>
      </g>
     </g>
    </g>
    <g id="ytick_5">
     <g id="line2d_14">
      <g>
       <use xlink:href="#ma9eb2a158d" x="90" y="123.885802" style="stroke: #000000; stroke-width: 0.8"/>
      </g>
     </g>
     <g id="text_14">
      <!-- 0.8 -->
      <g transform="translate(67.096875 127.685021) scale(0.1 -0.1)">
       <defs>
        <path id="DejaVuSans-38" d="M 2034 2216 
Q 1584 2216 1326 1975 
Q 1069 1734 1069 1313 
Q 1069 891 1326 650 
Q 1584 409 2034 409 
Q 2484 409 2743 651 
Q 3003 894 3003 1313 
Q 3003 1734 2745 1975 
Q 2488 2216 2034 2216 
z
M 1403 2484 
Q 997 2584 770 2862 
Q 544 3141 544 3541 
Q 544 4100 942 4425 
Q 1341 4750 2034 4750 
Q 2731 4750 3128 4425 
Q 3525 4100 3525 3541 
Q 3525 3141 3298 2862 
Q 3072 2584 2669 2484 
Q 3125 2378 3379 2068 
Q 3634 1759 3634 1313 
Q 3634 634 3220 271 
Q 2806 -91 2034 -91 
Q 1263 -91 848 271 
Q 434 634 434 1313 
Q 434 1759 690 2068 
Q 947 2378 1403 2484 
z
M 1172 3481 
Q 1172 3119 1398 2916 
Q 1625 2713 2034 2713 
Q 2441 2713 2670 2916 
Q 2900 3119 2900 3481 
Q 2900 3844 2670 4047 
Q 2441 4250 2034 4250 
Q 1625 4250 1398 4047 
Q 1172 3844 1172 3481 
z
" transform="scale(0.015625)"/>
       </defs>
       <use xlink:href="#DejaVuSans-30"/>
       <use xlink:href="#DejaVuSans-2e" x="63.623047"/>
       <use xlink:href="#DejaVuSans-38" x="95.410156"/>
      </g>
     </g>
    </g>
    <g id="ytick_6">
     <g id="line2d_15">
      <g>
       <use xlink:href="#ma9eb2a158d" x="90" y="66.96" style="stroke: #000000; stroke-width: 0.8"/>
      </g>
     </g>
     <g id="text_15">
      <!-- 1.0 -->
      <g transform="translate(67.096875 70.759219) scale(0.1 -0.1)">
       <defs>
        <path id="DejaVuSans-31" d="M 794 531 
L 1825 531 
L 1825 4091 
L 703 3866 
L 703 4441 
L 1819 4666 
L 2450 4666 
L 2450 531 
L 3481 531 
L 3481 0 
L 794 0 
L 794 531 
z
" transform="scale(0.015625)"/>
       </defs>
       <use xlink:href="#DejaVuSans-31"/>
       <use xlink:href="#DejaVuSans-2e" x="63.623047"/>
       <use xlink:href="#DejaVuSans-30" x="95.410156"/>
      </g>
     </g>
    </g>
   </g>
   <g id="patch_375">
    <path d="M 90 384.48 
L 90 51.84 
" style="fill: none; stroke: #000000; stroke-width: 0.8; stroke-linejoin: miter; stroke-linecap: square"/>
   </g>
   <g id="patch_376">
    <path d="M 648 384.48 
L 648 51.84 
" style="fill: none; stroke: #000000; stroke-width: 0.8; stroke-linejoin: miter; stroke-linecap: square"/>
   </g>
   <g id="patch_377">
    <path d="M 90 384.48 
L 648 384.48 
" style="fill: none; stroke: #000000; stroke-width: 0.8; stroke-linejoin: miter; stroke-linecap: square"/>
   </g>
   <g id="patch_378">
    <path d="M 90 51.84 
L 648 51.84 
" style="fill: none; stroke: #000000; stroke-width: 0.8; stroke-linejoin: miter; stroke-linecap: square"/>
   </g>
   <g id="legend_1">
    <g id="patch_379">
     <path d="M 546.635937 103.874375 
L 641 103.874375 
Q 643 103.874375 643 101.874375 
L 643 58.84 
Q 643 56.84 641 56.84 
L 546.635937 56.84 
Q 544.635937 56.84 544.635937 58.84 
L 544.635937 101.874375 
Q 544.635937 103.874375 546.635937 103.874375 
z
" style="fill: #ffffff; opacity: 0.8; stroke: #cccccc; stroke-linejoin: miter"/>
    </g>
    <g id="patch_380">
     <path d="M 548.635937 68.438437 
L 568.635937 68.438437 
L 568.635937 61.438437 
L 548.635937 61.438437 
z
" style="fill: #0000ff; opacity: 0.7"/>
    </g>
    <g id="text_16">
     <!-- Teorico -->
     <g transform="translate(576.635937 68.438437) scale(0.1 -0.1)">
      <defs>
       <path id="DejaVuSans-54" d="M -19 4666 
L 3928 4666 
L 3928 4134 
L 2272 4134 
L 2272 0 
L 1638 0 
L 1638 4134 
L -19 4134 
L -19 4666 
z
" transform="scale(0.015625)"/>
       <path id="DejaVuSans-65" d="M 3597 1894 
L 3597 1613 
L 953 1613 
Q 991 1019 1311 708 
Q 1631 397 2203 397 
Q 2534 397 2845 478 
Q 3156 559 3463 722 
L 3463 178 
Q 3153 47 2828 -22 
Q 2503 -91 2169 -91 
Q 1331 -91 842 396 
Q 353 884 353 1716 
Q 353 2575 817 3079 
Q 1281 3584 2069 3584 
Q 2775 3584 3186 3129 
Q 3597 2675 3597 1894 
z
M 3022 2063 
Q 3016 2534 2758 2815 
Q 2500 3097 2075 3097 
Q 1594 3097 1305 2825 
Q 1016 2553 972 2059 
L 3022 2063 
z
" transform="scale(0.015625)"/>
       <path id="DejaVuSans-6f" d="M 1959 3097 
Q 1497 3097 1228 2736 
Q 959 2375 959 1747 
Q 959 1119 1226 758 
Q 1494 397 1959 397 
Q 2419 397 2687 759 
Q 2956 1122 2956 1747 
Q 2956 2369 2687 2733 
Q 2419 3097 1959 3097 
z
M 1959 3584 
Q 2709 3584 3137 3096 
Q 3566 2609 3566 1747 
Q 3566 888 3137 398 
Q 2709 -91 1959 -91 
Q 1206 -91 779 398 
Q 353 888 353 1747 
Q 353 2609 779 3096 
Q 1206 3584 1959 3584 
z
" transform="scale(0.015625)"/>
       <path id="DejaVuSans-72" d="M 2631 2963 
Q 2534 3019 2420 3045 
Q 2306 3072 2169 3072 
Q 1681 3072 1420 2755 
Q 1159 2438 1159 1844 
L 1159 0 
L 581 0 
L 581 3500 
L 1159 3500 
L 1159 2956 
Q 1341 3275 1631 3429 
Q 1922 3584 2338 3584 
Q 2397 3584 2469 3576 
Q 2541 3569 2628 3553 
L 2631 2963 
z
" transform="scale(0.015625)"/>
       <path id="DejaVuSans-69" d="M 603 3500 
L 1178 3500 
L 1178 0 
L 603 0 
L 603 3500 
z
M 603 4863 
L 1178 4863 
L 1178 4134 
L 603 4134 
L 603 4863 
z
" transform="scale(0.015625)"/>
       <path id="DejaVuSans-63" d="M 3122 3366 
L 3122 2828 
Q 2878 2963 2633 3030 
Q 2388 3097 2138 3097 
Q 1578 3097 1268 2742 
Q 959 2388 959 1747 
Q 959 1106 1268 751 
Q 1578 397 2138 397 
Q 2388 397 2633 464 
Q 2878 531 3122 666 
L 3122 134 
Q 2881 22 2623 -34 
Q 2366 -91 2075 -91 
Q 1284 -91 818 406 
Q 353 903 353 1747 
Q 353 2603 823 3093 
Q 1294 3584 2113 3584 
Q 2378 3584 2631 3529 
Q 2884 3475 3122 3366 
z
" transform="scale(0.015625)"/>
      </defs>
      <use xlink:href="#DejaVuSans-54"/>
      <use xlink:href="#DejaVuSans-65" x="44.083984"/>
      <use xlink:href="#DejaVuSans-6f" x="105.607422"/>
      <use xlink:href="#DejaVuSans-72" x="166.789062"/>
      <use xlink:href="#DejaVuSans-69" x="207.902344"/>
      <use xlink:href="#DejaVuSans-63" x="235.685547"/>
      <use xlink:href="#DejaVuSans-6f" x="290.666016"/>
     </g>
    </g>
    <g id="patch_381">
     <path d="M 548.635937 83.116562 
L 568.635937 83.116562 
L 568.635937 76.116562 
L 548.635937 76.116562 
z
" style="opacity: 0.7"/>
    </g>
    <g id="text_17">
     <!-- Emp Real -->
     <g transform="translate(576.635937 83.116562) scale(0.1 -0.1)">
      <defs>
       <path id="DejaVuSans-45" d="M 628 4666 
L 3578 4666 
L 3578 4134 
L 1259 4134 
L 1259 2753 
L 3481 2753 
L 3481 2222 
L 1259 2222 
L 1259 531 
L 3634 531 
L 3634 0 
L 628 0 
L 628 4666 
z
" transform="scale(0.015625)"/>
       <path id="DejaVuSans-6d" d="M 3328 2828 
Q 3544 3216 3844 3400 
Q 4144 3584 4550 3584 
Q 5097 3584 5394 3201 
Q 5691 2819 5691 2113 
L 5691 0 
L 5113 0 
L 5113 2094 
Q 5113 2597 4934 2840 
Q 4756 3084 4391 3084 
Q 3944 3084 3684 2787 
Q 3425 2491 3425 1978 
L 3425 0 
L 2847 0 
L 2847 2094 
Q 2847 2600 2669 2842 
Q 2491 3084 2119 3084 
Q 1678 3084 1418 2786 
Q 1159 2488 1159 1978 
L 1159 0 
L 581 0 
L 581 3500 
L 1159 3500 
L 1159 2956 
Q 1356 3278 1631 3431 
Q 1906 3584 2284 3584 
Q 2666 3584 2933 3390 
Q 3200 3197 3328 2828 
z
" transform="scale(0.015625)"/>
       <path id="DejaVuSans-70" d="M 1159 525 
L 1159 -1331 
L 581 -1331 
L 581 3500 
L 1159 3500 
L 1159 2969 
Q 1341 3281 1617 3432 
Q 1894 3584 2278 3584 
Q 2916 3584 3314 3078 
Q 3713 2572 3713 1747 
Q 3713 922 3314 415 
Q 2916 -91 2278 -91 
Q 1894 -91 1617 61 
Q 1341 213 1159 525 
z
M 3116 1747 
Q 3116 2381 2855 2742 
Q 2594 3103 2138 3103 
Q 1681 3103 1420 2742 
Q 1159 2381 1159 1747 
Q 1159 1113 1420 752 
Q 1681 391 2138 391 
Q 2594 391 2855 752 
Q 3116 1113 3116 1747 
z
" transform="scale(0.015625)"/>
       <path id="DejaVuSans-20" transform="scale(0.015625)"/>
       <path id="DejaVuSans-52" d="M 2841 2188 
Q 3044 2119 3236 1894 
Q 3428 1669 3622 1275 
L 4263 0 
L 3584 0 
L 2988 1197 
Q 2756 1666 2539 1819 
Q 2322 1972 1947 1972 
L 1259 1972 
L 1259 0 
L 628 0 
L 628 4666 
L 2053 4666 
Q 2853 4666 3247 4331 
Q 3641 3997 3641 3322 
Q 3641 2881 3436 2590 
Q 3231 2300 2841 2188 
z
M 1259 4147 
L 1259 2491 
L 2053 2491 
Q 2509 2491 2742 2702 
Q 2975 2913 2975 3322 
Q 2975 3731 2742 3939 
Q 2509 4147 2053 4147 
L 1259 4147 
z
" transform="scale(0.015625)"/>
       <path id="DejaVuSans-61" d="M 2194 1759 
Q 1497 1759 1228 1600 
Q 959 1441 959 1056 
Q 959 750 1161 570 
Q 1363 391 1709 391 
Q 2188 391 2477 730 
Q 2766 1069 2766 1631 
L 2766 1759 
L 2194 1759 
z
M 3341 1997 
L 3341 0 
L 2766 0 
L 2766 531 
Q 2569 213 2275 61 
Q 1981 -91 1556 -91 
Q 1019 -91 701 211 
Q 384 513 384 1019 
Q 384 1609 779 1909 
Q 1175 2209 1959 2209 
L 2766 2209 
L 2766 2266 
Q 2766 2663 2505 2880 
Q 2244 3097 1772 3097 
Q 1472 3097 1187 3025 
Q 903 2953 641 2809 
L 641 3341 
Q 956 3463 1253 3523 
Q 1550 3584 1831 3584 
Q 2591 3584 2966 3190 
Q 3341 2797 3341 1997 
z
" transform="scale(0.015625)"/>
       <path id="DejaVuSans-6c" d="M 603 4863 
L 1178 4863 
L 1178 0 
L 603 0 
L 603 4863 
z
" transform="scale(0.015625)"/>
      </defs>
      <use xlink:href="#DejaVuSans-45"/>
      <use xlink:href="#DejaVuSans-6d" x="63.183594"/>
      <use xlink:href="#DejaVuSans-70" x="160.595703"/>
      <use xlink:href="#DejaVuSans-20" x="224.072266"/>
      <use xlink:href="#DejaVuSans-52" x="255.859375"/>
      <use xlink:href="#DejaVuSans-65" x="320.841797"/>
      <use xlink:href="#DejaVuSans-61" x="382.365234"/>
      <use xlink:href="#DejaVuSans-6c" x="443.644531"/>
     </g>
    </g>
    <g id="patch_382">
     <path d="M 548.635937 97.794687 
L 568.635937 97.794687 
L 568.635937 90.794687 
L 548.635937 90.794687 
z
" style="fill: #ff0000"/>
    </g>
    <g id="text_18">
     <!-- Emp Optimo -->
     <g transform="translate(576.635937 97.794687) scale(0.1 -0.1)">
      <defs>
       <path id="DejaVuSans-4f" d="M 2522 4238 
Q 1834 4238 1429 3725 
Q 1025 3213 1025 2328 
Q 1025 1447 1429 934 
Q 1834 422 2522 422 
Q 3209 422 3611 934 
Q 4013 1447 4013 2328 
Q 4013 3213 3611 3725 
Q 3209 4238 2522 4238 
z
M 2522 4750 
Q 3503 4750 4090 4092 
Q 4678 3434 4678 2328 
Q 4678 1225 4090 567 
Q 3503 -91 2522 -91 
Q 1538 -91 948 565 
Q 359 1222 359 2328 
Q 359 3434 948 4092 
Q 1538 4750 2522 4750 
z
" transform="scale(0.015625)"/>
       <path id="DejaVuSans-74" d="M 1172 4494 
L 1172 3500 
L 2356 3500 
L 2356 3053 
L 1172 3053 
L 1172 1153 
Q 1172 725 1289 603 
Q 1406 481 1766 481 
L 2356 481 
L 2356 0 
L 1766 0 
Q 1100 0 847 248 
Q 594 497 594 1153 
L 594 3053 
L 172 3053 
L 172 3500 
L 594 3500 
L 594 4494 
L 1172 4494 
z
" transform="scale(0.015625)"/>
      </defs>
      <use xlink:href="#DejaVuSans-45"/>
      <use xlink:href="#DejaVuSans-6d" x="63.183594"/>
      <use xlink:href="#DejaVuSans-70" x="160.595703"/>
      <use xlink:href="#DejaVuSans-20" x="224.072266"/>
      <use xlink:href="#DejaVuSans-4f" x="255.859375"/>
      <use xlink:href="#DejaVuSans-70" x="334.570312"/>
      <use xlink:href="#DejaVuSans-74" x="398.046875"/>
      <use xlink:href="#DejaVuSans-69" x="437.255859"/>
      <use xlink:href="#DejaVuSans-6d" x="465.039062"/>
      <use xlink:href="#DejaVuSans-6f" x="562.451172"/>
     </g>
    </g>
   </g>
  </g>
 </g>
 <defs>
  <clipPath id="p9c0f78c940">
   <rect x="90" y="51.84" width="558" height="332.64"/>
  </clipPath>
 </defs>
</svg>
