<?xml version="1.0" encoding="utf-8" standalone="no"?>
<!DOCTYPE svg PUBLIC "-//W3C//DTD SVG 1.1//EN"
  "http://www.w3.org/Graphics/SVG/1.1/DTD/svg11.dtd">
<svg xmlns:xlink="http://www.w3.org/1999/xlink" width="720pt" height="432pt" viewBox="0 0 720 432" xmlns="http://www.w3.org/2000/svg" version="1.1">
 <metadata>
  <rdf:RDF xmlns:dc="http://purl.org/dc/elements/1.1/" xmlns:cc="http://creativecommons.org/ns#" xmlns:rdf="http://www.w3.org/1999/02/22-rdf-syntax-ns#">
   <cc:Work>
    <dc:type rdf:resource="http://purl.org/dc/dcmitype/StillImage"/>
    <dc:date>2024-03-26T20:35:50.867483</dc:date>
    <dc:format>image/svg+xml</dc:format>
    <dc:creator>
     <cc:Agent>
      <dc:title>Matplotlib v3.7.5, https://matplotlib.org/</dc:title>
     </cc:Agent>
    </dc:creator>
   </cc:Work>
  </rdf:RDF>
 </metadata>
 <defs>
  <style type="text/css">*{stroke-linejoin: round; stroke-linecap: butt}</style>
 </defs>
 <g id="figure_1">
  <g id="patch_1">
   <path d="M 0 432 
L 720 432 
L 720 0 
L 0 0 
z
" style="fill: #ffffff"/>
  </g>
  <g id="axes_1">
   <g id="patch_2">
    <path d="M 90 384.48 
L 648 384.48 
L 648 51.84 
L 90 51.84 
z
" style="fill: #ffffff"/>
   </g>
   <g id="patch_3">
    <path d="M 115.711858 299.700832 
L 118.921109 299.700832 
L 118.921109 299.933806 
L 115.711858 299.933806 
z
" clip-path="url(#p303094bac0)" style="fill: #0000ff; opacity: 0.7"/>
   </g>
   <g id="patch_4">
    <path d="M 125.069069 299.700832 
L 128.27832 299.700832 
L 128.27832 305.292203 
L 125.069069 305.292203 
z
" clip-path="url(#p303094bac0)" style="fill: #0000ff; opacity: 0.7"/>
   </g>
   <g id="patch_5">
    <path d="M 125.545643 299.700832 
L 128.754893 299.700832 
L 128.754893 301.098675 
L 125.545643 301.098675 
z
" clip-path="url(#p303094bac0)" style="fill: #0000ff; opacity: 0.7"/>
   </g>
   <g id="patch_6">
    <path d="M 129.721519 299.700832 
L 132.93077 299.700832 
L 132.93077 302.962465 
L 129.721519 302.962465 
z
" clip-path="url(#p303094bac0)" style="fill: #0000ff; opacity: 0.7"/>
   </g>
   <g id="patch_7">
    <path d="M 129.81523 299.700832 
L 133.02448 299.700832 
L 133.02448 306.457072 
L 129.81523 306.457072 
z
" clip-path="url(#p303094bac0)" style="fill: #0000ff; opacity: 0.7"/>
   </g>
   <g id="patch_8">
    <path d="M 135.669544 299.700832 
L 138.878794 299.700832 
L 138.878794 305.292203 
L 135.669544 305.292203 
z
" clip-path="url(#p303094bac0)" style="fill: #0000ff; opacity: 0.7"/>
   </g>
   <g id="patch_9">
    <path d="M 137.149008 299.700832 
L 140.358258 299.700832 
L 140.358258 305.292203 
L 137.149008 305.292203 
z
" clip-path="url(#p303094bac0)" style="fill: #0000ff; opacity: 0.7"/>
   </g>
   <g id="patch_10">
    <path d="M 147.164436 299.700832 
L 150.373687 299.700832 
L 150.373687 305.292203 
L 147.164436 305.292203 
z
" clip-path="url(#p303094bac0)" style="fill: #0000ff; opacity: 0.7"/>
   </g>
   <g id="patch_11">
    <path d="M 147.244347 299.700832 
L 150.453597 299.700832 
L 150.453597 305.292203 
L 147.244347 305.292203 
z
" clip-path="url(#p303094bac0)" style="fill: #0000ff; opacity: 0.7"/>
   </g>
   <g id="patch_12">
    <path d="M 151.629145 299.700832 
L 154.838396 299.700832 
L 154.838396 306.457072 
L 151.629145 306.457072 
z
" clip-path="url(#p303094bac0)" style="fill: #0000ff; opacity: 0.7"/>
   </g>
   <g id="patch_13">
    <path d="M 152.117593 299.700832 
L 155.326843 299.700832 
L 155.326843 306.457072 
L 152.117593 306.457072 
z
" clip-path="url(#p303094bac0)" style="fill: #0000ff; opacity: 0.7"/>
   </g>
   <g id="patch_14">
    <path d="M 157.119531 299.700832 
L 160.328781 299.700832 
L 160.328781 305.292203 
L 157.119531 305.292203 
z
" clip-path="url(#p303094bac0)" style="fill: #0000ff; opacity: 0.7"/>
   </g>
   <g id="patch_15">
    <path d="M 158.721588 299.700832 
L 161.930839 299.700832 
L 161.930839 301.331649 
L 158.721588 301.331649 
z
" clip-path="url(#p303094bac0)" style="fill: #0000ff; opacity: 0.7"/>
   </g>
   <g id="patch_16">
    <path d="M 158.961319 299.700832 
L 162.17057 299.700832 
L 162.17057 302.962465 
L 158.961319 302.962465 
z
" clip-path="url(#p303094bac0)" style="fill: #0000ff; opacity: 0.7"/>
   </g>
   <g id="patch_17">
    <path d="M 160.538666 299.700832 
L 163.747916 299.700832 
L 163.747916 299.700832 
L 160.538666 299.700832 
z
" clip-path="url(#p303094bac0)" style="fill: #0000ff; opacity: 0.7"/>
   </g>
   <g id="patch_18">
    <path d="M 160.914469 299.700832 
L 164.123719 299.700832 
L 164.123719 305.292203 
L 160.914469 305.292203 
z
" clip-path="url(#p303094bac0)" style="fill: #0000ff; opacity: 0.7"/>
   </g>
   <g id="patch_19">
    <path d="M 169.001459 299.700832 
L 172.210709 299.700832 
L 172.210709 300.16678 
L 169.001459 300.16678 
z
" clip-path="url(#p303094bac0)" style="fill: #0000ff; opacity: 0.7"/>
   </g>
   <g id="patch_20">
    <path d="M 171.72868 299.700832 
L 174.93793 299.700832 
L 174.93793 301.331649 
L 171.72868 301.331649 
z
" clip-path="url(#p303094bac0)" style="fill: #0000ff; opacity: 0.7"/>
   </g>
   <g id="patch_21">
    <path d="M 175.609305 299.700832 
L 178.818555 299.700832 
L 178.818555 299.933806 
L 175.609305 299.933806 
z
" clip-path="url(#p303094bac0)" style="fill: #0000ff; opacity: 0.7"/>
   </g>
   <g id="patch_22">
    <path d="M 177.407448 299.700832 
L 180.616698 299.700832 
L 180.616698 301.098675 
L 177.407448 301.098675 
z
" clip-path="url(#p303094bac0)" style="fill: #0000ff; opacity: 0.7"/>
   </g>
   <g id="patch_23">
    <path d="M 198.321169 299.700832 
L 201.530419 299.700832 
L 201.530419 300.16678 
L 198.321169 300.16678 
z
" clip-path="url(#p303094bac0)" style="fill: #0000ff; opacity: 0.7"/>
   </g>
   <g id="patch_24">
    <path d="M 202.559305 299.700832 
L 205.768555 299.700832 
L 205.768555 302.263544 
L 202.559305 302.263544 
z
" clip-path="url(#p303094bac0)" style="fill: #0000ff; opacity: 0.7"/>
   </g>
   <g id="patch_25">
    <path d="M 206.122536 299.700832 
L 209.331786 299.700832 
L 209.331786 305.292203 
L 206.122536 305.292203 
z
" clip-path="url(#p303094bac0)" style="fill: #0000ff; opacity: 0.7"/>
   </g>
   <g id="patch_26">
    <path d="M 207.26214 299.700832 
L 210.471391 299.700832 
L 210.471391 299.700832 
L 207.26214 299.700832 
z
" clip-path="url(#p303094bac0)" style="fill: #0000ff; opacity: 0.7"/>
   </g>
   <g id="patch_27">
    <path d="M 208.876072 299.700832 
L 212.085323 299.700832 
L 212.085323 302.962465 
L 208.876072 302.962465 
z
" clip-path="url(#p303094bac0)" style="fill: #0000ff; opacity: 0.7"/>
   </g>
   <g id="patch_28">
    <path d="M 217.66332 299.700832 
L 220.872571 299.700832 
L 220.872571 311.116549 
L 217.66332 311.116549 
z
" clip-path="url(#p303094bac0)" style="fill: #0000ff; opacity: 0.7"/>
   </g>
   <g id="patch_29">
    <path d="M 217.935786 299.700832 
L 221.145036 299.700832 
L 221.145036 302.962465 
L 217.935786 302.962465 
z
" clip-path="url(#p303094bac0)" style="fill: #0000ff; opacity: 0.7"/>
   </g>
   <g id="patch_30">
    <path d="M 219.299717 299.700832 
L 222.508967 299.700832 
L 222.508967 299.700832 
L 219.299717 299.700832 
z
" clip-path="url(#p303094bac0)" style="fill: #0000ff; opacity: 0.7"/>
   </g>
   <g id="patch_31">
    <path d="M 219.348177 299.700832 
L 222.557427 299.700832 
L 222.557427 301.098675 
L 219.348177 301.098675 
z
" clip-path="url(#p303094bac0)" style="fill: #0000ff; opacity: 0.7"/>
   </g>
   <g id="patch_32">
    <path d="M 222.660123 299.700832 
L 225.869373 299.700832 
L 225.869373 301.331649 
L 222.660123 301.331649 
z
" clip-path="url(#p303094bac0)" style="fill: #0000ff; opacity: 0.7"/>
   </g>
   <g id="patch_33">
    <path d="M 229.827021 299.700832 
L 233.036271 299.700832 
L 233.036271 301.331649 
L 229.827021 301.331649 
z
" clip-path="url(#p303094bac0)" style="fill: #0000ff; opacity: 0.7"/>
   </g>
   <g id="patch_34">
    <path d="M 231.843714 299.700832 
L 235.052964 299.700832 
L 235.052964 302.962465 
L 231.843714 302.962465 
z
" clip-path="url(#p303094bac0)" style="fill: #0000ff; opacity: 0.7"/>
   </g>
   <g id="patch_35">
    <path d="M 235.101424 299.700832 
L 238.310674 299.700832 
L 238.310674 301.797596 
L 235.101424 301.797596 
z
" clip-path="url(#p303094bac0)" style="fill: #0000ff; opacity: 0.7"/>
   </g>
   <g id="patch_36">
    <path d="M 235.150525 299.700832 
L 238.359775 299.700832 
L 238.359775 299.700832 
L 235.150525 299.700832 
z
" clip-path="url(#p303094bac0)" style="fill: #0000ff; opacity: 0.7"/>
   </g>
   <g id="patch_37">
    <path d="M 245.041755 299.700832 
L 248.251006 299.700832 
L 248.251006 305.292203 
L 245.041755 305.292203 
z
" clip-path="url(#p303094bac0)" style="fill: #0000ff; opacity: 0.7"/>
   </g>
   <g id="patch_38">
    <path d="M 250.801397 299.700832 
L 254.010647 299.700832 
L 254.010647 302.263544 
L 250.801397 302.263544 
z
" clip-path="url(#p303094bac0)" style="fill: #0000ff; opacity: 0.7"/>
   </g>
   <g id="patch_39">
    <path d="M 257.24448 299.700832 
L 260.45373 299.700832 
L 260.45373 313.446287 
L 257.24448 313.446287 
z
" clip-path="url(#p303094bac0)" style="fill: #0000ff; opacity: 0.7"/>
   </g>
   <g id="patch_40">
    <path d="M 257.257638 299.700832 
L 260.466888 299.700832 
L 260.466888 346.062619 
L 257.257638 346.062619 
z
" clip-path="url(#p303094bac0)" style="fill: #0000ff; opacity: 0.7"/>
   </g>
   <g id="patch_41">
    <path d="M 257.258697 299.700832 
L 260.467947 299.700832 
L 260.467947 369.36 
L 257.258697 369.36 
z
" clip-path="url(#p303094bac0)" style="fill: #0000ff; opacity: 0.7"/>
   </g>
   <g id="patch_42">
    <path d="M 269.15542 299.700832 
L 272.36467 299.700832 
L 272.36467 302.263544 
L 269.15542 302.263544 
z
" clip-path="url(#p303094bac0)" style="fill: #0000ff; opacity: 0.7"/>
   </g>
   <g id="patch_43">
    <path d="M 270.087386 299.700832 
L 273.296636 299.700832 
L 273.296636 302.962465 
L 270.087386 302.962465 
z
" clip-path="url(#p303094bac0)" style="fill: #0000ff; opacity: 0.7"/>
   </g>
   <g id="patch_44">
    <path d="M 271.346696 299.700832 
L 274.555946 299.700832 
L 274.555946 301.331649 
L 271.346696 301.331649 
z
" clip-path="url(#p303094bac0)" style="fill: #0000ff; opacity: 0.7"/>
   </g>
   <g id="patch_45">
    <path d="M 275.69523 299.700832 
L 278.90448 299.700832 
L 278.90448 305.292203 
L 275.69523 305.292203 
z
" clip-path="url(#p303094bac0)" style="fill: #0000ff; opacity: 0.7"/>
   </g>
   <g id="patch_46">
    <path d="M 276.620136 299.700832 
L 279.829386 299.700832 
L 279.829386 299.700832 
L 276.620136 299.700832 
z
" clip-path="url(#p303094bac0)" style="fill: #0000ff; opacity: 0.7"/>
   </g>
   <g id="patch_47">
    <path d="M 281.674705 299.700832 
L 284.883955 299.700832 
L 284.883955 304.127334 
L 281.674705 304.127334 
z
" clip-path="url(#p303094bac0)" style="fill: #0000ff; opacity: 0.7"/>
   </g>
   <g id="patch_48">
    <path d="M 286.368875 299.700832 
L 289.578126 299.700832 
L 289.578126 301.098675 
L 286.368875 301.098675 
z
" clip-path="url(#p303094bac0)" style="fill: #0000ff; opacity: 0.7"/>
   </g>
   <g id="patch_49">
    <path d="M 291.322674 299.700832 
L 294.531924 299.700832 
L 294.531924 302.263544 
L 291.322674 302.263544 
z
" clip-path="url(#p303094bac0)" style="fill: #0000ff; opacity: 0.7"/>
   </g>
   <g id="patch_50">
    <path d="M 295.969027 299.700832 
L 299.178277 299.700832 
L 299.178277 299.700832 
L 295.969027 299.700832 
z
" clip-path="url(#p303094bac0)" style="fill: #0000ff; opacity: 0.7"/>
   </g>
   <g id="patch_51">
    <path d="M 297.44111 299.700832 
L 300.65036 299.700832 
L 300.65036 302.962465 
L 297.44111 302.962465 
z
" clip-path="url(#p303094bac0)" style="fill: #0000ff; opacity: 0.7"/>
   </g>
   <g id="patch_52">
    <path d="M 301.399399 299.700832 
L 304.608649 299.700832 
L 304.608649 311.116549 
L 301.399399 311.116549 
z
" clip-path="url(#p303094bac0)" style="fill: #0000ff; opacity: 0.7"/>
   </g>
   <g id="patch_53">
    <path d="M 301.453635 299.700832 
L 304.662886 299.700832 
L 304.662886 300.632727 
L 301.453635 300.632727 
z
" clip-path="url(#p303094bac0)" style="fill: #0000ff; opacity: 0.7"/>
   </g>
   <g id="patch_54">
    <path d="M 303.844206 299.700832 
L 307.053456 299.700832 
L 307.053456 302.962465 
L 303.844206 302.962465 
z
" clip-path="url(#p303094bac0)" style="fill: #0000ff; opacity: 0.7"/>
   </g>
   <g id="patch_55">
    <path d="M 304.374053 299.700832 
L 307.583303 299.700832 
L 307.583303 301.098675 
L 304.374053 301.098675 
z
" clip-path="url(#p303094bac0)" style="fill: #0000ff; opacity: 0.7"/>
   </g>
   <g id="patch_56">
    <path d="M 306.75981 299.700832 
L 309.96906 299.700832 
L 309.96906 311.116549 
L 306.75981 311.116549 
z
" clip-path="url(#p303094bac0)" style="fill: #0000ff; opacity: 0.7"/>
   </g>
   <g id="patch_57">
    <path d="M 307.248899 299.700832 
L 310.45815 299.700832 
L 310.45815 299.700832 
L 307.248899 299.700832 
z
" clip-path="url(#p303094bac0)" style="fill: #0000ff; opacity: 0.7"/>
   </g>
   <g id="patch_58">
    <path d="M 309.977725 299.700832 
L 313.186975 299.700832 
L 313.186975 306.457072 
L 309.977725 306.457072 
z
" clip-path="url(#p303094bac0)" style="fill: #0000ff; opacity: 0.7"/>
   </g>
   <g id="patch_59">
    <path d="M 316.102258 299.700832 
L 319.311508 299.700832 
L 319.311508 315.776025 
L 316.102258 315.776025 
z
" clip-path="url(#p303094bac0)" style="fill: #0000ff; opacity: 0.7"/>
   </g>
   <g id="patch_60">
    <path d="M 316.22421 299.700832 
L 319.43346 299.700832 
L 319.43346 305.292203 
L 316.22421 305.292203 
z
" clip-path="url(#p303094bac0)" style="fill: #0000ff; opacity: 0.7"/>
   </g>
   <g id="patch_61">
    <path d="M 317.585895 299.700832 
L 320.795145 299.700832 
L 320.795145 301.331649 
L 317.585895 301.331649 
z
" clip-path="url(#p303094bac0)" style="fill: #0000ff; opacity: 0.7"/>
   </g>
   <g id="patch_62">
    <path d="M 318.53134 299.700832 
L 321.74059 299.700832 
L 321.74059 302.263544 
L 318.53134 302.263544 
z
" clip-path="url(#p303094bac0)" style="fill: #0000ff; opacity: 0.7"/>
   </g>
   <g id="patch_63">
    <path d="M 319.434102 299.700832 
L 322.643352 299.700832 
L 322.643352 301.331649 
L 319.434102 301.331649 
z
" clip-path="url(#p303094bac0)" style="fill: #0000ff; opacity: 0.7"/>
   </g>
   <g id="patch_64">
    <path d="M 326.342013 299.700832 
L 329.551263 299.700832 
L 329.551263 311.116549 
L 326.342013 311.116549 
z
" clip-path="url(#p303094bac0)" style="fill: #0000ff; opacity: 0.7"/>
   </g>
   <g id="patch_65">
    <path d="M 331.768213 299.700832 
L 334.977464 299.700832 
L 334.977464 302.263544 
L 331.768213 302.263544 
z
" clip-path="url(#p303094bac0)" style="fill: #0000ff; opacity: 0.7"/>
   </g>
   <g id="patch_66">
    <path d="M 331.822771 299.700832 
L 335.032021 299.700832 
L 335.032021 299.933806 
L 331.822771 299.933806 
z
" clip-path="url(#p303094bac0)" style="fill: #0000ff; opacity: 0.7"/>
   </g>
   <g id="patch_67">
    <path d="M 335.26758 299.700832 
L 338.47683 299.700832 
L 338.47683 322.765239 
L 335.26758 322.765239 
z
" clip-path="url(#p303094bac0)" style="fill: #0000ff; opacity: 0.7"/>
   </g>
   <g id="patch_68">
    <path d="M 339.130233 299.700832 
L 342.339484 299.700832 
L 342.339484 300.16678 
L 339.130233 300.16678 
z
" clip-path="url(#p303094bac0)" style="fill: #0000ff; opacity: 0.7"/>
   </g>
   <g id="patch_69">
    <path d="M 343.085955 299.700832 
L 346.295205 299.700832 
L 346.295205 302.263544 
L 343.085955 302.263544 
z
" clip-path="url(#p303094bac0)" style="fill: #0000ff; opacity: 0.7"/>
   </g>
   <g id="patch_70">
    <path d="M 343.889551 299.700832 
L 347.098802 299.700832 
L 347.098802 302.03057 
L 343.889551 302.03057 
z
" clip-path="url(#p303094bac0)" style="fill: #0000ff; opacity: 0.7"/>
   </g>
   <g id="patch_71">
    <path d="M 345.683522 299.700832 
L 348.892773 299.700832 
L 348.892773 299.700832 
L 345.683522 299.700832 
z
" clip-path="url(#p303094bac0)" style="fill: #0000ff; opacity: 0.7"/>
   </g>
   <g id="patch_72">
    <path d="M 350.534946 299.700832 
L 353.744196 299.700832 
L 353.744196 302.263544 
L 350.534946 302.263544 
z
" clip-path="url(#p303094bac0)" style="fill: #0000ff; opacity: 0.7"/>
   </g>
   <g id="patch_73">
    <path d="M 351.365179 299.700832 
L 354.574429 299.700832 
L 354.574429 299.700832 
L 351.365179 299.700832 
z
" clip-path="url(#p303094bac0)" style="fill: #0000ff; opacity: 0.7"/>
   </g>
   <g id="patch_74">
    <path d="M 354.198626 299.700832 
L 357.407876 299.700832 
L 357.407876 300.16678 
L 354.198626 300.16678 
z
" clip-path="url(#p303094bac0)" style="fill: #0000ff; opacity: 0.7"/>
   </g>
   <g id="patch_75">
    <path d="M 354.300038 299.700832 
L 357.509289 299.700832 
L 357.509289 299.700832 
L 354.300038 299.700832 
z
" clip-path="url(#p303094bac0)" style="fill: #0000ff; opacity: 0.7"/>
   </g>
   <g id="patch_76">
    <path d="M 356.63894 299.700832 
L 359.84819 299.700832 
L 359.84819 300.865701 
L 356.63894 300.865701 
z
" clip-path="url(#p303094bac0)" style="fill: #0000ff; opacity: 0.7"/>
   </g>
   <g id="patch_77">
    <path d="M 357.39536 299.700832 
L 360.60461 299.700832 
L 360.60461 302.03057 
L 357.39536 302.03057 
z
" clip-path="url(#p303094bac0)" style="fill: #0000ff; opacity: 0.7"/>
   </g>
   <g id="patch_78">
    <path d="M 363.169122 299.700832 
L 366.378373 299.700832 
L 366.378373 301.331649 
L 363.169122 301.331649 
z
" clip-path="url(#p303094bac0)" style="fill: #0000ff; opacity: 0.7"/>
   </g>
   <g id="patch_79">
    <path d="M 364.443837 299.700832 
L 367.653087 299.700832 
L 367.653087 301.331649 
L 364.443837 301.331649 
z
" clip-path="url(#p303094bac0)" style="fill: #0000ff; opacity: 0.7"/>
   </g>
   <g id="patch_80">
    <path d="M 365.840181 299.700832 
L 369.049432 299.700832 
L 369.049432 301.331649 
L 365.840181 301.331649 
z
" clip-path="url(#p303094bac0)" style="fill: #0000ff; opacity: 0.7"/>
   </g>
   <g id="patch_81">
    <path d="M 366.215664 299.700832 
L 369.424914 299.700832 
L 369.424914 306.457072 
L 366.215664 306.457072 
z
" clip-path="url(#p303094bac0)" style="fill: #0000ff; opacity: 0.7"/>
   </g>
   <g id="patch_82">
    <path d="M 369.123886 299.700832 
L 372.333136 299.700832 
L 372.333136 306.457072 
L 369.123886 306.457072 
z
" clip-path="url(#p303094bac0)" style="fill: #0000ff; opacity: 0.7"/>
   </g>
   <g id="patch_83">
    <path d="M 373.605604 299.700832 
L 376.814854 299.700832 
L 376.814854 299.700832 
L 373.605604 299.700832 
z
" clip-path="url(#p303094bac0)" style="fill: #0000ff; opacity: 0.7"/>
   </g>
   <g id="patch_84">
    <path d="M 376.229808 299.700832 
L 379.439058 299.700832 
L 379.439058 300.865701 
L 376.229808 300.865701 
z
" clip-path="url(#p303094bac0)" style="fill: #0000ff; opacity: 0.7"/>
   </g>
   <g id="patch_85">
    <path d="M 378.451893 299.700832 
L 381.661143 299.700832 
L 381.661143 300.16678 
L 378.451893 300.16678 
z
" clip-path="url(#p303094bac0)" style="fill: #0000ff; opacity: 0.7"/>
   </g>
   <g id="patch_86">
    <path d="M 378.529236 299.700832 
L 381.738486 299.700832 
L 381.738486 305.292203 
L 378.529236 305.292203 
z
" clip-path="url(#p303094bac0)" style="fill: #0000ff; opacity: 0.7"/>
   </g>
   <g id="patch_87">
    <path d="M 380.339895 299.700832 
L 383.549145 299.700832 
L 383.549145 300.399753 
L 380.339895 300.399753 
z
" clip-path="url(#p303094bac0)" style="fill: #0000ff; opacity: 0.7"/>
   </g>
   <g id="patch_88">
    <path d="M 382.059732 299.700832 
L 385.268982 299.700832 
L 385.268982 346.062619 
L 382.059732 346.062619 
z
" clip-path="url(#p303094bac0)" style="fill: #0000ff; opacity: 0.7"/>
   </g>
   <g id="patch_89">
    <path d="M 383.7831 299.700832 
L 386.99235 299.700832 
L 386.99235 301.098675 
L 383.7831 301.098675 
z
" clip-path="url(#p303094bac0)" style="fill: #0000ff; opacity: 0.7"/>
   </g>
   <g id="patch_90">
    <path d="M 389.303973 299.700832 
L 392.513223 299.700832 
L 392.513223 300.16678 
L 389.303973 300.16678 
z
" clip-path="url(#p303094bac0)" style="fill: #0000ff; opacity: 0.7"/>
   </g>
   <g id="patch_91">
    <path d="M 389.480161 299.700832 
L 392.689411 299.700832 
L 392.689411 301.331649 
L 389.480161 301.331649 
z
" clip-path="url(#p303094bac0)" style="fill: #0000ff; opacity: 0.7"/>
   </g>
   <g id="patch_92">
    <path d="M 392.236586 299.700832 
L 395.445836 299.700832 
L 395.445836 305.292203 
L 392.236586 305.292203 
z
" clip-path="url(#p303094bac0)" style="fill: #0000ff; opacity: 0.7"/>
   </g>
   <g id="patch_93">
    <path d="M 399.28442 299.700832 
L 402.49367 299.700832 
L 402.49367 315.776025 
L 399.28442 315.776025 
z
" clip-path="url(#p303094bac0)" style="fill: #0000ff; opacity: 0.7"/>
   </g>
   <g id="patch_94">
    <path d="M 399.550788 299.700832 
L 402.760038 299.700832 
L 402.760038 302.962465 
L 399.550788 302.962465 
z
" clip-path="url(#p303094bac0)" style="fill: #0000ff; opacity: 0.7"/>
   </g>
   <g id="patch_95">
    <path d="M 400.042124 299.700832 
L 403.251374 299.700832 
L 403.251374 300.16678 
L 400.042124 300.16678 
z
" clip-path="url(#p303094bac0)" style="fill: #0000ff; opacity: 0.7"/>
   </g>
   <g id="patch_96">
    <path d="M 400.612408 299.700832 
L 403.821658 299.700832 
L 403.821658 299.700832 
L 400.612408 299.700832 
z
" clip-path="url(#p303094bac0)" style="fill: #0000ff; opacity: 0.7"/>
   </g>
   <g id="patch_97">
    <path d="M 403.767101 299.700832 
L 406.976351 299.700832 
L 406.976351 299.700832 
L 403.767101 299.700832 
z
" clip-path="url(#p303094bac0)" style="fill: #0000ff; opacity: 0.7"/>
   </g>
   <g id="patch_98">
    <path d="M 404.6965 299.700832 
L 407.90575 299.700832 
L 407.90575 357.71131 
L 404.6965 357.71131 
z
" clip-path="url(#p303094bac0)" style="fill: #0000ff; opacity: 0.7"/>
   </g>
   <g id="patch_99">
    <path d="M 406.02545 299.700832 
L 409.234701 299.700832 
L 409.234701 302.962465 
L 406.02545 302.962465 
z
" clip-path="url(#p303094bac0)" style="fill: #0000ff; opacity: 0.7"/>
   </g>
   <g id="patch_100">
    <path d="M 409.190092 299.700832 
L 412.399342 299.700832 
L 412.399342 301.331649 
L 409.190092 301.331649 
z
" clip-path="url(#p303094bac0)" style="fill: #0000ff; opacity: 0.7"/>
   </g>
   <g id="patch_101">
    <path d="M 411.040546 299.700832 
L 414.249796 299.700832 
L 414.249796 302.962465 
L 411.040546 302.962465 
z
" clip-path="url(#p303094bac0)" style="fill: #0000ff; opacity: 0.7"/>
   </g>
   <g id="patch_102">
    <path d="M 411.977968 299.700832 
L 415.187218 299.700832 
L 415.187218 315.776025 
L 411.977968 315.776025 
z
" clip-path="url(#p303094bac0)" style="fill: #0000ff; opacity: 0.7"/>
   </g>
   <g id="patch_103">
    <path d="M 412.16282 299.700832 
L 415.372071 299.700832 
L 415.372071 305.292203 
L 412.16282 305.292203 
z
" clip-path="url(#p303094bac0)" style="fill: #0000ff; opacity: 0.7"/>
   </g>
   <g id="patch_104">
    <path d="M 413.647099 299.700832 
L 416.856349 299.700832 
L 416.856349 302.962465 
L 413.647099 302.962465 
z
" clip-path="url(#p303094bac0)" style="fill: #0000ff; opacity: 0.7"/>
   </g>
   <g id="patch_105">
    <path d="M 414.838693 299.700832 
L 418.047944 299.700832 
L 418.047944 311.116549 
L 414.838693 311.116549 
z
" clip-path="url(#p303094bac0)" style="fill: #0000ff; opacity: 0.7"/>
   </g>
   <g id="patch_106">
    <path d="M 416.568479 299.700832 
L 419.777729 299.700832 
L 419.777729 302.962465 
L 416.568479 302.962465 
z
" clip-path="url(#p303094bac0)" style="fill: #0000ff; opacity: 0.7"/>
   </g>
   <g id="patch_107">
    <path d="M 417.490176 299.700832 
L 420.699426 299.700832 
L 420.699426 301.797596 
L 417.490176 301.797596 
z
" clip-path="url(#p303094bac0)" style="fill: #0000ff; opacity: 0.7"/>
   </g>
   <g id="patch_108">
    <path d="M 421.395192 299.700832 
L 424.604442 299.700832 
L 424.604442 305.292203 
L 421.395192 305.292203 
z
" clip-path="url(#p303094bac0)" style="fill: #0000ff; opacity: 0.7"/>
   </g>
   <g id="patch_109">
    <path d="M 421.680494 299.700832 
L 424.889744 299.700832 
L 424.889744 315.776025 
L 421.680494 315.776025 
z
" clip-path="url(#p303094bac0)" style="fill: #0000ff; opacity: 0.7"/>
   </g>
   <g id="patch_110">
    <path d="M 429.708433 299.700832 
L 432.917684 299.700832 
L 432.917684 329.754453 
L 429.708433 329.754453 
z
" clip-path="url(#p303094bac0)" style="fill: #0000ff; opacity: 0.7"/>
   </g>
   <g id="patch_111">
    <path d="M 431.052467 299.700832 
L 434.261718 299.700832 
L 434.261718 311.116549 
L 431.052467 311.116549 
z
" clip-path="url(#p303094bac0)" style="fill: #0000ff; opacity: 0.7"/>
   </g>
   <g id="patch_112">
    <path d="M 431.311454 299.700832 
L 434.520704 299.700832 
L 434.520704 302.962465 
L 431.311454 302.962465 
z
" clip-path="url(#p303094bac0)" style="fill: #0000ff; opacity: 0.7"/>
   </g>
   <g id="patch_113">
    <path d="M 432.223523 299.700832 
L 435.432773 299.700832 
L 435.432773 302.962465 
L 432.223523 302.962465 
z
" clip-path="url(#p303094bac0)" style="fill: #0000ff; opacity: 0.7"/>
   </g>
   <g id="patch_114">
    <path d="M 433.414797 299.700832 
L 436.624047 299.700832 
L 436.624047 300.16678 
L 433.414797 300.16678 
z
" clip-path="url(#p303094bac0)" style="fill: #0000ff; opacity: 0.7"/>
   </g>
   <g id="patch_115">
    <path d="M 434.028084 299.700832 
L 437.237335 299.700832 
L 437.237335 301.098675 
L 434.028084 301.098675 
z
" clip-path="url(#p303094bac0)" style="fill: #0000ff; opacity: 0.7"/>
   </g>
   <g id="patch_116">
    <path d="M 437.050556 299.700832 
L 440.259806 299.700832 
L 440.259806 302.263544 
L 437.050556 302.263544 
z
" clip-path="url(#p303094bac0)" style="fill: #0000ff; opacity: 0.7"/>
   </g>
   <g id="patch_117">
    <path d="M 444.303462 299.700832 
L 447.512712 299.700832 
L 447.512712 346.062619 
L 444.303462 346.062619 
z
" clip-path="url(#p303094bac0)" style="fill: #0000ff; opacity: 0.7"/>
   </g>
   <g id="patch_118">
    <path d="M 444.367968 299.700832 
L 447.577218 299.700832 
L 447.577218 305.292203 
L 444.367968 305.292203 
z
" clip-path="url(#p303094bac0)" style="fill: #0000ff; opacity: 0.7"/>
   </g>
   <g id="patch_119">
    <path d="M 445.356096 299.700832 
L 448.565346 299.700832 
L 448.565346 306.457072 
L 445.356096 306.457072 
z
" clip-path="url(#p303094bac0)" style="fill: #0000ff; opacity: 0.7"/>
   </g>
   <g id="patch_120">
    <path d="M 447.619259 299.700832 
L 450.828509 299.700832 
L 450.828509 315.776025 
L 447.619259 315.776025 
z
" clip-path="url(#p303094bac0)" style="fill: #0000ff; opacity: 0.7"/>
   </g>
   <g id="patch_121">
    <path d="M 456.901053 299.700832 
L 460.110303 299.700832 
L 460.110303 300.16678 
L 456.901053 300.16678 
z
" clip-path="url(#p303094bac0)" style="fill: #0000ff; opacity: 0.7"/>
   </g>
   <g id="patch_122">
    <path d="M 460.620574 299.700832 
L 463.829824 299.700832 
L 463.829824 299.700832 
L 460.620574 299.700832 
z
" clip-path="url(#p303094bac0)" style="fill: #0000ff; opacity: 0.7"/>
   </g>
   <g id="patch_123">
    <path d="M 463.261466 299.700832 
L 466.470716 299.700832 
L 466.470716 301.098675 
L 463.261466 301.098675 
z
" clip-path="url(#p303094bac0)" style="fill: #0000ff; opacity: 0.7"/>
   </g>
   <g id="patch_124">
    <path d="M 467.914879 299.700832 
L 471.124129 299.700832 
L 471.124129 329.754453 
L 467.914879 329.754453 
z
" clip-path="url(#p303094bac0)" style="fill: #0000ff; opacity: 0.7"/>
   </g>
   <g id="patch_125">
    <path d="M 474.125741 299.700832 
L 477.334991 299.700832 
L 477.334991 301.098675 
L 474.125741 301.098675 
z
" clip-path="url(#p303094bac0)" style="fill: #0000ff; opacity: 0.7"/>
   </g>
   <g id="patch_126">
    <path d="M 478.921965 299.700832 
L 482.131215 299.700832 
L 482.131215 329.754453 
L 478.921965 329.754453 
z
" clip-path="url(#p303094bac0)" style="fill: #0000ff; opacity: 0.7"/>
   </g>
   <g id="patch_127">
    <path d="M 482.307082 299.700832 
L 485.516333 299.700832 
L 485.516333 329.754453 
L 482.307082 329.754453 
z
" clip-path="url(#p303094bac0)" style="fill: #0000ff; opacity: 0.7"/>
   </g>
   <g id="patch_128">
    <path d="M 488.619357 299.700832 
L 491.828607 299.700832 
L 491.828607 346.062619 
L 488.619357 346.062619 
z
" clip-path="url(#p303094bac0)" style="fill: #0000ff; opacity: 0.7"/>
   </g>
   <g id="patch_129">
    <path d="M 497.498068 299.700832 
L 500.707319 299.700832 
L 500.707319 302.263544 
L 497.498068 302.263544 
z
" clip-path="url(#p303094bac0)" style="fill: #0000ff; opacity: 0.7"/>
   </g>
   <g id="patch_130">
    <path d="M 504.130947 299.700832 
L 507.340197 299.700832 
L 507.340197 329.754453 
L 504.130947 329.754453 
z
" clip-path="url(#p303094bac0)" style="fill: #0000ff; opacity: 0.7"/>
   </g>
   <g id="patch_131">
    <path d="M 521.86045 299.700832 
L 525.0697 299.700832 
L 525.0697 306.457072 
L 521.86045 306.457072 
z
" clip-path="url(#p303094bac0)" style="fill: #0000ff; opacity: 0.7"/>
   </g>
   <g id="patch_132">
    <path d="M 521.935546 299.700832 
L 525.144797 299.700832 
L 525.144797 300.399753 
L 521.935546 300.399753 
z
" clip-path="url(#p303094bac0)" style="fill: #0000ff; opacity: 0.7"/>
   </g>
   <g id="patch_133">
    <path d="M 524.570662 299.700832 
L 527.779912 299.700832 
L 527.779912 301.098675 
L 524.570662 301.098675 
z
" clip-path="url(#p303094bac0)" style="fill: #0000ff; opacity: 0.7"/>
   </g>
   <g id="patch_134">
    <path d="M 526.264183 299.700832 
L 529.473433 299.700832 
L 529.473433 346.062619 
L 526.264183 346.062619 
z
" clip-path="url(#p303094bac0)" style="fill: #0000ff; opacity: 0.7"/>
   </g>
   <g id="patch_135">
    <path d="M 527.928179 299.700832 
L 531.13743 299.700832 
L 531.13743 302.962465 
L 527.928179 302.962465 
z
" clip-path="url(#p303094bac0)" style="fill: #0000ff; opacity: 0.7"/>
   </g>
   <g id="patch_136">
    <path d="M 529.164703 299.700832 
L 532.373954 299.700832 
L 532.373954 322.765239 
L 529.164703 322.765239 
z
" clip-path="url(#p303094bac0)" style="fill: #0000ff; opacity: 0.7"/>
   </g>
   <g id="patch_137">
    <path d="M 538.458371 299.700832 
L 541.667622 299.700832 
L 541.667622 357.71131 
L 538.458371 357.71131 
z
" clip-path="url(#p303094bac0)" style="fill: #0000ff; opacity: 0.7"/>
   </g>
   <g id="patch_138">
    <path d="M 551.666041 299.700832 
L 554.875291 299.700832 
L 554.875291 346.062619 
L 551.666041 346.062619 
z
" clip-path="url(#p303094bac0)" style="fill: #0000ff; opacity: 0.7"/>
   </g>
   <g id="patch_139">
    <path d="M 565.077498 299.700832 
L 568.286748 299.700832 
L 568.286748 311.116549 
L 565.077498 311.116549 
z
" clip-path="url(#p303094bac0)" style="fill: #0000ff; opacity: 0.7"/>
   </g>
   <g id="patch_140">
    <path d="M 570.88624 299.700832 
L 574.095491 299.700832 
L 574.095491 302.962465 
L 570.88624 302.962465 
z
" clip-path="url(#p303094bac0)" style="fill: #0000ff; opacity: 0.7"/>
   </g>
   <g id="patch_141">
    <path d="M 575.364428 299.700832 
L 578.573679 299.700832 
L 578.573679 357.71131 
L 575.364428 357.71131 
z
" clip-path="url(#p303094bac0)" style="fill: #0000ff; opacity: 0.7"/>
   </g>
   <g id="patch_142">
    <path d="M 578.309878 299.700832 
L 581.519128 299.700832 
L 581.519128 305.292203 
L 578.309878 305.292203 
z
" clip-path="url(#p303094bac0)" style="fill: #0000ff; opacity: 0.7"/>
   </g>
   <g id="patch_143">
    <path d="M 583.35161 299.700832 
L 586.560861 299.700832 
L 586.560861 301.098675 
L 583.35161 301.098675 
z
" clip-path="url(#p303094bac0)" style="fill: #0000ff; opacity: 0.7"/>
   </g>
   <g id="patch_144">
    <path d="M 588.864781 299.700832 
L 592.074032 299.700832 
L 592.074032 304.127334 
L 588.864781 304.127334 
z
" clip-path="url(#p303094bac0)" style="fill: #0000ff; opacity: 0.7"/>
   </g>
   <g id="patch_145">
    <path d="M 592.484174 299.700832 
L 595.693424 299.700832 
L 595.693424 302.263544 
L 592.484174 302.263544 
z
" clip-path="url(#p303094bac0)" style="fill: #0000ff; opacity: 0.7"/>
   </g>
   <g id="patch_146">
    <path d="M 602.712375 299.700832 
L 605.921626 299.700832 
L 605.921626 315.776025 
L 602.712375 315.776025 
z
" clip-path="url(#p303094bac0)" style="fill: #0000ff; opacity: 0.7"/>
   </g>
   <g id="patch_147">
    <path d="M 616.914591 299.700832 
L 620.123842 299.700832 
L 620.123842 302.962465 
L 616.914591 302.962465 
z
" clip-path="url(#p303094bac0)" style="fill: #0000ff; opacity: 0.7"/>
   </g>
   <g id="patch_148">
    <path d="M 618.95054 299.700832 
L 622.15979 299.700832 
L 622.15979 322.765239 
L 618.95054 322.765239 
z
" clip-path="url(#p303094bac0)" style="fill: #0000ff; opacity: 0.7"/>
   </g>
   <g id="patch_149">
    <path d="M 619.427113 299.700832 
L 622.636364 299.700832 
L 622.636364 305.292203 
L 619.427113 305.292203 
z
" clip-path="url(#p303094bac0)" style="fill: #0000ff; opacity: 0.7"/>
   </g>
   <g id="patch_150">
    <path d="M 115.363636 299.700832 
L 116.005486 299.700832 
L 116.005486 296.325194 
L 115.363636 296.325194 
z
" clip-path="url(#p303094bac0)" style="opacity: 0.7"/>
   </g>
   <g id="patch_151">
    <path d="M 121.226244 299.700832 
L 121.868094 299.700832 
L 121.868094 294.342008 
L 121.226244 294.342008 
z
" clip-path="url(#p303094bac0)" style="opacity: 0.7"/>
   </g>
   <g id="patch_152">
    <path d="M 124.576305 299.700832 
L 125.218155 299.700832 
L 125.218155 293.998671 
L 124.576305 293.998671 
z
" clip-path="url(#p303094bac0)" style="opacity: 0.7"/>
   </g>
   <g id="patch_153">
    <path d="M 129.601397 299.700832 
L 130.243247 299.700832 
L 130.243247 283.465275 
L 129.601397 283.465275 
z
" clip-path="url(#p303094bac0)" style="opacity: 0.7"/>
   </g>
   <g id="patch_154">
    <path d="M 137.139034 299.700832 
L 137.780884 299.700832 
L 137.780884 290.411828 
L 137.139034 290.411828 
z
" clip-path="url(#p303094bac0)" style="opacity: 0.7"/>
   </g>
   <g id="patch_155">
    <path d="M 138.814065 299.700832 
L 139.455915 299.700832 
L 139.455915 290.543936 
L 138.814065 290.543936 
z
" clip-path="url(#p303094bac0)" style="opacity: 0.7"/>
   </g>
   <g id="patch_156">
    <path d="M 147.189218 299.700832 
L 147.831068 299.700832 
L 147.831068 277.608226 
L 147.189218 277.608226 
z
" clip-path="url(#p303094bac0)" style="opacity: 0.7"/>
   </g>
   <g id="patch_157">
    <path d="M 151.376795 299.700832 
L 152.018645 299.700832 
L 152.018645 269.267856 
L 151.376795 269.267856 
z
" clip-path="url(#p303094bac0)" style="opacity: 0.7"/>
   </g>
   <g id="patch_158">
    <path d="M 157.239402 299.700832 
L 157.881252 299.700832 
L 157.881252 281.308328 
L 157.239402 281.308328 
z
" clip-path="url(#p303094bac0)" style="opacity: 0.7"/>
   </g>
   <g id="patch_159">
    <path d="M 160.589463 299.700832 
L 161.231313 299.700832 
L 161.231313 281.193929 
L 160.589463 281.193929 
z
" clip-path="url(#p303094bac0)" style="opacity: 0.7"/>
   </g>
   <g id="patch_160">
    <path d="M 166.45207 299.700832 
L 167.09392 299.700832 
L 167.09392 292.698469 
L 166.45207 292.698469 
z
" clip-path="url(#p303094bac0)" style="opacity: 0.7"/>
   </g>
   <g id="patch_161">
    <path d="M 168.964616 299.700832 
L 169.606466 299.700832 
L 169.606466 294.394708 
L 168.964616 294.394708 
z
" clip-path="url(#p303094bac0)" style="opacity: 0.7"/>
   </g>
   <g id="patch_162">
    <path d="M 175.664738 299.700832 
L 176.306588 299.700832 
L 176.306588 294.365106 
L 175.664738 294.365106 
z
" clip-path="url(#p303094bac0)" style="opacity: 0.7"/>
   </g>
   <g id="patch_163">
    <path d="M 182.364861 299.700832 
L 183.006711 299.700832 
L 183.006711 296.282571 
L 182.364861 296.282571 
z
" clip-path="url(#p303094bac0)" style="opacity: 0.7"/>
   </g>
   <g id="patch_164">
    <path d="M 187.389953 299.700832 
L 188.031803 299.700832 
L 188.031803 297.440003 
L 187.389953 297.440003 
z
" clip-path="url(#p303094bac0)" style="opacity: 0.7"/>
   </g>
   <g id="patch_165">
    <path d="M 189.902499 299.700832 
L 190.544349 299.700832 
L 190.544349 297.261042 
L 189.902499 297.261042 
z
" clip-path="url(#p303094bac0)" style="opacity: 0.7"/>
   </g>
   <g id="patch_166">
    <path d="M 194.090075 299.700832 
L 194.731925 299.700832 
L 194.731925 298.552106 
L 194.090075 298.552106 
z
" clip-path="url(#p303094bac0)" style="opacity: 0.7"/>
   </g>
   <g id="patch_167">
    <path d="M 198.277652 299.700832 
L 198.919502 299.700832 
L 198.919502 297.399928 
L 198.277652 297.399928 
z
" clip-path="url(#p303094bac0)" style="opacity: 0.7"/>
   </g>
   <g id="patch_168">
    <path d="M 202.465228 299.700832 
L 203.107078 299.700832 
L 203.107078 292.883635 
L 202.465228 292.883635 
z
" clip-path="url(#p303094bac0)" style="opacity: 0.7"/>
   </g>
   <g id="patch_169">
    <path d="M 205.815289 299.700832 
L 206.457139 299.700832 
L 206.457139 279.433689 
L 205.815289 279.433689 
z
" clip-path="url(#p303094bac0)" style="opacity: 0.7"/>
   </g>
   <g id="patch_170">
    <path d="M 214.190442 299.700832 
L 214.832293 299.700832 
L 214.832293 297.370115 
L 214.190442 297.370115 
z
" clip-path="url(#p303094bac0)" style="opacity: 0.7"/>
   </g>
   <g id="patch_171">
    <path d="M 217.540504 299.700832 
L 218.182354 299.700832 
L 218.182354 289.628995 
L 217.540504 289.628995 
z
" clip-path="url(#p303094bac0)" style="opacity: 0.7"/>
   </g>
   <g id="patch_172">
    <path d="M 222.565596 299.700832 
L 223.207446 299.700832 
L 223.207446 292.489119 
L 222.565596 292.489119 
z
" clip-path="url(#p303094bac0)" style="opacity: 0.7"/>
   </g>
   <g id="patch_173">
    <path d="M 230.103233 299.700832 
L 230.745083 299.700832 
L 230.745083 294.980059 
L 230.103233 294.980059 
z
" clip-path="url(#p303094bac0)" style="opacity: 0.7"/>
   </g>
   <g id="patch_174">
    <path d="M 235.128325 299.700832 
L 235.770175 299.700832 
L 235.770175 293.593292 
L 235.128325 293.593292 
z
" clip-path="url(#p303094bac0)" style="opacity: 0.7"/>
   </g>
   <g id="patch_175">
    <path d="M 240.153417 299.700832 
L 240.795267 299.700832 
L 240.795267 294.245814 
L 240.153417 294.245814 
z
" clip-path="url(#p303094bac0)" style="opacity: 0.7"/>
   </g>
   <g id="patch_176">
    <path d="M 245.178509 299.700832 
L 245.820359 299.700832 
L 245.820359 281.285381 
L 245.178509 281.285381 
z
" clip-path="url(#p303094bac0)" style="opacity: 0.7"/>
   </g>
   <g id="patch_177">
    <path d="M 251.041116 299.700832 
L 251.682966 299.700832 
L 251.682966 287.016498 
L 251.041116 287.016498 
z
" clip-path="url(#p303094bac0)" style="opacity: 0.7"/>
   </g>
   <g id="patch_178">
    <path d="M 256.903723 299.700832 
L 257.545573 299.700832 
L 257.545573 66.96 
L 256.903723 66.96 
z
" clip-path="url(#p303094bac0)" style="opacity: 0.7"/>
   </g>
   <g id="patch_179">
    <path d="M 265.278876 299.700832 
L 265.920726 299.700832 
L 265.920726 296.48257 
L 265.278876 296.48257 
z
" clip-path="url(#p303094bac0)" style="opacity: 0.7"/>
   </g>
   <g id="patch_180">
    <path d="M 270.303968 299.700832 
L 270.945818 299.700832 
L 270.945818 282.223125 
L 270.303968 282.223125 
z
" clip-path="url(#p303094bac0)" style="opacity: 0.7"/>
   </g>
   <g id="patch_181">
    <path d="M 276.166575 299.700832 
L 276.808425 299.700832 
L 276.808425 252.905885 
L 276.166575 252.905885 
z
" clip-path="url(#p303094bac0)" style="opacity: 0.7"/>
   </g>
   <g id="patch_182">
    <path d="M 282.029182 299.700832 
L 282.671032 299.700832 
L 282.671032 277.522199 
L 282.029182 277.522199 
z
" clip-path="url(#p303094bac0)" style="opacity: 0.7"/>
   </g>
   <g id="patch_183">
    <path d="M 285.379244 299.700832 
L 286.021094 299.700832 
L 286.021094 294.502762 
L 285.379244 294.502762 
z
" clip-path="url(#p303094bac0)" style="opacity: 0.7"/>
   </g>
   <g id="patch_184">
    <path d="M 291.241851 299.700832 
L 291.883701 299.700832 
L 291.883701 296.086448 
L 291.241851 296.086448 
z
" clip-path="url(#p303094bac0)" style="opacity: 0.7"/>
   </g>
   <g id="patch_185">
    <path d="M 297.104458 299.700832 
L 297.746308 299.700832 
L 297.746308 293.727451 
L 297.104458 293.727451 
z
" clip-path="url(#p303094bac0)" style="opacity: 0.7"/>
   </g>
   <g id="patch_186">
    <path d="M 301.292034 299.700832 
L 301.933884 299.700832 
L 301.933884 275.156484 
L 301.292034 275.156484 
z
" clip-path="url(#p303094bac0)" style="opacity: 0.7"/>
   </g>
   <g id="patch_187">
    <path d="M 307.154641 299.700832 
L 307.796492 299.700832 
L 307.796492 244.72007 
L 307.154641 244.72007 
z
" clip-path="url(#p303094bac0)" style="opacity: 0.7"/>
   </g>
   <g id="patch_188">
    <path d="M 316.36731 299.700832 
L 317.00916 299.700832 
L 317.00916 275.199922 
L 316.36731 275.199922 
z
" clip-path="url(#p303094bac0)" style="opacity: 0.7"/>
   </g>
   <g id="patch_189">
    <path d="M 326.417494 299.700832 
L 327.059344 299.700832 
L 327.059344 287.57822 
L 326.417494 287.57822 
z
" clip-path="url(#p303094bac0)" style="opacity: 0.7"/>
   </g>
   <g id="patch_190">
    <path d="M 332.280101 299.700832 
L 332.921951 299.700832 
L 332.921951 292.050812 
L 332.280101 292.050812 
z
" clip-path="url(#p303094bac0)" style="opacity: 0.7"/>
   </g>
   <g id="patch_191">
    <path d="M 335.630162 299.700832 
L 336.272012 299.700832 
L 336.272012 282.854982 
L 335.630162 282.854982 
z
" clip-path="url(#p303094bac0)" style="opacity: 0.7"/>
   </g>
   <g id="patch_192">
    <path d="M 338.980223 299.700832 
L 339.622073 299.700832 
L 339.622073 291.164787 
L 338.980223 291.164787 
z
" clip-path="url(#p303094bac0)" style="opacity: 0.7"/>
   </g>
   <g id="patch_193">
    <path d="M 344.005315 299.700832 
L 344.647165 299.700832 
L 344.647165 234.750183 
L 344.005315 234.750183 
z
" clip-path="url(#p303094bac0)" style="opacity: 0.7"/>
   </g>
   <g id="patch_194">
    <path d="M 351.542953 299.700832 
L 352.184803 299.700832 
L 352.184803 258.199398 
L 351.542953 258.199398 
z
" clip-path="url(#p303094bac0)" style="opacity: 0.7"/>
   </g>
   <g id="patch_195">
    <path d="M 354.055499 299.700832 
L 354.697349 299.700832 
L 354.697349 228.619386 
L 354.055499 228.619386 
z
" clip-path="url(#p303094bac0)" style="opacity: 0.7"/>
   </g>
   <g id="patch_196">
    <path d="M 357.40556 299.700832 
L 358.04741 299.700832 
L 358.04741 142.97746 
L 357.40556 142.97746 
z
" clip-path="url(#p303094bac0)" style="opacity: 0.7"/>
   </g>
   <g id="patch_197">
    <path d="M 365.780713 299.700832 
L 366.422563 299.700832 
L 366.422563 287.040366 
L 365.780713 287.040366 
z
" clip-path="url(#p303094bac0)" style="opacity: 0.7"/>
   </g>
   <g id="patch_198">
    <path d="M 369.130774 299.700832 
L 369.772624 299.700832 
L 369.772624 289.725072 
L 369.130774 289.725072 
z
" clip-path="url(#p303094bac0)" style="opacity: 0.7"/>
   </g>
   <g id="patch_199">
    <path d="M 375.830897 299.700832 
L 376.472747 299.700832 
L 376.472747 186.174328 
L 375.830897 186.174328 
z
" clip-path="url(#p303094bac0)" style="opacity: 0.7"/>
   </g>
   <g id="patch_200">
    <path d="M 381.693504 299.700832 
L 382.335354 299.700832 
L 382.335354 251.695681 
L 381.693504 251.695681 
z
" clip-path="url(#p303094bac0)" style="opacity: 0.7"/>
   </g>
   <g id="patch_201">
    <path d="M 389.231141 299.700832 
L 389.872992 299.700832 
L 389.872992 267.306152 
L 389.231141 267.306152 
z
" clip-path="url(#p303094bac0)" style="opacity: 0.7"/>
   </g>
   <g id="patch_202">
    <path d="M 400.11884 299.700832 
L 400.760691 299.700832 
L 400.760691 185.066385 
L 400.11884 185.066385 
z
" clip-path="url(#p303094bac0)" style="opacity: 0.7"/>
   </g>
   <g id="patch_203">
    <path d="M 404.306417 299.700832 
L 404.948267 299.700832 
L 404.948267 230.805036 
L 404.306417 230.805036 
z
" clip-path="url(#p303094bac0)" style="opacity: 0.7"/>
   </g>
   <g id="patch_204">
    <path d="M 411.844055 299.700832 
L 412.485905 299.700832 
L 412.485905 269.361464 
L 411.844055 269.361464 
z
" clip-path="url(#p303094bac0)" style="opacity: 0.7"/>
   </g>
   <g id="patch_205">
    <path d="M 414.356601 299.700832 
L 414.998451 299.700832 
L 414.998451 266.054483 
L 414.356601 266.054483 
z
" clip-path="url(#p303094bac0)" style="opacity: 0.7"/>
   </g>
   <g id="patch_206">
    <path d="M 417.706662 299.700832 
L 418.348512 299.700832 
L 418.348512 275.953809 
L 417.706662 275.953809 
z
" clip-path="url(#p303094bac0)" style="opacity: 0.7"/>
   </g>
   <g id="patch_207">
    <path d="M 421.894238 299.700832 
L 422.536088 299.700832 
L 422.536088 275.485913 
L 421.894238 275.485913 
z
" clip-path="url(#p303094bac0)" style="opacity: 0.7"/>
   </g>
   <g id="patch_208">
    <path d="M 430.269392 299.700832 
L 430.911242 299.700832 
L 430.911242 250.897975 
L 430.269392 250.897975 
z
" clip-path="url(#p303094bac0)" style="opacity: 0.7"/>
   </g>
   <g id="patch_209">
    <path d="M 436.969514 299.700832 
L 437.611364 299.700832 
L 437.611364 291.3474 
L 436.969514 291.3474 
z
" clip-path="url(#p303094bac0)" style="opacity: 0.7"/>
   </g>
   <g id="patch_210">
    <path d="M 444.507152 299.700832 
L 445.149002 299.700832 
L 445.149002 99.620664 
L 444.507152 99.620664 
z
" clip-path="url(#p303094bac0)" style="opacity: 0.7"/>
   </g>
   <g id="patch_211">
    <path d="M 447.857213 299.700832 
L 448.499063 299.700832 
L 448.499063 278.854816 
L 447.857213 278.854816 
z
" clip-path="url(#p303094bac0)" style="opacity: 0.7"/>
   </g>
   <g id="patch_212">
    <path d="M 457.069881 299.700832 
L 457.711731 299.700832 
L 457.711731 266.06512 
L 457.069881 266.06512 
z
" clip-path="url(#p303094bac0)" style="opacity: 0.7"/>
   </g>
   <g id="patch_213">
    <path d="M 460.419943 299.700832 
L 461.061793 299.700832 
L 461.061793 292.717638 
L 460.419943 292.717638 
z
" clip-path="url(#p303094bac0)" style="opacity: 0.7"/>
   </g>
   <g id="patch_214">
    <path d="M 463.770004 299.700832 
L 464.411854 299.700832 
L 464.411854 296.391173 
L 463.770004 296.391173 
z
" clip-path="url(#p303094bac0)" style="opacity: 0.7"/>
   </g>
   <g id="patch_215">
    <path d="M 467.95758 299.700832 
L 468.59943 299.700832 
L 468.59943 221.85878 
L 467.95758 221.85878 
z
" clip-path="url(#p303094bac0)" style="opacity: 0.7"/>
   </g>
   <g id="patch_216">
    <path d="M 473.820187 299.700832 
L 474.462037 299.700832 
L 474.462037 296.941556 
L 473.820187 296.941556 
z
" clip-path="url(#p303094bac0)" style="opacity: 0.7"/>
   </g>
   <g id="patch_217">
    <path d="M 478.845279 299.700832 
L 479.487129 299.700832 
L 479.487129 252.928313 
L 478.845279 252.928313 
z
" clip-path="url(#p303094bac0)" style="opacity: 0.7"/>
   </g>
   <g id="patch_218">
    <path d="M 482.19534 299.700832 
L 482.837191 299.700832 
L 482.837191 272.00096 
L 482.19534 272.00096 
z
" clip-path="url(#p303094bac0)" style="opacity: 0.7"/>
   </g>
   <g id="patch_219">
    <path d="M 488.895463 299.700832 
L 489.537313 299.700832 
L 489.537313 262.478881 
L 488.895463 262.478881 
z
" clip-path="url(#p303094bac0)" style="opacity: 0.7"/>
   </g>
   <g id="patch_220">
    <path d="M 494.75807 299.700832 
L 495.39992 299.700832 
L 495.39992 295.984554 
L 494.75807 295.984554 
z
" clip-path="url(#p303094bac0)" style="opacity: 0.7"/>
   </g>
   <g id="patch_221">
    <path d="M 497.270616 299.700832 
L 497.912466 299.700832 
L 497.912466 296.468114 
L 497.270616 296.468114 
z
" clip-path="url(#p303094bac0)" style="opacity: 0.7"/>
   </g>
   <g id="patch_222">
    <path d="M 503.970738 299.700832 
L 504.612588 299.700832 
L 504.612588 257.526827 
L 503.970738 257.526827 
z
" clip-path="url(#p303094bac0)" style="opacity: 0.7"/>
   </g>
   <g id="patch_223">
    <path d="M 512.345892 299.700832 
L 512.987742 299.700832 
L 512.987742 299.378695 
L 512.345892 299.378695 
z
" clip-path="url(#p303094bac0)" style="opacity: 0.7"/>
   </g>
   <g id="patch_224">
    <path d="M 514.020922 299.700832 
L 514.662772 299.700832 
L 514.662772 299.408545 
L 514.020922 299.408545 
z
" clip-path="url(#p303094bac0)" style="opacity: 0.7"/>
   </g>
   <g id="patch_225">
    <path d="M 518.208499 299.700832 
L 518.850349 299.700832 
L 518.850349 292.666247 
L 518.208499 292.666247 
z
" clip-path="url(#p303094bac0)" style="opacity: 0.7"/>
   </g>
   <g id="patch_226">
    <path d="M 521.55856 299.700832 
L 522.20041 299.700832 
L 522.20041 258.811699 
L 521.55856 258.811699 
z
" clip-path="url(#p303094bac0)" style="opacity: 0.7"/>
   </g>
   <g id="patch_227">
    <path d="M 526.583652 299.700832 
L 527.225502 299.700832 
L 527.225502 269.777474 
L 526.583652 269.777474 
z
" clip-path="url(#p303094bac0)" style="opacity: 0.7"/>
   </g>
   <g id="patch_228">
    <path d="M 529.096198 299.700832 
L 529.738048 299.700832 
L 529.738048 272.903483 
L 529.096198 272.903483 
z
" clip-path="url(#p303094bac0)" style="opacity: 0.7"/>
   </g>
   <g id="patch_229">
    <path d="M 534.958805 299.700832 
L 535.600655 299.700832 
L 535.600655 296.719888 
L 534.958805 296.719888 
z
" clip-path="url(#p303094bac0)" style="opacity: 0.7"/>
   </g>
   <g id="patch_230">
    <path d="M 538.308866 299.700832 
L 538.950716 299.700832 
L 538.950716 202.062878 
L 538.308866 202.062878 
z
" clip-path="url(#p303094bac0)" style="opacity: 0.7"/>
   </g>
   <g id="patch_231">
    <path d="M 547.521534 299.700832 
L 548.163384 299.700832 
L 548.163384 299.087291 
L 547.521534 299.087291 
z
" clip-path="url(#p303094bac0)" style="opacity: 0.7"/>
   </g>
   <g id="patch_232">
    <path d="M 551.709111 299.700832 
L 552.350961 299.700832 
L 552.350961 259.226017 
L 551.709111 259.226017 
z
" clip-path="url(#p303094bac0)" style="opacity: 0.7"/>
   </g>
   <g id="patch_233">
    <path d="M 561.759295 299.700832 
L 562.401145 299.700832 
L 562.401145 298.482072 
L 561.759295 298.482072 
z
" clip-path="url(#p303094bac0)" style="opacity: 0.7"/>
   </g>
   <g id="patch_234">
    <path d="M 565.109356 299.700832 
L 565.751206 299.700832 
L 565.751206 282.185973 
L 565.109356 282.185973 
z
" clip-path="url(#p303094bac0)" style="opacity: 0.7"/>
   </g>
   <g id="patch_235">
    <path d="M 570.971963 299.700832 
L 571.613813 299.700832 
L 571.613813 297.899615 
L 570.971963 297.899615 
z
" clip-path="url(#p303094bac0)" style="opacity: 0.7"/>
   </g>
   <g id="patch_236">
    <path d="M 575.159539 299.700832 
L 575.80139 299.700832 
L 575.80139 249.694333 
L 575.159539 249.694333 
z
" clip-path="url(#p303094bac0)" style="opacity: 0.7"/>
   </g>
   <g id="patch_237">
    <path d="M 578.509601 299.700832 
L 579.151451 299.700832 
L 579.151451 285.149331 
L 578.509601 285.149331 
z
" clip-path="url(#p303094bac0)" style="opacity: 0.7"/>
   </g>
   <g id="patch_238">
    <path d="M 583.534693 299.700832 
L 584.176543 299.700832 
L 584.176543 297.763531 
L 583.534693 297.763531 
z
" clip-path="url(#p303094bac0)" style="opacity: 0.7"/>
   </g>
   <g id="patch_239">
    <path d="M 588.559784 299.700832 
L 589.201634 299.700832 
L 589.201634 206.948097 
L 588.559784 206.948097 
z
" clip-path="url(#p303094bac0)" style="opacity: 0.7"/>
   </g>
   <g id="patch_240">
    <path d="M 356.63894 299.700832 
L 357.601715 299.700832 
L 357.601715 296.325194 
L 356.63894 296.325194 
z
" clip-path="url(#p303094bac0)" style="fill: #ff0000"/>
   </g>
   <g id="patch_241">
    <path d="M 359.888818 299.700832 
L 360.851593 299.700832 
L 360.851593 294.342008 
L 359.888818 294.342008 
z
" clip-path="url(#p303094bac0)" style="fill: #ff0000"/>
   </g>
   <g id="patch_242">
    <path d="M 361.745891 299.700832 
L 362.708667 299.700832 
L 362.708667 293.998671 
L 361.745891 293.998671 
z
" clip-path="url(#p303094bac0)" style="fill: #ff0000"/>
   </g>
   <g id="patch_243">
    <path d="M 364.531501 299.700832 
L 365.494276 299.700832 
L 365.494276 283.465275 
L 364.531501 283.465275 
z
" clip-path="url(#p303094bac0)" style="fill: #ff0000"/>
   </g>
   <g id="patch_244">
    <path d="M 368.709916 299.700832 
L 369.672691 299.700832 
L 369.672691 290.411828 
L 368.709916 290.411828 
z
" clip-path="url(#p303094bac0)" style="fill: #ff0000"/>
   </g>
   <g id="patch_245">
    <path d="M 369.638453 299.700832 
L 370.601228 299.700832 
L 370.601228 290.543936 
L 369.638453 290.543936 
z
" clip-path="url(#p303094bac0)" style="fill: #ff0000"/>
   </g>
   <g id="patch_246">
    <path d="M 374.281136 299.700832 
L 375.243911 299.700832 
L 375.243911 277.608226 
L 374.281136 277.608226 
z
" clip-path="url(#p303094bac0)" style="fill: #ff0000"/>
   </g>
   <g id="patch_247">
    <path d="M 376.602478 299.700832 
L 377.565253 299.700832 
L 377.565253 269.267856 
L 376.602478 269.267856 
z
" clip-path="url(#p303094bac0)" style="fill: #ff0000"/>
   </g>
   <g id="patch_248">
    <path d="M 379.852356 299.700832 
L 380.815131 299.700832 
L 380.815131 281.308328 
L 379.852356 281.308328 
z
" clip-path="url(#p303094bac0)" style="fill: #ff0000"/>
   </g>
   <g id="patch_249">
    <path d="M 381.709429 299.700832 
L 382.672204 299.700832 
L 382.672204 281.193929 
L 381.709429 281.193929 
z
" clip-path="url(#p303094bac0)" style="fill: #ff0000"/>
   </g>
   <g id="patch_250">
    <path d="M 384.959307 299.700832 
L 385.922082 299.700832 
L 385.922082 292.698469 
L 384.959307 292.698469 
z
" clip-path="url(#p303094bac0)" style="fill: #ff0000"/>
   </g>
   <g id="patch_251">
    <path d="M 386.352112 299.700832 
L 387.314887 299.700832 
L 387.314887 294.394708 
L 386.352112 294.394708 
z
" clip-path="url(#p303094bac0)" style="fill: #ff0000"/>
   </g>
   <g id="patch_252">
    <path d="M 390.066259 299.700832 
L 391.029034 299.700832 
L 391.029034 294.365106 
L 390.066259 294.365106 
z
" clip-path="url(#p303094bac0)" style="fill: #ff0000"/>
   </g>
   <g id="patch_253">
    <path d="M 393.780405 299.700832 
L 394.74318 299.700832 
L 394.74318 296.282571 
L 393.780405 296.282571 
z
" clip-path="url(#p303094bac0)" style="fill: #ff0000"/>
   </g>
   <g id="patch_254">
    <path d="M 396.566015 299.700832 
L 397.52879 299.700832 
L 397.52879 297.440003 
L 396.566015 297.440003 
z
" clip-path="url(#p303094bac0)" style="fill: #ff0000"/>
   </g>
   <g id="patch_255">
    <path d="M 397.95882 299.700832 
L 398.921595 299.700832 
L 398.921595 297.261042 
L 397.95882 297.261042 
z
" clip-path="url(#p303094bac0)" style="fill: #ff0000"/>
   </g>
   <g id="patch_256">
    <path d="M 400.280162 299.700832 
L 401.242937 299.700832 
L 401.242937 298.552106 
L 400.280162 298.552106 
z
" clip-path="url(#p303094bac0)" style="fill: #ff0000"/>
   </g>
   <g id="patch_257">
    <path d="M 402.601503 299.700832 
L 403.564279 299.700832 
L 403.564279 297.399928 
L 402.601503 297.399928 
z
" clip-path="url(#p303094bac0)" style="fill: #ff0000"/>
   </g>
   <g id="patch_258">
    <path d="M 404.922845 299.700832 
L 405.88562 299.700832 
L 405.88562 292.883635 
L 404.922845 292.883635 
z
" clip-path="url(#p303094bac0)" style="fill: #ff0000"/>
   </g>
   <g id="patch_259">
    <path d="M 406.779918 299.700832 
L 407.742693 299.700832 
L 407.742693 279.433689 
L 406.779918 279.433689 
z
" clip-path="url(#p303094bac0)" style="fill: #ff0000"/>
   </g>
   <g id="patch_260">
    <path d="M 411.422601 299.700832 
L 412.385377 299.700832 
L 412.385377 297.370115 
L 411.422601 297.370115 
z
" clip-path="url(#p303094bac0)" style="fill: #ff0000"/>
   </g>
   <g id="patch_261">
    <path d="M 413.279675 299.700832 
L 414.24245 299.700832 
L 414.24245 289.628995 
L 413.279675 289.628995 
z
" clip-path="url(#p303094bac0)" style="fill: #ff0000"/>
   </g>
   <g id="patch_262">
    <path d="M 416.065285 299.700832 
L 417.02806 299.700832 
L 417.02806 292.489119 
L 416.065285 292.489119 
z
" clip-path="url(#p303094bac0)" style="fill: #ff0000"/>
   </g>
   <g id="patch_263">
    <path d="M 420.2437 299.700832 
L 421.206475 299.700832 
L 421.206475 294.980059 
L 420.2437 294.980059 
z
" clip-path="url(#p303094bac0)" style="fill: #ff0000"/>
   </g>
   <g id="patch_264">
    <path d="M 423.029309 299.700832 
L 423.992085 299.700832 
L 423.992085 293.593292 
L 423.029309 293.593292 
z
" clip-path="url(#p303094bac0)" style="fill: #ff0000"/>
   </g>
   <g id="patch_265">
    <path d="M 425.814919 299.700832 
L 426.777694 299.700832 
L 426.777694 294.245814 
L 425.814919 294.245814 
z
" clip-path="url(#p303094bac0)" style="fill: #ff0000"/>
   </g>
   <g id="patch_266">
    <path d="M 428.600529 299.700832 
L 429.563304 299.700832 
L 429.563304 281.285381 
L 428.600529 281.285381 
z
" clip-path="url(#p303094bac0)" style="fill: #ff0000"/>
   </g>
   <g id="patch_267">
    <path d="M 431.850407 299.700832 
L 432.813183 299.700832 
L 432.813183 287.016498 
L 431.850407 287.016498 
z
" clip-path="url(#p303094bac0)" style="fill: #ff0000"/>
   </g>
   <g id="patch_268">
    <path d="M 435.100286 299.700832 
L 436.063061 299.700832 
L 436.063061 66.96 
L 435.100286 66.96 
z
" clip-path="url(#p303094bac0)" style="fill: #ff0000"/>
   </g>
   <g id="patch_269">
    <path d="M 439.742969 299.700832 
L 440.705744 299.700832 
L 440.705744 296.48257 
L 439.742969 296.48257 
z
" clip-path="url(#p303094bac0)" style="fill: #ff0000"/>
   </g>
   <g id="patch_270">
    <path d="M 442.528579 299.700832 
L 443.491354 299.700832 
L 443.491354 282.223125 
L 442.528579 282.223125 
z
" clip-path="url(#p303094bac0)" style="fill: #ff0000"/>
   </g>
   <g id="patch_271">
    <path d="M 445.778457 299.700832 
L 446.741232 299.700832 
L 446.741232 252.905885 
L 445.778457 252.905885 
z
" clip-path="url(#p303094bac0)" style="fill: #ff0000"/>
   </g>
   <g id="patch_272">
    <path d="M 449.028335 299.700832 
L 449.99111 299.700832 
L 449.99111 277.522199 
L 449.028335 277.522199 
z
" clip-path="url(#p303094bac0)" style="fill: #ff0000"/>
   </g>
   <g id="patch_273">
    <path d="M 450.885409 299.700832 
L 451.848184 299.700832 
L 451.848184 294.502762 
L 450.885409 294.502762 
z
" clip-path="url(#p303094bac0)" style="fill: #ff0000"/>
   </g>
   <g id="patch_274">
    <path d="M 454.135287 299.700832 
L 455.098062 299.700832 
L 455.098062 296.086448 
L 454.135287 296.086448 
z
" clip-path="url(#p303094bac0)" style="fill: #ff0000"/>
   </g>
   <g id="patch_275">
    <path d="M 457.385165 299.700832 
L 458.34794 299.700832 
L 458.34794 293.727451 
L 457.385165 293.727451 
z
" clip-path="url(#p303094bac0)" style="fill: #ff0000"/>
   </g>
   <g id="patch_276">
    <path d="M 459.706507 299.700832 
L 460.669282 299.700832 
L 460.669282 275.156484 
L 459.706507 275.156484 
z
" clip-path="url(#p303094bac0)" style="fill: #ff0000"/>
   </g>
   <g id="patch_277">
    <path d="M 462.956385 299.700832 
L 463.91916 299.700832 
L 463.91916 244.72007 
L 462.956385 244.72007 
z
" clip-path="url(#p303094bac0)" style="fill: #ff0000"/>
   </g>
   <g id="patch_278">
    <path d="M 468.063336 299.700832 
L 469.026111 299.700832 
L 469.026111 275.199922 
L 468.063336 275.199922 
z
" clip-path="url(#p303094bac0)" style="fill: #ff0000"/>
   </g>
   <g id="patch_279">
    <path d="M 473.634556 299.700832 
L 474.597331 299.700832 
L 474.597331 287.57822 
L 473.634556 287.57822 
z
" clip-path="url(#p303094bac0)" style="fill: #ff0000"/>
   </g>
   <g id="patch_280">
    <path d="M 476.884434 299.700832 
L 477.847209 299.700832 
L 477.847209 292.050812 
L 476.884434 292.050812 
z
" clip-path="url(#p303094bac0)" style="fill: #ff0000"/>
   </g>
   <g id="patch_281">
    <path d="M 478.741508 299.700832 
L 479.704283 299.700832 
L 479.704283 282.854982 
L 478.741508 282.854982 
z
" clip-path="url(#p303094bac0)" style="fill: #ff0000"/>
   </g>
   <g id="patch_282">
    <path d="M 480.598581 299.700832 
L 481.561356 299.700832 
L 481.561356 291.164787 
L 480.598581 291.164787 
z
" clip-path="url(#p303094bac0)" style="fill: #ff0000"/>
   </g>
   <g id="patch_283">
    <path d="M 483.384191 299.700832 
L 484.346966 299.700832 
L 484.346966 234.750183 
L 483.384191 234.750183 
z
" clip-path="url(#p303094bac0)" style="fill: #ff0000"/>
   </g>
   <g id="patch_284">
    <path d="M 487.562606 299.700832 
L 488.525381 299.700832 
L 488.525381 258.199398 
L 487.562606 258.199398 
z
" clip-path="url(#p303094bac0)" style="fill: #ff0000"/>
   </g>
   <g id="patch_285">
    <path d="M 488.955411 299.700832 
L 489.918186 299.700832 
L 489.918186 228.619386 
L 488.955411 228.619386 
z
" clip-path="url(#p303094bac0)" style="fill: #ff0000"/>
   </g>
   <g id="patch_286">
    <path d="M 490.812484 299.700832 
L 491.775259 299.700832 
L 491.775259 142.97746 
L 490.812484 142.97746 
z
" clip-path="url(#p303094bac0)" style="fill: #ff0000"/>
   </g>
   <g id="patch_287">
    <path d="M 495.455167 299.700832 
L 496.417942 299.700832 
L 496.417942 287.040366 
L 495.455167 287.040366 
z
" clip-path="url(#p303094bac0)" style="fill: #ff0000"/>
   </g>
   <g id="patch_288">
    <path d="M 497.31224 299.700832 
L 498.275015 299.700832 
L 498.275015 289.725072 
L 497.31224 289.725072 
z
" clip-path="url(#p303094bac0)" style="fill: #ff0000"/>
   </g>
   <g id="patch_289">
    <path d="M 501.026387 299.700832 
L 501.989162 299.700832 
L 501.989162 186.174328 
L 501.026387 186.174328 
z
" clip-path="url(#p303094bac0)" style="fill: #ff0000"/>
   </g>
   <g id="patch_290">
    <path d="M 504.276265 299.700832 
L 505.23904 299.700832 
L 505.23904 251.695681 
L 504.276265 251.695681 
z
" clip-path="url(#p303094bac0)" style="fill: #ff0000"/>
   </g>
   <g id="patch_291">
    <path d="M 508.45468 299.700832 
L 509.417455 299.700832 
L 509.417455 267.306152 
L 508.45468 267.306152 
z
" clip-path="url(#p303094bac0)" style="fill: #ff0000"/>
   </g>
   <g id="patch_292">
    <path d="M 514.490168 299.700832 
L 515.452943 299.700832 
L 515.452943 185.066385 
L 514.490168 185.066385 
z
" clip-path="url(#p303094bac0)" style="fill: #ff0000"/>
   </g>
   <g id="patch_293">
    <path d="M 516.81151 299.700832 
L 517.774285 299.700832 
L 517.774285 230.805036 
L 516.81151 230.805036 
z
" clip-path="url(#p303094bac0)" style="fill: #ff0000"/>
   </g>
   <g id="patch_294">
    <path d="M 520.989925 299.700832 
L 521.9527 299.700832 
L 521.9527 269.361464 
L 520.989925 269.361464 
z
" clip-path="url(#p303094bac0)" style="fill: #ff0000"/>
   </g>
   <g id="patch_295">
    <path d="M 522.38273 299.700832 
L 523.345505 299.700832 
L 523.345505 266.054483 
L 522.38273 266.054483 
z
" clip-path="url(#p303094bac0)" style="fill: #ff0000"/>
   </g>
   <g id="patch_296">
    <path d="M 524.239803 299.700832 
L 525.202578 299.700832 
L 525.202578 275.953809 
L 524.239803 275.953809 
z
" clip-path="url(#p303094bac0)" style="fill: #ff0000"/>
   </g>
   <g id="patch_297">
    <path d="M 526.561144 299.700832 
L 527.523919 299.700832 
L 527.523919 275.485913 
L 526.561144 275.485913 
z
" clip-path="url(#p303094bac0)" style="fill: #ff0000"/>
   </g>
   <g id="patch_298">
    <path d="M 531.203828 299.700832 
L 532.166603 299.700832 
L 532.166603 250.897975 
L 531.203828 250.897975 
z
" clip-path="url(#p303094bac0)" style="fill: #ff0000"/>
   </g>
   <g id="patch_299">
    <path d="M 534.917974 299.700832 
L 535.880749 299.700832 
L 535.880749 291.3474 
L 534.917974 291.3474 
z
" clip-path="url(#p303094bac0)" style="fill: #ff0000"/>
   </g>
   <g id="patch_300">
    <path d="M 539.096389 299.700832 
L 540.059164 299.700832 
L 540.059164 99.620664 
L 539.096389 99.620664 
z
" clip-path="url(#p303094bac0)" style="fill: #ff0000"/>
   </g>
   <g id="patch_301">
    <path d="M 540.953462 299.700832 
L 541.916237 299.700832 
L 541.916237 278.854816 
L 540.953462 278.854816 
z
" clip-path="url(#p303094bac0)" style="fill: #ff0000"/>
   </g>
   <g id="patch_302">
    <path d="M 546.060414 299.700832 
L 547.023189 299.700832 
L 547.023189 266.06512 
L 546.060414 266.06512 
z
" clip-path="url(#p303094bac0)" style="fill: #ff0000"/>
   </g>
   <g id="patch_303">
    <path d="M 547.917487 299.700832 
L 548.880262 299.700832 
L 548.880262 292.717638 
L 547.917487 292.717638 
z
" clip-path="url(#p303094bac0)" style="fill: #ff0000"/>
   </g>
   <g id="patch_304">
    <path d="M 549.77456 299.700832 
L 550.737335 299.700832 
L 550.737335 296.391173 
L 549.77456 296.391173 
z
" clip-path="url(#p303094bac0)" style="fill: #ff0000"/>
   </g>
   <g id="patch_305">
    <path d="M 552.095902 299.700832 
L 553.058677 299.700832 
L 553.058677 221.85878 
L 552.095902 221.85878 
z
" clip-path="url(#p303094bac0)" style="fill: #ff0000"/>
   </g>
   <g id="patch_306">
    <path d="M 555.34578 299.700832 
L 556.308555 299.700832 
L 556.308555 296.941556 
L 555.34578 296.941556 
z
" clip-path="url(#p303094bac0)" style="fill: #ff0000"/>
   </g>
   <g id="patch_307">
    <path d="M 558.13139 299.700832 
L 559.094165 299.700832 
L 559.094165 252.928313 
L 558.13139 252.928313 
z
" clip-path="url(#p303094bac0)" style="fill: #ff0000"/>
   </g>
   <g id="patch_308">
    <path d="M 559.988463 299.700832 
L 560.951238 299.700832 
L 560.951238 272.00096 
L 559.988463 272.00096 
z
" clip-path="url(#p303094bac0)" style="fill: #ff0000"/>
   </g>
   <g id="patch_309">
    <path d="M 563.70261 299.700832 
L 564.665385 299.700832 
L 564.665385 262.478881 
L 563.70261 262.478881 
z
" clip-path="url(#p303094bac0)" style="fill: #ff0000"/>
   </g>
   <g id="patch_310">
    <path d="M 566.952488 299.700832 
L 567.915263 299.700832 
L 567.915263 295.984554 
L 566.952488 295.984554 
z
" clip-path="url(#p303094bac0)" style="fill: #ff0000"/>
   </g>
   <g id="patch_311">
    <path d="M 568.345293 299.700832 
L 569.308068 299.700832 
L 569.308068 296.468114 
L 568.345293 296.468114 
z
" clip-path="url(#p303094bac0)" style="fill: #ff0000"/>
   </g>
   <g id="patch_312">
    <path d="M 572.05944 299.700832 
L 573.022215 299.700832 
L 573.022215 257.526827 
L 572.05944 257.526827 
z
" clip-path="url(#p303094bac0)" style="fill: #ff0000"/>
   </g>
   <g id="patch_313">
    <path d="M 576.702123 299.700832 
L 577.664898 299.700832 
L 577.664898 299.378695 
L 576.702123 299.378695 
z
" clip-path="url(#p303094bac0)" style="fill: #ff0000"/>
   </g>
   <g id="patch_314">
    <path d="M 577.630659 299.700832 
L 578.593434 299.700832 
L 578.593434 299.408545 
L 577.630659 299.408545 
z
" clip-path="url(#p303094bac0)" style="fill: #ff0000"/>
   </g>
   <g id="patch_315">
    <path d="M 579.952001 299.700832 
L 580.914776 299.700832 
L 580.914776 292.666247 
L 579.952001 292.666247 
z
" clip-path="url(#p303094bac0)" style="fill: #ff0000"/>
   </g>
   <g id="patch_316">
    <path d="M 581.809074 299.700832 
L 582.771849 299.700832 
L 582.771849 258.811699 
L 581.809074 258.811699 
z
" clip-path="url(#p303094bac0)" style="fill: #ff0000"/>
   </g>
   <g id="patch_317">
    <path d="M 584.594684 299.700832 
L 585.557459 299.700832 
L 585.557459 269.777474 
L 584.594684 269.777474 
z
" clip-path="url(#p303094bac0)" style="fill: #ff0000"/>
   </g>
   <g id="patch_318">
    <path d="M 585.987489 299.700832 
L 586.950264 299.700832 
L 586.950264 272.903483 
L 585.987489 272.903483 
z
" clip-path="url(#p303094bac0)" style="fill: #ff0000"/>
   </g>
   <g id="patch_319">
    <path d="M 589.237367 299.700832 
L 590.200142 299.700832 
L 590.200142 296.719888 
L 589.237367 296.719888 
z
" clip-path="url(#p303094bac0)" style="fill: #ff0000"/>
   </g>
   <g id="patch_320">
    <path d="M 591.094441 299.700832 
L 592.057216 299.700832 
L 592.057216 202.062878 
L 591.094441 202.062878 
z
" clip-path="url(#p303094bac0)" style="fill: #ff0000"/>
   </g>
   <g id="patch_321">
    <path d="M 596.201392 299.700832 
L 597.164167 299.700832 
L 597.164167 299.087291 
L 596.201392 299.087291 
z
" clip-path="url(#p303094bac0)" style="fill: #ff0000"/>
   </g>
   <g id="patch_322">
    <path d="M 598.522734 299.700832 
L 599.485509 299.700832 
L 599.485509 259.226017 
L 598.522734 259.226017 
z
" clip-path="url(#p303094bac0)" style="fill: #ff0000"/>
   </g>
   <g id="patch_323">
    <path d="M 604.093954 299.700832 
L 605.056729 299.700832 
L 605.056729 298.482072 
L 604.093954 298.482072 
z
" clip-path="url(#p303094bac0)" style="fill: #ff0000"/>
   </g>
   <g id="patch_324">
    <path d="M 605.951027 299.700832 
L 606.913802 299.700832 
L 606.913802 282.185973 
L 605.951027 282.185973 
z
" clip-path="url(#p303094bac0)" style="fill: #ff0000"/>
   </g>
   <g id="patch_325">
    <path d="M 609.200905 299.700832 
L 610.16368 299.700832 
L 610.16368 297.899615 
L 609.200905 297.899615 
z
" clip-path="url(#p303094bac0)" style="fill: #ff0000"/>
   </g>
   <g id="patch_326">
    <path d="M 611.522247 299.700832 
L 612.485022 299.700832 
L 612.485022 249.694333 
L 611.522247 249.694333 
z
" clip-path="url(#p303094bac0)" style="fill: #ff0000"/>
   </g>
   <g id="patch_327">
    <path d="M 613.37932 299.700832 
L 614.342095 299.700832 
L 614.342095 285.149331 
L 613.37932 285.149331 
z
" clip-path="url(#p303094bac0)" style="fill: #ff0000"/>
   </g>
   <g id="patch_328">
    <path d="M 616.16493 299.700832 
L 617.127705 299.700832 
L 617.127705 297.763531 
L 616.16493 297.763531 
z
" clip-path="url(#p303094bac0)" style="fill: #ff0000"/>
   </g>
   <g id="patch_329">
    <path d="M 618.95054 299.700832 
L 619.913315 299.700832 
L 619.913315 206.948097 
L 618.95054 206.948097 
z
" clip-path="url(#p303094bac0)" style="fill: #ff0000"/>
   </g>
   <g id="matplotlib.axis_1">
    <g id="xtick_1">
     <g id="line2d_1">
      <defs>
       <path id="mad929b56b0" d="M 0 0 
L 0 3.5 
" style="stroke: #000000; stroke-width: 0.8"/>
      </defs>
      <g>
       <use xlink:href="#mad929b56b0" x="100.439036" y="384.48" style="stroke: #000000; stroke-width: 0.8"/>
      </g>
     </g>
     <g id="text_1">
      <!-- 3400 -->
      <g transform="translate(87.714036 399.078438) scale(0.1 -0.1)">
       <defs>
        <path id="DejaVuSans-33" d="M 2597 2516 
Q 3050 2419 3304 2112 
Q 3559 1806 3559 1356 
Q 3559 666 3084 287 
Q 2609 -91 1734 -91 
Q 1441 -91 1130 -33 
Q 819 25 488 141 
L 488 750 
Q 750 597 1062 519 
Q 1375 441 1716 441 
Q 2309 441 2620 675 
Q 2931 909 2931 1356 
Q 2931 1769 2642 2001 
Q 2353 2234 1838 2234 
L 1294 2234 
L 1294 2753 
L 1863 2753 
Q 2328 2753 2575 2939 
Q 2822 3125 2822 3475 
Q 2822 3834 2567 4026 
Q 2313 4219 1838 4219 
Q 1578 4219 1281 4162 
Q 984 4106 628 3988 
L 628 4550 
Q 988 4650 1302 4700 
Q 1616 4750 1894 4750 
Q 2613 4750 3031 4423 
Q 3450 4097 3450 3541 
Q 3450 3153 3228 2886 
Q 3006 2619 2597 2516 
z
" transform="scale(0.015625)"/>
        <path id="DejaVuSans-34" d="M 2419 4116 
L 825 1625 
L 2419 1625 
L 2419 4116 
z
M 2253 4666 
L 3047 4666 
L 3047 1625 
L 3713 1625 
L 3713 1100 
L 3047 1100 
L 3047 0 
L 2419 0 
L 2419 1100 
L 313 1100 
L 313 1709 
L 2253 4666 
z
" transform="scale(0.015625)"/>
        <path id="DejaVuSans-30" d="M 2034 4250 
Q 1547 4250 1301 3770 
Q 1056 3291 1056 2328 
Q 1056 1369 1301 889 
Q 1547 409 2034 409 
Q 2525 409 2770 889 
Q 3016 1369 3016 2328 
Q 3016 3291 2770 3770 
Q 2525 4250 2034 4250 
z
M 2034 4750 
Q 2819 4750 3233 4129 
Q 3647 3509 3647 2328 
Q 3647 1150 3233 529 
Q 2819 -91 2034 -91 
Q 1250 -91 836 529 
Q 422 1150 422 2328 
Q 422 3509 836 4129 
Q 1250 4750 2034 4750 
z
" transform="scale(0.015625)"/>
       </defs>
       <use xlink:href="#DejaVuSans-33"/>
       <use xlink:href="#DejaVuSans-34" x="63.623047"/>
       <use xlink:href="#DejaVuSans-30" x="127.246094"/>
       <use xlink:href="#DejaVuSans-30" x="190.869141"/>
      </g>
     </g>
    </g>
    <g id="xtick_2">
     <g id="line2d_2">
      <g>
       <use xlink:href="#mad929b56b0" x="164.624041" y="384.48" style="stroke: #000000; stroke-width: 0.8"/>
      </g>
     </g>
     <g id="text_2">
      <!-- 3600 -->
      <g transform="translate(151.899041 399.078438) scale(0.1 -0.1)">
       <defs>
        <path id="DejaVuSans-36" d="M 2113 2584 
Q 1688 2584 1439 2293 
Q 1191 2003 1191 1497 
Q 1191 994 1439 701 
Q 1688 409 2113 409 
Q 2538 409 2786 701 
Q 3034 994 3034 1497 
Q 3034 2003 2786 2293 
Q 2538 2584 2113 2584 
z
M 3366 4563 
L 3366 3988 
Q 3128 4100 2886 4159 
Q 2644 4219 2406 4219 
Q 1781 4219 1451 3797 
Q 1122 3375 1075 2522 
Q 1259 2794 1537 2939 
Q 1816 3084 2150 3084 
Q 2853 3084 3261 2657 
Q 3669 2231 3669 1497 
Q 3669 778 3244 343 
Q 2819 -91 2113 -91 
Q 1303 -91 875 529 
Q 447 1150 447 2328 
Q 447 3434 972 4092 
Q 1497 4750 2381 4750 
Q 2619 4750 2861 4703 
Q 3103 4656 3366 4563 
z
" transform="scale(0.015625)"/>
       </defs>
       <use xlink:href="#DejaVuSans-33"/>
       <use xlink:href="#DejaVuSans-36" x="63.623047"/>
       <use xlink:href="#DejaVuSans-30" x="127.246094"/>
       <use xlink:href="#DejaVuSans-30" x="190.869141"/>
      </g>
     </g>
    </g>
    <g id="xtick_3">
     <g id="line2d_3">
      <g>
       <use xlink:href="#mad929b56b0" x="228.809047" y="384.48" style="stroke: #000000; stroke-width: 0.8"/>
      </g>
     </g>
     <g id="text_3">
      <!-- 3800 -->
      <g transform="translate(216.084047 399.078438) scale(0.1 -0.1)">
       <defs>
        <path id="DejaVuSans-38" d="M 2034 2216 
Q 1584 2216 1326 1975 
Q 1069 1734 1069 1313 
Q 1069 891 1326 650 
Q 1584 409 2034 409 
Q 2484 409 2743 651 
Q 3003 894 3003 1313 
Q 3003 1734 2745 1975 
Q 2488 2216 2034 2216 
z
M 1403 2484 
Q 997 2584 770 2862 
Q 544 3141 544 3541 
Q 544 4100 942 4425 
Q 1341 4750 2034 4750 
Q 2731 4750 3128 4425 
Q 3525 4100 3525 3541 
Q 3525 3141 3298 2862 
Q 3072 2584 2669 2484 
Q 3125 2378 3379 2068 
Q 3634 1759 3634 1313 
Q 3634 634 3220 271 
Q 2806 -91 2034 -91 
Q 1263 -91 848 271 
Q 434 634 434 1313 
Q 434 1759 690 2068 
Q 947 2378 1403 2484 
z
M 1172 3481 
Q 1172 3119 1398 2916 
Q 1625 2713 2034 2713 
Q 2441 2713 2670 2916 
Q 2900 3119 2900 3481 
Q 2900 3844 2670 4047 
Q 2441 4250 2034 4250 
Q 1625 4250 1398 4047 
Q 1172 3844 1172 3481 
z
" transform="scale(0.015625)"/>
       </defs>
       <use xlink:href="#DejaVuSans-33"/>
       <use xlink:href="#DejaVuSans-38" x="63.623047"/>
       <use xlink:href="#DejaVuSans-30" x="127.246094"/>
       <use xlink:href="#DejaVuSans-30" x="190.869141"/>
      </g>
     </g>
    </g>
    <g id="xtick_4">
     <g id="line2d_4">
      <g>
       <use xlink:href="#mad929b56b0" x="292.994052" y="384.48" style="stroke: #000000; stroke-width: 0.8"/>
      </g>
     </g>
     <g id="text_4">
      <!-- 4000 -->
      <g transform="translate(280.269052 399.078438) scale(0.1 -0.1)">
       <use xlink:href="#DejaVuSans-34"/>
       <use xlink:href="#DejaVuSans-30" x="63.623047"/>
       <use xlink:href="#DejaVuSans-30" x="127.246094"/>
       <use xlink:href="#DejaVuSans-30" x="190.869141"/>
      </g>
     </g>
    </g>
    <g id="xtick_5">
     <g id="line2d_5">
      <g>
       <use xlink:href="#mad929b56b0" x="357.179057" y="384.48" style="stroke: #000000; stroke-width: 0.8"/>
      </g>
     </g>
     <g id="text_5">
      <!-- 4200 -->
      <g transform="translate(344.454057 399.078438) scale(0.1 -0.1)">
       <defs>
        <path id="DejaVuSans-32" d="M 1228 531 
L 3431 531 
L 3431 0 
L 469 0 
L 469 531 
Q 828 903 1448 1529 
Q 2069 2156 2228 2338 
Q 2531 2678 2651 2914 
Q 2772 3150 2772 3378 
Q 2772 3750 2511 3984 
Q 2250 4219 1831 4219 
Q 1534 4219 1204 4116 
Q 875 4013 500 3803 
L 500 4441 
Q 881 4594 1212 4672 
Q 1544 4750 1819 4750 
Q 2544 4750 2975 4387 
Q 3406 4025 3406 3419 
Q 3406 3131 3298 2873 
Q 3191 2616 2906 2266 
Q 2828 2175 2409 1742 
Q 1991 1309 1228 531 
z
" transform="scale(0.015625)"/>
       </defs>
       <use xlink:href="#DejaVuSans-34"/>
       <use xlink:href="#DejaVuSans-32" x="63.623047"/>
       <use xlink:href="#DejaVuSans-30" x="127.246094"/>
       <use xlink:href="#DejaVuSans-30" x="190.869141"/>
      </g>
     </g>
    </g>
    <g id="xtick_6">
     <g id="line2d_6">
      <g>
       <use xlink:href="#mad929b56b0" x="421.364062" y="384.48" style="stroke: #000000; stroke-width: 0.8"/>
      </g>
     </g>
     <g id="text_6">
      <!-- 4400 -->
      <g transform="translate(408.639062 399.078438) scale(0.1 -0.1)">
       <use xlink:href="#DejaVuSans-34"/>
       <use xlink:href="#DejaVuSans-34" x="63.623047"/>
       <use xlink:href="#DejaVuSans-30" x="127.246094"/>
       <use xlink:href="#DejaVuSans-30" x="190.869141"/>
      </g>
     </g>
    </g>
    <g id="xtick_7">
     <g id="line2d_7">
      <g>
       <use xlink:href="#mad929b56b0" x="485.549067" y="384.48" style="stroke: #000000; stroke-width: 0.8"/>
      </g>
     </g>
     <g id="text_7">
      <!-- 4600 -->
      <g transform="translate(472.824067 399.078438) scale(0.1 -0.1)">
       <use xlink:href="#DejaVuSans-34"/>
       <use xlink:href="#DejaVuSans-36" x="63.623047"/>
       <use xlink:href="#DejaVuSans-30" x="127.246094"/>
       <use xlink:href="#DejaVuSans-30" x="190.869141"/>
      </g>
     </g>
    </g>
    <g id="xtick_8">
     <g id="line2d_8">
      <g>
       <use xlink:href="#mad929b56b0" x="549.734072" y="384.48" style="stroke: #000000; stroke-width: 0.8"/>
      </g>
     </g>
     <g id="text_8">
      <!-- 4800 -->
      <g transform="translate(537.009072 399.078438) scale(0.1 -0.1)">
       <use xlink:href="#DejaVuSans-34"/>
       <use xlink:href="#DejaVuSans-38" x="63.623047"/>
       <use xlink:href="#DejaVuSans-30" x="127.246094"/>
       <use xlink:href="#DejaVuSans-30" x="190.869141"/>
      </g>
     </g>
    </g>
    <g id="xtick_9">
     <g id="line2d_9">
      <g>
       <use xlink:href="#mad929b56b0" x="613.919077" y="384.48" style="stroke: #000000; stroke-width: 0.8"/>
      </g>
     </g>
     <g id="text_9">
      <!-- 5000 -->
      <g transform="translate(601.194077 399.078438) scale(0.1 -0.1)">
       <defs>
        <path id="DejaVuSans-35" d="M 691 4666 
L 3169 4666 
L 3169 4134 
L 1269 4134 
L 1269 2991 
Q 1406 3038 1543 3061 
Q 1681 3084 1819 3084 
Q 2600 3084 3056 2656 
Q 3513 2228 3513 1497 
Q 3513 744 3044 326 
Q 2575 -91 1722 -91 
Q 1428 -91 1123 -41 
Q 819 9 494 109 
L 494 744 
Q 775 591 1075 516 
Q 1375 441 1709 441 
Q 2250 441 2565 725 
Q 2881 1009 2881 1497 
Q 2881 1984 2565 2268 
Q 2250 2553 1709 2553 
Q 1456 2553 1204 2497 
Q 953 2441 691 2322 
L 691 4666 
z
" transform="scale(0.015625)"/>
       </defs>
       <use xlink:href="#DejaVuSans-35"/>
       <use xlink:href="#DejaVuSans-30" x="63.623047"/>
       <use xlink:href="#DejaVuSans-30" x="127.246094"/>
       <use xlink:href="#DejaVuSans-30" x="190.869141"/>
      </g>
     </g>
    </g>
   </g>
   <g id="matplotlib.axis_2">
    <g id="ytick_1">
     <g id="line2d_10">
      <defs>
       <path id="m0f6bb3b310" d="M 0 0 
L -3.5 0 
" style="stroke: #000000; stroke-width: 0.8"/>
      </defs>
      <g>
       <use xlink:href="#m0f6bb3b310" x="90" y="346.248998" style="stroke: #000000; stroke-width: 0.8"/>
      </g>
     </g>
     <g id="text_10">
      <!-- 0.2 -->
      <g transform="translate(58.717187 350.048217) scale(0.1 -0.1)">
       <defs>
        <path id="DejaVuSans-2212" d="M 678 2272 
L 4684 2272 
L 4684 1741 
L 678 1741 
L 678 2272 
z
" transform="scale(0.015625)"/>
        <path id="DejaVuSans-2e" d="M 684 794 
L 1344 794 
L 1344 0 
L 684 0 
L 684 794 
z
" transform="scale(0.015625)"/>
       </defs>
       <use xlink:href="#DejaVuSans-2212"/>
       <use xlink:href="#DejaVuSans-30" x="83.789062"/>
       <use xlink:href="#DejaVuSans-2e" x="147.412109"/>
       <use xlink:href="#DejaVuSans-32" x="179.199219"/>
      </g>
     </g>
    </g>
    <g id="ytick_2">
     <g id="line2d_11">
      <g>
       <use xlink:href="#m0f6bb3b310" x="90" y="299.700832" style="stroke: #000000; stroke-width: 0.8"/>
      </g>
     </g>
     <g id="text_11">
      <!-- 0.0 -->
      <g transform="translate(67.096875 303.500051) scale(0.1 -0.1)">
       <use xlink:href="#DejaVuSans-30"/>
       <use xlink:href="#DejaVuSans-2e" x="63.623047"/>
       <use xlink:href="#DejaVuSans-30" x="95.410156"/>
      </g>
     </g>
    </g>
    <g id="ytick_3">
     <g id="line2d_12">
      <g>
       <use xlink:href="#m0f6bb3b310" x="90" y="253.152666" style="stroke: #000000; stroke-width: 0.8"/>
      </g>
     </g>
     <g id="text_12">
      <!-- 0.2 -->
      <g transform="translate(67.096875 256.951884) scale(0.1 -0.1)">
       <use xlink:href="#DejaVuSans-30"/>
       <use xlink:href="#DejaVuSans-2e" x="63.623047"/>
       <use xlink:href="#DejaVuSans-32" x="95.410156"/>
      </g>
     </g>
    </g>
    <g id="ytick_4">
     <g id="line2d_13">
      <g>
       <use xlink:href="#m0f6bb3b310" x="90" y="206.604499" style="stroke: #000000; stroke-width: 0.8"/>
      </g>
     </g>
     <g id="text_13">
      <!-- 0.4 -->
      <g transform="translate(67.096875 210.403718) scale(0.1 -0.1)">
       <use xlink:href="#DejaVuSans-30"/>
       <use xlink:href="#DejaVuSans-2e" x="63.623047"/>
       <use xlink:href="#DejaVuSans-34" x="95.410156"/>
      </g>
     </g>
    </g>
    <g id="ytick_5">
     <g id="line2d_14">
      <g>
       <use xlink:href="#m0f6bb3b310" x="90" y="160.056333" style="stroke: #000000; stroke-width: 0.8"/>
      </g>
     </g>
     <g id="text_14">
      <!-- 0.6 -->
      <g transform="translate(67.096875 163.855552) scale(0.1 -0.1)">
       <use xlink:href="#DejaVuSans-30"/>
       <use xlink:href="#DejaVuSans-2e" x="63.623047"/>
       <use xlink:href="#DejaVuSans-36" x="95.410156"/>
      </g>
     </g>
    </g>
    <g id="ytick_6">
     <g id="line2d_15">
      <g>
       <use xlink:href="#m0f6bb3b310" x="90" y="113.508166" style="stroke: #000000; stroke-width: 0.8"/>
      </g>
     </g>
     <g id="text_15">
      <!-- 0.8 -->
      <g transform="translate(67.096875 117.307385) scale(0.1 -0.1)">
       <use xlink:href="#DejaVuSans-30"/>
       <use xlink:href="#DejaVuSans-2e" x="63.623047"/>
       <use xlink:href="#DejaVuSans-38" x="95.410156"/>
      </g>
     </g>
    </g>
    <g id="ytick_7">
     <g id="line2d_16">
      <g>
       <use xlink:href="#m0f6bb3b310" x="90" y="66.96" style="stroke: #000000; stroke-width: 0.8"/>
      </g>
     </g>
     <g id="text_16">
      <!-- 1.0 -->
      <g transform="translate(67.096875 70.759219) scale(0.1 -0.1)">
       <defs>
        <path id="DejaVuSans-31" d="M 794 531 
L 1825 531 
L 1825 4091 
L 703 3866 
L 703 4441 
L 1819 4666 
L 2450 4666 
L 2450 531 
L 3481 531 
L 3481 0 
L 794 0 
L 794 531 
z
" transform="scale(0.015625)"/>
       </defs>
       <use xlink:href="#DejaVuSans-31"/>
       <use xlink:href="#DejaVuSans-2e" x="63.623047"/>
       <use xlink:href="#DejaVuSans-30" x="95.410156"/>
      </g>
     </g>
    </g>
   </g>
   <g id="patch_330">
    <path d="M 90 384.48 
L 90 51.84 
" style="fill: none; stroke: #000000; stroke-width: 0.8; stroke-linejoin: miter; stroke-linecap: square"/>
   </g>
   <g id="patch_331">
    <path d="M 648 384.48 
L 648 51.84 
" style="fill: none; stroke: #000000; stroke-width: 0.8; stroke-linejoin: miter; stroke-linecap: square"/>
   </g>
   <g id="patch_332">
    <path d="M 90 384.48 
L 648 384.48 
" style="fill: none; stroke: #000000; stroke-width: 0.8; stroke-linejoin: miter; stroke-linecap: square"/>
   </g>
   <g id="patch_333">
    <path d="M 90 51.84 
L 648 51.84 
" style="fill: none; stroke: #000000; stroke-width: 0.8; stroke-linejoin: miter; stroke-linecap: square"/>
   </g>
   <g id="legend_1">
    <g id="patch_334">
     <path d="M 546.635937 103.874375 
L 641 103.874375 
Q 643 103.874375 643 101.874375 
L 643 58.84 
Q 643 56.84 641 56.84 
L 546.635937 56.84 
Q 544.635937 56.84 544.635937 58.84 
L 544.635937 101.874375 
Q 544.635937 103.874375 546.635937 103.874375 
z
" style="fill: #ffffff; opacity: 0.8; stroke: #cccccc; stroke-linejoin: miter"/>
    </g>
    <g id="patch_335">
     <path d="M 548.635937 68.438437 
L 568.635937 68.438437 
L 568.635937 61.438437 
L 548.635937 61.438437 
z
" style="fill: #0000ff; opacity: 0.7"/>
    </g>
    <g id="text_17">
     <!-- Teorico -->
     <g transform="translate(576.635937 68.438437) scale(0.1 -0.1)">
      <defs>
       <path id="DejaVuSans-54" d="M -19 4666 
L 3928 4666 
L 3928 4134 
L 2272 4134 
L 2272 0 
L 1638 0 
L 1638 4134 
L -19 4134 
L -19 4666 
z
" transform="scale(0.015625)"/>
       <path id="DejaVuSans-65" d="M 3597 1894 
L 3597 1613 
L 953 1613 
Q 991 1019 1311 708 
Q 1631 397 2203 397 
Q 2534 397 2845 478 
Q 3156 559 3463 722 
L 3463 178 
Q 3153 47 2828 -22 
Q 2503 -91 2169 -91 
Q 1331 -91 842 396 
Q 353 884 353 1716 
Q 353 2575 817 3079 
Q 1281 3584 2069 3584 
Q 2775 3584 3186 3129 
Q 3597 2675 3597 1894 
z
M 3022 2063 
Q 3016 2534 2758 2815 
Q 2500 3097 2075 3097 
Q 1594 3097 1305 2825 
Q 1016 2553 972 2059 
L 3022 2063 
z
" transform="scale(0.015625)"/>
       <path id="DejaVuSans-6f" d="M 1959 3097 
Q 1497 3097 1228 2736 
Q 959 2375 959 1747 
Q 959 1119 1226 758 
Q 1494 397 1959 397 
Q 2419 397 2687 759 
Q 2956 1122 2956 1747 
Q 2956 2369 2687 2733 
Q 2419 3097 1959 3097 
z
M 1959 3584 
Q 2709 3584 3137 3096 
Q 3566 2609 3566 1747 
Q 3566 888 3137 398 
Q 2709 -91 1959 -91 
Q 1206 -91 779 398 
Q 353 888 353 1747 
Q 353 2609 779 3096 
Q 1206 3584 1959 3584 
z
" transform="scale(0.015625)"/>
       <path id="DejaVuSans-72" d="M 2631 2963 
Q 2534 3019 2420 3045 
Q 2306 3072 2169 3072 
Q 1681 3072 1420 2755 
Q 1159 2438 1159 1844 
L 1159 0 
L 581 0 
L 581 3500 
L 1159 3500 
L 1159 2956 
Q 1341 3275 1631 3429 
Q 1922 3584 2338 3584 
Q 2397 3584 2469 3576 
Q 2541 3569 2628 3553 
L 2631 2963 
z
" transform="scale(0.015625)"/>
       <path id="DejaVuSans-69" d="M 603 3500 
L 1178 3500 
L 1178 0 
L 603 0 
L 603 3500 
z
M 603 4863 
L 1178 4863 
L 1178 4134 
L 603 4134 
L 603 4863 
z
" transform="scale(0.015625)"/>
       <path id="DejaVuSans-63" d="M 3122 3366 
L 3122 2828 
Q 2878 2963 2633 3030 
Q 2388 3097 2138 3097 
Q 1578 3097 1268 2742 
Q 959 2388 959 1747 
Q 959 1106 1268 751 
Q 1578 397 2138 397 
Q 2388 397 2633 464 
Q 2878 531 3122 666 
L 3122 134 
Q 2881 22 2623 -34 
Q 2366 -91 2075 -91 
Q 1284 -91 818 406 
Q 353 903 353 1747 
Q 353 2603 823 3093 
Q 1294 3584 2113 3584 
Q 2378 3584 2631 3529 
Q 2884 3475 3122 3366 
z
" transform="scale(0.015625)"/>
      </defs>
      <use xlink:href="#DejaVuSans-54"/>
      <use xlink:href="#DejaVuSans-65" x="44.083984"/>
      <use xlink:href="#DejaVuSans-6f" x="105.607422"/>
      <use xlink:href="#DejaVuSans-72" x="166.789062"/>
      <use xlink:href="#DejaVuSans-69" x="207.902344"/>
      <use xlink:href="#DejaVuSans-63" x="235.685547"/>
      <use xlink:href="#DejaVuSans-6f" x="290.666016"/>
     </g>
    </g>
    <g id="patch_336">
     <path d="M 548.635937 83.116562 
L 568.635937 83.116562 
L 568.635937 76.116562 
L 548.635937 76.116562 
z
" style="opacity: 0.7"/>
    </g>
    <g id="text_18">
     <!-- Emp Real -->
     <g transform="translate(576.635937 83.116562) scale(0.1 -0.1)">
      <defs>
       <path id="DejaVuSans-45" d="M 628 4666 
L 3578 4666 
L 3578 4134 
L 1259 4134 
L 1259 2753 
L 3481 2753 
L 3481 2222 
L 1259 2222 
L 1259 531 
L 3634 531 
L 3634 0 
L 628 0 
L 628 4666 
z
" transform="scale(0.015625)"/>
       <path id="DejaVuSans-6d" d="M 3328 2828 
Q 3544 3216 3844 3400 
Q 4144 3584 4550 3584 
Q 5097 3584 5394 3201 
Q 5691 2819 5691 2113 
L 5691 0 
L 5113 0 
L 5113 2094 
Q 5113 2597 4934 2840 
Q 4756 3084 4391 3084 
Q 3944 3084 3684 2787 
Q 3425 2491 3425 1978 
L 3425 0 
L 2847 0 
L 2847 2094 
Q 2847 2600 2669 2842 
Q 2491 3084 2119 3084 
Q 1678 3084 1418 2786 
Q 1159 2488 1159 1978 
L 1159 0 
L 581 0 
L 581 3500 
L 1159 3500 
L 1159 2956 
Q 1356 3278 1631 3431 
Q 1906 3584 2284 3584 
Q 2666 3584 2933 3390 
Q 3200 3197 3328 2828 
z
" transform="scale(0.015625)"/>
       <path id="DejaVuSans-70" d="M 1159 525 
L 1159 -1331 
L 581 -1331 
L 581 3500 
L 1159 3500 
L 1159 2969 
Q 1341 3281 1617 3432 
Q 1894 3584 2278 3584 
Q 2916 3584 3314 3078 
Q 3713 2572 3713 1747 
Q 3713 922 3314 415 
Q 2916 -91 2278 -91 
Q 1894 -91 1617 61 
Q 1341 213 1159 525 
z
M 3116 1747 
Q 3116 2381 2855 2742 
Q 2594 3103 2138 3103 
Q 1681 3103 1420 2742 
Q 1159 2381 1159 1747 
Q 1159 1113 1420 752 
Q 1681 391 2138 391 
Q 2594 391 2855 752 
Q 3116 1113 3116 1747 
z
" transform="scale(0.015625)"/>
       <path id="DejaVuSans-20" transform="scale(0.015625)"/>
       <path id="DejaVuSans-52" d="M 2841 2188 
Q 3044 2119 3236 1894 
Q 3428 1669 3622 1275 
L 4263 0 
L 3584 0 
L 2988 1197 
Q 2756 1666 2539 1819 
Q 2322 1972 1947 1972 
L 1259 1972 
L 1259 0 
L 628 0 
L 628 4666 
L 2053 4666 
Q 2853 4666 3247 4331 
Q 3641 3997 3641 3322 
Q 3641 2881 3436 2590 
Q 3231 2300 2841 2188 
z
M 1259 4147 
L 1259 2491 
L 2053 2491 
Q 2509 2491 2742 2702 
Q 2975 2913 2975 3322 
Q 2975 3731 2742 3939 
Q 2509 4147 2053 4147 
L 1259 4147 
z
" transform="scale(0.015625)"/>
       <path id="DejaVuSans-61" d="M 2194 1759 
Q 1497 1759 1228 1600 
Q 959 1441 959 1056 
Q 959 750 1161 570 
Q 1363 391 1709 391 
Q 2188 391 2477 730 
Q 2766 1069 2766 1631 
L 2766 1759 
L 2194 1759 
z
M 3341 1997 
L 3341 0 
L 2766 0 
L 2766 531 
Q 2569 213 2275 61 
Q 1981 -91 1556 -91 
Q 1019 -91 701 211 
Q 384 513 384 1019 
Q 384 1609 779 1909 
Q 1175 2209 1959 2209 
L 2766 2209 
L 2766 2266 
Q 2766 2663 2505 2880 
Q 2244 3097 1772 3097 
Q 1472 3097 1187 3025 
Q 903 2953 641 2809 
L 641 3341 
Q 956 3463 1253 3523 
Q 1550 3584 1831 3584 
Q 2591 3584 2966 3190 
Q 3341 2797 3341 1997 
z
" transform="scale(0.015625)"/>
       <path id="DejaVuSans-6c" d="M 603 4863 
L 1178 4863 
L 1178 0 
L 603 0 
L 603 4863 
z
" transform="scale(0.015625)"/>
      </defs>
      <use xlink:href="#DejaVuSans-45"/>
      <use xlink:href="#DejaVuSans-6d" x="63.183594"/>
      <use xlink:href="#DejaVuSans-70" x="160.595703"/>
      <use xlink:href="#DejaVuSans-20" x="224.072266"/>
      <use xlink:href="#DejaVuSans-52" x="255.859375"/>
      <use xlink:href="#DejaVuSans-65" x="320.841797"/>
      <use xlink:href="#DejaVuSans-61" x="382.365234"/>
      <use xlink:href="#DejaVuSans-6c" x="443.644531"/>
     </g>
    </g>
    <g id="patch_337">
     <path d="M 548.635937 97.794687 
L 568.635937 97.794687 
L 568.635937 90.794687 
L 548.635937 90.794687 
z
" style="fill: #ff0000"/>
    </g>
    <g id="text_19">
     <!-- Emp Optimo -->
     <g transform="translate(576.635937 97.794687) scale(0.1 -0.1)">
      <defs>
       <path id="DejaVuSans-4f" d="M 2522 4238 
Q 1834 4238 1429 3725 
Q 1025 3213 1025 2328 
Q 1025 1447 1429 934 
Q 1834 422 2522 422 
Q 3209 422 3611 934 
Q 4013 1447 4013 2328 
Q 4013 3213 3611 3725 
Q 3209 4238 2522 4238 
z
M 2522 4750 
Q 3503 4750 4090 4092 
Q 4678 3434 4678 2328 
Q 4678 1225 4090 567 
Q 3503 -91 2522 -91 
Q 1538 -91 948 565 
Q 359 1222 359 2328 
Q 359 3434 948 4092 
Q 1538 4750 2522 4750 
z
" transform="scale(0.015625)"/>
       <path id="DejaVuSans-74" d="M 1172 4494 
L 1172 3500 
L 2356 3500 
L 2356 3053 
L 1172 3053 
L 1172 1153 
Q 1172 725 1289 603 
Q 1406 481 1766 481 
L 2356 481 
L 2356 0 
L 1766 0 
Q 1100 0 847 248 
Q 594 497 594 1153 
L 594 3053 
L 172 3053 
L 172 3500 
L 594 3500 
L 594 4494 
L 1172 4494 
z
" transform="scale(0.015625)"/>
      </defs>
      <use xlink:href="#DejaVuSans-45"/>
      <use xlink:href="#DejaVuSans-6d" x="63.183594"/>
      <use xlink:href="#DejaVuSans-70" x="160.595703"/>
      <use xlink:href="#DejaVuSans-20" x="224.072266"/>
      <use xlink:href="#DejaVuSans-4f" x="255.859375"/>
      <use xlink:href="#DejaVuSans-70" x="334.570312"/>
      <use xlink:href="#DejaVuSans-74" x="398.046875"/>
      <use xlink:href="#DejaVuSans-69" x="437.255859"/>
      <use xlink:href="#DejaVuSans-6d" x="465.039062"/>
      <use xlink:href="#DejaVuSans-6f" x="562.451172"/>
     </g>
    </g>
   </g>
  </g>
 </g>
 <defs>
  <clipPath id="p303094bac0">
   <rect x="90" y="51.84" width="558" height="332.64"/>
  </clipPath>
 </defs>
</svg>
