<?xml version="1.0" encoding="utf-8" standalone="no"?>
<!DOCTYPE svg PUBLIC "-//W3C//DTD SVG 1.1//EN"
  "http://www.w3.org/Graphics/SVG/1.1/DTD/svg11.dtd">
<svg xmlns:xlink="http://www.w3.org/1999/xlink" width="720pt" height="432pt" viewBox="0 0 720 432" xmlns="http://www.w3.org/2000/svg" version="1.1">
 <metadata>
  <rdf:RDF xmlns:dc="http://purl.org/dc/elements/1.1/" xmlns:cc="http://creativecommons.org/ns#" xmlns:rdf="http://www.w3.org/1999/02/22-rdf-syntax-ns#">
   <cc:Work>
    <dc:type rdf:resource="http://purl.org/dc/dcmitype/StillImage"/>
    <dc:date>2024-03-25T23:52:43.648216</dc:date>
    <dc:format>image/svg+xml</dc:format>
    <dc:creator>
     <cc:Agent>
      <dc:title>Matplotlib v3.7.5, https://matplotlib.org/</dc:title>
     </cc:Agent>
    </dc:creator>
   </cc:Work>
  </rdf:RDF>
 </metadata>
 <defs>
  <style type="text/css">*{stroke-linejoin: round; stroke-linecap: butt}</style>
 </defs>
 <g id="figure_1">
  <g id="patch_1">
   <path d="M 0 432 
L 720 432 
L 720 0 
L 0 0 
z
" style="fill: #ffffff"/>
  </g>
  <g id="axes_1">
   <g id="patch_2">
    <path d="M 90 384.48 
L 648 384.48 
L 648 51.84 
L 90 51.84 
z
" style="fill: #ffffff"/>
   </g>
   <g id="patch_3">
    <path d="M 121.653214 268.62729 
L 123.732959 268.62729 
L 123.732959 273.47215 
L 121.653214 273.47215 
z
" clip-path="url(#paaa1462f4f)" style="fill: #0000ff; opacity: 0.7"/>
   </g>
   <g id="patch_4">
    <path d="M 124.728949 268.62729 
L 126.808695 268.62729 
L 126.808695 274.481495 
L 124.728949 274.481495 
z
" clip-path="url(#paaa1462f4f)" style="fill: #0000ff; opacity: 0.7"/>
   </g>
   <g id="patch_5">
    <path d="M 138.865394 268.62729 
L 140.945139 268.62729 
L 140.945139 274.481495 
L 138.865394 274.481495 
z
" clip-path="url(#paaa1462f4f)" style="fill: #0000ff; opacity: 0.7"/>
   </g>
   <g id="patch_6">
    <path d="M 143.616988 268.62729 
L 145.696733 268.62729 
L 145.696733 271.453458 
L 143.616988 271.453458 
z
" clip-path="url(#paaa1462f4f)" style="fill: #0000ff; opacity: 0.7"/>
   </g>
   <g id="patch_7">
    <path d="M 144.882721 268.62729 
L 146.962466 268.62729 
L 146.962466 273.47215 
L 144.882721 273.47215 
z
" clip-path="url(#paaa1462f4f)" style="fill: #0000ff; opacity: 0.7"/>
   </g>
   <g id="patch_8">
    <path d="M 151.890839 268.62729 
L 153.970584 268.62729 
L 153.970584 270.040374 
L 151.890839 270.040374 
z
" clip-path="url(#paaa1462f4f)" style="fill: #0000ff; opacity: 0.7"/>
   </g>
   <g id="patch_9">
    <path d="M 155.570948 268.62729 
L 157.650694 268.62729 
L 157.650694 269.838505 
L 155.570948 269.838505 
z
" clip-path="url(#paaa1462f4f)" style="fill: #0000ff; opacity: 0.7"/>
   </g>
   <g id="patch_10">
    <path d="M 174.179677 268.62729 
L 176.259423 268.62729 
L 176.259423 273.47215 
L 174.179677 273.47215 
z
" clip-path="url(#paaa1462f4f)" style="fill: #0000ff; opacity: 0.7"/>
   </g>
   <g id="patch_11">
    <path d="M 181.658649 268.62729 
L 183.738395 268.62729 
L 183.738395 278.518879 
L 181.658649 278.518879 
z
" clip-path="url(#paaa1462f4f)" style="fill: #0000ff; opacity: 0.7"/>
   </g>
   <g id="patch_12">
    <path d="M 190.848212 268.62729 
L 192.927957 268.62729 
L 192.927957 271.453458 
L 190.848212 271.453458 
z
" clip-path="url(#paaa1462f4f)" style="fill: #0000ff; opacity: 0.7"/>
   </g>
   <g id="patch_13">
    <path d="M 199.401165 268.62729 
L 201.48091 268.62729 
L 201.48091 273.47215 
L 199.401165 273.47215 
z
" clip-path="url(#paaa1462f4f)" style="fill: #0000ff; opacity: 0.7"/>
   </g>
   <g id="patch_14">
    <path d="M 207.318318 268.62729 
L 209.398064 268.62729 
L 209.398064 328.986168 
L 207.318318 328.986168 
z
" clip-path="url(#paaa1462f4f)" style="fill: #0000ff; opacity: 0.7"/>
   </g>
   <g id="patch_15">
    <path d="M 215.631913 268.62729 
L 217.711658 268.62729 
L 217.711658 271.453458 
L 215.631913 271.453458 
z
" clip-path="url(#paaa1462f4f)" style="fill: #0000ff; opacity: 0.7"/>
   </g>
   <g id="patch_16">
    <path d="M 219.26606 268.62729 
L 221.345805 268.62729 
L 221.345805 273.47215 
L 219.26606 273.47215 
z
" clip-path="url(#paaa1462f4f)" style="fill: #0000ff; opacity: 0.7"/>
   </g>
   <g id="patch_17">
    <path d="M 223.141041 268.62729 
L 225.220787 268.62729 
L 225.220787 272.462804 
L 223.141041 272.462804 
z
" clip-path="url(#paaa1462f4f)" style="fill: #0000ff; opacity: 0.7"/>
   </g>
   <g id="patch_18">
    <path d="M 229.39338 268.62729 
L 231.473125 268.62729 
L 231.473125 270.84785 
L 229.39338 270.84785 
z
" clip-path="url(#paaa1462f4f)" style="fill: #0000ff; opacity: 0.7"/>
   </g>
   <g id="patch_19">
    <path d="M 235.923572 268.62729 
L 238.003317 268.62729 
L 238.003317 278.518879 
L 235.923572 278.518879 
z
" clip-path="url(#paaa1462f4f)" style="fill: #0000ff; opacity: 0.7"/>
   </g>
   <g id="patch_20">
    <path d="M 237.507922 268.62729 
L 239.587667 268.62729 
L 239.587667 271.453458 
L 237.507922 271.453458 
z
" clip-path="url(#paaa1462f4f)" style="fill: #0000ff; opacity: 0.7"/>
   </g>
   <g id="patch_21">
    <path d="M 239.39737 268.62729 
L 241.477116 268.62729 
L 241.477116 278.518879 
L 239.39737 278.518879 
z
" clip-path="url(#paaa1462f4f)" style="fill: #0000ff; opacity: 0.7"/>
   </g>
   <g id="patch_22">
    <path d="M 245.451717 268.62729 
L 247.531462 268.62729 
L 247.531462 282.556262 
L 245.451717 282.556262 
z
" clip-path="url(#paaa1462f4f)" style="fill: #0000ff; opacity: 0.7"/>
   </g>
   <g id="patch_23">
    <path d="M 247.025876 268.62729 
L 249.105622 268.62729 
L 249.105622 270.84785 
L 247.025876 270.84785 
z
" clip-path="url(#paaa1462f4f)" style="fill: #0000ff; opacity: 0.7"/>
   </g>
   <g id="patch_24">
    <path d="M 252.08756 268.62729 
L 254.167306 268.62729 
L 254.167306 278.518879 
L 252.08756 278.518879 
z
" clip-path="url(#paaa1462f4f)" style="fill: #0000ff; opacity: 0.7"/>
   </g>
   <g id="patch_25">
    <path d="M 257.871748 268.62729 
L 259.951493 268.62729 
L 259.951493 288.612336 
L 257.871748 288.612336 
z
" clip-path="url(#paaa1462f4f)" style="fill: #0000ff; opacity: 0.7"/>
   </g>
   <g id="patch_26">
    <path d="M 262.938424 268.62729 
L 265.018169 268.62729 
L 265.018169 270.84785 
L 262.938424 270.84785 
z
" clip-path="url(#paaa1462f4f)" style="fill: #0000ff; opacity: 0.7"/>
   </g>
   <g id="patch_27">
    <path d="M 267.76572 268.62729 
L 269.845466 268.62729 
L 269.845466 270.84785 
L 267.76572 270.84785 
z
" clip-path="url(#paaa1462f4f)" style="fill: #0000ff; opacity: 0.7"/>
   </g>
   <g id="patch_28">
    <path d="M 270.139958 268.62729 
L 272.219703 268.62729 
L 272.219703 269.031028 
L 270.139958 269.031028 
z
" clip-path="url(#paaa1462f4f)" style="fill: #0000ff; opacity: 0.7"/>
   </g>
   <g id="patch_29">
    <path d="M 272.211592 268.62729 
L 274.291337 268.62729 
L 274.291337 270.645981 
L 272.211592 270.645981 
z
" clip-path="url(#paaa1462f4f)" style="fill: #0000ff; opacity: 0.7"/>
   </g>
   <g id="patch_30">
    <path d="M 277.927564 268.62729 
L 280.007309 268.62729 
L 280.007309 274.481495 
L 277.927564 274.481495 
z
" clip-path="url(#paaa1462f4f)" style="fill: #0000ff; opacity: 0.7"/>
   </g>
   <g id="patch_31">
    <path d="M 284.417201 268.62729 
L 286.496946 268.62729 
L 286.496946 269.636636 
L 284.417201 269.636636 
z
" clip-path="url(#paaa1462f4f)" style="fill: #0000ff; opacity: 0.7"/>
   </g>
   <g id="patch_32">
    <path d="M 285.907339 268.62729 
L 287.987084 268.62729 
L 287.987084 273.47215 
L 285.907339 273.47215 
z
" clip-path="url(#paaa1462f4f)" style="fill: #0000ff; opacity: 0.7"/>
   </g>
   <g id="patch_33">
    <path d="M 288.195266 268.62729 
L 290.275012 268.62729 
L 290.275012 308.799252 
L 288.195266 308.799252 
z
" clip-path="url(#paaa1462f4f)" style="fill: #0000ff; opacity: 0.7"/>
   </g>
   <g id="patch_34">
    <path d="M 299.357675 268.62729 
L 301.437421 268.62729 
L 301.437421 282.556262 
L 299.357675 282.556262 
z
" clip-path="url(#paaa1462f4f)" style="fill: #0000ff; opacity: 0.7"/>
   </g>
   <g id="patch_35">
    <path d="M 302.864958 268.62729 
L 304.944703 268.62729 
L 304.944703 318.89271 
L 302.864958 318.89271 
z
" clip-path="url(#paaa1462f4f)" style="fill: #0000ff; opacity: 0.7"/>
   </g>
   <g id="patch_36">
    <path d="M 307.583692 268.62729 
L 309.663437 268.62729 
L 309.663437 282.556262 
L 307.583692 282.556262 
z
" clip-path="url(#paaa1462f4f)" style="fill: #0000ff; opacity: 0.7"/>
   </g>
   <g id="patch_37">
    <path d="M 309.437577 268.62729 
L 311.517322 268.62729 
L 311.517322 278.518879 
L 309.437577 278.518879 
z
" clip-path="url(#paaa1462f4f)" style="fill: #0000ff; opacity: 0.7"/>
   </g>
   <g id="patch_38">
    <path d="M 319.073869 268.62729 
L 321.153614 268.62729 
L 321.153614 294.668411 
L 319.073869 294.668411 
z
" clip-path="url(#paaa1462f4f)" style="fill: #0000ff; opacity: 0.7"/>
   </g>
   <g id="patch_39">
    <path d="M 328.532135 268.62729 
L 330.61188 268.62729 
L 330.61188 308.799252 
L 328.532135 308.799252 
z
" clip-path="url(#paaa1462f4f)" style="fill: #0000ff; opacity: 0.7"/>
   </g>
   <g id="patch_40">
    <path d="M 330.680927 268.62729 
L 332.760673 268.62729 
L 332.760673 282.556262 
L 330.680927 282.556262 
z
" clip-path="url(#paaa1462f4f)" style="fill: #0000ff; opacity: 0.7"/>
   </g>
   <g id="patch_41">
    <path d="M 343.833445 268.62729 
L 345.91319 268.62729 
L 345.91319 294.668411 
L 343.833445 294.668411 
z
" clip-path="url(#paaa1462f4f)" style="fill: #0000ff; opacity: 0.7"/>
   </g>
   <g id="patch_42">
    <path d="M 357.250922 268.62729 
L 359.330667 268.62729 
L 359.330667 308.799252 
L 357.250922 308.799252 
z
" clip-path="url(#paaa1462f4f)" style="fill: #0000ff; opacity: 0.7"/>
   </g>
   <g id="patch_43">
    <path d="M 367.303163 268.62729 
L 369.382908 268.62729 
L 369.382908 294.668411 
L 367.303163 294.668411 
z
" clip-path="url(#paaa1462f4f)" style="fill: #0000ff; opacity: 0.7"/>
   </g>
   <g id="patch_44">
    <path d="M 381.646542 268.62729 
L 383.726287 268.62729 
L 383.726287 308.799252 
L 381.646542 308.799252 
z
" clip-path="url(#paaa1462f4f)" style="fill: #0000ff; opacity: 0.7"/>
   </g>
   <g id="patch_45">
    <path d="M 389.54895 268.62729 
L 391.628696 268.62729 
L 391.628696 318.89271 
L 389.54895 318.89271 
z
" clip-path="url(#paaa1462f4f)" style="fill: #0000ff; opacity: 0.7"/>
   </g>
   <g id="patch_46">
    <path d="M 413.465813 268.62729 
L 415.545559 268.62729 
L 415.545559 318.89271 
L 413.465813 318.89271 
z
" clip-path="url(#paaa1462f4f)" style="fill: #0000ff; opacity: 0.7"/>
   </g>
   <g id="patch_47">
    <path d="M 422.214678 268.62729 
L 424.294423 268.62729 
L 424.294423 272.462804 
L 422.214678 272.462804 
z
" clip-path="url(#paaa1462f4f)" style="fill: #0000ff; opacity: 0.7"/>
   </g>
   <g id="patch_48">
    <path d="M 431.188571 268.62729 
L 433.268316 268.62729 
L 433.268316 282.556262 
L 431.188571 282.556262 
z
" clip-path="url(#paaa1462f4f)" style="fill: #0000ff; opacity: 0.7"/>
   </g>
   <g id="patch_49">
    <path d="M 441.711666 268.62729 
L 443.791411 268.62729 
L 443.791411 288.612336 
L 441.711666 288.612336 
z
" clip-path="url(#paaa1462f4f)" style="fill: #0000ff; opacity: 0.7"/>
   </g>
   <g id="patch_50">
    <path d="M 451.353157 268.62729 
L 453.432903 268.62729 
L 453.432903 273.47215 
L 451.353157 273.47215 
z
" clip-path="url(#paaa1462f4f)" style="fill: #0000ff; opacity: 0.7"/>
   </g>
   <g id="patch_51">
    <path d="M 467.938294 268.62729 
L 470.01804 268.62729 
L 470.01804 274.481495 
L 467.938294 274.481495 
z
" clip-path="url(#paaa1462f4f)" style="fill: #0000ff; opacity: 0.7"/>
   </g>
   <g id="patch_52">
    <path d="M 483.542831 268.62729 
L 485.622577 268.62729 
L 485.622577 269.838505 
L 483.542831 269.838505 
z
" clip-path="url(#paaa1462f4f)" style="fill: #0000ff; opacity: 0.7"/>
   </g>
   <g id="patch_53">
    <path d="M 620.556618 268.62729 
L 622.636364 268.62729 
L 622.636364 369.36 
L 620.556618 369.36 
z
" clip-path="url(#paaa1462f4f)" style="fill: #0000ff; opacity: 0.7"/>
   </g>
   <g id="patch_54">
    <path d="M 115.363636 268.62729 
L 115.779585 268.62729 
L 115.779585 265.702338 
L 115.363636 265.702338 
z
" clip-path="url(#paaa1462f4f)" style="opacity: 0.7"/>
   </g>
   <g id="patch_55">
    <path d="M 119.162882 268.62729 
L 119.578831 268.62729 
L 119.578831 263.98393 
L 119.162882 263.98393 
z
" clip-path="url(#paaa1462f4f)" style="opacity: 0.7"/>
   </g>
   <g id="patch_56">
    <path d="M 121.333879 268.62729 
L 121.749828 268.62729 
L 121.749828 263.686431 
L 121.333879 263.686431 
z
" clip-path="url(#paaa1462f4f)" style="opacity: 0.7"/>
   </g>
   <g id="patch_57">
    <path d="M 124.590376 268.62729 
L 125.006325 268.62729 
L 125.006325 254.559364 
L 124.590376 254.559364 
z
" clip-path="url(#paaa1462f4f)" style="opacity: 0.7"/>
   </g>
   <g id="patch_58">
    <path d="M 129.47512 268.62729 
L 129.891069 268.62729 
L 129.891069 260.578473 
L 129.47512 260.578473 
z
" clip-path="url(#paaa1462f4f)" style="opacity: 0.7"/>
   </g>
   <g id="patch_59">
    <path d="M 130.560618 268.62729 
L 130.976568 268.62729 
L 130.976568 260.692943 
L 130.560618 260.692943 
z
" clip-path="url(#paaa1462f4f)" style="opacity: 0.7"/>
   </g>
   <g id="patch_60">
    <path d="M 135.988112 268.62729 
L 136.404061 268.62729 
L 136.404061 249.484297 
L 135.988112 249.484297 
z
" clip-path="url(#paaa1462f4f)" style="opacity: 0.7"/>
   </g>
   <g id="patch_61">
    <path d="M 138.701859 268.62729 
L 139.117808 268.62729 
L 139.117808 242.257461 
L 138.701859 242.257461 
z
" clip-path="url(#paaa1462f4f)" style="opacity: 0.7"/>
   </g>
   <g id="patch_62">
    <path d="M 142.501104 268.62729 
L 142.917053 268.62729 
L 142.917053 252.690394 
L 142.501104 252.690394 
z
" clip-path="url(#paaa1462f4f)" style="opacity: 0.7"/>
   </g>
   <g id="patch_63">
    <path d="M 144.672102 268.62729 
L 145.088051 268.62729 
L 145.088051 252.591268 
L 144.672102 252.591268 
z
" clip-path="url(#paaa1462f4f)" style="opacity: 0.7"/>
   </g>
   <g id="patch_64">
    <path d="M 148.471347 268.62729 
L 148.887296 268.62729 
L 148.887296 262.559821 
L 148.471347 262.559821 
z
" clip-path="url(#paaa1462f4f)" style="opacity: 0.7"/>
   </g>
   <g id="patch_65">
    <path d="M 150.099595 268.62729 
L 150.515545 268.62729 
L 150.515545 264.029593 
L 150.099595 264.029593 
z
" clip-path="url(#paaa1462f4f)" style="opacity: 0.7"/>
   </g>
   <g id="patch_66">
    <path d="M 154.44159 268.62729 
L 154.857539 268.62729 
L 154.857539 264.003943 
L 154.44159 264.003943 
z
" clip-path="url(#paaa1462f4f)" style="opacity: 0.7"/>
   </g>
   <g id="patch_67">
    <path d="M 158.783585 268.62729 
L 159.199534 268.62729 
L 159.199534 265.665405 
L 158.783585 265.665405 
z
" clip-path="url(#paaa1462f4f)" style="opacity: 0.7"/>
   </g>
   <g id="patch_68">
    <path d="M 162.040081 268.62729 
L 162.45603 268.62729 
L 162.45603 266.668307 
L 162.040081 266.668307 
z
" clip-path="url(#paaa1462f4f)" style="opacity: 0.7"/>
   </g>
   <g id="patch_69">
    <path d="M 163.66833 268.62729 
L 164.084279 268.62729 
L 164.084279 266.513239 
L 163.66833 266.513239 
z
" clip-path="url(#paaa1462f4f)" style="opacity: 0.7"/>
   </g>
   <g id="patch_70">
    <path d="M 166.382076 268.62729 
L 166.798025 268.62729 
L 166.798025 267.631932 
L 166.382076 267.631932 
z
" clip-path="url(#paaa1462f4f)" style="opacity: 0.7"/>
   </g>
   <g id="patch_71">
    <path d="M 169.095823 268.62729 
L 169.511772 268.62729 
L 169.511772 266.633582 
L 169.095823 266.633582 
z
" clip-path="url(#paaa1462f4f)" style="opacity: 0.7"/>
   </g>
   <g id="patch_72">
    <path d="M 171.80957 268.62729 
L 172.225519 268.62729 
L 172.225519 262.720265 
L 171.80957 262.720265 
z
" clip-path="url(#paaa1462f4f)" style="opacity: 0.7"/>
   </g>
   <g id="patch_73">
    <path d="M 173.980567 268.62729 
L 174.396516 268.62729 
L 174.396516 251.06604 
L 173.980567 251.06604 
z
" clip-path="url(#paaa1462f4f)" style="opacity: 0.7"/>
   </g>
   <g id="patch_74">
    <path d="M 179.408061 268.62729 
L 179.82401 268.62729 
L 179.82401 266.607749 
L 179.408061 266.607749 
z
" clip-path="url(#paaa1462f4f)" style="opacity: 0.7"/>
   </g>
   <g id="patch_75">
    <path d="M 181.579058 268.62729 
L 181.995007 268.62729 
L 181.995007 259.900157 
L 181.579058 259.900157 
z
" clip-path="url(#paaa1462f4f)" style="opacity: 0.7"/>
   </g>
   <g id="patch_76">
    <path d="M 184.835555 268.62729 
L 185.251504 268.62729 
L 185.251504 262.378422 
L 184.835555 262.378422 
z
" clip-path="url(#paaa1462f4f)" style="opacity: 0.7"/>
   </g>
   <g id="patch_77">
    <path d="M 189.720299 268.62729 
L 190.136248 268.62729 
L 190.136248 264.536793 
L 189.720299 264.536793 
z
" clip-path="url(#paaa1462f4f)" style="opacity: 0.7"/>
   </g>
   <g id="patch_78">
    <path d="M 192.976795 268.62729 
L 193.392744 268.62729 
L 193.392744 263.335176 
L 192.976795 263.335176 
z
" clip-path="url(#paaa1462f4f)" style="opacity: 0.7"/>
   </g>
   <g id="patch_79">
    <path d="M 196.233291 268.62729 
L 196.64924 268.62729 
L 196.64924 263.900578 
L 196.233291 263.900578 
z
" clip-path="url(#paaa1462f4f)" style="opacity: 0.7"/>
   </g>
   <g id="patch_80">
    <path d="M 199.489787 268.62729 
L 199.905736 268.62729 
L 199.905736 252.670511 
L 199.489787 252.670511 
z
" clip-path="url(#paaa1462f4f)" style="opacity: 0.7"/>
   </g>
   <g id="patch_81">
    <path d="M 203.289033 268.62729 
L 203.704982 268.62729 
L 203.704982 257.636458 
L 203.289033 257.636458 
z
" clip-path="url(#paaa1462f4f)" style="opacity: 0.7"/>
   </g>
   <g id="patch_82">
    <path d="M 207.088278 268.62729 
L 207.504227 268.62729 
L 207.504227 66.96 
L 207.088278 66.96 
z
" clip-path="url(#paaa1462f4f)" style="opacity: 0.7"/>
   </g>
   <g id="patch_83">
    <path d="M 212.515772 268.62729 
L 212.931721 268.62729 
L 212.931721 265.838702 
L 212.515772 265.838702 
z
" clip-path="url(#paaa1462f4f)" style="opacity: 0.7"/>
   </g>
   <g id="patch_84">
    <path d="M 215.772268 268.62729 
L 216.188217 268.62729 
L 216.188217 253.483055 
L 215.772268 253.483055 
z
" clip-path="url(#paaa1462f4f)" style="opacity: 0.7"/>
   </g>
   <g id="patch_85">
    <path d="M 219.571514 268.62729 
L 219.987463 268.62729 
L 219.987463 228.079999 
L 219.571514 228.079999 
z
" clip-path="url(#paaa1462f4f)" style="opacity: 0.7"/>
   </g>
   <g id="patch_86">
    <path d="M 223.370759 268.62729 
L 223.786708 268.62729 
L 223.786708 249.409756 
L 223.370759 249.409756 
z
" clip-path="url(#paaa1462f4f)" style="opacity: 0.7"/>
   </g>
   <g id="patch_87">
    <path d="M 225.541757 268.62729 
L 225.957706 268.62729 
L 225.957706 264.123221 
L 225.541757 264.123221 
z
" clip-path="url(#paaa1462f4f)" style="opacity: 0.7"/>
   </g>
   <g id="patch_88">
    <path d="M 229.341002 268.62729 
L 229.756951 268.62729 
L 229.756951 265.495467 
L 229.341002 265.495467 
z
" clip-path="url(#paaa1462f4f)" style="opacity: 0.7"/>
   </g>
   <g id="patch_89">
    <path d="M 233.140248 268.62729 
L 233.556197 268.62729 
L 233.556197 263.451422 
L 233.140248 263.451422 
z
" clip-path="url(#paaa1462f4f)" style="opacity: 0.7"/>
   </g>
   <g id="patch_90">
    <path d="M 235.853995 268.62729 
L 236.269944 268.62729 
L 236.269944 247.359891 
L 235.853995 247.359891 
z
" clip-path="url(#paaa1462f4f)" style="opacity: 0.7"/>
   </g>
   <g id="patch_91">
    <path d="M 239.65324 268.62729 
L 240.069189 268.62729 
L 240.069189 220.987083 
L 239.65324 220.987083 
z
" clip-path="url(#paaa1462f4f)" style="opacity: 0.7"/>
   </g>
   <g id="patch_92">
    <path d="M 245.623483 268.62729 
L 246.039432 268.62729 
L 246.039432 247.39753 
L 245.623483 247.39753 
z
" clip-path="url(#paaa1462f4f)" style="opacity: 0.7"/>
   </g>
   <g id="patch_93">
    <path d="M 252.136475 268.62729 
L 252.552424 268.62729 
L 252.552424 258.123184 
L 252.136475 258.123184 
z
" clip-path="url(#paaa1462f4f)" style="opacity: 0.7"/>
   </g>
   <g id="patch_94">
    <path d="M 255.935721 268.62729 
L 256.35167 268.62729 
L 256.35167 261.998634 
L 255.935721 261.998634 
z
" clip-path="url(#paaa1462f4f)" style="opacity: 0.7"/>
   </g>
   <g id="patch_95">
    <path d="M 258.106718 268.62729 
L 258.522667 268.62729 
L 258.522667 254.030551 
L 258.106718 254.030551 
z
" clip-path="url(#paaa1462f4f)" style="opacity: 0.7"/>
   </g>
   <g id="patch_96">
    <path d="M 260.277716 268.62729 
L 260.693665 268.62729 
L 260.693665 261.230903 
L 260.277716 261.230903 
z
" clip-path="url(#paaa1462f4f)" style="opacity: 0.7"/>
   </g>
   <g id="patch_97">
    <path d="M 263.534212 268.62729 
L 263.950161 268.62729 
L 263.950161 212.34829 
L 263.534212 212.34829 
z
" clip-path="url(#paaa1462f4f)" style="opacity: 0.7"/>
   </g>
   <g id="patch_98">
    <path d="M 268.418956 268.62729 
L 268.834905 268.62729 
L 268.834905 232.666768 
L 268.418956 232.666768 
z
" clip-path="url(#paaa1462f4f)" style="opacity: 0.7"/>
   </g>
   <g id="patch_99">
    <path d="M 270.047204 268.62729 
L 270.463153 268.62729 
L 270.463153 207.036023 
L 270.047204 207.036023 
z
" clip-path="url(#paaa1462f4f)" style="opacity: 0.7"/>
   </g>
   <g id="patch_100">
    <path d="M 272.218202 268.62729 
L 272.634151 268.62729 
L 272.634151 132.828266 
L 272.218202 132.828266 
z
" clip-path="url(#paaa1462f4f)" style="opacity: 0.7"/>
   </g>
   <g id="patch_101">
    <path d="M 277.645695 268.62729 
L 278.061644 268.62729 
L 278.061644 257.65714 
L 277.645695 257.65714 
z
" clip-path="url(#paaa1462f4f)" style="opacity: 0.7"/>
   </g>
   <g id="patch_102">
    <path d="M 279.816693 268.62729 
L 280.232642 268.62729 
L 280.232642 259.983407 
L 279.816693 259.983407 
z
" clip-path="url(#paaa1462f4f)" style="opacity: 0.7"/>
   </g>
   <g id="patch_103">
    <path d="M 284.158688 268.62729 
L 284.574637 268.62729 
L 284.574637 170.257862 
L 284.158688 170.257862 
z
" clip-path="url(#paaa1462f4f)" style="opacity: 0.7"/>
   </g>
   <g id="patch_104">
    <path d="M 287.957933 268.62729 
L 288.373882 268.62729 
L 288.373882 227.031371 
L 287.957933 227.031371 
z
" clip-path="url(#paaa1462f4f)" style="opacity: 0.7"/>
   </g>
   <g id="patch_105">
    <path d="M 292.842677 268.62729 
L 293.258627 268.62729 
L 293.258627 240.557667 
L 292.842677 240.557667 
z
" clip-path="url(#paaa1462f4f)" style="opacity: 0.7"/>
   </g>
   <g id="patch_106">
    <path d="M 299.898419 268.62729 
L 300.314368 268.62729 
L 300.314368 169.297842 
L 299.898419 169.297842 
z
" clip-path="url(#paaa1462f4f)" style="opacity: 0.7"/>
   </g>
   <g id="patch_107">
    <path d="M 302.612166 268.62729 
L 303.028115 268.62729 
L 303.028115 208.929865 
L 302.612166 208.929865 
z
" clip-path="url(#paaa1462f4f)" style="opacity: 0.7"/>
   </g>
   <g id="patch_108">
    <path d="M 307.49691 268.62729 
L 307.912859 268.62729 
L 307.912859 242.338571 
L 307.49691 242.338571 
z
" clip-path="url(#paaa1462f4f)" style="opacity: 0.7"/>
   </g>
   <g id="patch_109">
    <path d="M 309.125158 268.62729 
L 309.541107 268.62729 
L 309.541107 239.473111 
L 309.125158 239.473111 
z
" clip-path="url(#paaa1462f4f)" style="opacity: 0.7"/>
   </g>
   <g id="patch_110">
    <path d="M 311.296156 268.62729 
L 311.712105 268.62729 
L 311.712105 248.050764 
L 311.296156 248.050764 
z
" clip-path="url(#paaa1462f4f)" style="opacity: 0.7"/>
   </g>
   <g id="patch_111">
    <path d="M 314.009903 268.62729 
L 314.425852 268.62729 
L 314.425852 247.645337 
L 314.009903 247.645337 
z
" clip-path="url(#paaa1462f4f)" style="opacity: 0.7"/>
   </g>
   <g id="patch_112">
    <path d="M 319.437396 268.62729 
L 319.853345 268.62729 
L 319.853345 226.340168 
L 319.437396 226.340168 
z
" clip-path="url(#paaa1462f4f)" style="opacity: 0.7"/>
   </g>
   <g id="patch_113">
    <path d="M 323.779391 268.62729 
L 324.19534 268.62729 
L 324.19534 261.389136 
L 323.779391 261.389136 
z
" clip-path="url(#paaa1462f4f)" style="opacity: 0.7"/>
   </g>
   <g id="patch_114">
    <path d="M 328.664135 268.62729 
L 329.080084 268.62729 
L 329.080084 95.260094 
L 328.664135 95.260094 
z
" clip-path="url(#paaa1462f4f)" style="opacity: 0.7"/>
   </g>
   <g id="patch_115">
    <path d="M 330.835133 268.62729 
L 331.251082 268.62729 
L 331.251082 250.564454 
L 330.835133 250.564454 
z
" clip-path="url(#paaa1462f4f)" style="opacity: 0.7"/>
   </g>
   <g id="patch_116">
    <path d="M 336.805376 268.62729 
L 337.221325 268.62729 
L 337.221325 239.482327 
L 336.805376 239.482327 
z
" clip-path="url(#paaa1462f4f)" style="opacity: 0.7"/>
   </g>
   <g id="patch_117">
    <path d="M 338.976373 268.62729 
L 339.392322 268.62729 
L 339.392322 262.576431 
L 338.976373 262.576431 
z
" clip-path="url(#paaa1462f4f)" style="opacity: 0.7"/>
   </g>
   <g id="patch_118">
    <path d="M 341.147371 268.62729 
L 341.56332 268.62729 
L 341.56332 265.759508 
L 341.147371 265.759508 
z
" clip-path="url(#paaa1462f4f)" style="opacity: 0.7"/>
   </g>
   <g id="patch_119">
    <path d="M 343.861117 268.62729 
L 344.277066 268.62729 
L 344.277066 201.178035 
L 343.861117 201.178035 
z
" clip-path="url(#paaa1462f4f)" style="opacity: 0.7"/>
   </g>
   <g id="patch_120">
    <path d="M 347.660363 268.62729 
L 348.076312 268.62729 
L 348.076312 266.236409 
L 347.660363 266.236409 
z
" clip-path="url(#paaa1462f4f)" style="opacity: 0.7"/>
   </g>
   <g id="patch_121">
    <path d="M 350.916859 268.62729 
L 351.332808 268.62729 
L 351.332808 228.099433 
L 350.916859 228.099433 
z
" clip-path="url(#paaa1462f4f)" style="opacity: 0.7"/>
   </g>
   <g id="patch_122">
    <path d="M 353.087857 268.62729 
L 353.503806 268.62729 
L 353.503806 244.625665 
L 353.087857 244.625665 
z
" clip-path="url(#paaa1462f4f)" style="opacity: 0.7"/>
   </g>
   <g id="patch_123">
    <path d="M 357.429851 268.62729 
L 357.8458 268.62729 
L 357.8458 236.374891 
L 357.429851 236.374891 
z
" clip-path="url(#paaa1462f4f)" style="opacity: 0.7"/>
   </g>
   <g id="patch_124">
    <path d="M 361.229097 268.62729 
L 361.645046 268.62729 
L 361.645046 265.407177 
L 361.229097 265.407177 
z
" clip-path="url(#paaa1462f4f)" style="opacity: 0.7"/>
   </g>
   <g id="patch_125">
    <path d="M 362.857345 268.62729 
L 363.273294 268.62729 
L 363.273294 265.826176 
L 362.857345 265.826176 
z
" clip-path="url(#paaa1462f4f)" style="opacity: 0.7"/>
   </g>
   <g id="patch_126">
    <path d="M 367.19934 268.62729 
L 367.615289 268.62729 
L 367.615289 232.083993 
L 367.19934 232.083993 
z
" clip-path="url(#paaa1462f4f)" style="opacity: 0.7"/>
   </g>
   <g id="patch_127">
    <path d="M 372.626834 268.62729 
L 373.042783 268.62729 
L 373.042783 268.348162 
L 372.626834 268.348162 
z
" clip-path="url(#paaa1462f4f)" style="opacity: 0.7"/>
   </g>
   <g id="patch_128">
    <path d="M 373.712332 268.62729 
L 374.128281 268.62729 
L 374.128281 268.374026 
L 373.712332 268.374026 
z
" clip-path="url(#paaa1462f4f)" style="opacity: 0.7"/>
   </g>
   <g id="patch_129">
    <path d="M 376.426079 268.62729 
L 376.842028 268.62729 
L 376.842028 262.531901 
L 376.426079 262.531901 
z
" clip-path="url(#paaa1462f4f)" style="opacity: 0.7"/>
   </g>
   <g id="patch_130">
    <path d="M 378.597077 268.62729 
L 379.013026 268.62729 
L 379.013026 233.19732 
L 378.597077 233.19732 
z
" clip-path="url(#paaa1462f4f)" style="opacity: 0.7"/>
   </g>
   <g id="patch_131">
    <path d="M 381.853573 268.62729 
L 382.269522 268.62729 
L 382.269522 242.699039 
L 381.853573 242.699039 
z
" clip-path="url(#paaa1462f4f)" style="opacity: 0.7"/>
   </g>
   <g id="patch_132">
    <path d="M 383.481821 268.62729 
L 383.89777 268.62729 
L 383.89777 245.407691 
L 383.481821 245.407691 
z
" clip-path="url(#paaa1462f4f)" style="opacity: 0.7"/>
   </g>
   <g id="patch_133">
    <path d="M 387.281066 268.62729 
L 387.697015 268.62729 
L 387.697015 266.044335 
L 387.281066 266.044335 
z
" clip-path="url(#paaa1462f4f)" style="opacity: 0.7"/>
   </g>
   <g id="patch_134">
    <path d="M 389.452064 268.62729 
L 389.868013 268.62729 
L 389.868013 184.02511 
L 389.452064 184.02511 
z
" clip-path="url(#paaa1462f4f)" style="opacity: 0.7"/>
   </g>
   <g id="patch_135">
    <path d="M 395.422307 268.62729 
L 395.838256 268.62729 
L 395.838256 268.095663 
L 395.422307 268.095663 
z
" clip-path="url(#paaa1462f4f)" style="opacity: 0.7"/>
   </g>
   <g id="patch_136">
    <path d="M 398.136054 268.62729 
L 398.552003 268.62729 
L 398.552003 233.556322 
L 398.136054 233.556322 
z
" clip-path="url(#paaa1462f4f)" style="opacity: 0.7"/>
   </g>
   <g id="patch_137">
    <path d="M 404.649046 268.62729 
L 405.064995 268.62729 
L 405.064995 267.571248 
L 404.649046 267.571248 
z
" clip-path="url(#paaa1462f4f)" style="opacity: 0.7"/>
   </g>
   <g id="patch_138">
    <path d="M 406.820043 268.62729 
L 407.235992 268.62729 
L 407.235992 253.450863 
L 406.820043 253.450863 
z
" clip-path="url(#paaa1462f4f)" style="opacity: 0.7"/>
   </g>
   <g id="patch_139">
    <path d="M 410.619289 268.62729 
L 411.035238 268.62729 
L 411.035238 267.066555 
L 410.619289 267.066555 
z
" clip-path="url(#paaa1462f4f)" style="opacity: 0.7"/>
   </g>
   <g id="patch_140">
    <path d="M 413.333036 268.62729 
L 413.748985 268.62729 
L 413.748985 225.297226 
L 413.333036 225.297226 
z
" clip-path="url(#paaa1462f4f)" style="opacity: 0.7"/>
   </g>
   <g id="patch_141">
    <path d="M 415.504033 268.62729 
L 415.919982 268.62729 
L 415.919982 256.01858 
L 415.504033 256.01858 
z
" clip-path="url(#paaa1462f4f)" style="opacity: 0.7"/>
   </g>
   <g id="patch_142">
    <path d="M 418.760529 268.62729 
L 419.176478 268.62729 
L 419.176478 266.94864 
L 418.760529 266.94864 
z
" clip-path="url(#paaa1462f4f)" style="opacity: 0.7"/>
   </g>
   <g id="patch_143">
    <path d="M 422.017025 268.62729 
L 422.432974 268.62729 
L 422.432974 188.258098 
L 422.017025 188.258098 
z
" clip-path="url(#paaa1462f4f)" style="opacity: 0.7"/>
   </g>
   <g id="patch_144">
    <path d="M 215.631913 268.62729 
L 216.255837 268.62729 
L 216.255837 265.702338 
L 215.631913 265.702338 
z
" clip-path="url(#paaa1462f4f)" style="fill: #ff0000"/>
   </g>
   <g id="patch_145">
    <path d="M 219.26606 268.62729 
L 219.889983 268.62729 
L 219.889983 263.98393 
L 219.26606 263.98393 
z
" clip-path="url(#paaa1462f4f)" style="fill: #ff0000"/>
   </g>
   <g id="patch_146">
    <path d="M 223.141041 268.62729 
L 223.764965 268.62729 
L 223.764965 263.686431 
L 223.141041 263.686431 
z
" clip-path="url(#paaa1462f4f)" style="fill: #ff0000"/>
   </g>
   <g id="patch_147">
    <path d="M 235.923572 268.62729 
L 236.547495 268.62729 
L 236.547495 254.559364 
L 235.923572 254.559364 
z
" clip-path="url(#paaa1462f4f)" style="fill: #ff0000"/>
   </g>
   <g id="patch_148">
    <path d="M 235.923572 268.62729 
L 236.547495 268.62729 
L 236.547495 260.578473 
L 235.923572 260.578473 
z
" clip-path="url(#paaa1462f4f)" style="fill: #ff0000"/>
   </g>
   <g id="patch_149">
    <path d="M 235.923572 268.62729 
L 236.547495 268.62729 
L 236.547495 260.692943 
L 235.923572 260.692943 
z
" clip-path="url(#paaa1462f4f)" style="fill: #ff0000"/>
   </g>
   <g id="patch_150">
    <path d="M 235.923572 268.62729 
L 236.547495 268.62729 
L 236.547495 249.484297 
L 235.923572 249.484297 
z
" clip-path="url(#paaa1462f4f)" style="fill: #ff0000"/>
   </g>
   <g id="patch_151">
    <path d="M 235.923572 268.62729 
L 236.547495 268.62729 
L 236.547495 242.257461 
L 235.923572 242.257461 
z
" clip-path="url(#paaa1462f4f)" style="fill: #ff0000"/>
   </g>
   <g id="patch_152">
    <path d="M 235.923572 268.62729 
L 236.547495 268.62729 
L 236.547495 252.690394 
L 235.923572 252.690394 
z
" clip-path="url(#paaa1462f4f)" style="fill: #ff0000"/>
   </g>
   <g id="patch_153">
    <path d="M 235.923572 268.62729 
L 236.547495 268.62729 
L 236.547495 252.591268 
L 235.923572 252.591268 
z
" clip-path="url(#paaa1462f4f)" style="fill: #ff0000"/>
   </g>
   <g id="patch_154">
    <path d="M 237.507922 268.62729 
L 238.131845 268.62729 
L 238.131845 262.559821 
L 237.507922 262.559821 
z
" clip-path="url(#paaa1462f4f)" style="fill: #ff0000"/>
   </g>
   <g id="patch_155">
    <path d="M 237.507922 268.62729 
L 238.131845 268.62729 
L 238.131845 264.029593 
L 237.507922 264.029593 
z
" clip-path="url(#paaa1462f4f)" style="fill: #ff0000"/>
   </g>
   <g id="patch_156">
    <path d="M 237.507922 268.62729 
L 238.131845 268.62729 
L 238.131845 264.003943 
L 237.507922 264.003943 
z
" clip-path="url(#paaa1462f4f)" style="fill: #ff0000"/>
   </g>
   <g id="patch_157">
    <path d="M 237.507922 268.62729 
L 238.131845 268.62729 
L 238.131845 265.665405 
L 237.507922 265.665405 
z
" clip-path="url(#paaa1462f4f)" style="fill: #ff0000"/>
   </g>
   <g id="patch_158">
    <path d="M 237.507922 268.62729 
L 238.131845 268.62729 
L 238.131845 266.668307 
L 237.507922 266.668307 
z
" clip-path="url(#paaa1462f4f)" style="fill: #ff0000"/>
   </g>
   <g id="patch_159">
    <path d="M 237.507922 268.62729 
L 238.131845 268.62729 
L 238.131845 266.513239 
L 237.507922 266.513239 
z
" clip-path="url(#paaa1462f4f)" style="fill: #ff0000"/>
   </g>
   <g id="patch_160">
    <path d="M 237.507922 268.62729 
L 238.131845 268.62729 
L 238.131845 267.631932 
L 237.507922 267.631932 
z
" clip-path="url(#paaa1462f4f)" style="fill: #ff0000"/>
   </g>
   <g id="patch_161">
    <path d="M 237.507922 268.62729 
L 238.131845 268.62729 
L 238.131845 266.633582 
L 237.507922 266.633582 
z
" clip-path="url(#paaa1462f4f)" style="fill: #ff0000"/>
   </g>
   <g id="patch_162">
    <path d="M 237.507922 268.62729 
L 238.131845 268.62729 
L 238.131845 262.720265 
L 237.507922 262.720265 
z
" clip-path="url(#paaa1462f4f)" style="fill: #ff0000"/>
   </g>
   <g id="patch_163">
    <path d="M 237.507922 268.62729 
L 238.131845 268.62729 
L 238.131845 251.06604 
L 237.507922 251.06604 
z
" clip-path="url(#paaa1462f4f)" style="fill: #ff0000"/>
   </g>
   <g id="patch_164">
    <path d="M 237.507922 268.62729 
L 238.131845 268.62729 
L 238.131845 266.607749 
L 237.507922 266.607749 
z
" clip-path="url(#paaa1462f4f)" style="fill: #ff0000"/>
   </g>
   <g id="patch_165">
    <path d="M 237.507922 268.62729 
L 238.131845 268.62729 
L 238.131845 259.900157 
L 237.507922 259.900157 
z
" clip-path="url(#paaa1462f4f)" style="fill: #ff0000"/>
   </g>
   <g id="patch_166">
    <path d="M 237.507922 268.62729 
L 238.131845 268.62729 
L 238.131845 262.378422 
L 237.507922 262.378422 
z
" clip-path="url(#paaa1462f4f)" style="fill: #ff0000"/>
   </g>
   <g id="patch_167">
    <path d="M 237.507922 268.62729 
L 238.131845 268.62729 
L 238.131845 264.536793 
L 237.507922 264.536793 
z
" clip-path="url(#paaa1462f4f)" style="fill: #ff0000"/>
   </g>
   <g id="patch_168">
    <path d="M 237.507922 268.62729 
L 238.131845 268.62729 
L 238.131845 263.335176 
L 237.507922 263.335176 
z
" clip-path="url(#paaa1462f4f)" style="fill: #ff0000"/>
   </g>
   <g id="patch_169">
    <path d="M 237.507922 268.62729 
L 238.131845 268.62729 
L 238.131845 263.900578 
L 237.507922 263.900578 
z
" clip-path="url(#paaa1462f4f)" style="fill: #ff0000"/>
   </g>
   <g id="patch_170">
    <path d="M 245.451717 268.62729 
L 246.075641 268.62729 
L 246.075641 252.670511 
L 245.451717 252.670511 
z
" clip-path="url(#paaa1462f4f)" style="fill: #ff0000"/>
   </g>
   <g id="patch_171">
    <path d="M 245.451717 268.62729 
L 246.075641 268.62729 
L 246.075641 257.636458 
L 245.451717 257.636458 
z
" clip-path="url(#paaa1462f4f)" style="fill: #ff0000"/>
   </g>
   <g id="patch_172">
    <path d="M 245.451717 268.62729 
L 246.075641 268.62729 
L 246.075641 66.96 
L 245.451717 66.96 
z
" clip-path="url(#paaa1462f4f)" style="fill: #ff0000"/>
   </g>
   <g id="patch_173">
    <path d="M 247.025876 268.62729 
L 247.6498 268.62729 
L 247.6498 265.838702 
L 247.025876 265.838702 
z
" clip-path="url(#paaa1462f4f)" style="fill: #ff0000"/>
   </g>
   <g id="patch_174">
    <path d="M 257.871748 268.62729 
L 258.495672 268.62729 
L 258.495672 253.483055 
L 257.871748 253.483055 
z
" clip-path="url(#paaa1462f4f)" style="fill: #ff0000"/>
   </g>
   <g id="patch_175">
    <path d="M 257.871748 268.62729 
L 258.495672 268.62729 
L 258.495672 228.079999 
L 257.871748 228.079999 
z
" clip-path="url(#paaa1462f4f)" style="fill: #ff0000"/>
   </g>
   <g id="patch_176">
    <path d="M 257.871748 268.62729 
L 258.495672 268.62729 
L 258.495672 249.409756 
L 257.871748 249.409756 
z
" clip-path="url(#paaa1462f4f)" style="fill: #ff0000"/>
   </g>
   <g id="patch_177">
    <path d="M 267.76572 268.62729 
L 268.389644 268.62729 
L 268.389644 264.123221 
L 267.76572 264.123221 
z
" clip-path="url(#paaa1462f4f)" style="fill: #ff0000"/>
   </g>
   <g id="patch_178">
    <path d="M 272.211592 268.62729 
L 272.835515 268.62729 
L 272.835515 265.495467 
L 272.211592 265.495467 
z
" clip-path="url(#paaa1462f4f)" style="fill: #ff0000"/>
   </g>
   <g id="patch_179">
    <path d="M 277.927564 268.62729 
L 278.551487 268.62729 
L 278.551487 263.451422 
L 277.927564 263.451422 
z
" clip-path="url(#paaa1462f4f)" style="fill: #ff0000"/>
   </g>
   <g id="patch_180">
    <path d="M 285.907339 268.62729 
L 286.531262 268.62729 
L 286.531262 247.359891 
L 285.907339 247.359891 
z
" clip-path="url(#paaa1462f4f)" style="fill: #ff0000"/>
   </g>
   <g id="patch_181">
    <path d="M 288.195266 268.62729 
L 288.81919 268.62729 
L 288.81919 220.987083 
L 288.195266 220.987083 
z
" clip-path="url(#paaa1462f4f)" style="fill: #ff0000"/>
   </g>
   <g id="patch_182">
    <path d="M 299.357675 268.62729 
L 299.981599 268.62729 
L 299.981599 247.39753 
L 299.357675 247.39753 
z
" clip-path="url(#paaa1462f4f)" style="fill: #ff0000"/>
   </g>
   <g id="patch_183">
    <path d="M 299.357675 268.62729 
L 299.981599 268.62729 
L 299.981599 258.123184 
L 299.357675 258.123184 
z
" clip-path="url(#paaa1462f4f)" style="fill: #ff0000"/>
   </g>
   <g id="patch_184">
    <path d="M 299.357675 268.62729 
L 299.981599 268.62729 
L 299.981599 261.998634 
L 299.357675 261.998634 
z
" clip-path="url(#paaa1462f4f)" style="fill: #ff0000"/>
   </g>
   <g id="patch_185">
    <path d="M 299.357675 268.62729 
L 299.981599 268.62729 
L 299.981599 254.030551 
L 299.357675 254.030551 
z
" clip-path="url(#paaa1462f4f)" style="fill: #ff0000"/>
   </g>
   <g id="patch_186">
    <path d="M 299.357675 268.62729 
L 299.981599 268.62729 
L 299.981599 261.230903 
L 299.357675 261.230903 
z
" clip-path="url(#paaa1462f4f)" style="fill: #ff0000"/>
   </g>
   <g id="patch_187">
    <path d="M 302.864958 268.62729 
L 303.488882 268.62729 
L 303.488882 212.34829 
L 302.864958 212.34829 
z
" clip-path="url(#paaa1462f4f)" style="fill: #ff0000"/>
   </g>
   <g id="patch_188">
    <path d="M 302.864958 268.62729 
L 303.488882 268.62729 
L 303.488882 232.666768 
L 302.864958 232.666768 
z
" clip-path="url(#paaa1462f4f)" style="fill: #ff0000"/>
   </g>
   <g id="patch_189">
    <path d="M 302.864958 268.62729 
L 303.488882 268.62729 
L 303.488882 207.036023 
L 302.864958 207.036023 
z
" clip-path="url(#paaa1462f4f)" style="fill: #ff0000"/>
   </g>
   <g id="patch_190">
    <path d="M 302.864958 268.62729 
L 303.488882 268.62729 
L 303.488882 132.828266 
L 302.864958 132.828266 
z
" clip-path="url(#paaa1462f4f)" style="fill: #ff0000"/>
   </g>
   <g id="patch_191">
    <path d="M 309.437577 268.62729 
L 310.061501 268.62729 
L 310.061501 257.65714 
L 309.437577 257.65714 
z
" clip-path="url(#paaa1462f4f)" style="fill: #ff0000"/>
   </g>
   <g id="patch_192">
    <path d="M 309.437577 268.62729 
L 310.061501 268.62729 
L 310.061501 259.983407 
L 309.437577 259.983407 
z
" clip-path="url(#paaa1462f4f)" style="fill: #ff0000"/>
   </g>
   <g id="patch_193">
    <path d="M 328.532135 268.62729 
L 329.156058 268.62729 
L 329.156058 170.257862 
L 328.532135 170.257862 
z
" clip-path="url(#paaa1462f4f)" style="fill: #ff0000"/>
   </g>
   <g id="patch_194">
    <path d="M 328.532135 268.62729 
L 329.156058 268.62729 
L 329.156058 227.031371 
L 328.532135 227.031371 
z
" clip-path="url(#paaa1462f4f)" style="fill: #ff0000"/>
   </g>
   <g id="patch_195">
    <path d="M 328.532135 268.62729 
L 329.156058 268.62729 
L 329.156058 240.557667 
L 328.532135 240.557667 
z
" clip-path="url(#paaa1462f4f)" style="fill: #ff0000"/>
   </g>
   <g id="patch_196">
    <path d="M 328.532135 268.62729 
L 329.156058 268.62729 
L 329.156058 169.297842 
L 328.532135 169.297842 
z
" clip-path="url(#paaa1462f4f)" style="fill: #ff0000"/>
   </g>
   <g id="patch_197">
    <path d="M 328.532135 268.62729 
L 329.156058 268.62729 
L 329.156058 208.929865 
L 328.532135 208.929865 
z
" clip-path="url(#paaa1462f4f)" style="fill: #ff0000"/>
   </g>
   <g id="patch_198">
    <path d="M 343.833445 268.62729 
L 344.457368 268.62729 
L 344.457368 242.338571 
L 343.833445 242.338571 
z
" clip-path="url(#paaa1462f4f)" style="fill: #ff0000"/>
   </g>
   <g id="patch_199">
    <path d="M 343.833445 268.62729 
L 344.457368 268.62729 
L 344.457368 239.473111 
L 343.833445 239.473111 
z
" clip-path="url(#paaa1462f4f)" style="fill: #ff0000"/>
   </g>
   <g id="patch_200">
    <path d="M 343.833445 268.62729 
L 344.457368 268.62729 
L 344.457368 248.050764 
L 343.833445 248.050764 
z
" clip-path="url(#paaa1462f4f)" style="fill: #ff0000"/>
   </g>
   <g id="patch_201">
    <path d="M 343.833445 268.62729 
L 344.457368 268.62729 
L 344.457368 247.645337 
L 343.833445 247.645337 
z
" clip-path="url(#paaa1462f4f)" style="fill: #ff0000"/>
   </g>
   <g id="patch_202">
    <path d="M 357.250922 268.62729 
L 357.874845 268.62729 
L 357.874845 226.340168 
L 357.250922 226.340168 
z
" clip-path="url(#paaa1462f4f)" style="fill: #ff0000"/>
   </g>
   <g id="patch_203">
    <path d="M 367.303163 268.62729 
L 367.927086 268.62729 
L 367.927086 261.389136 
L 367.303163 261.389136 
z
" clip-path="url(#paaa1462f4f)" style="fill: #ff0000"/>
   </g>
   <g id="patch_204">
    <path d="M 367.303163 268.62729 
L 367.927086 268.62729 
L 367.927086 95.260094 
L 367.303163 95.260094 
z
" clip-path="url(#paaa1462f4f)" style="fill: #ff0000"/>
   </g>
   <g id="patch_205">
    <path d="M 367.303163 268.62729 
L 367.927086 268.62729 
L 367.927086 250.564454 
L 367.303163 250.564454 
z
" clip-path="url(#paaa1462f4f)" style="fill: #ff0000"/>
   </g>
   <g id="patch_206">
    <path d="M 367.303163 268.62729 
L 367.927086 268.62729 
L 367.927086 239.482327 
L 367.303163 239.482327 
z
" clip-path="url(#paaa1462f4f)" style="fill: #ff0000"/>
   </g>
   <g id="patch_207">
    <path d="M 367.303163 268.62729 
L 367.927086 268.62729 
L 367.927086 262.576431 
L 367.303163 262.576431 
z
" clip-path="url(#paaa1462f4f)" style="fill: #ff0000"/>
   </g>
   <g id="patch_208">
    <path d="M 367.303163 268.62729 
L 367.927086 268.62729 
L 367.927086 265.759508 
L 367.303163 265.759508 
z
" clip-path="url(#paaa1462f4f)" style="fill: #ff0000"/>
   </g>
   <g id="patch_209">
    <path d="M 381.646542 268.62729 
L 382.270466 268.62729 
L 382.270466 201.178035 
L 381.646542 201.178035 
z
" clip-path="url(#paaa1462f4f)" style="fill: #ff0000"/>
   </g>
   <g id="patch_210">
    <path d="M 381.646542 268.62729 
L 382.270466 268.62729 
L 382.270466 266.236409 
L 381.646542 266.236409 
z
" clip-path="url(#paaa1462f4f)" style="fill: #ff0000"/>
   </g>
   <g id="patch_211">
    <path d="M 381.646542 268.62729 
L 382.270466 268.62729 
L 382.270466 228.099433 
L 381.646542 228.099433 
z
" clip-path="url(#paaa1462f4f)" style="fill: #ff0000"/>
   </g>
   <g id="patch_212">
    <path d="M 381.646542 268.62729 
L 382.270466 268.62729 
L 382.270466 244.625665 
L 381.646542 244.625665 
z
" clip-path="url(#paaa1462f4f)" style="fill: #ff0000"/>
   </g>
   <g id="patch_213">
    <path d="M 413.465813 268.62729 
L 414.089737 268.62729 
L 414.089737 236.374891 
L 413.465813 236.374891 
z
" clip-path="url(#paaa1462f4f)" style="fill: #ff0000"/>
   </g>
   <g id="patch_214">
    <path d="M 422.214678 268.62729 
L 422.838601 268.62729 
L 422.838601 265.407177 
L 422.214678 265.407177 
z
" clip-path="url(#paaa1462f4f)" style="fill: #ff0000"/>
   </g>
   <g id="patch_215">
    <path d="M 422.214678 268.62729 
L 422.838601 268.62729 
L 422.838601 265.826176 
L 422.214678 265.826176 
z
" clip-path="url(#paaa1462f4f)" style="fill: #ff0000"/>
   </g>
   <g id="patch_216">
    <path d="M 422.214678 268.62729 
L 422.838601 268.62729 
L 422.838601 232.083993 
L 422.214678 232.083993 
z
" clip-path="url(#paaa1462f4f)" style="fill: #ff0000"/>
   </g>
   <g id="patch_217">
    <path d="M 422.214678 268.62729 
L 422.838601 268.62729 
L 422.838601 268.348162 
L 422.214678 268.348162 
z
" clip-path="url(#paaa1462f4f)" style="fill: #ff0000"/>
   </g>
   <g id="patch_218">
    <path d="M 422.214678 268.62729 
L 422.838601 268.62729 
L 422.838601 268.374026 
L 422.214678 268.374026 
z
" clip-path="url(#paaa1462f4f)" style="fill: #ff0000"/>
   </g>
   <g id="patch_219">
    <path d="M 422.214678 268.62729 
L 422.838601 268.62729 
L 422.838601 262.531901 
L 422.214678 262.531901 
z
" clip-path="url(#paaa1462f4f)" style="fill: #ff0000"/>
   </g>
   <g id="patch_220">
    <path d="M 441.711666 268.62729 
L 442.33559 268.62729 
L 442.33559 233.19732 
L 441.711666 233.19732 
z
" clip-path="url(#paaa1462f4f)" style="fill: #ff0000"/>
   </g>
   <g id="patch_221">
    <path d="M 441.711666 268.62729 
L 442.33559 268.62729 
L 442.33559 242.699039 
L 441.711666 242.699039 
z
" clip-path="url(#paaa1462f4f)" style="fill: #ff0000"/>
   </g>
   <g id="patch_222">
    <path d="M 441.711666 268.62729 
L 442.33559 268.62729 
L 442.33559 245.407691 
L 441.711666 245.407691 
z
" clip-path="url(#paaa1462f4f)" style="fill: #ff0000"/>
   </g>
   <g id="patch_223">
    <path d="M 451.353157 268.62729 
L 451.977081 268.62729 
L 451.977081 266.044335 
L 451.353157 266.044335 
z
" clip-path="url(#paaa1462f4f)" style="fill: #ff0000"/>
   </g>
   <g id="patch_224">
    <path d="M 467.938294 268.62729 
L 468.562218 268.62729 
L 468.562218 184.02511 
L 467.938294 184.02511 
z
" clip-path="url(#paaa1462f4f)" style="fill: #ff0000"/>
   </g>
   <g id="patch_225">
    <path d="M 467.938294 268.62729 
L 468.562218 268.62729 
L 468.562218 268.095663 
L 467.938294 268.095663 
z
" clip-path="url(#paaa1462f4f)" style="fill: #ff0000"/>
   </g>
   <g id="patch_226">
    <path d="M 467.938294 268.62729 
L 468.562218 268.62729 
L 468.562218 233.556322 
L 467.938294 233.556322 
z
" clip-path="url(#paaa1462f4f)" style="fill: #ff0000"/>
   </g>
   <g id="patch_227">
    <path d="M 467.938294 268.62729 
L 468.562218 268.62729 
L 468.562218 267.571248 
L 467.938294 267.571248 
z
" clip-path="url(#paaa1462f4f)" style="fill: #ff0000"/>
   </g>
   <g id="patch_228">
    <path d="M 467.938294 268.62729 
L 468.562218 268.62729 
L 468.562218 253.450863 
L 467.938294 253.450863 
z
" clip-path="url(#paaa1462f4f)" style="fill: #ff0000"/>
   </g>
   <g id="patch_229">
    <path d="M 467.938294 268.62729 
L 468.562218 268.62729 
L 468.562218 267.066555 
L 467.938294 267.066555 
z
" clip-path="url(#paaa1462f4f)" style="fill: #ff0000"/>
   </g>
   <g id="patch_230">
    <path d="M 467.938294 268.62729 
L 468.562218 268.62729 
L 468.562218 225.297226 
L 467.938294 225.297226 
z
" clip-path="url(#paaa1462f4f)" style="fill: #ff0000"/>
   </g>
   <g id="patch_231">
    <path d="M 467.938294 268.62729 
L 468.562218 268.62729 
L 468.562218 256.01858 
L 467.938294 256.01858 
z
" clip-path="url(#paaa1462f4f)" style="fill: #ff0000"/>
   </g>
   <g id="patch_232">
    <path d="M 483.542831 268.62729 
L 484.166755 268.62729 
L 484.166755 266.94864 
L 483.542831 266.94864 
z
" clip-path="url(#paaa1462f4f)" style="fill: #ff0000"/>
   </g>
   <g id="patch_233">
    <path d="M 620.556618 268.62729 
L 621.180542 268.62729 
L 621.180542 188.258098 
L 620.556618 188.258098 
z
" clip-path="url(#paaa1462f4f)" style="fill: #ff0000"/>
   </g>
   <g id="matplotlib.axis_1">
    <g id="xtick_1">
     <g id="line2d_1">
      <defs>
       <path id="m6509f47bd7" d="M 0 0 
L 0 3.5 
" style="stroke: #000000; stroke-width: 0.8"/>
      </defs>
      <g>
       <use xlink:href="#m6509f47bd7" x="126.489246" y="384.48" style="stroke: #000000; stroke-width: 0.8"/>
      </g>
     </g>
     <g id="text_1">
      <!-- 3500 -->
      <g transform="translate(113.764246 399.078438) scale(0.1 -0.1)">
       <defs>
        <path id="DejaVuSans-33" d="M 2597 2516 
Q 3050 2419 3304 2112 
Q 3559 1806 3559 1356 
Q 3559 666 3084 287 
Q 2609 -91 1734 -91 
Q 1441 -91 1130 -33 
Q 819 25 488 141 
L 488 750 
Q 750 597 1062 519 
Q 1375 441 1716 441 
Q 2309 441 2620 675 
Q 2931 909 2931 1356 
Q 2931 1769 2642 2001 
Q 2353 2234 1838 2234 
L 1294 2234 
L 1294 2753 
L 1863 2753 
Q 2328 2753 2575 2939 
Q 2822 3125 2822 3475 
Q 2822 3834 2567 4026 
Q 2313 4219 1838 4219 
Q 1578 4219 1281 4162 
Q 984 4106 628 3988 
L 628 4550 
Q 988 4650 1302 4700 
Q 1616 4750 1894 4750 
Q 2613 4750 3031 4423 
Q 3450 4097 3450 3541 
Q 3450 3153 3228 2886 
Q 3006 2619 2597 2516 
z
" transform="scale(0.015625)"/>
        <path id="DejaVuSans-35" d="M 691 4666 
L 3169 4666 
L 3169 4134 
L 1269 4134 
L 1269 2991 
Q 1406 3038 1543 3061 
Q 1681 3084 1819 3084 
Q 2600 3084 3056 2656 
Q 3513 2228 3513 1497 
Q 3513 744 3044 326 
Q 2575 -91 1722 -91 
Q 1428 -91 1123 -41 
Q 819 9 494 109 
L 494 744 
Q 775 591 1075 516 
Q 1375 441 1709 441 
Q 2250 441 2565 725 
Q 2881 1009 2881 1497 
Q 2881 1984 2565 2268 
Q 2250 2553 1709 2553 
Q 1456 2553 1204 2497 
Q 953 2441 691 2322 
L 691 4666 
z
" transform="scale(0.015625)"/>
        <path id="DejaVuSans-30" d="M 2034 4250 
Q 1547 4250 1301 3770 
Q 1056 3291 1056 2328 
Q 1056 1369 1301 889 
Q 1547 409 2034 409 
Q 2525 409 2770 889 
Q 3016 1369 3016 2328 
Q 3016 3291 2770 3770 
Q 2525 4250 2034 4250 
z
M 2034 4750 
Q 2819 4750 3233 4129 
Q 3647 3509 3647 2328 
Q 3647 1150 3233 529 
Q 2819 -91 2034 -91 
Q 1250 -91 836 529 
Q 422 1150 422 2328 
Q 422 3509 836 4129 
Q 1250 4750 2034 4750 
z
" transform="scale(0.015625)"/>
       </defs>
       <use xlink:href="#DejaVuSans-33"/>
       <use xlink:href="#DejaVuSans-35" x="63.623047"/>
       <use xlink:href="#DejaVuSans-30" x="127.246094"/>
       <use xlink:href="#DejaVuSans-30" x="190.869141"/>
      </g>
     </g>
    </g>
    <g id="xtick_2">
     <g id="line2d_2">
      <g>
       <use xlink:href="#m6509f47bd7" x="230.476511" y="384.48" style="stroke: #000000; stroke-width: 0.8"/>
      </g>
     </g>
     <g id="text_2">
      <!-- 4000 -->
      <g transform="translate(217.751511 399.078438) scale(0.1 -0.1)">
       <defs>
        <path id="DejaVuSans-34" d="M 2419 4116 
L 825 1625 
L 2419 1625 
L 2419 4116 
z
M 2253 4666 
L 3047 4666 
L 3047 1625 
L 3713 1625 
L 3713 1100 
L 3047 1100 
L 3047 0 
L 2419 0 
L 2419 1100 
L 313 1100 
L 313 1709 
L 2253 4666 
z
" transform="scale(0.015625)"/>
       </defs>
       <use xlink:href="#DejaVuSans-34"/>
       <use xlink:href="#DejaVuSans-30" x="63.623047"/>
       <use xlink:href="#DejaVuSans-30" x="127.246094"/>
       <use xlink:href="#DejaVuSans-30" x="190.869141"/>
      </g>
     </g>
    </g>
    <g id="xtick_3">
     <g id="line2d_3">
      <g>
       <use xlink:href="#m6509f47bd7" x="334.463776" y="384.48" style="stroke: #000000; stroke-width: 0.8"/>
      </g>
     </g>
     <g id="text_3">
      <!-- 4500 -->
      <g transform="translate(321.738776 399.078438) scale(0.1 -0.1)">
       <use xlink:href="#DejaVuSans-34"/>
       <use xlink:href="#DejaVuSans-35" x="63.623047"/>
       <use xlink:href="#DejaVuSans-30" x="127.246094"/>
       <use xlink:href="#DejaVuSans-30" x="190.869141"/>
      </g>
     </g>
    </g>
    <g id="xtick_4">
     <g id="line2d_4">
      <g>
       <use xlink:href="#m6509f47bd7" x="438.451041" y="384.48" style="stroke: #000000; stroke-width: 0.8"/>
      </g>
     </g>
     <g id="text_4">
      <!-- 5000 -->
      <g transform="translate(425.726041 399.078438) scale(0.1 -0.1)">
       <use xlink:href="#DejaVuSans-35"/>
       <use xlink:href="#DejaVuSans-30" x="63.623047"/>
       <use xlink:href="#DejaVuSans-30" x="127.246094"/>
       <use xlink:href="#DejaVuSans-30" x="190.869141"/>
      </g>
     </g>
    </g>
    <g id="xtick_5">
     <g id="line2d_5">
      <g>
       <use xlink:href="#m6509f47bd7" x="542.438307" y="384.48" style="stroke: #000000; stroke-width: 0.8"/>
      </g>
     </g>
     <g id="text_5">
      <!-- 5500 -->
      <g transform="translate(529.713307 399.078438) scale(0.1 -0.1)">
       <use xlink:href="#DejaVuSans-35"/>
       <use xlink:href="#DejaVuSans-35" x="63.623047"/>
       <use xlink:href="#DejaVuSans-30" x="127.246094"/>
       <use xlink:href="#DejaVuSans-30" x="190.869141"/>
      </g>
     </g>
    </g>
    <g id="xtick_6">
     <g id="line2d_6">
      <g>
       <use xlink:href="#m6509f47bd7" x="646.425572" y="384.48" style="stroke: #000000; stroke-width: 0.8"/>
      </g>
     </g>
     <g id="text_6">
      <!-- 6000 -->
      <g transform="translate(633.700572 399.078438) scale(0.1 -0.1)">
       <defs>
        <path id="DejaVuSans-36" d="M 2113 2584 
Q 1688 2584 1439 2293 
Q 1191 2003 1191 1497 
Q 1191 994 1439 701 
Q 1688 409 2113 409 
Q 2538 409 2786 701 
Q 3034 994 3034 1497 
Q 3034 2003 2786 2293 
Q 2538 2584 2113 2584 
z
M 3366 4563 
L 3366 3988 
Q 3128 4100 2886 4159 
Q 2644 4219 2406 4219 
Q 1781 4219 1451 3797 
Q 1122 3375 1075 2522 
Q 1259 2794 1537 2939 
Q 1816 3084 2150 3084 
Q 2853 3084 3261 2657 
Q 3669 2231 3669 1497 
Q 3669 778 3244 343 
Q 2819 -91 2113 -91 
Q 1303 -91 875 529 
Q 447 1150 447 2328 
Q 447 3434 972 4092 
Q 1497 4750 2381 4750 
Q 2619 4750 2861 4703 
Q 3103 4656 3366 4563 
z
" transform="scale(0.015625)"/>
       </defs>
       <use xlink:href="#DejaVuSans-36"/>
       <use xlink:href="#DejaVuSans-30" x="63.623047"/>
       <use xlink:href="#DejaVuSans-30" x="127.246094"/>
       <use xlink:href="#DejaVuSans-30" x="190.869141"/>
      </g>
     </g>
    </g>
   </g>
   <g id="matplotlib.axis_2">
    <g id="ytick_1">
     <g id="line2d_7">
      <defs>
       <path id="m8d64b087b7" d="M 0 0 
L -3.5 0 
" style="stroke: #000000; stroke-width: 0.8"/>
      </defs>
      <g>
       <use xlink:href="#m8d64b087b7" x="90" y="349.294206" style="stroke: #000000; stroke-width: 0.8"/>
      </g>
     </g>
     <g id="text_7">
      <!-- 0.4 -->
      <g transform="translate(58.717187 353.093424) scale(0.1 -0.1)">
       <defs>
        <path id="DejaVuSans-2212" d="M 678 2272 
L 4684 2272 
L 4684 1741 
L 678 1741 
L 678 2272 
z
" transform="scale(0.015625)"/>
        <path id="DejaVuSans-2e" d="M 684 794 
L 1344 794 
L 1344 0 
L 684 0 
L 684 794 
z
" transform="scale(0.015625)"/>
       </defs>
       <use xlink:href="#DejaVuSans-2212"/>
       <use xlink:href="#DejaVuSans-30" x="83.789062"/>
       <use xlink:href="#DejaVuSans-2e" x="147.412109"/>
       <use xlink:href="#DejaVuSans-34" x="179.199219"/>
      </g>
     </g>
    </g>
    <g id="ytick_2">
     <g id="line2d_8">
      <g>
       <use xlink:href="#m8d64b087b7" x="90" y="308.960748" style="stroke: #000000; stroke-width: 0.8"/>
      </g>
     </g>
     <g id="text_8">
      <!-- 0.2 -->
      <g transform="translate(58.717187 312.759966) scale(0.1 -0.1)">
       <defs>
        <path id="DejaVuSans-32" d="M 1228 531 
L 3431 531 
L 3431 0 
L 469 0 
L 469 531 
Q 828 903 1448 1529 
Q 2069 2156 2228 2338 
Q 2531 2678 2651 2914 
Q 2772 3150 2772 3378 
Q 2772 3750 2511 3984 
Q 2250 4219 1831 4219 
Q 1534 4219 1204 4116 
Q 875 4013 500 3803 
L 500 4441 
Q 881 4594 1212 4672 
Q 1544 4750 1819 4750 
Q 2544 4750 2975 4387 
Q 3406 4025 3406 3419 
Q 3406 3131 3298 2873 
Q 3191 2616 2906 2266 
Q 2828 2175 2409 1742 
Q 1991 1309 1228 531 
z
" transform="scale(0.015625)"/>
       </defs>
       <use xlink:href="#DejaVuSans-2212"/>
       <use xlink:href="#DejaVuSans-30" x="83.789062"/>
       <use xlink:href="#DejaVuSans-2e" x="147.412109"/>
       <use xlink:href="#DejaVuSans-32" x="179.199219"/>
      </g>
     </g>
    </g>
    <g id="ytick_3">
     <g id="line2d_9">
      <g>
       <use xlink:href="#m8d64b087b7" x="90" y="268.62729" style="stroke: #000000; stroke-width: 0.8"/>
      </g>
     </g>
     <g id="text_9">
      <!-- 0.0 -->
      <g transform="translate(67.096875 272.426508) scale(0.1 -0.1)">
       <use xlink:href="#DejaVuSans-30"/>
       <use xlink:href="#DejaVuSans-2e" x="63.623047"/>
       <use xlink:href="#DejaVuSans-30" x="95.410156"/>
      </g>
     </g>
    </g>
    <g id="ytick_4">
     <g id="line2d_10">
      <g>
       <use xlink:href="#m8d64b087b7" x="90" y="228.293832" style="stroke: #000000; stroke-width: 0.8"/>
      </g>
     </g>
     <g id="text_10">
      <!-- 0.2 -->
      <g transform="translate(67.096875 232.093051) scale(0.1 -0.1)">
       <use xlink:href="#DejaVuSans-30"/>
       <use xlink:href="#DejaVuSans-2e" x="63.623047"/>
       <use xlink:href="#DejaVuSans-32" x="95.410156"/>
      </g>
     </g>
    </g>
    <g id="ytick_5">
     <g id="line2d_11">
      <g>
       <use xlink:href="#m8d64b087b7" x="90" y="187.960374" style="stroke: #000000; stroke-width: 0.8"/>
      </g>
     </g>
     <g id="text_11">
      <!-- 0.4 -->
      <g transform="translate(67.096875 191.759593) scale(0.1 -0.1)">
       <use xlink:href="#DejaVuSans-30"/>
       <use xlink:href="#DejaVuSans-2e" x="63.623047"/>
       <use xlink:href="#DejaVuSans-34" x="95.410156"/>
      </g>
     </g>
    </g>
    <g id="ytick_6">
     <g id="line2d_12">
      <g>
       <use xlink:href="#m8d64b087b7" x="90" y="147.626916" style="stroke: #000000; stroke-width: 0.8"/>
      </g>
     </g>
     <g id="text_12">
      <!-- 0.6 -->
      <g transform="translate(67.096875 151.426135) scale(0.1 -0.1)">
       <use xlink:href="#DejaVuSans-30"/>
       <use xlink:href="#DejaVuSans-2e" x="63.623047"/>
       <use xlink:href="#DejaVuSans-36" x="95.410156"/>
      </g>
     </g>
    </g>
    <g id="ytick_7">
     <g id="line2d_13">
      <g>
       <use xlink:href="#m8d64b087b7" x="90" y="107.293458" style="stroke: #000000; stroke-width: 0.8"/>
      </g>
     </g>
     <g id="text_13">
      <!-- 0.8 -->
      <g transform="translate(67.096875 111.092677) scale(0.1 -0.1)">
       <defs>
        <path id="DejaVuSans-38" d="M 2034 2216 
Q 1584 2216 1326 1975 
Q 1069 1734 1069 1313 
Q 1069 891 1326 650 
Q 1584 409 2034 409 
Q 2484 409 2743 651 
Q 3003 894 3003 1313 
Q 3003 1734 2745 1975 
Q 2488 2216 2034 2216 
z
M 1403 2484 
Q 997 2584 770 2862 
Q 544 3141 544 3541 
Q 544 4100 942 4425 
Q 1341 4750 2034 4750 
Q 2731 4750 3128 4425 
Q 3525 4100 3525 3541 
Q 3525 3141 3298 2862 
Q 3072 2584 2669 2484 
Q 3125 2378 3379 2068 
Q 3634 1759 3634 1313 
Q 3634 634 3220 271 
Q 2806 -91 2034 -91 
Q 1263 -91 848 271 
Q 434 634 434 1313 
Q 434 1759 690 2068 
Q 947 2378 1403 2484 
z
M 1172 3481 
Q 1172 3119 1398 2916 
Q 1625 2713 2034 2713 
Q 2441 2713 2670 2916 
Q 2900 3119 2900 3481 
Q 2900 3844 2670 4047 
Q 2441 4250 2034 4250 
Q 1625 4250 1398 4047 
Q 1172 3844 1172 3481 
z
" transform="scale(0.015625)"/>
       </defs>
       <use xlink:href="#DejaVuSans-30"/>
       <use xlink:href="#DejaVuSans-2e" x="63.623047"/>
       <use xlink:href="#DejaVuSans-38" x="95.410156"/>
      </g>
     </g>
    </g>
    <g id="ytick_8">
     <g id="line2d_14">
      <g>
       <use xlink:href="#m8d64b087b7" x="90" y="66.96" style="stroke: #000000; stroke-width: 0.8"/>
      </g>
     </g>
     <g id="text_14">
      <!-- 1.0 -->
      <g transform="translate(67.096875 70.759219) scale(0.1 -0.1)">
       <defs>
        <path id="DejaVuSans-31" d="M 794 531 
L 1825 531 
L 1825 4091 
L 703 3866 
L 703 4441 
L 1819 4666 
L 2450 4666 
L 2450 531 
L 3481 531 
L 3481 0 
L 794 0 
L 794 531 
z
" transform="scale(0.015625)"/>
       </defs>
       <use xlink:href="#DejaVuSans-31"/>
       <use xlink:href="#DejaVuSans-2e" x="63.623047"/>
       <use xlink:href="#DejaVuSans-30" x="95.410156"/>
      </g>
     </g>
    </g>
   </g>
   <g id="patch_234">
    <path d="M 90 384.48 
L 90 51.84 
" style="fill: none; stroke: #000000; stroke-width: 0.8; stroke-linejoin: miter; stroke-linecap: square"/>
   </g>
   <g id="patch_235">
    <path d="M 648 384.48 
L 648 51.84 
" style="fill: none; stroke: #000000; stroke-width: 0.8; stroke-linejoin: miter; stroke-linecap: square"/>
   </g>
   <g id="patch_236">
    <path d="M 90 384.48 
L 648 384.48 
" style="fill: none; stroke: #000000; stroke-width: 0.8; stroke-linejoin: miter; stroke-linecap: square"/>
   </g>
   <g id="patch_237">
    <path d="M 90 51.84 
L 648 51.84 
" style="fill: none; stroke: #000000; stroke-width: 0.8; stroke-linejoin: miter; stroke-linecap: square"/>
   </g>
   <g id="legend_1">
    <g id="patch_238">
     <path d="M 546.635937 103.874375 
L 641 103.874375 
Q 643 103.874375 643 101.874375 
L 643 58.84 
Q 643 56.84 641 56.84 
L 546.635937 56.84 
Q 544.635937 56.84 544.635937 58.84 
L 544.635937 101.874375 
Q 544.635937 103.874375 546.635937 103.874375 
z
" style="fill: #ffffff; opacity: 0.8; stroke: #cccccc; stroke-linejoin: miter"/>
    </g>
    <g id="patch_239">
     <path d="M 548.635937 68.438437 
L 568.635937 68.438437 
L 568.635937 61.438437 
L 548.635937 61.438437 
z
" style="fill: #0000ff; opacity: 0.7"/>
    </g>
    <g id="text_15">
     <!-- Teorico -->
     <g transform="translate(576.635937 68.438437) scale(0.1 -0.1)">
      <defs>
       <path id="DejaVuSans-54" d="M -19 4666 
L 3928 4666 
L 3928 4134 
L 2272 4134 
L 2272 0 
L 1638 0 
L 1638 4134 
L -19 4134 
L -19 4666 
z
" transform="scale(0.015625)"/>
       <path id="DejaVuSans-65" d="M 3597 1894 
L 3597 1613 
L 953 1613 
Q 991 1019 1311 708 
Q 1631 397 2203 397 
Q 2534 397 2845 478 
Q 3156 559 3463 722 
L 3463 178 
Q 3153 47 2828 -22 
Q 2503 -91 2169 -91 
Q 1331 -91 842 396 
Q 353 884 353 1716 
Q 353 2575 817 3079 
Q 1281 3584 2069 3584 
Q 2775 3584 3186 3129 
Q 3597 2675 3597 1894 
z
M 3022 2063 
Q 3016 2534 2758 2815 
Q 2500 3097 2075 3097 
Q 1594 3097 1305 2825 
Q 1016 2553 972 2059 
L 3022 2063 
z
" transform="scale(0.015625)"/>
       <path id="DejaVuSans-6f" d="M 1959 3097 
Q 1497 3097 1228 2736 
Q 959 2375 959 1747 
Q 959 1119 1226 758 
Q 1494 397 1959 397 
Q 2419 397 2687 759 
Q 2956 1122 2956 1747 
Q 2956 2369 2687 2733 
Q 2419 3097 1959 3097 
z
M 1959 3584 
Q 2709 3584 3137 3096 
Q 3566 2609 3566 1747 
Q 3566 888 3137 398 
Q 2709 -91 1959 -91 
Q 1206 -91 779 398 
Q 353 888 353 1747 
Q 353 2609 779 3096 
Q 1206 3584 1959 3584 
z
" transform="scale(0.015625)"/>
       <path id="DejaVuSans-72" d="M 2631 2963 
Q 2534 3019 2420 3045 
Q 2306 3072 2169 3072 
Q 1681 3072 1420 2755 
Q 1159 2438 1159 1844 
L 1159 0 
L 581 0 
L 581 3500 
L 1159 3500 
L 1159 2956 
Q 1341 3275 1631 3429 
Q 1922 3584 2338 3584 
Q 2397 3584 2469 3576 
Q 2541 3569 2628 3553 
L 2631 2963 
z
" transform="scale(0.015625)"/>
       <path id="DejaVuSans-69" d="M 603 3500 
L 1178 3500 
L 1178 0 
L 603 0 
L 603 3500 
z
M 603 4863 
L 1178 4863 
L 1178 4134 
L 603 4134 
L 603 4863 
z
" transform="scale(0.015625)"/>
       <path id="DejaVuSans-63" d="M 3122 3366 
L 3122 2828 
Q 2878 2963 2633 3030 
Q 2388 3097 2138 3097 
Q 1578 3097 1268 2742 
Q 959 2388 959 1747 
Q 959 1106 1268 751 
Q 1578 397 2138 397 
Q 2388 397 2633 464 
Q 2878 531 3122 666 
L 3122 134 
Q 2881 22 2623 -34 
Q 2366 -91 2075 -91 
Q 1284 -91 818 406 
Q 353 903 353 1747 
Q 353 2603 823 3093 
Q 1294 3584 2113 3584 
Q 2378 3584 2631 3529 
Q 2884 3475 3122 3366 
z
" transform="scale(0.015625)"/>
      </defs>
      <use xlink:href="#DejaVuSans-54"/>
      <use xlink:href="#DejaVuSans-65" x="44.083984"/>
      <use xlink:href="#DejaVuSans-6f" x="105.607422"/>
      <use xlink:href="#DejaVuSans-72" x="166.789062"/>
      <use xlink:href="#DejaVuSans-69" x="207.902344"/>
      <use xlink:href="#DejaVuSans-63" x="235.685547"/>
      <use xlink:href="#DejaVuSans-6f" x="290.666016"/>
     </g>
    </g>
    <g id="patch_240">
     <path d="M 548.635937 83.116562 
L 568.635937 83.116562 
L 568.635937 76.116562 
L 548.635937 76.116562 
z
" style="opacity: 0.7"/>
    </g>
    <g id="text_16">
     <!-- Emp Real -->
     <g transform="translate(576.635937 83.116562) scale(0.1 -0.1)">
      <defs>
       <path id="DejaVuSans-45" d="M 628 4666 
L 3578 4666 
L 3578 4134 
L 1259 4134 
L 1259 2753 
L 3481 2753 
L 3481 2222 
L 1259 2222 
L 1259 531 
L 3634 531 
L 3634 0 
L 628 0 
L 628 4666 
z
" transform="scale(0.015625)"/>
       <path id="DejaVuSans-6d" d="M 3328 2828 
Q 3544 3216 3844 3400 
Q 4144 3584 4550 3584 
Q 5097 3584 5394 3201 
Q 5691 2819 5691 2113 
L 5691 0 
L 5113 0 
L 5113 2094 
Q 5113 2597 4934 2840 
Q 4756 3084 4391 3084 
Q 3944 3084 3684 2787 
Q 3425 2491 3425 1978 
L 3425 0 
L 2847 0 
L 2847 2094 
Q 2847 2600 2669 2842 
Q 2491 3084 2119 3084 
Q 1678 3084 1418 2786 
Q 1159 2488 1159 1978 
L 1159 0 
L 581 0 
L 581 3500 
L 1159 3500 
L 1159 2956 
Q 1356 3278 1631 3431 
Q 1906 3584 2284 3584 
Q 2666 3584 2933 3390 
Q 3200 3197 3328 2828 
z
" transform="scale(0.015625)"/>
       <path id="DejaVuSans-70" d="M 1159 525 
L 1159 -1331 
L 581 -1331 
L 581 3500 
L 1159 3500 
L 1159 2969 
Q 1341 3281 1617 3432 
Q 1894 3584 2278 3584 
Q 2916 3584 3314 3078 
Q 3713 2572 3713 1747 
Q 3713 922 3314 415 
Q 2916 -91 2278 -91 
Q 1894 -91 1617 61 
Q 1341 213 1159 525 
z
M 3116 1747 
Q 3116 2381 2855 2742 
Q 2594 3103 2138 3103 
Q 1681 3103 1420 2742 
Q 1159 2381 1159 1747 
Q 1159 1113 1420 752 
Q 1681 391 2138 391 
Q 2594 391 2855 752 
Q 3116 1113 3116 1747 
z
" transform="scale(0.015625)"/>
       <path id="DejaVuSans-20" transform="scale(0.015625)"/>
       <path id="DejaVuSans-52" d="M 2841 2188 
Q 3044 2119 3236 1894 
Q 3428 1669 3622 1275 
L 4263 0 
L 3584 0 
L 2988 1197 
Q 2756 1666 2539 1819 
Q 2322 1972 1947 1972 
L 1259 1972 
L 1259 0 
L 628 0 
L 628 4666 
L 2053 4666 
Q 2853 4666 3247 4331 
Q 3641 3997 3641 3322 
Q 3641 2881 3436 2590 
Q 3231 2300 2841 2188 
z
M 1259 4147 
L 1259 2491 
L 2053 2491 
Q 2509 2491 2742 2702 
Q 2975 2913 2975 3322 
Q 2975 3731 2742 3939 
Q 2509 4147 2053 4147 
L 1259 4147 
z
" transform="scale(0.015625)"/>
       <path id="DejaVuSans-61" d="M 2194 1759 
Q 1497 1759 1228 1600 
Q 959 1441 959 1056 
Q 959 750 1161 570 
Q 1363 391 1709 391 
Q 2188 391 2477 730 
Q 2766 1069 2766 1631 
L 2766 1759 
L 2194 1759 
z
M 3341 1997 
L 3341 0 
L 2766 0 
L 2766 531 
Q 2569 213 2275 61 
Q 1981 -91 1556 -91 
Q 1019 -91 701 211 
Q 384 513 384 1019 
Q 384 1609 779 1909 
Q 1175 2209 1959 2209 
L 2766 2209 
L 2766 2266 
Q 2766 2663 2505 2880 
Q 2244 3097 1772 3097 
Q 1472 3097 1187 3025 
Q 903 2953 641 2809 
L 641 3341 
Q 956 3463 1253 3523 
Q 1550 3584 1831 3584 
Q 2591 3584 2966 3190 
Q 3341 2797 3341 1997 
z
" transform="scale(0.015625)"/>
       <path id="DejaVuSans-6c" d="M 603 4863 
L 1178 4863 
L 1178 0 
L 603 0 
L 603 4863 
z
" transform="scale(0.015625)"/>
      </defs>
      <use xlink:href="#DejaVuSans-45"/>
      <use xlink:href="#DejaVuSans-6d" x="63.183594"/>
      <use xlink:href="#DejaVuSans-70" x="160.595703"/>
      <use xlink:href="#DejaVuSans-20" x="224.072266"/>
      <use xlink:href="#DejaVuSans-52" x="255.859375"/>
      <use xlink:href="#DejaVuSans-65" x="320.841797"/>
      <use xlink:href="#DejaVuSans-61" x="382.365234"/>
      <use xlink:href="#DejaVuSans-6c" x="443.644531"/>
     </g>
    </g>
    <g id="patch_241">
     <path d="M 548.635937 97.794687 
L 568.635937 97.794687 
L 568.635937 90.794687 
L 548.635937 90.794687 
z
" style="fill: #ff0000"/>
    </g>
    <g id="text_17">
     <!-- Emp Optimo -->
     <g transform="translate(576.635937 97.794687) scale(0.1 -0.1)">
      <defs>
       <path id="DejaVuSans-4f" d="M 2522 4238 
Q 1834 4238 1429 3725 
Q 1025 3213 1025 2328 
Q 1025 1447 1429 934 
Q 1834 422 2522 422 
Q 3209 422 3611 934 
Q 4013 1447 4013 2328 
Q 4013 3213 3611 3725 
Q 3209 4238 2522 4238 
z
M 2522 4750 
Q 3503 4750 4090 4092 
Q 4678 3434 4678 2328 
Q 4678 1225 4090 567 
Q 3503 -91 2522 -91 
Q 1538 -91 948 565 
Q 359 1222 359 2328 
Q 359 3434 948 4092 
Q 1538 4750 2522 4750 
z
" transform="scale(0.015625)"/>
       <path id="DejaVuSans-74" d="M 1172 4494 
L 1172 3500 
L 2356 3500 
L 2356 3053 
L 1172 3053 
L 1172 1153 
Q 1172 725 1289 603 
Q 1406 481 1766 481 
L 2356 481 
L 2356 0 
L 1766 0 
Q 1100 0 847 248 
Q 594 497 594 1153 
L 594 3053 
L 172 3053 
L 172 3500 
L 594 3500 
L 594 4494 
L 1172 4494 
z
" transform="scale(0.015625)"/>
      </defs>
      <use xlink:href="#DejaVuSans-45"/>
      <use xlink:href="#DejaVuSans-6d" x="63.183594"/>
      <use xlink:href="#DejaVuSans-70" x="160.595703"/>
      <use xlink:href="#DejaVuSans-20" x="224.072266"/>
      <use xlink:href="#DejaVuSans-4f" x="255.859375"/>
      <use xlink:href="#DejaVuSans-70" x="334.570312"/>
      <use xlink:href="#DejaVuSans-74" x="398.046875"/>
      <use xlink:href="#DejaVuSans-69" x="437.255859"/>
      <use xlink:href="#DejaVuSans-6d" x="465.039062"/>
      <use xlink:href="#DejaVuSans-6f" x="562.451172"/>
     </g>
    </g>
   </g>
  </g>
 </g>
 <defs>
  <clipPath id="paaa1462f4f">
   <rect x="90" y="51.84" width="558" height="332.64"/>
  </clipPath>
 </defs>
</svg>
