<?xml version="1.0" encoding="utf-8" standalone="no"?>
<!DOCTYPE svg PUBLIC "-//W3C//DTD SVG 1.1//EN"
  "http://www.w3.org/Graphics/SVG/1.1/DTD/svg11.dtd">
<svg xmlns:xlink="http://www.w3.org/1999/xlink" width="720pt" height="432pt" viewBox="0 0 720 432" xmlns="http://www.w3.org/2000/svg" version="1.1">
 <metadata>
  <rdf:RDF xmlns:dc="http://purl.org/dc/elements/1.1/" xmlns:cc="http://creativecommons.org/ns#" xmlns:rdf="http://www.w3.org/1999/02/22-rdf-syntax-ns#">
   <cc:Work>
    <dc:type rdf:resource="http://purl.org/dc/dcmitype/StillImage"/>
    <dc:date>2024-03-25T23:52:04.130929</dc:date>
    <dc:format>image/svg+xml</dc:format>
    <dc:creator>
     <cc:Agent>
      <dc:title>Matplotlib v3.7.5, https://matplotlib.org/</dc:title>
     </cc:Agent>
    </dc:creator>
   </cc:Work>
  </rdf:RDF>
 </metadata>
 <defs>
  <style type="text/css">*{stroke-linejoin: round; stroke-linecap: butt}</style>
 </defs>
 <g id="figure_1">
  <g id="patch_1">
   <path d="M 0 432 
L 720 432 
L 720 0 
L 0 0 
z
" style="fill: #ffffff"/>
  </g>
  <g id="axes_1">
   <g id="patch_2">
    <path d="M 90 384.48 
L 648 384.48 
L 648 51.84 
L 90 51.84 
z
" style="fill: #ffffff"/>
   </g>
   <g id="patch_3">
    <path d="M 115.363636 299.700832 
L 118.105091 299.700832 
L 118.105091 301.331649 
L 115.363636 301.331649 
z
" clip-path="url(#pa4982ce4fd)" style="fill: #0000ff; opacity: 0.7"/>
   </g>
   <g id="patch_4">
    <path d="M 142.863442 299.700832 
L 145.604896 299.700832 
L 145.604896 305.292203 
L 142.863442 305.292203 
z
" clip-path="url(#pa4982ce4fd)" style="fill: #0000ff; opacity: 0.7"/>
   </g>
   <g id="patch_5">
    <path d="M 146.917779 299.700832 
L 149.659233 299.700832 
L 149.659233 306.457072 
L 146.917779 306.457072 
z
" clip-path="url(#pa4982ce4fd)" style="fill: #0000ff; opacity: 0.7"/>
   </g>
   <g id="patch_6">
    <path d="M 165.551994 299.700832 
L 168.293449 299.700832 
L 168.293449 306.457072 
L 165.551994 306.457072 
z
" clip-path="url(#pa4982ce4fd)" style="fill: #0000ff; opacity: 0.7"/>
   </g>
   <g id="patch_7">
    <path d="M 171.815395 299.700832 
L 174.55685 299.700832 
L 174.55685 302.962465 
L 171.815395 302.962465 
z
" clip-path="url(#pa4982ce4fd)" style="fill: #0000ff; opacity: 0.7"/>
   </g>
   <g id="patch_8">
    <path d="M 173.483845 299.700832 
L 176.225299 299.700832 
L 176.225299 305.292203 
L 173.483845 305.292203 
z
" clip-path="url(#pa4982ce4fd)" style="fill: #0000ff; opacity: 0.7"/>
   </g>
   <g id="patch_9">
    <path d="M 182.721724 299.700832 
L 185.463179 299.700832 
L 185.463179 301.331649 
L 182.721724 301.331649 
z
" clip-path="url(#pa4982ce4fd)" style="fill: #0000ff; opacity: 0.7"/>
   </g>
   <g id="patch_10">
    <path d="M 187.572728 299.700832 
L 190.314183 299.700832 
L 190.314183 301.098675 
L 187.572728 301.098675 
z
" clip-path="url(#pa4982ce4fd)" style="fill: #0000ff; opacity: 0.7"/>
   </g>
   <g id="patch_11">
    <path d="M 212.102167 299.700832 
L 214.843622 299.700832 
L 214.843622 305.292203 
L 212.102167 305.292203 
z
" clip-path="url(#pa4982ce4fd)" style="fill: #0000ff; opacity: 0.7"/>
   </g>
   <g id="patch_12">
    <path d="M 221.960712 299.700832 
L 224.702167 299.700832 
L 224.702167 311.116549 
L 221.960712 311.116549 
z
" clip-path="url(#pa4982ce4fd)" style="fill: #0000ff; opacity: 0.7"/>
   </g>
   <g id="patch_13">
    <path d="M 234.074103 299.700832 
L 236.815558 299.700832 
L 236.815558 302.962465 
L 234.074103 302.962465 
z
" clip-path="url(#pa4982ce4fd)" style="fill: #0000ff; opacity: 0.7"/>
   </g>
   <g id="patch_14">
    <path d="M 245.348335 299.700832 
L 248.08979 299.700832 
L 248.08979 305.292203 
L 245.348335 305.292203 
z
" clip-path="url(#pa4982ce4fd)" style="fill: #0000ff; opacity: 0.7"/>
   </g>
   <g id="patch_15">
    <path d="M 255.784477 299.700832 
L 258.525932 299.700832 
L 258.525932 369.36 
L 255.784477 369.36 
z
" clip-path="url(#pa4982ce4fd)" style="fill: #0000ff; opacity: 0.7"/>
   </g>
   <g id="patch_16">
    <path d="M 266.743195 299.700832 
L 269.48465 299.700832 
L 269.48465 302.962465 
L 266.743195 302.962465 
z
" clip-path="url(#pa4982ce4fd)" style="fill: #0000ff; opacity: 0.7"/>
   </g>
   <g id="patch_17">
    <path d="M 271.533613 299.700832 
L 274.275068 299.700832 
L 274.275068 305.292203 
L 271.533613 305.292203 
z
" clip-path="url(#pa4982ce4fd)" style="fill: #0000ff; opacity: 0.7"/>
   </g>
   <g id="patch_18">
    <path d="M 276.641491 299.700832 
L 279.382946 299.700832 
L 279.382946 304.127334 
L 276.641491 304.127334 
z
" clip-path="url(#pa4982ce4fd)" style="fill: #0000ff; opacity: 0.7"/>
   </g>
   <g id="patch_19">
    <path d="M 284.883126 299.700832 
L 287.624581 299.700832 
L 287.624581 302.263544 
L 284.883126 302.263544 
z
" clip-path="url(#pa4982ce4fd)" style="fill: #0000ff; opacity: 0.7"/>
   </g>
   <g id="patch_20">
    <path d="M 293.491019 299.700832 
L 296.232474 299.700832 
L 296.232474 311.116549 
L 293.491019 311.116549 
z
" clip-path="url(#pa4982ce4fd)" style="fill: #0000ff; opacity: 0.7"/>
   </g>
   <g id="patch_21">
    <path d="M 295.57946 299.700832 
L 298.320914 299.700832 
L 298.320914 302.962465 
L 295.57946 302.962465 
z
" clip-path="url(#pa4982ce4fd)" style="fill: #0000ff; opacity: 0.7"/>
   </g>
   <g id="patch_22">
    <path d="M 298.070071 299.700832 
L 300.811526 299.700832 
L 300.811526 311.116549 
L 298.070071 311.116549 
z
" clip-path="url(#pa4982ce4fd)" style="fill: #0000ff; opacity: 0.7"/>
   </g>
   <g id="patch_23">
    <path d="M 306.05072 299.700832 
L 308.792174 299.700832 
L 308.792174 315.776025 
L 306.05072 315.776025 
z
" clip-path="url(#pa4982ce4fd)" style="fill: #0000ff; opacity: 0.7"/>
   </g>
   <g id="patch_24">
    <path d="M 308.125727 299.700832 
L 310.867181 299.700832 
L 310.867181 302.263544 
L 308.125727 302.263544 
z
" clip-path="url(#pa4982ce4fd)" style="fill: #0000ff; opacity: 0.7"/>
   </g>
   <g id="patch_25">
    <path d="M 314.797879 299.700832 
L 317.539333 299.700832 
L 317.539333 311.116549 
L 314.797879 311.116549 
z
" clip-path="url(#pa4982ce4fd)" style="fill: #0000ff; opacity: 0.7"/>
   </g>
   <g id="patch_26">
    <path d="M 322.422412 299.700832 
L 325.163867 299.700832 
L 325.163867 322.765239 
L 322.422412 322.765239 
z
" clip-path="url(#pa4982ce4fd)" style="fill: #0000ff; opacity: 0.7"/>
   </g>
   <g id="patch_27">
    <path d="M 329.101144 299.700832 
L 331.842599 299.700832 
L 331.842599 302.263544 
L 329.101144 302.263544 
z
" clip-path="url(#pa4982ce4fd)" style="fill: #0000ff; opacity: 0.7"/>
   </g>
   <g id="patch_28">
    <path d="M 335.464334 299.700832 
L 338.205789 299.700832 
L 338.205789 302.263544 
L 335.464334 302.263544 
z
" clip-path="url(#pa4982ce4fd)" style="fill: #0000ff; opacity: 0.7"/>
   </g>
   <g id="patch_29">
    <path d="M 338.593979 299.700832 
L 341.335433 299.700832 
L 341.335433 300.16678 
L 338.593979 300.16678 
z
" clip-path="url(#pa4982ce4fd)" style="fill: #0000ff; opacity: 0.7"/>
   </g>
   <g id="patch_30">
    <path d="M 341.324742 299.700832 
L 344.066196 299.700832 
L 344.066196 302.03057 
L 341.324742 302.03057 
z
" clip-path="url(#pa4982ce4fd)" style="fill: #0000ff; opacity: 0.7"/>
   </g>
   <g id="patch_31">
    <path d="M 348.859356 299.700832 
L 351.60081 299.700832 
L 351.60081 306.457072 
L 348.859356 306.457072 
z
" clip-path="url(#pa4982ce4fd)" style="fill: #0000ff; opacity: 0.7"/>
   </g>
   <g id="patch_32">
    <path d="M 357.41379 299.700832 
L 360.155245 299.700832 
L 360.155245 300.865701 
L 357.41379 300.865701 
z
" clip-path="url(#pa4982ce4fd)" style="fill: #0000ff; opacity: 0.7"/>
   </g>
   <g id="patch_33">
    <path d="M 359.378043 299.700832 
L 362.119497 299.700832 
L 362.119497 305.292203 
L 359.378043 305.292203 
z
" clip-path="url(#pa4982ce4fd)" style="fill: #0000ff; opacity: 0.7"/>
   </g>
   <g id="patch_34">
    <path d="M 362.393917 299.700832 
L 365.135371 299.700832 
L 365.135371 346.062619 
L 362.393917 346.062619 
z
" clip-path="url(#pa4982ce4fd)" style="fill: #0000ff; opacity: 0.7"/>
   </g>
   <g id="patch_35">
    <path d="M 377.107852 299.700832 
L 379.849307 299.700832 
L 379.849307 315.776025 
L 377.107852 315.776025 
z
" clip-path="url(#pa4982ce4fd)" style="fill: #0000ff; opacity: 0.7"/>
   </g>
   <g id="patch_36">
    <path d="M 381.731041 299.700832 
L 384.472496 299.700832 
L 384.472496 357.71131 
L 381.731041 357.71131 
z
" clip-path="url(#pa4982ce4fd)" style="fill: #0000ff; opacity: 0.7"/>
   </g>
   <g id="patch_37">
    <path d="M 387.951127 299.700832 
L 390.692582 299.700832 
L 390.692582 315.776025 
L 387.951127 315.776025 
z
" clip-path="url(#pa4982ce4fd)" style="fill: #0000ff; opacity: 0.7"/>
   </g>
   <g id="patch_38">
    <path d="M 390.39486 299.700832 
L 393.136315 299.700832 
L 393.136315 311.116549 
L 390.39486 311.116549 
z
" clip-path="url(#pa4982ce4fd)" style="fill: #0000ff; opacity: 0.7"/>
   </g>
   <g id="patch_39">
    <path d="M 403.097116 299.700832 
L 405.83857 299.700832 
L 405.83857 329.754453 
L 403.097116 329.754453 
z
" clip-path="url(#pa4982ce4fd)" style="fill: #0000ff; opacity: 0.7"/>
   </g>
   <g id="patch_40">
    <path d="M 415.564703 299.700832 
L 418.306157 299.700832 
L 418.306157 346.062619 
L 415.564703 346.062619 
z
" clip-path="url(#pa4982ce4fd)" style="fill: #0000ff; opacity: 0.7"/>
   </g>
   <g id="patch_41">
    <path d="M 418.397174 299.700832 
L 421.138628 299.700832 
L 421.138628 315.776025 
L 418.397174 315.776025 
z
" clip-path="url(#pa4982ce4fd)" style="fill: #0000ff; opacity: 0.7"/>
   </g>
   <g id="patch_42">
    <path d="M 435.734407 299.700832 
L 438.475861 299.700832 
L 438.475861 329.754453 
L 435.734407 329.754453 
z
" clip-path="url(#pa4982ce4fd)" style="fill: #0000ff; opacity: 0.7"/>
   </g>
   <g id="patch_43">
    <path d="M 453.420901 299.700832 
L 456.162356 299.700832 
L 456.162356 346.062619 
L 453.420901 346.062619 
z
" clip-path="url(#pa4982ce4fd)" style="fill: #0000ff; opacity: 0.7"/>
   </g>
   <g id="patch_44">
    <path d="M 466.671448 299.700832 
L 469.412902 299.700832 
L 469.412902 329.754453 
L 466.671448 329.754453 
z
" clip-path="url(#pa4982ce4fd)" style="fill: #0000ff; opacity: 0.7"/>
   </g>
   <g id="patch_45">
    <path d="M 485.578438 299.700832 
L 488.319892 299.700832 
L 488.319892 346.062619 
L 485.578438 346.062619 
z
" clip-path="url(#pa4982ce4fd)" style="fill: #0000ff; opacity: 0.7"/>
   </g>
   <g id="patch_46">
    <path d="M 495.995143 299.700832 
L 498.736597 299.700832 
L 498.736597 357.71131 
L 495.995143 357.71131 
z
" clip-path="url(#pa4982ce4fd)" style="fill: #0000ff; opacity: 0.7"/>
   </g>
   <g id="patch_47">
    <path d="M 527.521596 299.700832 
L 530.263051 299.700832 
L 530.263051 357.71131 
L 527.521596 357.71131 
z
" clip-path="url(#pa4982ce4fd)" style="fill: #0000ff; opacity: 0.7"/>
   </g>
   <g id="patch_48">
    <path d="M 539.054073 299.700832 
L 541.795528 299.700832 
L 541.795528 304.127334 
L 539.054073 304.127334 
z
" clip-path="url(#pa4982ce4fd)" style="fill: #0000ff; opacity: 0.7"/>
   </g>
   <g id="patch_49">
    <path d="M 550.883176 299.700832 
L 553.624631 299.700832 
L 553.624631 315.776025 
L 550.883176 315.776025 
z
" clip-path="url(#pa4982ce4fd)" style="fill: #0000ff; opacity: 0.7"/>
   </g>
   <g id="patch_50">
    <path d="M 564.754388 299.700832 
L 567.495842 299.700832 
L 567.495842 322.765239 
L 564.754388 322.765239 
z
" clip-path="url(#pa4982ce4fd)" style="fill: #0000ff; opacity: 0.7"/>
   </g>
   <g id="patch_51">
    <path d="M 577.463497 299.700832 
L 580.204952 299.700832 
L 580.204952 305.292203 
L 577.463497 305.292203 
z
" clip-path="url(#pa4982ce4fd)" style="fill: #0000ff; opacity: 0.7"/>
   </g>
   <g id="patch_52">
    <path d="M 599.325501 299.700832 
L 602.066956 299.700832 
L 602.066956 306.457072 
L 599.325501 306.457072 
z
" clip-path="url(#pa4982ce4fd)" style="fill: #0000ff; opacity: 0.7"/>
   </g>
   <g id="patch_53">
    <path d="M 619.894909 299.700832 
L 622.636364 299.700832 
L 622.636364 301.098675 
L 619.894909 301.098675 
z
" clip-path="url(#pa4982ce4fd)" style="fill: #0000ff; opacity: 0.7"/>
   </g>
   <g id="patch_54">
    <path d="M 134.572719 299.700832 
L 135.12101 299.700832 
L 135.12101 296.325194 
L 134.572719 296.325194 
z
" clip-path="url(#pa4982ce4fd)" style="opacity: 0.7"/>
   </g>
   <g id="patch_55">
    <path d="M 139.580764 299.700832 
L 140.129055 299.700832 
L 140.129055 294.342008 
L 139.580764 294.342008 
z
" clip-path="url(#pa4982ce4fd)" style="opacity: 0.7"/>
   </g>
   <g id="patch_56">
    <path d="M 142.442505 299.700832 
L 142.990796 299.700832 
L 142.990796 293.998671 
L 142.442505 293.998671 
z
" clip-path="url(#pa4982ce4fd)" style="opacity: 0.7"/>
   </g>
   <g id="patch_57">
    <path d="M 146.735115 299.700832 
L 147.283406 299.700832 
L 147.283406 283.465275 
L 146.735115 283.465275 
z
" clip-path="url(#pa4982ce4fd)" style="opacity: 0.7"/>
   </g>
   <g id="patch_58">
    <path d="M 153.174031 299.700832 
L 153.722322 299.700832 
L 153.722322 290.411828 
L 153.174031 290.411828 
z
" clip-path="url(#pa4982ce4fd)" style="opacity: 0.7"/>
   </g>
   <g id="patch_59">
    <path d="M 154.604901 299.700832 
L 155.153192 299.700832 
L 155.153192 290.543936 
L 154.604901 290.543936 
z
" clip-path="url(#pa4982ce4fd)" style="opacity: 0.7"/>
   </g>
   <g id="patch_60">
    <path d="M 161.759252 299.700832 
L 162.307543 299.700832 
L 162.307543 277.608226 
L 161.759252 277.608226 
z
" clip-path="url(#pa4982ce4fd)" style="opacity: 0.7"/>
   </g>
   <g id="patch_61">
    <path d="M 165.336427 299.700832 
L 165.884718 299.700832 
L 165.884718 269.267856 
L 165.336427 269.267856 
z
" clip-path="url(#pa4982ce4fd)" style="opacity: 0.7"/>
   </g>
   <g id="patch_62">
    <path d="M 170.344473 299.700832 
L 170.892763 299.700832 
L 170.892763 281.308328 
L 170.344473 281.308328 
z
" clip-path="url(#pa4982ce4fd)" style="opacity: 0.7"/>
   </g>
   <g id="patch_63">
    <path d="M 173.206213 299.700832 
L 173.754504 299.700832 
L 173.754504 281.193929 
L 173.206213 281.193929 
z
" clip-path="url(#pa4982ce4fd)" style="opacity: 0.7"/>
   </g>
   <g id="patch_64">
    <path d="M 178.214258 299.700832 
L 178.762549 299.700832 
L 178.762549 292.698469 
L 178.214258 292.698469 
z
" clip-path="url(#pa4982ce4fd)" style="opacity: 0.7"/>
   </g>
   <g id="patch_65">
    <path d="M 180.360564 299.700832 
L 180.908854 299.700832 
L 180.908854 294.394708 
L 180.360564 294.394708 
z
" clip-path="url(#pa4982ce4fd)" style="opacity: 0.7"/>
   </g>
   <g id="patch_66">
    <path d="M 186.084044 299.700832 
L 186.632335 299.700832 
L 186.632335 294.365106 
L 186.084044 294.365106 
z
" clip-path="url(#pa4982ce4fd)" style="opacity: 0.7"/>
   </g>
   <g id="patch_67">
    <path d="M 191.807525 299.700832 
L 192.355816 299.700832 
L 192.355816 296.282571 
L 191.807525 296.282571 
z
" clip-path="url(#pa4982ce4fd)" style="opacity: 0.7"/>
   </g>
   <g id="patch_68">
    <path d="M 196.100135 299.700832 
L 196.648426 299.700832 
L 196.648426 297.440003 
L 196.100135 297.440003 
z
" clip-path="url(#pa4982ce4fd)" style="opacity: 0.7"/>
   </g>
   <g id="patch_69">
    <path d="M 198.24644 299.700832 
L 198.794731 299.700832 
L 198.794731 297.261042 
L 198.24644 297.261042 
z
" clip-path="url(#pa4982ce4fd)" style="opacity: 0.7"/>
   </g>
   <g id="patch_70">
    <path d="M 201.823616 299.700832 
L 202.371907 299.700832 
L 202.371907 298.552106 
L 201.823616 298.552106 
z
" clip-path="url(#pa4982ce4fd)" style="opacity: 0.7"/>
   </g>
   <g id="patch_71">
    <path d="M 205.400791 299.700832 
L 205.949082 299.700832 
L 205.949082 297.399928 
L 205.400791 297.399928 
z
" clip-path="url(#pa4982ce4fd)" style="opacity: 0.7"/>
   </g>
   <g id="patch_72">
    <path d="M 208.977966 299.700832 
L 209.526257 299.700832 
L 209.526257 292.883635 
L 208.977966 292.883635 
z
" clip-path="url(#pa4982ce4fd)" style="opacity: 0.7"/>
   </g>
   <g id="patch_73">
    <path d="M 211.839707 299.700832 
L 212.387998 299.700832 
L 212.387998 279.433689 
L 211.839707 279.433689 
z
" clip-path="url(#pa4982ce4fd)" style="opacity: 0.7"/>
   </g>
   <g id="patch_74">
    <path d="M 218.994057 299.700832 
L 219.542348 299.700832 
L 219.542348 297.370115 
L 218.994057 297.370115 
z
" clip-path="url(#pa4982ce4fd)" style="opacity: 0.7"/>
   </g>
   <g id="patch_75">
    <path d="M 221.855798 299.700832 
L 222.404089 299.700832 
L 222.404089 289.628995 
L 221.855798 289.628995 
z
" clip-path="url(#pa4982ce4fd)" style="opacity: 0.7"/>
   </g>
   <g id="patch_76">
    <path d="M 226.148408 299.700832 
L 226.696699 299.700832 
L 226.696699 292.489119 
L 226.148408 292.489119 
z
" clip-path="url(#pa4982ce4fd)" style="opacity: 0.7"/>
   </g>
   <g id="patch_77">
    <path d="M 232.587324 299.700832 
L 233.135615 299.700832 
L 233.135615 294.980059 
L 232.587324 294.980059 
z
" clip-path="url(#pa4982ce4fd)" style="opacity: 0.7"/>
   </g>
   <g id="patch_78">
    <path d="M 236.879934 299.700832 
L 237.428225 299.700832 
L 237.428225 293.593292 
L 236.879934 293.593292 
z
" clip-path="url(#pa4982ce4fd)" style="opacity: 0.7"/>
   </g>
   <g id="patch_79">
    <path d="M 241.172545 299.700832 
L 241.720835 299.700832 
L 241.720835 294.245814 
L 241.172545 294.245814 
z
" clip-path="url(#pa4982ce4fd)" style="opacity: 0.7"/>
   </g>
   <g id="patch_80">
    <path d="M 245.465155 299.700832 
L 246.013446 299.700832 
L 246.013446 281.285381 
L 245.465155 281.285381 
z
" clip-path="url(#pa4982ce4fd)" style="opacity: 0.7"/>
   </g>
   <g id="patch_81">
    <path d="M 250.473201 299.700832 
L 251.021491 299.700832 
L 251.021491 287.016498 
L 250.473201 287.016498 
z
" clip-path="url(#pa4982ce4fd)" style="opacity: 0.7"/>
   </g>
   <g id="patch_82">
    <path d="M 255.481246 299.700832 
L 256.029537 299.700832 
L 256.029537 66.96 
L 255.481246 66.96 
z
" clip-path="url(#pa4982ce4fd)" style="opacity: 0.7"/>
   </g>
   <g id="patch_83">
    <path d="M 262.635597 299.700832 
L 263.183888 299.700832 
L 263.183888 296.48257 
L 262.635597 296.48257 
z
" clip-path="url(#pa4982ce4fd)" style="opacity: 0.7"/>
   </g>
   <g id="patch_84">
    <path d="M 266.928207 299.700832 
L 267.476498 299.700832 
L 267.476498 282.223125 
L 266.928207 282.223125 
z
" clip-path="url(#pa4982ce4fd)" style="opacity: 0.7"/>
   </g>
   <g id="patch_85">
    <path d="M 271.936253 299.700832 
L 272.484544 299.700832 
L 272.484544 252.905885 
L 271.936253 252.905885 
z
" clip-path="url(#pa4982ce4fd)" style="opacity: 0.7"/>
   </g>
   <g id="patch_86">
    <path d="M 276.944298 299.700832 
L 277.492589 299.700832 
L 277.492589 277.522199 
L 276.944298 277.522199 
z
" clip-path="url(#pa4982ce4fd)" style="opacity: 0.7"/>
   </g>
   <g id="patch_87">
    <path d="M 279.806038 299.700832 
L 280.354329 299.700832 
L 280.354329 294.502762 
L 279.806038 294.502762 
z
" clip-path="url(#pa4982ce4fd)" style="opacity: 0.7"/>
   </g>
   <g id="patch_88">
    <path d="M 284.814084 299.700832 
L 285.362375 299.700832 
L 285.362375 296.086448 
L 284.814084 296.086448 
z
" clip-path="url(#pa4982ce4fd)" style="opacity: 0.7"/>
   </g>
   <g id="patch_89">
    <path d="M 289.822129 299.700832 
L 290.37042 299.700832 
L 290.37042 293.727451 
L 289.822129 293.727451 
z
" clip-path="url(#pa4982ce4fd)" style="opacity: 0.7"/>
   </g>
   <g id="patch_90">
    <path d="M 293.399305 299.700832 
L 293.947596 299.700832 
L 293.947596 275.156484 
L 293.399305 275.156484 
z
" clip-path="url(#pa4982ce4fd)" style="opacity: 0.7"/>
   </g>
   <g id="patch_91">
    <path d="M 298.40735 299.700832 
L 298.955641 299.700832 
L 298.955641 244.72007 
L 298.40735 244.72007 
z
" clip-path="url(#pa4982ce4fd)" style="opacity: 0.7"/>
   </g>
   <g id="patch_92">
    <path d="M 306.277136 299.700832 
L 306.825427 299.700832 
L 306.825427 275.199922 
L 306.277136 275.199922 
z
" clip-path="url(#pa4982ce4fd)" style="opacity: 0.7"/>
   </g>
   <g id="patch_93">
    <path d="M 314.862357 299.700832 
L 315.410648 299.700832 
L 315.410648 287.57822 
L 314.862357 287.57822 
z
" clip-path="url(#pa4982ce4fd)" style="opacity: 0.7"/>
   </g>
   <g id="patch_94">
    <path d="M 319.870402 299.700832 
L 320.418693 299.700832 
L 320.418693 292.050812 
L 319.870402 292.050812 
z
" clip-path="url(#pa4982ce4fd)" style="opacity: 0.7"/>
   </g>
   <g id="patch_95">
    <path d="M 322.732143 299.700832 
L 323.280434 299.700832 
L 323.280434 282.854982 
L 322.732143 282.854982 
z
" clip-path="url(#pa4982ce4fd)" style="opacity: 0.7"/>
   </g>
   <g id="patch_96">
    <path d="M 325.593883 299.700832 
L 326.142174 299.700832 
L 326.142174 291.164787 
L 325.593883 291.164787 
z
" clip-path="url(#pa4982ce4fd)" style="opacity: 0.7"/>
   </g>
   <g id="patch_97">
    <path d="M 329.886493 299.700832 
L 330.434784 299.700832 
L 330.434784 234.750183 
L 329.886493 234.750183 
z
" clip-path="url(#pa4982ce4fd)" style="opacity: 0.7"/>
   </g>
   <g id="patch_98">
    <path d="M 336.325409 299.700832 
L 336.8737 299.700832 
L 336.8737 258.199398 
L 336.325409 258.199398 
z
" clip-path="url(#pa4982ce4fd)" style="opacity: 0.7"/>
   </g>
   <g id="patch_99">
    <path d="M 338.471714 299.700832 
L 339.020005 299.700832 
L 339.020005 228.619386 
L 338.471714 228.619386 
z
" clip-path="url(#pa4982ce4fd)" style="opacity: 0.7"/>
   </g>
   <g id="patch_100">
    <path d="M 341.333455 299.700832 
L 341.881746 299.700832 
L 341.881746 142.97746 
L 341.333455 142.97746 
z
" clip-path="url(#pa4982ce4fd)" style="opacity: 0.7"/>
   </g>
   <g id="patch_101">
    <path d="M 348.487805 299.700832 
L 349.036096 299.700832 
L 349.036096 287.040366 
L 348.487805 287.040366 
z
" clip-path="url(#pa4982ce4fd)" style="opacity: 0.7"/>
   </g>
   <g id="patch_102">
    <path d="M 351.349546 299.700832 
L 351.897837 299.700832 
L 351.897837 289.725072 
L 351.349546 289.725072 
z
" clip-path="url(#pa4982ce4fd)" style="opacity: 0.7"/>
   </g>
   <g id="patch_103">
    <path d="M 357.073026 299.700832 
L 357.621317 299.700832 
L 357.621317 186.174328 
L 357.073026 186.174328 
z
" clip-path="url(#pa4982ce4fd)" style="opacity: 0.7"/>
   </g>
   <g id="patch_104">
    <path d="M 362.081072 299.700832 
L 362.629363 299.700832 
L 362.629363 251.695681 
L 362.081072 251.695681 
z
" clip-path="url(#pa4982ce4fd)" style="opacity: 0.7"/>
   </g>
   <g id="patch_105">
    <path d="M 368.519987 299.700832 
L 369.068278 299.700832 
L 369.068278 267.306152 
L 368.519987 267.306152 
z
" clip-path="url(#pa4982ce4fd)" style="opacity: 0.7"/>
   </g>
   <g id="patch_106">
    <path d="M 377.820643 299.700832 
L 378.368934 299.700832 
L 378.368934 185.066385 
L 377.820643 185.066385 
z
" clip-path="url(#pa4982ce4fd)" style="opacity: 0.7"/>
   </g>
   <g id="patch_107">
    <path d="M 381.397819 299.700832 
L 381.94611 299.700832 
L 381.94611 230.805036 
L 381.397819 230.805036 
z
" clip-path="url(#pa4982ce4fd)" style="opacity: 0.7"/>
   </g>
   <g id="patch_108">
    <path d="M 387.836734 299.700832 
L 388.385025 299.700832 
L 388.385025 269.361464 
L 387.836734 269.361464 
z
" clip-path="url(#pa4982ce4fd)" style="opacity: 0.7"/>
   </g>
   <g id="patch_109">
    <path d="M 389.983039 299.700832 
L 390.53133 299.700832 
L 390.53133 266.054483 
L 389.983039 266.054483 
z
" clip-path="url(#pa4982ce4fd)" style="opacity: 0.7"/>
   </g>
   <g id="patch_110">
    <path d="M 392.84478 299.700832 
L 393.393071 299.700832 
L 393.393071 275.953809 
L 392.84478 275.953809 
z
" clip-path="url(#pa4982ce4fd)" style="opacity: 0.7"/>
   </g>
   <g id="patch_111">
    <path d="M 396.421955 299.700832 
L 396.970246 299.700832 
L 396.970246 275.485913 
L 396.421955 275.485913 
z
" clip-path="url(#pa4982ce4fd)" style="opacity: 0.7"/>
   </g>
   <g id="patch_112">
    <path d="M 403.576306 299.700832 
L 404.124597 299.700832 
L 404.124597 250.897975 
L 403.576306 250.897975 
z
" clip-path="url(#pa4982ce4fd)" style="opacity: 0.7"/>
   </g>
   <g id="patch_113">
    <path d="M 409.299786 299.700832 
L 409.848077 299.700832 
L 409.848077 291.3474 
L 409.299786 291.3474 
z
" clip-path="url(#pa4982ce4fd)" style="opacity: 0.7"/>
   </g>
   <g id="patch_114">
    <path d="M 415.738702 299.700832 
L 416.286993 299.700832 
L 416.286993 99.620664 
L 415.738702 99.620664 
z
" clip-path="url(#pa4982ce4fd)" style="opacity: 0.7"/>
   </g>
   <g id="patch_115">
    <path d="M 418.600442 299.700832 
L 419.148733 299.700832 
L 419.148733 278.854816 
L 418.600442 278.854816 
z
" clip-path="url(#pa4982ce4fd)" style="opacity: 0.7"/>
   </g>
   <g id="patch_116">
    <path d="M 426.470228 299.700832 
L 427.018519 299.700832 
L 427.018519 266.06512 
L 426.470228 266.06512 
z
" clip-path="url(#pa4982ce4fd)" style="opacity: 0.7"/>
   </g>
   <g id="patch_117">
    <path d="M 429.331968 299.700832 
L 429.880259 299.700832 
L 429.880259 292.717638 
L 429.331968 292.717638 
z
" clip-path="url(#pa4982ce4fd)" style="opacity: 0.7"/>
   </g>
   <g id="patch_118">
    <path d="M 432.193709 299.700832 
L 432.742 299.700832 
L 432.742 296.391173 
L 432.193709 296.391173 
z
" clip-path="url(#pa4982ce4fd)" style="opacity: 0.7"/>
   </g>
   <g id="patch_119">
    <path d="M 435.770884 299.700832 
L 436.319175 299.700832 
L 436.319175 221.85878 
L 435.770884 221.85878 
z
" clip-path="url(#pa4982ce4fd)" style="opacity: 0.7"/>
   </g>
   <g id="patch_120">
    <path d="M 440.77893 299.700832 
L 441.32722 299.700832 
L 441.32722 296.941556 
L 440.77893 296.941556 
z
" clip-path="url(#pa4982ce4fd)" style="opacity: 0.7"/>
   </g>
   <g id="patch_121">
    <path d="M 445.07154 299.700832 
L 445.619831 299.700832 
L 445.619831 252.928313 
L 445.07154 252.928313 
z
" clip-path="url(#pa4982ce4fd)" style="opacity: 0.7"/>
   </g>
   <g id="patch_122">
    <path d="M 447.93328 299.700832 
L 448.481571 299.700832 
L 448.481571 272.00096 
L 447.93328 272.00096 
z
" clip-path="url(#pa4982ce4fd)" style="opacity: 0.7"/>
   </g>
   <g id="patch_123">
    <path d="M 453.656761 299.700832 
L 454.205052 299.700832 
L 454.205052 262.478881 
L 453.656761 262.478881 
z
" clip-path="url(#pa4982ce4fd)" style="opacity: 0.7"/>
   </g>
   <g id="patch_124">
    <path d="M 458.664806 299.700832 
L 459.213097 299.700832 
L 459.213097 295.984554 
L 458.664806 295.984554 
z
" clip-path="url(#pa4982ce4fd)" style="opacity: 0.7"/>
   </g>
   <g id="patch_125">
    <path d="M 460.811112 299.700832 
L 461.359402 299.700832 
L 461.359402 296.468114 
L 460.811112 296.468114 
z
" clip-path="url(#pa4982ce4fd)" style="opacity: 0.7"/>
   </g>
   <g id="patch_126">
    <path d="M 466.534592 299.700832 
L 467.082883 299.700832 
L 467.082883 257.526827 
L 466.534592 257.526827 
z
" clip-path="url(#pa4982ce4fd)" style="opacity: 0.7"/>
   </g>
   <g id="patch_127">
    <path d="M 473.688943 299.700832 
L 474.237234 299.700832 
L 474.237234 299.378695 
L 473.688943 299.378695 
z
" clip-path="url(#pa4982ce4fd)" style="opacity: 0.7"/>
   </g>
   <g id="patch_128">
    <path d="M 475.119813 299.700832 
L 475.668104 299.700832 
L 475.668104 299.408545 
L 475.119813 299.408545 
z
" clip-path="url(#pa4982ce4fd)" style="opacity: 0.7"/>
   </g>
   <g id="patch_129">
    <path d="M 478.696988 299.700832 
L 479.245279 299.700832 
L 479.245279 292.666247 
L 478.696988 292.666247 
z
" clip-path="url(#pa4982ce4fd)" style="opacity: 0.7"/>
   </g>
   <g id="patch_130">
    <path d="M 481.558729 299.700832 
L 482.10702 299.700832 
L 482.10702 258.811699 
L 481.558729 258.811699 
z
" clip-path="url(#pa4982ce4fd)" style="opacity: 0.7"/>
   </g>
   <g id="patch_131">
    <path d="M 485.851339 299.700832 
L 486.39963 299.700832 
L 486.39963 269.777474 
L 485.851339 269.777474 
z
" clip-path="url(#pa4982ce4fd)" style="opacity: 0.7"/>
   </g>
   <g id="patch_132">
    <path d="M 487.997644 299.700832 
L 488.545935 299.700832 
L 488.545935 272.903483 
L 487.997644 272.903483 
z
" clip-path="url(#pa4982ce4fd)" style="opacity: 0.7"/>
   </g>
   <g id="patch_133">
    <path d="M 493.00569 299.700832 
L 493.553981 299.700832 
L 493.553981 296.719888 
L 493.00569 296.719888 
z
" clip-path="url(#pa4982ce4fd)" style="opacity: 0.7"/>
   </g>
   <g id="patch_134">
    <path d="M 495.86743 299.700832 
L 496.415721 299.700832 
L 496.415721 202.062878 
L 495.86743 202.062878 
z
" clip-path="url(#pa4982ce4fd)" style="opacity: 0.7"/>
   </g>
   <g id="patch_135">
    <path d="M 503.737216 299.700832 
L 504.285507 299.700832 
L 504.285507 299.087291 
L 503.737216 299.087291 
z
" clip-path="url(#pa4982ce4fd)" style="opacity: 0.7"/>
   </g>
   <g id="patch_136">
    <path d="M 507.314391 299.700832 
L 507.862682 299.700832 
L 507.862682 259.226017 
L 507.314391 259.226017 
z
" clip-path="url(#pa4982ce4fd)" style="opacity: 0.7"/>
   </g>
   <g id="patch_137">
    <path d="M 515.899612 299.700832 
L 516.447903 299.700832 
L 516.447903 298.482072 
L 515.899612 298.482072 
z
" clip-path="url(#pa4982ce4fd)" style="opacity: 0.7"/>
   </g>
   <g id="patch_138">
    <path d="M 518.761352 299.700832 
L 519.309643 299.700832 
L 519.309643 282.185973 
L 518.761352 282.185973 
z
" clip-path="url(#pa4982ce4fd)" style="opacity: 0.7"/>
   </g>
   <g id="patch_139">
    <path d="M 523.769398 299.700832 
L 524.317689 299.700832 
L 524.317689 297.899615 
L 523.769398 297.899615 
z
" clip-path="url(#pa4982ce4fd)" style="opacity: 0.7"/>
   </g>
   <g id="patch_140">
    <path d="M 527.346573 299.700832 
L 527.894864 299.700832 
L 527.894864 249.694333 
L 527.346573 249.694333 
z
" clip-path="url(#pa4982ce4fd)" style="opacity: 0.7"/>
   </g>
   <g id="patch_141">
    <path d="M 530.208313 299.700832 
L 530.756604 299.700832 
L 530.756604 285.149331 
L 530.208313 285.149331 
z
" clip-path="url(#pa4982ce4fd)" style="opacity: 0.7"/>
   </g>
   <g id="patch_142">
    <path d="M 534.500924 299.700832 
L 535.049215 299.700832 
L 535.049215 297.763531 
L 534.500924 297.763531 
z
" clip-path="url(#pa4982ce4fd)" style="opacity: 0.7"/>
   </g>
   <g id="patch_143">
    <path d="M 538.793534 299.700832 
L 539.341825 299.700832 
L 539.341825 206.948097 
L 538.793534 206.948097 
z
" clip-path="url(#pa4982ce4fd)" style="opacity: 0.7"/>
   </g>
   <g id="patch_144">
    <path d="M 115.363636 299.700832 
L 116.186073 299.700832 
L 116.186073 296.325194 
L 115.363636 296.325194 
z
" clip-path="url(#pa4982ce4fd)" style="fill: #ff0000"/>
   </g>
   <g id="patch_145">
    <path d="M 115.363636 299.700832 
L 116.186073 299.700832 
L 116.186073 294.342008 
L 115.363636 294.342008 
z
" clip-path="url(#pa4982ce4fd)" style="fill: #ff0000"/>
   </g>
   <g id="patch_146">
    <path d="M 115.363636 299.700832 
L 116.186073 299.700832 
L 116.186073 293.998671 
L 115.363636 293.998671 
z
" clip-path="url(#pa4982ce4fd)" style="fill: #ff0000"/>
   </g>
   <g id="patch_147">
    <path d="M 146.917779 299.700832 
L 147.740215 299.700832 
L 147.740215 283.465275 
L 146.917779 283.465275 
z
" clip-path="url(#pa4982ce4fd)" style="fill: #ff0000"/>
   </g>
   <g id="patch_148">
    <path d="M 171.815395 299.700832 
L 172.637832 299.700832 
L 172.637832 290.411828 
L 171.815395 290.411828 
z
" clip-path="url(#pa4982ce4fd)" style="fill: #ff0000"/>
   </g>
   <g id="patch_149">
    <path d="M 171.815395 299.700832 
L 172.637832 299.700832 
L 172.637832 290.543936 
L 171.815395 290.543936 
z
" clip-path="url(#pa4982ce4fd)" style="fill: #ff0000"/>
   </g>
   <g id="patch_150">
    <path d="M 173.483845 299.700832 
L 174.306281 299.700832 
L 174.306281 277.608226 
L 173.483845 277.608226 
z
" clip-path="url(#pa4982ce4fd)" style="fill: #ff0000"/>
   </g>
   <g id="patch_151">
    <path d="M 173.483845 299.700832 
L 174.306281 299.700832 
L 174.306281 269.267856 
L 173.483845 269.267856 
z
" clip-path="url(#pa4982ce4fd)" style="fill: #ff0000"/>
   </g>
   <g id="patch_152">
    <path d="M 173.483845 299.700832 
L 174.306281 299.700832 
L 174.306281 281.308328 
L 173.483845 281.308328 
z
" clip-path="url(#pa4982ce4fd)" style="fill: #ff0000"/>
   </g>
   <g id="patch_153">
    <path d="M 173.483845 299.700832 
L 174.306281 299.700832 
L 174.306281 281.193929 
L 173.483845 281.193929 
z
" clip-path="url(#pa4982ce4fd)" style="fill: #ff0000"/>
   </g>
   <g id="patch_154">
    <path d="M 182.721724 299.700832 
L 183.54416 299.700832 
L 183.54416 292.698469 
L 182.721724 292.698469 
z
" clip-path="url(#pa4982ce4fd)" style="fill: #ff0000"/>
   </g>
   <g id="patch_155">
    <path d="M 182.721724 299.700832 
L 183.54416 299.700832 
L 183.54416 294.394708 
L 182.721724 294.394708 
z
" clip-path="url(#pa4982ce4fd)" style="fill: #ff0000"/>
   </g>
   <g id="patch_156">
    <path d="M 182.721724 299.700832 
L 183.54416 299.700832 
L 183.54416 294.365106 
L 182.721724 294.365106 
z
" clip-path="url(#pa4982ce4fd)" style="fill: #ff0000"/>
   </g>
   <g id="patch_157">
    <path d="M 187.572728 299.700832 
L 188.395164 299.700832 
L 188.395164 296.282571 
L 187.572728 296.282571 
z
" clip-path="url(#pa4982ce4fd)" style="fill: #ff0000"/>
   </g>
   <g id="patch_158">
    <path d="M 187.572728 299.700832 
L 188.395164 299.700832 
L 188.395164 297.440003 
L 187.572728 297.440003 
z
" clip-path="url(#pa4982ce4fd)" style="fill: #ff0000"/>
   </g>
   <g id="patch_159">
    <path d="M 187.572728 299.700832 
L 188.395164 299.700832 
L 188.395164 297.261042 
L 187.572728 297.261042 
z
" clip-path="url(#pa4982ce4fd)" style="fill: #ff0000"/>
   </g>
   <g id="patch_160">
    <path d="M 187.572728 299.700832 
L 188.395164 299.700832 
L 188.395164 298.552106 
L 187.572728 298.552106 
z
" clip-path="url(#pa4982ce4fd)" style="fill: #ff0000"/>
   </g>
   <g id="patch_161">
    <path d="M 187.572728 299.700832 
L 188.395164 299.700832 
L 188.395164 297.399928 
L 187.572728 297.399928 
z
" clip-path="url(#pa4982ce4fd)" style="fill: #ff0000"/>
   </g>
   <g id="patch_162">
    <path d="M 187.572728 299.700832 
L 188.395164 299.700832 
L 188.395164 292.883635 
L 187.572728 292.883635 
z
" clip-path="url(#pa4982ce4fd)" style="fill: #ff0000"/>
   </g>
   <g id="patch_163">
    <path d="M 212.102167 299.700832 
L 212.924604 299.700832 
L 212.924604 279.433689 
L 212.102167 279.433689 
z
" clip-path="url(#pa4982ce4fd)" style="fill: #ff0000"/>
   </g>
   <g id="patch_164">
    <path d="M 234.074103 299.700832 
L 234.89654 299.700832 
L 234.89654 297.370115 
L 234.074103 297.370115 
z
" clip-path="url(#pa4982ce4fd)" style="fill: #ff0000"/>
   </g>
   <g id="patch_165">
    <path d="M 234.074103 299.700832 
L 234.89654 299.700832 
L 234.89654 289.628995 
L 234.074103 289.628995 
z
" clip-path="url(#pa4982ce4fd)" style="fill: #ff0000"/>
   </g>
   <g id="patch_166">
    <path d="M 234.074103 299.700832 
L 234.89654 299.700832 
L 234.89654 292.489119 
L 234.074103 292.489119 
z
" clip-path="url(#pa4982ce4fd)" style="fill: #ff0000"/>
   </g>
   <g id="patch_167">
    <path d="M 234.074103 299.700832 
L 234.89654 299.700832 
L 234.89654 294.980059 
L 234.074103 294.980059 
z
" clip-path="url(#pa4982ce4fd)" style="fill: #ff0000"/>
   </g>
   <g id="patch_168">
    <path d="M 234.074103 299.700832 
L 234.89654 299.700832 
L 234.89654 293.593292 
L 234.074103 293.593292 
z
" clip-path="url(#pa4982ce4fd)" style="fill: #ff0000"/>
   </g>
   <g id="patch_169">
    <path d="M 234.074103 299.700832 
L 234.89654 299.700832 
L 234.89654 294.245814 
L 234.074103 294.245814 
z
" clip-path="url(#pa4982ce4fd)" style="fill: #ff0000"/>
   </g>
   <g id="patch_170">
    <path d="M 245.348335 299.700832 
L 246.170772 299.700832 
L 246.170772 281.285381 
L 245.348335 281.285381 
z
" clip-path="url(#pa4982ce4fd)" style="fill: #ff0000"/>
   </g>
   <g id="patch_171">
    <path d="M 245.348335 299.700832 
L 246.170772 299.700832 
L 246.170772 287.016498 
L 245.348335 287.016498 
z
" clip-path="url(#pa4982ce4fd)" style="fill: #ff0000"/>
   </g>
   <g id="patch_172">
    <path d="M 255.784477 299.700832 
L 256.606914 299.700832 
L 256.606914 66.96 
L 255.784477 66.96 
z
" clip-path="url(#pa4982ce4fd)" style="fill: #ff0000"/>
   </g>
   <g id="patch_173">
    <path d="M 266.743195 299.700832 
L 267.565632 299.700832 
L 267.565632 296.48257 
L 266.743195 296.48257 
z
" clip-path="url(#pa4982ce4fd)" style="fill: #ff0000"/>
   </g>
   <g id="patch_174">
    <path d="M 276.641491 299.700832 
L 277.463928 299.700832 
L 277.463928 282.223125 
L 276.641491 282.223125 
z
" clip-path="url(#pa4982ce4fd)" style="fill: #ff0000"/>
   </g>
   <g id="patch_175">
    <path d="M 293.491019 299.700832 
L 294.313456 299.700832 
L 294.313456 252.905885 
L 293.491019 252.905885 
z
" clip-path="url(#pa4982ce4fd)" style="fill: #ff0000"/>
   </g>
   <g id="patch_176">
    <path d="M 295.57946 299.700832 
L 296.401896 299.700832 
L 296.401896 277.522199 
L 295.57946 277.522199 
z
" clip-path="url(#pa4982ce4fd)" style="fill: #ff0000"/>
   </g>
   <g id="patch_177">
    <path d="M 295.57946 299.700832 
L 296.401896 299.700832 
L 296.401896 294.502762 
L 295.57946 294.502762 
z
" clip-path="url(#pa4982ce4fd)" style="fill: #ff0000"/>
   </g>
   <g id="patch_178">
    <path d="M 295.57946 299.700832 
L 296.401896 299.700832 
L 296.401896 296.086448 
L 295.57946 296.086448 
z
" clip-path="url(#pa4982ce4fd)" style="fill: #ff0000"/>
   </g>
   <g id="patch_179">
    <path d="M 295.57946 299.700832 
L 296.401896 299.700832 
L 296.401896 293.727451 
L 295.57946 293.727451 
z
" clip-path="url(#pa4982ce4fd)" style="fill: #ff0000"/>
   </g>
   <g id="patch_180">
    <path d="M 298.070071 299.700832 
L 298.892507 299.700832 
L 298.892507 275.156484 
L 298.070071 275.156484 
z
" clip-path="url(#pa4982ce4fd)" style="fill: #ff0000"/>
   </g>
   <g id="patch_181">
    <path d="M 306.05072 299.700832 
L 306.873156 299.700832 
L 306.873156 244.72007 
L 306.05072 244.72007 
z
" clip-path="url(#pa4982ce4fd)" style="fill: #ff0000"/>
   </g>
   <g id="patch_182">
    <path d="M 314.797879 299.700832 
L 315.620315 299.700832 
L 315.620315 275.199922 
L 314.797879 275.199922 
z
" clip-path="url(#pa4982ce4fd)" style="fill: #ff0000"/>
   </g>
   <g id="patch_183">
    <path d="M 329.101144 299.700832 
L 329.92358 299.700832 
L 329.92358 287.57822 
L 329.101144 287.57822 
z
" clip-path="url(#pa4982ce4fd)" style="fill: #ff0000"/>
   </g>
   <g id="patch_184">
    <path d="M 338.593979 299.700832 
L 339.416415 299.700832 
L 339.416415 292.050812 
L 338.593979 292.050812 
z
" clip-path="url(#pa4982ce4fd)" style="fill: #ff0000"/>
   </g>
   <g id="patch_185">
    <path d="M 348.859356 299.700832 
L 349.681792 299.700832 
L 349.681792 282.854982 
L 348.859356 282.854982 
z
" clip-path="url(#pa4982ce4fd)" style="fill: #ff0000"/>
   </g>
   <g id="patch_186">
    <path d="M 359.378043 299.700832 
L 360.200479 299.700832 
L 360.200479 291.164787 
L 359.378043 291.164787 
z
" clip-path="url(#pa4982ce4fd)" style="fill: #ff0000"/>
   </g>
   <g id="patch_187">
    <path d="M 377.107852 299.700832 
L 377.930288 299.700832 
L 377.930288 234.750183 
L 377.107852 234.750183 
z
" clip-path="url(#pa4982ce4fd)" style="fill: #ff0000"/>
   </g>
   <g id="patch_188">
    <path d="M 377.107852 299.700832 
L 377.930288 299.700832 
L 377.930288 258.199398 
L 377.107852 258.199398 
z
" clip-path="url(#pa4982ce4fd)" style="fill: #ff0000"/>
   </g>
   <g id="patch_189">
    <path d="M 377.107852 299.700832 
L 377.930288 299.700832 
L 377.930288 228.619386 
L 377.107852 228.619386 
z
" clip-path="url(#pa4982ce4fd)" style="fill: #ff0000"/>
   </g>
   <g id="patch_190">
    <path d="M 381.731041 299.700832 
L 382.553477 299.700832 
L 382.553477 142.97746 
L 381.731041 142.97746 
z
" clip-path="url(#pa4982ce4fd)" style="fill: #ff0000"/>
   </g>
   <g id="patch_191">
    <path d="M 390.39486 299.700832 
L 391.217296 299.700832 
L 391.217296 287.040366 
L 390.39486 287.040366 
z
" clip-path="url(#pa4982ce4fd)" style="fill: #ff0000"/>
   </g>
   <g id="patch_192">
    <path d="M 390.39486 299.700832 
L 391.217296 299.700832 
L 391.217296 289.725072 
L 390.39486 289.725072 
z
" clip-path="url(#pa4982ce4fd)" style="fill: #ff0000"/>
   </g>
   <g id="patch_193">
    <path d="M 403.097116 299.700832 
L 403.919552 299.700832 
L 403.919552 186.174328 
L 403.097116 186.174328 
z
" clip-path="url(#pa4982ce4fd)" style="fill: #ff0000"/>
   </g>
   <g id="patch_194">
    <path d="M 418.397174 299.700832 
L 419.21961 299.700832 
L 419.21961 251.695681 
L 418.397174 251.695681 
z
" clip-path="url(#pa4982ce4fd)" style="fill: #ff0000"/>
   </g>
   <g id="patch_195">
    <path d="M 418.397174 299.700832 
L 419.21961 299.700832 
L 419.21961 267.306152 
L 418.397174 267.306152 
z
" clip-path="url(#pa4982ce4fd)" style="fill: #ff0000"/>
   </g>
   <g id="patch_196">
    <path d="M 418.397174 299.700832 
L 419.21961 299.700832 
L 419.21961 185.066385 
L 418.397174 185.066385 
z
" clip-path="url(#pa4982ce4fd)" style="fill: #ff0000"/>
   </g>
   <g id="patch_197">
    <path d="M 418.397174 299.700832 
L 419.21961 299.700832 
L 419.21961 230.805036 
L 418.397174 230.805036 
z
" clip-path="url(#pa4982ce4fd)" style="fill: #ff0000"/>
   </g>
   <g id="patch_198">
    <path d="M 418.397174 299.700832 
L 419.21961 299.700832 
L 419.21961 269.361464 
L 418.397174 269.361464 
z
" clip-path="url(#pa4982ce4fd)" style="fill: #ff0000"/>
   </g>
   <g id="patch_199">
    <path d="M 418.397174 299.700832 
L 419.21961 299.700832 
L 419.21961 266.054483 
L 418.397174 266.054483 
z
" clip-path="url(#pa4982ce4fd)" style="fill: #ff0000"/>
   </g>
   <g id="patch_200">
    <path d="M 418.397174 299.700832 
L 419.21961 299.700832 
L 419.21961 275.953809 
L 418.397174 275.953809 
z
" clip-path="url(#pa4982ce4fd)" style="fill: #ff0000"/>
   </g>
   <g id="patch_201">
    <path d="M 418.397174 299.700832 
L 419.21961 299.700832 
L 419.21961 275.485913 
L 418.397174 275.485913 
z
" clip-path="url(#pa4982ce4fd)" style="fill: #ff0000"/>
   </g>
   <g id="patch_202">
    <path d="M 435.734407 299.700832 
L 436.556843 299.700832 
L 436.556843 250.897975 
L 435.734407 250.897975 
z
" clip-path="url(#pa4982ce4fd)" style="fill: #ff0000"/>
   </g>
   <g id="patch_203">
    <path d="M 466.671448 299.700832 
L 467.493884 299.700832 
L 467.493884 291.3474 
L 466.671448 291.3474 
z
" clip-path="url(#pa4982ce4fd)" style="fill: #ff0000"/>
   </g>
   <g id="patch_204">
    <path d="M 495.995143 299.700832 
L 496.817579 299.700832 
L 496.817579 99.620664 
L 495.995143 99.620664 
z
" clip-path="url(#pa4982ce4fd)" style="fill: #ff0000"/>
   </g>
   <g id="patch_205">
    <path d="M 539.054073 299.700832 
L 539.87651 299.700832 
L 539.87651 278.854816 
L 539.054073 278.854816 
z
" clip-path="url(#pa4982ce4fd)" style="fill: #ff0000"/>
   </g>
   <g id="patch_206">
    <path d="M 539.054073 299.700832 
L 539.87651 299.700832 
L 539.87651 266.06512 
L 539.054073 266.06512 
z
" clip-path="url(#pa4982ce4fd)" style="fill: #ff0000"/>
   </g>
   <g id="patch_207">
    <path d="M 539.054073 299.700832 
L 539.87651 299.700832 
L 539.87651 292.717638 
L 539.054073 292.717638 
z
" clip-path="url(#pa4982ce4fd)" style="fill: #ff0000"/>
   </g>
   <g id="patch_208">
    <path d="M 539.054073 299.700832 
L 539.87651 299.700832 
L 539.87651 296.391173 
L 539.054073 296.391173 
z
" clip-path="url(#pa4982ce4fd)" style="fill: #ff0000"/>
   </g>
   <g id="patch_209">
    <path d="M 564.754388 299.700832 
L 565.576824 299.700832 
L 565.576824 221.85878 
L 564.754388 221.85878 
z
" clip-path="url(#pa4982ce4fd)" style="fill: #ff0000"/>
   </g>
   <g id="patch_210">
    <path d="M 577.463497 299.700832 
L 578.285934 299.700832 
L 578.285934 296.941556 
L 577.463497 296.941556 
z
" clip-path="url(#pa4982ce4fd)" style="fill: #ff0000"/>
   </g>
   <g id="patch_211">
    <path d="M 599.325501 299.700832 
L 600.147937 299.700832 
L 600.147937 252.928313 
L 599.325501 252.928313 
z
" clip-path="url(#pa4982ce4fd)" style="fill: #ff0000"/>
   </g>
   <g id="patch_212">
    <path d="M 599.325501 299.700832 
L 600.147937 299.700832 
L 600.147937 272.00096 
L 599.325501 272.00096 
z
" clip-path="url(#pa4982ce4fd)" style="fill: #ff0000"/>
   </g>
   <g id="patch_213">
    <path d="M 599.325501 299.700832 
L 600.147937 299.700832 
L 600.147937 262.478881 
L 599.325501 262.478881 
z
" clip-path="url(#pa4982ce4fd)" style="fill: #ff0000"/>
   </g>
   <g id="patch_214">
    <path d="M 619.894909 299.700832 
L 620.717345 299.700832 
L 620.717345 295.984554 
L 619.894909 295.984554 
z
" clip-path="url(#pa4982ce4fd)" style="fill: #ff0000"/>
   </g>
   <g id="patch_215">
    <path d="M 619.894909 299.700832 
L 620.717345 299.700832 
L 620.717345 296.468114 
L 619.894909 296.468114 
z
" clip-path="url(#pa4982ce4fd)" style="fill: #ff0000"/>
   </g>
   <g id="patch_216">
    <path d="M 619.894909 299.700832 
L 620.717345 299.700832 
L 620.717345 257.526827 
L 619.894909 257.526827 
z
" clip-path="url(#pa4982ce4fd)" style="fill: #ff0000"/>
   </g>
   <g id="patch_217">
    <path d="M 619.894909 299.700832 
L 620.717345 299.700832 
L 620.717345 299.378695 
L 619.894909 299.378695 
z
" clip-path="url(#pa4982ce4fd)" style="fill: #ff0000"/>
   </g>
   <g id="patch_218">
    <path d="M 619.894909 299.700832 
L 620.717345 299.700832 
L 620.717345 299.408545 
L 619.894909 299.408545 
z
" clip-path="url(#pa4982ce4fd)" style="fill: #ff0000"/>
   </g>
   <g id="patch_219">
    <path d="M 619.894909 299.700832 
L 620.717345 299.700832 
L 620.717345 292.666247 
L 619.894909 292.666247 
z
" clip-path="url(#pa4982ce4fd)" style="fill: #ff0000"/>
   </g>
   <g id="patch_220">
    <path d="M 619.894909 299.700832 
L 620.717345 299.700832 
L 620.717345 258.811699 
L 619.894909 258.811699 
z
" clip-path="url(#pa4982ce4fd)" style="fill: #ff0000"/>
   </g>
   <g id="patch_221">
    <path d="M 619.894909 299.700832 
L 620.717345 299.700832 
L 620.717345 269.777474 
L 619.894909 269.777474 
z
" clip-path="url(#pa4982ce4fd)" style="fill: #ff0000"/>
   </g>
   <g id="patch_222">
    <path d="M 619.894909 299.700832 
L 620.717345 299.700832 
L 620.717345 272.903483 
L 619.894909 272.903483 
z
" clip-path="url(#pa4982ce4fd)" style="fill: #ff0000"/>
   </g>
   <g id="patch_223">
    <path d="M 619.894909 299.700832 
L 620.717345 299.700832 
L 620.717345 296.719888 
L 619.894909 296.719888 
z
" clip-path="url(#pa4982ce4fd)" style="fill: #ff0000"/>
   </g>
   <g id="patch_224">
    <path d="M 619.894909 299.700832 
L 620.717345 299.700832 
L 620.717345 202.062878 
L 619.894909 202.062878 
z
" clip-path="url(#pa4982ce4fd)" style="fill: #ff0000"/>
   </g>
   <g id="patch_225">
    <path d="M 619.894909 299.700832 
L 620.717345 299.700832 
L 620.717345 299.087291 
L 619.894909 299.087291 
z
" clip-path="url(#pa4982ce4fd)" style="fill: #ff0000"/>
   </g>
   <g id="patch_226">
    <path d="M 619.894909 299.700832 
L 620.717345 299.700832 
L 620.717345 259.226017 
L 619.894909 259.226017 
z
" clip-path="url(#pa4982ce4fd)" style="fill: #ff0000"/>
   </g>
   <g id="patch_227">
    <path d="M 619.894909 299.700832 
L 620.717345 299.700832 
L 620.717345 298.482072 
L 619.894909 298.482072 
z
" clip-path="url(#pa4982ce4fd)" style="fill: #ff0000"/>
   </g>
   <g id="patch_228">
    <path d="M 619.894909 299.700832 
L 620.717345 299.700832 
L 620.717345 282.185973 
L 619.894909 282.185973 
z
" clip-path="url(#pa4982ce4fd)" style="fill: #ff0000"/>
   </g>
   <g id="patch_229">
    <path d="M 619.894909 299.700832 
L 620.717345 299.700832 
L 620.717345 297.899615 
L 619.894909 297.899615 
z
" clip-path="url(#pa4982ce4fd)" style="fill: #ff0000"/>
   </g>
   <g id="patch_230">
    <path d="M 619.894909 299.700832 
L 620.717345 299.700832 
L 620.717345 249.694333 
L 619.894909 249.694333 
z
" clip-path="url(#pa4982ce4fd)" style="fill: #ff0000"/>
   </g>
   <g id="patch_231">
    <path d="M 619.894909 299.700832 
L 620.717345 299.700832 
L 620.717345 285.149331 
L 619.894909 285.149331 
z
" clip-path="url(#pa4982ce4fd)" style="fill: #ff0000"/>
   </g>
   <g id="patch_232">
    <path d="M 619.894909 299.700832 
L 620.717345 299.700832 
L 620.717345 297.763531 
L 619.894909 297.763531 
z
" clip-path="url(#pa4982ce4fd)" style="fill: #ff0000"/>
   </g>
   <g id="patch_233">
    <path d="M 619.894909 299.700832 
L 620.717345 299.700832 
L 620.717345 206.948097 
L 619.894909 206.948097 
z
" clip-path="url(#pa4982ce4fd)" style="fill: #ff0000"/>
   </g>
   <g id="matplotlib.axis_1">
    <g id="xtick_1">
     <g id="line2d_1">
      <defs>
       <path id="m8eb0b65380" d="M 0 0 
L 0 3.5 
" style="stroke: #000000; stroke-width: 0.8"/>
      </defs>
      <g>
       <use xlink:href="#m8eb0b65380" x="149.238146" y="384.48" style="stroke: #000000; stroke-width: 0.8"/>
      </g>
     </g>
     <g id="text_1">
      <!-- 3500 -->
      <g transform="translate(136.513146 399.078438) scale(0.1 -0.1)">
       <defs>
        <path id="DejaVuSans-33" d="M 2597 2516 
Q 3050 2419 3304 2112 
Q 3559 1806 3559 1356 
Q 3559 666 3084 287 
Q 2609 -91 1734 -91 
Q 1441 -91 1130 -33 
Q 819 25 488 141 
L 488 750 
Q 750 597 1062 519 
Q 1375 441 1716 441 
Q 2309 441 2620 675 
Q 2931 909 2931 1356 
Q 2931 1769 2642 2001 
Q 2353 2234 1838 2234 
L 1294 2234 
L 1294 2753 
L 1863 2753 
Q 2328 2753 2575 2939 
Q 2822 3125 2822 3475 
Q 2822 3834 2567 4026 
Q 2313 4219 1838 4219 
Q 1578 4219 1281 4162 
Q 984 4106 628 3988 
L 628 4550 
Q 988 4650 1302 4700 
Q 1616 4750 1894 4750 
Q 2613 4750 3031 4423 
Q 3450 4097 3450 3541 
Q 3450 3153 3228 2886 
Q 3006 2619 2597 2516 
z
" transform="scale(0.015625)"/>
        <path id="DejaVuSans-35" d="M 691 4666 
L 3169 4666 
L 3169 4134 
L 1269 4134 
L 1269 2991 
Q 1406 3038 1543 3061 
Q 1681 3084 1819 3084 
Q 2600 3084 3056 2656 
Q 3513 2228 3513 1497 
Q 3513 744 3044 326 
Q 2575 -91 1722 -91 
Q 1428 -91 1123 -41 
Q 819 9 494 109 
L 494 744 
Q 775 591 1075 516 
Q 1375 441 1709 441 
Q 2250 441 2565 725 
Q 2881 1009 2881 1497 
Q 2881 1984 2565 2268 
Q 2250 2553 1709 2553 
Q 1456 2553 1204 2497 
Q 953 2441 691 2322 
L 691 4666 
z
" transform="scale(0.015625)"/>
        <path id="DejaVuSans-30" d="M 2034 4250 
Q 1547 4250 1301 3770 
Q 1056 3291 1056 2328 
Q 1056 1369 1301 889 
Q 1547 409 2034 409 
Q 2525 409 2770 889 
Q 3016 1369 3016 2328 
Q 3016 3291 2770 3770 
Q 2525 4250 2034 4250 
z
M 2034 4750 
Q 2819 4750 3233 4129 
Q 3647 3509 3647 2328 
Q 3647 1150 3233 529 
Q 2819 -91 2034 -91 
Q 1250 -91 836 529 
Q 422 1150 422 2328 
Q 422 3509 836 4129 
Q 1250 4750 2034 4750 
z
" transform="scale(0.015625)"/>
       </defs>
       <use xlink:href="#DejaVuSans-33"/>
       <use xlink:href="#DejaVuSans-35" x="63.623047"/>
       <use xlink:href="#DejaVuSans-30" x="127.246094"/>
       <use xlink:href="#DejaVuSans-30" x="190.869141"/>
      </g>
     </g>
    </g>
    <g id="xtick_2">
     <g id="line2d_2">
      <g>
       <use xlink:href="#m8eb0b65380" x="217.774511" y="384.48" style="stroke: #000000; stroke-width: 0.8"/>
      </g>
     </g>
     <g id="text_2">
      <!-- 3750 -->
      <g transform="translate(205.049511 399.078438) scale(0.1 -0.1)">
       <defs>
        <path id="DejaVuSans-37" d="M 525 4666 
L 3525 4666 
L 3525 4397 
L 1831 0 
L 1172 0 
L 2766 4134 
L 525 4134 
L 525 4666 
z
" transform="scale(0.015625)"/>
       </defs>
       <use xlink:href="#DejaVuSans-33"/>
       <use xlink:href="#DejaVuSans-37" x="63.623047"/>
       <use xlink:href="#DejaVuSans-35" x="127.246094"/>
       <use xlink:href="#DejaVuSans-30" x="190.869141"/>
      </g>
     </g>
    </g>
    <g id="xtick_3">
     <g id="line2d_3">
      <g>
       <use xlink:href="#m8eb0b65380" x="286.310876" y="384.48" style="stroke: #000000; stroke-width: 0.8"/>
      </g>
     </g>
     <g id="text_3">
      <!-- 4000 -->
      <g transform="translate(273.585876 399.078438) scale(0.1 -0.1)">
       <defs>
        <path id="DejaVuSans-34" d="M 2419 4116 
L 825 1625 
L 2419 1625 
L 2419 4116 
z
M 2253 4666 
L 3047 4666 
L 3047 1625 
L 3713 1625 
L 3713 1100 
L 3047 1100 
L 3047 0 
L 2419 0 
L 2419 1100 
L 313 1100 
L 313 1709 
L 2253 4666 
z
" transform="scale(0.015625)"/>
       </defs>
       <use xlink:href="#DejaVuSans-34"/>
       <use xlink:href="#DejaVuSans-30" x="63.623047"/>
       <use xlink:href="#DejaVuSans-30" x="127.246094"/>
       <use xlink:href="#DejaVuSans-30" x="190.869141"/>
      </g>
     </g>
    </g>
    <g id="xtick_4">
     <g id="line2d_4">
      <g>
       <use xlink:href="#m8eb0b65380" x="354.847241" y="384.48" style="stroke: #000000; stroke-width: 0.8"/>
      </g>
     </g>
     <g id="text_4">
      <!-- 4250 -->
      <g transform="translate(342.122241 399.078438) scale(0.1 -0.1)">
       <defs>
        <path id="DejaVuSans-32" d="M 1228 531 
L 3431 531 
L 3431 0 
L 469 0 
L 469 531 
Q 828 903 1448 1529 
Q 2069 2156 2228 2338 
Q 2531 2678 2651 2914 
Q 2772 3150 2772 3378 
Q 2772 3750 2511 3984 
Q 2250 4219 1831 4219 
Q 1534 4219 1204 4116 
Q 875 4013 500 3803 
L 500 4441 
Q 881 4594 1212 4672 
Q 1544 4750 1819 4750 
Q 2544 4750 2975 4387 
Q 3406 4025 3406 3419 
Q 3406 3131 3298 2873 
Q 3191 2616 2906 2266 
Q 2828 2175 2409 1742 
Q 1991 1309 1228 531 
z
" transform="scale(0.015625)"/>
       </defs>
       <use xlink:href="#DejaVuSans-34"/>
       <use xlink:href="#DejaVuSans-32" x="63.623047"/>
       <use xlink:href="#DejaVuSans-35" x="127.246094"/>
       <use xlink:href="#DejaVuSans-30" x="190.869141"/>
      </g>
     </g>
    </g>
    <g id="xtick_5">
     <g id="line2d_5">
      <g>
       <use xlink:href="#m8eb0b65380" x="423.383606" y="384.48" style="stroke: #000000; stroke-width: 0.8"/>
      </g>
     </g>
     <g id="text_5">
      <!-- 4500 -->
      <g transform="translate(410.658606 399.078438) scale(0.1 -0.1)">
       <use xlink:href="#DejaVuSans-34"/>
       <use xlink:href="#DejaVuSans-35" x="63.623047"/>
       <use xlink:href="#DejaVuSans-30" x="127.246094"/>
       <use xlink:href="#DejaVuSans-30" x="190.869141"/>
      </g>
     </g>
    </g>
    <g id="xtick_6">
     <g id="line2d_6">
      <g>
       <use xlink:href="#m8eb0b65380" x="491.91997" y="384.48" style="stroke: #000000; stroke-width: 0.8"/>
      </g>
     </g>
     <g id="text_6">
      <!-- 4750 -->
      <g transform="translate(479.19497 399.078438) scale(0.1 -0.1)">
       <use xlink:href="#DejaVuSans-34"/>
       <use xlink:href="#DejaVuSans-37" x="63.623047"/>
       <use xlink:href="#DejaVuSans-35" x="127.246094"/>
       <use xlink:href="#DejaVuSans-30" x="190.869141"/>
      </g>
     </g>
    </g>
    <g id="xtick_7">
     <g id="line2d_7">
      <g>
       <use xlink:href="#m8eb0b65380" x="560.456335" y="384.48" style="stroke: #000000; stroke-width: 0.8"/>
      </g>
     </g>
     <g id="text_7">
      <!-- 5000 -->
      <g transform="translate(547.731335 399.078438) scale(0.1 -0.1)">
       <use xlink:href="#DejaVuSans-35"/>
       <use xlink:href="#DejaVuSans-30" x="63.623047"/>
       <use xlink:href="#DejaVuSans-30" x="127.246094"/>
       <use xlink:href="#DejaVuSans-30" x="190.869141"/>
      </g>
     </g>
    </g>
    <g id="xtick_8">
     <g id="line2d_8">
      <g>
       <use xlink:href="#m8eb0b65380" x="628.9927" y="384.48" style="stroke: #000000; stroke-width: 0.8"/>
      </g>
     </g>
     <g id="text_8">
      <!-- 5250 -->
      <g transform="translate(616.2677 399.078438) scale(0.1 -0.1)">
       <use xlink:href="#DejaVuSans-35"/>
       <use xlink:href="#DejaVuSans-32" x="63.623047"/>
       <use xlink:href="#DejaVuSans-35" x="127.246094"/>
       <use xlink:href="#DejaVuSans-30" x="190.869141"/>
      </g>
     </g>
    </g>
   </g>
   <g id="matplotlib.axis_2">
    <g id="ytick_1">
     <g id="line2d_9">
      <defs>
       <path id="m545c2ccf08" d="M 0 0 
L -3.5 0 
" style="stroke: #000000; stroke-width: 0.8"/>
      </defs>
      <g>
       <use xlink:href="#m545c2ccf08" x="90" y="346.248998" style="stroke: #000000; stroke-width: 0.8"/>
      </g>
     </g>
     <g id="text_9">
      <!-- 0.2 -->
      <g transform="translate(58.717187 350.048217) scale(0.1 -0.1)">
       <defs>
        <path id="DejaVuSans-2212" d="M 678 2272 
L 4684 2272 
L 4684 1741 
L 678 1741 
L 678 2272 
z
" transform="scale(0.015625)"/>
        <path id="DejaVuSans-2e" d="M 684 794 
L 1344 794 
L 1344 0 
L 684 0 
L 684 794 
z
" transform="scale(0.015625)"/>
       </defs>
       <use xlink:href="#DejaVuSans-2212"/>
       <use xlink:href="#DejaVuSans-30" x="83.789062"/>
       <use xlink:href="#DejaVuSans-2e" x="147.412109"/>
       <use xlink:href="#DejaVuSans-32" x="179.199219"/>
      </g>
     </g>
    </g>
    <g id="ytick_2">
     <g id="line2d_10">
      <g>
       <use xlink:href="#m545c2ccf08" x="90" y="299.700832" style="stroke: #000000; stroke-width: 0.8"/>
      </g>
     </g>
     <g id="text_10">
      <!-- 0.0 -->
      <g transform="translate(67.096875 303.500051) scale(0.1 -0.1)">
       <use xlink:href="#DejaVuSans-30"/>
       <use xlink:href="#DejaVuSans-2e" x="63.623047"/>
       <use xlink:href="#DejaVuSans-30" x="95.410156"/>
      </g>
     </g>
    </g>
    <g id="ytick_3">
     <g id="line2d_11">
      <g>
       <use xlink:href="#m545c2ccf08" x="90" y="253.152666" style="stroke: #000000; stroke-width: 0.8"/>
      </g>
     </g>
     <g id="text_11">
      <!-- 0.2 -->
      <g transform="translate(67.096875 256.951884) scale(0.1 -0.1)">
       <use xlink:href="#DejaVuSans-30"/>
       <use xlink:href="#DejaVuSans-2e" x="63.623047"/>
       <use xlink:href="#DejaVuSans-32" x="95.410156"/>
      </g>
     </g>
    </g>
    <g id="ytick_4">
     <g id="line2d_12">
      <g>
       <use xlink:href="#m545c2ccf08" x="90" y="206.604499" style="stroke: #000000; stroke-width: 0.8"/>
      </g>
     </g>
     <g id="text_12">
      <!-- 0.4 -->
      <g transform="translate(67.096875 210.403718) scale(0.1 -0.1)">
       <use xlink:href="#DejaVuSans-30"/>
       <use xlink:href="#DejaVuSans-2e" x="63.623047"/>
       <use xlink:href="#DejaVuSans-34" x="95.410156"/>
      </g>
     </g>
    </g>
    <g id="ytick_5">
     <g id="line2d_13">
      <g>
       <use xlink:href="#m545c2ccf08" x="90" y="160.056333" style="stroke: #000000; stroke-width: 0.8"/>
      </g>
     </g>
     <g id="text_13">
      <!-- 0.6 -->
      <g transform="translate(67.096875 163.855552) scale(0.1 -0.1)">
       <defs>
        <path id="DejaVuSans-36" d="M 2113 2584 
Q 1688 2584 1439 2293 
Q 1191 2003 1191 1497 
Q 1191 994 1439 701 
Q 1688 409 2113 409 
Q 2538 409 2786 701 
Q 3034 994 3034 1497 
Q 3034 2003 2786 2293 
Q 2538 2584 2113 2584 
z
M 3366 4563 
L 3366 3988 
Q 3128 4100 2886 4159 
Q 2644 4219 2406 4219 
Q 1781 4219 1451 3797 
Q 1122 3375 1075 2522 
Q 1259 2794 1537 2939 
Q 1816 3084 2150 3084 
Q 2853 3084 3261 2657 
Q 3669 2231 3669 1497 
Q 3669 778 3244 343 
Q 2819 -91 2113 -91 
Q 1303 -91 875 529 
Q 447 1150 447 2328 
Q 447 3434 972 4092 
Q 1497 4750 2381 4750 
Q 2619 4750 2861 4703 
Q 3103 4656 3366 4563 
z
" transform="scale(0.015625)"/>
       </defs>
       <use xlink:href="#DejaVuSans-30"/>
       <use xlink:href="#DejaVuSans-2e" x="63.623047"/>
       <use xlink:href="#DejaVuSans-36" x="95.410156"/>
      </g>
     </g>
    </g>
    <g id="ytick_6">
     <g id="line2d_14">
      <g>
       <use xlink:href="#m545c2ccf08" x="90" y="113.508166" style="stroke: #000000; stroke-width: 0.8"/>
      </g>
     </g>
     <g id="text_14">
      <!-- 0.8 -->
      <g transform="translate(67.096875 117.307385) scale(0.1 -0.1)">
       <defs>
        <path id="DejaVuSans-38" d="M 2034 2216 
Q 1584 2216 1326 1975 
Q 1069 1734 1069 1313 
Q 1069 891 1326 650 
Q 1584 409 2034 409 
Q 2484 409 2743 651 
Q 3003 894 3003 1313 
Q 3003 1734 2745 1975 
Q 2488 2216 2034 2216 
z
M 1403 2484 
Q 997 2584 770 2862 
Q 544 3141 544 3541 
Q 544 4100 942 4425 
Q 1341 4750 2034 4750 
Q 2731 4750 3128 4425 
Q 3525 4100 3525 3541 
Q 3525 3141 3298 2862 
Q 3072 2584 2669 2484 
Q 3125 2378 3379 2068 
Q 3634 1759 3634 1313 
Q 3634 634 3220 271 
Q 2806 -91 2034 -91 
Q 1263 -91 848 271 
Q 434 634 434 1313 
Q 434 1759 690 2068 
Q 947 2378 1403 2484 
z
M 1172 3481 
Q 1172 3119 1398 2916 
Q 1625 2713 2034 2713 
Q 2441 2713 2670 2916 
Q 2900 3119 2900 3481 
Q 2900 3844 2670 4047 
Q 2441 4250 2034 4250 
Q 1625 4250 1398 4047 
Q 1172 3844 1172 3481 
z
" transform="scale(0.015625)"/>
       </defs>
       <use xlink:href="#DejaVuSans-30"/>
       <use xlink:href="#DejaVuSans-2e" x="63.623047"/>
       <use xlink:href="#DejaVuSans-38" x="95.410156"/>
      </g>
     </g>
    </g>
    <g id="ytick_7">
     <g id="line2d_15">
      <g>
       <use xlink:href="#m545c2ccf08" x="90" y="66.96" style="stroke: #000000; stroke-width: 0.8"/>
      </g>
     </g>
     <g id="text_15">
      <!-- 1.0 -->
      <g transform="translate(67.096875 70.759219) scale(0.1 -0.1)">
       <defs>
        <path id="DejaVuSans-31" d="M 794 531 
L 1825 531 
L 1825 4091 
L 703 3866 
L 703 4441 
L 1819 4666 
L 2450 4666 
L 2450 531 
L 3481 531 
L 3481 0 
L 794 0 
L 794 531 
z
" transform="scale(0.015625)"/>
       </defs>
       <use xlink:href="#DejaVuSans-31"/>
       <use xlink:href="#DejaVuSans-2e" x="63.623047"/>
       <use xlink:href="#DejaVuSans-30" x="95.410156"/>
      </g>
     </g>
    </g>
   </g>
   <g id="patch_234">
    <path d="M 90 384.48 
L 90 51.84 
" style="fill: none; stroke: #000000; stroke-width: 0.8; stroke-linejoin: miter; stroke-linecap: square"/>
   </g>
   <g id="patch_235">
    <path d="M 648 384.48 
L 648 51.84 
" style="fill: none; stroke: #000000; stroke-width: 0.8; stroke-linejoin: miter; stroke-linecap: square"/>
   </g>
   <g id="patch_236">
    <path d="M 90 384.48 
L 648 384.48 
" style="fill: none; stroke: #000000; stroke-width: 0.8; stroke-linejoin: miter; stroke-linecap: square"/>
   </g>
   <g id="patch_237">
    <path d="M 90 51.84 
L 648 51.84 
" style="fill: none; stroke: #000000; stroke-width: 0.8; stroke-linejoin: miter; stroke-linecap: square"/>
   </g>
   <g id="legend_1">
    <g id="patch_238">
     <path d="M 546.635937 103.874375 
L 641 103.874375 
Q 643 103.874375 643 101.874375 
L 643 58.84 
Q 643 56.84 641 56.84 
L 546.635937 56.84 
Q 544.635937 56.84 544.635937 58.84 
L 544.635937 101.874375 
Q 544.635937 103.874375 546.635937 103.874375 
z
" style="fill: #ffffff; opacity: 0.8; stroke: #cccccc; stroke-linejoin: miter"/>
    </g>
    <g id="patch_239">
     <path d="M 548.635937 68.438437 
L 568.635937 68.438437 
L 568.635937 61.438437 
L 548.635937 61.438437 
z
" style="fill: #0000ff; opacity: 0.7"/>
    </g>
    <g id="text_16">
     <!-- Teorico -->
     <g transform="translate(576.635937 68.438437) scale(0.1 -0.1)">
      <defs>
       <path id="DejaVuSans-54" d="M -19 4666 
L 3928 4666 
L 3928 4134 
L 2272 4134 
L 2272 0 
L 1638 0 
L 1638 4134 
L -19 4134 
L -19 4666 
z
" transform="scale(0.015625)"/>
       <path id="DejaVuSans-65" d="M 3597 1894 
L 3597 1613 
L 953 1613 
Q 991 1019 1311 708 
Q 1631 397 2203 397 
Q 2534 397 2845 478 
Q 3156 559 3463 722 
L 3463 178 
Q 3153 47 2828 -22 
Q 2503 -91 2169 -91 
Q 1331 -91 842 396 
Q 353 884 353 1716 
Q 353 2575 817 3079 
Q 1281 3584 2069 3584 
Q 2775 3584 3186 3129 
Q 3597 2675 3597 1894 
z
M 3022 2063 
Q 3016 2534 2758 2815 
Q 2500 3097 2075 3097 
Q 1594 3097 1305 2825 
Q 1016 2553 972 2059 
L 3022 2063 
z
" transform="scale(0.015625)"/>
       <path id="DejaVuSans-6f" d="M 1959 3097 
Q 1497 3097 1228 2736 
Q 959 2375 959 1747 
Q 959 1119 1226 758 
Q 1494 397 1959 397 
Q 2419 397 2687 759 
Q 2956 1122 2956 1747 
Q 2956 2369 2687 2733 
Q 2419 3097 1959 3097 
z
M 1959 3584 
Q 2709 3584 3137 3096 
Q 3566 2609 3566 1747 
Q 3566 888 3137 398 
Q 2709 -91 1959 -91 
Q 1206 -91 779 398 
Q 353 888 353 1747 
Q 353 2609 779 3096 
Q 1206 3584 1959 3584 
z
" transform="scale(0.015625)"/>
       <path id="DejaVuSans-72" d="M 2631 2963 
Q 2534 3019 2420 3045 
Q 2306 3072 2169 3072 
Q 1681 3072 1420 2755 
Q 1159 2438 1159 1844 
L 1159 0 
L 581 0 
L 581 3500 
L 1159 3500 
L 1159 2956 
Q 1341 3275 1631 3429 
Q 1922 3584 2338 3584 
Q 2397 3584 2469 3576 
Q 2541 3569 2628 3553 
L 2631 2963 
z
" transform="scale(0.015625)"/>
       <path id="DejaVuSans-69" d="M 603 3500 
L 1178 3500 
L 1178 0 
L 603 0 
L 603 3500 
z
M 603 4863 
L 1178 4863 
L 1178 4134 
L 603 4134 
L 603 4863 
z
" transform="scale(0.015625)"/>
       <path id="DejaVuSans-63" d="M 3122 3366 
L 3122 2828 
Q 2878 2963 2633 3030 
Q 2388 3097 2138 3097 
Q 1578 3097 1268 2742 
Q 959 2388 959 1747 
Q 959 1106 1268 751 
Q 1578 397 2138 397 
Q 2388 397 2633 464 
Q 2878 531 3122 666 
L 3122 134 
Q 2881 22 2623 -34 
Q 2366 -91 2075 -91 
Q 1284 -91 818 406 
Q 353 903 353 1747 
Q 353 2603 823 3093 
Q 1294 3584 2113 3584 
Q 2378 3584 2631 3529 
Q 2884 3475 3122 3366 
z
" transform="scale(0.015625)"/>
      </defs>
      <use xlink:href="#DejaVuSans-54"/>
      <use xlink:href="#DejaVuSans-65" x="44.083984"/>
      <use xlink:href="#DejaVuSans-6f" x="105.607422"/>
      <use xlink:href="#DejaVuSans-72" x="166.789062"/>
      <use xlink:href="#DejaVuSans-69" x="207.902344"/>
      <use xlink:href="#DejaVuSans-63" x="235.685547"/>
      <use xlink:href="#DejaVuSans-6f" x="290.666016"/>
     </g>
    </g>
    <g id="patch_240">
     <path d="M 548.635937 83.116562 
L 568.635937 83.116562 
L 568.635937 76.116562 
L 548.635937 76.116562 
z
" style="opacity: 0.7"/>
    </g>
    <g id="text_17">
     <!-- Emp Real -->
     <g transform="translate(576.635937 83.116562) scale(0.1 -0.1)">
      <defs>
       <path id="DejaVuSans-45" d="M 628 4666 
L 3578 4666 
L 3578 4134 
L 1259 4134 
L 1259 2753 
L 3481 2753 
L 3481 2222 
L 1259 2222 
L 1259 531 
L 3634 531 
L 3634 0 
L 628 0 
L 628 4666 
z
" transform="scale(0.015625)"/>
       <path id="DejaVuSans-6d" d="M 3328 2828 
Q 3544 3216 3844 3400 
Q 4144 3584 4550 3584 
Q 5097 3584 5394 3201 
Q 5691 2819 5691 2113 
L 5691 0 
L 5113 0 
L 5113 2094 
Q 5113 2597 4934 2840 
Q 4756 3084 4391 3084 
Q 3944 3084 3684 2787 
Q 3425 2491 3425 1978 
L 3425 0 
L 2847 0 
L 2847 2094 
Q 2847 2600 2669 2842 
Q 2491 3084 2119 3084 
Q 1678 3084 1418 2786 
Q 1159 2488 1159 1978 
L 1159 0 
L 581 0 
L 581 3500 
L 1159 3500 
L 1159 2956 
Q 1356 3278 1631 3431 
Q 1906 3584 2284 3584 
Q 2666 3584 2933 3390 
Q 3200 3197 3328 2828 
z
" transform="scale(0.015625)"/>
       <path id="DejaVuSans-70" d="M 1159 525 
L 1159 -1331 
L 581 -1331 
L 581 3500 
L 1159 3500 
L 1159 2969 
Q 1341 3281 1617 3432 
Q 1894 3584 2278 3584 
Q 2916 3584 3314 3078 
Q 3713 2572 3713 1747 
Q 3713 922 3314 415 
Q 2916 -91 2278 -91 
Q 1894 -91 1617 61 
Q 1341 213 1159 525 
z
M 3116 1747 
Q 3116 2381 2855 2742 
Q 2594 3103 2138 3103 
Q 1681 3103 1420 2742 
Q 1159 2381 1159 1747 
Q 1159 1113 1420 752 
Q 1681 391 2138 391 
Q 2594 391 2855 752 
Q 3116 1113 3116 1747 
z
" transform="scale(0.015625)"/>
       <path id="DejaVuSans-20" transform="scale(0.015625)"/>
       <path id="DejaVuSans-52" d="M 2841 2188 
Q 3044 2119 3236 1894 
Q 3428 1669 3622 1275 
L 4263 0 
L 3584 0 
L 2988 1197 
Q 2756 1666 2539 1819 
Q 2322 1972 1947 1972 
L 1259 1972 
L 1259 0 
L 628 0 
L 628 4666 
L 2053 4666 
Q 2853 4666 3247 4331 
Q 3641 3997 3641 3322 
Q 3641 2881 3436 2590 
Q 3231 2300 2841 2188 
z
M 1259 4147 
L 1259 2491 
L 2053 2491 
Q 2509 2491 2742 2702 
Q 2975 2913 2975 3322 
Q 2975 3731 2742 3939 
Q 2509 4147 2053 4147 
L 1259 4147 
z
" transform="scale(0.015625)"/>
       <path id="DejaVuSans-61" d="M 2194 1759 
Q 1497 1759 1228 1600 
Q 959 1441 959 1056 
Q 959 750 1161 570 
Q 1363 391 1709 391 
Q 2188 391 2477 730 
Q 2766 1069 2766 1631 
L 2766 1759 
L 2194 1759 
z
M 3341 1997 
L 3341 0 
L 2766 0 
L 2766 531 
Q 2569 213 2275 61 
Q 1981 -91 1556 -91 
Q 1019 -91 701 211 
Q 384 513 384 1019 
Q 384 1609 779 1909 
Q 1175 2209 1959 2209 
L 2766 2209 
L 2766 2266 
Q 2766 2663 2505 2880 
Q 2244 3097 1772 3097 
Q 1472 3097 1187 3025 
Q 903 2953 641 2809 
L 641 3341 
Q 956 3463 1253 3523 
Q 1550 3584 1831 3584 
Q 2591 3584 2966 3190 
Q 3341 2797 3341 1997 
z
" transform="scale(0.015625)"/>
       <path id="DejaVuSans-6c" d="M 603 4863 
L 1178 4863 
L 1178 0 
L 603 0 
L 603 4863 
z
" transform="scale(0.015625)"/>
      </defs>
      <use xlink:href="#DejaVuSans-45"/>
      <use xlink:href="#DejaVuSans-6d" x="63.183594"/>
      <use xlink:href="#DejaVuSans-70" x="160.595703"/>
      <use xlink:href="#DejaVuSans-20" x="224.072266"/>
      <use xlink:href="#DejaVuSans-52" x="255.859375"/>
      <use xlink:href="#DejaVuSans-65" x="320.841797"/>
      <use xlink:href="#DejaVuSans-61" x="382.365234"/>
      <use xlink:href="#DejaVuSans-6c" x="443.644531"/>
     </g>
    </g>
    <g id="patch_241">
     <path d="M 548.635937 97.794687 
L 568.635937 97.794687 
L 568.635937 90.794687 
L 548.635937 90.794687 
z
" style="fill: #ff0000"/>
    </g>
    <g id="text_18">
     <!-- Emp Optimo -->
     <g transform="translate(576.635937 97.794687) scale(0.1 -0.1)">
      <defs>
       <path id="DejaVuSans-4f" d="M 2522 4238 
Q 1834 4238 1429 3725 
Q 1025 3213 1025 2328 
Q 1025 1447 1429 934 
Q 1834 422 2522 422 
Q 3209 422 3611 934 
Q 4013 1447 4013 2328 
Q 4013 3213 3611 3725 
Q 3209 4238 2522 4238 
z
M 2522 4750 
Q 3503 4750 4090 4092 
Q 4678 3434 4678 2328 
Q 4678 1225 4090 567 
Q 3503 -91 2522 -91 
Q 1538 -91 948 565 
Q 359 1222 359 2328 
Q 359 3434 948 4092 
Q 1538 4750 2522 4750 
z
" transform="scale(0.015625)"/>
       <path id="DejaVuSans-74" d="M 1172 4494 
L 1172 3500 
L 2356 3500 
L 2356 3053 
L 1172 3053 
L 1172 1153 
Q 1172 725 1289 603 
Q 1406 481 1766 481 
L 2356 481 
L 2356 0 
L 1766 0 
Q 1100 0 847 248 
Q 594 497 594 1153 
L 594 3053 
L 172 3053 
L 172 3500 
L 594 3500 
L 594 4494 
L 1172 4494 
z
" transform="scale(0.015625)"/>
      </defs>
      <use xlink:href="#DejaVuSans-45"/>
      <use xlink:href="#DejaVuSans-6d" x="63.183594"/>
      <use xlink:href="#DejaVuSans-70" x="160.595703"/>
      <use xlink:href="#DejaVuSans-20" x="224.072266"/>
      <use xlink:href="#DejaVuSans-4f" x="255.859375"/>
      <use xlink:href="#DejaVuSans-70" x="334.570312"/>
      <use xlink:href="#DejaVuSans-74" x="398.046875"/>
      <use xlink:href="#DejaVuSans-69" x="437.255859"/>
      <use xlink:href="#DejaVuSans-6d" x="465.039062"/>
      <use xlink:href="#DejaVuSans-6f" x="562.451172"/>
     </g>
    </g>
   </g>
  </g>
 </g>
 <defs>
  <clipPath id="pa4982ce4fd">
   <rect x="90" y="51.84" width="558" height="332.64"/>
  </clipPath>
 </defs>
</svg>
