<?xml version="1.0" encoding="utf-8" standalone="no"?>
<!DOCTYPE svg PUBLIC "-//W3C//DTD SVG 1.1//EN"
  "http://www.w3.org/Graphics/SVG/1.1/DTD/svg11.dtd">
<svg xmlns:xlink="http://www.w3.org/1999/xlink" width="720pt" height="432pt" viewBox="0 0 720 432" xmlns="http://www.w3.org/2000/svg" version="1.1">
 <metadata>
  <rdf:RDF xmlns:dc="http://purl.org/dc/elements/1.1/" xmlns:cc="http://creativecommons.org/ns#" xmlns:rdf="http://www.w3.org/1999/02/22-rdf-syntax-ns#">
   <cc:Work>
    <dc:type rdf:resource="http://purl.org/dc/dcmitype/StillImage"/>
    <dc:date>2024-04-08T16:35:31.745546</dc:date>
    <dc:format>image/svg+xml</dc:format>
    <dc:creator>
     <cc:Agent>
      <dc:title>Matplotlib v3.7.5, https://matplotlib.org/</dc:title>
     </cc:Agent>
    </dc:creator>
   </cc:Work>
  </rdf:RDF>
 </metadata>
 <defs>
  <style type="text/css">*{stroke-linejoin: round; stroke-linecap: butt}</style>
 </defs>
 <g id="figure_1">
  <g id="patch_1">
   <path d="M 0 432 
L 720 432 
L 720 0 
L 0 0 
z
" style="fill: #ffffff"/>
  </g>
  <g id="axes_1">
   <g id="patch_2">
    <path d="M 90 384.48 
L 648 384.48 
L 648 51.84 
L 90 51.84 
z
" style="fill: #ffffff"/>
   </g>
   <g id="patch_3">
    <path d="M 115.363636 299.700832 
L 118.688936 299.700832 
L 118.688936 299.700832 
L 115.363636 299.700832 
z
" clip-path="url(#p0ae355f55e)" style="fill: #0000ff; opacity: 0.7"/>
   </g>
   <g id="patch_4">
    <path d="M 118.688936 299.700832 
L 122.014235 299.700832 
L 122.014235 299.700832 
L 118.688936 299.700832 
z
" clip-path="url(#p0ae355f55e)" style="fill: #0000ff; opacity: 0.7"/>
   </g>
   <g id="patch_5">
    <path d="M 122.014235 299.700832 
L 125.339534 299.700832 
L 125.339534 299.700832 
L 122.014235 299.700832 
z
" clip-path="url(#p0ae355f55e)" style="fill: #0000ff; opacity: 0.7"/>
   </g>
   <g id="patch_6">
    <path d="M 125.339534 299.700832 
L 128.664833 299.700832 
L 128.664833 299.700832 
L 125.339534 299.700832 
z
" clip-path="url(#p0ae355f55e)" style="fill: #0000ff; opacity: 0.7"/>
   </g>
   <g id="patch_7">
    <path d="M 128.664833 299.700832 
L 131.990132 299.700832 
L 131.990132 299.700832 
L 128.664833 299.700832 
z
" clip-path="url(#p0ae355f55e)" style="fill: #0000ff; opacity: 0.7"/>
   </g>
   <g id="patch_8">
    <path d="M 131.990132 299.700832 
L 135.315431 299.700832 
L 135.315431 299.700832 
L 131.990132 299.700832 
z
" clip-path="url(#p0ae355f55e)" style="fill: #0000ff; opacity: 0.7"/>
   </g>
   <g id="patch_9">
    <path d="M 132.093549 299.700832 
L 135.418848 299.700832 
L 135.418848 305.292203 
L 132.093549 305.292203 
z
" clip-path="url(#p0ae355f55e)" style="fill: #0000ff; opacity: 0.7"/>
   </g>
   <g id="patch_10">
    <path d="M 135.418848 299.700832 
L 138.744147 299.700832 
L 138.744147 299.700832 
L 135.418848 299.700832 
z
" clip-path="url(#p0ae355f55e)" style="fill: #0000ff; opacity: 0.7"/>
   </g>
   <g id="patch_11">
    <path d="M 137.011334 299.700832 
L 140.336633 299.700832 
L 140.336633 306.457072 
L 137.011334 306.457072 
z
" clip-path="url(#p0ae355f55e)" style="fill: #0000ff; opacity: 0.7"/>
   </g>
   <g id="patch_12">
    <path d="M 140.336633 299.700832 
L 143.661932 299.700832 
L 143.661932 299.700832 
L 140.336633 299.700832 
z
" clip-path="url(#p0ae355f55e)" style="fill: #0000ff; opacity: 0.7"/>
   </g>
   <g id="patch_13">
    <path d="M 143.661932 299.700832 
L 146.987232 299.700832 
L 146.987232 299.700832 
L 143.661932 299.700832 
z
" clip-path="url(#p0ae355f55e)" style="fill: #0000ff; opacity: 0.7"/>
   </g>
   <g id="patch_14">
    <path d="M 146.987232 299.700832 
L 150.312531 299.700832 
L 150.312531 299.700832 
L 146.987232 299.700832 
z
" clip-path="url(#p0ae355f55e)" style="fill: #0000ff; opacity: 0.7"/>
   </g>
   <g id="patch_15">
    <path d="M 150.312531 299.700832 
L 153.63783 299.700832 
L 153.63783 299.700832 
L 150.312531 299.700832 
z
" clip-path="url(#p0ae355f55e)" style="fill: #0000ff; opacity: 0.7"/>
   </g>
   <g id="patch_16">
    <path d="M 153.63783 299.700832 
L 156.963129 299.700832 
L 156.963129 299.700832 
L 153.63783 299.700832 
z
" clip-path="url(#p0ae355f55e)" style="fill: #0000ff; opacity: 0.7"/>
   </g>
   <g id="patch_17">
    <path d="M 156.963129 299.700832 
L 160.288428 299.700832 
L 160.288428 299.700832 
L 156.963129 299.700832 
z
" clip-path="url(#p0ae355f55e)" style="fill: #0000ff; opacity: 0.7"/>
   </g>
   <g id="patch_18">
    <path d="M 159.614058 299.700832 
L 162.939357 299.700832 
L 162.939357 306.457072 
L 159.614058 306.457072 
z
" clip-path="url(#p0ae355f55e)" style="fill: #0000ff; opacity: 0.7"/>
   </g>
   <g id="patch_19">
    <path d="M 162.939357 299.700832 
L 166.264656 299.700832 
L 166.264656 299.700832 
L 162.939357 299.700832 
z
" clip-path="url(#p0ae355f55e)" style="fill: #0000ff; opacity: 0.7"/>
   </g>
   <g id="patch_20">
    <path d="M 166.264656 299.700832 
L 169.589955 299.700832 
L 169.589955 299.700832 
L 166.264656 299.700832 
z
" clip-path="url(#p0ae355f55e)" style="fill: #0000ff; opacity: 0.7"/>
   </g>
   <g id="patch_21">
    <path d="M 167.211369 299.700832 
L 170.536668 299.700832 
L 170.536668 302.962465 
L 167.211369 302.962465 
z
" clip-path="url(#p0ae355f55e)" style="fill: #0000ff; opacity: 0.7"/>
   </g>
   <g id="patch_22">
    <path d="M 169.235146 299.700832 
L 172.560445 299.700832 
L 172.560445 305.292203 
L 169.235146 305.292203 
z
" clip-path="url(#p0ae355f55e)" style="fill: #0000ff; opacity: 0.7"/>
   </g>
   <g id="patch_23">
    <path d="M 172.560445 299.700832 
L 175.885744 299.700832 
L 175.885744 299.700832 
L 172.560445 299.700832 
z
" clip-path="url(#p0ae355f55e)" style="fill: #0000ff; opacity: 0.7"/>
   </g>
   <g id="patch_24">
    <path d="M 175.885744 299.700832 
L 179.211043 299.700832 
L 179.211043 299.700832 
L 175.885744 299.700832 
z
" clip-path="url(#p0ae355f55e)" style="fill: #0000ff; opacity: 0.7"/>
   </g>
   <g id="patch_25">
    <path d="M 179.211043 299.700832 
L 182.536342 299.700832 
L 182.536342 299.700832 
L 179.211043 299.700832 
z
" clip-path="url(#p0ae355f55e)" style="fill: #0000ff; opacity: 0.7"/>
   </g>
   <g id="patch_26">
    <path d="M 180.440406 299.700832 
L 183.765706 299.700832 
L 183.765706 301.331649 
L 180.440406 301.331649 
z
" clip-path="url(#p0ae355f55e)" style="fill: #0000ff; opacity: 0.7"/>
   </g>
   <g id="patch_27">
    <path d="M 183.765706 299.700832 
L 187.091005 299.700832 
L 187.091005 299.700832 
L 183.765706 299.700832 
z
" clip-path="url(#p0ae355f55e)" style="fill: #0000ff; opacity: 0.7"/>
   </g>
   <g id="patch_28">
    <path d="M 186.324523 299.700832 
L 189.649822 299.700832 
L 189.649822 301.098675 
L 186.324523 301.098675 
z
" clip-path="url(#p0ae355f55e)" style="fill: #0000ff; opacity: 0.7"/>
   </g>
   <g id="patch_29">
    <path d="M 189.649822 299.700832 
L 192.975122 299.700832 
L 192.975122 299.700832 
L 189.649822 299.700832 
z
" clip-path="url(#p0ae355f55e)" style="fill: #0000ff; opacity: 0.7"/>
   </g>
   <g id="patch_30">
    <path d="M 192.975122 299.700832 
L 196.300421 299.700832 
L 196.300421 299.700832 
L 192.975122 299.700832 
z
" clip-path="url(#p0ae355f55e)" style="fill: #0000ff; opacity: 0.7"/>
   </g>
   <g id="patch_31">
    <path d="M 196.300421 299.700832 
L 199.62572 299.700832 
L 199.62572 299.700832 
L 196.300421 299.700832 
z
" clip-path="url(#p0ae355f55e)" style="fill: #0000ff; opacity: 0.7"/>
   </g>
   <g id="patch_32">
    <path d="M 199.62572 299.700832 
L 202.951019 299.700832 
L 202.951019 299.700832 
L 199.62572 299.700832 
z
" clip-path="url(#p0ae355f55e)" style="fill: #0000ff; opacity: 0.7"/>
   </g>
   <g id="patch_33">
    <path d="M 202.951019 299.700832 
L 206.276318 299.700832 
L 206.276318 299.700832 
L 202.951019 299.700832 
z
" clip-path="url(#p0ae355f55e)" style="fill: #0000ff; opacity: 0.7"/>
   </g>
   <g id="patch_34">
    <path d="M 206.276318 299.700832 
L 209.601618 299.700832 
L 209.601618 299.700832 
L 206.276318 299.700832 
z
" clip-path="url(#p0ae355f55e)" style="fill: #0000ff; opacity: 0.7"/>
   </g>
   <g id="patch_35">
    <path d="M 209.601618 299.700832 
L 212.926917 299.700832 
L 212.926917 299.700832 
L 209.601618 299.700832 
z
" clip-path="url(#p0ae355f55e)" style="fill: #0000ff; opacity: 0.7"/>
   </g>
   <g id="patch_36">
    <path d="M 212.926917 299.700832 
L 216.252216 299.700832 
L 216.252216 299.700832 
L 212.926917 299.700832 
z
" clip-path="url(#p0ae355f55e)" style="fill: #0000ff; opacity: 0.7"/>
   </g>
   <g id="patch_37">
    <path d="M 216.07797 299.700832 
L 219.403269 299.700832 
L 219.403269 305.292203 
L 216.07797 305.292203 
z
" clip-path="url(#p0ae355f55e)" style="fill: #0000ff; opacity: 0.7"/>
   </g>
   <g id="patch_38">
    <path d="M 219.403269 299.700832 
L 222.728569 299.700832 
L 222.728569 299.700832 
L 219.403269 299.700832 
z
" clip-path="url(#p0ae355f55e)" style="fill: #0000ff; opacity: 0.7"/>
   </g>
   <g id="patch_39">
    <path d="M 222.728569 299.700832 
L 226.053868 299.700832 
L 226.053868 299.700832 
L 222.728569 299.700832 
z
" clip-path="url(#p0ae355f55e)" style="fill: #0000ff; opacity: 0.7"/>
   </g>
   <g id="patch_40">
    <path d="M 226.053868 299.700832 
L 229.379167 299.700832 
L 229.379167 299.700832 
L 226.053868 299.700832 
z
" clip-path="url(#p0ae355f55e)" style="fill: #0000ff; opacity: 0.7"/>
   </g>
   <g id="patch_41">
    <path d="M 228.036079 299.700832 
L 231.361378 299.700832 
L 231.361378 311.116549 
L 228.036079 311.116549 
z
" clip-path="url(#p0ae355f55e)" style="fill: #0000ff; opacity: 0.7"/>
   </g>
   <g id="patch_42">
    <path d="M 231.361378 299.700832 
L 234.686677 299.700832 
L 234.686677 299.700832 
L 231.361378 299.700832 
z
" clip-path="url(#p0ae355f55e)" style="fill: #0000ff; opacity: 0.7"/>
   </g>
   <g id="patch_43">
    <path d="M 234.686677 299.700832 
L 238.011976 299.700832 
L 238.011976 299.700832 
L 234.686677 299.700832 
z
" clip-path="url(#p0ae355f55e)" style="fill: #0000ff; opacity: 0.7"/>
   </g>
   <g id="patch_44">
    <path d="M 238.011976 299.700832 
L 241.337275 299.700832 
L 241.337275 299.700832 
L 238.011976 299.700832 
z
" clip-path="url(#p0ae355f55e)" style="fill: #0000ff; opacity: 0.7"/>
   </g>
   <g id="patch_45">
    <path d="M 241.337275 299.700832 
L 244.662575 299.700832 
L 244.662575 299.700832 
L 241.337275 299.700832 
z
" clip-path="url(#p0ae355f55e)" style="fill: #0000ff; opacity: 0.7"/>
   </g>
   <g id="patch_46">
    <path d="M 242.729246 299.700832 
L 246.054545 299.700832 
L 246.054545 302.962465 
L 242.729246 302.962465 
z
" clip-path="url(#p0ae355f55e)" style="fill: #0000ff; opacity: 0.7"/>
   </g>
   <g id="patch_47">
    <path d="M 246.054545 299.700832 
L 249.379844 299.700832 
L 249.379844 299.700832 
L 246.054545 299.700832 
z
" clip-path="url(#p0ae355f55e)" style="fill: #0000ff; opacity: 0.7"/>
   </g>
   <g id="patch_48">
    <path d="M 249.379844 299.700832 
L 252.705143 299.700832 
L 252.705143 299.700832 
L 249.379844 299.700832 
z
" clip-path="url(#p0ae355f55e)" style="fill: #0000ff; opacity: 0.7"/>
   </g>
   <g id="patch_49">
    <path d="M 252.705143 299.700832 
L 256.030442 299.700832 
L 256.030442 299.700832 
L 252.705143 299.700832 
z
" clip-path="url(#p0ae355f55e)" style="fill: #0000ff; opacity: 0.7"/>
   </g>
   <g id="patch_50">
    <path d="M 256.030442 299.700832 
L 259.355741 299.700832 
L 259.355741 299.700832 
L 256.030442 299.700832 
z
" clip-path="url(#p0ae355f55e)" style="fill: #0000ff; opacity: 0.7"/>
   </g>
   <g id="patch_51">
    <path d="M 256.404538 299.700832 
L 259.729838 299.700832 
L 259.729838 305.292203 
L 256.404538 305.292203 
z
" clip-path="url(#p0ae355f55e)" style="fill: #0000ff; opacity: 0.7"/>
   </g>
   <g id="patch_52">
    <path d="M 259.729838 299.700832 
L 263.055137 299.700832 
L 263.055137 299.700832 
L 259.729838 299.700832 
z
" clip-path="url(#p0ae355f55e)" style="fill: #0000ff; opacity: 0.7"/>
   </g>
   <g id="patch_53">
    <path d="M 263.055137 299.700832 
L 266.380436 299.700832 
L 266.380436 299.700832 
L 263.055137 299.700832 
z
" clip-path="url(#p0ae355f55e)" style="fill: #0000ff; opacity: 0.7"/>
   </g>
   <g id="patch_54">
    <path d="M 266.380436 299.700832 
L 269.705735 299.700832 
L 269.705735 299.700832 
L 266.380436 299.700832 
z
" clip-path="url(#p0ae355f55e)" style="fill: #0000ff; opacity: 0.7"/>
   </g>
   <g id="patch_55">
    <path d="M 269.063254 299.700832 
L 272.388553 299.700832 
L 272.388553 369.36 
L 269.063254 369.36 
z
" clip-path="url(#p0ae355f55e)" style="fill: #0000ff; opacity: 0.7"/>
   </g>
   <g id="patch_56">
    <path d="M 272.388553 299.700832 
L 275.713852 299.700832 
L 275.713852 299.700832 
L 272.388553 299.700832 
z
" clip-path="url(#p0ae355f55e)" style="fill: #0000ff; opacity: 0.7"/>
   </g>
   <g id="patch_57">
    <path d="M 275.713852 299.700832 
L 279.039152 299.700832 
L 279.039152 299.700832 
L 275.713852 299.700832 
z
" clip-path="url(#p0ae355f55e)" style="fill: #0000ff; opacity: 0.7"/>
   </g>
   <g id="patch_58">
    <path d="M 279.039152 299.700832 
L 282.364451 299.700832 
L 282.364451 299.700832 
L 279.039152 299.700832 
z
" clip-path="url(#p0ae355f55e)" style="fill: #0000ff; opacity: 0.7"/>
   </g>
   <g id="patch_59">
    <path d="M 282.355838 299.700832 
L 285.681137 299.700832 
L 285.681137 302.962465 
L 282.355838 302.962465 
z
" clip-path="url(#p0ae355f55e)" style="fill: #0000ff; opacity: 0.7"/>
   </g>
   <g id="patch_60">
    <path d="M 285.681137 299.700832 
L 289.006437 299.700832 
L 289.006437 299.700832 
L 285.681137 299.700832 
z
" clip-path="url(#p0ae355f55e)" style="fill: #0000ff; opacity: 0.7"/>
   </g>
   <g id="patch_61">
    <path d="M 288.166466 299.700832 
L 291.491765 299.700832 
L 291.491765 305.292203 
L 288.166466 305.292203 
z
" clip-path="url(#p0ae355f55e)" style="fill: #0000ff; opacity: 0.7"/>
   </g>
   <g id="patch_62">
    <path d="M 291.491765 299.700832 
L 294.817064 299.700832 
L 294.817064 299.700832 
L 291.491765 299.700832 
z
" clip-path="url(#p0ae355f55e)" style="fill: #0000ff; opacity: 0.7"/>
   </g>
   <g id="patch_63">
    <path d="M 294.362164 299.700832 
L 297.687463 299.700832 
L 297.687463 304.127334 
L 294.362164 304.127334 
z
" clip-path="url(#p0ae355f55e)" style="fill: #0000ff; opacity: 0.7"/>
   </g>
   <g id="patch_64">
    <path d="M 297.687463 299.700832 
L 301.012762 299.700832 
L 301.012762 299.700832 
L 297.687463 299.700832 
z
" clip-path="url(#p0ae355f55e)" style="fill: #0000ff; opacity: 0.7"/>
   </g>
   <g id="patch_65">
    <path d="M 301.012762 299.700832 
L 304.338061 299.700832 
L 304.338061 299.700832 
L 301.012762 299.700832 
z
" clip-path="url(#p0ae355f55e)" style="fill: #0000ff; opacity: 0.7"/>
   </g>
   <g id="patch_66">
    <path d="M 304.338061 299.700832 
L 307.66336 299.700832 
L 307.66336 299.700832 
L 304.338061 299.700832 
z
" clip-path="url(#p0ae355f55e)" style="fill: #0000ff; opacity: 0.7"/>
   </g>
   <g id="patch_67">
    <path d="M 304.35901 299.700832 
L 307.68431 299.700832 
L 307.68431 302.263544 
L 304.35901 302.263544 
z
" clip-path="url(#p0ae355f55e)" style="fill: #0000ff; opacity: 0.7"/>
   </g>
   <g id="patch_68">
    <path d="M 307.68431 299.700832 
L 311.009609 299.700832 
L 311.009609 299.700832 
L 307.68431 299.700832 
z
" clip-path="url(#p0ae355f55e)" style="fill: #0000ff; opacity: 0.7"/>
   </g>
   <g id="patch_69">
    <path d="M 311.009609 299.700832 
L 314.334908 299.700832 
L 314.334908 299.700832 
L 311.009609 299.700832 
z
" clip-path="url(#p0ae355f55e)" style="fill: #0000ff; opacity: 0.7"/>
   </g>
   <g id="patch_70">
    <path d="M 314.334908 299.700832 
L 317.660207 299.700832 
L 317.660207 299.700832 
L 314.334908 299.700832 
z
" clip-path="url(#p0ae355f55e)" style="fill: #0000ff; opacity: 0.7"/>
   </g>
   <g id="patch_71">
    <path d="M 314.800117 299.700832 
L 318.125417 299.700832 
L 318.125417 311.116549 
L 314.800117 311.116549 
z
" clip-path="url(#p0ae355f55e)" style="fill: #0000ff; opacity: 0.7"/>
   </g>
   <g id="patch_72">
    <path d="M 317.33333 299.700832 
L 320.658629 299.700832 
L 320.658629 302.962465 
L 317.33333 302.962465 
z
" clip-path="url(#p0ae355f55e)" style="fill: #0000ff; opacity: 0.7"/>
   </g>
   <g id="patch_73">
    <path d="M 320.354365 299.700832 
L 323.679664 299.700832 
L 323.679664 311.116549 
L 320.354365 311.116549 
z
" clip-path="url(#p0ae355f55e)" style="fill: #0000ff; opacity: 0.7"/>
   </g>
   <g id="patch_74">
    <path d="M 323.679664 299.700832 
L 327.004963 299.700832 
L 327.004963 299.700832 
L 323.679664 299.700832 
z
" clip-path="url(#p0ae355f55e)" style="fill: #0000ff; opacity: 0.7"/>
   </g>
   <g id="patch_75">
    <path d="M 327.004963 299.700832 
L 330.330262 299.700832 
L 330.330262 299.700832 
L 327.004963 299.700832 
z
" clip-path="url(#p0ae355f55e)" style="fill: #0000ff; opacity: 0.7"/>
   </g>
   <g id="patch_76">
    <path d="M 330.034643 299.700832 
L 333.359942 299.700832 
L 333.359942 315.776025 
L 330.034643 315.776025 
z
" clip-path="url(#p0ae355f55e)" style="fill: #0000ff; opacity: 0.7"/>
   </g>
   <g id="patch_77">
    <path d="M 332.551562 299.700832 
L 335.876861 299.700832 
L 335.876861 302.263544 
L 332.551562 302.263544 
z
" clip-path="url(#p0ae355f55e)" style="fill: #0000ff; opacity: 0.7"/>
   </g>
   <g id="patch_78">
    <path d="M 335.876861 299.700832 
L 339.20216 299.700832 
L 339.20216 299.700832 
L 335.876861 299.700832 
z
" clip-path="url(#p0ae355f55e)" style="fill: #0000ff; opacity: 0.7"/>
   </g>
   <g id="patch_79">
    <path d="M 339.20216 299.700832 
L 342.527459 299.700832 
L 342.527459 299.700832 
L 339.20216 299.700832 
z
" clip-path="url(#p0ae355f55e)" style="fill: #0000ff; opacity: 0.7"/>
   </g>
   <g id="patch_80">
    <path d="M 340.644675 299.700832 
L 343.969974 299.700832 
L 343.969974 311.116549 
L 340.644675 311.116549 
z
" clip-path="url(#p0ae355f55e)" style="fill: #0000ff; opacity: 0.7"/>
   </g>
   <g id="patch_81">
    <path d="M 343.969974 299.700832 
L 347.295273 299.700832 
L 347.295273 299.700832 
L 343.969974 299.700832 
z
" clip-path="url(#p0ae355f55e)" style="fill: #0000ff; opacity: 0.7"/>
   </g>
   <g id="patch_82">
    <path d="M 347.295273 299.700832 
L 350.620573 299.700832 
L 350.620573 299.700832 
L 347.295273 299.700832 
z
" clip-path="url(#p0ae355f55e)" style="fill: #0000ff; opacity: 0.7"/>
   </g>
   <g id="patch_83">
    <path d="M 349.892997 299.700832 
L 353.218296 299.700832 
L 353.218296 322.765239 
L 349.892997 322.765239 
z
" clip-path="url(#p0ae355f55e)" style="fill: #0000ff; opacity: 0.7"/>
   </g>
   <g id="patch_84">
    <path d="M 353.218296 299.700832 
L 356.543596 299.700832 
L 356.543596 299.700832 
L 353.218296 299.700832 
z
" clip-path="url(#p0ae355f55e)" style="fill: #0000ff; opacity: 0.7"/>
   </g>
   <g id="patch_85">
    <path d="M 356.543596 299.700832 
L 359.868895 299.700832 
L 359.868895 299.700832 
L 356.543596 299.700832 
z
" clip-path="url(#p0ae355f55e)" style="fill: #0000ff; opacity: 0.7"/>
   </g>
   <g id="patch_86">
    <path d="M 357.994091 299.700832 
L 361.31939 299.700832 
L 361.31939 302.263544 
L 357.994091 302.263544 
z
" clip-path="url(#p0ae355f55e)" style="fill: #0000ff; opacity: 0.7"/>
   </g>
   <g id="patch_87">
    <path d="M 361.31939 299.700832 
L 364.644689 299.700832 
L 364.644689 299.700832 
L 361.31939 299.700832 
z
" clip-path="url(#p0ae355f55e)" style="fill: #0000ff; opacity: 0.7"/>
   </g>
   <g id="patch_88">
    <path d="M 364.644689 299.700832 
L 367.969989 299.700832 
L 367.969989 299.700832 
L 364.644689 299.700832 
z
" clip-path="url(#p0ae355f55e)" style="fill: #0000ff; opacity: 0.7"/>
   </g>
   <g id="patch_89">
    <path d="M 365.712443 299.700832 
L 369.037742 299.700832 
L 369.037742 302.263544 
L 365.712443 302.263544 
z
" clip-path="url(#p0ae355f55e)" style="fill: #0000ff; opacity: 0.7"/>
   </g>
   <g id="patch_90">
    <path d="M 369.037742 299.700832 
L 372.363041 299.700832 
L 372.363041 299.700832 
L 369.037742 299.700832 
z
" clip-path="url(#p0ae355f55e)" style="fill: #0000ff; opacity: 0.7"/>
   </g>
   <g id="patch_91">
    <path d="M 369.508605 299.700832 
L 372.833904 299.700832 
L 372.833904 300.16678 
L 369.508605 300.16678 
z
" clip-path="url(#p0ae355f55e)" style="fill: #0000ff; opacity: 0.7"/>
   </g>
   <g id="patch_92">
    <path d="M 372.820935 299.700832 
L 376.146234 299.700832 
L 376.146234 302.03057 
L 372.820935 302.03057 
z
" clip-path="url(#p0ae355f55e)" style="fill: #0000ff; opacity: 0.7"/>
   </g>
   <g id="patch_93">
    <path d="M 376.146234 299.700832 
L 379.471533 299.700832 
L 379.471533 299.700832 
L 376.146234 299.700832 
z
" clip-path="url(#p0ae355f55e)" style="fill: #0000ff; opacity: 0.7"/>
   </g>
   <g id="patch_94">
    <path d="M 379.471533 299.700832 
L 382.796833 299.700832 
L 382.796833 299.700832 
L 379.471533 299.700832 
z
" clip-path="url(#p0ae355f55e)" style="fill: #0000ff; opacity: 0.7"/>
   </g>
   <g id="patch_95">
    <path d="M 381.960187 299.700832 
L 385.285486 299.700832 
L 385.285486 306.457072 
L 381.960187 306.457072 
z
" clip-path="url(#p0ae355f55e)" style="fill: #0000ff; opacity: 0.7"/>
   </g>
   <g id="patch_96">
    <path d="M 385.285486 299.700832 
L 388.610786 299.700832 
L 388.610786 299.700832 
L 385.285486 299.700832 
z
" clip-path="url(#p0ae355f55e)" style="fill: #0000ff; opacity: 0.7"/>
   </g>
   <g id="patch_97">
    <path d="M 388.610786 299.700832 
L 391.936085 299.700832 
L 391.936085 299.700832 
L 388.610786 299.700832 
z
" clip-path="url(#p0ae355f55e)" style="fill: #0000ff; opacity: 0.7"/>
   </g>
   <g id="patch_98">
    <path d="M 391.936085 299.700832 
L 395.261384 299.700832 
L 395.261384 299.700832 
L 391.936085 299.700832 
z
" clip-path="url(#p0ae355f55e)" style="fill: #0000ff; opacity: 0.7"/>
   </g>
   <g id="patch_99">
    <path d="M 392.336451 299.700832 
L 395.66175 299.700832 
L 395.66175 300.865701 
L 392.336451 300.865701 
z
" clip-path="url(#p0ae355f55e)" style="fill: #0000ff; opacity: 0.7"/>
   </g>
   <g id="patch_100">
    <path d="M 394.719028 299.700832 
L 398.044327 299.700832 
L 398.044327 305.292203 
L 394.719028 305.292203 
z
" clip-path="url(#p0ae355f55e)" style="fill: #0000ff; opacity: 0.7"/>
   </g>
   <g id="patch_101">
    <path d="M 398.044327 299.700832 
L 401.369626 299.700832 
L 401.369626 299.700832 
L 398.044327 299.700832 
z
" clip-path="url(#p0ae355f55e)" style="fill: #0000ff; opacity: 0.7"/>
   </g>
   <g id="patch_102">
    <path d="M 398.377189 299.700832 
L 401.702489 299.700832 
L 401.702489 346.062619 
L 398.377189 346.062619 
z
" clip-path="url(#p0ae355f55e)" style="fill: #0000ff; opacity: 0.7"/>
   </g>
   <g id="patch_103">
    <path d="M 401.702489 299.700832 
L 405.027788 299.700832 
L 405.027788 299.700832 
L 401.702489 299.700832 
z
" clip-path="url(#p0ae355f55e)" style="fill: #0000ff; opacity: 0.7"/>
   </g>
   <g id="patch_104">
    <path d="M 405.027788 299.700832 
L 408.353087 299.700832 
L 408.353087 299.700832 
L 405.027788 299.700832 
z
" clip-path="url(#p0ae355f55e)" style="fill: #0000ff; opacity: 0.7"/>
   </g>
   <g id="patch_105">
    <path d="M 408.353087 299.700832 
L 411.678386 299.700832 
L 411.678386 299.700832 
L 408.353087 299.700832 
z
" clip-path="url(#p0ae355f55e)" style="fill: #0000ff; opacity: 0.7"/>
   </g>
   <g id="patch_106">
    <path d="M 411.678386 299.700832 
L 415.003685 299.700832 
L 415.003685 299.700832 
L 411.678386 299.700832 
z
" clip-path="url(#p0ae355f55e)" style="fill: #0000ff; opacity: 0.7"/>
   </g>
   <g id="patch_107">
    <path d="M 415.003685 299.700832 
L 418.328984 299.700832 
L 418.328984 299.700832 
L 415.003685 299.700832 
z
" clip-path="url(#p0ae355f55e)" style="fill: #0000ff; opacity: 0.7"/>
   </g>
   <g id="patch_108">
    <path d="M 416.224735 299.700832 
L 419.550034 299.700832 
L 419.550034 315.776025 
L 416.224735 315.776025 
z
" clip-path="url(#p0ae355f55e)" style="fill: #0000ff; opacity: 0.7"/>
   </g>
   <g id="patch_109">
    <path d="M 419.550034 299.700832 
L 422.875333 299.700832 
L 422.875333 299.700832 
L 419.550034 299.700832 
z
" clip-path="url(#p0ae355f55e)" style="fill: #0000ff; opacity: 0.7"/>
   </g>
   <g id="patch_110">
    <path d="M 421.83252 299.700832 
L 425.157819 299.700832 
L 425.157819 357.71131 
L 421.83252 357.71131 
z
" clip-path="url(#p0ae355f55e)" style="fill: #0000ff; opacity: 0.7"/>
   </g>
   <g id="patch_111">
    <path d="M 425.157819 299.700832 
L 428.483118 299.700832 
L 428.483118 299.700832 
L 425.157819 299.700832 
z
" clip-path="url(#p0ae355f55e)" style="fill: #0000ff; opacity: 0.7"/>
   </g>
   <g id="patch_112">
    <path d="M 428.483118 299.700832 
L 431.808417 299.700832 
L 431.808417 299.700832 
L 428.483118 299.700832 
z
" clip-path="url(#p0ae355f55e)" style="fill: #0000ff; opacity: 0.7"/>
   </g>
   <g id="patch_113">
    <path d="M 429.377291 299.700832 
L 432.70259 299.700832 
L 432.70259 315.776025 
L 429.377291 315.776025 
z
" clip-path="url(#p0ae355f55e)" style="fill: #0000ff; opacity: 0.7"/>
   </g>
   <g id="patch_114">
    <path d="M 432.341463 299.700832 
L 435.666762 299.700832 
L 435.666762 311.116549 
L 432.341463 311.116549 
z
" clip-path="url(#p0ae355f55e)" style="fill: #0000ff; opacity: 0.7"/>
   </g>
   <g id="patch_115">
    <path d="M 435.666762 299.700832 
L 438.992061 299.700832 
L 438.992061 299.700832 
L 435.666762 299.700832 
z
" clip-path="url(#p0ae355f55e)" style="fill: #0000ff; opacity: 0.7"/>
   </g>
   <g id="patch_116">
    <path d="M 438.992061 299.700832 
L 442.31736 299.700832 
L 442.31736 299.700832 
L 438.992061 299.700832 
z
" clip-path="url(#p0ae355f55e)" style="fill: #0000ff; opacity: 0.7"/>
   </g>
   <g id="patch_117">
    <path d="M 442.31736 299.700832 
L 445.642659 299.700832 
L 445.642659 299.700832 
L 442.31736 299.700832 
z
" clip-path="url(#p0ae355f55e)" style="fill: #0000ff; opacity: 0.7"/>
   </g>
   <g id="patch_118">
    <path d="M 445.642659 299.700832 
L 448.967959 299.700832 
L 448.967959 299.700832 
L 445.642659 299.700832 
z
" clip-path="url(#p0ae355f55e)" style="fill: #0000ff; opacity: 0.7"/>
   </g>
   <g id="patch_119">
    <path d="M 447.748904 299.700832 
L 451.074203 299.700832 
L 451.074203 329.754453 
L 447.748904 329.754453 
z
" clip-path="url(#p0ae355f55e)" style="fill: #0000ff; opacity: 0.7"/>
   </g>
   <g id="patch_120">
    <path d="M 451.074203 299.700832 
L 454.399502 299.700832 
L 454.399502 299.700832 
L 451.074203 299.700832 
z
" clip-path="url(#p0ae355f55e)" style="fill: #0000ff; opacity: 0.7"/>
   </g>
   <g id="patch_121">
    <path d="M 454.399502 299.700832 
L 457.724801 299.700832 
L 457.724801 299.700832 
L 454.399502 299.700832 
z
" clip-path="url(#p0ae355f55e)" style="fill: #0000ff; opacity: 0.7"/>
   </g>
   <g id="patch_122">
    <path d="M 457.724801 299.700832 
L 461.050101 299.700832 
L 461.050101 299.700832 
L 457.724801 299.700832 
z
" clip-path="url(#p0ae355f55e)" style="fill: #0000ff; opacity: 0.7"/>
   </g>
   <g id="patch_123">
    <path d="M 461.050101 299.700832 
L 464.3754 299.700832 
L 464.3754 299.700832 
L 461.050101 299.700832 
z
" clip-path="url(#p0ae355f55e)" style="fill: #0000ff; opacity: 0.7"/>
   </g>
   <g id="patch_124">
    <path d="M 462.871699 299.700832 
L 466.196999 299.700832 
L 466.196999 346.062619 
L 462.871699 346.062619 
z
" clip-path="url(#p0ae355f55e)" style="fill: #0000ff; opacity: 0.7"/>
   </g>
   <g id="patch_125">
    <path d="M 466.196999 299.700832 
L 469.522298 299.700832 
L 469.522298 299.700832 
L 466.196999 299.700832 
z
" clip-path="url(#p0ae355f55e)" style="fill: #0000ff; opacity: 0.7"/>
   </g>
   <g id="patch_126">
    <path d="M 466.307399 299.700832 
L 469.632698 299.700832 
L 469.632698 315.776025 
L 466.307399 315.776025 
z
" clip-path="url(#p0ae355f55e)" style="fill: #0000ff; opacity: 0.7"/>
   </g>
   <g id="patch_127">
    <path d="M 469.632698 299.700832 
L 472.957997 299.700832 
L 472.957997 299.700832 
L 469.632698 299.700832 
z
" clip-path="url(#p0ae355f55e)" style="fill: #0000ff; opacity: 0.7"/>
   </g>
   <g id="patch_128">
    <path d="M 472.957997 299.700832 
L 476.283296 299.700832 
L 476.283296 299.700832 
L 472.957997 299.700832 
z
" clip-path="url(#p0ae355f55e)" style="fill: #0000ff; opacity: 0.7"/>
   </g>
   <g id="patch_129">
    <path d="M 476.283296 299.700832 
L 479.608595 299.700832 
L 479.608595 299.700832 
L 476.283296 299.700832 
z
" clip-path="url(#p0ae355f55e)" style="fill: #0000ff; opacity: 0.7"/>
   </g>
   <g id="patch_130">
    <path d="M 479.608595 299.700832 
L 482.933894 299.700832 
L 482.933894 299.700832 
L 479.608595 299.700832 
z
" clip-path="url(#p0ae355f55e)" style="fill: #0000ff; opacity: 0.7"/>
   </g>
   <g id="patch_131">
    <path d="M 482.933894 299.700832 
L 486.259194 299.700832 
L 486.259194 299.700832 
L 482.933894 299.700832 
z
" clip-path="url(#p0ae355f55e)" style="fill: #0000ff; opacity: 0.7"/>
   </g>
   <g id="patch_132">
    <path d="M 486.259194 299.700832 
L 489.584493 299.700832 
L 489.584493 299.700832 
L 486.259194 299.700832 
z
" clip-path="url(#p0ae355f55e)" style="fill: #0000ff; opacity: 0.7"/>
   </g>
   <g id="patch_133">
    <path d="M 487.336923 299.700832 
L 490.662222 299.700832 
L 490.662222 329.754453 
L 487.336923 329.754453 
z
" clip-path="url(#p0ae355f55e)" style="fill: #0000ff; opacity: 0.7"/>
   </g>
   <g id="patch_134">
    <path d="M 490.662222 299.700832 
L 493.987521 299.700832 
L 493.987521 299.700832 
L 490.662222 299.700832 
z
" clip-path="url(#p0ae355f55e)" style="fill: #0000ff; opacity: 0.7"/>
   </g>
   <g id="patch_135">
    <path d="M 493.987521 299.700832 
L 497.312821 299.700832 
L 497.312821 299.700832 
L 493.987521 299.700832 
z
" clip-path="url(#p0ae355f55e)" style="fill: #0000ff; opacity: 0.7"/>
   </g>
   <g id="patch_136">
    <path d="M 497.312821 299.700832 
L 500.63812 299.700832 
L 500.63812 299.700832 
L 497.312821 299.700832 
z
" clip-path="url(#p0ae355f55e)" style="fill: #0000ff; opacity: 0.7"/>
   </g>
   <g id="patch_137">
    <path d="M 500.63812 299.700832 
L 503.963419 299.700832 
L 503.963419 299.700832 
L 500.63812 299.700832 
z
" clip-path="url(#p0ae355f55e)" style="fill: #0000ff; opacity: 0.7"/>
   </g>
   <g id="patch_138">
    <path d="M 503.963419 299.700832 
L 507.288718 299.700832 
L 507.288718 299.700832 
L 503.963419 299.700832 
z
" clip-path="url(#p0ae355f55e)" style="fill: #0000ff; opacity: 0.7"/>
   </g>
   <g id="patch_139">
    <path d="M 507.288718 299.700832 
L 510.614017 299.700832 
L 510.614017 299.700832 
L 507.288718 299.700832 
z
" clip-path="url(#p0ae355f55e)" style="fill: #0000ff; opacity: 0.7"/>
   </g>
   <g id="patch_140">
    <path d="M 508.790091 299.700832 
L 512.11539 299.700832 
L 512.11539 346.062619 
L 508.790091 346.062619 
z
" clip-path="url(#p0ae355f55e)" style="fill: #0000ff; opacity: 0.7"/>
   </g>
   <g id="patch_141">
    <path d="M 512.11539 299.700832 
L 515.440689 299.700832 
L 515.440689 299.700832 
L 512.11539 299.700832 
z
" clip-path="url(#p0ae355f55e)" style="fill: #0000ff; opacity: 0.7"/>
   </g>
   <g id="patch_142">
    <path d="M 515.440689 299.700832 
L 518.765988 299.700832 
L 518.765988 299.700832 
L 515.440689 299.700832 
z
" clip-path="url(#p0ae355f55e)" style="fill: #0000ff; opacity: 0.7"/>
   </g>
   <g id="patch_143">
    <path d="M 518.765988 299.700832 
L 522.091288 299.700832 
L 522.091288 299.700832 
L 518.765988 299.700832 
z
" clip-path="url(#p0ae355f55e)" style="fill: #0000ff; opacity: 0.7"/>
   </g>
   <g id="patch_144">
    <path d="M 522.091288 299.700832 
L 525.416587 299.700832 
L 525.416587 299.700832 
L 522.091288 299.700832 
z
" clip-path="url(#p0ae355f55e)" style="fill: #0000ff; opacity: 0.7"/>
   </g>
   <g id="patch_145">
    <path d="M 524.862592 299.700832 
L 528.187891 299.700832 
L 528.187891 329.754453 
L 524.862592 329.754453 
z
" clip-path="url(#p0ae355f55e)" style="fill: #0000ff; opacity: 0.7"/>
   </g>
   <g id="patch_146">
    <path d="M 528.187891 299.700832 
L 531.51319 299.700832 
L 531.51319 299.700832 
L 528.187891 299.700832 
z
" clip-path="url(#p0ae355f55e)" style="fill: #0000ff; opacity: 0.7"/>
   </g>
   <g id="patch_147">
    <path d="M 531.51319 299.700832 
L 534.838489 299.700832 
L 534.838489 299.700832 
L 531.51319 299.700832 
z
" clip-path="url(#p0ae355f55e)" style="fill: #0000ff; opacity: 0.7"/>
   </g>
   <g id="patch_148">
    <path d="M 534.838489 299.700832 
L 538.163789 299.700832 
L 538.163789 299.700832 
L 534.838489 299.700832 
z
" clip-path="url(#p0ae355f55e)" style="fill: #0000ff; opacity: 0.7"/>
   </g>
   <g id="patch_149">
    <path d="M 538.163789 299.700832 
L 541.489088 299.700832 
L 541.489088 299.700832 
L 538.163789 299.700832 
z
" clip-path="url(#p0ae355f55e)" style="fill: #0000ff; opacity: 0.7"/>
   </g>
   <g id="patch_150">
    <path d="M 541.489088 299.700832 
L 544.814387 299.700832 
L 544.814387 299.700832 
L 541.489088 299.700832 
z
" clip-path="url(#p0ae355f55e)" style="fill: #0000ff; opacity: 0.7"/>
   </g>
   <g id="patch_151">
    <path d="M 544.814387 299.700832 
L 548.139686 299.700832 
L 548.139686 299.700832 
L 544.814387 299.700832 
z
" clip-path="url(#p0ae355f55e)" style="fill: #0000ff; opacity: 0.7"/>
   </g>
   <g id="patch_152">
    <path d="M 547.796183 299.700832 
L 551.121482 299.700832 
L 551.121482 346.062619 
L 547.796183 346.062619 
z
" clip-path="url(#p0ae355f55e)" style="fill: #0000ff; opacity: 0.7"/>
   </g>
   <g id="patch_153">
    <path d="M 551.121482 299.700832 
L 554.446781 299.700832 
L 554.446781 299.700832 
L 551.121482 299.700832 
z
" clip-path="url(#p0ae355f55e)" style="fill: #0000ff; opacity: 0.7"/>
   </g>
   <g id="patch_154">
    <path d="M 554.446781 299.700832 
L 557.77208 299.700832 
L 557.77208 299.700832 
L 554.446781 299.700832 
z
" clip-path="url(#p0ae355f55e)" style="fill: #0000ff; opacity: 0.7"/>
   </g>
   <g id="patch_155">
    <path d="M 557.77208 299.700832 
L 561.097379 299.700832 
L 561.097379 299.700832 
L 557.77208 299.700832 
z
" clip-path="url(#p0ae355f55e)" style="fill: #0000ff; opacity: 0.7"/>
   </g>
   <g id="patch_156">
    <path d="M 560.431322 299.700832 
L 563.756621 299.700832 
L 563.756621 357.71131 
L 560.431322 357.71131 
z
" clip-path="url(#p0ae355f55e)" style="fill: #0000ff; opacity: 0.7"/>
   </g>
   <g id="patch_157">
    <path d="M 563.756621 299.700832 
L 567.08192 299.700832 
L 567.08192 299.700832 
L 563.756621 299.700832 
z
" clip-path="url(#p0ae355f55e)" style="fill: #0000ff; opacity: 0.7"/>
   </g>
   <g id="patch_158">
    <path d="M 567.08192 299.700832 
L 570.40722 299.700832 
L 570.40722 299.700832 
L 567.08192 299.700832 
z
" clip-path="url(#p0ae355f55e)" style="fill: #0000ff; opacity: 0.7"/>
   </g>
   <g id="patch_159">
    <path d="M 570.40722 299.700832 
L 573.732519 299.700832 
L 573.732519 299.700832 
L 570.40722 299.700832 
z
" clip-path="url(#p0ae355f55e)" style="fill: #0000ff; opacity: 0.7"/>
   </g>
   <g id="patch_160">
    <path d="M 573.732519 299.700832 
L 577.057818 299.700832 
L 577.057818 299.700832 
L 573.732519 299.700832 
z
" clip-path="url(#p0ae355f55e)" style="fill: #0000ff; opacity: 0.7"/>
   </g>
   <g id="patch_161">
    <path d="M 577.057818 299.700832 
L 580.383117 299.700832 
L 580.383117 299.700832 
L 577.057818 299.700832 
z
" clip-path="url(#p0ae355f55e)" style="fill: #0000ff; opacity: 0.7"/>
   </g>
   <g id="patch_162">
    <path d="M 580.383117 299.700832 
L 583.708416 299.700832 
L 583.708416 299.700832 
L 580.383117 299.700832 
z
" clip-path="url(#p0ae355f55e)" style="fill: #0000ff; opacity: 0.7"/>
   </g>
   <g id="patch_163">
    <path d="M 583.708416 299.700832 
L 587.033715 299.700832 
L 587.033715 299.700832 
L 583.708416 299.700832 
z
" clip-path="url(#p0ae355f55e)" style="fill: #0000ff; opacity: 0.7"/>
   </g>
   <g id="patch_164">
    <path d="M 587.033715 299.700832 
L 590.359015 299.700832 
L 590.359015 299.700832 
L 587.033715 299.700832 
z
" clip-path="url(#p0ae355f55e)" style="fill: #0000ff; opacity: 0.7"/>
   </g>
   <g id="patch_165">
    <path d="M 590.359015 299.700832 
L 593.684314 299.700832 
L 593.684314 299.700832 
L 590.359015 299.700832 
z
" clip-path="url(#p0ae355f55e)" style="fill: #0000ff; opacity: 0.7"/>
   </g>
   <g id="patch_166">
    <path d="M 593.684314 299.700832 
L 597.009613 299.700832 
L 597.009613 299.700832 
L 593.684314 299.700832 
z
" clip-path="url(#p0ae355f55e)" style="fill: #0000ff; opacity: 0.7"/>
   </g>
   <g id="patch_167">
    <path d="M 597.009613 299.700832 
L 600.334912 299.700832 
L 600.334912 299.700832 
L 597.009613 299.700832 
z
" clip-path="url(#p0ae355f55e)" style="fill: #0000ff; opacity: 0.7"/>
   </g>
   <g id="patch_168">
    <path d="M 598.67193 299.700832 
L 601.997229 299.700832 
L 601.997229 357.71131 
L 598.67193 357.71131 
z
" clip-path="url(#p0ae355f55e)" style="fill: #0000ff; opacity: 0.7"/>
   </g>
   <g id="patch_169">
    <path d="M 601.997229 299.700832 
L 605.322528 299.700832 
L 605.322528 299.700832 
L 601.997229 299.700832 
z
" clip-path="url(#p0ae355f55e)" style="fill: #0000ff; opacity: 0.7"/>
   </g>
   <g id="patch_170">
    <path d="M 605.322528 299.700832 
L 608.647828 299.700832 
L 608.647828 299.700832 
L 605.322528 299.700832 
z
" clip-path="url(#p0ae355f55e)" style="fill: #0000ff; opacity: 0.7"/>
   </g>
   <g id="patch_171">
    <path d="M 608.647828 299.700832 
L 611.973127 299.700832 
L 611.973127 299.700832 
L 608.647828 299.700832 
z
" clip-path="url(#p0ae355f55e)" style="fill: #0000ff; opacity: 0.7"/>
   </g>
   <g id="patch_172">
    <path d="M 611.973127 299.700832 
L 615.298426 299.700832 
L 615.298426 299.700832 
L 611.973127 299.700832 
z
" clip-path="url(#p0ae355f55e)" style="fill: #0000ff; opacity: 0.7"/>
   </g>
   <g id="patch_173">
    <path d="M 612.660466 299.700832 
L 615.985765 299.700832 
L 615.985765 304.127334 
L 612.660466 304.127334 
z
" clip-path="url(#p0ae355f55e)" style="fill: #0000ff; opacity: 0.7"/>
   </g>
   <g id="patch_174">
    <path d="M 615.985765 299.700832 
L 619.311064 299.700832 
L 619.311064 299.700832 
L 615.985765 299.700832 
z
" clip-path="url(#p0ae355f55e)" style="fill: #0000ff; opacity: 0.7"/>
   </g>
   <g id="patch_175">
    <path d="M 619.311064 299.700832 
L 622.636364 299.700832 
L 622.636364 299.700832 
L 619.311064 299.700832 
z
" clip-path="url(#p0ae355f55e)" style="fill: #0000ff; opacity: 0.7"/>
   </g>
   <g id="patch_176">
    <path d="M 122.03716 299.700832 
L 122.70222 299.700832 
L 122.70222 296.325194 
L 122.03716 296.325194 
z
" clip-path="url(#p0ae355f55e)" style="opacity: 0.7"/>
   </g>
   <g id="patch_177">
    <path d="M 128.111764 299.700832 
L 128.776824 299.700832 
L 128.776824 294.342008 
L 128.111764 294.342008 
z
" clip-path="url(#p0ae355f55e)" style="opacity: 0.7"/>
   </g>
   <g id="patch_178">
    <path d="M 131.582966 299.700832 
L 132.248026 299.700832 
L 132.248026 293.998671 
L 131.582966 293.998671 
z
" clip-path="url(#p0ae355f55e)" style="opacity: 0.7"/>
   </g>
   <g id="patch_179">
    <path d="M 136.789769 299.700832 
L 137.454829 299.700832 
L 137.454829 283.465275 
L 136.789769 283.465275 
z
" clip-path="url(#p0ae355f55e)" style="opacity: 0.7"/>
   </g>
   <g id="patch_180">
    <path d="M 144.599973 299.700832 
L 145.265033 299.700832 
L 145.265033 290.411828 
L 144.599973 290.411828 
z
" clip-path="url(#p0ae355f55e)" style="opacity: 0.7"/>
   </g>
   <g id="patch_181">
    <path d="M 146.335574 299.700832 
L 147.000634 299.700832 
L 147.000634 290.543936 
L 146.335574 290.543936 
z
" clip-path="url(#p0ae355f55e)" style="opacity: 0.7"/>
   </g>
   <g id="patch_182">
    <path d="M 155.013579 299.700832 
L 155.678639 299.700832 
L 155.678639 277.608226 
L 155.013579 277.608226 
z
" clip-path="url(#p0ae355f55e)" style="opacity: 0.7"/>
   </g>
   <g id="patch_183">
    <path d="M 159.352582 299.700832 
L 160.017641 299.700832 
L 160.017641 269.267856 
L 159.352582 269.267856 
z
" clip-path="url(#p0ae355f55e)" style="opacity: 0.7"/>
   </g>
   <g id="patch_184">
    <path d="M 165.427185 299.700832 
L 166.092245 299.700832 
L 166.092245 281.308328 
L 165.427185 281.308328 
z
" clip-path="url(#p0ae355f55e)" style="opacity: 0.7"/>
   </g>
   <g id="patch_185">
    <path d="M 168.898387 299.700832 
L 169.563447 299.700832 
L 169.563447 281.193929 
L 168.898387 281.193929 
z
" clip-path="url(#p0ae355f55e)" style="opacity: 0.7"/>
   </g>
   <g id="patch_186">
    <path d="M 174.972991 299.700832 
L 175.63805 299.700832 
L 175.63805 292.698469 
L 174.972991 292.698469 
z
" clip-path="url(#p0ae355f55e)" style="opacity: 0.7"/>
   </g>
   <g id="patch_187">
    <path d="M 177.576392 299.700832 
L 178.241452 299.700832 
L 178.241452 294.394708 
L 177.576392 294.394708 
z
" clip-path="url(#p0ae355f55e)" style="opacity: 0.7"/>
   </g>
   <g id="patch_188">
    <path d="M 184.518796 299.700832 
L 185.183856 299.700832 
L 185.183856 294.365106 
L 184.518796 294.365106 
z
" clip-path="url(#p0ae355f55e)" style="opacity: 0.7"/>
   </g>
   <g id="patch_189">
    <path d="M 191.4612 299.700832 
L 192.12626 299.700832 
L 192.12626 296.282571 
L 191.4612 296.282571 
z
" clip-path="url(#p0ae355f55e)" style="opacity: 0.7"/>
   </g>
   <g id="patch_190">
    <path d="M 196.668003 299.700832 
L 197.333063 299.700832 
L 197.333063 297.440003 
L 196.668003 297.440003 
z
" clip-path="url(#p0ae355f55e)" style="opacity: 0.7"/>
   </g>
   <g id="patch_191">
    <path d="M 199.271404 299.700832 
L 199.936464 299.700832 
L 199.936464 297.261042 
L 199.271404 297.261042 
z
" clip-path="url(#p0ae355f55e)" style="opacity: 0.7"/>
   </g>
   <g id="patch_192">
    <path d="M 203.610407 299.700832 
L 204.275467 299.700832 
L 204.275467 298.552106 
L 203.610407 298.552106 
z
" clip-path="url(#p0ae355f55e)" style="opacity: 0.7"/>
   </g>
   <g id="patch_193">
    <path d="M 207.949409 299.700832 
L 208.614469 299.700832 
L 208.614469 297.399928 
L 207.949409 297.399928 
z
" clip-path="url(#p0ae355f55e)" style="opacity: 0.7"/>
   </g>
   <g id="patch_194">
    <path d="M 212.288412 299.700832 
L 212.953472 299.700832 
L 212.953472 292.883635 
L 212.288412 292.883635 
z
" clip-path="url(#p0ae355f55e)" style="opacity: 0.7"/>
   </g>
   <g id="patch_195">
    <path d="M 215.759614 299.700832 
L 216.424674 299.700832 
L 216.424674 279.433689 
L 215.759614 279.433689 
z
" clip-path="url(#p0ae355f55e)" style="opacity: 0.7"/>
   </g>
   <g id="patch_196">
    <path d="M 224.437619 299.700832 
L 225.102679 299.700832 
L 225.102679 297.370115 
L 224.437619 297.370115 
z
" clip-path="url(#p0ae355f55e)" style="opacity: 0.7"/>
   </g>
   <g id="patch_197">
    <path d="M 227.908821 299.700832 
L 228.573881 299.700832 
L 228.573881 289.628995 
L 227.908821 289.628995 
z
" clip-path="url(#p0ae355f55e)" style="opacity: 0.7"/>
   </g>
   <g id="patch_198">
    <path d="M 233.115624 299.700832 
L 233.780684 299.700832 
L 233.780684 292.489119 
L 233.115624 292.489119 
z
" clip-path="url(#p0ae355f55e)" style="opacity: 0.7"/>
   </g>
   <g id="patch_199">
    <path d="M 240.925828 299.700832 
L 241.590888 299.700832 
L 241.590888 294.980059 
L 240.925828 294.980059 
z
" clip-path="url(#p0ae355f55e)" style="opacity: 0.7"/>
   </g>
   <g id="patch_200">
    <path d="M 246.132631 299.700832 
L 246.797691 299.700832 
L 246.797691 293.593292 
L 246.132631 293.593292 
z
" clip-path="url(#p0ae355f55e)" style="opacity: 0.7"/>
   </g>
   <g id="patch_201">
    <path d="M 251.339434 299.700832 
L 252.004494 299.700832 
L 252.004494 294.245814 
L 251.339434 294.245814 
z
" clip-path="url(#p0ae355f55e)" style="opacity: 0.7"/>
   </g>
   <g id="patch_202">
    <path d="M 256.546237 299.700832 
L 257.211297 299.700832 
L 257.211297 281.285381 
L 256.546237 281.285381 
z
" clip-path="url(#p0ae355f55e)" style="opacity: 0.7"/>
   </g>
   <g id="patch_203">
    <path d="M 262.620841 299.700832 
L 263.2859 299.700832 
L 263.2859 287.016498 
L 262.620841 287.016498 
z
" clip-path="url(#p0ae355f55e)" style="opacity: 0.7"/>
   </g>
   <g id="patch_204">
    <path d="M 268.695444 299.700832 
L 269.360504 299.700832 
L 269.360504 66.96 
L 268.695444 66.96 
z
" clip-path="url(#p0ae355f55e)" style="opacity: 0.7"/>
   </g>
   <g id="patch_205">
    <path d="M 277.373449 299.700832 
L 278.038509 299.700832 
L 278.038509 296.48257 
L 277.373449 296.48257 
z
" clip-path="url(#p0ae355f55e)" style="opacity: 0.7"/>
   </g>
   <g id="patch_206">
    <path d="M 282.580252 299.700832 
L 283.245312 299.700832 
L 283.245312 282.223125 
L 282.580252 282.223125 
z
" clip-path="url(#p0ae355f55e)" style="opacity: 0.7"/>
   </g>
   <g id="patch_207">
    <path d="M 288.654855 299.700832 
L 289.319915 299.700832 
L 289.319915 252.905885 
L 288.654855 252.905885 
z
" clip-path="url(#p0ae355f55e)" style="opacity: 0.7"/>
   </g>
   <g id="patch_208">
    <path d="M 294.729459 299.700832 
L 295.394519 299.700832 
L 295.394519 277.522199 
L 294.729459 277.522199 
z
" clip-path="url(#p0ae355f55e)" style="opacity: 0.7"/>
   </g>
   <g id="patch_209">
    <path d="M 298.200661 299.700832 
L 298.865721 299.700832 
L 298.865721 294.502762 
L 298.200661 294.502762 
z
" clip-path="url(#p0ae355f55e)" style="opacity: 0.7"/>
   </g>
   <g id="patch_210">
    <path d="M 304.275264 299.700832 
L 304.940324 299.700832 
L 304.940324 296.086448 
L 304.275264 296.086448 
z
" clip-path="url(#p0ae355f55e)" style="opacity: 0.7"/>
   </g>
   <g id="patch_211">
    <path d="M 310.349868 299.700832 
L 311.014928 299.700832 
L 311.014928 293.727451 
L 310.349868 293.727451 
z
" clip-path="url(#p0ae355f55e)" style="opacity: 0.7"/>
   </g>
   <g id="patch_212">
    <path d="M 314.68887 299.700832 
L 315.35393 299.700832 
L 315.35393 275.156484 
L 314.68887 275.156484 
z
" clip-path="url(#p0ae355f55e)" style="opacity: 0.7"/>
   </g>
   <g id="patch_213">
    <path d="M 320.763474 299.700832 
L 321.428534 299.700832 
L 321.428534 244.72007 
L 320.763474 244.72007 
z
" clip-path="url(#p0ae355f55e)" style="opacity: 0.7"/>
   </g>
   <g id="patch_214">
    <path d="M 330.309279 299.700832 
L 330.974339 299.700832 
L 330.974339 275.199922 
L 330.309279 275.199922 
z
" clip-path="url(#p0ae355f55e)" style="opacity: 0.7"/>
   </g>
   <g id="patch_215">
    <path d="M 340.722885 299.700832 
L 341.387945 299.700832 
L 341.387945 287.57822 
L 340.722885 287.57822 
z
" clip-path="url(#p0ae355f55e)" style="opacity: 0.7"/>
   </g>
   <g id="patch_216">
    <path d="M 346.797489 299.700832 
L 347.462548 299.700832 
L 347.462548 292.050812 
L 346.797489 292.050812 
z
" clip-path="url(#p0ae355f55e)" style="opacity: 0.7"/>
   </g>
   <g id="patch_217">
    <path d="M 350.268691 299.700832 
L 350.93375 299.700832 
L 350.93375 282.854982 
L 350.268691 282.854982 
z
" clip-path="url(#p0ae355f55e)" style="opacity: 0.7"/>
   </g>
   <g id="patch_218">
    <path d="M 353.739893 299.700832 
L 354.404952 299.700832 
L 354.404952 291.164787 
L 353.739893 291.164787 
z
" clip-path="url(#p0ae355f55e)" style="opacity: 0.7"/>
   </g>
   <g id="patch_219">
    <path d="M 358.946696 299.700832 
L 359.611755 299.700832 
L 359.611755 234.750183 
L 358.946696 234.750183 
z
" clip-path="url(#p0ae355f55e)" style="opacity: 0.7"/>
   </g>
   <g id="patch_220">
    <path d="M 366.7569 299.700832 
L 367.42196 299.700832 
L 367.42196 258.199398 
L 366.7569 258.199398 
z
" clip-path="url(#p0ae355f55e)" style="opacity: 0.7"/>
   </g>
   <g id="patch_221">
    <path d="M 369.360301 299.700832 
L 370.025361 299.700832 
L 370.025361 228.619386 
L 369.360301 228.619386 
z
" clip-path="url(#p0ae355f55e)" style="opacity: 0.7"/>
   </g>
   <g id="patch_222">
    <path d="M 372.831503 299.700832 
L 373.496563 299.700832 
L 373.496563 142.97746 
L 372.831503 142.97746 
z
" clip-path="url(#p0ae355f55e)" style="opacity: 0.7"/>
   </g>
   <g id="patch_223">
    <path d="M 381.509508 299.700832 
L 382.174568 299.700832 
L 382.174568 287.040366 
L 381.509508 287.040366 
z
" clip-path="url(#p0ae355f55e)" style="opacity: 0.7"/>
   </g>
   <g id="patch_224">
    <path d="M 384.98071 299.700832 
L 385.64577 299.700832 
L 385.64577 289.725072 
L 384.98071 289.725072 
z
" clip-path="url(#p0ae355f55e)" style="opacity: 0.7"/>
   </g>
   <g id="patch_225">
    <path d="M 391.923114 299.700832 
L 392.588174 299.700832 
L 392.588174 186.174328 
L 391.923114 186.174328 
z
" clip-path="url(#p0ae355f55e)" style="opacity: 0.7"/>
   </g>
   <g id="patch_226">
    <path d="M 397.997718 299.700832 
L 398.662778 299.700832 
L 398.662778 251.695681 
L 397.997718 251.695681 
z
" clip-path="url(#p0ae355f55e)" style="opacity: 0.7"/>
   </g>
   <g id="patch_227">
    <path d="M 405.807922 299.700832 
L 406.472982 299.700832 
L 406.472982 267.306152 
L 405.807922 267.306152 
z
" clip-path="url(#p0ae355f55e)" style="opacity: 0.7"/>
   </g>
   <g id="patch_228">
    <path d="M 417.089329 299.700832 
L 417.754389 299.700832 
L 417.754389 185.066385 
L 417.089329 185.066385 
z
" clip-path="url(#p0ae355f55e)" style="opacity: 0.7"/>
   </g>
   <g id="patch_229">
    <path d="M 421.428331 299.700832 
L 422.093391 299.700832 
L 422.093391 230.805036 
L 421.428331 230.805036 
z
" clip-path="url(#p0ae355f55e)" style="opacity: 0.7"/>
   </g>
   <g id="patch_230">
    <path d="M 429.238536 299.700832 
L 429.903596 299.700832 
L 429.903596 269.361464 
L 429.238536 269.361464 
z
" clip-path="url(#p0ae355f55e)" style="opacity: 0.7"/>
   </g>
   <g id="patch_231">
    <path d="M 431.841937 299.700832 
L 432.506997 299.700832 
L 432.506997 266.054483 
L 431.841937 266.054483 
z
" clip-path="url(#p0ae355f55e)" style="opacity: 0.7"/>
   </g>
   <g id="patch_232">
    <path d="M 435.313139 299.700832 
L 435.978199 299.700832 
L 435.978199 275.953809 
L 435.313139 275.953809 
z
" clip-path="url(#p0ae355f55e)" style="opacity: 0.7"/>
   </g>
   <g id="patch_233">
    <path d="M 439.652142 299.700832 
L 440.317201 299.700832 
L 440.317201 275.485913 
L 439.652142 275.485913 
z
" clip-path="url(#p0ae355f55e)" style="opacity: 0.7"/>
   </g>
   <g id="patch_234">
    <path d="M 448.330147 299.700832 
L 448.995206 299.700832 
L 448.995206 250.897975 
L 448.330147 250.897975 
z
" clip-path="url(#p0ae355f55e)" style="opacity: 0.7"/>
   </g>
   <g id="patch_235">
    <path d="M 455.272551 299.700832 
L 455.93761 299.700832 
L 455.93761 291.3474 
L 455.272551 291.3474 
z
" clip-path="url(#p0ae355f55e)" style="opacity: 0.7"/>
   </g>
   <g id="patch_236">
    <path d="M 463.082755 299.700832 
L 463.747815 299.700832 
L 463.747815 99.620664 
L 463.082755 99.620664 
z
" clip-path="url(#p0ae355f55e)" style="opacity: 0.7"/>
   </g>
   <g id="patch_237">
    <path d="M 466.553957 299.700832 
L 467.219017 299.700832 
L 467.219017 278.854816 
L 466.553957 278.854816 
z
" clip-path="url(#p0ae355f55e)" style="opacity: 0.7"/>
   </g>
   <g id="patch_238">
    <path d="M 476.099762 299.700832 
L 476.764822 299.700832 
L 476.764822 266.06512 
L 476.099762 266.06512 
z
" clip-path="url(#p0ae355f55e)" style="opacity: 0.7"/>
   </g>
   <g id="patch_239">
    <path d="M 479.570964 299.700832 
L 480.236024 299.700832 
L 480.236024 292.717638 
L 479.570964 292.717638 
z
" clip-path="url(#p0ae355f55e)" style="opacity: 0.7"/>
   </g>
   <g id="patch_240">
    <path d="M 483.042166 299.700832 
L 483.707226 299.700832 
L 483.707226 296.391173 
L 483.042166 296.391173 
z
" clip-path="url(#p0ae355f55e)" style="opacity: 0.7"/>
   </g>
   <g id="patch_241">
    <path d="M 487.381169 299.700832 
L 488.046229 299.700832 
L 488.046229 221.85878 
L 487.381169 221.85878 
z
" clip-path="url(#p0ae355f55e)" style="opacity: 0.7"/>
   </g>
   <g id="patch_242">
    <path d="M 493.455772 299.700832 
L 494.120832 299.700832 
L 494.120832 296.941556 
L 493.455772 296.941556 
z
" clip-path="url(#p0ae355f55e)" style="opacity: 0.7"/>
   </g>
   <g id="patch_243">
    <path d="M 498.662575 299.700832 
L 499.327635 299.700832 
L 499.327635 252.928313 
L 498.662575 252.928313 
z
" clip-path="url(#p0ae355f55e)" style="opacity: 0.7"/>
   </g>
   <g id="patch_244">
    <path d="M 502.133777 299.700832 
L 502.798837 299.700832 
L 502.798837 272.00096 
L 502.133777 272.00096 
z
" clip-path="url(#p0ae355f55e)" style="opacity: 0.7"/>
   </g>
   <g id="patch_245">
    <path d="M 509.076181 299.700832 
L 509.741241 299.700832 
L 509.741241 262.478881 
L 509.076181 262.478881 
z
" clip-path="url(#p0ae355f55e)" style="opacity: 0.7"/>
   </g>
   <g id="patch_246">
    <path d="M 515.150785 299.700832 
L 515.815845 299.700832 
L 515.815845 295.984554 
L 515.150785 295.984554 
z
" clip-path="url(#p0ae355f55e)" style="opacity: 0.7"/>
   </g>
   <g id="patch_247">
    <path d="M 517.754186 299.700832 
L 518.419246 299.700832 
L 518.419246 296.468114 
L 517.754186 296.468114 
z
" clip-path="url(#p0ae355f55e)" style="opacity: 0.7"/>
   </g>
   <g id="patch_248">
    <path d="M 524.69659 299.700832 
L 525.36165 299.700832 
L 525.36165 257.526827 
L 524.69659 257.526827 
z
" clip-path="url(#p0ae355f55e)" style="opacity: 0.7"/>
   </g>
   <g id="patch_249">
    <path d="M 533.374595 299.700832 
L 534.039655 299.700832 
L 534.039655 299.378695 
L 533.374595 299.378695 
z
" clip-path="url(#p0ae355f55e)" style="opacity: 0.7"/>
   </g>
   <g id="patch_250">
    <path d="M 535.110196 299.700832 
L 535.775256 299.700832 
L 535.775256 299.408545 
L 535.110196 299.408545 
z
" clip-path="url(#p0ae355f55e)" style="opacity: 0.7"/>
   </g>
   <g id="patch_251">
    <path d="M 539.449199 299.700832 
L 540.114258 299.700832 
L 540.114258 292.666247 
L 539.449199 292.666247 
z
" clip-path="url(#p0ae355f55e)" style="opacity: 0.7"/>
   </g>
   <g id="patch_252">
    <path d="M 542.920401 299.700832 
L 543.58546 299.700832 
L 543.58546 258.811699 
L 542.920401 258.811699 
z
" clip-path="url(#p0ae355f55e)" style="opacity: 0.7"/>
   </g>
   <g id="patch_253">
    <path d="M 548.127204 299.700832 
L 548.792263 299.700832 
L 548.792263 269.777474 
L 548.127204 269.777474 
z
" clip-path="url(#p0ae355f55e)" style="opacity: 0.7"/>
   </g>
   <g id="patch_254">
    <path d="M 550.730605 299.700832 
L 551.395665 299.700832 
L 551.395665 272.903483 
L 550.730605 272.903483 
z
" clip-path="url(#p0ae355f55e)" style="opacity: 0.7"/>
   </g>
   <g id="patch_255">
    <path d="M 556.805208 299.700832 
L 557.470268 299.700832 
L 557.470268 296.719888 
L 556.805208 296.719888 
z
" clip-path="url(#p0ae355f55e)" style="opacity: 0.7"/>
   </g>
   <g id="patch_256">
    <path d="M 560.27641 299.700832 
L 560.94147 299.700832 
L 560.94147 202.062878 
L 560.27641 202.062878 
z
" clip-path="url(#p0ae355f55e)" style="opacity: 0.7"/>
   </g>
   <g id="patch_257">
    <path d="M 569.822216 299.700832 
L 570.487276 299.700832 
L 570.487276 299.087291 
L 569.822216 299.087291 
z
" clip-path="url(#p0ae355f55e)" style="opacity: 0.7"/>
   </g>
   <g id="patch_258">
    <path d="M 574.161218 299.700832 
L 574.826278 299.700832 
L 574.826278 259.226017 
L 574.161218 259.226017 
z
" clip-path="url(#p0ae355f55e)" style="opacity: 0.7"/>
   </g>
   <g id="patch_259">
    <path d="M 584.574824 299.700832 
L 585.239884 299.700832 
L 585.239884 298.482072 
L 584.574824 298.482072 
z
" clip-path="url(#p0ae355f55e)" style="opacity: 0.7"/>
   </g>
   <g id="patch_260">
    <path d="M 588.046026 299.700832 
L 588.711086 299.700832 
L 588.711086 282.185973 
L 588.046026 282.185973 
z
" clip-path="url(#p0ae355f55e)" style="opacity: 0.7"/>
   </g>
   <g id="patch_261">
    <path d="M 594.12063 299.700832 
L 594.78569 299.700832 
L 594.78569 297.899615 
L 594.12063 297.899615 
z
" clip-path="url(#p0ae355f55e)" style="opacity: 0.7"/>
   </g>
   <g id="patch_262">
    <path d="M 598.459632 299.700832 
L 599.124692 299.700832 
L 599.124692 249.694333 
L 598.459632 249.694333 
z
" clip-path="url(#p0ae355f55e)" style="opacity: 0.7"/>
   </g>
   <g id="patch_263">
    <path d="M 601.930834 299.700832 
L 602.595894 299.700832 
L 602.595894 285.149331 
L 601.930834 285.149331 
z
" clip-path="url(#p0ae355f55e)" style="opacity: 0.7"/>
   </g>
   <g id="patch_264">
    <path d="M 607.137637 299.700832 
L 607.802697 299.700832 
L 607.802697 297.763531 
L 607.137637 297.763531 
z
" clip-path="url(#p0ae355f55e)" style="opacity: 0.7"/>
   </g>
   <g id="patch_265">
    <path d="M 612.34444 299.700832 
L 613.0095 299.700832 
L 613.0095 206.948097 
L 612.34444 206.948097 
z
" clip-path="url(#p0ae355f55e)" style="opacity: 0.7"/>
   </g>
   <g id="patch_266">
    <path d="M 166.264656 299.700832 
L 167.262246 299.700832 
L 167.262246 296.325194 
L 166.264656 296.325194 
z
" clip-path="url(#p0ae355f55e)" style="fill: #ff0000"/>
   </g>
   <g id="patch_267">
    <path d="M 166.264656 299.700832 
L 167.262246 299.700832 
L 167.262246 294.342008 
L 166.264656 294.342008 
z
" clip-path="url(#p0ae355f55e)" style="fill: #ff0000"/>
   </g>
   <g id="patch_268">
    <path d="M 167.211369 299.700832 
L 168.208958 299.700832 
L 168.208958 293.998671 
L 167.211369 293.998671 
z
" clip-path="url(#p0ae355f55e)" style="fill: #ff0000"/>
   </g>
   <g id="patch_269">
    <path d="M 167.211369 299.700832 
L 168.208958 299.700832 
L 168.208958 283.465275 
L 167.211369 283.465275 
z
" clip-path="url(#p0ae355f55e)" style="fill: #ff0000"/>
   </g>
   <g id="patch_270">
    <path d="M 167.211369 299.700832 
L 168.208958 299.700832 
L 168.208958 290.411828 
L 167.211369 290.411828 
z
" clip-path="url(#p0ae355f55e)" style="fill: #ff0000"/>
   </g>
   <g id="patch_271">
    <path d="M 167.211369 299.700832 
L 168.208958 299.700832 
L 168.208958 290.543936 
L 167.211369 290.543936 
z
" clip-path="url(#p0ae355f55e)" style="fill: #ff0000"/>
   </g>
   <g id="patch_272">
    <path d="M 169.235146 299.700832 
L 170.232735 299.700832 
L 170.232735 277.608226 
L 169.235146 277.608226 
z
" clip-path="url(#p0ae355f55e)" style="fill: #ff0000"/>
   </g>
   <g id="patch_273">
    <path d="M 169.235146 299.700832 
L 170.232735 299.700832 
L 170.232735 269.267856 
L 169.235146 269.267856 
z
" clip-path="url(#p0ae355f55e)" style="fill: #ff0000"/>
   </g>
   <g id="patch_274">
    <path d="M 169.235146 299.700832 
L 170.232735 299.700832 
L 170.232735 281.308328 
L 169.235146 281.308328 
z
" clip-path="url(#p0ae355f55e)" style="fill: #ff0000"/>
   </g>
   <g id="patch_275">
    <path d="M 169.235146 299.700832 
L 170.232735 299.700832 
L 170.232735 281.193929 
L 169.235146 281.193929 
z
" clip-path="url(#p0ae355f55e)" style="fill: #ff0000"/>
   </g>
   <g id="patch_276">
    <path d="M 175.885744 299.700832 
L 176.883334 299.700832 
L 176.883334 292.698469 
L 175.885744 292.698469 
z
" clip-path="url(#p0ae355f55e)" style="fill: #ff0000"/>
   </g>
   <g id="patch_277">
    <path d="M 180.440406 299.700832 
L 181.437996 299.700832 
L 181.437996 294.394708 
L 180.440406 294.394708 
z
" clip-path="url(#p0ae355f55e)" style="fill: #ff0000"/>
   </g>
   <g id="patch_278">
    <path d="M 186.324523 299.700832 
L 187.322113 299.700832 
L 187.322113 294.365106 
L 186.324523 294.365106 
z
" clip-path="url(#p0ae355f55e)" style="fill: #ff0000"/>
   </g>
   <g id="patch_279">
    <path d="M 192.975122 299.700832 
L 193.972711 299.700832 
L 193.972711 296.282571 
L 192.975122 296.282571 
z
" clip-path="url(#p0ae355f55e)" style="fill: #ff0000"/>
   </g>
   <g id="patch_280">
    <path d="M 199.62572 299.700832 
L 200.62331 299.700832 
L 200.62331 297.440003 
L 199.62572 297.440003 
z
" clip-path="url(#p0ae355f55e)" style="fill: #ff0000"/>
   </g>
   <g id="patch_281">
    <path d="M 206.276318 299.700832 
L 207.273908 299.700832 
L 207.273908 297.261042 
L 206.276318 297.261042 
z
" clip-path="url(#p0ae355f55e)" style="fill: #ff0000"/>
   </g>
   <g id="patch_282">
    <path d="M 212.926917 299.700832 
L 213.924506 299.700832 
L 213.924506 298.552106 
L 212.926917 298.552106 
z
" clip-path="url(#p0ae355f55e)" style="fill: #ff0000"/>
   </g>
   <g id="patch_283">
    <path d="M 219.403269 299.700832 
L 220.400859 299.700832 
L 220.400859 297.399928 
L 219.403269 297.399928 
z
" clip-path="url(#p0ae355f55e)" style="fill: #ff0000"/>
   </g>
   <g id="patch_284">
    <path d="M 226.053868 299.700832 
L 227.051458 299.700832 
L 227.051458 292.883635 
L 226.053868 292.883635 
z
" clip-path="url(#p0ae355f55e)" style="fill: #ff0000"/>
   </g>
   <g id="patch_285">
    <path d="M 231.361378 299.700832 
L 232.358968 299.700832 
L 232.358968 279.433689 
L 231.361378 279.433689 
z
" clip-path="url(#p0ae355f55e)" style="fill: #ff0000"/>
   </g>
   <g id="patch_286">
    <path d="M 238.011976 299.700832 
L 239.009566 299.700832 
L 239.009566 297.370115 
L 238.011976 297.370115 
z
" clip-path="url(#p0ae355f55e)" style="fill: #ff0000"/>
   </g>
   <g id="patch_287">
    <path d="M 242.729246 299.700832 
L 243.726835 299.700832 
L 243.726835 289.628995 
L 242.729246 289.628995 
z
" clip-path="url(#p0ae355f55e)" style="fill: #ff0000"/>
   </g>
   <g id="patch_288">
    <path d="M 242.729246 299.700832 
L 243.726835 299.700832 
L 243.726835 292.489119 
L 242.729246 292.489119 
z
" clip-path="url(#p0ae355f55e)" style="fill: #ff0000"/>
   </g>
   <g id="patch_289">
    <path d="M 249.379844 299.700832 
L 250.377434 299.700832 
L 250.377434 294.980059 
L 249.379844 294.980059 
z
" clip-path="url(#p0ae355f55e)" style="fill: #ff0000"/>
   </g>
   <g id="patch_290">
    <path d="M 256.030442 299.700832 
L 257.028032 299.700832 
L 257.028032 293.593292 
L 256.030442 293.593292 
z
" clip-path="url(#p0ae355f55e)" style="fill: #ff0000"/>
   </g>
   <g id="patch_291">
    <path d="M 256.030442 299.700832 
L 257.028032 299.700832 
L 257.028032 294.245814 
L 256.030442 294.245814 
z
" clip-path="url(#p0ae355f55e)" style="fill: #ff0000"/>
   </g>
   <g id="patch_292">
    <path d="M 256.404538 299.700832 
L 257.402128 299.700832 
L 257.402128 281.285381 
L 256.404538 281.285381 
z
" clip-path="url(#p0ae355f55e)" style="fill: #ff0000"/>
   </g>
   <g id="patch_293">
    <path d="M 263.055137 299.700832 
L 264.052727 299.700832 
L 264.052727 287.016498 
L 263.055137 287.016498 
z
" clip-path="url(#p0ae355f55e)" style="fill: #ff0000"/>
   </g>
   <g id="patch_294">
    <path d="M 269.063254 299.700832 
L 270.060844 299.700832 
L 270.060844 66.96 
L 269.063254 66.96 
z
" clip-path="url(#p0ae355f55e)" style="fill: #ff0000"/>
   </g>
   <g id="patch_295">
    <path d="M 275.713852 299.700832 
L 276.711442 299.700832 
L 276.711442 296.48257 
L 275.713852 296.48257 
z
" clip-path="url(#p0ae355f55e)" style="fill: #ff0000"/>
   </g>
   <g id="patch_296">
    <path d="M 282.355838 299.700832 
L 283.353428 299.700832 
L 283.353428 282.223125 
L 282.355838 282.223125 
z
" clip-path="url(#p0ae355f55e)" style="fill: #ff0000"/>
   </g>
   <g id="patch_297">
    <path d="M 288.166466 299.700832 
L 289.164056 299.700832 
L 289.164056 252.905885 
L 288.166466 252.905885 
z
" clip-path="url(#p0ae355f55e)" style="fill: #ff0000"/>
   </g>
   <g id="patch_298">
    <path d="M 294.362164 299.700832 
L 295.359753 299.700832 
L 295.359753 277.522199 
L 294.362164 277.522199 
z
" clip-path="url(#p0ae355f55e)" style="fill: #ff0000"/>
   </g>
   <g id="patch_299">
    <path d="M 301.012762 299.700832 
L 302.010352 299.700832 
L 302.010352 294.502762 
L 301.012762 294.502762 
z
" clip-path="url(#p0ae355f55e)" style="fill: #ff0000"/>
   </g>
   <g id="patch_300">
    <path d="M 304.35901 299.700832 
L 305.3566 299.700832 
L 305.3566 296.086448 
L 304.35901 296.086448 
z
" clip-path="url(#p0ae355f55e)" style="fill: #ff0000"/>
   </g>
   <g id="patch_301">
    <path d="M 311.009609 299.700832 
L 312.007199 299.700832 
L 312.007199 293.727451 
L 311.009609 293.727451 
z
" clip-path="url(#p0ae355f55e)" style="fill: #ff0000"/>
   </g>
   <g id="patch_302">
    <path d="M 314.800117 299.700832 
L 315.797707 299.700832 
L 315.797707 275.156484 
L 314.800117 275.156484 
z
" clip-path="url(#p0ae355f55e)" style="fill: #ff0000"/>
   </g>
   <g id="patch_303">
    <path d="M 314.800117 299.700832 
L 315.797707 299.700832 
L 315.797707 244.72007 
L 314.800117 244.72007 
z
" clip-path="url(#p0ae355f55e)" style="fill: #ff0000"/>
   </g>
   <g id="patch_304">
    <path d="M 317.33333 299.700832 
L 318.33092 299.700832 
L 318.33092 275.199922 
L 317.33333 275.199922 
z
" clip-path="url(#p0ae355f55e)" style="fill: #ff0000"/>
   </g>
   <g id="patch_305">
    <path d="M 317.33333 299.700832 
L 318.33092 299.700832 
L 318.33092 287.57822 
L 317.33333 287.57822 
z
" clip-path="url(#p0ae355f55e)" style="fill: #ff0000"/>
   </g>
   <g id="patch_306">
    <path d="M 317.33333 299.700832 
L 318.33092 299.700832 
L 318.33092 292.050812 
L 317.33333 292.050812 
z
" clip-path="url(#p0ae355f55e)" style="fill: #ff0000"/>
   </g>
   <g id="patch_307">
    <path d="M 317.33333 299.700832 
L 318.33092 299.700832 
L 318.33092 282.854982 
L 317.33333 282.854982 
z
" clip-path="url(#p0ae355f55e)" style="fill: #ff0000"/>
   </g>
   <g id="patch_308">
    <path d="M 323.679664 299.700832 
L 324.677253 299.700832 
L 324.677253 291.164787 
L 323.679664 291.164787 
z
" clip-path="url(#p0ae355f55e)" style="fill: #ff0000"/>
   </g>
   <g id="patch_309">
    <path d="M 330.034643 299.700832 
L 331.032233 299.700832 
L 331.032233 234.750183 
L 330.034643 234.750183 
z
" clip-path="url(#p0ae355f55e)" style="fill: #ff0000"/>
   </g>
   <g id="patch_310">
    <path d="M 330.034643 299.700832 
L 331.032233 299.700832 
L 331.032233 258.199398 
L 330.034643 258.199398 
z
" clip-path="url(#p0ae355f55e)" style="fill: #ff0000"/>
   </g>
   <g id="patch_311">
    <path d="M 330.034643 299.700832 
L 331.032233 299.700832 
L 331.032233 228.619386 
L 330.034643 228.619386 
z
" clip-path="url(#p0ae355f55e)" style="fill: #ff0000"/>
   </g>
   <g id="patch_312">
    <path d="M 330.034643 299.700832 
L 331.032233 299.700832 
L 331.032233 142.97746 
L 330.034643 142.97746 
z
" clip-path="url(#p0ae355f55e)" style="fill: #ff0000"/>
   </g>
   <g id="patch_313">
    <path d="M 332.551562 299.700832 
L 333.549152 299.700832 
L 333.549152 287.040366 
L 332.551562 287.040366 
z
" clip-path="url(#p0ae355f55e)" style="fill: #ff0000"/>
   </g>
   <g id="patch_314">
    <path d="M 339.20216 299.700832 
L 340.19975 299.700832 
L 340.19975 289.725072 
L 339.20216 289.725072 
z
" clip-path="url(#p0ae355f55e)" style="fill: #ff0000"/>
   </g>
   <g id="patch_315">
    <path d="M 340.644675 299.700832 
L 341.642265 299.700832 
L 341.642265 186.174328 
L 340.644675 186.174328 
z
" clip-path="url(#p0ae355f55e)" style="fill: #ff0000"/>
   </g>
   <g id="patch_316">
    <path d="M 340.644675 299.700832 
L 341.642265 299.700832 
L 341.642265 251.695681 
L 340.644675 251.695681 
z
" clip-path="url(#p0ae355f55e)" style="fill: #ff0000"/>
   </g>
   <g id="patch_317">
    <path d="M 340.644675 299.700832 
L 341.642265 299.700832 
L 341.642265 267.306152 
L 340.644675 267.306152 
z
" clip-path="url(#p0ae355f55e)" style="fill: #ff0000"/>
   </g>
   <g id="patch_318">
    <path d="M 340.644675 299.700832 
L 341.642265 299.700832 
L 341.642265 185.066385 
L 340.644675 185.066385 
z
" clip-path="url(#p0ae355f55e)" style="fill: #ff0000"/>
   </g>
   <g id="patch_319">
    <path d="M 340.644675 299.700832 
L 341.642265 299.700832 
L 341.642265 230.805036 
L 340.644675 230.805036 
z
" clip-path="url(#p0ae355f55e)" style="fill: #ff0000"/>
   </g>
   <g id="patch_320">
    <path d="M 340.644675 299.700832 
L 341.642265 299.700832 
L 341.642265 269.361464 
L 340.644675 269.361464 
z
" clip-path="url(#p0ae355f55e)" style="fill: #ff0000"/>
   </g>
   <g id="patch_321">
    <path d="M 340.644675 299.700832 
L 341.642265 299.700832 
L 341.642265 266.054483 
L 340.644675 266.054483 
z
" clip-path="url(#p0ae355f55e)" style="fill: #ff0000"/>
   </g>
   <g id="patch_322">
    <path d="M 340.644675 299.700832 
L 341.642265 299.700832 
L 341.642265 275.953809 
L 340.644675 275.953809 
z
" clip-path="url(#p0ae355f55e)" style="fill: #ff0000"/>
   </g>
   <g id="patch_323">
    <path d="M 340.644675 299.700832 
L 341.642265 299.700832 
L 341.642265 275.485913 
L 340.644675 275.485913 
z
" clip-path="url(#p0ae355f55e)" style="fill: #ff0000"/>
   </g>
   <g id="patch_324">
    <path d="M 340.644675 299.700832 
L 341.642265 299.700832 
L 341.642265 250.897975 
L 340.644675 250.897975 
z
" clip-path="url(#p0ae355f55e)" style="fill: #ff0000"/>
   </g>
   <g id="patch_325">
    <path d="M 340.644675 299.700832 
L 341.642265 299.700832 
L 341.642265 291.3474 
L 340.644675 291.3474 
z
" clip-path="url(#p0ae355f55e)" style="fill: #ff0000"/>
   </g>
   <g id="patch_326">
    <path d="M 340.644675 299.700832 
L 341.642265 299.700832 
L 341.642265 99.620664 
L 340.644675 99.620664 
z
" clip-path="url(#p0ae355f55e)" style="fill: #ff0000"/>
   </g>
   <g id="patch_327">
    <path d="M 340.644675 299.700832 
L 341.642265 299.700832 
L 341.642265 278.854816 
L 340.644675 278.854816 
z
" clip-path="url(#p0ae355f55e)" style="fill: #ff0000"/>
   </g>
   <g id="patch_328">
    <path d="M 340.644675 299.700832 
L 341.642265 299.700832 
L 341.642265 266.06512 
L 340.644675 266.06512 
z
" clip-path="url(#p0ae355f55e)" style="fill: #ff0000"/>
   </g>
   <g id="patch_329">
    <path d="M 347.295273 299.700832 
L 348.292863 299.700832 
L 348.292863 292.717638 
L 347.295273 292.717638 
z
" clip-path="url(#p0ae355f55e)" style="fill: #ff0000"/>
   </g>
   <g id="patch_330">
    <path d="M 347.295273 299.700832 
L 348.292863 299.700832 
L 348.292863 296.391173 
L 347.295273 296.391173 
z
" clip-path="url(#p0ae355f55e)" style="fill: #ff0000"/>
   </g>
   <g id="patch_331">
    <path d="M 349.892997 299.700832 
L 350.890587 299.700832 
L 350.890587 221.85878 
L 349.892997 221.85878 
z
" clip-path="url(#p0ae355f55e)" style="fill: #ff0000"/>
   </g>
   <g id="patch_332">
    <path d="M 356.543596 299.700832 
L 357.541185 299.700832 
L 357.541185 296.941556 
L 356.543596 296.941556 
z
" clip-path="url(#p0ae355f55e)" style="fill: #ff0000"/>
   </g>
   <g id="patch_333">
    <path d="M 357.994091 299.700832 
L 358.991681 299.700832 
L 358.991681 252.928313 
L 357.994091 252.928313 
z
" clip-path="url(#p0ae355f55e)" style="fill: #ff0000"/>
   </g>
   <g id="patch_334">
    <path d="M 364.644689 299.700832 
L 365.642279 299.700832 
L 365.642279 272.00096 
L 364.644689 272.00096 
z
" clip-path="url(#p0ae355f55e)" style="fill: #ff0000"/>
   </g>
   <g id="patch_335">
    <path d="M 365.712443 299.700832 
L 366.710033 299.700832 
L 366.710033 262.478881 
L 365.712443 262.478881 
z
" clip-path="url(#p0ae355f55e)" style="fill: #ff0000"/>
   </g>
   <g id="patch_336">
    <path d="M 369.508605 299.700832 
L 370.506194 299.700832 
L 370.506194 295.984554 
L 369.508605 295.984554 
z
" clip-path="url(#p0ae355f55e)" style="fill: #ff0000"/>
   </g>
   <g id="patch_337">
    <path d="M 376.146234 299.700832 
L 377.143824 299.700832 
L 377.143824 296.468114 
L 376.146234 296.468114 
z
" clip-path="url(#p0ae355f55e)" style="fill: #ff0000"/>
   </g>
   <g id="patch_338">
    <path d="M 381.960187 299.700832 
L 382.957777 299.700832 
L 382.957777 257.526827 
L 381.960187 257.526827 
z
" clip-path="url(#p0ae355f55e)" style="fill: #ff0000"/>
   </g>
   <g id="patch_339">
    <path d="M 388.610786 299.700832 
L 389.608375 299.700832 
L 389.608375 299.378695 
L 388.610786 299.378695 
z
" clip-path="url(#p0ae355f55e)" style="fill: #ff0000"/>
   </g>
   <g id="patch_340">
    <path d="M 391.936085 299.700832 
L 392.933675 299.700832 
L 392.933675 299.408545 
L 391.936085 299.408545 
z
" clip-path="url(#p0ae355f55e)" style="fill: #ff0000"/>
   </g>
   <g id="patch_341">
    <path d="M 392.336451 299.700832 
L 393.334041 299.700832 
L 393.334041 292.666247 
L 392.336451 292.666247 
z
" clip-path="url(#p0ae355f55e)" style="fill: #ff0000"/>
   </g>
   <g id="patch_342">
    <path d="M 394.719028 299.700832 
L 395.716617 299.700832 
L 395.716617 258.811699 
L 394.719028 258.811699 
z
" clip-path="url(#p0ae355f55e)" style="fill: #ff0000"/>
   </g>
   <g id="patch_343">
    <path d="M 394.719028 299.700832 
L 395.716617 299.700832 
L 395.716617 269.777474 
L 394.719028 269.777474 
z
" clip-path="url(#p0ae355f55e)" style="fill: #ff0000"/>
   </g>
   <g id="patch_344">
    <path d="M 394.719028 299.700832 
L 395.716617 299.700832 
L 395.716617 272.903483 
L 394.719028 272.903483 
z
" clip-path="url(#p0ae355f55e)" style="fill: #ff0000"/>
   </g>
   <g id="patch_345">
    <path d="M 398.044327 299.700832 
L 399.041917 299.700832 
L 399.041917 296.719888 
L 398.044327 296.719888 
z
" clip-path="url(#p0ae355f55e)" style="fill: #ff0000"/>
   </g>
   <g id="patch_346">
    <path d="M 398.377189 299.700832 
L 399.374779 299.700832 
L 399.374779 202.062878 
L 398.377189 202.062878 
z
" clip-path="url(#p0ae355f55e)" style="fill: #ff0000"/>
   </g>
   <g id="patch_347">
    <path d="M 405.027788 299.700832 
L 406.025377 299.700832 
L 406.025377 299.087291 
L 405.027788 299.087291 
z
" clip-path="url(#p0ae355f55e)" style="fill: #ff0000"/>
   </g>
   <g id="patch_348">
    <path d="M 411.678386 299.700832 
L 412.675976 299.700832 
L 412.675976 259.226017 
L 411.678386 259.226017 
z
" clip-path="url(#p0ae355f55e)" style="fill: #ff0000"/>
   </g>
   <g id="patch_349">
    <path d="M 415.003685 299.700832 
L 416.001275 299.700832 
L 416.001275 298.482072 
L 415.003685 298.482072 
z
" clip-path="url(#p0ae355f55e)" style="fill: #ff0000"/>
   </g>
   <g id="patch_350">
    <path d="M 419.550034 299.700832 
L 420.547624 299.700832 
L 420.547624 282.185973 
L 419.550034 282.185973 
z
" clip-path="url(#p0ae355f55e)" style="fill: #ff0000"/>
   </g>
   <g id="patch_351">
    <path d="M 425.157819 299.700832 
L 426.155409 299.700832 
L 426.155409 297.899615 
L 425.157819 297.899615 
z
" clip-path="url(#p0ae355f55e)" style="fill: #ff0000"/>
   </g>
   <g id="patch_352">
    <path d="M 429.377291 299.700832 
L 430.374881 299.700832 
L 430.374881 249.694333 
L 429.377291 249.694333 
z
" clip-path="url(#p0ae355f55e)" style="fill: #ff0000"/>
   </g>
   <g id="patch_353">
    <path d="M 435.666762 299.700832 
L 436.664352 299.700832 
L 436.664352 285.149331 
L 435.666762 285.149331 
z
" clip-path="url(#p0ae355f55e)" style="fill: #ff0000"/>
   </g>
   <g id="patch_354">
    <path d="M 442.31736 299.700832 
L 443.31495 299.700832 
L 443.31495 297.763531 
L 442.31736 297.763531 
z
" clip-path="url(#p0ae355f55e)" style="fill: #ff0000"/>
   </g>
   <g id="patch_355">
    <path d="M 447.748904 299.700832 
L 448.746494 299.700832 
L 448.746494 206.948097 
L 447.748904 206.948097 
z
" clip-path="url(#p0ae355f55e)" style="fill: #ff0000"/>
   </g>
   <g id="matplotlib.axis_1">
    <g id="xtick_1">
     <g id="line2d_1">
      <defs>
       <path id="mab10148142" d="M 0 0 
L 0 3.5 
" style="stroke: #000000; stroke-width: 0.8"/>
      </defs>
      <g>
       <use xlink:href="#mab10148142" x="106.572875" y="384.48" style="stroke: #000000; stroke-width: 0.8"/>
      </g>
     </g>
     <g id="text_1">
      <!-- 3400 -->
      <g transform="translate(93.847875 399.078438) scale(0.1 -0.1)">
       <defs>
        <path id="DejaVuSans-33" d="M 2597 2516 
Q 3050 2419 3304 2112 
Q 3559 1806 3559 1356 
Q 3559 666 3084 287 
Q 2609 -91 1734 -91 
Q 1441 -91 1130 -33 
Q 819 25 488 141 
L 488 750 
Q 750 597 1062 519 
Q 1375 441 1716 441 
Q 2309 441 2620 675 
Q 2931 909 2931 1356 
Q 2931 1769 2642 2001 
Q 2353 2234 1838 2234 
L 1294 2234 
L 1294 2753 
L 1863 2753 
Q 2328 2753 2575 2939 
Q 2822 3125 2822 3475 
Q 2822 3834 2567 4026 
Q 2313 4219 1838 4219 
Q 1578 4219 1281 4162 
Q 984 4106 628 3988 
L 628 4550 
Q 988 4650 1302 4700 
Q 1616 4750 1894 4750 
Q 2613 4750 3031 4423 
Q 3450 4097 3450 3541 
Q 3450 3153 3228 2886 
Q 3006 2619 2597 2516 
z
" transform="scale(0.015625)"/>
        <path id="DejaVuSans-34" d="M 2419 4116 
L 825 1625 
L 2419 1625 
L 2419 4116 
z
M 2253 4666 
L 3047 4666 
L 3047 1625 
L 3713 1625 
L 3713 1100 
L 3047 1100 
L 3047 0 
L 2419 0 
L 2419 1100 
L 313 1100 
L 313 1709 
L 2253 4666 
z
" transform="scale(0.015625)"/>
        <path id="DejaVuSans-30" d="M 2034 4250 
Q 1547 4250 1301 3770 
Q 1056 3291 1056 2328 
Q 1056 1369 1301 889 
Q 1547 409 2034 409 
Q 2525 409 2770 889 
Q 3016 1369 3016 2328 
Q 3016 3291 2770 3770 
Q 2525 4250 2034 4250 
z
M 2034 4750 
Q 2819 4750 3233 4129 
Q 3647 3509 3647 2328 
Q 3647 1150 3233 529 
Q 2819 -91 2034 -91 
Q 1250 -91 836 529 
Q 422 1150 422 2328 
Q 422 3509 836 4129 
Q 1250 4750 2034 4750 
z
" transform="scale(0.015625)"/>
       </defs>
       <use xlink:href="#DejaVuSans-33"/>
       <use xlink:href="#DejaVuSans-34" x="63.623047"/>
       <use xlink:href="#DejaVuSans-30" x="127.246094"/>
       <use xlink:href="#DejaVuSans-30" x="190.869141"/>
      </g>
     </g>
    </g>
    <g id="xtick_2">
     <g id="line2d_2">
      <g>
       <use xlink:href="#mab10148142" x="173.078859" y="384.48" style="stroke: #000000; stroke-width: 0.8"/>
      </g>
     </g>
     <g id="text_2">
      <!-- 3600 -->
      <g transform="translate(160.353859 399.078438) scale(0.1 -0.1)">
       <defs>
        <path id="DejaVuSans-36" d="M 2113 2584 
Q 1688 2584 1439 2293 
Q 1191 2003 1191 1497 
Q 1191 994 1439 701 
Q 1688 409 2113 409 
Q 2538 409 2786 701 
Q 3034 994 3034 1497 
Q 3034 2003 2786 2293 
Q 2538 2584 2113 2584 
z
M 3366 4563 
L 3366 3988 
Q 3128 4100 2886 4159 
Q 2644 4219 2406 4219 
Q 1781 4219 1451 3797 
Q 1122 3375 1075 2522 
Q 1259 2794 1537 2939 
Q 1816 3084 2150 3084 
Q 2853 3084 3261 2657 
Q 3669 2231 3669 1497 
Q 3669 778 3244 343 
Q 2819 -91 2113 -91 
Q 1303 -91 875 529 
Q 447 1150 447 2328 
Q 447 3434 972 4092 
Q 1497 4750 2381 4750 
Q 2619 4750 2861 4703 
Q 3103 4656 3366 4563 
z
" transform="scale(0.015625)"/>
       </defs>
       <use xlink:href="#DejaVuSans-33"/>
       <use xlink:href="#DejaVuSans-36" x="63.623047"/>
       <use xlink:href="#DejaVuSans-30" x="127.246094"/>
       <use xlink:href="#DejaVuSans-30" x="190.869141"/>
      </g>
     </g>
    </g>
    <g id="xtick_3">
     <g id="line2d_3">
      <g>
       <use xlink:href="#mab10148142" x="239.584843" y="384.48" style="stroke: #000000; stroke-width: 0.8"/>
      </g>
     </g>
     <g id="text_3">
      <!-- 3800 -->
      <g transform="translate(226.859843 399.078438) scale(0.1 -0.1)">
       <defs>
        <path id="DejaVuSans-38" d="M 2034 2216 
Q 1584 2216 1326 1975 
Q 1069 1734 1069 1313 
Q 1069 891 1326 650 
Q 1584 409 2034 409 
Q 2484 409 2743 651 
Q 3003 894 3003 1313 
Q 3003 1734 2745 1975 
Q 2488 2216 2034 2216 
z
M 1403 2484 
Q 997 2584 770 2862 
Q 544 3141 544 3541 
Q 544 4100 942 4425 
Q 1341 4750 2034 4750 
Q 2731 4750 3128 4425 
Q 3525 4100 3525 3541 
Q 3525 3141 3298 2862 
Q 3072 2584 2669 2484 
Q 3125 2378 3379 2068 
Q 3634 1759 3634 1313 
Q 3634 634 3220 271 
Q 2806 -91 2034 -91 
Q 1263 -91 848 271 
Q 434 634 434 1313 
Q 434 1759 690 2068 
Q 947 2378 1403 2484 
z
M 1172 3481 
Q 1172 3119 1398 2916 
Q 1625 2713 2034 2713 
Q 2441 2713 2670 2916 
Q 2900 3119 2900 3481 
Q 2900 3844 2670 4047 
Q 2441 4250 2034 4250 
Q 1625 4250 1398 4047 
Q 1172 3844 1172 3481 
z
" transform="scale(0.015625)"/>
       </defs>
       <use xlink:href="#DejaVuSans-33"/>
       <use xlink:href="#DejaVuSans-38" x="63.623047"/>
       <use xlink:href="#DejaVuSans-30" x="127.246094"/>
       <use xlink:href="#DejaVuSans-30" x="190.869141"/>
      </g>
     </g>
    </g>
    <g id="xtick_4">
     <g id="line2d_4">
      <g>
       <use xlink:href="#mab10148142" x="306.090826" y="384.48" style="stroke: #000000; stroke-width: 0.8"/>
      </g>
     </g>
     <g id="text_4">
      <!-- 4000 -->
      <g transform="translate(293.365826 399.078438) scale(0.1 -0.1)">
       <use xlink:href="#DejaVuSans-34"/>
       <use xlink:href="#DejaVuSans-30" x="63.623047"/>
       <use xlink:href="#DejaVuSans-30" x="127.246094"/>
       <use xlink:href="#DejaVuSans-30" x="190.869141"/>
      </g>
     </g>
    </g>
    <g id="xtick_5">
     <g id="line2d_5">
      <g>
       <use xlink:href="#mab10148142" x="372.59681" y="384.48" style="stroke: #000000; stroke-width: 0.8"/>
      </g>
     </g>
     <g id="text_5">
      <!-- 4200 -->
      <g transform="translate(359.87181 399.078438) scale(0.1 -0.1)">
       <defs>
        <path id="DejaVuSans-32" d="M 1228 531 
L 3431 531 
L 3431 0 
L 469 0 
L 469 531 
Q 828 903 1448 1529 
Q 2069 2156 2228 2338 
Q 2531 2678 2651 2914 
Q 2772 3150 2772 3378 
Q 2772 3750 2511 3984 
Q 2250 4219 1831 4219 
Q 1534 4219 1204 4116 
Q 875 4013 500 3803 
L 500 4441 
Q 881 4594 1212 4672 
Q 1544 4750 1819 4750 
Q 2544 4750 2975 4387 
Q 3406 4025 3406 3419 
Q 3406 3131 3298 2873 
Q 3191 2616 2906 2266 
Q 2828 2175 2409 1742 
Q 1991 1309 1228 531 
z
" transform="scale(0.015625)"/>
       </defs>
       <use xlink:href="#DejaVuSans-34"/>
       <use xlink:href="#DejaVuSans-32" x="63.623047"/>
       <use xlink:href="#DejaVuSans-30" x="127.246094"/>
       <use xlink:href="#DejaVuSans-30" x="190.869141"/>
      </g>
     </g>
    </g>
    <g id="xtick_6">
     <g id="line2d_6">
      <g>
       <use xlink:href="#mab10148142" x="439.102793" y="384.48" style="stroke: #000000; stroke-width: 0.8"/>
      </g>
     </g>
     <g id="text_6">
      <!-- 4400 -->
      <g transform="translate(426.377793 399.078438) scale(0.1 -0.1)">
       <use xlink:href="#DejaVuSans-34"/>
       <use xlink:href="#DejaVuSans-34" x="63.623047"/>
       <use xlink:href="#DejaVuSans-30" x="127.246094"/>
       <use xlink:href="#DejaVuSans-30" x="190.869141"/>
      </g>
     </g>
    </g>
    <g id="xtick_7">
     <g id="line2d_7">
      <g>
       <use xlink:href="#mab10148142" x="505.608777" y="384.48" style="stroke: #000000; stroke-width: 0.8"/>
      </g>
     </g>
     <g id="text_7">
      <!-- 4600 -->
      <g transform="translate(492.883777 399.078438) scale(0.1 -0.1)">
       <use xlink:href="#DejaVuSans-34"/>
       <use xlink:href="#DejaVuSans-36" x="63.623047"/>
       <use xlink:href="#DejaVuSans-30" x="127.246094"/>
       <use xlink:href="#DejaVuSans-30" x="190.869141"/>
      </g>
     </g>
    </g>
    <g id="xtick_8">
     <g id="line2d_8">
      <g>
       <use xlink:href="#mab10148142" x="572.114761" y="384.48" style="stroke: #000000; stroke-width: 0.8"/>
      </g>
     </g>
     <g id="text_8">
      <!-- 4800 -->
      <g transform="translate(559.389761 399.078438) scale(0.1 -0.1)">
       <use xlink:href="#DejaVuSans-34"/>
       <use xlink:href="#DejaVuSans-38" x="63.623047"/>
       <use xlink:href="#DejaVuSans-30" x="127.246094"/>
       <use xlink:href="#DejaVuSans-30" x="190.869141"/>
      </g>
     </g>
    </g>
    <g id="xtick_9">
     <g id="line2d_9">
      <g>
       <use xlink:href="#mab10148142" x="638.620744" y="384.48" style="stroke: #000000; stroke-width: 0.8"/>
      </g>
     </g>
     <g id="text_9">
      <!-- 5000 -->
      <g transform="translate(625.895744 399.078438) scale(0.1 -0.1)">
       <defs>
        <path id="DejaVuSans-35" d="M 691 4666 
L 3169 4666 
L 3169 4134 
L 1269 4134 
L 1269 2991 
Q 1406 3038 1543 3061 
Q 1681 3084 1819 3084 
Q 2600 3084 3056 2656 
Q 3513 2228 3513 1497 
Q 3513 744 3044 326 
Q 2575 -91 1722 -91 
Q 1428 -91 1123 -41 
Q 819 9 494 109 
L 494 744 
Q 775 591 1075 516 
Q 1375 441 1709 441 
Q 2250 441 2565 725 
Q 2881 1009 2881 1497 
Q 2881 1984 2565 2268 
Q 2250 2553 1709 2553 
Q 1456 2553 1204 2497 
Q 953 2441 691 2322 
L 691 4666 
z
" transform="scale(0.015625)"/>
       </defs>
       <use xlink:href="#DejaVuSans-35"/>
       <use xlink:href="#DejaVuSans-30" x="63.623047"/>
       <use xlink:href="#DejaVuSans-30" x="127.246094"/>
       <use xlink:href="#DejaVuSans-30" x="190.869141"/>
      </g>
     </g>
    </g>
   </g>
   <g id="matplotlib.axis_2">
    <g id="ytick_1">
     <g id="line2d_10">
      <defs>
       <path id="m5f52375d1b" d="M 0 0 
L -3.5 0 
" style="stroke: #000000; stroke-width: 0.8"/>
      </defs>
      <g>
       <use xlink:href="#m5f52375d1b" x="90" y="346.248998" style="stroke: #000000; stroke-width: 0.8"/>
      </g>
     </g>
     <g id="text_10">
      <!-- 0.2 -->
      <g transform="translate(58.717187 350.048217) scale(0.1 -0.1)">
       <defs>
        <path id="DejaVuSans-2212" d="M 678 2272 
L 4684 2272 
L 4684 1741 
L 678 1741 
L 678 2272 
z
" transform="scale(0.015625)"/>
        <path id="DejaVuSans-2e" d="M 684 794 
L 1344 794 
L 1344 0 
L 684 0 
L 684 794 
z
" transform="scale(0.015625)"/>
       </defs>
       <use xlink:href="#DejaVuSans-2212"/>
       <use xlink:href="#DejaVuSans-30" x="83.789062"/>
       <use xlink:href="#DejaVuSans-2e" x="147.412109"/>
       <use xlink:href="#DejaVuSans-32" x="179.199219"/>
      </g>
     </g>
    </g>
    <g id="ytick_2">
     <g id="line2d_11">
      <g>
       <use xlink:href="#m5f52375d1b" x="90" y="299.700832" style="stroke: #000000; stroke-width: 0.8"/>
      </g>
     </g>
     <g id="text_11">
      <!-- 0.0 -->
      <g transform="translate(67.096875 303.500051) scale(0.1 -0.1)">
       <use xlink:href="#DejaVuSans-30"/>
       <use xlink:href="#DejaVuSans-2e" x="63.623047"/>
       <use xlink:href="#DejaVuSans-30" x="95.410156"/>
      </g>
     </g>
    </g>
    <g id="ytick_3">
     <g id="line2d_12">
      <g>
       <use xlink:href="#m5f52375d1b" x="90" y="253.152666" style="stroke: #000000; stroke-width: 0.8"/>
      </g>
     </g>
     <g id="text_12">
      <!-- 0.2 -->
      <g transform="translate(67.096875 256.951884) scale(0.1 -0.1)">
       <use xlink:href="#DejaVuSans-30"/>
       <use xlink:href="#DejaVuSans-2e" x="63.623047"/>
       <use xlink:href="#DejaVuSans-32" x="95.410156"/>
      </g>
     </g>
    </g>
    <g id="ytick_4">
     <g id="line2d_13">
      <g>
       <use xlink:href="#m5f52375d1b" x="90" y="206.604499" style="stroke: #000000; stroke-width: 0.8"/>
      </g>
     </g>
     <g id="text_13">
      <!-- 0.4 -->
      <g transform="translate(67.096875 210.403718) scale(0.1 -0.1)">
       <use xlink:href="#DejaVuSans-30"/>
       <use xlink:href="#DejaVuSans-2e" x="63.623047"/>
       <use xlink:href="#DejaVuSans-34" x="95.410156"/>
      </g>
     </g>
    </g>
    <g id="ytick_5">
     <g id="line2d_14">
      <g>
       <use xlink:href="#m5f52375d1b" x="90" y="160.056333" style="stroke: #000000; stroke-width: 0.8"/>
      </g>
     </g>
     <g id="text_14">
      <!-- 0.6 -->
      <g transform="translate(67.096875 163.855552) scale(0.1 -0.1)">
       <use xlink:href="#DejaVuSans-30"/>
       <use xlink:href="#DejaVuSans-2e" x="63.623047"/>
       <use xlink:href="#DejaVuSans-36" x="95.410156"/>
      </g>
     </g>
    </g>
    <g id="ytick_6">
     <g id="line2d_15">
      <g>
       <use xlink:href="#m5f52375d1b" x="90" y="113.508166" style="stroke: #000000; stroke-width: 0.8"/>
      </g>
     </g>
     <g id="text_15">
      <!-- 0.8 -->
      <g transform="translate(67.096875 117.307385) scale(0.1 -0.1)">
       <use xlink:href="#DejaVuSans-30"/>
       <use xlink:href="#DejaVuSans-2e" x="63.623047"/>
       <use xlink:href="#DejaVuSans-38" x="95.410156"/>
      </g>
     </g>
    </g>
    <g id="ytick_7">
     <g id="line2d_16">
      <g>
       <use xlink:href="#m5f52375d1b" x="90" y="66.96" style="stroke: #000000; stroke-width: 0.8"/>
      </g>
     </g>
     <g id="text_16">
      <!-- 1.0 -->
      <g transform="translate(67.096875 70.759219) scale(0.1 -0.1)">
       <defs>
        <path id="DejaVuSans-31" d="M 794 531 
L 1825 531 
L 1825 4091 
L 703 3866 
L 703 4441 
L 1819 4666 
L 2450 4666 
L 2450 531 
L 3481 531 
L 3481 0 
L 794 0 
L 794 531 
z
" transform="scale(0.015625)"/>
       </defs>
       <use xlink:href="#DejaVuSans-31"/>
       <use xlink:href="#DejaVuSans-2e" x="63.623047"/>
       <use xlink:href="#DejaVuSans-30" x="95.410156"/>
      </g>
     </g>
    </g>
   </g>
   <g id="patch_356">
    <path d="M 90 384.48 
L 90 51.84 
" style="fill: none; stroke: #000000; stroke-width: 0.8; stroke-linejoin: miter; stroke-linecap: square"/>
   </g>
   <g id="patch_357">
    <path d="M 648 384.48 
L 648 51.84 
" style="fill: none; stroke: #000000; stroke-width: 0.8; stroke-linejoin: miter; stroke-linecap: square"/>
   </g>
   <g id="patch_358">
    <path d="M 90 384.48 
L 648 384.48 
" style="fill: none; stroke: #000000; stroke-width: 0.8; stroke-linejoin: miter; stroke-linecap: square"/>
   </g>
   <g id="patch_359">
    <path d="M 90 51.84 
L 648 51.84 
" style="fill: none; stroke: #000000; stroke-width: 0.8; stroke-linejoin: miter; stroke-linecap: square"/>
   </g>
   <g id="legend_1">
    <g id="patch_360">
     <path d="M 546.635937 103.874375 
L 641 103.874375 
Q 643 103.874375 643 101.874375 
L 643 58.84 
Q 643 56.84 641 56.84 
L 546.635937 56.84 
Q 544.635937 56.84 544.635937 58.84 
L 544.635937 101.874375 
Q 544.635937 103.874375 546.635937 103.874375 
z
" style="fill: #ffffff; opacity: 0.8; stroke: #cccccc; stroke-linejoin: miter"/>
    </g>
    <g id="patch_361">
     <path d="M 548.635937 68.438437 
L 568.635937 68.438437 
L 568.635937 61.438437 
L 548.635937 61.438437 
z
" style="fill: #0000ff; opacity: 0.7"/>
    </g>
    <g id="text_17">
     <!-- Teorico -->
     <g transform="translate(576.635937 68.438437) scale(0.1 -0.1)">
      <defs>
       <path id="DejaVuSans-54" d="M -19 4666 
L 3928 4666 
L 3928 4134 
L 2272 4134 
L 2272 0 
L 1638 0 
L 1638 4134 
L -19 4134 
L -19 4666 
z
" transform="scale(0.015625)"/>
       <path id="DejaVuSans-65" d="M 3597 1894 
L 3597 1613 
L 953 1613 
Q 991 1019 1311 708 
Q 1631 397 2203 397 
Q 2534 397 2845 478 
Q 3156 559 3463 722 
L 3463 178 
Q 3153 47 2828 -22 
Q 2503 -91 2169 -91 
Q 1331 -91 842 396 
Q 353 884 353 1716 
Q 353 2575 817 3079 
Q 1281 3584 2069 3584 
Q 2775 3584 3186 3129 
Q 3597 2675 3597 1894 
z
M 3022 2063 
Q 3016 2534 2758 2815 
Q 2500 3097 2075 3097 
Q 1594 3097 1305 2825 
Q 1016 2553 972 2059 
L 3022 2063 
z
" transform="scale(0.015625)"/>
       <path id="DejaVuSans-6f" d="M 1959 3097 
Q 1497 3097 1228 2736 
Q 959 2375 959 1747 
Q 959 1119 1226 758 
Q 1494 397 1959 397 
Q 2419 397 2687 759 
Q 2956 1122 2956 1747 
Q 2956 2369 2687 2733 
Q 2419 3097 1959 3097 
z
M 1959 3584 
Q 2709 3584 3137 3096 
Q 3566 2609 3566 1747 
Q 3566 888 3137 398 
Q 2709 -91 1959 -91 
Q 1206 -91 779 398 
Q 353 888 353 1747 
Q 353 2609 779 3096 
Q 1206 3584 1959 3584 
z
" transform="scale(0.015625)"/>
       <path id="DejaVuSans-72" d="M 2631 2963 
Q 2534 3019 2420 3045 
Q 2306 3072 2169 3072 
Q 1681 3072 1420 2755 
Q 1159 2438 1159 1844 
L 1159 0 
L 581 0 
L 581 3500 
L 1159 3500 
L 1159 2956 
Q 1341 3275 1631 3429 
Q 1922 3584 2338 3584 
Q 2397 3584 2469 3576 
Q 2541 3569 2628 3553 
L 2631 2963 
z
" transform="scale(0.015625)"/>
       <path id="DejaVuSans-69" d="M 603 3500 
L 1178 3500 
L 1178 0 
L 603 0 
L 603 3500 
z
M 603 4863 
L 1178 4863 
L 1178 4134 
L 603 4134 
L 603 4863 
z
" transform="scale(0.015625)"/>
       <path id="DejaVuSans-63" d="M 3122 3366 
L 3122 2828 
Q 2878 2963 2633 3030 
Q 2388 3097 2138 3097 
Q 1578 3097 1268 2742 
Q 959 2388 959 1747 
Q 959 1106 1268 751 
Q 1578 397 2138 397 
Q 2388 397 2633 464 
Q 2878 531 3122 666 
L 3122 134 
Q 2881 22 2623 -34 
Q 2366 -91 2075 -91 
Q 1284 -91 818 406 
Q 353 903 353 1747 
Q 353 2603 823 3093 
Q 1294 3584 2113 3584 
Q 2378 3584 2631 3529 
Q 2884 3475 3122 3366 
z
" transform="scale(0.015625)"/>
      </defs>
      <use xlink:href="#DejaVuSans-54"/>
      <use xlink:href="#DejaVuSans-65" x="44.083984"/>
      <use xlink:href="#DejaVuSans-6f" x="105.607422"/>
      <use xlink:href="#DejaVuSans-72" x="166.789062"/>
      <use xlink:href="#DejaVuSans-69" x="207.902344"/>
      <use xlink:href="#DejaVuSans-63" x="235.685547"/>
      <use xlink:href="#DejaVuSans-6f" x="290.666016"/>
     </g>
    </g>
    <g id="patch_362">
     <path d="M 548.635937 83.116562 
L 568.635937 83.116562 
L 568.635937 76.116562 
L 548.635937 76.116562 
z
" style="opacity: 0.7"/>
    </g>
    <g id="text_18">
     <!-- Emp Real -->
     <g transform="translate(576.635937 83.116562) scale(0.1 -0.1)">
      <defs>
       <path id="DejaVuSans-45" d="M 628 4666 
L 3578 4666 
L 3578 4134 
L 1259 4134 
L 1259 2753 
L 3481 2753 
L 3481 2222 
L 1259 2222 
L 1259 531 
L 3634 531 
L 3634 0 
L 628 0 
L 628 4666 
z
" transform="scale(0.015625)"/>
       <path id="DejaVuSans-6d" d="M 3328 2828 
Q 3544 3216 3844 3400 
Q 4144 3584 4550 3584 
Q 5097 3584 5394 3201 
Q 5691 2819 5691 2113 
L 5691 0 
L 5113 0 
L 5113 2094 
Q 5113 2597 4934 2840 
Q 4756 3084 4391 3084 
Q 3944 3084 3684 2787 
Q 3425 2491 3425 1978 
L 3425 0 
L 2847 0 
L 2847 2094 
Q 2847 2600 2669 2842 
Q 2491 3084 2119 3084 
Q 1678 3084 1418 2786 
Q 1159 2488 1159 1978 
L 1159 0 
L 581 0 
L 581 3500 
L 1159 3500 
L 1159 2956 
Q 1356 3278 1631 3431 
Q 1906 3584 2284 3584 
Q 2666 3584 2933 3390 
Q 3200 3197 3328 2828 
z
" transform="scale(0.015625)"/>
       <path id="DejaVuSans-70" d="M 1159 525 
L 1159 -1331 
L 581 -1331 
L 581 3500 
L 1159 3500 
L 1159 2969 
Q 1341 3281 1617 3432 
Q 1894 3584 2278 3584 
Q 2916 3584 3314 3078 
Q 3713 2572 3713 1747 
Q 3713 922 3314 415 
Q 2916 -91 2278 -91 
Q 1894 -91 1617 61 
Q 1341 213 1159 525 
z
M 3116 1747 
Q 3116 2381 2855 2742 
Q 2594 3103 2138 3103 
Q 1681 3103 1420 2742 
Q 1159 2381 1159 1747 
Q 1159 1113 1420 752 
Q 1681 391 2138 391 
Q 2594 391 2855 752 
Q 3116 1113 3116 1747 
z
" transform="scale(0.015625)"/>
       <path id="DejaVuSans-20" transform="scale(0.015625)"/>
       <path id="DejaVuSans-52" d="M 2841 2188 
Q 3044 2119 3236 1894 
Q 3428 1669 3622 1275 
L 4263 0 
L 3584 0 
L 2988 1197 
Q 2756 1666 2539 1819 
Q 2322 1972 1947 1972 
L 1259 1972 
L 1259 0 
L 628 0 
L 628 4666 
L 2053 4666 
Q 2853 4666 3247 4331 
Q 3641 3997 3641 3322 
Q 3641 2881 3436 2590 
Q 3231 2300 2841 2188 
z
M 1259 4147 
L 1259 2491 
L 2053 2491 
Q 2509 2491 2742 2702 
Q 2975 2913 2975 3322 
Q 2975 3731 2742 3939 
Q 2509 4147 2053 4147 
L 1259 4147 
z
" transform="scale(0.015625)"/>
       <path id="DejaVuSans-61" d="M 2194 1759 
Q 1497 1759 1228 1600 
Q 959 1441 959 1056 
Q 959 750 1161 570 
Q 1363 391 1709 391 
Q 2188 391 2477 730 
Q 2766 1069 2766 1631 
L 2766 1759 
L 2194 1759 
z
M 3341 1997 
L 3341 0 
L 2766 0 
L 2766 531 
Q 2569 213 2275 61 
Q 1981 -91 1556 -91 
Q 1019 -91 701 211 
Q 384 513 384 1019 
Q 384 1609 779 1909 
Q 1175 2209 1959 2209 
L 2766 2209 
L 2766 2266 
Q 2766 2663 2505 2880 
Q 2244 3097 1772 3097 
Q 1472 3097 1187 3025 
Q 903 2953 641 2809 
L 641 3341 
Q 956 3463 1253 3523 
Q 1550 3584 1831 3584 
Q 2591 3584 2966 3190 
Q 3341 2797 3341 1997 
z
" transform="scale(0.015625)"/>
       <path id="DejaVuSans-6c" d="M 603 4863 
L 1178 4863 
L 1178 0 
L 603 0 
L 603 4863 
z
" transform="scale(0.015625)"/>
      </defs>
      <use xlink:href="#DejaVuSans-45"/>
      <use xlink:href="#DejaVuSans-6d" x="63.183594"/>
      <use xlink:href="#DejaVuSans-70" x="160.595703"/>
      <use xlink:href="#DejaVuSans-20" x="224.072266"/>
      <use xlink:href="#DejaVuSans-52" x="255.859375"/>
      <use xlink:href="#DejaVuSans-65" x="320.841797"/>
      <use xlink:href="#DejaVuSans-61" x="382.365234"/>
      <use xlink:href="#DejaVuSans-6c" x="443.644531"/>
     </g>
    </g>
    <g id="patch_363">
     <path d="M 548.635937 97.794687 
L 568.635937 97.794687 
L 568.635937 90.794687 
L 548.635937 90.794687 
z
" style="fill: #ff0000"/>
    </g>
    <g id="text_19">
     <!-- Emp Optimo -->
     <g transform="translate(576.635937 97.794687) scale(0.1 -0.1)">
      <defs>
       <path id="DejaVuSans-4f" d="M 2522 4238 
Q 1834 4238 1429 3725 
Q 1025 3213 1025 2328 
Q 1025 1447 1429 934 
Q 1834 422 2522 422 
Q 3209 422 3611 934 
Q 4013 1447 4013 2328 
Q 4013 3213 3611 3725 
Q 3209 4238 2522 4238 
z
M 2522 4750 
Q 3503 4750 4090 4092 
Q 4678 3434 4678 2328 
Q 4678 1225 4090 567 
Q 3503 -91 2522 -91 
Q 1538 -91 948 565 
Q 359 1222 359 2328 
Q 359 3434 948 4092 
Q 1538 4750 2522 4750 
z
" transform="scale(0.015625)"/>
       <path id="DejaVuSans-74" d="M 1172 4494 
L 1172 3500 
L 2356 3500 
L 2356 3053 
L 1172 3053 
L 1172 1153 
Q 1172 725 1289 603 
Q 1406 481 1766 481 
L 2356 481 
L 2356 0 
L 1766 0 
Q 1100 0 847 248 
Q 594 497 594 1153 
L 594 3053 
L 172 3053 
L 172 3500 
L 594 3500 
L 594 4494 
L 1172 4494 
z
" transform="scale(0.015625)"/>
      </defs>
      <use xlink:href="#DejaVuSans-45"/>
      <use xlink:href="#DejaVuSans-6d" x="63.183594"/>
      <use xlink:href="#DejaVuSans-70" x="160.595703"/>
      <use xlink:href="#DejaVuSans-20" x="224.072266"/>
      <use xlink:href="#DejaVuSans-4f" x="255.859375"/>
      <use xlink:href="#DejaVuSans-70" x="334.570312"/>
      <use xlink:href="#DejaVuSans-74" x="398.046875"/>
      <use xlink:href="#DejaVuSans-69" x="437.255859"/>
      <use xlink:href="#DejaVuSans-6d" x="465.039062"/>
      <use xlink:href="#DejaVuSans-6f" x="562.451172"/>
     </g>
    </g>
   </g>
  </g>
 </g>
 <defs>
  <clipPath id="p0ae355f55e">
   <rect x="90" y="51.84" width="558" height="332.64"/>
  </clipPath>
 </defs>
</svg>
